ISO-10303-21;
HEADER;
/* Generated by software containing ST-Developer
 * from STEP Tools, Inc. (www.steptools.com) 
 */
/* OPTION: using custom renumber hook */

FILE_DESCRIPTION(
/* description */ ('STEP AP242 Edition 2',
'CAx-IF Rec.Pracs.---Representation and Presentation of Product Manufa
cturing Information (PMI)---4.0---2014-10-13',
'CAx-IF Rec.Pracs.---3D Tessellated Geometry---0.4---2014-09-14','2;1',
'CAx-IF Rec.Pracs.---User Defined Attributes---1.5---2016-08-15'),
/* implementation_level */ '2;1');

FILE_NAME(
/* name */ 'battery holder 2',
/* time_stamp */ '2026-09-29T21:23:38Z',
/* author */ (''),
/* organization */ (''),
/* preprocessor_version */ 'ST-DEVELOPER v20',
/* originating_system */ 'ONSHAPE BY PTC INC, 1.221',
/* authorisation */ '  ');

FILE_SCHEMA (('AP242_MANAGED_MODEL_BASED_3D_ENGINEERING_MIM_LF { 1 0 10303 442 3 1 4 }'));
ENDSEC;

DATA;
#10=SHAPE_REPRESENTATION_RELATIONSHIP('','',#434,#11);
#11=ADVANCED_BREP_SHAPE_REPRESENTATION('',(#432),#722);
#12=CYLINDRICAL_SURFACE('',#448,0.0015);
#13=CYLINDRICAL_SURFACE('',#451,0.0015);
#14=CYLINDRICAL_SURFACE('',#453,0.0015);
#15=CYLINDRICAL_SURFACE('',#471,0.003);
#16=CYLINDRICAL_SURFACE('',#472,0.002);
#17=CYLINDRICAL_SURFACE('',#473,0.004);
#18=CYLINDRICAL_SURFACE('',#474,0.002);
#19=CYLINDRICAL_SURFACE('',#475,0.002);
#20=CYLINDRICAL_SURFACE('',#476,0.002);
#21=CYLINDRICAL_SURFACE('',#477,0.002);
#22=LINE('',#607,#59);
#23=LINE('',#612,#60);
#24=LINE('',#616,#61);
#25=LINE('',#618,#62);
#26=LINE('',#620,#63);
#27=LINE('',#624,#64);
#28=LINE('',#628,#65);
#29=LINE('',#631,#66);
#30=LINE('',#632,#67);
#31=LINE('',#634,#68);
#32=LINE('',#637,#69);
#33=LINE('',#639,#70);
#34=LINE('',#641,#71);
#35=LINE('',#642,#72);
#36=LINE('',#644,#73);
#37=LINE('',#646,#74);
#38=LINE('',#648,#75);
#39=LINE('',#651,#76);
#40=LINE('',#653,#77);
#41=LINE('',#655,#78);
#42=LINE('',#657,#79);
#43=LINE('',#660,#80);
#44=LINE('',#662,#81);
#45=LINE('',#664,#82);
#46=LINE('',#666,#83);
#47=LINE('',#668,#84);
#48=LINE('',#669,#85);
#49=LINE('',#671,#86);
#50=LINE('',#673,#87);
#51=LINE('',#675,#88);
#52=LINE('',#680,#89);
#53=LINE('',#683,#90);
#54=LINE('',#684,#91);
#55=LINE('',#702,#92);
#56=LINE('',#705,#93);
#57=LINE('',#711,#94);
#58=LINE('',#713,#95);
#59=VECTOR('',#486,1.);
#60=VECTOR('',#489,1.);
#61=VECTOR('',#492,1.);
#62=VECTOR('',#493,1.);
#63=VECTOR('',#494,1.);
#64=VECTOR('',#497,1.);
#65=VECTOR('',#502,1.);
#66=VECTOR('',#503,1.);
#67=VECTOR('',#504,1.);
#68=VECTOR('',#507,1.);
#69=VECTOR('',#508,1.);
#70=VECTOR('',#509,1.);
#71=VECTOR('',#510,1.);
#72=VECTOR('',#511,1.);
#73=VECTOR('',#512,1.);
#74=VECTOR('',#513,1.);
#75=VECTOR('',#516,1.);
#76=VECTOR('',#517,1.);
#77=VECTOR('',#518,1.);
#78=VECTOR('',#519,1.);
#79=VECTOR('',#522,1.);
#80=VECTOR('',#523,1.);
#81=VECTOR('',#524,1.);
#82=VECTOR('',#525,1.);
#83=VECTOR('',#526,1.);
#84=VECTOR('',#527,1.);
#85=VECTOR('',#528,1.);
#86=VECTOR('',#531,1.);
#87=VECTOR('',#532,1.);
#88=VECTOR('',#533,1.);
#89=VECTOR('',#540,1.);
#90=VECTOR('',#541,1.);
#91=VECTOR('',#542,1.);
#92=VECTOR('',#571,1.);
#93=VECTOR('',#576,1.);
#94=VECTOR('',#583,1.);
#95=VECTOR('',#586,1.);
#96=ORIENTED_EDGE('',*,*,#210,.T.);
#97=ORIENTED_EDGE('',*,*,#211,.T.);
#98=ORIENTED_EDGE('',*,*,#212,.T.);
#99=ORIENTED_EDGE('',*,*,#213,.T.);
#100=ORIENTED_EDGE('',*,*,#214,.T.);
#101=ORIENTED_EDGE('',*,*,#215,.T.);
#102=ORIENTED_EDGE('',*,*,#216,.F.);
#103=ORIENTED_EDGE('',*,*,#217,.F.);
#104=ORIENTED_EDGE('',*,*,#218,.F.);
#105=ORIENTED_EDGE('',*,*,#219,.T.);
#106=ORIENTED_EDGE('',*,*,#220,.T.);
#107=ORIENTED_EDGE('',*,*,#221,.T.);
#108=ORIENTED_EDGE('',*,*,#222,.T.);
#109=ORIENTED_EDGE('',*,*,#223,.T.);
#110=ORIENTED_EDGE('',*,*,#220,.F.);
#111=ORIENTED_EDGE('',*,*,#224,.T.);
#112=ORIENTED_EDGE('',*,*,#225,.T.);
#113=ORIENTED_EDGE('',*,*,#226,.T.);
#114=ORIENTED_EDGE('',*,*,#227,.F.);
#115=ORIENTED_EDGE('',*,*,#228,.T.);
#116=ORIENTED_EDGE('',*,*,#218,.T.);
#117=ORIENTED_EDGE('',*,*,#229,.F.);
#118=ORIENTED_EDGE('',*,*,#230,.T.);
#119=ORIENTED_EDGE('',*,*,#231,.T.);
#120=ORIENTED_EDGE('',*,*,#232,.F.);
#121=ORIENTED_EDGE('',*,*,#233,.T.);
#122=ORIENTED_EDGE('',*,*,#234,.T.);
#123=ORIENTED_EDGE('',*,*,#235,.T.);
#124=ORIENTED_EDGE('',*,*,#236,.F.);
#125=ORIENTED_EDGE('',*,*,#237,.T.);
#126=ORIENTED_EDGE('',*,*,#238,.T.);
#127=ORIENTED_EDGE('',*,*,#239,.F.);
#128=ORIENTED_EDGE('',*,*,#240,.F.);
#129=ORIENTED_EDGE('',*,*,#241,.T.);
#130=ORIENTED_EDGE('',*,*,#216,.T.);
#131=ORIENTED_EDGE('',*,*,#242,.T.);
#132=ORIENTED_EDGE('',*,*,#214,.F.);
#133=ORIENTED_EDGE('',*,*,#243,.T.);
#134=ORIENTED_EDGE('',*,*,#244,.T.);
#135=ORIENTED_EDGE('',*,*,#245,.T.);
#136=ORIENTED_EDGE('',*,*,#246,.T.);
#137=ORIENTED_EDGE('',*,*,#211,.F.);
#138=ORIENTED_EDGE('',*,*,#247,.T.);
#139=ORIENTED_EDGE('',*,*,#248,.T.);
#140=ORIENTED_EDGE('',*,*,#212,.F.);
#141=ORIENTED_EDGE('',*,*,#249,.T.);
#142=ORIENTED_EDGE('',*,*,#250,.T.);
#143=ORIENTED_EDGE('',*,*,#210,.F.);
#144=ORIENTED_EDGE('',*,*,#251,.T.);
#145=ORIENTED_EDGE('',*,*,#252,.F.);
#146=ORIENTED_EDGE('',*,*,#250,.F.);
#147=ORIENTED_EDGE('',*,*,#227,.T.);
#148=ORIENTED_EDGE('',*,*,#253,.T.);
#149=ORIENTED_EDGE('',*,*,#232,.T.);
#150=ORIENTED_EDGE('',*,*,#254,.T.);
#151=ORIENTED_EDGE('',*,*,#236,.T.);
#152=ORIENTED_EDGE('',*,*,#255,.T.);
#153=ORIENTED_EDGE('',*,*,#244,.F.);
#154=ORIENTED_EDGE('',*,*,#256,.T.);
#155=ORIENTED_EDGE('',*,*,#247,.F.);
#156=ORIENTED_EDGE('',*,*,#257,.T.);
#157=ORIENTED_EDGE('',*,*,#222,.F.);
#158=ORIENTED_EDGE('',*,*,#258,.T.);
#159=ORIENTED_EDGE('',*,*,#246,.F.);
#160=ORIENTED_EDGE('',*,*,#251,.F.);
#161=ORIENTED_EDGE('',*,*,#234,.F.);
#162=ORIENTED_EDGE('',*,*,#259,.T.);
#163=ORIENTED_EDGE('',*,*,#225,.F.);
#164=ORIENTED_EDGE('',*,*,#260,.T.);
#165=ORIENTED_EDGE('',*,*,#238,.F.);
#166=ORIENTED_EDGE('',*,*,#261,.T.);
#167=ORIENTED_EDGE('',*,*,#252,.T.);
#168=ORIENTED_EDGE('',*,*,#217,.T.);
#169=ORIENTED_EDGE('',*,*,#241,.F.);
#170=ORIENTED_EDGE('',*,*,#262,.F.);
#171=ORIENTED_EDGE('',*,*,#263,.T.);
#172=ORIENTED_EDGE('',*,*,#229,.T.);
#173=ORIENTED_EDGE('',*,*,#260,.F.);
#174=ORIENTED_EDGE('',*,*,#231,.F.);
#175=ORIENTED_EDGE('',*,*,#264,.T.);
#176=ORIENTED_EDGE('',*,*,#265,.T.);
#177=ORIENTED_EDGE('',*,*,#239,.T.);
#178=ORIENTED_EDGE('',*,*,#265,.F.);
#179=ORIENTED_EDGE('',*,*,#266,.T.);
#180=ORIENTED_EDGE('',*,*,#262,.T.);
#181=ORIENTED_EDGE('',*,*,#240,.T.);
#182=ORIENTED_EDGE('',*,*,#263,.F.);
#183=ORIENTED_EDGE('',*,*,#266,.F.);
#184=ORIENTED_EDGE('',*,*,#264,.F.);
#185=ORIENTED_EDGE('',*,*,#230,.F.);
#186=ORIENTED_EDGE('',*,*,#255,.F.);
#187=ORIENTED_EDGE('',*,*,#242,.F.);
#188=ORIENTED_EDGE('',*,*,#215,.F.);
#189=ORIENTED_EDGE('',*,*,#245,.F.);
#190=ORIENTED_EDGE('',*,*,#258,.F.);
#191=ORIENTED_EDGE('',*,*,#224,.F.);
#192=ORIENTED_EDGE('',*,*,#219,.F.);
#193=ORIENTED_EDGE('',*,*,#228,.F.);
#194=ORIENTED_EDGE('',*,*,#253,.F.);
#195=ORIENTED_EDGE('',*,*,#226,.F.);
#196=ORIENTED_EDGE('',*,*,#259,.F.);
#197=ORIENTED_EDGE('',*,*,#233,.F.);
#198=ORIENTED_EDGE('',*,*,#254,.F.);
#199=ORIENTED_EDGE('',*,*,#235,.F.);
#200=ORIENTED_EDGE('',*,*,#261,.F.);
#201=ORIENTED_EDGE('',*,*,#237,.F.);
#202=ORIENTED_EDGE('',*,*,#256,.F.);
#203=ORIENTED_EDGE('',*,*,#243,.F.);
#204=ORIENTED_EDGE('',*,*,#213,.F.);
#205=ORIENTED_EDGE('',*,*,#248,.F.);
#206=ORIENTED_EDGE('',*,*,#257,.F.);
#207=ORIENTED_EDGE('',*,*,#249,.F.);
#208=ORIENTED_EDGE('',*,*,#221,.F.);
#209=ORIENTED_EDGE('',*,*,#223,.F.);
#210=EDGE_CURVE('',#267,#267,#307,.T.);
#211=EDGE_CURVE('',#268,#268,#308,.T.);
#212=EDGE_CURVE('',#269,#270,#22,.T.);
#213=EDGE_CURVE('',#270,#271,#309,.F.);
#214=EDGE_CURVE('',#271,#272,#23,.T.);
#215=EDGE_CURVE('',#272,#273,#310,.T.);
#216=EDGE_CURVE('',#274,#273,#24,.T.);
#217=EDGE_CURVE('',#275,#274,#25,.T.);
#218=EDGE_CURVE('',#276,#275,#26,.T.);
#219=EDGE_CURVE('',#276,#277,#311,.F.);
#220=EDGE_CURVE('',#277,#278,#27,.T.);
#221=EDGE_CURVE('',#278,#269,#312,.F.);
#222=EDGE_CURVE('',#279,#280,#28,.T.);
#223=EDGE_CURVE('',#280,#278,#29,.T.);
#224=EDGE_CURVE('',#277,#279,#30,.F.);
#225=EDGE_CURVE('',#281,#282,#31,.T.);
#226=EDGE_CURVE('',#282,#283,#32,.F.);
#227=EDGE_CURVE('',#284,#283,#33,.T.);
#228=EDGE_CURVE('',#284,#276,#34,.T.);
#229=EDGE_CURVE('',#285,#275,#35,.T.);
#230=EDGE_CURVE('',#285,#286,#36,.T.);
#231=EDGE_CURVE('',#286,#281,#37,.T.);
#232=EDGE_CURVE('',#287,#288,#38,.T.);
#233=EDGE_CURVE('',#287,#289,#39,.T.);
#234=EDGE_CURVE('',#289,#290,#40,.T.);
#235=EDGE_CURVE('',#290,#288,#41,.F.);
#236=EDGE_CURVE('',#291,#292,#42,.T.);
#237=EDGE_CURVE('',#291,#293,#43,.T.);
#238=EDGE_CURVE('',#293,#294,#44,.T.);
#239=EDGE_CURVE('',#295,#294,#45,.T.);
#240=EDGE_CURVE('',#296,#295,#46,.T.);
#241=EDGE_CURVE('',#296,#274,#47,.T.);
#242=EDGE_CURVE('',#273,#292,#48,.F.);
#243=EDGE_CURVE('',#271,#297,#49,.F.);
#244=EDGE_CURVE('',#297,#298,#50,.T.);
#245=EDGE_CURVE('',#298,#272,#51,.T.);
#246=EDGE_CURVE('',#299,#299,#313,.T.);
#247=EDGE_CURVE('',#300,#301,#52,.T.);
#248=EDGE_CURVE('',#301,#270,#53,.T.);
#249=EDGE_CURVE('',#269,#300,#54,.F.);
#250=EDGE_CURVE('',#302,#302,#314,.T.);
#251=EDGE_CURVE('',#303,#303,#315,.T.);
#252=EDGE_CURVE('',#304,#304,#316,.T.);
#253=EDGE_CURVE('',#283,#287,#317,.T.);
#254=EDGE_CURVE('',#288,#291,#318,.T.);
#255=EDGE_CURVE('',#292,#298,#319,.F.);
#256=EDGE_CURVE('',#297,#301,#320,.T.);
#257=EDGE_CURVE('',#300,#280,#321,.T.);
#258=EDGE_CURVE('',#279,#284,#322,.T.);
#259=EDGE_CURVE('',#289,#282,#323,.F.);
#260=EDGE_CURVE('',#281,#294,#55,.T.);
#261=EDGE_CURVE('',#293,#290,#324,.F.);
#262=EDGE_CURVE('',#305,#296,#56,.T.);
#263=EDGE_CURVE('',#305,#285,#325,.T.);
#264=EDGE_CURVE('',#286,#306,#326,.F.);
#265=EDGE_CURVE('',#306,#295,#57,.T.);
#266=EDGE_CURVE('',#306,#305,#58,.F.);
#267=VERTEX_POINT('',#604);
#268=VERTEX_POINT('',#606);
#269=VERTEX_POINT('',#608);
#270=VERTEX_POINT('',#609);
#271=VERTEX_POINT('',#611);
#272=VERTEX_POINT('',#613);
#273=VERTEX_POINT('',#615);
#274=VERTEX_POINT('',#617);
#275=VERTEX_POINT('',#619);
#276=VERTEX_POINT('',#621);
#277=VERTEX_POINT('',#623);
#278=VERTEX_POINT('',#625);
#279=VERTEX_POINT('',#629);
#280=VERTEX_POINT('',#630);
#281=VERTEX_POINT('',#635);
#282=VERTEX_POINT('',#636);
#283=VERTEX_POINT('',#638);
#284=VERTEX_POINT('',#640);
#285=VERTEX_POINT('',#643);
#286=VERTEX_POINT('',#645);
#287=VERTEX_POINT('',#649);
#288=VERTEX_POINT('',#650);
#289=VERTEX_POINT('',#652);
#290=VERTEX_POINT('',#654);
#291=VERTEX_POINT('',#658);
#292=VERTEX_POINT('',#659);
#293=VERTEX_POINT('',#661);
#294=VERTEX_POINT('',#663);
#295=VERTEX_POINT('',#665);
#296=VERTEX_POINT('',#667);
#297=VERTEX_POINT('',#672);
#298=VERTEX_POINT('',#674);
#299=VERTEX_POINT('',#678);
#300=VERTEX_POINT('',#681);
#301=VERTEX_POINT('',#682);
#302=VERTEX_POINT('',#687);
#303=VERTEX_POINT('',#690);
#304=VERTEX_POINT('',#692);
#305=VERTEX_POINT('',#706);
#306=VERTEX_POINT('',#710);
#307=CIRCLE('',#437,0.0015);
#308=CIRCLE('',#438,0.0015);
#309=CIRCLE('',#439,0.002);
#310=CIRCLE('',#440,0.002);
#311=CIRCLE('',#441,0.004);
#312=CIRCLE('',#442,0.002);
#313=CIRCLE('',#449,0.0015);
#314=CIRCLE('',#452,0.0015);
#315=CIRCLE('',#454,0.0015);
#316=CIRCLE('',#455,0.0015);
#317=CIRCLE('',#457,0.002);
#318=CIRCLE('',#458,0.002);
#319=CIRCLE('',#459,0.002);
#320=CIRCLE('',#460,0.002);
#321=CIRCLE('',#461,0.002);
#322=CIRCLE('',#462,0.004);
#323=CIRCLE('',#464,0.002);
#324=CIRCLE('',#465,0.002);
#325=CIRCLE('',#467,0.003);
#326=CIRCLE('',#469,0.003);
#327=EDGE_LOOP('',(#96));
#328=EDGE_LOOP('',(#97));
#329=EDGE_LOOP('',(#98,#99,#100,#101,#102,#103,#104,#105,#106,#107));
#330=EDGE_LOOP('',(#108,#109,#110,#111));
#331=EDGE_LOOP('',(#112,#113,#114,#115,#116,#117,#118,#119));
#332=EDGE_LOOP('',(#120,#121,#122,#123));
#333=EDGE_LOOP('',(#124,#125,#126,#127,#128,#129,#130,#131));
#334=EDGE_LOOP('',(#132,#133,#134,#135));
#335=EDGE_LOOP('',(#136));
#336=EDGE_LOOP('',(#137));
#337=EDGE_LOOP('',(#138,#139,#140,#141));
#338=EDGE_LOOP('',(#142));
#339=EDGE_LOOP('',(#143));
#340=EDGE_LOOP('',(#144));
#341=EDGE_LOOP('',(#145));
#342=EDGE_LOOP('',(#146));
#343=EDGE_LOOP('',(#147,#148,#149,#150,#151,#152,#153,#154,#155,#156,#157,
#158));
#344=EDGE_LOOP('',(#159));
#345=EDGE_LOOP('',(#160));
#346=EDGE_LOOP('',(#161,#162,#163,#164,#165,#166));
#347=EDGE_LOOP('',(#167));
#348=EDGE_LOOP('',(#168,#169,#170,#171,#172));
#349=EDGE_LOOP('',(#173,#174,#175,#176,#177));
#350=EDGE_LOOP('',(#178,#179,#180,#181));
#351=EDGE_LOOP('',(#182,#183,#184,#185));
#352=EDGE_LOOP('',(#186,#187,#188,#189));
#353=EDGE_LOOP('',(#190,#191,#192,#193));
#354=EDGE_LOOP('',(#194,#195,#196,#197));
#355=EDGE_LOOP('',(#198,#199,#200,#201));
#356=EDGE_LOOP('',(#202,#203,#204,#205));
#357=EDGE_LOOP('',(#206,#207,#208,#209));
#358=FACE_BOUND('',#327,.T.);
#359=FACE_BOUND('',#328,.T.);
#360=FACE_BOUND('',#329,.T.);
#361=FACE_BOUND('',#330,.T.);
#362=FACE_BOUND('',#331,.T.);
#363=FACE_BOUND('',#332,.T.);
#364=FACE_BOUND('',#333,.T.);
#365=FACE_BOUND('',#334,.T.);
#366=FACE_BOUND('',#335,.T.);
#367=FACE_BOUND('',#336,.T.);
#368=FACE_BOUND('',#337,.T.);
#369=FACE_BOUND('',#338,.T.);
#370=FACE_BOUND('',#339,.T.);
#371=FACE_BOUND('',#340,.T.);
#372=FACE_BOUND('',#341,.T.);
#373=FACE_BOUND('',#342,.T.);
#374=FACE_BOUND('',#343,.T.);
#375=FACE_BOUND('',#344,.T.);
#376=FACE_BOUND('',#345,.T.);
#377=FACE_BOUND('',#346,.T.);
#378=FACE_BOUND('',#347,.T.);
#379=FACE_BOUND('',#348,.T.);
#380=FACE_BOUND('',#349,.T.);
#381=FACE_BOUND('',#350,.T.);
#382=FACE_BOUND('',#351,.T.);
#383=FACE_BOUND('',#352,.T.);
#384=FACE_BOUND('',#353,.T.);
#385=FACE_BOUND('',#354,.T.);
#386=FACE_BOUND('',#355,.T.);
#387=FACE_BOUND('',#356,.T.);
#388=FACE_BOUND('',#357,.T.);
#389=PLANE('',#436);
#390=PLANE('',#443);
#391=PLANE('',#444);
#392=PLANE('',#445);
#393=PLANE('',#446);
#394=PLANE('',#447);
#395=PLANE('',#450);
#396=PLANE('',#456);
#397=PLANE('',#463);
#398=PLANE('',#466);
#399=PLANE('',#468);
#400=PLANE('',#470);
#401=ADVANCED_FACE('',(#358,#359,#360),#389,.F.);
#402=ADVANCED_FACE('',(#361),#390,.T.);
#403=ADVANCED_FACE('',(#362),#391,.F.);
#404=ADVANCED_FACE('',(#363),#392,.F.);
#405=ADVANCED_FACE('',(#364),#393,.F.);
#406=ADVANCED_FACE('',(#365),#394,.T.);
#407=ADVANCED_FACE('',(#366,#367),#12,.F.);
#408=ADVANCED_FACE('',(#368),#395,.T.);
#409=ADVANCED_FACE('',(#369,#370),#13,.F.);
#410=ADVANCED_FACE('',(#371,#372),#14,.F.);
#411=ADVANCED_FACE('',(#373,#374,#375,#376),#396,.T.);
#412=ADVANCED_FACE('',(#377,#378),#397,.F.);
#413=ADVANCED_FACE('',(#379),#398,.F.);
#414=ADVANCED_FACE('',(#380),#399,.T.);
#415=ADVANCED_FACE('',(#381),#400,.F.);
#416=ADVANCED_FACE('',(#382),#15,.T.);
#417=ADVANCED_FACE('',(#383),#16,.F.);
#418=ADVANCED_FACE('',(#384),#17,.T.);
#419=ADVANCED_FACE('',(#385),#18,.T.);
#420=ADVANCED_FACE('',(#386),#19,.T.);
#421=ADVANCED_FACE('',(#387),#20,.T.);
#422=ADVANCED_FACE('',(#388),#21,.T.);
#423=CLOSED_SHELL('',(#401,#402,#403,#404,#405,#406,#407,#408,#409,#410,
#411,#412,#413,#414,#415,#416,#417,#418,#419,#420,#421,#422));
#424=STYLED_ITEM('',(#425),#432);
#425=PRESENTATION_STYLE_ASSIGNMENT((#426));
#426=SURFACE_STYLE_USAGE(.BOTH.,#427);
#427=SURFACE_SIDE_STYLE('',(#428));
#428=SURFACE_STYLE_FILL_AREA(#429);
#429=FILL_AREA_STYLE('',(#430));
#430=FILL_AREA_STYLE_COLOUR('',#431);
#431=DRAUGHTING_PRE_DEFINED_COLOUR('black');
#432=MANIFOLD_SOLID_BREP('Part 1',#423);
#433=SHAPE_DEFINITION_REPRESENTATION(#727,#434);
#434=SHAPE_REPRESENTATION('Part 1',(#435),#722);
#435=AXIS2_PLACEMENT_3D('',#601,#478,#479);
#436=AXIS2_PLACEMENT_3D('',#602,#480,#481);
#437=AXIS2_PLACEMENT_3D('',#603,#482,#483);
#438=AXIS2_PLACEMENT_3D('',#605,#484,#485);
#439=AXIS2_PLACEMENT_3D('',#610,#487,#488);
#440=AXIS2_PLACEMENT_3D('',#614,#490,#491);
#441=AXIS2_PLACEMENT_3D('',#622,#495,#496);
#442=AXIS2_PLACEMENT_3D('',#626,#498,#499);
#443=AXIS2_PLACEMENT_3D('',#627,#500,#501);
#444=AXIS2_PLACEMENT_3D('',#633,#505,#506);
#445=AXIS2_PLACEMENT_3D('',#647,#514,#515);
#446=AXIS2_PLACEMENT_3D('',#656,#520,#521);
#447=AXIS2_PLACEMENT_3D('',#670,#529,#530);
#448=AXIS2_PLACEMENT_3D('',#676,#534,#535);
#449=AXIS2_PLACEMENT_3D('',#677,#536,#537);
#450=AXIS2_PLACEMENT_3D('',#679,#538,#539);
#451=AXIS2_PLACEMENT_3D('',#685,#543,#544);
#452=AXIS2_PLACEMENT_3D('',#686,#545,#546);
#453=AXIS2_PLACEMENT_3D('',#688,#547,#548);
#454=AXIS2_PLACEMENT_3D('',#689,#549,#550);
#455=AXIS2_PLACEMENT_3D('',#691,#551,#552);
#456=AXIS2_PLACEMENT_3D('',#693,#553,#554);
#457=AXIS2_PLACEMENT_3D('',#694,#555,#556);
#458=AXIS2_PLACEMENT_3D('',#695,#557,#558);
#459=AXIS2_PLACEMENT_3D('',#696,#559,#560);
#460=AXIS2_PLACEMENT_3D('',#697,#561,#562);
#461=AXIS2_PLACEMENT_3D('',#698,#563,#564);
#462=AXIS2_PLACEMENT_3D('',#699,#565,#566);
#463=AXIS2_PLACEMENT_3D('',#700,#567,#568);
#464=AXIS2_PLACEMENT_3D('',#701,#569,#570);
#465=AXIS2_PLACEMENT_3D('',#703,#572,#573);
#466=AXIS2_PLACEMENT_3D('',#704,#574,#575);
#467=AXIS2_PLACEMENT_3D('',#707,#577,#578);
#468=AXIS2_PLACEMENT_3D('',#708,#579,#580);
#469=AXIS2_PLACEMENT_3D('',#709,#581,#582);
#470=AXIS2_PLACEMENT_3D('',#712,#584,#585);
#471=AXIS2_PLACEMENT_3D('',#714,#587,#588);
#472=AXIS2_PLACEMENT_3D('',#715,#589,#590);
#473=AXIS2_PLACEMENT_3D('',#716,#591,#592);
#474=AXIS2_PLACEMENT_3D('',#717,#593,#594);
#475=AXIS2_PLACEMENT_3D('',#718,#595,#596);
#476=AXIS2_PLACEMENT_3D('',#719,#597,#598);
#477=AXIS2_PLACEMENT_3D('',#720,#599,#600);
#478=DIRECTION('',(0.,0.,1.));
#479=DIRECTION('',(1.,0.,0.));
#480=DIRECTION('',(0.,0.,1.));
#481=DIRECTION('',(1.,0.,0.));
#482=DIRECTION('',(0.,0.,1.));
#483=DIRECTION('',(1.,0.,0.));
#484=DIRECTION('',(0.,0.,1.));
#485=DIRECTION('',(-1.76491446194803E-15,1.,0.));
#486=DIRECTION('',(0.,1.,0.));
#487=DIRECTION('',(0.,0.,1.));
#488=DIRECTION('',(1.,0.,0.));
#489=DIRECTION('',(1.,2.31296463463575E-15,0.));
#490=DIRECTION('',(0.,0.,1.));
#491=DIRECTION('',(1.,0.,0.));
#492=DIRECTION('',(-1.44560289664734E-16,-1.,0.));
#493=DIRECTION('',(-1.,0.,0.));
#494=DIRECTION('',(-5.05961013826569E-16,1.,0.));
#495=DIRECTION('',(0.,0.,1.));
#496=DIRECTION('',(1.,0.,0.));
#497=DIRECTION('',(-1.,0.,0.));
#498=DIRECTION('',(0.,0.,1.));
#499=DIRECTION('',(1.,0.,0.));
#500=DIRECTION('',(0.,-1.,0.));
#501=DIRECTION('',(0.,0.,-1.));
#502=DIRECTION('',(-1.,0.,0.));
#503=DIRECTION('',(0.,0.,-1.));
#504=DIRECTION('',(0.,0.,-1.));
#505=DIRECTION('',(-1.,-5.05961013826569E-16,0.));
#506=DIRECTION('',(5.05961013826569E-16,-1.,0.));
#507=DIRECTION('',(-5.05961013826569E-16,1.,0.));
#508=DIRECTION('',(0.,0.,-1.));
#509=DIRECTION('',(-5.05961013826569E-16,1.,0.));
#510=DIRECTION('',(0.,0.,-1.));
#511=DIRECTION('',(0.,0.,-1.));
#512=DIRECTION('',(-5.05961013826569E-16,1.,0.));
#513=DIRECTION('',(0.,0.,-1.));
#514=DIRECTION('',(0.,-1.,0.));
#515=DIRECTION('',(0.,0.,-1.));
#516=DIRECTION('',(-1.,0.,0.));
#517=DIRECTION('',(0.,0.,-1.));
#518=DIRECTION('',(-1.,0.,0.));
#519=DIRECTION('',(0.,0.,-1.));
#520=DIRECTION('',(1.,-1.44560289664734E-16,0.));
#521=DIRECTION('',(1.44560289664734E-16,1.,0.));
#522=DIRECTION('',(-1.44560289664734E-16,-1.,0.));
#523=DIRECTION('',(0.,0.,-1.));
#524=DIRECTION('',(-1.44560289664734E-16,-1.,0.));
#525=DIRECTION('',(0.,0.,-1.));
#526=DIRECTION('',(-1.61369625672261E-16,1.,0.));
#527=DIRECTION('',(0.,0.,-1.));
#528=DIRECTION('',(0.,0.,-1.));
#529=DIRECTION('',(-2.31296463463575E-15,1.,0.));
#530=DIRECTION('',(-1.,-2.31296463463575E-15,0.));
#531=DIRECTION('',(0.,0.,-1.));
#532=DIRECTION('',(1.,2.31296463463575E-15,0.));
#533=DIRECTION('',(0.,0.,-1.));
#534=DIRECTION('',(0.,0.,-1.));
#535=DIRECTION('',(-1.,0.,0.));
#536=DIRECTION('',(0.,0.,1.));
#537=DIRECTION('',(-1.76491446194803E-15,1.,0.));
#538=DIRECTION('',(-1.,0.,0.));
#539=DIRECTION('',(0.,0.,1.));
#540=DIRECTION('',(0.,1.,0.));
#541=DIRECTION('',(0.,0.,-1.));
#542=DIRECTION('',(0.,0.,-1.));
#543=DIRECTION('',(0.,0.,-1.));
#544=DIRECTION('',(-1.,0.,0.));
#545=DIRECTION('',(0.,0.,1.));
#546=DIRECTION('',(1.,0.,0.));
#547=DIRECTION('',(0.,0.,-1.));
#548=DIRECTION('',(-1.,0.,0.));
#549=DIRECTION('',(0.,0.,1.));
#550=DIRECTION('',(1.65389215948552E-15,-1.,0.));
#551=DIRECTION('',(0.,0.,1.));
#552=DIRECTION('',(1.65389215948552E-15,-1.,0.));
#553=DIRECTION('',(0.,0.,1.));
#554=DIRECTION('',(1.,0.,0.));
#555=DIRECTION('',(0.,0.,1.));
#556=DIRECTION('',(1.,0.,0.));
#557=DIRECTION('',(0.,0.,1.));
#558=DIRECTION('',(1.,0.,0.));
#559=DIRECTION('',(0.,0.,1.));
#560=DIRECTION('',(1.,0.,0.));
#561=DIRECTION('',(0.,0.,1.));
#562=DIRECTION('',(1.,0.,0.));
#563=DIRECTION('',(0.,0.,1.));
#564=DIRECTION('',(1.,0.,0.));
#565=DIRECTION('',(0.,0.,1.));
#566=DIRECTION('',(1.,0.,0.));
#567=DIRECTION('',(0.,0.,1.));
#568=DIRECTION('',(1.,0.,0.));
#569=DIRECTION('',(0.,0.,1.));
#570=DIRECTION('',(1.,0.,0.));
#571=DIRECTION('',(-1.,0.,0.));
#572=DIRECTION('',(0.,0.,1.));
#573=DIRECTION('',(1.,0.,0.));
#574=DIRECTION('',(0.,-1.,0.));
#575=DIRECTION('',(0.,0.,-1.));
#576=DIRECTION('',(-1.,0.,0.));
#577=DIRECTION('',(0.,-1.,0.));
#578=DIRECTION('',(0.,0.,-1.));
#579=DIRECTION('',(0.,-1.,0.));
#580=DIRECTION('',(0.,0.,-1.));
#581=DIRECTION('',(0.,-1.,0.));
#582=DIRECTION('',(0.,0.,-1.));
#583=DIRECTION('',(-1.,0.,0.));
#584=DIRECTION('',(0.,0.,1.));
#585=DIRECTION('',(1.,0.,0.));
#586=DIRECTION('',(-5.05961013826569E-16,1.,0.));
#587=DIRECTION('',(-5.05961013826569E-16,1.,0.));
#588=DIRECTION('',(-1.,-5.05961013826569E-16,0.));
#589=DIRECTION('',(0.,0.,-1.));
#590=DIRECTION('',(-1.,0.,0.));
#591=DIRECTION('',(0.,0.,1.));
#592=DIRECTION('',(1.,0.,0.));
#593=DIRECTION('',(0.,0.,-1.));
#594=DIRECTION('',(-1.,0.,0.));
#595=DIRECTION('',(0.,0.,-1.));
#596=DIRECTION('',(-1.,0.,0.));
#597=DIRECTION('',(0.,0.,-1.));
#598=DIRECTION('',(-1.,0.,0.));
#599=DIRECTION('',(0.,0.,-1.));
#600=DIRECTION('',(-1.,0.,0.));
#601=CARTESIAN_POINT('',(0.,0.,0.));
#602=CARTESIAN_POINT('',(-0.0105,-0.003,0.));
#603=CARTESIAN_POINT('',(-0.021,-0.01975,0.));
#604=CARTESIAN_POINT('',(-0.0195,-0.01975,0.));
#605=CARTESIAN_POINT('',(2.26745205961159E-18,-0.01375,0.));
#606=CARTESIAN_POINT('',(-3.79919633310455E-19,-0.01225,0.));
#607=CARTESIAN_POINT('',(-0.024,-0.01975,0.));
#608=CARTESIAN_POINT('',(-0.024,-0.02075,0.));
#609=CARTESIAN_POINT('',(-0.024,-0.01875,0.));
#610=CARTESIAN_POINT('',(-0.022,-0.01875,0.));
#611=CARTESIAN_POINT('',(-0.022,-0.01675,0.));
#612=CARTESIAN_POINT('',(-0.021,-0.01675,0.));
#613=CARTESIAN_POINT('',(-0.005,-0.01675,0.));
#614=CARTESIAN_POINT('',(-0.005,-0.01475,0.));
#615=CARTESIAN_POINT('',(-0.003,-0.01475,0.));
#616=CARTESIAN_POINT('',(-0.003,-0.01375,0.));
#617=CARTESIAN_POINT('',(-0.003,-0.01075,0.));
#618=CARTESIAN_POINT('',(-0.0015,-0.01075,0.));
#619=CARTESIAN_POINT('',(0.003,-0.01075,0.));
#620=CARTESIAN_POINT('',(0.003,-0.01975,0.));
#621=CARTESIAN_POINT('',(0.003,-0.01875,0.));
#622=CARTESIAN_POINT('',(-0.001,-0.01875,0.));
#623=CARTESIAN_POINT('',(-0.001,-0.02275,0.));
#624=CARTESIAN_POINT('',(-0.021,-0.02275,0.));
#625=CARTESIAN_POINT('',(-0.022,-0.02275,0.));
#626=CARTESIAN_POINT('',(-0.022,-0.02075,0.));
#627=CARTESIAN_POINT('',(-0.021,-0.02275,0.006));
#628=CARTESIAN_POINT('',(-0.021,-0.02275,0.006));
#629=CARTESIAN_POINT('',(-0.001,-0.02275,0.006));
#630=CARTESIAN_POINT('',(-0.022,-0.02275,0.006));
#631=CARTESIAN_POINT('',(-0.022,-0.02275,0.006));
#632=CARTESIAN_POINT('',(-0.001,-0.02275,0.006));
#633=CARTESIAN_POINT('',(0.003,-0.01975,0.006));
#634=CARTESIAN_POINT('',(0.003,-0.01975,0.));
#635=CARTESIAN_POINT('',(0.003,0.01075,0.));
#636=CARTESIAN_POINT('',(0.003,0.01475,0.));
#637=CARTESIAN_POINT('',(0.003,0.01475,0.006));
#638=CARTESIAN_POINT('',(0.003,0.01475,0.006));
#639=CARTESIAN_POINT('',(0.003,-0.01975,0.006));
#640=CARTESIAN_POINT('',(0.003,-0.01875,0.006));
#641=CARTESIAN_POINT('',(0.003,-0.01875,0.));
#642=CARTESIAN_POINT('',(0.003,-0.01075,0.002));
#643=CARTESIAN_POINT('',(0.003,-0.01075,0.005));
#644=CARTESIAN_POINT('',(0.003,-0.01975,0.005));
#645=CARTESIAN_POINT('',(0.003,0.01075,0.005));
#646=CARTESIAN_POINT('',(0.003,0.01075,0.002));
#647=CARTESIAN_POINT('',(-3.90312782094781E-18,0.01675,0.006));
#648=CARTESIAN_POINT('',(-3.90312782094781E-18,0.01675,0.006));
#649=CARTESIAN_POINT('',(0.000999999999999986,0.01675,0.006));
#650=CARTESIAN_POINT('',(-0.001,0.01675,0.006));
#651=CARTESIAN_POINT('',(0.000999999999999986,0.01675,0.006));
#652=CARTESIAN_POINT('',(0.000999999999999986,0.01675,0.));
#653=CARTESIAN_POINT('',(-3.90312782094781E-18,0.01675,0.));
#654=CARTESIAN_POINT('',(-0.001,0.01675,0.));
#655=CARTESIAN_POINT('',(-0.001,0.01675,0.006));
#656=CARTESIAN_POINT('',(-0.003,-0.01375,0.006));
#657=CARTESIAN_POINT('',(-0.003,-0.01375,0.006));
#658=CARTESIAN_POINT('',(-0.003,0.01475,0.006));
#659=CARTESIAN_POINT('',(-0.003,-0.01475,0.006));
#660=CARTESIAN_POINT('',(-0.003,0.01475,0.006));
#661=CARTESIAN_POINT('',(-0.003,0.01475,0.));
#662=CARTESIAN_POINT('',(-0.003,-0.01375,0.));
#663=CARTESIAN_POINT('',(-0.003,0.01075,0.));
#664=CARTESIAN_POINT('',(-0.003,0.01075,0.002));
#665=CARTESIAN_POINT('',(-0.003,0.01075,0.002));
#666=CARTESIAN_POINT('',(-0.003,0.,0.002));
#667=CARTESIAN_POINT('',(-0.003,-0.01075,0.002));
#668=CARTESIAN_POINT('',(-0.003,-0.01075,0.002));
#669=CARTESIAN_POINT('',(-0.003,-0.01475,0.006));
#670=CARTESIAN_POINT('',(-0.021,-0.01675,0.006));
#671=CARTESIAN_POINT('',(-0.022,-0.01675,0.006));
#672=CARTESIAN_POINT('',(-0.022,-0.01675,0.006));
#673=CARTESIAN_POINT('',(-0.021,-0.01675,0.006));
#674=CARTESIAN_POINT('',(-0.005,-0.01675,0.006));
#675=CARTESIAN_POINT('',(-0.005,-0.01675,0.006));
#676=CARTESIAN_POINT('',(2.26745205961159E-18,-0.01375,0.006));
#677=CARTESIAN_POINT('',(2.26745205961159E-18,-0.01375,0.006));
#678=CARTESIAN_POINT('',(-3.79919633310455E-19,-0.01225,0.006));
#679=CARTESIAN_POINT('',(-0.024,-0.01975,0.006));
#680=CARTESIAN_POINT('',(-0.024,-0.01975,0.006));
#681=CARTESIAN_POINT('',(-0.024,-0.02075,0.006));
#682=CARTESIAN_POINT('',(-0.024,-0.01875,0.006));
#683=CARTESIAN_POINT('',(-0.024,-0.01875,0.006));
#684=CARTESIAN_POINT('',(-0.024,-0.02075,0.006));
#685=CARTESIAN_POINT('',(-0.021,-0.01975,0.006));
#686=CARTESIAN_POINT('',(-0.021,-0.01975,0.006));
#687=CARTESIAN_POINT('',(-0.0195,-0.01975,0.006));
#688=CARTESIAN_POINT('',(-3.45962720759127E-18,0.01375,0.006));
#689=CARTESIAN_POINT('',(-3.45962720759127E-18,0.01375,0.006));
#690=CARTESIAN_POINT('',(-9.78788968363002E-19,0.01225,0.006));
#691=CARTESIAN_POINT('',(-3.45962720759127E-18,0.01375,0.));
#692=CARTESIAN_POINT('',(-9.78788968363002E-19,0.01225,0.));
#693=CARTESIAN_POINT('',(-0.0105,-0.003,0.006));
#694=CARTESIAN_POINT('',(0.000999999999999986,0.01475,0.006));
#695=CARTESIAN_POINT('',(-0.001,0.01475,0.006));
#696=CARTESIAN_POINT('',(-0.005,-0.01475,0.006));
#697=CARTESIAN_POINT('',(-0.022,-0.01875,0.006));
#698=CARTESIAN_POINT('',(-0.022,-0.02075,0.006));
#699=CARTESIAN_POINT('',(-0.001,-0.01875,0.006));
#700=CARTESIAN_POINT('',(-0.0105,-0.003,0.));
#701=CARTESIAN_POINT('',(0.000999999999999986,0.01475,0.));
#702=CARTESIAN_POINT('',(-0.0015,0.01075,0.));
#703=CARTESIAN_POINT('',(-0.001,0.01475,0.));
#704=CARTESIAN_POINT('',(-0.0015,-0.01075,0.002));
#705=CARTESIAN_POINT('',(-0.0015,-0.01075,0.002));
#706=CARTESIAN_POINT('',(-1.0842021724855E-18,-0.01075,0.002));
#707=CARTESIAN_POINT('',(-1.08420217248551E-18,-0.01075,0.005));
#708=CARTESIAN_POINT('',(-0.0015,0.01075,0.002));
#709=CARTESIAN_POINT('',(-1.19623639697567E-17,0.01075,0.005));
#710=CARTESIAN_POINT('',(-1.19262238973405E-17,0.01075,0.002));
#711=CARTESIAN_POINT('',(-0.0015,0.01075,0.002));
#712=CARTESIAN_POINT('',(-0.0105,-0.003,0.002));
#713=CARTESIAN_POINT('',(-5.20417042793042E-18,-0.003,0.002));
#714=CARTESIAN_POINT('',(3.46944695195361E-18,-0.01975,0.005));
#715=CARTESIAN_POINT('',(-0.005,-0.01475,0.006));
#716=CARTESIAN_POINT('',(-0.001,-0.01875,0.006));
#717=CARTESIAN_POINT('',(0.000999999999999986,0.01475,0.006));
#718=CARTESIAN_POINT('',(-0.001,0.01475,0.006));
#719=CARTESIAN_POINT('',(-0.022,-0.01875,0.006));
#720=CARTESIAN_POINT('',(-0.022,-0.02075,0.006));
#721=MECHANICAL_DESIGN_GEOMETRIC_PRESENTATION_REPRESENTATION('',(#424),
#722);
#722=(
GEOMETRIC_REPRESENTATION_CONTEXT(3)
GLOBAL_UNCERTAINTY_ASSIGNED_CONTEXT((#723))
GLOBAL_UNIT_ASSIGNED_CONTEXT((#726,#725,#724))
REPRESENTATION_CONTEXT('Part 1','TOP_LEVEL_ASSEMBLY_PART')
);
#723=UNCERTAINTY_MEASURE_WITH_UNIT(LENGTH_MEASURE(1.E-8),#726,
'DISTANCE_ACCURACY_VALUE','Maximum Tolerance applied to model');
#724=(
NAMED_UNIT(*)
SI_UNIT($,.STERADIAN.)
SOLID_ANGLE_UNIT()
);
#725=(
NAMED_UNIT(*)
PLANE_ANGLE_UNIT()
SI_UNIT($,.RADIAN.)
);
#726=(
LENGTH_UNIT()
NAMED_UNIT(*)
SI_UNIT($,.METRE.)
);
#727=PRODUCT_DEFINITION_SHAPE('','',#728);
#728=PRODUCT_DEFINITION('','',#730,#729);
#729=PRODUCT_DEFINITION_CONTEXT('',#736,'design');
#730=PRODUCT_DEFINITION_FORMATION_WITH_SPECIFIED_SOURCE('','',#732,
 .NOT_KNOWN.);
#731=PRODUCT_RELATED_PRODUCT_CATEGORY('','',(#732));
#732=PRODUCT('Part 1','Part 1','Part 1',(#734));
#733=PRODUCT_CATEGORY('','');
#734=PRODUCT_CONTEXT('',#736,'mechanical');
#735=APPLICATION_PROTOCOL_DEFINITION('international standard',
'ap242_managed_model_based_3d_engineering',2020,#736);
#736=APPLICATION_CONTEXT('managed model based 3d engineering');
ENDSEC;
END-ISO-10303-21;
