ISO-10303-21;
HEADER;
/* Generated by software containing ST-Developer
 * from STEP Tools, Inc. (www.steptools.com) 
 */
/* OPTION: using custom renumber hook */

FILE_DESCRIPTION(
/* description */ ('STEP AP242 Edition 2',
'CAx-IF Rec.Pracs.---Representation and Presentation of Product Manufa
cturing Information (PMI)---4.0---2014-10-13',
'CAx-IF Rec.Pracs.---3D Tessellated Geometry---0.4---2014-09-14','2;1',
'CAx-IF Rec.Pracs.---User Defined Attributes---1.5---2016-08-15'),
/* implementation_level */ '2;1');

FILE_NAME(
/* name */ 'battery holder 1',
/* time_stamp */ '2026-09-29T21:23:20Z',
/* author */ (''),
/* organization */ (''),
/* preprocessor_version */ 'ST-DEVELOPER v20',
/* originating_system */ 'ONSHAPE BY PTC INC, 1.221',
/* authorisation */ '  ');

FILE_SCHEMA (('AP242_MANAGED_MODEL_BASED_3D_ENGINEERING_MIM_LF { 1 0 10303 442 3 1 4 }'));
ENDSEC;

DATA;
#10=SHAPE_REPRESENTATION_RELATIONSHIP('','',#334,#11);
#11=ADVANCED_BREP_SHAPE_REPRESENTATION('',(#332),#552);
#12=CYLINDRICAL_SURFACE('',#344,0.0015);
#13=CYLINDRICAL_SURFACE('',#346,0.0015);
#14=CYLINDRICAL_SURFACE('',#362,0.003);
#15=CYLINDRICAL_SURFACE('',#363,0.002);
#16=CYLINDRICAL_SURFACE('',#364,0.002);
#17=CYLINDRICAL_SURFACE('',#365,0.002);
#18=CYLINDRICAL_SURFACE('',#366,0.002);
#19=LINE('',#464,#48);
#20=LINE('',#469,#49);
#21=LINE('',#471,#50);
#22=LINE('',#473,#51);
#23=LINE('',#477,#52);
#24=LINE('',#480,#53);
#25=LINE('',#482,#54);
#26=LINE('',#484,#55);
#27=LINE('',#485,#56);
#28=LINE('',#487,#57);
#29=LINE('',#489,#58);
#30=LINE('',#491,#59);
#31=LINE('',#494,#60);
#32=LINE('',#496,#61);
#33=LINE('',#498,#62);
#34=LINE('',#500,#63);
#35=LINE('',#502,#64);
#36=LINE('',#504,#65);
#37=LINE('',#506,#66);
#38=LINE('',#508,#67);
#39=LINE('',#510,#68);
#40=LINE('',#512,#69);
#41=LINE('',#514,#70);
#42=LINE('',#517,#71);
#43=LINE('',#518,#72);
#44=LINE('',#535,#73);
#45=LINE('',#539,#74);
#46=LINE('',#541,#75);
#47=LINE('',#545,#76);
#48=VECTOR('',#373,1.);
#49=VECTOR('',#376,1.);
#50=VECTOR('',#377,1.);
#51=VECTOR('',#378,1.);
#52=VECTOR('',#383,1.);
#53=VECTOR('',#384,1.);
#54=VECTOR('',#385,1.);
#55=VECTOR('',#386,1.);
#56=VECTOR('',#387,1.);
#57=VECTOR('',#388,1.);
#58=VECTOR('',#389,1.);
#59=VECTOR('',#392,1.);
#60=VECTOR('',#393,1.);
#61=VECTOR('',#394,1.);
#62=VECTOR('',#395,1.);
#63=VECTOR('',#398,1.);
#64=VECTOR('',#399,1.);
#65=VECTOR('',#400,1.);
#66=VECTOR('',#401,1.);
#67=VECTOR('',#402,1.);
#68=VECTOR('',#403,1.);
#69=VECTOR('',#404,1.);
#70=VECTOR('',#407,1.);
#71=VECTOR('',#408,1.);
#72=VECTOR('',#409,1.);
#73=VECTOR('',#436,1.);
#74=VECTOR('',#441,1.);
#75=VECTOR('',#444,1.);
#76=VECTOR('',#449,1.);
#77=ORIENTED_EDGE('',*,*,#163,.T.);
#78=ORIENTED_EDGE('',*,*,#164,.T.);
#79=ORIENTED_EDGE('',*,*,#165,.T.);
#80=ORIENTED_EDGE('',*,*,#166,.F.);
#81=ORIENTED_EDGE('',*,*,#167,.F.);
#82=ORIENTED_EDGE('',*,*,#168,.T.);
#83=ORIENTED_EDGE('',*,*,#169,.T.);
#84=ORIENTED_EDGE('',*,*,#170,.F.);
#85=ORIENTED_EDGE('',*,*,#171,.T.);
#86=ORIENTED_EDGE('',*,*,#172,.T.);
#87=ORIENTED_EDGE('',*,*,#173,.T.);
#88=ORIENTED_EDGE('',*,*,#168,.F.);
#89=ORIENTED_EDGE('',*,*,#174,.F.);
#90=ORIENTED_EDGE('',*,*,#175,.T.);
#91=ORIENTED_EDGE('',*,*,#176,.T.);
#92=ORIENTED_EDGE('',*,*,#177,.T.);
#93=ORIENTED_EDGE('',*,*,#178,.T.);
#94=ORIENTED_EDGE('',*,*,#179,.F.);
#95=ORIENTED_EDGE('',*,*,#180,.T.);
#96=ORIENTED_EDGE('',*,*,#166,.T.);
#97=ORIENTED_EDGE('',*,*,#181,.T.);
#98=ORIENTED_EDGE('',*,*,#182,.F.);
#99=ORIENTED_EDGE('',*,*,#183,.T.);
#100=ORIENTED_EDGE('',*,*,#184,.T.);
#101=ORIENTED_EDGE('',*,*,#185,.F.);
#102=ORIENTED_EDGE('',*,*,#186,.T.);
#103=ORIENTED_EDGE('',*,*,#187,.T.);
#104=ORIENTED_EDGE('',*,*,#188,.T.);
#105=ORIENTED_EDGE('',*,*,#189,.T.);
#106=ORIENTED_EDGE('',*,*,#164,.F.);
#107=ORIENTED_EDGE('',*,*,#190,.T.);
#108=ORIENTED_EDGE('',*,*,#191,.T.);
#109=ORIENTED_EDGE('',*,*,#163,.F.);
#110=ORIENTED_EDGE('',*,*,#192,.T.);
#111=ORIENTED_EDGE('',*,*,#193,.F.);
#112=ORIENTED_EDGE('',*,*,#191,.F.);
#113=ORIENTED_EDGE('',*,*,#182,.T.);
#114=ORIENTED_EDGE('',*,*,#194,.T.);
#115=ORIENTED_EDGE('',*,*,#188,.F.);
#116=ORIENTED_EDGE('',*,*,#195,.T.);
#117=ORIENTED_EDGE('',*,*,#172,.F.);
#118=ORIENTED_EDGE('',*,*,#196,.T.);
#119=ORIENTED_EDGE('',*,*,#179,.T.);
#120=ORIENTED_EDGE('',*,*,#197,.T.);
#121=ORIENTED_EDGE('',*,*,#192,.F.);
#122=ORIENTED_EDGE('',*,*,#184,.F.);
#123=ORIENTED_EDGE('',*,*,#198,.T.);
#124=ORIENTED_EDGE('',*,*,#177,.F.);
#125=ORIENTED_EDGE('',*,*,#199,.T.);
#126=ORIENTED_EDGE('',*,*,#170,.T.);
#127=ORIENTED_EDGE('',*,*,#200,.T.);
#128=ORIENTED_EDGE('',*,*,#193,.T.);
#129=ORIENTED_EDGE('',*,*,#167,.T.);
#130=ORIENTED_EDGE('',*,*,#187,.F.);
#131=ORIENTED_EDGE('',*,*,#201,.T.);
#132=ORIENTED_EDGE('',*,*,#202,.F.);
#133=ORIENTED_EDGE('',*,*,#174,.T.);
#134=ORIENTED_EDGE('',*,*,#200,.F.);
#135=ORIENTED_EDGE('',*,*,#176,.F.);
#136=ORIENTED_EDGE('',*,*,#203,.T.);
#137=ORIENTED_EDGE('',*,*,#204,.T.);
#138=ORIENTED_EDGE('',*,*,#185,.T.);
#139=ORIENTED_EDGE('',*,*,#202,.T.);
#140=ORIENTED_EDGE('',*,*,#205,.T.);
#141=ORIENTED_EDGE('',*,*,#203,.F.);
#142=ORIENTED_EDGE('',*,*,#175,.F.);
#143=ORIENTED_EDGE('',*,*,#201,.F.);
#144=ORIENTED_EDGE('',*,*,#186,.F.);
#145=ORIENTED_EDGE('',*,*,#204,.F.);
#146=ORIENTED_EDGE('',*,*,#205,.F.);
#147=ORIENTED_EDGE('',*,*,#194,.F.);
#148=ORIENTED_EDGE('',*,*,#181,.F.);
#149=ORIENTED_EDGE('',*,*,#165,.F.);
#150=ORIENTED_EDGE('',*,*,#189,.F.);
#151=ORIENTED_EDGE('',*,*,#197,.F.);
#152=ORIENTED_EDGE('',*,*,#178,.F.);
#153=ORIENTED_EDGE('',*,*,#198,.F.);
#154=ORIENTED_EDGE('',*,*,#183,.F.);
#155=ORIENTED_EDGE('',*,*,#196,.F.);
#156=ORIENTED_EDGE('',*,*,#171,.F.);
#157=ORIENTED_EDGE('',*,*,#199,.F.);
#158=ORIENTED_EDGE('',*,*,#180,.F.);
#159=ORIENTED_EDGE('',*,*,#195,.F.);
#160=ORIENTED_EDGE('',*,*,#190,.F.);
#161=ORIENTED_EDGE('',*,*,#169,.F.);
#162=ORIENTED_EDGE('',*,*,#173,.F.);
#163=EDGE_CURVE('',#206,#206,#236,.T.);
#164=EDGE_CURVE('',#207,#208,#19,.T.);
#165=EDGE_CURVE('',#208,#209,#237,.F.);
#166=EDGE_CURVE('',#210,#209,#20,.T.);
#167=EDGE_CURVE('',#211,#210,#21,.T.);
#168=EDGE_CURVE('',#211,#212,#22,.T.);
#169=EDGE_CURVE('',#212,#207,#238,.F.);
#170=EDGE_CURVE('',#213,#214,#23,.T.);
#171=EDGE_CURVE('',#213,#215,#24,.F.);
#172=EDGE_CURVE('',#215,#216,#25,.T.);
#173=EDGE_CURVE('',#216,#212,#26,.T.);
#174=EDGE_CURVE('',#217,#211,#27,.T.);
#175=EDGE_CURVE('',#217,#218,#28,.T.);
#176=EDGE_CURVE('',#218,#214,#29,.T.);
#177=EDGE_CURVE('',#219,#220,#30,.T.);
#178=EDGE_CURVE('',#220,#221,#31,.F.);
#179=EDGE_CURVE('',#222,#221,#32,.T.);
#180=EDGE_CURVE('',#222,#219,#33,.T.);
#181=EDGE_CURVE('',#209,#223,#34,.F.);
#182=EDGE_CURVE('',#224,#223,#35,.T.);
#183=EDGE_CURVE('',#224,#225,#36,.T.);
#184=EDGE_CURVE('',#225,#226,#37,.T.);
#185=EDGE_CURVE('',#227,#226,#38,.T.);
#186=EDGE_CURVE('',#227,#228,#39,.F.);
#187=EDGE_CURVE('',#228,#210,#40,.T.);
#188=EDGE_CURVE('',#229,#230,#41,.T.);
#189=EDGE_CURVE('',#230,#208,#42,.T.);
#190=EDGE_CURVE('',#207,#229,#43,.F.);
#191=EDGE_CURVE('',#231,#231,#239,.T.);
#192=EDGE_CURVE('',#232,#232,#240,.T.);
#193=EDGE_CURVE('',#233,#233,#241,.T.);
#194=EDGE_CURVE('',#223,#230,#242,.T.);
#195=EDGE_CURVE('',#229,#216,#243,.T.);
#196=EDGE_CURVE('',#215,#222,#244,.T.);
#197=EDGE_CURVE('',#221,#224,#245,.T.);
#198=EDGE_CURVE('',#225,#220,#246,.F.);
#199=EDGE_CURVE('',#219,#213,#247,.F.);
#200=EDGE_CURVE('',#214,#226,#44,.T.);
#201=EDGE_CURVE('',#228,#234,#248,.T.);
#202=EDGE_CURVE('',#217,#234,#45,.T.);
#203=EDGE_CURVE('',#218,#235,#46,.T.);
#204=EDGE_CURVE('',#235,#227,#249,.F.);
#205=EDGE_CURVE('',#234,#235,#47,.T.);
#206=VERTEX_POINT('',#463);
#207=VERTEX_POINT('',#465);
#208=VERTEX_POINT('',#466);
#209=VERTEX_POINT('',#468);
#210=VERTEX_POINT('',#470);
#211=VERTEX_POINT('',#472);
#212=VERTEX_POINT('',#474);
#213=VERTEX_POINT('',#478);
#214=VERTEX_POINT('',#479);
#215=VERTEX_POINT('',#481);
#216=VERTEX_POINT('',#483);
#217=VERTEX_POINT('',#486);
#218=VERTEX_POINT('',#488);
#219=VERTEX_POINT('',#492);
#220=VERTEX_POINT('',#493);
#221=VERTEX_POINT('',#495);
#222=VERTEX_POINT('',#497);
#223=VERTEX_POINT('',#501);
#224=VERTEX_POINT('',#503);
#225=VERTEX_POINT('',#505);
#226=VERTEX_POINT('',#507);
#227=VERTEX_POINT('',#509);
#228=VERTEX_POINT('',#511);
#229=VERTEX_POINT('',#515);
#230=VERTEX_POINT('',#516);
#231=VERTEX_POINT('',#521);
#232=VERTEX_POINT('',#524);
#233=VERTEX_POINT('',#526);
#234=VERTEX_POINT('',#538);
#235=VERTEX_POINT('',#542);
#236=CIRCLE('',#337,0.0015);
#237=CIRCLE('',#338,0.002);
#238=CIRCLE('',#339,0.002);
#239=CIRCLE('',#345,0.0015);
#240=CIRCLE('',#347,0.0015);
#241=CIRCLE('',#348,0.0015);
#242=CIRCLE('',#350,0.002);
#243=CIRCLE('',#351,0.002);
#244=CIRCLE('',#352,0.002);
#245=CIRCLE('',#353,0.002);
#246=CIRCLE('',#355,0.002);
#247=CIRCLE('',#356,0.002);
#248=CIRCLE('',#358,0.003);
#249=CIRCLE('',#360,0.003);
#250=EDGE_LOOP('',(#77));
#251=EDGE_LOOP('',(#78,#79,#80,#81,#82,#83));
#252=EDGE_LOOP('',(#84,#85,#86,#87,#88,#89,#90,#91));
#253=EDGE_LOOP('',(#92,#93,#94,#95));
#254=EDGE_LOOP('',(#96,#97,#98,#99,#100,#101,#102,#103));
#255=EDGE_LOOP('',(#104,#105,#106,#107));
#256=EDGE_LOOP('',(#108));
#257=EDGE_LOOP('',(#109));
#258=EDGE_LOOP('',(#110));
#259=EDGE_LOOP('',(#111));
#260=EDGE_LOOP('',(#112));
#261=EDGE_LOOP('',(#113,#114,#115,#116,#117,#118,#119,#120));
#262=EDGE_LOOP('',(#121));
#263=EDGE_LOOP('',(#122,#123,#124,#125,#126,#127));
#264=EDGE_LOOP('',(#128));
#265=EDGE_LOOP('',(#129,#130,#131,#132,#133));
#266=EDGE_LOOP('',(#134,#135,#136,#137,#138));
#267=EDGE_LOOP('',(#139,#140,#141,#142));
#268=EDGE_LOOP('',(#143,#144,#145,#146));
#269=EDGE_LOOP('',(#147,#148,#149,#150));
#270=EDGE_LOOP('',(#151,#152,#153,#154));
#271=EDGE_LOOP('',(#155,#156,#157,#158));
#272=EDGE_LOOP('',(#159,#160,#161,#162));
#273=FACE_BOUND('',#250,.T.);
#274=FACE_BOUND('',#251,.T.);
#275=FACE_BOUND('',#252,.T.);
#276=FACE_BOUND('',#253,.T.);
#277=FACE_BOUND('',#254,.T.);
#278=FACE_BOUND('',#255,.T.);
#279=FACE_BOUND('',#256,.T.);
#280=FACE_BOUND('',#257,.T.);
#281=FACE_BOUND('',#258,.T.);
#282=FACE_BOUND('',#259,.T.);
#283=FACE_BOUND('',#260,.T.);
#284=FACE_BOUND('',#261,.T.);
#285=FACE_BOUND('',#262,.T.);
#286=FACE_BOUND('',#263,.T.);
#287=FACE_BOUND('',#264,.T.);
#288=FACE_BOUND('',#265,.T.);
#289=FACE_BOUND('',#266,.T.);
#290=FACE_BOUND('',#267,.T.);
#291=FACE_BOUND('',#268,.T.);
#292=FACE_BOUND('',#269,.T.);
#293=FACE_BOUND('',#270,.T.);
#294=FACE_BOUND('',#271,.T.);
#295=FACE_BOUND('',#272,.T.);
#296=PLANE('',#336);
#297=PLANE('',#340);
#298=PLANE('',#341);
#299=PLANE('',#342);
#300=PLANE('',#343);
#301=PLANE('',#349);
#302=PLANE('',#354);
#303=PLANE('',#357);
#304=PLANE('',#359);
#305=PLANE('',#361);
#306=ADVANCED_FACE('',(#273,#274),#296,.F.);
#307=ADVANCED_FACE('',(#275),#297,.T.);
#308=ADVANCED_FACE('',(#276),#298,.F.);
#309=ADVANCED_FACE('',(#277),#299,.F.);
#310=ADVANCED_FACE('',(#278),#300,.T.);
#311=ADVANCED_FACE('',(#279,#280),#12,.F.);
#312=ADVANCED_FACE('',(#281,#282),#13,.F.);
#313=ADVANCED_FACE('',(#283,#284,#285),#301,.T.);
#314=ADVANCED_FACE('',(#286,#287),#302,.F.);
#315=ADVANCED_FACE('',(#288),#303,.F.);
#316=ADVANCED_FACE('',(#289),#304,.T.);
#317=ADVANCED_FACE('',(#290),#305,.F.);
#318=ADVANCED_FACE('',(#291),#14,.T.);
#319=ADVANCED_FACE('',(#292),#15,.T.);
#320=ADVANCED_FACE('',(#293),#16,.T.);
#321=ADVANCED_FACE('',(#294),#17,.T.);
#322=ADVANCED_FACE('',(#295),#18,.T.);
#323=CLOSED_SHELL('',(#306,#307,#308,#309,#310,#311,#312,#313,#314,#315,
#316,#317,#318,#319,#320,#321,#322));
#324=STYLED_ITEM('',(#325),#332);
#325=PRESENTATION_STYLE_ASSIGNMENT((#326));
#326=SURFACE_STYLE_USAGE(.BOTH.,#327);
#327=SURFACE_SIDE_STYLE('',(#328));
#328=SURFACE_STYLE_FILL_AREA(#329);
#329=FILL_AREA_STYLE('',(#330));
#330=FILL_AREA_STYLE_COLOUR('',#331);
#331=DRAUGHTING_PRE_DEFINED_COLOUR('black');
#332=MANIFOLD_SOLID_BREP('Part 1',#323);
#333=SHAPE_DEFINITION_REPRESENTATION(#557,#334);
#334=SHAPE_REPRESENTATION('Part 1',(#335),#552);
#335=AXIS2_PLACEMENT_3D('',#460,#367,#368);
#336=AXIS2_PLACEMENT_3D('',#461,#369,#370);
#337=AXIS2_PLACEMENT_3D('',#462,#371,#372);
#338=AXIS2_PLACEMENT_3D('',#467,#374,#375);
#339=AXIS2_PLACEMENT_3D('',#475,#379,#380);
#340=AXIS2_PLACEMENT_3D('',#476,#381,#382);
#341=AXIS2_PLACEMENT_3D('',#490,#390,#391);
#342=AXIS2_PLACEMENT_3D('',#499,#396,#397);
#343=AXIS2_PLACEMENT_3D('',#513,#405,#406);
#344=AXIS2_PLACEMENT_3D('',#519,#410,#411);
#345=AXIS2_PLACEMENT_3D('',#520,#412,#413);
#346=AXIS2_PLACEMENT_3D('',#522,#414,#415);
#347=AXIS2_PLACEMENT_3D('',#523,#416,#417);
#348=AXIS2_PLACEMENT_3D('',#525,#418,#419);
#349=AXIS2_PLACEMENT_3D('',#527,#420,#421);
#350=AXIS2_PLACEMENT_3D('',#528,#422,#423);
#351=AXIS2_PLACEMENT_3D('',#529,#424,#425);
#352=AXIS2_PLACEMENT_3D('',#530,#426,#427);
#353=AXIS2_PLACEMENT_3D('',#531,#428,#429);
#354=AXIS2_PLACEMENT_3D('',#532,#430,#431);
#355=AXIS2_PLACEMENT_3D('',#533,#432,#433);
#356=AXIS2_PLACEMENT_3D('',#534,#434,#435);
#357=AXIS2_PLACEMENT_3D('',#536,#437,#438);
#358=AXIS2_PLACEMENT_3D('',#537,#439,#440);
#359=AXIS2_PLACEMENT_3D('',#540,#442,#443);
#360=AXIS2_PLACEMENT_3D('',#543,#445,#446);
#361=AXIS2_PLACEMENT_3D('',#544,#447,#448);
#362=AXIS2_PLACEMENT_3D('',#546,#450,#451);
#363=AXIS2_PLACEMENT_3D('',#547,#452,#453);
#364=AXIS2_PLACEMENT_3D('',#548,#454,#455);
#365=AXIS2_PLACEMENT_3D('',#549,#456,#457);
#366=AXIS2_PLACEMENT_3D('',#550,#458,#459);
#367=DIRECTION('',(0.,0.,1.));
#368=DIRECTION('',(1.,0.,0.));
#369=DIRECTION('',(0.,0.,1.));
#370=DIRECTION('',(1.,0.,0.));
#371=DIRECTION('',(0.,0.,1.));
#372=DIRECTION('',(1.78779921685247E-15,1.,0.));
#373=DIRECTION('',(-1.,0.,0.));
#374=DIRECTION('',(0.,0.,1.));
#375=DIRECTION('',(1.,0.,0.));
#376=DIRECTION('',(-2.16840434497101E-16,-1.,0.));
#377=DIRECTION('',(-1.,0.,0.));
#378=DIRECTION('',(-2.16840434497101E-16,-1.,0.));
#379=DIRECTION('',(0.,0.,1.));
#380=DIRECTION('',(1.,0.,0.));
#381=DIRECTION('',(1.,-2.16840434497101E-16,0.));
#382=DIRECTION('',(2.16840434497101E-16,1.,0.));
#383=DIRECTION('',(-2.16840434497101E-16,-1.,0.));
#384=DIRECTION('',(0.,0.,-1.));
#385=DIRECTION('',(-2.16840434497101E-16,-1.,0.));
#386=DIRECTION('',(0.,0.,-1.));
#387=DIRECTION('',(0.,0.,-1.));
#388=DIRECTION('',(4.03424064180653E-17,1.,0.));
#389=DIRECTION('',(0.,0.,-1.));
#390=DIRECTION('',(0.,-1.,0.));
#391=DIRECTION('',(0.,0.,-1.));
#392=DIRECTION('',(-1.,0.,0.));
#393=DIRECTION('',(0.,0.,-1.));
#394=DIRECTION('',(-1.,0.,0.));
#395=DIRECTION('',(0.,0.,-1.));
#396=DIRECTION('',(1.,-2.16840434497101E-16,0.));
#397=DIRECTION('',(2.16840434497101E-16,1.,0.));
#398=DIRECTION('',(0.,0.,-1.));
#399=DIRECTION('',(-2.16840434497101E-16,-1.,0.));
#400=DIRECTION('',(0.,0.,-1.));
#401=DIRECTION('',(-2.16840434497101E-16,-1.,0.));
#402=DIRECTION('',(0.,0.,-1.));
#403=DIRECTION('',(2.16840434497101E-16,1.,0.));
#404=DIRECTION('',(0.,0.,-1.));
#405=DIRECTION('',(0.,-1.,0.));
#406=DIRECTION('',(0.,0.,-1.));
#407=DIRECTION('',(-1.,0.,0.));
#408=DIRECTION('',(0.,0.,-1.));
#409=DIRECTION('',(0.,0.,-1.));
#410=DIRECTION('',(0.,0.,-1.));
#411=DIRECTION('',(-1.,0.,0.));
#412=DIRECTION('',(0.,0.,1.));
#413=DIRECTION('',(1.78779921685247E-15,1.,0.));
#414=DIRECTION('',(0.,0.,-1.));
#415=DIRECTION('',(-1.,0.,0.));
#416=DIRECTION('',(0.,0.,1.));
#417=DIRECTION('',(-1.22464679914735E-16,-1.,0.));
#418=DIRECTION('',(0.,0.,1.));
#419=DIRECTION('',(-1.22464679914735E-16,-1.,0.));
#420=DIRECTION('',(0.,0.,1.));
#421=DIRECTION('',(1.,0.,0.));
#422=DIRECTION('',(0.,0.,1.));
#423=DIRECTION('',(1.,0.,0.));
#424=DIRECTION('',(0.,0.,1.));
#425=DIRECTION('',(1.,0.,0.));
#426=DIRECTION('',(0.,0.,1.));
#427=DIRECTION('',(1.,0.,0.));
#428=DIRECTION('',(0.,0.,1.));
#429=DIRECTION('',(1.,0.,0.));
#430=DIRECTION('',(0.,0.,1.));
#431=DIRECTION('',(1.,0.,0.));
#432=DIRECTION('',(0.,0.,1.));
#433=DIRECTION('',(1.,0.,0.));
#434=DIRECTION('',(0.,0.,1.));
#435=DIRECTION('',(1.,0.,0.));
#436=DIRECTION('',(-1.,0.,0.));
#437=DIRECTION('',(0.,-1.,0.));
#438=DIRECTION('',(0.,0.,-1.));
#439=DIRECTION('',(0.,-1.,0.));
#440=DIRECTION('',(0.,0.,-1.));
#441=DIRECTION('',(-1.,0.,0.));
#442=DIRECTION('',(0.,-1.,0.));
#443=DIRECTION('',(0.,0.,-1.));
#444=DIRECTION('',(-1.,0.,0.));
#445=DIRECTION('',(0.,-1.,0.));
#446=DIRECTION('',(0.,0.,-1.));
#447=DIRECTION('',(0.,0.,1.));
#448=DIRECTION('',(1.,0.,0.));
#449=DIRECTION('',(2.16840434497101E-16,1.,0.));
#450=DIRECTION('',(2.16840434497101E-16,1.,0.));
#451=DIRECTION('',(-1.,2.16840434497101E-16,0.));
#452=DIRECTION('',(0.,0.,1.));
#453=DIRECTION('',(1.,0.,0.));
#454=DIRECTION('',(0.,0.,-1.));
#455=DIRECTION('',(-1.,0.,0.));
#456=DIRECTION('',(0.,0.,1.));
#457=DIRECTION('',(1.,0.,0.));
#458=DIRECTION('',(0.,0.,-1.));
#459=DIRECTION('',(-1.,0.,0.));
#460=CARTESIAN_POINT('',(0.,0.,0.));
#461=CARTESIAN_POINT('',(-8.67361737988404E-19,0.,0.));
#462=CARTESIAN_POINT('',(-3.05976151667939E-18,-0.01375,0.));
#463=CARTESIAN_POINT('',(-3.7806269140069E-19,-0.01225,0.));
#464=CARTESIAN_POINT('',(-3.03576608295941E-18,-0.01675,0.));
#465=CARTESIAN_POINT('',(0.001,-0.01675,0.));
#466=CARTESIAN_POINT('',(-0.001,-0.01675,0.));
#467=CARTESIAN_POINT('',(-0.001,-0.01475,0.));
#468=CARTESIAN_POINT('',(-0.003,-0.01475,0.));
#469=CARTESIAN_POINT('',(-0.003,-0.01375,0.));
#470=CARTESIAN_POINT('',(-0.003,-0.01075,0.));
#471=CARTESIAN_POINT('',(-0.0015,-0.01075,0.));
#472=CARTESIAN_POINT('',(0.003,-0.01075,0.));
#473=CARTESIAN_POINT('',(0.003,-0.01375,0.));
#474=CARTESIAN_POINT('',(0.003,-0.01475,0.));
#475=CARTESIAN_POINT('',(0.001,-0.01475,0.));
#476=CARTESIAN_POINT('',(0.003,-0.01375,0.006));
#477=CARTESIAN_POINT('',(0.003,-0.01375,0.));
#478=CARTESIAN_POINT('',(0.003,0.01475,0.));
#479=CARTESIAN_POINT('',(0.003,0.01075,0.));
#480=CARTESIAN_POINT('',(0.003,0.01475,0.006));
#481=CARTESIAN_POINT('',(0.003,0.01475,0.006));
#482=CARTESIAN_POINT('',(0.003,-0.01375,0.006));
#483=CARTESIAN_POINT('',(0.003,-0.01475,0.006));
#484=CARTESIAN_POINT('',(0.003,-0.01475,0.006));
#485=CARTESIAN_POINT('',(0.003,-0.01075,0.002));
#486=CARTESIAN_POINT('',(0.003,-0.01075,0.002));
#487=CARTESIAN_POINT('',(0.003,0.,0.002));
#488=CARTESIAN_POINT('',(0.003,0.01075,0.002));
#489=CARTESIAN_POINT('',(0.003,0.01075,0.002));
#490=CARTESIAN_POINT('',(0.,0.01675,0.006));
#491=CARTESIAN_POINT('',(0.,0.01675,0.));
#492=CARTESIAN_POINT('',(0.001,0.01675,0.));
#493=CARTESIAN_POINT('',(-0.001,0.01675,0.));
#494=CARTESIAN_POINT('',(-0.001,0.01675,0.006));
#495=CARTESIAN_POINT('',(-0.001,0.01675,0.006));
#496=CARTESIAN_POINT('',(0.,0.01675,0.006));
#497=CARTESIAN_POINT('',(0.001,0.01675,0.006));
#498=CARTESIAN_POINT('',(0.001,0.01675,0.));
#499=CARTESIAN_POINT('',(-0.003,-0.01375,0.006));
#500=CARTESIAN_POINT('',(-0.003,-0.01475,0.006));
#501=CARTESIAN_POINT('',(-0.003,-0.01475,0.006));
#502=CARTESIAN_POINT('',(-0.003,-0.01375,0.006));
#503=CARTESIAN_POINT('',(-0.003,0.01475,0.006));
#504=CARTESIAN_POINT('',(-0.003,0.01475,0.006));
#505=CARTESIAN_POINT('',(-0.003,0.01475,0.));
#506=CARTESIAN_POINT('',(-0.003,-0.01375,0.));
#507=CARTESIAN_POINT('',(-0.003,0.01075,0.));
#508=CARTESIAN_POINT('',(-0.003,0.01075,0.002));
#509=CARTESIAN_POINT('',(-0.003,0.01075,0.005));
#510=CARTESIAN_POINT('',(-0.003,-0.01375,0.005));
#511=CARTESIAN_POINT('',(-0.003,-0.01075,0.005));
#512=CARTESIAN_POINT('',(-0.003,-0.01075,0.002));
#513=CARTESIAN_POINT('',(-3.03576608295941E-18,-0.01675,0.006));
#514=CARTESIAN_POINT('',(-3.03576608295941E-18,-0.01675,0.006));
#515=CARTESIAN_POINT('',(0.001,-0.01675,0.006));
#516=CARTESIAN_POINT('',(-0.001,-0.01675,0.006));
#517=CARTESIAN_POINT('',(-0.001,-0.01675,0.));
#518=CARTESIAN_POINT('',(0.001,-0.01675,0.006));
#519=CARTESIAN_POINT('',(-3.05976151667939E-18,-0.01375,0.006));
#520=CARTESIAN_POINT('',(-3.05976151667939E-18,-0.01375,0.006));
#521=CARTESIAN_POINT('',(-3.7806269140069E-19,-0.01225,0.006));
#522=CARTESIAN_POINT('',(-9.18485099360515E-20,0.01375,0.006));
#523=CARTESIAN_POINT('',(-9.18485099360515E-20,0.01375,0.006));
#524=CARTESIAN_POINT('',(-2.75545529808154E-19,0.01225,0.006));
#525=CARTESIAN_POINT('',(-9.18485099360515E-20,0.01375,0.));
#526=CARTESIAN_POINT('',(-2.75545529808154E-19,0.01225,0.));
#527=CARTESIAN_POINT('',(-8.67361737988404E-19,0.,0.006));
#528=CARTESIAN_POINT('',(-0.001,-0.01475,0.006));
#529=CARTESIAN_POINT('',(0.001,-0.01475,0.006));
#530=CARTESIAN_POINT('',(0.001,0.01475,0.006));
#531=CARTESIAN_POINT('',(-0.001,0.01475,0.006));
#532=CARTESIAN_POINT('',(-8.67361737988404E-19,0.,0.));
#533=CARTESIAN_POINT('',(-0.001,0.01475,0.));
#534=CARTESIAN_POINT('',(0.001,0.01475,0.));
#535=CARTESIAN_POINT('',(-0.0015,0.01075,0.));
#536=CARTESIAN_POINT('',(-0.0015,-0.01075,0.002));
#537=CARTESIAN_POINT('',(-1.95156391047391E-18,-0.01075,0.005));
#538=CARTESIAN_POINT('',(-1.95156391047391E-18,-0.01075,0.002));
#539=CARTESIAN_POINT('',(-0.0015,-0.01075,0.002));
#540=CARTESIAN_POINT('',(-0.0015,0.01075,0.002));
#541=CARTESIAN_POINT('',(-0.0015,0.01075,0.002));
#542=CARTESIAN_POINT('',(2.60208521396521E-18,0.01075,0.002));
#543=CARTESIAN_POINT('',(2.71050543121376E-18,0.01075,0.005));
#544=CARTESIAN_POINT('',(-8.67361737988404E-19,0.,0.002));
#545=CARTESIAN_POINT('',(3.79470760369924E-19,-2.70363700689125E-34,0.002));
#546=CARTESIAN_POINT('',(3.79470760369924E-19,-2.70363700689125E-34,0.005));
#547=CARTESIAN_POINT('',(-0.001,-0.01475,0.006));
#548=CARTESIAN_POINT('',(-0.001,0.01475,0.006));
#549=CARTESIAN_POINT('',(0.001,0.01475,0.006));
#550=CARTESIAN_POINT('',(0.001,-0.01475,0.006));
#551=MECHANICAL_DESIGN_GEOMETRIC_PRESENTATION_REPRESENTATION('',(#324),
#552);
#552=(
GEOMETRIC_REPRESENTATION_CONTEXT(3)
GLOBAL_UNCERTAINTY_ASSIGNED_CONTEXT((#553))
GLOBAL_UNIT_ASSIGNED_CONTEXT((#556,#555,#554))
REPRESENTATION_CONTEXT('Part 1','TOP_LEVEL_ASSEMBLY_PART')
);
#553=UNCERTAINTY_MEASURE_WITH_UNIT(LENGTH_MEASURE(1.E-8),#556,
'DISTANCE_ACCURACY_VALUE','Maximum Tolerance applied to model');
#554=(
NAMED_UNIT(*)
SI_UNIT($,.STERADIAN.)
SOLID_ANGLE_UNIT()
);
#555=(
NAMED_UNIT(*)
PLANE_ANGLE_UNIT()
SI_UNIT($,.RADIAN.)
);
#556=(
LENGTH_UNIT()
NAMED_UNIT(*)
SI_UNIT($,.METRE.)
);
#557=PRODUCT_DEFINITION_SHAPE('','',#558);
#558=PRODUCT_DEFINITION('','',#560,#559);
#559=PRODUCT_DEFINITION_CONTEXT('',#566,'design');
#560=PRODUCT_DEFINITION_FORMATION_WITH_SPECIFIED_SOURCE('','',#562,
 .NOT_KNOWN.);
#561=PRODUCT_RELATED_PRODUCT_CATEGORY('','',(#562));
#562=PRODUCT('Part 1','Part 1','Part 1',(#564));
#563=PRODUCT_CATEGORY('','');
#564=PRODUCT_CONTEXT('',#566,'mechanical');
#565=APPLICATION_PROTOCOL_DEFINITION('international standard',
'ap242_managed_model_based_3d_engineering',2020,#566);
#566=APPLICATION_CONTEXT('managed model based 3d engineering');
ENDSEC;
END-ISO-10303-21;
