ISO-10303-21;
HEADER;
/* Generated by software containing ST-Developer
 * from STEP Tools, Inc. (www.steptools.com) 
 */
/* OPTION: using custom renumber hook */

FILE_DESCRIPTION(
/* description */ ('STEP AP242 Edition 2',
'CAx-IF Rec.Pracs.---Representation and Presentation of Product Manufa
cturing Information (PMI)---4.0---2014-10-13',
'CAx-IF Rec.Pracs.---3D Tessellated Geometry---0.4---2014-09-14','2;1',
'CAx-IF Rec.Pracs.---User Defined Attributes---1.5---2016-08-15'),
/* implementation_level */ '2;1');

FILE_NAME(
/* name */ 'center thingy',
/* time_stamp */ '2026-09-29T21:26:04Z',
/* author */ (''),
/* organization */ (''),
/* preprocessor_version */ 'ST-DEVELOPER v20',
/* originating_system */ 'ONSHAPE BY PTC INC, 1.221',
/* authorisation */ '  ');

FILE_SCHEMA (('AP242_MANAGED_MODEL_BASED_3D_ENGINEERING_MIM_LF { 1 0 10303 442 3 1 4 }'));
ENDSEC;

DATA;
#10=SHAPE_REPRESENTATION_RELATIONSHIP('','',#1329,#11);
#11=ADVANCED_BREP_SHAPE_REPRESENTATION('',(#1327),#2189);
#12=ELLIPSE('',#1445,0.0028284271247462,0.002);
#13=ELLIPSE('',#1446,0.0028284271247462,0.002);
#14=ELLIPSE('',#1448,0.0028284271247462,0.002);
#15=ELLIPSE('',#1449,0.0028284271247462,0.002);
#16=LINE('',#1846,#138);
#17=LINE('',#1849,#139);
#18=LINE('',#1851,#140);
#19=LINE('',#1853,#141);
#20=LINE('',#1855,#142);
#21=LINE('',#1857,#143);
#22=LINE('',#1859,#144);
#23=LINE('',#1861,#145);
#24=LINE('',#1863,#146);
#25=LINE('',#1865,#147);
#26=LINE('',#1867,#148);
#27=LINE('',#1869,#149);
#28=LINE('',#1871,#150);
#29=LINE('',#1873,#151);
#30=LINE('',#1875,#152);
#31=LINE('',#1877,#153);
#32=LINE('',#1879,#154);
#33=LINE('',#1881,#155);
#34=LINE('',#1883,#156);
#35=LINE('',#1885,#157);
#36=LINE('',#1889,#158);
#37=LINE('',#1892,#159);
#38=LINE('',#1894,#160);
#39=LINE('',#1896,#161);
#40=LINE('',#1898,#162);
#41=LINE('',#1901,#163);
#42=LINE('',#1903,#164);
#43=LINE('',#1905,#165);
#44=LINE('',#1907,#166);
#45=LINE('',#1909,#167);
#46=LINE('',#1911,#168);
#47=LINE('',#1913,#169);
#48=LINE('',#1915,#170);
#49=LINE('',#1917,#171);
#50=LINE('',#1919,#172);
#51=LINE('',#1921,#173);
#52=LINE('',#1923,#174);
#53=LINE('',#1925,#175);
#54=LINE('',#1927,#176);
#55=LINE('',#1929,#177);
#56=LINE('',#1931,#178);
#57=LINE('',#1933,#179);
#58=LINE('',#1935,#180);
#59=LINE('',#1937,#181);
#60=LINE('',#1941,#182);
#61=LINE('',#1944,#183);
#62=LINE('',#1946,#184);
#63=LINE('',#1948,#185);
#64=LINE('',#1960,#186);
#65=LINE('',#1965,#187);
#66=LINE('',#1970,#188);
#67=LINE('',#1972,#189);
#68=LINE('',#1974,#190);
#69=LINE('',#1976,#191);
#70=LINE('',#1978,#192);
#71=LINE('',#1979,#193);
#72=LINE('',#1981,#194);
#73=LINE('',#1983,#195);
#74=LINE('',#1984,#196);
#75=LINE('',#1994,#197);
#76=LINE('',#1996,#198);
#77=LINE('',#1998,#199);
#78=LINE('',#1999,#200);
#79=LINE('',#2001,#201);
#80=LINE('',#2003,#202);
#81=LINE('',#2005,#203);
#82=LINE('',#2007,#204);
#83=LINE('',#2008,#205);
#84=LINE('',#2018,#206);
#85=LINE('',#2020,#207);
#86=LINE('',#2022,#208);
#87=LINE('',#2024,#209);
#88=LINE('',#2026,#210);
#89=LINE('',#2027,#211);
#90=LINE('',#2029,#212);
#91=LINE('',#2031,#213);
#92=LINE('',#2032,#214);
#93=LINE('',#2042,#215);
#94=LINE('',#2044,#216);
#95=LINE('',#2046,#217);
#96=LINE('',#2048,#218);
#97=LINE('',#2050,#219);
#98=LINE('',#2052,#220);
#99=LINE('',#2054,#221);
#100=LINE('',#2055,#222);
#101=LINE('',#2056,#223);
#102=LINE('',#2078,#224);
#103=LINE('',#2080,#225);
#104=LINE('',#2082,#226);
#105=LINE('',#2083,#227);
#106=LINE('',#2085,#228);
#107=LINE('',#2087,#229);
#108=LINE('',#2089,#230);
#109=LINE('',#2091,#231);
#110=LINE('',#2092,#232);
#111=LINE('',#2098,#233);
#112=LINE('',#2100,#234);
#113=LINE('',#2102,#235);
#114=LINE('',#2103,#236);
#115=LINE('',#2105,#237);
#116=LINE('',#2107,#238);
#117=LINE('',#2109,#239);
#118=LINE('',#2111,#240);
#119=LINE('',#2112,#241);
#120=LINE('',#2118,#242);
#121=LINE('',#2120,#243);
#122=LINE('',#2122,#244);
#123=LINE('',#2124,#245);
#124=LINE('',#2126,#246);
#125=LINE('',#2127,#247);
#126=LINE('',#2129,#248);
#127=LINE('',#2131,#249);
#128=LINE('',#2132,#250);
#129=LINE('',#2138,#251);
#130=LINE('',#2140,#252);
#131=LINE('',#2141,#253);
#132=LINE('',#2143,#254);
#133=LINE('',#2145,#255);
#134=LINE('',#2147,#256);
#135=LINE('',#2149,#257);
#136=LINE('',#2151,#258);
#137=LINE('',#2152,#259);
#138=VECTOR('',#1482,1.);
#139=VECTOR('',#1483,1.);
#140=VECTOR('',#1484,1.);
#141=VECTOR('',#1485,1.);
#142=VECTOR('',#1486,1.);
#143=VECTOR('',#1487,1.);
#144=VECTOR('',#1488,1.);
#145=VECTOR('',#1489,1.);
#146=VECTOR('',#1490,1.);
#147=VECTOR('',#1491,1.);
#148=VECTOR('',#1492,1.);
#149=VECTOR('',#1493,1.);
#150=VECTOR('',#1494,1.);
#151=VECTOR('',#1495,1.);
#152=VECTOR('',#1496,1.);
#153=VECTOR('',#1497,1.);
#154=VECTOR('',#1498,1.);
#155=VECTOR('',#1499,1.);
#156=VECTOR('',#1500,1.);
#157=VECTOR('',#1501,1.);
#158=VECTOR('',#1506,1.);
#159=VECTOR('',#1507,1.);
#160=VECTOR('',#1508,1.);
#161=VECTOR('',#1509,1.);
#162=VECTOR('',#1512,1.);
#163=VECTOR('',#1513,1.);
#164=VECTOR('',#1514,1.);
#165=VECTOR('',#1515,1.);
#166=VECTOR('',#1516,1.);
#167=VECTOR('',#1517,1.);
#168=VECTOR('',#1518,1.);
#169=VECTOR('',#1519,1.);
#170=VECTOR('',#1520,1.);
#171=VECTOR('',#1521,1.);
#172=VECTOR('',#1522,1.);
#173=VECTOR('',#1523,1.);
#174=VECTOR('',#1524,1.);
#175=VECTOR('',#1525,1.);
#176=VECTOR('',#1526,1.);
#177=VECTOR('',#1527,1.);
#178=VECTOR('',#1528,1.);
#179=VECTOR('',#1529,1.);
#180=VECTOR('',#1530,1.);
#181=VECTOR('',#1531,1.);
#182=VECTOR('',#1536,1.);
#183=VECTOR('',#1537,1.);
#184=VECTOR('',#1538,1.);
#185=VECTOR('',#1539,1.);
#186=VECTOR('',#1552,1.);
#187=VECTOR('',#1557,1.);
#188=VECTOR('',#1564,1.);
#189=VECTOR('',#1565,1.);
#190=VECTOR('',#1566,1.);
#191=VECTOR('',#1569,1.);
#192=VECTOR('',#1570,1.);
#193=VECTOR('',#1571,1.);
#194=VECTOR('',#1572,1.);
#195=VECTOR('',#1575,1.);
#196=VECTOR('',#1576,1.);
#197=VECTOR('',#1591,1.);
#198=VECTOR('',#1592,1.);
#199=VECTOR('',#1593,1.);
#200=VECTOR('',#1594,1.);
#201=VECTOR('',#1597,1.);
#202=VECTOR('',#1598,1.);
#203=VECTOR('',#1599,1.);
#204=VECTOR('',#1602,1.);
#205=VECTOR('',#1603,1.);
#206=VECTOR('',#1618,1.);
#207=VECTOR('',#1619,1.);
#208=VECTOR('',#1620,1.);
#209=VECTOR('',#1623,1.);
#210=VECTOR('',#1624,1.);
#211=VECTOR('',#1625,1.);
#212=VECTOR('',#1626,1.);
#213=VECTOR('',#1629,1.);
#214=VECTOR('',#1630,1.);
#215=VECTOR('',#1645,1.);
#216=VECTOR('',#1646,1.);
#217=VECTOR('',#1647,1.);
#218=VECTOR('',#1650,1.);
#219=VECTOR('',#1651,1.);
#220=VECTOR('',#1652,1.);
#221=VECTOR('',#1655,1.);
#222=VECTOR('',#1656,1.);
#223=VECTOR('',#1657,1.);
#224=VECTOR('',#1688,1.);
#225=VECTOR('',#1689,1.);
#226=VECTOR('',#1690,1.);
#227=VECTOR('',#1691,1.);
#228=VECTOR('',#1694,1.);
#229=VECTOR('',#1695,1.);
#230=VECTOR('',#1696,1.);
#231=VECTOR('',#1699,1.);
#232=VECTOR('',#1700,1.);
#233=VECTOR('',#1709,1.);
#234=VECTOR('',#1710,1.);
#235=VECTOR('',#1711,1.);
#236=VECTOR('',#1712,1.);
#237=VECTOR('',#1715,1.);
#238=VECTOR('',#1716,1.);
#239=VECTOR('',#1717,1.);
#240=VECTOR('',#1720,1.);
#241=VECTOR('',#1721,1.);
#242=VECTOR('',#1730,1.);
#243=VECTOR('',#1731,1.);
#244=VECTOR('',#1732,1.);
#245=VECTOR('',#1735,1.);
#246=VECTOR('',#1736,1.);
#247=VECTOR('',#1737,1.);
#248=VECTOR('',#1738,1.);
#249=VECTOR('',#1741,1.);
#250=VECTOR('',#1742,1.);
#251=VECTOR('',#1751,1.);
#252=VECTOR('',#1752,1.);
#253=VECTOR('',#1753,1.);
#254=VECTOR('',#1754,1.);
#255=VECTOR('',#1757,1.);
#256=VECTOR('',#1758,1.);
#257=VECTOR('',#1759,1.);
#258=VECTOR('',#1762,1.);
#259=VECTOR('',#1763,1.);
#260=PLANE('',#1343);
#261=PLANE('',#1345);
#262=PLANE('',#1346);
#263=PLANE('',#1348);
#264=PLANE('',#1349);
#265=PLANE('',#1359);
#266=PLANE('',#1360);
#267=PLANE('',#1361);
#268=PLANE('',#1362);
#269=PLANE('',#1364);
#270=PLANE('',#1365);
#271=PLANE('',#1368);
#272=PLANE('',#1369);
#273=PLANE('',#1370);
#274=PLANE('',#1371);
#275=PLANE('',#1373);
#276=PLANE('',#1374);
#277=PLANE('',#1377);
#278=PLANE('',#1378);
#279=PLANE('',#1379);
#280=PLANE('',#1380);
#281=PLANE('',#1382);
#282=PLANE('',#1383);
#283=PLANE('',#1386);
#284=PLANE('',#1387);
#285=PLANE('',#1388);
#286=PLANE('',#1389);
#287=PLANE('',#1391);
#288=PLANE('',#1392);
#289=PLANE('',#1403);
#290=PLANE('',#1404);
#291=PLANE('',#1405);
#292=PLANE('',#1406);
#293=PLANE('',#1407);
#294=PLANE('',#1409);
#295=PLANE('',#1410);
#296=PLANE('',#1411);
#297=PLANE('',#1412);
#298=PLANE('',#1413);
#299=PLANE('',#1415);
#300=PLANE('',#1416);
#301=PLANE('',#1417);
#302=PLANE('',#1418);
#303=PLANE('',#1419);
#304=PLANE('',#1421);
#305=PLANE('',#1422);
#306=PLANE('',#1423);
#307=PLANE('',#1424);
#308=PLANE('',#1425);
#309=PLANE('',#1427);
#310=PLANE('',#1430);
#311=PLANE('',#1433);
#312=PLANE('',#1436);
#313=PLANE('',#1439);
#314=PLANE('',#1444);
#315=PLANE('',#1447);
#316=ORIENTED_EDGE('',*,*,#652,.T.);
#317=ORIENTED_EDGE('',*,*,#653,.F.);
#318=ORIENTED_EDGE('',*,*,#654,.T.);
#319=ORIENTED_EDGE('',*,*,#655,.F.);
#320=ORIENTED_EDGE('',*,*,#656,.T.);
#321=ORIENTED_EDGE('',*,*,#657,.F.);
#322=ORIENTED_EDGE('',*,*,#658,.T.);
#323=ORIENTED_EDGE('',*,*,#659,.F.);
#324=ORIENTED_EDGE('',*,*,#660,.T.);
#325=ORIENTED_EDGE('',*,*,#661,.T.);
#326=ORIENTED_EDGE('',*,*,#662,.F.);
#327=ORIENTED_EDGE('',*,*,#663,.T.);
#328=ORIENTED_EDGE('',*,*,#664,.T.);
#329=ORIENTED_EDGE('',*,*,#665,.T.);
#330=ORIENTED_EDGE('',*,*,#666,.F.);
#331=ORIENTED_EDGE('',*,*,#667,.T.);
#332=ORIENTED_EDGE('',*,*,#668,.T.);
#333=ORIENTED_EDGE('',*,*,#669,.T.);
#334=ORIENTED_EDGE('',*,*,#670,.F.);
#335=ORIENTED_EDGE('',*,*,#671,.T.);
#336=ORIENTED_EDGE('',*,*,#672,.T.);
#337=ORIENTED_EDGE('',*,*,#673,.F.);
#338=ORIENTED_EDGE('',*,*,#674,.F.);
#339=ORIENTED_EDGE('',*,*,#675,.T.);
#340=ORIENTED_EDGE('',*,*,#676,.T.);
#341=ORIENTED_EDGE('',*,*,#677,.F.);
#342=ORIENTED_EDGE('',*,*,#678,.F.);
#343=ORIENTED_EDGE('',*,*,#679,.T.);
#344=ORIENTED_EDGE('',*,*,#680,.F.);
#345=ORIENTED_EDGE('',*,*,#681,.F.);
#346=ORIENTED_EDGE('',*,*,#682,.T.);
#347=ORIENTED_EDGE('',*,*,#683,.T.);
#348=ORIENTED_EDGE('',*,*,#684,.T.);
#349=ORIENTED_EDGE('',*,*,#685,.T.);
#350=ORIENTED_EDGE('',*,*,#686,.T.);
#351=ORIENTED_EDGE('',*,*,#687,.F.);
#352=ORIENTED_EDGE('',*,*,#688,.F.);
#353=ORIENTED_EDGE('',*,*,#689,.T.);
#354=ORIENTED_EDGE('',*,*,#690,.T.);
#355=ORIENTED_EDGE('',*,*,#691,.F.);
#356=ORIENTED_EDGE('',*,*,#692,.F.);
#357=ORIENTED_EDGE('',*,*,#693,.T.);
#358=ORIENTED_EDGE('',*,*,#694,.T.);
#359=ORIENTED_EDGE('',*,*,#695,.F.);
#360=ORIENTED_EDGE('',*,*,#696,.T.);
#361=ORIENTED_EDGE('',*,*,#697,.T.);
#362=ORIENTED_EDGE('',*,*,#698,.T.);
#363=ORIENTED_EDGE('',*,*,#699,.F.);
#364=ORIENTED_EDGE('',*,*,#700,.T.);
#365=ORIENTED_EDGE('',*,*,#701,.T.);
#366=ORIENTED_EDGE('',*,*,#702,.T.);
#367=ORIENTED_EDGE('',*,*,#703,.F.);
#368=ORIENTED_EDGE('',*,*,#704,.T.);
#369=ORIENTED_EDGE('',*,*,#705,.T.);
#370=ORIENTED_EDGE('',*,*,#706,.T.);
#371=ORIENTED_EDGE('',*,*,#707,.T.);
#372=ORIENTED_EDGE('',*,*,#708,.T.);
#373=ORIENTED_EDGE('',*,*,#709,.T.);
#374=ORIENTED_EDGE('',*,*,#710,.T.);
#375=ORIENTED_EDGE('',*,*,#711,.T.);
#376=ORIENTED_EDGE('',*,*,#712,.T.);
#377=ORIENTED_EDGE('',*,*,#713,.T.);
#378=ORIENTED_EDGE('',*,*,#695,.T.);
#379=ORIENTED_EDGE('',*,*,#714,.T.);
#380=ORIENTED_EDGE('',*,*,#715,.T.);
#381=ORIENTED_EDGE('',*,*,#716,.T.);
#382=ORIENTED_EDGE('',*,*,#660,.F.);
#383=ORIENTED_EDGE('',*,*,#717,.T.);
#384=ORIENTED_EDGE('',*,*,#718,.T.);
#385=ORIENTED_EDGE('',*,*,#719,.T.);
#386=ORIENTED_EDGE('',*,*,#680,.T.);
#387=ORIENTED_EDGE('',*,*,#705,.F.);
#388=ORIENTED_EDGE('',*,*,#720,.F.);
#389=ORIENTED_EDGE('',*,*,#721,.F.);
#390=ORIENTED_EDGE('',*,*,#722,.T.);
#391=ORIENTED_EDGE('',*,*,#688,.T.);
#392=ORIENTED_EDGE('',*,*,#723,.T.);
#393=ORIENTED_EDGE('',*,*,#724,.F.);
#394=ORIENTED_EDGE('',*,*,#725,.F.);
#395=ORIENTED_EDGE('',*,*,#726,.T.);
#396=ORIENTED_EDGE('',*,*,#727,.T.);
#397=ORIENTED_EDGE('',*,*,#726,.F.);
#398=ORIENTED_EDGE('',*,*,#728,.F.);
#399=ORIENTED_EDGE('',*,*,#721,.T.);
#400=ORIENTED_EDGE('',*,*,#729,.T.);
#401=ORIENTED_EDGE('',*,*,#722,.F.);
#402=ORIENTED_EDGE('',*,*,#728,.T.);
#403=ORIENTED_EDGE('',*,*,#725,.T.);
#404=ORIENTED_EDGE('',*,*,#689,.F.);
#405=ORIENTED_EDGE('',*,*,#658,.F.);
#406=ORIENTED_EDGE('',*,*,#720,.T.);
#407=ORIENTED_EDGE('',*,*,#687,.T.);
#408=ORIENTED_EDGE('',*,*,#723,.F.);
#409=ORIENTED_EDGE('',*,*,#727,.F.);
#410=ORIENTED_EDGE('',*,*,#730,.F.);
#411=ORIENTED_EDGE('',*,*,#729,.F.);
#412=ORIENTED_EDGE('',*,*,#730,.T.);
#413=ORIENTED_EDGE('',*,*,#731,.F.);
#414=ORIENTED_EDGE('',*,*,#732,.F.);
#415=ORIENTED_EDGE('',*,*,#733,.T.);
#416=ORIENTED_EDGE('',*,*,#734,.T.);
#417=ORIENTED_EDGE('',*,*,#735,.T.);
#418=ORIENTED_EDGE('',*,*,#702,.F.);
#419=ORIENTED_EDGE('',*,*,#736,.F.);
#420=ORIENTED_EDGE('',*,*,#737,.T.);
#421=ORIENTED_EDGE('',*,*,#738,.T.);
#422=ORIENTED_EDGE('',*,*,#737,.F.);
#423=ORIENTED_EDGE('',*,*,#739,.F.);
#424=ORIENTED_EDGE('',*,*,#732,.T.);
#425=ORIENTED_EDGE('',*,*,#740,.T.);
#426=ORIENTED_EDGE('',*,*,#733,.F.);
#427=ORIENTED_EDGE('',*,*,#739,.T.);
#428=ORIENTED_EDGE('',*,*,#736,.T.);
#429=ORIENTED_EDGE('',*,*,#701,.F.);
#430=ORIENTED_EDGE('',*,*,#656,.F.);
#431=ORIENTED_EDGE('',*,*,#731,.T.);
#432=ORIENTED_EDGE('',*,*,#703,.T.);
#433=ORIENTED_EDGE('',*,*,#735,.F.);
#434=ORIENTED_EDGE('',*,*,#738,.F.);
#435=ORIENTED_EDGE('',*,*,#741,.F.);
#436=ORIENTED_EDGE('',*,*,#740,.F.);
#437=ORIENTED_EDGE('',*,*,#741,.T.);
#438=ORIENTED_EDGE('',*,*,#742,.F.);
#439=ORIENTED_EDGE('',*,*,#743,.F.);
#440=ORIENTED_EDGE('',*,*,#744,.T.);
#441=ORIENTED_EDGE('',*,*,#673,.T.);
#442=ORIENTED_EDGE('',*,*,#745,.T.);
#443=ORIENTED_EDGE('',*,*,#746,.F.);
#444=ORIENTED_EDGE('',*,*,#747,.F.);
#445=ORIENTED_EDGE('',*,*,#748,.T.);
#446=ORIENTED_EDGE('',*,*,#749,.F.);
#447=ORIENTED_EDGE('',*,*,#748,.F.);
#448=ORIENTED_EDGE('',*,*,#750,.T.);
#449=ORIENTED_EDGE('',*,*,#743,.T.);
#450=ORIENTED_EDGE('',*,*,#744,.F.);
#451=ORIENTED_EDGE('',*,*,#750,.F.);
#452=ORIENTED_EDGE('',*,*,#747,.T.);
#453=ORIENTED_EDGE('',*,*,#674,.T.);
#454=ORIENTED_EDGE('',*,*,#751,.T.);
#455=ORIENTED_EDGE('',*,*,#742,.T.);
#456=ORIENTED_EDGE('',*,*,#672,.F.);
#457=ORIENTED_EDGE('',*,*,#745,.F.);
#458=ORIENTED_EDGE('',*,*,#749,.T.);
#459=ORIENTED_EDGE('',*,*,#654,.F.);
#460=ORIENTED_EDGE('',*,*,#752,.F.);
#461=ORIENTED_EDGE('',*,*,#751,.F.);
#462=ORIENTED_EDGE('',*,*,#752,.T.);
#463=ORIENTED_EDGE('',*,*,#753,.T.);
#464=ORIENTED_EDGE('',*,*,#667,.F.);
#465=ORIENTED_EDGE('',*,*,#754,.F.);
#466=ORIENTED_EDGE('',*,*,#755,.T.);
#467=ORIENTED_EDGE('',*,*,#756,.F.);
#468=ORIENTED_EDGE('',*,*,#755,.F.);
#469=ORIENTED_EDGE('',*,*,#757,.T.);
#470=ORIENTED_EDGE('',*,*,#758,.T.);
#471=ORIENTED_EDGE('',*,*,#759,.F.);
#472=ORIENTED_EDGE('',*,*,#758,.F.);
#473=ORIENTED_EDGE('',*,*,#760,.T.);
#474=ORIENTED_EDGE('',*,*,#761,.T.);
#475=ORIENTED_EDGE('',*,*,#666,.T.);
#476=ORIENTED_EDGE('',*,*,#760,.F.);
#477=ORIENTED_EDGE('',*,*,#757,.F.);
#478=ORIENTED_EDGE('',*,*,#754,.T.);
#479=ORIENTED_EDGE('',*,*,#762,.T.);
#480=ORIENTED_EDGE('',*,*,#668,.F.);
#481=ORIENTED_EDGE('',*,*,#753,.F.);
#482=ORIENTED_EDGE('',*,*,#756,.T.);
#483=ORIENTED_EDGE('',*,*,#759,.T.);
#484=ORIENTED_EDGE('',*,*,#652,.F.);
#485=ORIENTED_EDGE('',*,*,#763,.F.);
#486=ORIENTED_EDGE('',*,*,#762,.F.);
#487=ORIENTED_EDGE('',*,*,#763,.T.);
#488=ORIENTED_EDGE('',*,*,#764,.F.);
#489=ORIENTED_EDGE('',*,*,#713,.F.);
#490=ORIENTED_EDGE('',*,*,#765,.F.);
#491=ORIENTED_EDGE('',*,*,#712,.F.);
#492=ORIENTED_EDGE('',*,*,#766,.F.);
#493=ORIENTED_EDGE('',*,*,#711,.F.);
#494=ORIENTED_EDGE('',*,*,#767,.F.);
#495=ORIENTED_EDGE('',*,*,#710,.F.);
#496=ORIENTED_EDGE('',*,*,#768,.F.);
#497=ORIENTED_EDGE('',*,*,#769,.F.);
#498=ORIENTED_EDGE('',*,*,#770,.T.);
#499=ORIENTED_EDGE('',*,*,#771,.T.);
#500=ORIENTED_EDGE('',*,*,#772,.T.);
#501=ORIENTED_EDGE('',*,*,#663,.F.);
#502=ORIENTED_EDGE('',*,*,#773,.F.);
#503=ORIENTED_EDGE('',*,*,#774,.T.);
#504=ORIENTED_EDGE('',*,*,#775,.F.);
#505=ORIENTED_EDGE('',*,*,#774,.F.);
#506=ORIENTED_EDGE('',*,*,#776,.T.);
#507=ORIENTED_EDGE('',*,*,#769,.T.);
#508=ORIENTED_EDGE('',*,*,#770,.F.);
#509=ORIENTED_EDGE('',*,*,#776,.F.);
#510=ORIENTED_EDGE('',*,*,#773,.T.);
#511=ORIENTED_EDGE('',*,*,#662,.T.);
#512=ORIENTED_EDGE('',*,*,#767,.T.);
#513=ORIENTED_EDGE('',*,*,#768,.T.);
#514=ORIENTED_EDGE('',*,*,#664,.F.);
#515=ORIENTED_EDGE('',*,*,#772,.F.);
#516=ORIENTED_EDGE('',*,*,#775,.T.);
#517=ORIENTED_EDGE('',*,*,#777,.F.);
#518=ORIENTED_EDGE('',*,*,#778,.F.);
#519=ORIENTED_EDGE('',*,*,#779,.F.);
#520=ORIENTED_EDGE('',*,*,#780,.T.);
#521=ORIENTED_EDGE('',*,*,#781,.T.);
#522=ORIENTED_EDGE('',*,*,#782,.T.);
#523=ORIENTED_EDGE('',*,*,#698,.F.);
#524=ORIENTED_EDGE('',*,*,#783,.F.);
#525=ORIENTED_EDGE('',*,*,#784,.T.);
#526=ORIENTED_EDGE('',*,*,#785,.T.);
#527=ORIENTED_EDGE('',*,*,#784,.F.);
#528=ORIENTED_EDGE('',*,*,#786,.F.);
#529=ORIENTED_EDGE('',*,*,#779,.T.);
#530=ORIENTED_EDGE('',*,*,#766,.T.);
#531=ORIENTED_EDGE('',*,*,#780,.F.);
#532=ORIENTED_EDGE('',*,*,#786,.T.);
#533=ORIENTED_EDGE('',*,*,#783,.T.);
#534=ORIENTED_EDGE('',*,*,#697,.F.);
#535=ORIENTED_EDGE('',*,*,#787,.F.);
#536=ORIENTED_EDGE('',*,*,#778,.T.);
#537=ORIENTED_EDGE('',*,*,#699,.T.);
#538=ORIENTED_EDGE('',*,*,#782,.F.);
#539=ORIENTED_EDGE('',*,*,#785,.F.);
#540=ORIENTED_EDGE('',*,*,#788,.F.);
#541=ORIENTED_EDGE('',*,*,#789,.F.);
#542=ORIENTED_EDGE('',*,*,#790,.T.);
#543=ORIENTED_EDGE('',*,*,#692,.T.);
#544=ORIENTED_EDGE('',*,*,#791,.T.);
#545=ORIENTED_EDGE('',*,*,#792,.F.);
#546=ORIENTED_EDGE('',*,*,#793,.F.);
#547=ORIENTED_EDGE('',*,*,#794,.T.);
#548=ORIENTED_EDGE('',*,*,#795,.T.);
#549=ORIENTED_EDGE('',*,*,#794,.F.);
#550=ORIENTED_EDGE('',*,*,#796,.F.);
#551=ORIENTED_EDGE('',*,*,#789,.T.);
#552=ORIENTED_EDGE('',*,*,#765,.T.);
#553=ORIENTED_EDGE('',*,*,#790,.F.);
#554=ORIENTED_EDGE('',*,*,#796,.T.);
#555=ORIENTED_EDGE('',*,*,#793,.T.);
#556=ORIENTED_EDGE('',*,*,#693,.F.);
#557=ORIENTED_EDGE('',*,*,#797,.F.);
#558=ORIENTED_EDGE('',*,*,#788,.T.);
#559=ORIENTED_EDGE('',*,*,#691,.T.);
#560=ORIENTED_EDGE('',*,*,#791,.F.);
#561=ORIENTED_EDGE('',*,*,#795,.F.);
#562=ORIENTED_EDGE('',*,*,#798,.T.);
#563=ORIENTED_EDGE('',*,*,#799,.F.);
#564=ORIENTED_EDGE('',*,*,#800,.F.);
#565=ORIENTED_EDGE('',*,*,#801,.T.);
#566=ORIENTED_EDGE('',*,*,#802,.F.);
#567=ORIENTED_EDGE('',*,*,#801,.F.);
#568=ORIENTED_EDGE('',*,*,#803,.T.);
#569=ORIENTED_EDGE('',*,*,#804,.T.);
#570=ORIENTED_EDGE('',*,*,#805,.F.);
#571=ORIENTED_EDGE('',*,*,#804,.F.);
#572=ORIENTED_EDGE('',*,*,#806,.T.);
#573=ORIENTED_EDGE('',*,*,#677,.T.);
#574=ORIENTED_EDGE('',*,*,#678,.T.);
#575=ORIENTED_EDGE('',*,*,#806,.F.);
#576=ORIENTED_EDGE('',*,*,#803,.F.);
#577=ORIENTED_EDGE('',*,*,#800,.T.);
#578=ORIENTED_EDGE('',*,*,#764,.T.);
#579=ORIENTED_EDGE('',*,*,#676,.F.);
#580=ORIENTED_EDGE('',*,*,#798,.F.);
#581=ORIENTED_EDGE('',*,*,#802,.T.);
#582=ORIENTED_EDGE('',*,*,#805,.T.);
#583=ORIENTED_EDGE('',*,*,#807,.F.);
#584=ORIENTED_EDGE('',*,*,#808,.T.);
#585=ORIENTED_EDGE('',*,*,#808,.F.);
#586=ORIENTED_EDGE('',*,*,#777,.T.);
#587=ORIENTED_EDGE('',*,*,#809,.T.);
#588=ORIENTED_EDGE('',*,*,#809,.F.);
#589=ORIENTED_EDGE('',*,*,#787,.T.);
#590=ORIENTED_EDGE('',*,*,#810,.T.);
#591=ORIENTED_EDGE('',*,*,#810,.F.);
#592=ORIENTED_EDGE('',*,*,#797,.T.);
#593=ORIENTED_EDGE('',*,*,#811,.T.);
#594=ORIENTED_EDGE('',*,*,#811,.F.);
#595=ORIENTED_EDGE('',*,*,#807,.T.);
#596=ORIENTED_EDGE('',*,*,#659,.T.);
#597=ORIENTED_EDGE('',*,*,#657,.T.);
#598=ORIENTED_EDGE('',*,*,#655,.T.);
#599=ORIENTED_EDGE('',*,*,#653,.T.);
#600=ORIENTED_EDGE('',*,*,#708,.F.);
#601=ORIENTED_EDGE('',*,*,#812,.T.);
#602=ORIENTED_EDGE('',*,*,#685,.F.);
#603=ORIENTED_EDGE('',*,*,#813,.T.);
#604=ORIENTED_EDGE('',*,*,#681,.T.);
#605=ORIENTED_EDGE('',*,*,#814,.T.);
#606=ORIENTED_EDGE('',*,*,#670,.T.);
#607=ORIENTED_EDGE('',*,*,#815,.T.);
#608=ORIENTED_EDGE('',*,*,#715,.F.);
#609=ORIENTED_EDGE('',*,*,#816,.T.);
#610=ORIENTED_EDGE('',*,*,#706,.F.);
#611=ORIENTED_EDGE('',*,*,#817,.T.);
#612=ORIENTED_EDGE('',*,*,#683,.F.);
#613=ORIENTED_EDGE('',*,*,#818,.T.);
#614=ORIENTED_EDGE('',*,*,#718,.F.);
#615=ORIENTED_EDGE('',*,*,#819,.T.);
#616=ORIENTED_EDGE('',*,*,#724,.T.);
#617=ORIENTED_EDGE('',*,*,#686,.F.);
#618=ORIENTED_EDGE('',*,*,#812,.F.);
#619=ORIENTED_EDGE('',*,*,#707,.F.);
#620=ORIENTED_EDGE('',*,*,#816,.F.);
#621=ORIENTED_EDGE('',*,*,#714,.F.);
#622=ORIENTED_EDGE('',*,*,#694,.F.);
#623=ORIENTED_EDGE('',*,*,#792,.T.);
#624=ORIENTED_EDGE('',*,*,#690,.F.);
#625=ORIENTED_EDGE('',*,*,#818,.F.);
#626=ORIENTED_EDGE('',*,*,#682,.F.);
#627=ORIENTED_EDGE('',*,*,#813,.F.);
#628=ORIENTED_EDGE('',*,*,#704,.F.);
#629=ORIENTED_EDGE('',*,*,#734,.F.);
#630=ORIENTED_EDGE('',*,*,#700,.F.);
#631=ORIENTED_EDGE('',*,*,#781,.F.);
#632=ORIENTED_EDGE('',*,*,#696,.F.);
#633=ORIENTED_EDGE('',*,*,#719,.F.);
#634=ORIENTED_EDGE('',*,*,#817,.F.);
#635=ORIENTED_EDGE('',*,*,#709,.F.);
#636=ORIENTED_EDGE('',*,*,#815,.F.);
#637=ORIENTED_EDGE('',*,*,#669,.F.);
#638=ORIENTED_EDGE('',*,*,#761,.F.);
#639=ORIENTED_EDGE('',*,*,#665,.F.);
#640=ORIENTED_EDGE('',*,*,#771,.F.);
#641=ORIENTED_EDGE('',*,*,#661,.F.);
#642=ORIENTED_EDGE('',*,*,#716,.F.);
#643=ORIENTED_EDGE('',*,*,#746,.T.);
#644=ORIENTED_EDGE('',*,*,#671,.F.);
#645=ORIENTED_EDGE('',*,*,#814,.F.);
#646=ORIENTED_EDGE('',*,*,#684,.F.);
#647=ORIENTED_EDGE('',*,*,#819,.F.);
#648=ORIENTED_EDGE('',*,*,#717,.F.);
#649=ORIENTED_EDGE('',*,*,#679,.F.);
#650=ORIENTED_EDGE('',*,*,#799,.T.);
#651=ORIENTED_EDGE('',*,*,#675,.F.);
#652=EDGE_CURVE('',#820,#820,#938,.T.);
#653=EDGE_CURVE('',#821,#821,#939,.T.);
#654=EDGE_CURVE('',#822,#822,#940,.T.);
#655=EDGE_CURVE('',#823,#823,#941,.T.);
#656=EDGE_CURVE('',#824,#824,#942,.T.);
#657=EDGE_CURVE('',#825,#825,#943,.T.);
#658=EDGE_CURVE('',#826,#826,#944,.T.);
#659=EDGE_CURVE('',#827,#827,#945,.T.);
#660=EDGE_CURVE('',#828,#829,#16,.T.);
#661=EDGE_CURVE('',#829,#830,#17,.T.);
#662=EDGE_CURVE('',#831,#830,#18,.T.);
#663=EDGE_CURVE('',#831,#832,#19,.T.);
#664=EDGE_CURVE('',#832,#833,#20,.T.);
#665=EDGE_CURVE('',#833,#834,#21,.T.);
#666=EDGE_CURVE('',#835,#834,#22,.T.);
#667=EDGE_CURVE('',#835,#836,#23,.T.);
#668=EDGE_CURVE('',#836,#837,#24,.T.);
#669=EDGE_CURVE('',#837,#838,#25,.T.);
#670=EDGE_CURVE('',#839,#838,#26,.T.);
#671=EDGE_CURVE('',#839,#840,#27,.F.);
#672=EDGE_CURVE('',#840,#841,#28,.T.);
#673=EDGE_CURVE('',#842,#841,#29,.T.);
#674=EDGE_CURVE('',#843,#842,#30,.T.);
#675=EDGE_CURVE('',#843,#844,#31,.F.);
#676=EDGE_CURVE('',#844,#845,#32,.T.);
#677=EDGE_CURVE('',#846,#845,#33,.T.);
#678=EDGE_CURVE('',#847,#846,#34,.T.);
#679=EDGE_CURVE('',#847,#828,#35,.F.);
#680=EDGE_CURVE('',#848,#848,#946,.T.);
#681=EDGE_CURVE('',#849,#850,#36,.T.);
#682=EDGE_CURVE('',#849,#851,#37,.F.);
#683=EDGE_CURVE('',#851,#852,#38,.T.);
#684=EDGE_CURVE('',#852,#850,#39,.T.);
#685=EDGE_CURVE('',#853,#854,#40,.T.);
#686=EDGE_CURVE('',#854,#855,#41,.F.);
#687=EDGE_CURVE('',#856,#855,#42,.T.);
#688=EDGE_CURVE('',#857,#856,#43,.T.);
#689=EDGE_CURVE('',#857,#858,#44,.T.);
#690=EDGE_CURVE('',#858,#859,#45,.F.);
#691=EDGE_CURVE('',#860,#859,#46,.T.);
#692=EDGE_CURVE('',#861,#860,#47,.T.);
#693=EDGE_CURVE('',#861,#862,#48,.T.);
#694=EDGE_CURVE('',#862,#863,#49,.F.);
#695=EDGE_CURVE('',#864,#863,#50,.T.);
#696=EDGE_CURVE('',#864,#865,#51,.T.);
#697=EDGE_CURVE('',#865,#866,#52,.T.);
#698=EDGE_CURVE('',#866,#867,#53,.T.);
#699=EDGE_CURVE('',#868,#867,#54,.T.);
#700=EDGE_CURVE('',#868,#869,#55,.T.);
#701=EDGE_CURVE('',#869,#870,#56,.T.);
#702=EDGE_CURVE('',#870,#871,#57,.T.);
#703=EDGE_CURVE('',#872,#871,#58,.T.);
#704=EDGE_CURVE('',#872,#853,#59,.T.);
#705=EDGE_CURVE('',#873,#873,#947,.T.);
#706=EDGE_CURVE('',#874,#875,#60,.T.);
#707=EDGE_CURVE('',#875,#876,#61,.T.);
#708=EDGE_CURVE('',#876,#877,#62,.T.);
#709=EDGE_CURVE('',#877,#874,#63,.F.);
#710=EDGE_CURVE('',#878,#878,#948,.F.);
#711=EDGE_CURVE('',#879,#879,#949,.F.);
#712=EDGE_CURVE('',#880,#880,#950,.F.);
#713=EDGE_CURVE('',#881,#881,#951,.F.);
#714=EDGE_CURVE('',#863,#882,#952,.T.);
#715=EDGE_CURVE('',#882,#883,#64,.T.);
#716=EDGE_CURVE('',#883,#829,#953,.T.);
#717=EDGE_CURVE('',#828,#884,#954,.T.);
#718=EDGE_CURVE('',#884,#885,#65,.T.);
#719=EDGE_CURVE('',#885,#864,#955,.T.);
#720=EDGE_CURVE('',#886,#856,#66,.T.);
#721=EDGE_CURVE('',#887,#886,#67,.T.);
#722=EDGE_CURVE('',#887,#857,#68,.T.);
#723=EDGE_CURVE('',#888,#855,#69,.T.);
#724=EDGE_CURVE('',#858,#855,#70,.T.);
#725=EDGE_CURVE('',#889,#858,#71,.T.);
#726=EDGE_CURVE('',#889,#888,#72,.T.);
#727=EDGE_CURVE('',#886,#888,#73,.T.);
#728=EDGE_CURVE('',#887,#889,#74,.T.);
#729=EDGE_CURVE('',#890,#890,#956,.T.);
#730=EDGE_CURVE('',#891,#891,#957,.T.);
#731=EDGE_CURVE('',#892,#872,#75,.T.);
#732=EDGE_CURVE('',#893,#892,#76,.T.);
#733=EDGE_CURVE('',#893,#869,#77,.T.);
#734=EDGE_CURVE('',#869,#872,#78,.T.);
#735=EDGE_CURVE('',#894,#871,#79,.T.);
#736=EDGE_CURVE('',#895,#870,#80,.T.);
#737=EDGE_CURVE('',#895,#894,#81,.T.);
#738=EDGE_CURVE('',#892,#894,#82,.T.);
#739=EDGE_CURVE('',#893,#895,#83,.T.);
#740=EDGE_CURVE('',#896,#896,#958,.T.);
#741=EDGE_CURVE('',#897,#897,#959,.T.);
#742=EDGE_CURVE('',#898,#841,#84,.T.);
#743=EDGE_CURVE('',#899,#898,#85,.T.);
#744=EDGE_CURVE('',#899,#842,#86,.T.);
#745=EDGE_CURVE('',#900,#840,#87,.T.);
#746=EDGE_CURVE('',#843,#840,#88,.T.);
#747=EDGE_CURVE('',#901,#843,#89,.T.);
#748=EDGE_CURVE('',#901,#900,#90,.T.);
#749=EDGE_CURVE('',#900,#898,#91,.T.);
#750=EDGE_CURVE('',#901,#899,#92,.T.);
#751=EDGE_CURVE('',#902,#902,#960,.T.);
#752=EDGE_CURVE('',#903,#903,#961,.T.);
#753=EDGE_CURVE('',#904,#836,#93,.T.);
#754=EDGE_CURVE('',#905,#835,#94,.T.);
#755=EDGE_CURVE('',#905,#904,#95,.T.);
#756=EDGE_CURVE('',#904,#906,#96,.T.);
#757=EDGE_CURVE('',#905,#907,#97,.T.);
#758=EDGE_CURVE('',#907,#906,#98,.T.);
#759=EDGE_CURVE('',#906,#837,#99,.T.);
#760=EDGE_CURVE('',#907,#834,#100,.T.);
#761=EDGE_CURVE('',#834,#837,#101,.T.);
#762=EDGE_CURVE('',#908,#908,#962,.T.);
#763=EDGE_CURVE('',#909,#909,#963,.T.);
#764=EDGE_CURVE('',#910,#910,#964,.T.);
#765=EDGE_CURVE('',#911,#911,#965,.T.);
#766=EDGE_CURVE('',#912,#912,#966,.T.);
#767=EDGE_CURVE('',#913,#913,#967,.T.);
#768=EDGE_CURVE('',#914,#833,#102,.T.);
#769=EDGE_CURVE('',#915,#914,#103,.T.);
#770=EDGE_CURVE('',#915,#830,#104,.T.);
#771=EDGE_CURVE('',#830,#833,#105,.T.);
#772=EDGE_CURVE('',#916,#832,#106,.T.);
#773=EDGE_CURVE('',#917,#831,#107,.T.);
#774=EDGE_CURVE('',#917,#916,#108,.T.);
#775=EDGE_CURVE('',#916,#914,#109,.T.);
#776=EDGE_CURVE('',#917,#915,#110,.T.);
#777=EDGE_CURVE('',#918,#918,#968,.T.);
#778=EDGE_CURVE('',#919,#868,#111,.T.);
#779=EDGE_CURVE('',#920,#919,#112,.T.);
#780=EDGE_CURVE('',#920,#865,#113,.T.);
#781=EDGE_CURVE('',#865,#868,#114,.T.);
#782=EDGE_CURVE('',#921,#867,#115,.T.);
#783=EDGE_CURVE('',#922,#866,#116,.T.);
#784=EDGE_CURVE('',#922,#921,#117,.T.);
#785=EDGE_CURVE('',#919,#921,#118,.T.);
#786=EDGE_CURVE('',#920,#922,#119,.T.);
#787=EDGE_CURVE('',#923,#923,#969,.T.);
#788=EDGE_CURVE('',#924,#860,#120,.T.);
#789=EDGE_CURVE('',#925,#924,#121,.T.);
#790=EDGE_CURVE('',#925,#861,#122,.T.);
#791=EDGE_CURVE('',#926,#859,#123,.T.);
#792=EDGE_CURVE('',#862,#859,#124,.T.);
#793=EDGE_CURVE('',#927,#862,#125,.T.);
#794=EDGE_CURVE('',#927,#926,#126,.T.);
#795=EDGE_CURVE('',#924,#926,#127,.T.);
#796=EDGE_CURVE('',#925,#927,#128,.T.);
#797=EDGE_CURVE('',#928,#928,#970,.T.);
#798=EDGE_CURVE('',#929,#844,#129,.T.);
#799=EDGE_CURVE('',#847,#844,#130,.T.);
#800=EDGE_CURVE('',#930,#847,#131,.T.);
#801=EDGE_CURVE('',#930,#929,#132,.T.);
#802=EDGE_CURVE('',#929,#931,#133,.T.);
#803=EDGE_CURVE('',#930,#932,#134,.T.);
#804=EDGE_CURVE('',#932,#931,#135,.T.);
#805=EDGE_CURVE('',#931,#845,#136,.T.);
#806=EDGE_CURVE('',#932,#846,#137,.T.);
#807=EDGE_CURVE('',#933,#933,#971,.T.);
#808=EDGE_CURVE('',#934,#934,#972,.T.);
#809=EDGE_CURVE('',#935,#935,#973,.T.);
#810=EDGE_CURVE('',#936,#936,#974,.T.);
#811=EDGE_CURVE('',#937,#937,#975,.T.);
#812=EDGE_CURVE('',#876,#854,#976,.F.);
#813=EDGE_CURVE('',#853,#849,#977,.F.);
#814=EDGE_CURVE('',#850,#839,#978,.F.);
#815=EDGE_CURVE('',#838,#877,#979,.F.);
#816=EDGE_CURVE('',#882,#875,#12,.T.);
#817=EDGE_CURVE('',#874,#883,#13,.T.);
#818=EDGE_CURVE('',#851,#885,#14,.F.);
#819=EDGE_CURVE('',#884,#852,#15,.F.);
#820=VERTEX_POINT('',#1827);
#821=VERTEX_POINT('',#1829);
#822=VERTEX_POINT('',#1832);
#823=VERTEX_POINT('',#1834);
#824=VERTEX_POINT('',#1837);
#825=VERTEX_POINT('',#1839);
#826=VERTEX_POINT('',#1842);
#827=VERTEX_POINT('',#1844);
#828=VERTEX_POINT('',#1847);
#829=VERTEX_POINT('',#1848);
#830=VERTEX_POINT('',#1850);
#831=VERTEX_POINT('',#1852);
#832=VERTEX_POINT('',#1854);
#833=VERTEX_POINT('',#1856);
#834=VERTEX_POINT('',#1858);
#835=VERTEX_POINT('',#1860);
#836=VERTEX_POINT('',#1862);
#837=VERTEX_POINT('',#1864);
#838=VERTEX_POINT('',#1866);
#839=VERTEX_POINT('',#1868);
#840=VERTEX_POINT('',#1870);
#841=VERTEX_POINT('',#1872);
#842=VERTEX_POINT('',#1874);
#843=VERTEX_POINT('',#1876);
#844=VERTEX_POINT('',#1878);
#845=VERTEX_POINT('',#1880);
#846=VERTEX_POINT('',#1882);
#847=VERTEX_POINT('',#1884);
#848=VERTEX_POINT('',#1887);
#849=VERTEX_POINT('',#1890);
#850=VERTEX_POINT('',#1891);
#851=VERTEX_POINT('',#1893);
#852=VERTEX_POINT('',#1895);
#853=VERTEX_POINT('',#1899);
#854=VERTEX_POINT('',#1900);
#855=VERTEX_POINT('',#1902);
#856=VERTEX_POINT('',#1904);
#857=VERTEX_POINT('',#1906);
#858=VERTEX_POINT('',#1908);
#859=VERTEX_POINT('',#1910);
#860=VERTEX_POINT('',#1912);
#861=VERTEX_POINT('',#1914);
#862=VERTEX_POINT('',#1916);
#863=VERTEX_POINT('',#1918);
#864=VERTEX_POINT('',#1920);
#865=VERTEX_POINT('',#1922);
#866=VERTEX_POINT('',#1924);
#867=VERTEX_POINT('',#1926);
#868=VERTEX_POINT('',#1928);
#869=VERTEX_POINT('',#1930);
#870=VERTEX_POINT('',#1932);
#871=VERTEX_POINT('',#1934);
#872=VERTEX_POINT('',#1936);
#873=VERTEX_POINT('',#1939);
#874=VERTEX_POINT('',#1942);
#875=VERTEX_POINT('',#1943);
#876=VERTEX_POINT('',#1945);
#877=VERTEX_POINT('',#1947);
#878=VERTEX_POINT('',#1951);
#879=VERTEX_POINT('',#1953);
#880=VERTEX_POINT('',#1955);
#881=VERTEX_POINT('',#1957);
#882=VERTEX_POINT('',#1959);
#883=VERTEX_POINT('',#1961);
#884=VERTEX_POINT('',#1964);
#885=VERTEX_POINT('',#1966);
#886=VERTEX_POINT('',#1971);
#887=VERTEX_POINT('',#1973);
#888=VERTEX_POINT('',#1977);
#889=VERTEX_POINT('',#1980);
#890=VERTEX_POINT('',#1987);
#891=VERTEX_POINT('',#1991);
#892=VERTEX_POINT('',#1995);
#893=VERTEX_POINT('',#1997);
#894=VERTEX_POINT('',#2002);
#895=VERTEX_POINT('',#2004);
#896=VERTEX_POINT('',#2011);
#897=VERTEX_POINT('',#2015);
#898=VERTEX_POINT('',#2019);
#899=VERTEX_POINT('',#2021);
#900=VERTEX_POINT('',#2025);
#901=VERTEX_POINT('',#2028);
#902=VERTEX_POINT('',#2035);
#903=VERTEX_POINT('',#2039);
#904=VERTEX_POINT('',#2043);
#905=VERTEX_POINT('',#2045);
#906=VERTEX_POINT('',#2049);
#907=VERTEX_POINT('',#2051);
#908=VERTEX_POINT('',#2059);
#909=VERTEX_POINT('',#2063);
#910=VERTEX_POINT('',#2067);
#911=VERTEX_POINT('',#2070);
#912=VERTEX_POINT('',#2073);
#913=VERTEX_POINT('',#2076);
#914=VERTEX_POINT('',#2079);
#915=VERTEX_POINT('',#2081);
#916=VERTEX_POINT('',#2086);
#917=VERTEX_POINT('',#2088);
#918=VERTEX_POINT('',#2096);
#919=VERTEX_POINT('',#2099);
#920=VERTEX_POINT('',#2101);
#921=VERTEX_POINT('',#2106);
#922=VERTEX_POINT('',#2108);
#923=VERTEX_POINT('',#2116);
#924=VERTEX_POINT('',#2119);
#925=VERTEX_POINT('',#2121);
#926=VERTEX_POINT('',#2125);
#927=VERTEX_POINT('',#2128);
#928=VERTEX_POINT('',#2136);
#929=VERTEX_POINT('',#2139);
#930=VERTEX_POINT('',#2142);
#931=VERTEX_POINT('',#2146);
#932=VERTEX_POINT('',#2148);
#933=VERTEX_POINT('',#2156);
#934=VERTEX_POINT('',#2159);
#935=VERTEX_POINT('',#2163);
#936=VERTEX_POINT('',#2167);
#937=VERTEX_POINT('',#2171);
#938=CIRCLE('',#1332,0.0016);
#939=CIRCLE('',#1333,0.0016);
#940=CIRCLE('',#1335,0.0016);
#941=CIRCLE('',#1336,0.0016);
#942=CIRCLE('',#1338,0.0016);
#943=CIRCLE('',#1339,0.0016);
#944=CIRCLE('',#1341,0.0016);
#945=CIRCLE('',#1342,0.0016);
#946=CIRCLE('',#1344,0.005);
#947=CIRCLE('',#1347,0.005);
#948=CIRCLE('',#1350,0.0016);
#949=CIRCLE('',#1351,0.0016);
#950=CIRCLE('',#1352,0.0016);
#951=CIRCLE('',#1353,0.0016);
#952=CIRCLE('',#1354,0.002);
#953=CIRCLE('',#1355,0.002);
#954=CIRCLE('',#1356,0.002);
#955=CIRCLE('',#1357,0.002);
#956=CIRCLE('',#1363,0.0016);
#957=CIRCLE('',#1366,0.0016);
#958=CIRCLE('',#1372,0.0016);
#959=CIRCLE('',#1375,0.0016);
#960=CIRCLE('',#1381,0.0016);
#961=CIRCLE('',#1384,0.0016);
#962=CIRCLE('',#1390,0.0016);
#963=CIRCLE('',#1393,0.0016);
#964=CIRCLE('',#1396,0.0016);
#965=CIRCLE('',#1398,0.0016);
#966=CIRCLE('',#1400,0.0016);
#967=CIRCLE('',#1402,0.0016);
#968=CIRCLE('',#1408,0.0016);
#969=CIRCLE('',#1414,0.0016);
#970=CIRCLE('',#1420,0.0016);
#971=CIRCLE('',#1426,0.0016);
#972=CIRCLE('',#1428,0.0016);
#973=CIRCLE('',#1431,0.0016);
#974=CIRCLE('',#1434,0.0016);
#975=CIRCLE('',#1437,0.0016);
#976=CIRCLE('',#1440,0.002);
#977=CIRCLE('',#1441,0.002);
#978=CIRCLE('',#1442,0.002);
#979=CIRCLE('',#1443,0.002);
#980=EDGE_LOOP('',(#316));
#981=EDGE_LOOP('',(#317));
#982=EDGE_LOOP('',(#318));
#983=EDGE_LOOP('',(#319));
#984=EDGE_LOOP('',(#320));
#985=EDGE_LOOP('',(#321));
#986=EDGE_LOOP('',(#322));
#987=EDGE_LOOP('',(#323));
#988=EDGE_LOOP('',(#324,#325,#326,#327,#328,#329,#330,#331,#332,#333,#334,
#335,#336,#337,#338,#339,#340,#341,#342,#343));
#989=EDGE_LOOP('',(#344));
#990=EDGE_LOOP('',(#345,#346,#347,#348));
#991=EDGE_LOOP('',(#349,#350,#351,#352,#353,#354,#355,#356,#357,#358,#359,
#360,#361,#362,#363,#364,#365,#366,#367,#368));
#992=EDGE_LOOP('',(#369));
#993=EDGE_LOOP('',(#370,#371,#372,#373));
#994=EDGE_LOOP('',(#374));
#995=EDGE_LOOP('',(#375));
#996=EDGE_LOOP('',(#376));
#997=EDGE_LOOP('',(#377));
#998=EDGE_LOOP('',(#378,#379,#380,#381,#382,#383,#384,#385));
#999=EDGE_LOOP('',(#386));
#1000=EDGE_LOOP('',(#387));
#1001=EDGE_LOOP('',(#388,#389,#390,#391));
#1002=EDGE_LOOP('',(#392,#393,#394,#395));
#1003=EDGE_LOOP('',(#396,#397,#398,#399));
#1004=EDGE_LOOP('',(#400));
#1005=EDGE_LOOP('',(#401,#402,#403,#404));
#1006=EDGE_LOOP('',(#405));
#1007=EDGE_LOOP('',(#406,#407,#408,#409));
#1008=EDGE_LOOP('',(#410));
#1009=EDGE_LOOP('',(#411));
#1010=EDGE_LOOP('',(#412));
#1011=EDGE_LOOP('',(#413,#414,#415,#416));
#1012=EDGE_LOOP('',(#417,#418,#419,#420));
#1013=EDGE_LOOP('',(#421,#422,#423,#424));
#1014=EDGE_LOOP('',(#425));
#1015=EDGE_LOOP('',(#426,#427,#428,#429));
#1016=EDGE_LOOP('',(#430));
#1017=EDGE_LOOP('',(#431,#432,#433,#434));
#1018=EDGE_LOOP('',(#435));
#1019=EDGE_LOOP('',(#436));
#1020=EDGE_LOOP('',(#437));
#1021=EDGE_LOOP('',(#438,#439,#440,#441));
#1022=EDGE_LOOP('',(#442,#443,#444,#445));
#1023=EDGE_LOOP('',(#446,#447,#448,#449));
#1024=EDGE_LOOP('',(#450,#451,#452,#453));
#1025=EDGE_LOOP('',(#454));
#1026=EDGE_LOOP('',(#455,#456,#457,#458));
#1027=EDGE_LOOP('',(#459));
#1028=EDGE_LOOP('',(#460));
#1029=EDGE_LOOP('',(#461));
#1030=EDGE_LOOP('',(#462));
#1031=EDGE_LOOP('',(#463,#464,#465,#466));
#1032=EDGE_LOOP('',(#467,#468,#469,#470));
#1033=EDGE_LOOP('',(#471,#472,#473,#474));
#1034=EDGE_LOOP('',(#475,#476,#477,#478));
#1035=EDGE_LOOP('',(#479));
#1036=EDGE_LOOP('',(#480,#481,#482,#483));
#1037=EDGE_LOOP('',(#484));
#1038=EDGE_LOOP('',(#485));
#1039=EDGE_LOOP('',(#486));
#1040=EDGE_LOOP('',(#487));
#1041=EDGE_LOOP('',(#488));
#1042=EDGE_LOOP('',(#489));
#1043=EDGE_LOOP('',(#490));
#1044=EDGE_LOOP('',(#491));
#1045=EDGE_LOOP('',(#492));
#1046=EDGE_LOOP('',(#493));
#1047=EDGE_LOOP('',(#494));
#1048=EDGE_LOOP('',(#495));
#1049=EDGE_LOOP('',(#496,#497,#498,#499));
#1050=EDGE_LOOP('',(#500,#501,#502,#503));
#1051=EDGE_LOOP('',(#504,#505,#506,#507));
#1052=EDGE_LOOP('',(#508,#509,#510,#511));
#1053=EDGE_LOOP('',(#512));
#1054=EDGE_LOOP('',(#513,#514,#515,#516));
#1055=EDGE_LOOP('',(#517));
#1056=EDGE_LOOP('',(#518,#519,#520,#521));
#1057=EDGE_LOOP('',(#522,#523,#524,#525));
#1058=EDGE_LOOP('',(#526,#527,#528,#529));
#1059=EDGE_LOOP('',(#530));
#1060=EDGE_LOOP('',(#531,#532,#533,#534));
#1061=EDGE_LOOP('',(#535));
#1062=EDGE_LOOP('',(#536,#537,#538,#539));
#1063=EDGE_LOOP('',(#540,#541,#542,#543));
#1064=EDGE_LOOP('',(#544,#545,#546,#547));
#1065=EDGE_LOOP('',(#548,#549,#550,#551));
#1066=EDGE_LOOP('',(#552));
#1067=EDGE_LOOP('',(#553,#554,#555,#556));
#1068=EDGE_LOOP('',(#557));
#1069=EDGE_LOOP('',(#558,#559,#560,#561));
#1070=EDGE_LOOP('',(#562,#563,#564,#565));
#1071=EDGE_LOOP('',(#566,#567,#568,#569));
#1072=EDGE_LOOP('',(#570,#571,#572,#573));
#1073=EDGE_LOOP('',(#574,#575,#576,#577));
#1074=EDGE_LOOP('',(#578));
#1075=EDGE_LOOP('',(#579,#580,#581,#582));
#1076=EDGE_LOOP('',(#583));
#1077=EDGE_LOOP('',(#584));
#1078=EDGE_LOOP('',(#585));
#1079=EDGE_LOOP('',(#586));
#1080=EDGE_LOOP('',(#587));
#1081=EDGE_LOOP('',(#588));
#1082=EDGE_LOOP('',(#589));
#1083=EDGE_LOOP('',(#590));
#1084=EDGE_LOOP('',(#591));
#1085=EDGE_LOOP('',(#592));
#1086=EDGE_LOOP('',(#593));
#1087=EDGE_LOOP('',(#594));
#1088=EDGE_LOOP('',(#595));
#1089=EDGE_LOOP('',(#596));
#1090=EDGE_LOOP('',(#597));
#1091=EDGE_LOOP('',(#598));
#1092=EDGE_LOOP('',(#599));
#1093=EDGE_LOOP('',(#600,#601,#602,#603,#604,#605,#606,#607));
#1094=EDGE_LOOP('',(#608,#609,#610,#611));
#1095=EDGE_LOOP('',(#612,#613,#614,#615));
#1096=EDGE_LOOP('',(#616,#617,#618,#619,#620,#621,#622,#623,#624));
#1097=EDGE_LOOP('',(#625,#626,#627,#628,#629,#630,#631,#632,#633));
#1098=EDGE_LOOP('',(#634,#635,#636,#637,#638,#639,#640,#641,#642));
#1099=EDGE_LOOP('',(#643,#644,#645,#646,#647,#648,#649,#650,#651));
#1100=FACE_BOUND('',#980,.T.);
#1101=FACE_BOUND('',#981,.T.);
#1102=FACE_BOUND('',#982,.T.);
#1103=FACE_BOUND('',#983,.T.);
#1104=FACE_BOUND('',#984,.T.);
#1105=FACE_BOUND('',#985,.T.);
#1106=FACE_BOUND('',#986,.T.);
#1107=FACE_BOUND('',#987,.T.);
#1108=FACE_BOUND('',#988,.T.);
#1109=FACE_BOUND('',#989,.T.);
#1110=FACE_BOUND('',#990,.T.);
#1111=FACE_BOUND('',#991,.T.);
#1112=FACE_BOUND('',#992,.T.);
#1113=FACE_BOUND('',#993,.T.);
#1114=FACE_BOUND('',#994,.T.);
#1115=FACE_BOUND('',#995,.T.);
#1116=FACE_BOUND('',#996,.T.);
#1117=FACE_BOUND('',#997,.T.);
#1118=FACE_BOUND('',#998,.T.);
#1119=FACE_BOUND('',#999,.T.);
#1120=FACE_BOUND('',#1000,.T.);
#1121=FACE_BOUND('',#1001,.T.);
#1122=FACE_BOUND('',#1002,.T.);
#1123=FACE_BOUND('',#1003,.T.);
#1124=FACE_BOUND('',#1004,.T.);
#1125=FACE_BOUND('',#1005,.T.);
#1126=FACE_BOUND('',#1006,.T.);
#1127=FACE_BOUND('',#1007,.T.);
#1128=FACE_BOUND('',#1008,.T.);
#1129=FACE_BOUND('',#1009,.T.);
#1130=FACE_BOUND('',#1010,.T.);
#1131=FACE_BOUND('',#1011,.T.);
#1132=FACE_BOUND('',#1012,.T.);
#1133=FACE_BOUND('',#1013,.T.);
#1134=FACE_BOUND('',#1014,.T.);
#1135=FACE_BOUND('',#1015,.T.);
#1136=FACE_BOUND('',#1016,.T.);
#1137=FACE_BOUND('',#1017,.T.);
#1138=FACE_BOUND('',#1018,.T.);
#1139=FACE_BOUND('',#1019,.T.);
#1140=FACE_BOUND('',#1020,.T.);
#1141=FACE_BOUND('',#1021,.T.);
#1142=FACE_BOUND('',#1022,.T.);
#1143=FACE_BOUND('',#1023,.T.);
#1144=FACE_BOUND('',#1024,.T.);
#1145=FACE_BOUND('',#1025,.T.);
#1146=FACE_BOUND('',#1026,.T.);
#1147=FACE_BOUND('',#1027,.T.);
#1148=FACE_BOUND('',#1028,.T.);
#1149=FACE_BOUND('',#1029,.T.);
#1150=FACE_BOUND('',#1030,.T.);
#1151=FACE_BOUND('',#1031,.T.);
#1152=FACE_BOUND('',#1032,.T.);
#1153=FACE_BOUND('',#1033,.T.);
#1154=FACE_BOUND('',#1034,.T.);
#1155=FACE_BOUND('',#1035,.T.);
#1156=FACE_BOUND('',#1036,.T.);
#1157=FACE_BOUND('',#1037,.T.);
#1158=FACE_BOUND('',#1038,.T.);
#1159=FACE_BOUND('',#1039,.T.);
#1160=FACE_BOUND('',#1040,.T.);
#1161=FACE_BOUND('',#1041,.T.);
#1162=FACE_BOUND('',#1042,.T.);
#1163=FACE_BOUND('',#1043,.T.);
#1164=FACE_BOUND('',#1044,.T.);
#1165=FACE_BOUND('',#1045,.T.);
#1166=FACE_BOUND('',#1046,.T.);
#1167=FACE_BOUND('',#1047,.T.);
#1168=FACE_BOUND('',#1048,.T.);
#1169=FACE_BOUND('',#1049,.T.);
#1170=FACE_BOUND('',#1050,.T.);
#1171=FACE_BOUND('',#1051,.T.);
#1172=FACE_BOUND('',#1052,.T.);
#1173=FACE_BOUND('',#1053,.T.);
#1174=FACE_BOUND('',#1054,.T.);
#1175=FACE_BOUND('',#1055,.T.);
#1176=FACE_BOUND('',#1056,.T.);
#1177=FACE_BOUND('',#1057,.T.);
#1178=FACE_BOUND('',#1058,.T.);
#1179=FACE_BOUND('',#1059,.T.);
#1180=FACE_BOUND('',#1060,.T.);
#1181=FACE_BOUND('',#1061,.T.);
#1182=FACE_BOUND('',#1062,.T.);
#1183=FACE_BOUND('',#1063,.T.);
#1184=FACE_BOUND('',#1064,.T.);
#1185=FACE_BOUND('',#1065,.T.);
#1186=FACE_BOUND('',#1066,.T.);
#1187=FACE_BOUND('',#1067,.T.);
#1188=FACE_BOUND('',#1068,.T.);
#1189=FACE_BOUND('',#1069,.T.);
#1190=FACE_BOUND('',#1070,.T.);
#1191=FACE_BOUND('',#1071,.T.);
#1192=FACE_BOUND('',#1072,.T.);
#1193=FACE_BOUND('',#1073,.T.);
#1194=FACE_BOUND('',#1074,.T.);
#1195=FACE_BOUND('',#1075,.T.);
#1196=FACE_BOUND('',#1076,.T.);
#1197=FACE_BOUND('',#1077,.T.);
#1198=FACE_BOUND('',#1078,.T.);
#1199=FACE_BOUND('',#1079,.T.);
#1200=FACE_BOUND('',#1080,.T.);
#1201=FACE_BOUND('',#1081,.T.);
#1202=FACE_BOUND('',#1082,.T.);
#1203=FACE_BOUND('',#1083,.T.);
#1204=FACE_BOUND('',#1084,.T.);
#1205=FACE_BOUND('',#1085,.T.);
#1206=FACE_BOUND('',#1086,.T.);
#1207=FACE_BOUND('',#1087,.T.);
#1208=FACE_BOUND('',#1088,.T.);
#1209=FACE_BOUND('',#1089,.T.);
#1210=FACE_BOUND('',#1090,.T.);
#1211=FACE_BOUND('',#1091,.T.);
#1212=FACE_BOUND('',#1092,.T.);
#1213=FACE_BOUND('',#1093,.T.);
#1214=FACE_BOUND('',#1094,.T.);
#1215=FACE_BOUND('',#1095,.T.);
#1216=FACE_BOUND('',#1096,.T.);
#1217=FACE_BOUND('',#1097,.T.);
#1218=FACE_BOUND('',#1098,.T.);
#1219=FACE_BOUND('',#1099,.T.);
#1220=CYLINDRICAL_SURFACE('',#1331,0.0016);
#1221=CYLINDRICAL_SURFACE('',#1334,0.0016);
#1222=CYLINDRICAL_SURFACE('',#1337,0.0016);
#1223=CYLINDRICAL_SURFACE('',#1340,0.0016);
#1224=CYLINDRICAL_SURFACE('',#1358,0.005);
#1225=CYLINDRICAL_SURFACE('',#1367,0.0016);
#1226=CYLINDRICAL_SURFACE('',#1376,0.0016);
#1227=CYLINDRICAL_SURFACE('',#1385,0.0016);
#1228=CYLINDRICAL_SURFACE('',#1394,0.0016);
#1229=CYLINDRICAL_SURFACE('',#1395,0.0016);
#1230=CYLINDRICAL_SURFACE('',#1397,0.0016);
#1231=CYLINDRICAL_SURFACE('',#1399,0.0016);
#1232=CYLINDRICAL_SURFACE('',#1401,0.0016);
#1233=CYLINDRICAL_SURFACE('',#1429,0.0016);
#1234=CYLINDRICAL_SURFACE('',#1432,0.0016);
#1235=CYLINDRICAL_SURFACE('',#1435,0.0016);
#1236=CYLINDRICAL_SURFACE('',#1438,0.0016);
#1237=CYLINDRICAL_SURFACE('',#1450,0.002);
#1238=CYLINDRICAL_SURFACE('',#1451,0.002);
#1239=CYLINDRICAL_SURFACE('',#1452,0.002);
#1240=CYLINDRICAL_SURFACE('',#1453,0.002);
#1241=ADVANCED_FACE('',(#1100,#1101),#1220,.F.);
#1242=ADVANCED_FACE('',(#1102,#1103),#1221,.F.);
#1243=ADVANCED_FACE('',(#1104,#1105),#1222,.F.);
#1244=ADVANCED_FACE('',(#1106,#1107),#1223,.F.);
#1245=ADVANCED_FACE('',(#1108,#1109),#260,.T.);
#1246=ADVANCED_FACE('',(#1110),#261,.T.);
#1247=ADVANCED_FACE('',(#1111,#1112),#262,.F.);
#1248=ADVANCED_FACE('',(#1113),#263,.F.);
#1249=ADVANCED_FACE('',(#1114,#1115,#1116,#1117,#1118),#264,.T.);
#1250=ADVANCED_FACE('',(#1119,#1120),#1224,.F.);
#1251=ADVANCED_FACE('',(#1121),#265,.T.);
#1252=ADVANCED_FACE('',(#1122),#266,.F.);
#1253=ADVANCED_FACE('',(#1123),#267,.F.);
#1254=ADVANCED_FACE('',(#1124,#1125),#268,.F.);
#1255=ADVANCED_FACE('',(#1126,#1127),#269,.T.);
#1256=ADVANCED_FACE('',(#1128),#270,.F.);
#1257=ADVANCED_FACE('',(#1129,#1130),#1225,.F.);
#1258=ADVANCED_FACE('',(#1131),#271,.T.);
#1259=ADVANCED_FACE('',(#1132),#272,.F.);
#1260=ADVANCED_FACE('',(#1133),#273,.F.);
#1261=ADVANCED_FACE('',(#1134,#1135),#274,.F.);
#1262=ADVANCED_FACE('',(#1136,#1137),#275,.T.);
#1263=ADVANCED_FACE('',(#1138),#276,.F.);
#1264=ADVANCED_FACE('',(#1139,#1140),#1226,.F.);
#1265=ADVANCED_FACE('',(#1141),#277,.T.);
#1266=ADVANCED_FACE('',(#1142),#278,.F.);
#1267=ADVANCED_FACE('',(#1143),#279,.T.);
#1268=ADVANCED_FACE('',(#1144,#1145),#280,.F.);
#1269=ADVANCED_FACE('',(#1146,#1147),#281,.T.);
#1270=ADVANCED_FACE('',(#1148),#282,.F.);
#1271=ADVANCED_FACE('',(#1149,#1150),#1227,.F.);
#1272=ADVANCED_FACE('',(#1151),#283,.F.);
#1273=ADVANCED_FACE('',(#1152),#284,.T.);
#1274=ADVANCED_FACE('',(#1153),#285,.T.);
#1275=ADVANCED_FACE('',(#1154,#1155),#286,.F.);
#1276=ADVANCED_FACE('',(#1156,#1157),#287,.T.);
#1277=ADVANCED_FACE('',(#1158),#288,.F.);
#1278=ADVANCED_FACE('',(#1159,#1160),#1228,.F.);
#1279=ADVANCED_FACE('',(#1161,#1162),#1229,.F.);
#1280=ADVANCED_FACE('',(#1163,#1164),#1230,.F.);
#1281=ADVANCED_FACE('',(#1165,#1166),#1231,.F.);
#1282=ADVANCED_FACE('',(#1167,#1168),#1232,.F.);
#1283=ADVANCED_FACE('',(#1169),#289,.T.);
#1284=ADVANCED_FACE('',(#1170),#290,.F.);
#1285=ADVANCED_FACE('',(#1171),#291,.T.);
#1286=ADVANCED_FACE('',(#1172,#1173),#292,.F.);
#1287=ADVANCED_FACE('',(#1174,#1175),#293,.T.);
#1288=ADVANCED_FACE('',(#1176),#294,.T.);
#1289=ADVANCED_FACE('',(#1177),#295,.F.);
#1290=ADVANCED_FACE('',(#1178),#296,.F.);
#1291=ADVANCED_FACE('',(#1179,#1180),#297,.F.);
#1292=ADVANCED_FACE('',(#1181,#1182),#298,.T.);
#1293=ADVANCED_FACE('',(#1183),#299,.T.);
#1294=ADVANCED_FACE('',(#1184),#300,.F.);
#1295=ADVANCED_FACE('',(#1185),#301,.F.);
#1296=ADVANCED_FACE('',(#1186,#1187),#302,.F.);
#1297=ADVANCED_FACE('',(#1188,#1189),#303,.T.);
#1298=ADVANCED_FACE('',(#1190),#304,.F.);
#1299=ADVANCED_FACE('',(#1191),#305,.T.);
#1300=ADVANCED_FACE('',(#1192),#306,.T.);
#1301=ADVANCED_FACE('',(#1193,#1194),#307,.F.);
#1302=ADVANCED_FACE('',(#1195,#1196),#308,.T.);
#1303=ADVANCED_FACE('',(#1197),#309,.T.);
#1304=ADVANCED_FACE('',(#1198,#1199),#1233,.F.);
#1305=ADVANCED_FACE('',(#1200),#310,.T.);
#1306=ADVANCED_FACE('',(#1201,#1202),#1234,.F.);
#1307=ADVANCED_FACE('',(#1203),#311,.T.);
#1308=ADVANCED_FACE('',(#1204,#1205),#1235,.F.);
#1309=ADVANCED_FACE('',(#1206),#312,.T.);
#1310=ADVANCED_FACE('',(#1207,#1208),#1236,.F.);
#1311=ADVANCED_FACE('',(#1209,#1210,#1211,#1212,#1213),#313,.F.);
#1312=ADVANCED_FACE('',(#1214),#314,.T.);
#1313=ADVANCED_FACE('',(#1215),#315,.F.);
#1314=ADVANCED_FACE('',(#1216),#1237,.T.);
#1315=ADVANCED_FACE('',(#1217),#1238,.T.);
#1316=ADVANCED_FACE('',(#1218),#1239,.T.);
#1317=ADVANCED_FACE('',(#1219),#1240,.T.);
#1318=CLOSED_SHELL('',(#1241,#1242,#1243,#1244,#1245,#1246,#1247,#1248,
#1249,#1250,#1251,#1252,#1253,#1254,#1255,#1256,#1257,#1258,#1259,#1260,
#1261,#1262,#1263,#1264,#1265,#1266,#1267,#1268,#1269,#1270,#1271,#1272,
#1273,#1274,#1275,#1276,#1277,#1278,#1279,#1280,#1281,#1282,#1283,#1284,
#1285,#1286,#1287,#1288,#1289,#1290,#1291,#1292,#1293,#1294,#1295,#1296,
#1297,#1298,#1299,#1300,#1301,#1302,#1303,#1304,#1305,#1306,#1307,#1308,
#1309,#1310,#1311,#1312,#1313,#1314,#1315,#1316,#1317));
#1319=STYLED_ITEM('',(#1320),#1327);
#1320=PRESENTATION_STYLE_ASSIGNMENT((#1321));
#1321=SURFACE_STYLE_USAGE(.BOTH.,#1322);
#1322=SURFACE_SIDE_STYLE('',(#1323));
#1323=SURFACE_STYLE_FILL_AREA(#1324);
#1324=FILL_AREA_STYLE('',(#1325));
#1325=FILL_AREA_STYLE_COLOUR('',#1326);
#1326=COLOUR_RGB('',0.647058823529412,0.647058823529412,0.647058823529412);
#1327=MANIFOLD_SOLID_BREP('Part 1',#1318);
#1328=SHAPE_DEFINITION_REPRESENTATION(#2194,#1329);
#1329=SHAPE_REPRESENTATION('Part 1',(#1330),#2189);
#1330=AXIS2_PLACEMENT_3D('',#1824,#1454,#1455);
#1331=AXIS2_PLACEMENT_3D('',#1825,#1456,#1457);
#1332=AXIS2_PLACEMENT_3D('',#1826,#1458,#1459);
#1333=AXIS2_PLACEMENT_3D('',#1828,#1460,#1461);
#1334=AXIS2_PLACEMENT_3D('',#1830,#1462,#1463);
#1335=AXIS2_PLACEMENT_3D('',#1831,#1464,#1465);
#1336=AXIS2_PLACEMENT_3D('',#1833,#1466,#1467);
#1337=AXIS2_PLACEMENT_3D('',#1835,#1468,#1469);
#1338=AXIS2_PLACEMENT_3D('',#1836,#1470,#1471);
#1339=AXIS2_PLACEMENT_3D('',#1838,#1472,#1473);
#1340=AXIS2_PLACEMENT_3D('',#1840,#1474,#1475);
#1341=AXIS2_PLACEMENT_3D('',#1841,#1476,#1477);
#1342=AXIS2_PLACEMENT_3D('',#1843,#1478,#1479);
#1343=AXIS2_PLACEMENT_3D('',#1845,#1480,#1481);
#1344=AXIS2_PLACEMENT_3D('',#1886,#1502,#1503);
#1345=AXIS2_PLACEMENT_3D('',#1888,#1504,#1505);
#1346=AXIS2_PLACEMENT_3D('',#1897,#1510,#1511);
#1347=AXIS2_PLACEMENT_3D('',#1938,#1532,#1533);
#1348=AXIS2_PLACEMENT_3D('',#1940,#1534,#1535);
#1349=AXIS2_PLACEMENT_3D('',#1949,#1540,#1541);
#1350=AXIS2_PLACEMENT_3D('',#1950,#1542,#1543);
#1351=AXIS2_PLACEMENT_3D('',#1952,#1544,#1545);
#1352=AXIS2_PLACEMENT_3D('',#1954,#1546,#1547);
#1353=AXIS2_PLACEMENT_3D('',#1956,#1548,#1549);
#1354=AXIS2_PLACEMENT_3D('',#1958,#1550,#1551);
#1355=AXIS2_PLACEMENT_3D('',#1962,#1553,#1554);
#1356=AXIS2_PLACEMENT_3D('',#1963,#1555,#1556);
#1357=AXIS2_PLACEMENT_3D('',#1967,#1558,#1559);
#1358=AXIS2_PLACEMENT_3D('',#1968,#1560,#1561);
#1359=AXIS2_PLACEMENT_3D('',#1969,#1562,#1563);
#1360=AXIS2_PLACEMENT_3D('',#1975,#1567,#1568);
#1361=AXIS2_PLACEMENT_3D('',#1982,#1573,#1574);
#1362=AXIS2_PLACEMENT_3D('',#1985,#1577,#1578);
#1363=AXIS2_PLACEMENT_3D('',#1986,#1579,#1580);
#1364=AXIS2_PLACEMENT_3D('',#1988,#1581,#1582);
#1365=AXIS2_PLACEMENT_3D('',#1989,#1583,#1584);
#1366=AXIS2_PLACEMENT_3D('',#1990,#1585,#1586);
#1367=AXIS2_PLACEMENT_3D('',#1992,#1587,#1588);
#1368=AXIS2_PLACEMENT_3D('',#1993,#1589,#1590);
#1369=AXIS2_PLACEMENT_3D('',#2000,#1595,#1596);
#1370=AXIS2_PLACEMENT_3D('',#2006,#1600,#1601);
#1371=AXIS2_PLACEMENT_3D('',#2009,#1604,#1605);
#1372=AXIS2_PLACEMENT_3D('',#2010,#1606,#1607);
#1373=AXIS2_PLACEMENT_3D('',#2012,#1608,#1609);
#1374=AXIS2_PLACEMENT_3D('',#2013,#1610,#1611);
#1375=AXIS2_PLACEMENT_3D('',#2014,#1612,#1613);
#1376=AXIS2_PLACEMENT_3D('',#2016,#1614,#1615);
#1377=AXIS2_PLACEMENT_3D('',#2017,#1616,#1617);
#1378=AXIS2_PLACEMENT_3D('',#2023,#1621,#1622);
#1379=AXIS2_PLACEMENT_3D('',#2030,#1627,#1628);
#1380=AXIS2_PLACEMENT_3D('',#2033,#1631,#1632);
#1381=AXIS2_PLACEMENT_3D('',#2034,#1633,#1634);
#1382=AXIS2_PLACEMENT_3D('',#2036,#1635,#1636);
#1383=AXIS2_PLACEMENT_3D('',#2037,#1637,#1638);
#1384=AXIS2_PLACEMENT_3D('',#2038,#1639,#1640);
#1385=AXIS2_PLACEMENT_3D('',#2040,#1641,#1642);
#1386=AXIS2_PLACEMENT_3D('',#2041,#1643,#1644);
#1387=AXIS2_PLACEMENT_3D('',#2047,#1648,#1649);
#1388=AXIS2_PLACEMENT_3D('',#2053,#1653,#1654);
#1389=AXIS2_PLACEMENT_3D('',#2057,#1658,#1659);
#1390=AXIS2_PLACEMENT_3D('',#2058,#1660,#1661);
#1391=AXIS2_PLACEMENT_3D('',#2060,#1662,#1663);
#1392=AXIS2_PLACEMENT_3D('',#2061,#1664,#1665);
#1393=AXIS2_PLACEMENT_3D('',#2062,#1666,#1667);
#1394=AXIS2_PLACEMENT_3D('',#2064,#1668,#1669);
#1395=AXIS2_PLACEMENT_3D('',#2065,#1670,#1671);
#1396=AXIS2_PLACEMENT_3D('',#2066,#1672,#1673);
#1397=AXIS2_PLACEMENT_3D('',#2068,#1674,#1675);
#1398=AXIS2_PLACEMENT_3D('',#2069,#1676,#1677);
#1399=AXIS2_PLACEMENT_3D('',#2071,#1678,#1679);
#1400=AXIS2_PLACEMENT_3D('',#2072,#1680,#1681);
#1401=AXIS2_PLACEMENT_3D('',#2074,#1682,#1683);
#1402=AXIS2_PLACEMENT_3D('',#2075,#1684,#1685);
#1403=AXIS2_PLACEMENT_3D('',#2077,#1686,#1687);
#1404=AXIS2_PLACEMENT_3D('',#2084,#1692,#1693);
#1405=AXIS2_PLACEMENT_3D('',#2090,#1697,#1698);
#1406=AXIS2_PLACEMENT_3D('',#2093,#1701,#1702);
#1407=AXIS2_PLACEMENT_3D('',#2094,#1703,#1704);
#1408=AXIS2_PLACEMENT_3D('',#2095,#1705,#1706);
#1409=AXIS2_PLACEMENT_3D('',#2097,#1707,#1708);
#1410=AXIS2_PLACEMENT_3D('',#2104,#1713,#1714);
#1411=AXIS2_PLACEMENT_3D('',#2110,#1718,#1719);
#1412=AXIS2_PLACEMENT_3D('',#2113,#1722,#1723);
#1413=AXIS2_PLACEMENT_3D('',#2114,#1724,#1725);
#1414=AXIS2_PLACEMENT_3D('',#2115,#1726,#1727);
#1415=AXIS2_PLACEMENT_3D('',#2117,#1728,#1729);
#1416=AXIS2_PLACEMENT_3D('',#2123,#1733,#1734);
#1417=AXIS2_PLACEMENT_3D('',#2130,#1739,#1740);
#1418=AXIS2_PLACEMENT_3D('',#2133,#1743,#1744);
#1419=AXIS2_PLACEMENT_3D('',#2134,#1745,#1746);
#1420=AXIS2_PLACEMENT_3D('',#2135,#1747,#1748);
#1421=AXIS2_PLACEMENT_3D('',#2137,#1749,#1750);
#1422=AXIS2_PLACEMENT_3D('',#2144,#1755,#1756);
#1423=AXIS2_PLACEMENT_3D('',#2150,#1760,#1761);
#1424=AXIS2_PLACEMENT_3D('',#2153,#1764,#1765);
#1425=AXIS2_PLACEMENT_3D('',#2154,#1766,#1767);
#1426=AXIS2_PLACEMENT_3D('',#2155,#1768,#1769);
#1427=AXIS2_PLACEMENT_3D('',#2157,#1770,#1771);
#1428=AXIS2_PLACEMENT_3D('',#2158,#1772,#1773);
#1429=AXIS2_PLACEMENT_3D('',#2160,#1774,#1775);
#1430=AXIS2_PLACEMENT_3D('',#2161,#1776,#1777);
#1431=AXIS2_PLACEMENT_3D('',#2162,#1778,#1779);
#1432=AXIS2_PLACEMENT_3D('',#2164,#1780,#1781);
#1433=AXIS2_PLACEMENT_3D('',#2165,#1782,#1783);
#1434=AXIS2_PLACEMENT_3D('',#2166,#1784,#1785);
#1435=AXIS2_PLACEMENT_3D('',#2168,#1786,#1787);
#1436=AXIS2_PLACEMENT_3D('',#2169,#1788,#1789);
#1437=AXIS2_PLACEMENT_3D('',#2170,#1790,#1791);
#1438=AXIS2_PLACEMENT_3D('',#2172,#1792,#1793);
#1439=AXIS2_PLACEMENT_3D('',#2173,#1794,#1795);
#1440=AXIS2_PLACEMENT_3D('',#2174,#1796,#1797);
#1441=AXIS2_PLACEMENT_3D('',#2175,#1798,#1799);
#1442=AXIS2_PLACEMENT_3D('',#2176,#1800,#1801);
#1443=AXIS2_PLACEMENT_3D('',#2177,#1802,#1803);
#1444=AXIS2_PLACEMENT_3D('',#2178,#1804,#1805);
#1445=AXIS2_PLACEMENT_3D('',#2179,#1806,#1807);
#1446=AXIS2_PLACEMENT_3D('',#2180,#1808,#1809);
#1447=AXIS2_PLACEMENT_3D('',#2181,#1810,#1811);
#1448=AXIS2_PLACEMENT_3D('',#2182,#1812,#1813);
#1449=AXIS2_PLACEMENT_3D('',#2183,#1814,#1815);
#1450=AXIS2_PLACEMENT_3D('',#2184,#1816,#1817);
#1451=AXIS2_PLACEMENT_3D('',#2185,#1818,#1819);
#1452=AXIS2_PLACEMENT_3D('',#2186,#1820,#1821);
#1453=AXIS2_PLACEMENT_3D('',#2187,#1822,#1823);
#1454=DIRECTION('',(0.,0.,1.));
#1455=DIRECTION('',(1.,0.,0.));
#1456=DIRECTION('',(0.,0.,-1.));
#1457=DIRECTION('',(-1.,0.,0.));
#1458=DIRECTION('',(0.,0.,1.));
#1459=DIRECTION('',(1.,0.,0.));
#1460=DIRECTION('',(0.,0.,1.));
#1461=DIRECTION('',(1.,0.,0.));
#1462=DIRECTION('',(0.,0.,-1.));
#1463=DIRECTION('',(-1.,0.,0.));
#1464=DIRECTION('',(0.,0.,1.));
#1465=DIRECTION('',(1.,0.,0.));
#1466=DIRECTION('',(0.,0.,1.));
#1467=DIRECTION('',(1.,0.,0.));
#1468=DIRECTION('',(0.,0.,-1.));
#1469=DIRECTION('',(-1.,0.,0.));
#1470=DIRECTION('',(0.,0.,1.));
#1471=DIRECTION('',(1.,0.,0.));
#1472=DIRECTION('',(0.,0.,1.));
#1473=DIRECTION('',(1.,0.,0.));
#1474=DIRECTION('',(0.,0.,-1.));
#1475=DIRECTION('',(-1.,0.,0.));
#1476=DIRECTION('',(0.,0.,1.));
#1477=DIRECTION('',(1.,0.,0.));
#1478=DIRECTION('',(0.,0.,1.));
#1479=DIRECTION('',(1.,0.,0.));
#1480=DIRECTION('',(0.,-1.,0.));
#1481=DIRECTION('',(0.,0.,-1.));
#1482=DIRECTION('',(-1.,0.,0.));
#1483=DIRECTION('',(0.,0.,-1.));
#1484=DIRECTION('',(-1.,-2.9909025447876E-16,0.));
#1485=DIRECTION('',(0.,0.,-1.));
#1486=DIRECTION('',(-1.,-2.9909025447876E-16,0.));
#1487=DIRECTION('',(0.,0.,-1.));
#1488=DIRECTION('',(-1.,-2.9909025447876E-16,0.));
#1489=DIRECTION('',(0.,0.,-1.));
#1490=DIRECTION('',(-1.,-2.9909025447876E-16,0.));
#1491=DIRECTION('',(0.,0.,-1.));
#1492=DIRECTION('',(-1.,0.,0.));
#1493=DIRECTION('',(0.,0.,-1.));
#1494=DIRECTION('',(-1.,-2.9909025447876E-16,0.));
#1495=DIRECTION('',(0.,0.,-1.));
#1496=DIRECTION('',(-1.,-2.9909025447876E-16,0.));
#1497=DIRECTION('',(0.,0.,-1.));
#1498=DIRECTION('',(-1.,-2.9909025447876E-16,0.));
#1499=DIRECTION('',(0.,0.,-1.));
#1500=DIRECTION('',(-1.,-2.9909025447876E-16,0.));
#1501=DIRECTION('',(0.,0.,-1.));
#1502=DIRECTION('',(0.,-1.,0.));
#1503=DIRECTION('',(1.,0.,0.));
#1504=DIRECTION('',(1.,5.25673780599033E-16,0.));
#1505=DIRECTION('',(-5.25673780599033E-16,1.,0.));
#1506=DIRECTION('',(5.25673780599033E-16,-1.,0.));
#1507=DIRECTION('',(0.,0.,-1.));
#1508=DIRECTION('',(5.25673780599033E-16,-1.,0.));
#1509=DIRECTION('',(0.,0.,-1.));
#1510=DIRECTION('',(0.,-1.,0.));
#1511=DIRECTION('',(0.,0.,-1.));
#1512=DIRECTION('',(-1.,0.,0.));
#1513=DIRECTION('',(0.,0.,-1.));
#1514=DIRECTION('',(-1.,-2.9909025447876E-16,0.));
#1515=DIRECTION('',(0.,0.,-1.));
#1516=DIRECTION('',(-1.,-2.9909025447876E-16,0.));
#1517=DIRECTION('',(0.,0.,-1.));
#1518=DIRECTION('',(-1.,-2.9909025447876E-16,0.));
#1519=DIRECTION('',(0.,0.,-1.));
#1520=DIRECTION('',(-1.,-2.9909025447876E-16,0.));
#1521=DIRECTION('',(0.,0.,-1.));
#1522=DIRECTION('',(-1.,0.,0.));
#1523=DIRECTION('',(0.,0.,-1.));
#1524=DIRECTION('',(-1.,0.,0.));
#1525=DIRECTION('',(0.,0.,-1.));
#1526=DIRECTION('',(-1.,0.,0.));
#1527=DIRECTION('',(0.,0.,-1.));
#1528=DIRECTION('',(-1.,0.,0.));
#1529=DIRECTION('',(0.,0.,-1.));
#1530=DIRECTION('',(-1.,0.,0.));
#1531=DIRECTION('',(0.,0.,-1.));
#1532=DIRECTION('',(0.,-1.,0.));
#1533=DIRECTION('',(0.,0.,-1.));
#1534=DIRECTION('',(1.,5.25673780599033E-16,0.));
#1535=DIRECTION('',(-5.25673780599033E-16,1.,0.));
#1536=DIRECTION('',(-5.25673780599033E-16,1.,0.));
#1537=DIRECTION('',(0.,0.,-1.));
#1538=DIRECTION('',(5.25673780599033E-16,-1.,0.));
#1539=DIRECTION('',(0.,0.,-1.));
#1540=DIRECTION('',(0.,0.,1.));
#1541=DIRECTION('',(1.,0.,0.));
#1542=DIRECTION('',(0.,0.,1.));
#1543=DIRECTION('',(1.,0.,0.));
#1544=DIRECTION('',(0.,0.,1.));
#1545=DIRECTION('',(1.,0.,0.));
#1546=DIRECTION('',(0.,0.,1.));
#1547=DIRECTION('',(1.,0.,0.));
#1548=DIRECTION('',(0.,0.,1.));
#1549=DIRECTION('',(1.,0.,0.));
#1550=DIRECTION('',(0.,0.,1.));
#1551=DIRECTION('',(1.,0.,0.));
#1552=DIRECTION('',(5.25673780599033E-16,-1.,0.));
#1553=DIRECTION('',(0.,0.,1.));
#1554=DIRECTION('',(1.,0.,0.));
#1555=DIRECTION('',(0.,0.,1.));
#1556=DIRECTION('',(1.,0.,0.));
#1557=DIRECTION('',(-5.25673780599033E-16,1.,0.));
#1558=DIRECTION('',(0.,0.,1.));
#1559=DIRECTION('',(1.,0.,0.));
#1560=DIRECTION('',(0.,-1.,0.));
#1561=DIRECTION('',(0.,0.,-1.));
#1562=DIRECTION('',(-1.,-2.2431769085907E-16,0.));
#1563=DIRECTION('',(2.2431769085907E-16,-1.,0.));
#1564=DIRECTION('',(-2.2431769085907E-16,1.,0.));
#1565=DIRECTION('',(0.,0.,-1.));
#1566=DIRECTION('',(-2.2431769085907E-16,1.,0.));
#1567=DIRECTION('',(-1.,0.,0.));
#1568=DIRECTION('',(0.,0.,1.));
#1569=DIRECTION('',(0.,1.,0.));
#1570=DIRECTION('',(0.,0.,-1.));
#1571=DIRECTION('',(0.,1.,0.));
#1572=DIRECTION('',(0.,0.,-1.));
#1573=DIRECTION('',(1.4954512723938E-16,-1.,0.));
#1574=DIRECTION('',(1.,1.4954512723938E-16,0.));
#1575=DIRECTION('',(-1.,-1.4954512723938E-16,0.));
#1576=DIRECTION('',(-1.,-1.4954512723938E-16,0.));
#1577=DIRECTION('',(0.,0.,1.));
#1578=DIRECTION('',(1.,0.,0.));
#1579=DIRECTION('',(0.,0.,1.));
#1580=DIRECTION('',(1.,0.,0.));
#1581=DIRECTION('',(0.,0.,1.));
#1582=DIRECTION('',(1.,0.,0.));
#1583=DIRECTION('',(0.,0.,1.));
#1584=DIRECTION('',(1.,0.,0.));
#1585=DIRECTION('',(0.,0.,1.));
#1586=DIRECTION('',(1.,0.,0.));
#1587=DIRECTION('',(0.,0.,-1.));
#1588=DIRECTION('',(-1.,0.,0.));
#1589=DIRECTION('',(-1.,0.,0.));
#1590=DIRECTION('',(0.,0.,1.));
#1591=DIRECTION('',(0.,1.,0.));
#1592=DIRECTION('',(0.,0.,-1.));
#1593=DIRECTION('',(0.,1.,0.));
#1594=DIRECTION('',(0.,0.,-1.));
#1595=DIRECTION('',(-1.,-1.4954512723938E-16,0.));
#1596=DIRECTION('',(1.4954512723938E-16,-1.,0.));
#1597=DIRECTION('',(-1.4954512723938E-16,1.,0.));
#1598=DIRECTION('',(-1.4954512723938E-16,1.,0.));
#1599=DIRECTION('',(0.,0.,-1.));
#1600=DIRECTION('',(1.4954512723938E-16,-1.,0.));
#1601=DIRECTION('',(1.,1.4954512723938E-16,0.));
#1602=DIRECTION('',(-1.,-1.4954512723938E-16,0.));
#1603=DIRECTION('',(-1.,-1.4954512723938E-16,0.));
#1604=DIRECTION('',(0.,0.,1.));
#1605=DIRECTION('',(1.,0.,0.));
#1606=DIRECTION('',(0.,0.,1.));
#1607=DIRECTION('',(1.,0.,0.));
#1608=DIRECTION('',(0.,0.,1.));
#1609=DIRECTION('',(1.,0.,0.));
#1610=DIRECTION('',(0.,0.,1.));
#1611=DIRECTION('',(1.,0.,0.));
#1612=DIRECTION('',(0.,0.,1.));
#1613=DIRECTION('',(1.,0.,0.));
#1614=DIRECTION('',(0.,0.,-1.));
#1615=DIRECTION('',(-1.,0.,0.));
#1616=DIRECTION('',(1.,2.9909025447876E-16,0.));
#1617=DIRECTION('',(-2.9909025447876E-16,1.,0.));
#1618=DIRECTION('',(2.9909025447876E-16,-1.,0.));
#1619=DIRECTION('',(0.,0.,-1.));
#1620=DIRECTION('',(2.9909025447876E-16,-1.,0.));
#1621=DIRECTION('',(1.,2.9909025447876E-16,0.));
#1622=DIRECTION('',(-2.9909025447876E-16,1.,0.));
#1623=DIRECTION('',(2.9909025447876E-16,-1.,0.));
#1624=DIRECTION('',(0.,0.,-1.));
#1625=DIRECTION('',(2.9909025447876E-16,-1.,0.));
#1626=DIRECTION('',(0.,0.,-1.));
#1627=DIRECTION('',(1.4954512723938E-16,-1.,0.));
#1628=DIRECTION('',(1.,1.4954512723938E-16,0.));
#1629=DIRECTION('',(-1.,-1.4954512723938E-16,0.));
#1630=DIRECTION('',(-1.,-1.4954512723938E-16,0.));
#1631=DIRECTION('',(0.,0.,1.));
#1632=DIRECTION('',(1.,0.,0.));
#1633=DIRECTION('',(0.,0.,1.));
#1634=DIRECTION('',(1.,0.,0.));
#1635=DIRECTION('',(0.,0.,1.));
#1636=DIRECTION('',(1.,0.,0.));
#1637=DIRECTION('',(0.,0.,1.));
#1638=DIRECTION('',(1.,0.,0.));
#1639=DIRECTION('',(0.,0.,1.));
#1640=DIRECTION('',(1.,0.,0.));
#1641=DIRECTION('',(0.,0.,-1.));
#1642=DIRECTION('',(-1.,0.,0.));
#1643=DIRECTION('',(1.,2.9909025447876E-16,0.));
#1644=DIRECTION('',(-2.9909025447876E-16,1.,0.));
#1645=DIRECTION('',(2.9909025447876E-16,-1.,0.));
#1646=DIRECTION('',(2.9909025447876E-16,-1.,0.));
#1647=DIRECTION('',(0.,0.,-1.));
#1648=DIRECTION('',(1.4954512723938E-16,-1.,0.));
#1649=DIRECTION('',(1.,1.4954512723938E-16,0.));
#1650=DIRECTION('',(-1.,-1.4954512723938E-16,0.));
#1651=DIRECTION('',(-1.,-1.4954512723938E-16,0.));
#1652=DIRECTION('',(0.,0.,-1.));
#1653=DIRECTION('',(1.,2.9909025447876E-16,0.));
#1654=DIRECTION('',(-2.9909025447876E-16,1.,0.));
#1655=DIRECTION('',(2.9909025447876E-16,-1.,0.));
#1656=DIRECTION('',(2.9909025447876E-16,-1.,0.));
#1657=DIRECTION('',(0.,0.,-1.));
#1658=DIRECTION('',(0.,0.,1.));
#1659=DIRECTION('',(1.,0.,0.));
#1660=DIRECTION('',(0.,0.,1.));
#1661=DIRECTION('',(1.,0.,0.));
#1662=DIRECTION('',(0.,0.,1.));
#1663=DIRECTION('',(1.,0.,0.));
#1664=DIRECTION('',(0.,0.,1.));
#1665=DIRECTION('',(1.,0.,0.));
#1666=DIRECTION('',(0.,0.,1.));
#1667=DIRECTION('',(1.,0.,0.));
#1668=DIRECTION('',(0.,0.,-1.));
#1669=DIRECTION('',(-1.,0.,0.));
#1670=DIRECTION('',(0.,0.,-1.));
#1671=DIRECTION('',(-1.,0.,0.));
#1672=DIRECTION('',(0.,0.,1.));
#1673=DIRECTION('',(1.,0.,0.));
#1674=DIRECTION('',(0.,0.,-1.));
#1675=DIRECTION('',(-1.,0.,0.));
#1676=DIRECTION('',(0.,0.,1.));
#1677=DIRECTION('',(1.,0.,0.));
#1678=DIRECTION('',(0.,0.,-1.));
#1679=DIRECTION('',(-1.,0.,0.));
#1680=DIRECTION('',(0.,0.,1.));
#1681=DIRECTION('',(1.,0.,0.));
#1682=DIRECTION('',(0.,0.,-1.));
#1683=DIRECTION('',(-1.,0.,0.));
#1684=DIRECTION('',(0.,0.,1.));
#1685=DIRECTION('',(1.,0.,0.));
#1686=DIRECTION('',(1.,2.9909025447876E-16,0.));
#1687=DIRECTION('',(-2.9909025447876E-16,1.,0.));
#1688=DIRECTION('',(2.9909025447876E-16,-1.,0.));
#1689=DIRECTION('',(0.,0.,-1.));
#1690=DIRECTION('',(2.9909025447876E-16,-1.,0.));
#1691=DIRECTION('',(0.,0.,-1.));
#1692=DIRECTION('',(1.,2.9909025447876E-16,0.));
#1693=DIRECTION('',(-2.9909025447876E-16,1.,0.));
#1694=DIRECTION('',(2.9909025447876E-16,-1.,0.));
#1695=DIRECTION('',(2.9909025447876E-16,-1.,0.));
#1696=DIRECTION('',(0.,0.,-1.));
#1697=DIRECTION('',(1.4954512723938E-16,-1.,0.));
#1698=DIRECTION('',(1.,1.4954512723938E-16,0.));
#1699=DIRECTION('',(-1.,-1.4954512723938E-16,0.));
#1700=DIRECTION('',(-1.,-1.4954512723938E-16,0.));
#1701=DIRECTION('',(0.,0.,1.));
#1702=DIRECTION('',(1.,0.,0.));
#1703=DIRECTION('',(0.,0.,1.));
#1704=DIRECTION('',(1.,0.,0.));
#1705=DIRECTION('',(0.,0.,1.));
#1706=DIRECTION('',(1.,0.,0.));
#1707=DIRECTION('',(-1.,0.,0.));
#1708=DIRECTION('',(0.,0.,1.));
#1709=DIRECTION('',(0.,1.,0.));
#1710=DIRECTION('',(0.,0.,-1.));
#1711=DIRECTION('',(0.,1.,0.));
#1712=DIRECTION('',(0.,0.,-1.));
#1713=DIRECTION('',(-1.,-1.4954512723938E-16,0.));
#1714=DIRECTION('',(1.4954512723938E-16,-1.,0.));
#1715=DIRECTION('',(-1.4954512723938E-16,1.,0.));
#1716=DIRECTION('',(-1.4954512723938E-16,1.,0.));
#1717=DIRECTION('',(0.,0.,-1.));
#1718=DIRECTION('',(1.4954512723938E-16,-1.,0.));
#1719=DIRECTION('',(1.,1.4954512723938E-16,0.));
#1720=DIRECTION('',(-1.,-1.4954512723938E-16,0.));
#1721=DIRECTION('',(-1.,-1.4954512723938E-16,0.));
#1722=DIRECTION('',(0.,0.,1.));
#1723=DIRECTION('',(1.,0.,0.));
#1724=DIRECTION('',(0.,0.,1.));
#1725=DIRECTION('',(1.,0.,0.));
#1726=DIRECTION('',(0.,0.,1.));
#1727=DIRECTION('',(1.,0.,0.));
#1728=DIRECTION('',(-1.,-2.2431769085907E-16,0.));
#1729=DIRECTION('',(2.2431769085907E-16,-1.,0.));
#1730=DIRECTION('',(-2.2431769085907E-16,1.,0.));
#1731=DIRECTION('',(0.,0.,-1.));
#1732=DIRECTION('',(-2.2431769085907E-16,1.,0.));
#1733=DIRECTION('',(-1.,0.,0.));
#1734=DIRECTION('',(0.,0.,1.));
#1735=DIRECTION('',(0.,1.,0.));
#1736=DIRECTION('',(0.,0.,-1.));
#1737=DIRECTION('',(0.,1.,0.));
#1738=DIRECTION('',(0.,0.,-1.));
#1739=DIRECTION('',(1.4954512723938E-16,-1.,0.));
#1740=DIRECTION('',(1.,1.4954512723938E-16,0.));
#1741=DIRECTION('',(-1.,-1.4954512723938E-16,0.));
#1742=DIRECTION('',(-1.,-1.4954512723938E-16,0.));
#1743=DIRECTION('',(0.,0.,1.));
#1744=DIRECTION('',(1.,0.,0.));
#1745=DIRECTION('',(0.,0.,1.));
#1746=DIRECTION('',(1.,0.,0.));
#1747=DIRECTION('',(0.,0.,1.));
#1748=DIRECTION('',(1.,0.,0.));
#1749=DIRECTION('',(1.,2.9909025447876E-16,0.));
#1750=DIRECTION('',(-2.9909025447876E-16,1.,0.));
#1751=DIRECTION('',(2.9909025447876E-16,-1.,0.));
#1752=DIRECTION('',(0.,0.,-1.));
#1753=DIRECTION('',(2.9909025447876E-16,-1.,0.));
#1754=DIRECTION('',(0.,0.,-1.));
#1755=DIRECTION('',(1.4954512723938E-16,-1.,0.));
#1756=DIRECTION('',(1.,1.4954512723938E-16,0.));
#1757=DIRECTION('',(-1.,-1.4954512723938E-16,0.));
#1758=DIRECTION('',(-1.,-1.4954512723938E-16,0.));
#1759=DIRECTION('',(0.,0.,-1.));
#1760=DIRECTION('',(1.,2.9909025447876E-16,0.));
#1761=DIRECTION('',(-2.9909025447876E-16,1.,0.));
#1762=DIRECTION('',(2.9909025447876E-16,-1.,0.));
#1763=DIRECTION('',(2.9909025447876E-16,-1.,0.));
#1764=DIRECTION('',(0.,0.,1.));
#1765=DIRECTION('',(1.,0.,0.));
#1766=DIRECTION('',(0.,0.,1.));
#1767=DIRECTION('',(1.,0.,0.));
#1768=DIRECTION('',(0.,0.,1.));
#1769=DIRECTION('',(1.,0.,0.));
#1770=DIRECTION('',(0.,0.,1.));
#1771=DIRECTION('',(1.,0.,0.));
#1772=DIRECTION('',(0.,0.,1.));
#1773=DIRECTION('',(1.,0.,0.));
#1774=DIRECTION('',(0.,0.,-1.));
#1775=DIRECTION('',(-1.,0.,0.));
#1776=DIRECTION('',(0.,0.,1.));
#1777=DIRECTION('',(1.,0.,0.));
#1778=DIRECTION('',(0.,0.,1.));
#1779=DIRECTION('',(1.,0.,0.));
#1780=DIRECTION('',(0.,0.,-1.));
#1781=DIRECTION('',(-1.,0.,0.));
#1782=DIRECTION('',(0.,0.,1.));
#1783=DIRECTION('',(1.,0.,0.));
#1784=DIRECTION('',(0.,0.,1.));
#1785=DIRECTION('',(1.,0.,0.));
#1786=DIRECTION('',(0.,0.,-1.));
#1787=DIRECTION('',(-1.,0.,0.));
#1788=DIRECTION('',(0.,0.,1.));
#1789=DIRECTION('',(1.,0.,0.));
#1790=DIRECTION('',(0.,0.,1.));
#1791=DIRECTION('',(1.,0.,0.));
#1792=DIRECTION('',(0.,0.,-1.));
#1793=DIRECTION('',(-1.,0.,0.));
#1794=DIRECTION('',(0.,0.,1.));
#1795=DIRECTION('',(1.,0.,0.));
#1796=DIRECTION('',(0.,0.,1.));
#1797=DIRECTION('',(1.,0.,0.));
#1798=DIRECTION('',(0.,0.,1.));
#1799=DIRECTION('',(1.,0.,0.));
#1800=DIRECTION('',(0.,0.,1.));
#1801=DIRECTION('',(1.,0.,0.));
#1802=DIRECTION('',(0.,0.,1.));
#1803=DIRECTION('',(1.,0.,0.));
#1804=DIRECTION('',(-0.707106781186548,-3.71707494953545E-16,0.707106781186547));
#1805=DIRECTION('',(-5.25673780599033E-16,1.,0.));
#1806=DIRECTION('',(-0.707106781186548,-3.71707494953545E-16,0.707106781186547));
#1807=DIRECTION('',(-0.707106781186547,-3.71707494953545E-16,-0.707106781186548));
#1808=DIRECTION('',(-0.707106781186548,-3.71707494953545E-16,0.707106781186547));
#1809=DIRECTION('',(0.707106781186547,3.71707494953545E-16,0.707106781186548));
#1810=DIRECTION('',(-0.707106781186548,-3.71707494953545E-16,-0.707106781186547));
#1811=DIRECTION('',(5.25673780599033E-16,-1.,0.));
#1812=DIRECTION('',(-0.707106781186548,-3.71707494953545E-16,-0.707106781186547));
#1813=DIRECTION('',(-0.707106781186547,-3.71707494953545E-16,0.707106781186548));
#1814=DIRECTION('',(-0.707106781186548,-3.71707494953545E-16,-0.707106781186547));
#1815=DIRECTION('',(0.707106781186547,3.71707494953545E-16,-0.707106781186548));
#1816=DIRECTION('',(0.,0.,-1.));
#1817=DIRECTION('',(-1.,0.,0.));
#1818=DIRECTION('',(0.,0.,1.));
#1819=DIRECTION('',(1.,0.,0.));
#1820=DIRECTION('',(0.,0.,1.));
#1821=DIRECTION('',(1.,0.,0.));
#1822=DIRECTION('',(0.,0.,-1.));
#1823=DIRECTION('',(-1.,0.,0.));
#1824=CARTESIAN_POINT('',(0.,0.,0.));
#1825=CARTESIAN_POINT('',(-0.005,-0.00625,0.014));
#1826=CARTESIAN_POINT('',(-0.005,-0.00625,0.0062));
#1827=CARTESIAN_POINT('',(-0.0034,-0.00625,0.0062));
#1828=CARTESIAN_POINT('',(-0.005,-0.00625,-0.002));
#1829=CARTESIAN_POINT('',(-0.0034,-0.00625,-0.002));
#1830=CARTESIAN_POINT('',(0.005,-0.00625,0.014));
#1831=CARTESIAN_POINT('',(0.005,-0.00625,0.0062));
#1832=CARTESIAN_POINT('',(0.0066,-0.00625,0.0062));
#1833=CARTESIAN_POINT('',(0.005,-0.00625,-0.002));
#1834=CARTESIAN_POINT('',(0.0066,-0.00625,-0.002));
#1835=CARTESIAN_POINT('',(0.005,0.00625,0.014));
#1836=CARTESIAN_POINT('',(0.005,0.00625,0.0062));
#1837=CARTESIAN_POINT('',(0.0066,0.00625,0.0062));
#1838=CARTESIAN_POINT('',(0.005,0.00625,-0.002));
#1839=CARTESIAN_POINT('',(0.0066,0.00625,-0.002));
#1840=CARTESIAN_POINT('',(-0.005,0.00625,0.014));
#1841=CARTESIAN_POINT('',(-0.005,0.00625,0.0062));
#1842=CARTESIAN_POINT('',(-0.0034,0.00625,0.0062));
#1843=CARTESIAN_POINT('',(-0.005,0.00625,-0.002));
#1844=CARTESIAN_POINT('',(-0.0034,0.00625,-0.002));
#1845=CARTESIAN_POINT('',(1.7347234759768E-18,-0.0099,0.042));
#1846=CARTESIAN_POINT('',(1.7347234759768E-18,-0.0099,0.042));
#1847=CARTESIAN_POINT('',(0.0079,-0.0099,0.042));
#1848=CARTESIAN_POINT('',(-0.0079,-0.0099,0.042));
#1849=CARTESIAN_POINT('',(-0.0079,-0.0099,-0.002));
#1850=CARTESIAN_POINT('',(-0.0079,-0.0099,0.0338));
#1851=CARTESIAN_POINT('',(-0.005,-0.0099,0.0338));
#1852=CARTESIAN_POINT('',(-0.0021,-0.0099,0.0338));
#1853=CARTESIAN_POINT('',(-0.0021,-0.0099,0.0338));
#1854=CARTESIAN_POINT('',(-0.0021,-0.0099,0.0318));
#1855=CARTESIAN_POINT('',(-0.005,-0.0099,0.0318));
#1856=CARTESIAN_POINT('',(-0.0079,-0.0099,0.0318));
#1857=CARTESIAN_POINT('',(-0.0079,-0.0099,-0.002));
#1858=CARTESIAN_POINT('',(-0.0079,-0.0099,0.0082));
#1859=CARTESIAN_POINT('',(-0.005,-0.0099,0.0082));
#1860=CARTESIAN_POINT('',(-0.0021,-0.0099,0.0082));
#1861=CARTESIAN_POINT('',(-0.0021,-0.0099,0.0082));
#1862=CARTESIAN_POINT('',(-0.0021,-0.0099,0.0062));
#1863=CARTESIAN_POINT('',(-0.005,-0.0099,0.0062));
#1864=CARTESIAN_POINT('',(-0.0079,-0.0099,0.0062));
#1865=CARTESIAN_POINT('',(-0.0079,-0.0099,-0.002));
#1866=CARTESIAN_POINT('',(-0.0079,-0.0099,-0.002));
#1867=CARTESIAN_POINT('',(1.7347234759768E-18,-0.0099,-0.002));
#1868=CARTESIAN_POINT('',(0.0079,-0.0099,-0.002));
#1869=CARTESIAN_POINT('',(0.0079,-0.0099,0.042));
#1870=CARTESIAN_POINT('',(0.0079,-0.0099,0.0062));
#1871=CARTESIAN_POINT('',(0.005,-0.0099,0.0062));
#1872=CARTESIAN_POINT('',(0.0021,-0.0099,0.0062));
#1873=CARTESIAN_POINT('',(0.0021,-0.0099,0.0082));
#1874=CARTESIAN_POINT('',(0.0021,-0.0099,0.0082));
#1875=CARTESIAN_POINT('',(0.005,-0.0099,0.0082));
#1876=CARTESIAN_POINT('',(0.0079,-0.0099,0.0082));
#1877=CARTESIAN_POINT('',(0.0079,-0.0099,0.042));
#1878=CARTESIAN_POINT('',(0.0079,-0.0099,0.0318));
#1879=CARTESIAN_POINT('',(0.005,-0.0099,0.0318));
#1880=CARTESIAN_POINT('',(0.0021,-0.0099,0.0318));
#1881=CARTESIAN_POINT('',(0.0021,-0.0099,0.0338));
#1882=CARTESIAN_POINT('',(0.0021,-0.0099,0.0338));
#1883=CARTESIAN_POINT('',(0.005,-0.0099,0.0338));
#1884=CARTESIAN_POINT('',(0.0079,-0.0099,0.0338));
#1885=CARTESIAN_POINT('',(0.0079,-0.0099,0.042));
#1886=CARTESIAN_POINT('',(0.,-0.0099,0.02));
#1887=CARTESIAN_POINT('',(0.005,-0.0099,0.02));
#1888=CARTESIAN_POINT('',(0.0099,1.7347234759768E-18,0.042));
#1889=CARTESIAN_POINT('',(0.0099,1.7347234759768E-18,-0.002));
#1890=CARTESIAN_POINT('',(0.0099,0.0079,-0.002));
#1891=CARTESIAN_POINT('',(0.0099,-0.0079,-0.002));
#1892=CARTESIAN_POINT('',(0.0099,0.0079,0.041));
#1893=CARTESIAN_POINT('',(0.0099,0.0079,0.041));
#1894=CARTESIAN_POINT('',(0.0099,1.7347234759768E-18,0.041));
#1895=CARTESIAN_POINT('',(0.0099,-0.0079,0.041));
#1896=CARTESIAN_POINT('',(0.0099,-0.0079,0.042));
#1897=CARTESIAN_POINT('',(0.0089,0.0099,0.042));
#1898=CARTESIAN_POINT('',(0.0089,0.0099,-0.002));
#1899=CARTESIAN_POINT('',(0.0079,0.0099,-0.002));
#1900=CARTESIAN_POINT('',(-0.0079,0.0099,-0.002));
#1901=CARTESIAN_POINT('',(-0.0079,0.0099,0.042));
#1902=CARTESIAN_POINT('',(-0.0079,0.0099,0.0062));
#1903=CARTESIAN_POINT('',(-0.005,0.0099,0.0062));
#1904=CARTESIAN_POINT('',(-0.0021,0.0099,0.0062));
#1905=CARTESIAN_POINT('',(-0.0021,0.0099,0.0082));
#1906=CARTESIAN_POINT('',(-0.0021,0.0099,0.0082));
#1907=CARTESIAN_POINT('',(-0.005,0.0099,0.0082));
#1908=CARTESIAN_POINT('',(-0.0079,0.0099,0.0082));
#1909=CARTESIAN_POINT('',(-0.0079,0.0099,0.042));
#1910=CARTESIAN_POINT('',(-0.0079,0.0099,0.0318));
#1911=CARTESIAN_POINT('',(-0.005,0.0099,0.0318));
#1912=CARTESIAN_POINT('',(-0.0021,0.0099,0.0318));
#1913=CARTESIAN_POINT('',(-0.0021,0.0099,0.0338));
#1914=CARTESIAN_POINT('',(-0.0021,0.0099,0.0338));
#1915=CARTESIAN_POINT('',(-0.005,0.0099,0.0338));
#1916=CARTESIAN_POINT('',(-0.0079,0.0099,0.0338));
#1917=CARTESIAN_POINT('',(-0.0079,0.0099,0.042));
#1918=CARTESIAN_POINT('',(-0.0079,0.0099,0.042));
#1919=CARTESIAN_POINT('',(0.0089,0.0099,0.042));
#1920=CARTESIAN_POINT('',(0.0079,0.0099,0.042));
#1921=CARTESIAN_POINT('',(0.0079,0.0099,-0.002));
#1922=CARTESIAN_POINT('',(0.0079,0.0099,0.0338));
#1923=CARTESIAN_POINT('',(0.005,0.0099,0.0338));
#1924=CARTESIAN_POINT('',(0.0021,0.0099,0.0338));
#1925=CARTESIAN_POINT('',(0.0021,0.0099,0.0338));
#1926=CARTESIAN_POINT('',(0.0021,0.0099,0.0318));
#1927=CARTESIAN_POINT('',(0.005,0.0099,0.0318));
#1928=CARTESIAN_POINT('',(0.0079,0.0099,0.0318));
#1929=CARTESIAN_POINT('',(0.0079,0.0099,-0.002));
#1930=CARTESIAN_POINT('',(0.0079,0.0099,0.0082));
#1931=CARTESIAN_POINT('',(0.005,0.0099,0.0082));
#1932=CARTESIAN_POINT('',(0.0021,0.0099,0.0082));
#1933=CARTESIAN_POINT('',(0.0021,0.0099,0.0082));
#1934=CARTESIAN_POINT('',(0.0021,0.0099,0.0062));
#1935=CARTESIAN_POINT('',(0.005,0.0099,0.0062));
#1936=CARTESIAN_POINT('',(0.0079,0.0099,0.0062));
#1937=CARTESIAN_POINT('',(0.0079,0.0099,-0.002));
#1938=CARTESIAN_POINT('',(0.,0.0099,0.02));
#1939=CARTESIAN_POINT('',(0.,0.0099,0.015));
#1940=CARTESIAN_POINT('',(-0.0099,-1.7347234759768E-18,0.042));
#1941=CARTESIAN_POINT('',(-0.0099,0.0099,0.041));
#1942=CARTESIAN_POINT('',(-0.0099,-0.0079,0.041));
#1943=CARTESIAN_POINT('',(-0.0099,0.0079,0.041));
#1944=CARTESIAN_POINT('',(-0.0099,0.0079,0.042));
#1945=CARTESIAN_POINT('',(-0.0099,0.0079,-0.002));
#1946=CARTESIAN_POINT('',(-0.0099,-1.7347234759768E-18,-0.002));
#1947=CARTESIAN_POINT('',(-0.0099,-0.0079,-0.002));
#1948=CARTESIAN_POINT('',(-0.0099,-0.0079,0.041));
#1949=CARTESIAN_POINT('',(0.,0.,0.042));
#1950=CARTESIAN_POINT('',(-0.005,-0.00625,0.042));
#1951=CARTESIAN_POINT('',(-0.0034,-0.00625,0.042));
#1952=CARTESIAN_POINT('',(0.005,0.00625,0.042));
#1953=CARTESIAN_POINT('',(0.0066,0.00625,0.042));
#1954=CARTESIAN_POINT('',(-0.005,0.00625,0.042));
#1955=CARTESIAN_POINT('',(-0.0034,0.00625,0.042));
#1956=CARTESIAN_POINT('',(0.005,-0.00625,0.042));
#1957=CARTESIAN_POINT('',(0.0066,-0.00625,0.042));
#1958=CARTESIAN_POINT('',(-0.0079,0.0079,0.042));
#1959=CARTESIAN_POINT('',(-0.0089,0.00963205080756888,0.042));
#1960=CARTESIAN_POINT('',(-0.0089,-0.0099,0.042));
#1961=CARTESIAN_POINT('',(-0.0089,-0.00963205080756888,0.042));
#1962=CARTESIAN_POINT('',(-0.0079,-0.0079,0.042));
#1963=CARTESIAN_POINT('',(0.0079,-0.0079,0.042));
#1964=CARTESIAN_POINT('',(0.0089,-0.00963205080756888,0.042));
#1965=CARTESIAN_POINT('',(0.0089,4.67849664733139E-18,0.042));
#1966=CARTESIAN_POINT('',(0.0089,0.00963205080756888,0.042));
#1967=CARTESIAN_POINT('',(0.0079,0.0079,0.042));
#1968=CARTESIAN_POINT('',(0.,0.0151,0.02));
#1969=CARTESIAN_POINT('',(-0.0021,0.00625,0.0082));
#1970=CARTESIAN_POINT('',(-0.0021,0.00625,0.0062));
#1971=CARTESIAN_POINT('',(-0.0021,0.00335,0.0062));
#1972=CARTESIAN_POINT('',(-0.0021,0.00335,0.0082));
#1973=CARTESIAN_POINT('',(-0.0021,0.00335,0.0082));
#1974=CARTESIAN_POINT('',(-0.0021,0.00625,0.0082));
#1975=CARTESIAN_POINT('',(-0.0079,0.00625,0.0082));
#1976=CARTESIAN_POINT('',(-0.0079,0.00625,0.0062));
#1977=CARTESIAN_POINT('',(-0.0079,0.00335,0.0062));
#1978=CARTESIAN_POINT('',(-0.0079,0.0099,0.0082));
#1979=CARTESIAN_POINT('',(-0.0079,0.00625,0.0082));
#1980=CARTESIAN_POINT('',(-0.0079,0.00335,0.0082));
#1981=CARTESIAN_POINT('',(-0.0079,0.00335,0.0082));
#1982=CARTESIAN_POINT('',(-0.005,0.00335,0.0082));
#1983=CARTESIAN_POINT('',(-0.005,0.00335,0.0062));
#1984=CARTESIAN_POINT('',(-0.005,0.00335,0.0082));
#1985=CARTESIAN_POINT('',(0.,0.,0.0082));
#1986=CARTESIAN_POINT('',(-0.005,0.00625,0.0082));
#1987=CARTESIAN_POINT('',(-0.0034,0.00625,0.0082));
#1988=CARTESIAN_POINT('',(0.,0.,0.0062));
#1989=CARTESIAN_POINT('',(0.,0.,0.014));
#1990=CARTESIAN_POINT('',(-0.005,0.00625,0.014));
#1991=CARTESIAN_POINT('',(-0.0034,0.00625,0.014));
#1992=CARTESIAN_POINT('',(-0.005,0.00625,0.014));
#1993=CARTESIAN_POINT('',(0.0079,0.00625,0.0082));
#1994=CARTESIAN_POINT('',(0.0079,0.00625,0.0062));
#1995=CARTESIAN_POINT('',(0.0079,0.00335,0.0062));
#1996=CARTESIAN_POINT('',(0.0079,0.00335,0.0082));
#1997=CARTESIAN_POINT('',(0.0079,0.00335,0.0082));
#1998=CARTESIAN_POINT('',(0.0079,0.00625,0.0082));
#1999=CARTESIAN_POINT('',(0.0079,0.0099,0.0082));
#2000=CARTESIAN_POINT('',(0.0021,0.00625,0.0082));
#2001=CARTESIAN_POINT('',(0.0021,0.00625,0.0062));
#2002=CARTESIAN_POINT('',(0.0021,0.00335,0.0062));
#2003=CARTESIAN_POINT('',(0.0021,0.00625,0.0082));
#2004=CARTESIAN_POINT('',(0.0021,0.00335,0.0082));
#2005=CARTESIAN_POINT('',(0.0021,0.00335,0.0082));
#2006=CARTESIAN_POINT('',(0.005,0.00335,0.0082));
#2007=CARTESIAN_POINT('',(0.005,0.00335,0.0062));
#2008=CARTESIAN_POINT('',(0.005,0.00335,0.0082));
#2009=CARTESIAN_POINT('',(0.,0.,0.0082));
#2010=CARTESIAN_POINT('',(0.005,0.00625,0.0082));
#2011=CARTESIAN_POINT('',(0.0066,0.00625,0.0082));
#2012=CARTESIAN_POINT('',(0.,0.,0.0062));
#2013=CARTESIAN_POINT('',(0.,0.,0.014));
#2014=CARTESIAN_POINT('',(0.005,0.00625,0.014));
#2015=CARTESIAN_POINT('',(0.0066,0.00625,0.014));
#2016=CARTESIAN_POINT('',(0.005,0.00625,0.014));
#2017=CARTESIAN_POINT('',(0.0021,-0.00625,0.0082));
#2018=CARTESIAN_POINT('',(0.0021,-0.00625,0.0062));
#2019=CARTESIAN_POINT('',(0.0021,-0.00335,0.0062));
#2020=CARTESIAN_POINT('',(0.0021,-0.00335,0.0082));
#2021=CARTESIAN_POINT('',(0.0021,-0.00335,0.0082));
#2022=CARTESIAN_POINT('',(0.0021,-0.00625,0.0082));
#2023=CARTESIAN_POINT('',(0.0079,-0.00625,0.0082));
#2024=CARTESIAN_POINT('',(0.0079,-0.00625,0.0062));
#2025=CARTESIAN_POINT('',(0.0079,-0.00335,0.0062));
#2026=CARTESIAN_POINT('',(0.0079,-0.0099,0.0082));
#2027=CARTESIAN_POINT('',(0.0079,-0.00625,0.0082));
#2028=CARTESIAN_POINT('',(0.0079,-0.00335,0.0082));
#2029=CARTESIAN_POINT('',(0.0079,-0.00335,0.0082));
#2030=CARTESIAN_POINT('',(0.005,-0.00335,0.0082));
#2031=CARTESIAN_POINT('',(0.005,-0.00335,0.0062));
#2032=CARTESIAN_POINT('',(0.005,-0.00335,0.0082));
#2033=CARTESIAN_POINT('',(0.,0.,0.0082));
#2034=CARTESIAN_POINT('',(0.005,-0.00625,0.0082));
#2035=CARTESIAN_POINT('',(0.0066,-0.00625,0.0082));
#2036=CARTESIAN_POINT('',(0.,0.,0.0062));
#2037=CARTESIAN_POINT('',(0.,0.,0.014));
#2038=CARTESIAN_POINT('',(0.005,-0.00625,0.014));
#2039=CARTESIAN_POINT('',(0.0066,-0.00625,0.014));
#2040=CARTESIAN_POINT('',(0.005,-0.00625,0.014));
#2041=CARTESIAN_POINT('',(-0.0021,-0.00625,0.0082));
#2042=CARTESIAN_POINT('',(-0.0021,-0.00625,0.0062));
#2043=CARTESIAN_POINT('',(-0.0021,-0.00335,0.0062));
#2044=CARTESIAN_POINT('',(-0.0021,-0.00625,0.0082));
#2045=CARTESIAN_POINT('',(-0.0021,-0.00335,0.0082));
#2046=CARTESIAN_POINT('',(-0.0021,-0.00335,0.0082));
#2047=CARTESIAN_POINT('',(-0.005,-0.00335,0.0082));
#2048=CARTESIAN_POINT('',(-0.005,-0.00335,0.0062));
#2049=CARTESIAN_POINT('',(-0.0079,-0.00335,0.0062));
#2050=CARTESIAN_POINT('',(-0.005,-0.00335,0.0082));
#2051=CARTESIAN_POINT('',(-0.0079,-0.00335,0.0082));
#2052=CARTESIAN_POINT('',(-0.0079,-0.00335,0.0082));
#2053=CARTESIAN_POINT('',(-0.0079,-0.00625,0.0082));
#2054=CARTESIAN_POINT('',(-0.0079,-0.00625,0.0062));
#2055=CARTESIAN_POINT('',(-0.0079,-0.00625,0.0082));
#2056=CARTESIAN_POINT('',(-0.0079,-0.0099,0.0082));
#2057=CARTESIAN_POINT('',(0.,0.,0.0082));
#2058=CARTESIAN_POINT('',(-0.005,-0.00625,0.0082));
#2059=CARTESIAN_POINT('',(-0.0034,-0.00625,0.0082));
#2060=CARTESIAN_POINT('',(0.,0.,0.0062));
#2061=CARTESIAN_POINT('',(0.,0.,0.014));
#2062=CARTESIAN_POINT('',(-0.005,-0.00625,0.014));
#2063=CARTESIAN_POINT('',(-0.0034,-0.00625,0.014));
#2064=CARTESIAN_POINT('',(-0.005,-0.00625,0.014));
#2065=CARTESIAN_POINT('',(0.005,-0.00625,0.0489));
#2066=CARTESIAN_POINT('',(0.005,-0.00625,0.0338));
#2067=CARTESIAN_POINT('',(0.0066,-0.00625,0.0338));
#2068=CARTESIAN_POINT('',(-0.005,0.00625,0.0489));
#2069=CARTESIAN_POINT('',(-0.005,0.00625,0.0338));
#2070=CARTESIAN_POINT('',(-0.0034,0.00625,0.0338));
#2071=CARTESIAN_POINT('',(0.005,0.00625,0.0489));
#2072=CARTESIAN_POINT('',(0.005,0.00625,0.0338));
#2073=CARTESIAN_POINT('',(0.0066,0.00625,0.0338));
#2074=CARTESIAN_POINT('',(-0.005,-0.00625,0.0489));
#2075=CARTESIAN_POINT('',(-0.005,-0.00625,0.0338));
#2076=CARTESIAN_POINT('',(-0.0034,-0.00625,0.0338));
#2077=CARTESIAN_POINT('',(-0.0079,-0.00625,0.0338));
#2078=CARTESIAN_POINT('',(-0.0079,-0.00625,0.0318));
#2079=CARTESIAN_POINT('',(-0.0079,-0.00335,0.0318));
#2080=CARTESIAN_POINT('',(-0.0079,-0.00335,0.0338));
#2081=CARTESIAN_POINT('',(-0.0079,-0.00335,0.0338));
#2082=CARTESIAN_POINT('',(-0.0079,-0.00625,0.0338));
#2083=CARTESIAN_POINT('',(-0.0079,-0.0099,0.0338));
#2084=CARTESIAN_POINT('',(-0.0021,-0.00625,0.0338));
#2085=CARTESIAN_POINT('',(-0.0021,-0.00625,0.0318));
#2086=CARTESIAN_POINT('',(-0.0021,-0.00335,0.0318));
#2087=CARTESIAN_POINT('',(-0.0021,-0.00625,0.0338));
#2088=CARTESIAN_POINT('',(-0.0021,-0.00335,0.0338));
#2089=CARTESIAN_POINT('',(-0.0021,-0.00335,0.0338));
#2090=CARTESIAN_POINT('',(-0.005,-0.00335,0.0338));
#2091=CARTESIAN_POINT('',(-0.005,-0.00335,0.0318));
#2092=CARTESIAN_POINT('',(-0.005,-0.00335,0.0338));
#2093=CARTESIAN_POINT('',(0.,0.,0.0338));
#2094=CARTESIAN_POINT('',(0.,0.,0.0318));
#2095=CARTESIAN_POINT('',(-0.005,-0.00625,0.0318));
#2096=CARTESIAN_POINT('',(-0.0034,-0.00625,0.0318));
#2097=CARTESIAN_POINT('',(0.0079,0.00625,0.0338));
#2098=CARTESIAN_POINT('',(0.0079,0.00625,0.0318));
#2099=CARTESIAN_POINT('',(0.0079,0.00335,0.0318));
#2100=CARTESIAN_POINT('',(0.0079,0.00335,0.0338));
#2101=CARTESIAN_POINT('',(0.0079,0.00335,0.0338));
#2102=CARTESIAN_POINT('',(0.0079,0.00625,0.0338));
#2103=CARTESIAN_POINT('',(0.0079,0.0099,0.0338));
#2104=CARTESIAN_POINT('',(0.0021,0.00625,0.0338));
#2105=CARTESIAN_POINT('',(0.0021,0.00625,0.0318));
#2106=CARTESIAN_POINT('',(0.0021,0.00335,0.0318));
#2107=CARTESIAN_POINT('',(0.0021,0.00625,0.0338));
#2108=CARTESIAN_POINT('',(0.0021,0.00335,0.0338));
#2109=CARTESIAN_POINT('',(0.0021,0.00335,0.0338));
#2110=CARTESIAN_POINT('',(0.005,0.00335,0.0338));
#2111=CARTESIAN_POINT('',(0.005,0.00335,0.0318));
#2112=CARTESIAN_POINT('',(0.005,0.00335,0.0338));
#2113=CARTESIAN_POINT('',(0.,0.,0.0338));
#2114=CARTESIAN_POINT('',(0.,0.,0.0318));
#2115=CARTESIAN_POINT('',(0.005,0.00625,0.0318));
#2116=CARTESIAN_POINT('',(0.0066,0.00625,0.0318));
#2117=CARTESIAN_POINT('',(-0.0021,0.00625,0.0338));
#2118=CARTESIAN_POINT('',(-0.0021,0.00625,0.0318));
#2119=CARTESIAN_POINT('',(-0.0021,0.00335,0.0318));
#2120=CARTESIAN_POINT('',(-0.0021,0.00335,0.0338));
#2121=CARTESIAN_POINT('',(-0.0021,0.00335,0.0338));
#2122=CARTESIAN_POINT('',(-0.0021,0.00625,0.0338));
#2123=CARTESIAN_POINT('',(-0.0079,0.00625,0.0338));
#2124=CARTESIAN_POINT('',(-0.0079,0.00625,0.0318));
#2125=CARTESIAN_POINT('',(-0.0079,0.00335,0.0318));
#2126=CARTESIAN_POINT('',(-0.0079,0.0099,0.0338));
#2127=CARTESIAN_POINT('',(-0.0079,0.00625,0.0338));
#2128=CARTESIAN_POINT('',(-0.0079,0.00335,0.0338));
#2129=CARTESIAN_POINT('',(-0.0079,0.00335,0.0338));
#2130=CARTESIAN_POINT('',(-0.005,0.00335,0.0338));
#2131=CARTESIAN_POINT('',(-0.005,0.00335,0.0318));
#2132=CARTESIAN_POINT('',(-0.005,0.00335,0.0338));
#2133=CARTESIAN_POINT('',(0.,0.,0.0338));
#2134=CARTESIAN_POINT('',(0.,0.,0.0318));
#2135=CARTESIAN_POINT('',(-0.005,0.00625,0.0318));
#2136=CARTESIAN_POINT('',(-0.0034,0.00625,0.0318));
#2137=CARTESIAN_POINT('',(0.0079,-0.00625,0.0338));
#2138=CARTESIAN_POINT('',(0.0079,-0.00625,0.0318));
#2139=CARTESIAN_POINT('',(0.0079,-0.00335,0.0318));
#2140=CARTESIAN_POINT('',(0.0079,-0.0099,0.0338));
#2141=CARTESIAN_POINT('',(0.0079,-0.00625,0.0338));
#2142=CARTESIAN_POINT('',(0.0079,-0.00335,0.0338));
#2143=CARTESIAN_POINT('',(0.0079,-0.00335,0.0338));
#2144=CARTESIAN_POINT('',(0.005,-0.00335,0.0338));
#2145=CARTESIAN_POINT('',(0.005,-0.00335,0.0318));
#2146=CARTESIAN_POINT('',(0.0021,-0.00335,0.0318));
#2147=CARTESIAN_POINT('',(0.005,-0.00335,0.0338));
#2148=CARTESIAN_POINT('',(0.0021,-0.00335,0.0338));
#2149=CARTESIAN_POINT('',(0.0021,-0.00335,0.0338));
#2150=CARTESIAN_POINT('',(0.0021,-0.00625,0.0338));
#2151=CARTESIAN_POINT('',(0.0021,-0.00625,0.0318));
#2152=CARTESIAN_POINT('',(0.0021,-0.00625,0.0338));
#2153=CARTESIAN_POINT('',(0.,0.,0.0338));
#2154=CARTESIAN_POINT('',(0.,0.,0.0318));
#2155=CARTESIAN_POINT('',(0.005,-0.00625,0.0318));
#2156=CARTESIAN_POINT('',(0.0066,-0.00625,0.0318));
#2157=CARTESIAN_POINT('',(0.,0.,0.0248));
#2158=CARTESIAN_POINT('',(-0.005,-0.00625,0.0248));
#2159=CARTESIAN_POINT('',(-0.0034,-0.00625,0.0248));
#2160=CARTESIAN_POINT('',(-0.005,-0.00625,0.0489));
#2161=CARTESIAN_POINT('',(0.,0.,0.0248));
#2162=CARTESIAN_POINT('',(0.005,0.00625,0.0248));
#2163=CARTESIAN_POINT('',(0.0066,0.00625,0.0248));
#2164=CARTESIAN_POINT('',(0.005,0.00625,0.0489));
#2165=CARTESIAN_POINT('',(0.,0.,0.0248));
#2166=CARTESIAN_POINT('',(-0.005,0.00625,0.0248));
#2167=CARTESIAN_POINT('',(-0.0034,0.00625,0.0248));
#2168=CARTESIAN_POINT('',(-0.005,0.00625,0.0489));
#2169=CARTESIAN_POINT('',(0.,0.,0.0248));
#2170=CARTESIAN_POINT('',(0.005,-0.00625,0.0248));
#2171=CARTESIAN_POINT('',(0.0066,-0.00625,0.0248));
#2172=CARTESIAN_POINT('',(0.005,-0.00625,0.0489));
#2173=CARTESIAN_POINT('',(0.,0.,-0.002));
#2174=CARTESIAN_POINT('',(-0.0079,0.0079,-0.002));
#2175=CARTESIAN_POINT('',(0.0079,0.0079,-0.002));
#2176=CARTESIAN_POINT('',(0.0079,-0.0079,-0.002));
#2177=CARTESIAN_POINT('',(-0.0079,-0.0079,-0.002));
#2178=CARTESIAN_POINT('',(-0.0089,-4.67849664733139E-18,0.042));
#2179=CARTESIAN_POINT('',(-0.0079,0.0079,0.043));
#2180=CARTESIAN_POINT('',(-0.0079,-0.0079,0.043));
#2181=CARTESIAN_POINT('',(0.0099,1.7347234759768E-18,0.041));
#2182=CARTESIAN_POINT('',(0.0079,0.0079,0.043));
#2183=CARTESIAN_POINT('',(0.0079,-0.0079,0.043));
#2184=CARTESIAN_POINT('',(-0.0079,0.0079,0.042));
#2185=CARTESIAN_POINT('',(0.0079,0.0079,0.042));
#2186=CARTESIAN_POINT('',(-0.0079,-0.0079,0.042));
#2187=CARTESIAN_POINT('',(0.0079,-0.0079,0.042));
#2188=MECHANICAL_DESIGN_GEOMETRIC_PRESENTATION_REPRESENTATION('',(#1319),
#2189);
#2189=(
GEOMETRIC_REPRESENTATION_CONTEXT(3)
GLOBAL_UNCERTAINTY_ASSIGNED_CONTEXT((#2190))
GLOBAL_UNIT_ASSIGNED_CONTEXT((#2193,#2192,#2191))
REPRESENTATION_CONTEXT('Part 1','TOP_LEVEL_ASSEMBLY_PART')
);
#2190=UNCERTAINTY_MEASURE_WITH_UNIT(LENGTH_MEASURE(1.E-8),#2193,
'DISTANCE_ACCURACY_VALUE','Maximum Tolerance applied to model');
#2191=(
NAMED_UNIT(*)
SI_UNIT($,.STERADIAN.)
SOLID_ANGLE_UNIT()
);
#2192=(
NAMED_UNIT(*)
PLANE_ANGLE_UNIT()
SI_UNIT($,.RADIAN.)
);
#2193=(
LENGTH_UNIT()
NAMED_UNIT(*)
SI_UNIT($,.METRE.)
);
#2194=PRODUCT_DEFINITION_SHAPE('','',#2195);
#2195=PRODUCT_DEFINITION('','',#2197,#2196);
#2196=PRODUCT_DEFINITION_CONTEXT('',#2203,'design');
#2197=PRODUCT_DEFINITION_FORMATION_WITH_SPECIFIED_SOURCE('','',#2199,
 .NOT_KNOWN.);
#2198=PRODUCT_RELATED_PRODUCT_CATEGORY('','',(#2199));
#2199=PRODUCT('Part 1','Part 1','Part 1',(#2201));
#2200=PRODUCT_CATEGORY('','');
#2201=PRODUCT_CONTEXT('',#2203,'mechanical');
#2202=APPLICATION_PROTOCOL_DEFINITION('international standard',
'ap242_managed_model_based_3d_engineering',2020,#2203);
#2203=APPLICATION_CONTEXT('managed model based 3d engineering');
ENDSEC;
END-ISO-10303-21;
