ISO-10303-21;
HEADER;
/* Generated by software containing ST-Developer
 * from STEP Tools, Inc. (www.steptools.com) 
 */
/* OPTION: using custom renumber hook */

FILE_DESCRIPTION(
/* description */ ('STEP AP242 Edition 2',
'CAx-IF Rec.Pracs.---Representation and Presentation of Product Manufa
cturing Information (PMI)---4.0---2014-10-13',
'CAx-IF Rec.Pracs.---3D Tessellated Geometry---0.4---2014-09-14','2;1',
'CAx-IF Rec.Pracs.---User Defined Attributes---1.5---2016-08-15'),
/* implementation_level */ '2;1');

FILE_NAME(
/* name */ 'front upper arm',
/* time_stamp */ '2026-09-29T21:25:19Z',
/* author */ (''),
/* organization */ (''),
/* preprocessor_version */ 'ST-DEVELOPER v20',
/* originating_system */ 'ONSHAPE BY PTC INC, 1.221',
/* authorisation */ '  ');

FILE_SCHEMA (('AP242_MANAGED_MODEL_BASED_3D_ENGINEERING_MIM_LF { 1 0 10303 442 3 1 4 }'));
ENDSEC;

DATA;
#10=SHAPE_REPRESENTATION_RELATIONSHIP('','',#999,#11);
#11=ADVANCED_BREP_SHAPE_REPRESENTATION('',(#997),#1705);
#12=CONICAL_SURFACE('',#1091,0.0016,0.785398163397448);
#13=CONICAL_SURFACE('',#1092,0.0026,0.785398163397448);
#14=CONICAL_SURFACE('',#1093,0.0026,0.785398163397449);
#15=CONICAL_SURFACE('',#1094,0.0016,0.785398163397448);
#16=CONICAL_SURFACE('',#1095,0.0026,0.785398163397448);
#17=CONICAL_SURFACE('',#1096,0.0016,0.785398163397448);
#18=CONICAL_SURFACE('',#1097,0.0016,0.785398163397448);
#19=CONICAL_SURFACE('',#1098,0.0026,0.785398163397448);
#20=B_SPLINE_CURVE_WITH_KNOTS('',3,(#1618,#1619,#1620,#1621,#1622,#1623),
 .UNSPECIFIED.,.F.,.F.,(4,1,1,4),(0.,0.00458390374144184,0.00687585561216276,
0.00916780748288368),.UNSPECIFIED.);
#21=B_SPLINE_CURVE_WITH_KNOTS('',3,(#1624,#1625,#1626,#1627,#1628,#1629),
 .UNSPECIFIED.,.F.,.F.,(4,1,1,4),(1.73472347597681E-18,0.00458376206841196,
0.00687564310261793,0.00916752413682391),.UNSPECIFIED.);
#22=B_SPLINE_CURVE_WITH_KNOTS('',3,(#1632,#1633,#1634,#1635),
 .UNSPECIFIED.,.F.,.F.,(4,4),(0.,0.010089896875338),.UNSPECIFIED.);
#23=B_SPLINE_CURVE_WITH_KNOTS('',3,(#1636,#1637,#1638,#1639),
 .UNSPECIFIED.,.F.,.F.,(4,4),(0.,0.010089896875338),.UNSPECIFIED.);
#24=B_SPLINE_CURVE_WITH_KNOTS('',3,(#1641,#1642,#1643,#1644),
 .UNSPECIFIED.,.F.,.F.,(4,4),(4.89733053190177E-17,0.000896452028850591),
 .UNSPECIFIED.);
#25=B_SPLINE_CURVE_WITH_KNOTS('',3,(#1645,#1646,#1647,#1648),
 .UNSPECIFIED.,.F.,.F.,(4,4),(0.,0.000896452028850551),.UNSPECIFIED.);
#26=B_SPLINE_CURVE_WITH_KNOTS('',3,(#1649,#1650,#1651,#1652),
 .UNSPECIFIED.,.F.,.F.,(4,4),(3.87895961444886E-18,0.000804516360788552),
 .UNSPECIFIED.);
#27=B_SPLINE_CURVE_WITH_KNOTS('',3,(#1653,#1654,#1655,#1656),
 .UNSPECIFIED.,.F.,.F.,(4,4),(0.,0.000804516360788507),.UNSPECIFIED.);
#28=CYLINDRICAL_SURFACE('',#1062,0.05);
#29=CYLINDRICAL_SURFACE('',#1063,0.05);
#30=CYLINDRICAL_SURFACE('',#1064,0.05);
#31=CYLINDRICAL_SURFACE('',#1065,0.05);
#32=CYLINDRICAL_SURFACE('',#1066,0.015);
#33=CYLINDRICAL_SURFACE('',#1067,0.015);
#34=CYLINDRICAL_SURFACE('',#1068,0.015);
#35=CYLINDRICAL_SURFACE('',#1069,0.015);
#36=CYLINDRICAL_SURFACE('',#1070,0.03);
#37=CYLINDRICAL_SURFACE('',#1071,0.03);
#38=CYLINDRICAL_SURFACE('',#1072,0.03);
#39=CYLINDRICAL_SURFACE('',#1073,0.03);
#40=CYLINDRICAL_SURFACE('',#1075,0.005);
#41=CYLINDRICAL_SURFACE('',#1076,0.005);
#42=CYLINDRICAL_SURFACE('',#1077,0.005);
#43=CYLINDRICAL_SURFACE('',#1078,0.005);
#44=CYLINDRICAL_SURFACE('',#1079,0.0016);
#45=CYLINDRICAL_SURFACE('',#1082,0.0016);
#46=CYLINDRICAL_SURFACE('',#1085,0.0016);
#47=CYLINDRICAL_SURFACE('',#1088,0.0016);
#48=ELLIPSE('',#1026,0.0548292804986533,0.05);
#49=ELLIPSE('',#1034,0.0548292804986533,0.05);
#50=ELLIPSE('',#1043,0.0610327780786685,0.05);
#51=ELLIPSE('',#1045,0.0610327780786685,0.05);
#52=ELLIPSE('',#1060,0.0305941170815567,0.03);
#53=ELLIPSE('',#1061,0.0305941170815567,0.03);
#54=CIRCLE('',#1002,0.03);
#55=CIRCLE('',#1003,0.03);
#56=CIRCLE('',#1005,0.0026);
#57=CIRCLE('',#1006,0.005);
#58=CIRCLE('',#1008,0.0026);
#59=CIRCLE('',#1009,0.005);
#60=CIRCLE('',#1011,0.0026);
#61=CIRCLE('',#1012,0.005);
#62=CIRCLE('',#1014,0.0026);
#63=CIRCLE('',#1015,0.005);
#64=CIRCLE('',#1017,0.03);
#65=CIRCLE('',#1018,0.03);
#66=CIRCLE('',#1019,0.015);
#67=CIRCLE('',#1020,0.015);
#68=CIRCLE('',#1021,0.015);
#69=CIRCLE('',#1022,0.015);
#70=CIRCLE('',#1023,0.03);
#71=CIRCLE('',#1024,0.03);
#72=CIRCLE('',#1028,0.05);
#73=CIRCLE('',#1029,0.05);
#74=CIRCLE('',#1031,0.05);
#75=CIRCLE('',#1032,0.05);
#76=CIRCLE('',#1037,0.0026);
#77=CIRCLE('',#1038,0.005);
#78=CIRCLE('',#1040,0.0026);
#79=CIRCLE('',#1041,0.005);
#80=CIRCLE('',#1047,0.0026);
#81=CIRCLE('',#1048,0.005);
#82=CIRCLE('',#1050,0.0026);
#83=CIRCLE('',#1051,0.005);
#84=CIRCLE('',#1053,0.015);
#85=CIRCLE('',#1054,0.015);
#86=CIRCLE('',#1056,0.03);
#87=CIRCLE('',#1057,0.03);
#88=CIRCLE('',#1080,0.0016);
#89=CIRCLE('',#1081,0.0016);
#90=CIRCLE('',#1083,0.0016);
#91=CIRCLE('',#1084,0.0016);
#92=CIRCLE('',#1086,0.0016);
#93=CIRCLE('',#1087,0.0016);
#94=CIRCLE('',#1089,0.0016);
#95=CIRCLE('',#1090,0.0016);
#96=ORIENTED_EDGE('',*,*,#368,.F.);
#97=ORIENTED_EDGE('',*,*,#369,.T.);
#98=ORIENTED_EDGE('',*,*,#370,.T.);
#99=ORIENTED_EDGE('',*,*,#371,.T.);
#100=ORIENTED_EDGE('',*,*,#372,.F.);
#101=ORIENTED_EDGE('',*,*,#373,.T.);
#102=ORIENTED_EDGE('',*,*,#374,.T.);
#103=ORIENTED_EDGE('',*,*,#375,.T.);
#104=ORIENTED_EDGE('',*,*,#376,.T.);
#105=ORIENTED_EDGE('',*,*,#377,.T.);
#106=ORIENTED_EDGE('',*,*,#378,.T.);
#107=ORIENTED_EDGE('',*,*,#379,.T.);
#108=ORIENTED_EDGE('',*,*,#380,.F.);
#109=ORIENTED_EDGE('',*,*,#381,.T.);
#110=ORIENTED_EDGE('',*,*,#382,.F.);
#111=ORIENTED_EDGE('',*,*,#383,.T.);
#112=ORIENTED_EDGE('',*,*,#368,.T.);
#113=ORIENTED_EDGE('',*,*,#384,.T.);
#114=ORIENTED_EDGE('',*,*,#385,.T.);
#115=ORIENTED_EDGE('',*,*,#386,.T.);
#116=ORIENTED_EDGE('',*,*,#370,.F.);
#117=ORIENTED_EDGE('',*,*,#387,.T.);
#118=ORIENTED_EDGE('',*,*,#388,.T.);
#119=ORIENTED_EDGE('',*,*,#389,.T.);
#120=ORIENTED_EDGE('',*,*,#390,.T.);
#121=ORIENTED_EDGE('',*,*,#391,.T.);
#122=ORIENTED_EDGE('',*,*,#392,.F.);
#123=ORIENTED_EDGE('',*,*,#393,.T.);
#124=ORIENTED_EDGE('',*,*,#372,.T.);
#125=ORIENTED_EDGE('',*,*,#394,.T.);
#126=ORIENTED_EDGE('',*,*,#395,.T.);
#127=ORIENTED_EDGE('',*,*,#396,.T.);
#128=ORIENTED_EDGE('',*,*,#376,.F.);
#129=ORIENTED_EDGE('',*,*,#397,.T.);
#130=ORIENTED_EDGE('',*,*,#398,.T.);
#131=ORIENTED_EDGE('',*,*,#380,.T.);
#132=ORIENTED_EDGE('',*,*,#399,.T.);
#133=ORIENTED_EDGE('',*,*,#395,.F.);
#134=ORIENTED_EDGE('',*,*,#400,.T.);
#135=ORIENTED_EDGE('',*,*,#401,.T.);
#136=ORIENTED_EDGE('',*,*,#402,.T.);
#137=ORIENTED_EDGE('',*,*,#403,.F.);
#138=ORIENTED_EDGE('',*,*,#404,.T.);
#139=ORIENTED_EDGE('',*,*,#405,.T.);
#140=ORIENTED_EDGE('',*,*,#406,.T.);
#141=ORIENTED_EDGE('',*,*,#407,.F.);
#142=ORIENTED_EDGE('',*,*,#408,.T.);
#143=ORIENTED_EDGE('',*,*,#409,.T.);
#144=ORIENTED_EDGE('',*,*,#410,.T.);
#145=ORIENTED_EDGE('',*,*,#411,.F.);
#146=ORIENTED_EDGE('',*,*,#412,.T.);
#147=ORIENTED_EDGE('',*,*,#413,.T.);
#148=ORIENTED_EDGE('',*,*,#414,.T.);
#149=ORIENTED_EDGE('',*,*,#415,.F.);
#150=ORIENTED_EDGE('',*,*,#416,.T.);
#151=ORIENTED_EDGE('',*,*,#417,.T.);
#152=ORIENTED_EDGE('',*,*,#418,.T.);
#153=ORIENTED_EDGE('',*,*,#419,.F.);
#154=ORIENTED_EDGE('',*,*,#420,.T.);
#155=ORIENTED_EDGE('',*,*,#392,.T.);
#156=ORIENTED_EDGE('',*,*,#421,.T.);
#157=ORIENTED_EDGE('',*,*,#385,.F.);
#158=ORIENTED_EDGE('',*,*,#419,.T.);
#159=ORIENTED_EDGE('',*,*,#422,.T.);
#160=ORIENTED_EDGE('',*,*,#423,.T.);
#161=ORIENTED_EDGE('',*,*,#424,.T.);
#162=ORIENTED_EDGE('',*,*,#425,.T.);
#163=ORIENTED_EDGE('',*,*,#426,.T.);
#164=ORIENTED_EDGE('',*,*,#417,.F.);
#165=ORIENTED_EDGE('',*,*,#427,.T.);
#166=ORIENTED_EDGE('',*,*,#428,.T.);
#167=ORIENTED_EDGE('',*,*,#429,.T.);
#168=ORIENTED_EDGE('',*,*,#430,.T.);
#169=ORIENTED_EDGE('',*,*,#403,.T.);
#170=ORIENTED_EDGE('',*,*,#431,.T.);
#171=ORIENTED_EDGE('',*,*,#432,.F.);
#172=ORIENTED_EDGE('',*,*,#433,.T.);
#173=ORIENTED_EDGE('',*,*,#434,.T.);
#174=ORIENTED_EDGE('',*,*,#435,.T.);
#175=ORIENTED_EDGE('',*,*,#436,.T.);
#176=ORIENTED_EDGE('',*,*,#401,.F.);
#177=ORIENTED_EDGE('',*,*,#437,.T.);
#178=ORIENTED_EDGE('',*,*,#438,.T.);
#179=ORIENTED_EDGE('',*,*,#439,.T.);
#180=ORIENTED_EDGE('',*,*,#440,.F.);
#181=ORIENTED_EDGE('',*,*,#441,.T.);
#182=ORIENTED_EDGE('',*,*,#442,.T.);
#183=ORIENTED_EDGE('',*,*,#443,.T.);
#184=ORIENTED_EDGE('',*,*,#444,.T.);
#185=ORIENTED_EDGE('',*,*,#409,.F.);
#186=ORIENTED_EDGE('',*,*,#445,.T.);
#187=ORIENTED_EDGE('',*,*,#446,.T.);
#188=ORIENTED_EDGE('',*,*,#447,.T.);
#189=ORIENTED_EDGE('',*,*,#440,.T.);
#190=ORIENTED_EDGE('',*,*,#448,.T.);
#191=ORIENTED_EDGE('',*,*,#449,.T.);
#192=ORIENTED_EDGE('',*,*,#450,.T.);
#193=ORIENTED_EDGE('',*,*,#407,.T.);
#194=ORIENTED_EDGE('',*,*,#451,.T.);
#195=ORIENTED_EDGE('',*,*,#452,.F.);
#196=ORIENTED_EDGE('',*,*,#453,.T.);
#197=ORIENTED_EDGE('',*,*,#454,.T.);
#198=ORIENTED_EDGE('',*,*,#405,.F.);
#199=ORIENTED_EDGE('',*,*,#455,.T.);
#200=ORIENTED_EDGE('',*,*,#456,.T.);
#201=ORIENTED_EDGE('',*,*,#415,.T.);
#202=ORIENTED_EDGE('',*,*,#457,.T.);
#203=ORIENTED_EDGE('',*,*,#458,.F.);
#204=ORIENTED_EDGE('',*,*,#459,.T.);
#205=ORIENTED_EDGE('',*,*,#460,.T.);
#206=ORIENTED_EDGE('',*,*,#461,.T.);
#207=ORIENTED_EDGE('',*,*,#413,.F.);
#208=ORIENTED_EDGE('',*,*,#462,.T.);
#209=ORIENTED_EDGE('',*,*,#463,.T.);
#210=ORIENTED_EDGE('',*,*,#464,.T.);
#211=ORIENTED_EDGE('',*,*,#465,.T.);
#212=ORIENTED_EDGE('',*,*,#466,.T.);
#213=ORIENTED_EDGE('',*,*,#411,.T.);
#214=ORIENTED_EDGE('',*,*,#467,.T.);
#215=ORIENTED_EDGE('',*,*,#442,.F.);
#216=ORIENTED_EDGE('',*,*,#468,.T.);
#217=ORIENTED_EDGE('',*,*,#469,.F.);
#218=ORIENTED_EDGE('',*,*,#469,.T.);
#219=ORIENTED_EDGE('',*,*,#470,.T.);
#220=ORIENTED_EDGE('',*,*,#446,.F.);
#221=ORIENTED_EDGE('',*,*,#471,.T.);
#222=ORIENTED_EDGE('',*,*,#452,.T.);
#223=ORIENTED_EDGE('',*,*,#472,.T.);
#224=ORIENTED_EDGE('',*,*,#453,.F.);
#225=ORIENTED_EDGE('',*,*,#473,.T.);
#226=ORIENTED_EDGE('',*,*,#458,.T.);
#227=ORIENTED_EDGE('',*,*,#474,.T.);
#228=ORIENTED_EDGE('',*,*,#463,.F.);
#229=ORIENTED_EDGE('',*,*,#475,.T.);
#230=ORIENTED_EDGE('',*,*,#425,.F.);
#231=ORIENTED_EDGE('',*,*,#476,.T.);
#232=ORIENTED_EDGE('',*,*,#432,.T.);
#233=ORIENTED_EDGE('',*,*,#477,.T.);
#234=ORIENTED_EDGE('',*,*,#478,.T.);
#235=ORIENTED_EDGE('',*,*,#479,.T.);
#236=ORIENTED_EDGE('',*,*,#429,.F.);
#237=ORIENTED_EDGE('',*,*,#480,.T.);
#238=ORIENTED_EDGE('',*,*,#434,.F.);
#239=ORIENTED_EDGE('',*,*,#481,.T.);
#240=ORIENTED_EDGE('',*,*,#482,.T.);
#241=ORIENTED_EDGE('',*,*,#483,.T.);
#242=ORIENTED_EDGE('',*,*,#484,.T.);
#243=ORIENTED_EDGE('',*,*,#485,.T.);
#244=ORIENTED_EDGE('',*,*,#435,.F.);
#245=ORIENTED_EDGE('',*,*,#480,.F.);
#246=ORIENTED_EDGE('',*,*,#428,.F.);
#247=ORIENTED_EDGE('',*,*,#486,.T.);
#248=ORIENTED_EDGE('',*,*,#459,.F.);
#249=ORIENTED_EDGE('',*,*,#473,.F.);
#250=ORIENTED_EDGE('',*,*,#456,.F.);
#251=ORIENTED_EDGE('',*,*,#487,.T.);
#252=ORIENTED_EDGE('',*,*,#430,.F.);
#253=ORIENTED_EDGE('',*,*,#481,.F.);
#254=ORIENTED_EDGE('',*,*,#433,.F.);
#255=ORIENTED_EDGE('',*,*,#476,.F.);
#256=ORIENTED_EDGE('',*,*,#478,.F.);
#257=ORIENTED_EDGE('',*,*,#488,.T.);
#258=ORIENTED_EDGE('',*,*,#484,.F.);
#259=ORIENTED_EDGE('',*,*,#489,.T.);
#260=ORIENTED_EDGE('',*,*,#438,.F.);
#261=ORIENTED_EDGE('',*,*,#490,.T.);
#262=ORIENTED_EDGE('',*,*,#374,.F.);
#263=ORIENTED_EDGE('',*,*,#491,.T.);
#264=ORIENTED_EDGE('',*,*,#423,.F.);
#265=ORIENTED_EDGE('',*,*,#492,.T.);
#266=ORIENTED_EDGE('',*,*,#482,.F.);
#267=ORIENTED_EDGE('',*,*,#493,.T.);
#268=ORIENTED_EDGE('',*,*,#472,.F.);
#269=ORIENTED_EDGE('',*,*,#451,.F.);
#270=ORIENTED_EDGE('',*,*,#406,.F.);
#271=ORIENTED_EDGE('',*,*,#454,.F.);
#272=ORIENTED_EDGE('',*,*,#474,.F.);
#273=ORIENTED_EDGE('',*,*,#457,.F.);
#274=ORIENTED_EDGE('',*,*,#414,.F.);
#275=ORIENTED_EDGE('',*,*,#464,.F.);
#276=ORIENTED_EDGE('',*,*,#487,.F.);
#277=ORIENTED_EDGE('',*,*,#455,.F.);
#278=ORIENTED_EDGE('',*,*,#404,.F.);
#279=ORIENTED_EDGE('',*,*,#436,.F.);
#280=ORIENTED_EDGE('',*,*,#486,.F.);
#281=ORIENTED_EDGE('',*,*,#427,.F.);
#282=ORIENTED_EDGE('',*,*,#416,.F.);
#283=ORIENTED_EDGE('',*,*,#460,.F.);
#284=ORIENTED_EDGE('',*,*,#490,.F.);
#285=ORIENTED_EDGE('',*,*,#437,.F.);
#286=ORIENTED_EDGE('',*,*,#400,.F.);
#287=ORIENTED_EDGE('',*,*,#397,.F.);
#288=ORIENTED_EDGE('',*,*,#375,.F.);
#289=ORIENTED_EDGE('',*,*,#477,.F.);
#290=ORIENTED_EDGE('',*,*,#431,.F.);
#291=ORIENTED_EDGE('',*,*,#402,.F.);
#292=ORIENTED_EDGE('',*,*,#439,.F.);
#293=ORIENTED_EDGE('',*,*,#493,.F.);
#294=ORIENTED_EDGE('',*,*,#485,.F.);
#295=ORIENTED_EDGE('',*,*,#488,.F.);
#296=ORIENTED_EDGE('',*,*,#492,.F.);
#297=ORIENTED_EDGE('',*,*,#422,.F.);
#298=ORIENTED_EDGE('',*,*,#418,.F.);
#299=ORIENTED_EDGE('',*,*,#426,.F.);
#300=ORIENTED_EDGE('',*,*,#479,.F.);
#301=ORIENTED_EDGE('',*,*,#489,.F.);
#302=ORIENTED_EDGE('',*,*,#483,.F.);
#303=ORIENTED_EDGE('',*,*,#373,.F.);
#304=ORIENTED_EDGE('',*,*,#393,.F.);
#305=ORIENTED_EDGE('',*,*,#420,.F.);
#306=ORIENTED_EDGE('',*,*,#424,.F.);
#307=ORIENTED_EDGE('',*,*,#491,.F.);
#308=ORIENTED_EDGE('',*,*,#382,.T.);
#309=ORIENTED_EDGE('',*,*,#494,.T.);
#310=ORIENTED_EDGE('',*,*,#388,.F.);
#311=ORIENTED_EDGE('',*,*,#495,.T.);
#312=ORIENTED_EDGE('',*,*,#445,.F.);
#313=ORIENTED_EDGE('',*,*,#408,.F.);
#314=ORIENTED_EDGE('',*,*,#450,.F.);
#315=ORIENTED_EDGE('',*,*,#471,.F.);
#316=ORIENTED_EDGE('',*,*,#462,.F.);
#317=ORIENTED_EDGE('',*,*,#412,.F.);
#318=ORIENTED_EDGE('',*,*,#466,.F.);
#319=ORIENTED_EDGE('',*,*,#475,.F.);
#320=ORIENTED_EDGE('',*,*,#371,.F.);
#321=ORIENTED_EDGE('',*,*,#386,.F.);
#322=ORIENTED_EDGE('',*,*,#421,.F.);
#323=ORIENTED_EDGE('',*,*,#391,.F.);
#324=ORIENTED_EDGE('',*,*,#377,.F.);
#325=ORIENTED_EDGE('',*,*,#396,.F.);
#326=ORIENTED_EDGE('',*,*,#399,.F.);
#327=ORIENTED_EDGE('',*,*,#379,.F.);
#328=ORIENTED_EDGE('',*,*,#496,.T.);
#329=ORIENTED_EDGE('',*,*,#497,.T.);
#330=ORIENTED_EDGE('',*,*,#498,.T.);
#331=ORIENTED_EDGE('',*,*,#499,.T.);
#332=ORIENTED_EDGE('',*,*,#500,.T.);
#333=ORIENTED_EDGE('',*,*,#501,.T.);
#334=ORIENTED_EDGE('',*,*,#502,.T.);
#335=ORIENTED_EDGE('',*,*,#503,.T.);
#336=ORIENTED_EDGE('',*,*,#378,.F.);
#337=ORIENTED_EDGE('',*,*,#500,.F.);
#338=ORIENTED_EDGE('',*,*,#502,.F.);
#339=ORIENTED_EDGE('',*,*,#384,.F.);
#340=ORIENTED_EDGE('',*,*,#501,.F.);
#341=ORIENTED_EDGE('',*,*,#394,.F.);
#342=ORIENTED_EDGE('',*,*,#390,.F.);
#343=ORIENTED_EDGE('',*,*,#503,.F.);
#344=ORIENTED_EDGE('',*,*,#498,.F.);
#345=ORIENTED_EDGE('',*,*,#449,.F.);
#346=ORIENTED_EDGE('',*,*,#461,.F.);
#347=ORIENTED_EDGE('',*,*,#496,.F.);
#348=ORIENTED_EDGE('',*,*,#444,.F.);
#349=ORIENTED_EDGE('',*,*,#499,.F.);
#350=ORIENTED_EDGE('',*,*,#497,.F.);
#351=ORIENTED_EDGE('',*,*,#465,.F.);
#352=ORIENTED_EDGE('',*,*,#389,.F.);
#353=ORIENTED_EDGE('',*,*,#494,.F.);
#354=ORIENTED_EDGE('',*,*,#381,.F.);
#355=ORIENTED_EDGE('',*,*,#398,.F.);
#356=ORIENTED_EDGE('',*,*,#387,.F.);
#357=ORIENTED_EDGE('',*,*,#369,.F.);
#358=ORIENTED_EDGE('',*,*,#383,.F.);
#359=ORIENTED_EDGE('',*,*,#495,.F.);
#360=ORIENTED_EDGE('',*,*,#447,.F.);
#361=ORIENTED_EDGE('',*,*,#470,.F.);
#362=ORIENTED_EDGE('',*,*,#468,.F.);
#363=ORIENTED_EDGE('',*,*,#441,.F.);
#364=ORIENTED_EDGE('',*,*,#448,.F.);
#365=ORIENTED_EDGE('',*,*,#443,.F.);
#366=ORIENTED_EDGE('',*,*,#467,.F.);
#367=ORIENTED_EDGE('',*,*,#410,.F.);
#368=EDGE_CURVE('',#504,#505,#600,.T.);
#369=EDGE_CURVE('',#504,#506,#601,.T.);
#370=EDGE_CURVE('',#506,#507,#602,.T.);
#371=EDGE_CURVE('',#507,#508,#603,.T.);
#372=EDGE_CURVE('',#509,#508,#604,.T.);
#373=EDGE_CURVE('',#509,#510,#54,.T.);
#374=EDGE_CURVE('',#510,#511,#605,.F.);
#375=EDGE_CURVE('',#511,#512,#55,.T.);
#376=EDGE_CURVE('',#512,#513,#606,.T.);
#377=EDGE_CURVE('',#513,#505,#607,.T.);
#378=EDGE_CURVE('',#514,#514,#56,.F.);
#379=EDGE_CURVE('',#505,#515,#57,.T.);
#380=EDGE_CURVE('',#516,#515,#608,.T.);
#381=EDGE_CURVE('',#516,#517,#609,.T.);
#382=EDGE_CURVE('',#518,#517,#610,.T.);
#383=EDGE_CURVE('',#518,#504,#611,.F.);
#384=EDGE_CURVE('',#519,#519,#58,.T.);
#385=EDGE_CURVE('',#520,#521,#612,.T.);
#386=EDGE_CURVE('',#521,#507,#59,.F.);
#387=EDGE_CURVE('',#506,#522,#613,.F.);
#388=EDGE_CURVE('',#522,#523,#614,.T.);
#389=EDGE_CURVE('',#523,#520,#615,.T.);
#390=EDGE_CURVE('',#524,#524,#60,.F.);
#391=EDGE_CURVE('',#508,#525,#61,.T.);
#392=EDGE_CURVE('',#526,#525,#616,.T.);
#393=EDGE_CURVE('',#526,#509,#617,.F.);
#394=EDGE_CURVE('',#527,#527,#62,.T.);
#395=EDGE_CURVE('',#528,#529,#618,.T.);
#396=EDGE_CURVE('',#529,#513,#63,.F.);
#397=EDGE_CURVE('',#512,#528,#619,.T.);
#398=EDGE_CURVE('',#520,#516,#620,.T.);
#399=EDGE_CURVE('',#515,#529,#621,.F.);
#400=EDGE_CURVE('',#528,#530,#64,.F.);
#401=EDGE_CURVE('',#530,#531,#622,.T.);
#402=EDGE_CURVE('',#531,#532,#65,.T.);
#403=EDGE_CURVE('',#533,#532,#623,.T.);
#404=EDGE_CURVE('',#533,#534,#66,.T.);
#405=EDGE_CURVE('',#534,#535,#624,.T.);
#406=EDGE_CURVE('',#535,#536,#67,.F.);
#407=EDGE_CURVE('',#537,#536,#625,.T.);
#408=EDGE_CURVE('',#537,#538,#626,.T.);
#409=EDGE_CURVE('',#538,#539,#627,.T.);
#410=EDGE_CURVE('',#539,#540,#628,.T.);
#411=EDGE_CURVE('',#541,#540,#629,.T.);
#412=EDGE_CURVE('',#541,#542,#630,.T.);
#413=EDGE_CURVE('',#542,#543,#631,.T.);
#414=EDGE_CURVE('',#543,#544,#68,.F.);
#415=EDGE_CURVE('',#545,#544,#632,.T.);
#416=EDGE_CURVE('',#545,#546,#69,.T.);
#417=EDGE_CURVE('',#546,#547,#633,.T.);
#418=EDGE_CURVE('',#547,#548,#70,.T.);
#419=EDGE_CURVE('',#549,#548,#634,.T.);
#420=EDGE_CURVE('',#549,#526,#71,.F.);
#421=EDGE_CURVE('',#525,#521,#635,.F.);
#422=EDGE_CURVE('',#548,#550,#636,.F.);
#423=EDGE_CURVE('',#550,#551,#48,.F.);
#424=EDGE_CURVE('',#551,#549,#637,.T.);
#425=EDGE_CURVE('',#552,#553,#638,.T.);
#426=EDGE_CURVE('',#553,#547,#639,.T.);
#427=EDGE_CURVE('',#546,#554,#640,.F.);
#428=EDGE_CURVE('',#554,#555,#72,.T.);
#429=EDGE_CURVE('',#555,#556,#641,.T.);
#430=EDGE_CURVE('',#556,#552,#73,.F.);
#431=EDGE_CURVE('',#532,#557,#642,.F.);
#432=EDGE_CURVE('',#558,#557,#643,.T.);
#433=EDGE_CURVE('',#558,#559,#74,.T.);
#434=EDGE_CURVE('',#559,#560,#644,.T.);
#435=EDGE_CURVE('',#560,#561,#75,.F.);
#436=EDGE_CURVE('',#561,#533,#645,.T.);
#437=EDGE_CURVE('',#530,#562,#646,.F.);
#438=EDGE_CURVE('',#562,#563,#49,.T.);
#439=EDGE_CURVE('',#563,#531,#647,.T.);
#440=EDGE_CURVE('',#564,#565,#648,.T.);
#441=EDGE_CURVE('',#564,#566,#649,.T.);
#442=EDGE_CURVE('',#566,#567,#650,.T.);
#443=EDGE_CURVE('',#567,#565,#651,.T.);
#444=EDGE_CURVE('',#568,#568,#76,.F.);
#445=EDGE_CURVE('',#538,#569,#77,.T.);
#446=EDGE_CURVE('',#569,#570,#652,.T.);
#447=EDGE_CURVE('',#570,#564,#653,.F.);
#448=EDGE_CURVE('',#565,#539,#654,.T.);
#449=EDGE_CURVE('',#571,#571,#78,.T.);
#450=EDGE_CURVE('',#572,#537,#79,.F.);
#451=EDGE_CURVE('',#536,#573,#655,.F.);
#452=EDGE_CURVE('',#572,#573,#656,.T.);
#453=EDGE_CURVE('',#574,#575,#657,.T.);
#454=EDGE_CURVE('',#575,#535,#658,.T.);
#455=EDGE_CURVE('',#534,#576,#659,.F.);
#456=EDGE_CURVE('',#576,#574,#50,.T.);
#457=EDGE_CURVE('',#544,#577,#660,.F.);
#458=EDGE_CURVE('',#578,#577,#661,.T.);
#459=EDGE_CURVE('',#578,#579,#51,.F.);
#460=EDGE_CURVE('',#579,#545,#662,.T.);
#461=EDGE_CURVE('',#580,#580,#80,.F.);
#462=EDGE_CURVE('',#542,#581,#81,.T.);
#463=EDGE_CURVE('',#581,#582,#663,.T.);
#464=EDGE_CURVE('',#582,#543,#664,.T.);
#465=EDGE_CURVE('',#583,#583,#82,.T.);
#466=EDGE_CURVE('',#584,#541,#83,.F.);
#467=EDGE_CURVE('',#540,#567,#665,.T.);
#468=EDGE_CURVE('',#566,#585,#666,.F.);
#469=EDGE_CURVE('',#584,#585,#667,.T.);
#470=EDGE_CURVE('',#585,#570,#668,.T.);
#471=EDGE_CURVE('',#569,#572,#669,.F.);
#472=EDGE_CURVE('',#573,#575,#84,.T.);
#473=EDGE_CURVE('',#574,#578,#670,.T.);
#474=EDGE_CURVE('',#577,#582,#85,.T.);
#475=EDGE_CURVE('',#581,#584,#671,.F.);
#476=EDGE_CURVE('',#552,#558,#672,.T.);
#477=EDGE_CURVE('',#557,#586,#86,.F.);
#478=EDGE_CURVE('',#586,#587,#673,.F.);
#479=EDGE_CURVE('',#587,#553,#87,.F.);
#480=EDGE_CURVE('',#555,#560,#674,.F.);
#481=EDGE_CURVE('',#559,#556,#675,.F.);
#482=EDGE_CURVE('',#588,#589,#676,.F.);
#483=EDGE_CURVE('',#589,#590,#52,.T.);
#484=EDGE_CURVE('',#590,#591,#677,.F.);
#485=EDGE_CURVE('',#591,#588,#53,.T.);
#486=EDGE_CURVE('',#554,#579,#20,.T.);
#487=EDGE_CURVE('',#576,#561,#21,.T.);
#488=EDGE_CURVE('',#586,#591,#22,.T.);
#489=EDGE_CURVE('',#590,#587,#23,.T.);
#490=EDGE_CURVE('',#562,#511,#24,.T.);
#491=EDGE_CURVE('',#510,#551,#25,.T.);
#492=EDGE_CURVE('',#550,#589,#26,.T.);
#493=EDGE_CURVE('',#588,#563,#27,.T.);
#494=EDGE_CURVE('',#517,#523,#678,.T.);
#495=EDGE_CURVE('',#522,#518,#679,.T.);
#496=EDGE_CURVE('',#592,#592,#88,.T.);
#497=EDGE_CURVE('',#593,#593,#89,.F.);
#498=EDGE_CURVE('',#594,#594,#90,.F.);
#499=EDGE_CURVE('',#595,#595,#91,.T.);
#500=EDGE_CURVE('',#596,#596,#92,.T.);
#501=EDGE_CURVE('',#597,#597,#93,.F.);
#502=EDGE_CURVE('',#598,#598,#94,.F.);
#503=EDGE_CURVE('',#599,#599,#95,.T.);
#504=VERTEX_POINT('',#1392);
#505=VERTEX_POINT('',#1393);
#506=VERTEX_POINT('',#1395);
#507=VERTEX_POINT('',#1397);
#508=VERTEX_POINT('',#1399);
#509=VERTEX_POINT('',#1401);
#510=VERTEX_POINT('',#1403);
#511=VERTEX_POINT('',#1405);
#512=VERTEX_POINT('',#1407);
#513=VERTEX_POINT('',#1409);
#514=VERTEX_POINT('',#1413);
#515=VERTEX_POINT('',#1415);
#516=VERTEX_POINT('',#1417);
#517=VERTEX_POINT('',#1419);
#518=VERTEX_POINT('',#1421);
#519=VERTEX_POINT('',#1425);
#520=VERTEX_POINT('',#1427);
#521=VERTEX_POINT('',#1428);
#522=VERTEX_POINT('',#1431);
#523=VERTEX_POINT('',#1433);
#524=VERTEX_POINT('',#1437);
#525=VERTEX_POINT('',#1439);
#526=VERTEX_POINT('',#1441);
#527=VERTEX_POINT('',#1445);
#528=VERTEX_POINT('',#1447);
#529=VERTEX_POINT('',#1448);
#530=VERTEX_POINT('',#1455);
#531=VERTEX_POINT('',#1457);
#532=VERTEX_POINT('',#1459);
#533=VERTEX_POINT('',#1461);
#534=VERTEX_POINT('',#1463);
#535=VERTEX_POINT('',#1465);
#536=VERTEX_POINT('',#1467);
#537=VERTEX_POINT('',#1469);
#538=VERTEX_POINT('',#1471);
#539=VERTEX_POINT('',#1473);
#540=VERTEX_POINT('',#1475);
#541=VERTEX_POINT('',#1477);
#542=VERTEX_POINT('',#1479);
#543=VERTEX_POINT('',#1481);
#544=VERTEX_POINT('',#1483);
#545=VERTEX_POINT('',#1485);
#546=VERTEX_POINT('',#1487);
#547=VERTEX_POINT('',#1489);
#548=VERTEX_POINT('',#1491);
#549=VERTEX_POINT('',#1493);
#550=VERTEX_POINT('',#1498);
#551=VERTEX_POINT('',#1500);
#552=VERTEX_POINT('',#1504);
#553=VERTEX_POINT('',#1505);
#554=VERTEX_POINT('',#1508);
#555=VERTEX_POINT('',#1510);
#556=VERTEX_POINT('',#1512);
#557=VERTEX_POINT('',#1516);
#558=VERTEX_POINT('',#1518);
#559=VERTEX_POINT('',#1520);
#560=VERTEX_POINT('',#1522);
#561=VERTEX_POINT('',#1524);
#562=VERTEX_POINT('',#1528);
#563=VERTEX_POINT('',#1530);
#564=VERTEX_POINT('',#1534);
#565=VERTEX_POINT('',#1535);
#566=VERTEX_POINT('',#1537);
#567=VERTEX_POINT('',#1539);
#568=VERTEX_POINT('',#1543);
#569=VERTEX_POINT('',#1545);
#570=VERTEX_POINT('',#1547);
#571=VERTEX_POINT('',#1552);
#572=VERTEX_POINT('',#1554);
#573=VERTEX_POINT('',#1556);
#574=VERTEX_POINT('',#1560);
#575=VERTEX_POINT('',#1561);
#576=VERTEX_POINT('',#1564);
#577=VERTEX_POINT('',#1568);
#578=VERTEX_POINT('',#1570);
#579=VERTEX_POINT('',#1572);
#580=VERTEX_POINT('',#1576);
#581=VERTEX_POINT('',#1578);
#582=VERTEX_POINT('',#1580);
#583=VERTEX_POINT('',#1584);
#584=VERTEX_POINT('',#1586);
#585=VERTEX_POINT('',#1589);
#586=VERTEX_POINT('',#1601);
#587=VERTEX_POINT('',#1603);
#588=VERTEX_POINT('',#1610);
#589=VERTEX_POINT('',#1611);
#590=VERTEX_POINT('',#1613);
#591=VERTEX_POINT('',#1615);
#592=VERTEX_POINT('',#1674);
#593=VERTEX_POINT('',#1676);
#594=VERTEX_POINT('',#1679);
#595=VERTEX_POINT('',#1681);
#596=VERTEX_POINT('',#1684);
#597=VERTEX_POINT('',#1686);
#598=VERTEX_POINT('',#1689);
#599=VERTEX_POINT('',#1691);
#600=LINE('',#1391,#680);
#601=LINE('',#1394,#681);
#602=LINE('',#1396,#682);
#603=LINE('',#1398,#683);
#604=LINE('',#1400,#684);
#605=LINE('',#1404,#685);
#606=LINE('',#1408,#686);
#607=LINE('',#1410,#687);
#608=LINE('',#1416,#688);
#609=LINE('',#1418,#689);
#610=LINE('',#1420,#690);
#611=LINE('',#1422,#691);
#612=LINE('',#1426,#692);
#613=LINE('',#1430,#693);
#614=LINE('',#1432,#694);
#615=LINE('',#1434,#695);
#616=LINE('',#1440,#696);
#617=LINE('',#1442,#697);
#618=LINE('',#1446,#698);
#619=LINE('',#1450,#699);
#620=LINE('',#1452,#700);
#621=LINE('',#1453,#701);
#622=LINE('',#1456,#702);
#623=LINE('',#1460,#703);
#624=LINE('',#1464,#704);
#625=LINE('',#1468,#705);
#626=LINE('',#1470,#706);
#627=LINE('',#1472,#707);
#628=LINE('',#1474,#708);
#629=LINE('',#1476,#709);
#630=LINE('',#1478,#710);
#631=LINE('',#1480,#711);
#632=LINE('',#1484,#712);
#633=LINE('',#1488,#713);
#634=LINE('',#1492,#714);
#635=LINE('',#1495,#715);
#636=LINE('',#1497,#716);
#637=LINE('',#1501,#717);
#638=LINE('',#1503,#718);
#639=LINE('',#1506,#719);
#640=LINE('',#1507,#720);
#641=LINE('',#1511,#721);
#642=LINE('',#1515,#722);
#643=LINE('',#1517,#723);
#644=LINE('',#1521,#724);
#645=LINE('',#1525,#725);
#646=LINE('',#1527,#726);
#647=LINE('',#1531,#727);
#648=LINE('',#1533,#728);
#649=LINE('',#1536,#729);
#650=LINE('',#1538,#730);
#651=LINE('',#1540,#731);
#652=LINE('',#1546,#732);
#653=LINE('',#1548,#733);
#654=LINE('',#1549,#734);
#655=LINE('',#1555,#735);
#656=LINE('',#1557,#736);
#657=LINE('',#1559,#737);
#658=LINE('',#1562,#738);
#659=LINE('',#1563,#739);
#660=LINE('',#1567,#740);
#661=LINE('',#1569,#741);
#662=LINE('',#1573,#742);
#663=LINE('',#1579,#743);
#664=LINE('',#1581,#744);
#665=LINE('',#1587,#745);
#666=LINE('',#1588,#746);
#667=LINE('',#1590,#747);
#668=LINE('',#1592,#748);
#669=LINE('',#1593,#749);
#670=LINE('',#1595,#750);
#671=LINE('',#1597,#751);
#672=LINE('',#1599,#752);
#673=LINE('',#1602,#753);
#674=LINE('',#1606,#754);
#675=LINE('',#1607,#755);
#676=LINE('',#1609,#756);
#677=LINE('',#1614,#757);
#678=LINE('',#1666,#758);
#679=LINE('',#1667,#759);
#680=VECTOR('',#1107,1.);
#681=VECTOR('',#1108,1.);
#682=VECTOR('',#1109,1.);
#683=VECTOR('',#1110,1.);
#684=VECTOR('',#1111,1.);
#685=VECTOR('',#1114,1.);
#686=VECTOR('',#1117,1.);
#687=VECTOR('',#1118,1.);
#688=VECTOR('',#1125,1.);
#689=VECTOR('',#1126,1.);
#690=VECTOR('',#1127,1.);
#691=VECTOR('',#1128,1.);
#692=VECTOR('',#1133,1.);
#693=VECTOR('',#1136,1.);
#694=VECTOR('',#1137,1.);
#695=VECTOR('',#1138,1.);
#696=VECTOR('',#1145,1.);
#697=VECTOR('',#1146,1.);
#698=VECTOR('',#1151,1.);
#699=VECTOR('',#1154,1.);
#700=VECTOR('',#1157,1.);
#701=VECTOR('',#1158,1.);
#702=VECTOR('',#1161,1.);
#703=VECTOR('',#1164,1.);
#704=VECTOR('',#1167,1.);
#705=VECTOR('',#1170,1.);
#706=VECTOR('',#1171,1.);
#707=VECTOR('',#1172,1.);
#708=VECTOR('',#1173,1.);
#709=VECTOR('',#1174,1.);
#710=VECTOR('',#1175,1.);
#711=VECTOR('',#1176,1.);
#712=VECTOR('',#1179,1.);
#713=VECTOR('',#1182,1.);
#714=VECTOR('',#1185,1.);
#715=VECTOR('',#1188,1.);
#716=VECTOR('',#1191,1.);
#717=VECTOR('',#1194,1.);
#718=VECTOR('',#1197,1.);
#719=VECTOR('',#1198,1.);
#720=VECTOR('',#1199,1.);
#721=VECTOR('',#1202,1.);
#722=VECTOR('',#1207,1.);
#723=VECTOR('',#1208,1.);
#724=VECTOR('',#1211,1.);
#725=VECTOR('',#1214,1.);
#726=VECTOR('',#1217,1.);
#727=VECTOR('',#1220,1.);
#728=VECTOR('',#1223,1.);
#729=VECTOR('',#1224,1.);
#730=VECTOR('',#1225,1.);
#731=VECTOR('',#1226,1.);
#732=VECTOR('',#1233,1.);
#733=VECTOR('',#1234,1.);
#734=VECTOR('',#1235,1.);
#735=VECTOR('',#1242,1.);
#736=VECTOR('',#1243,1.);
#737=VECTOR('',#1246,1.);
#738=VECTOR('',#1247,1.);
#739=VECTOR('',#1248,1.);
#740=VECTOR('',#1253,1.);
#741=VECTOR('',#1254,1.);
#742=VECTOR('',#1257,1.);
#743=VECTOR('',#1264,1.);
#744=VECTOR('',#1265,1.);
#745=VECTOR('',#1272,1.);
#746=VECTOR('',#1273,1.);
#747=VECTOR('',#1274,1.);
#748=VECTOR('',#1277,1.);
#749=VECTOR('',#1278,1.);
#750=VECTOR('',#1281,1.);
#751=VECTOR('',#1284,1.);
#752=VECTOR('',#1287,1.);
#753=VECTOR('',#1290,1.);
#754=VECTOR('',#1295,1.);
#755=VECTOR('',#1296,1.);
#756=VECTOR('',#1299,1.);
#757=VECTOR('',#1302,1.);
#758=VECTOR('',#1331,1.);
#759=VECTOR('',#1332,1.);
#760=EDGE_LOOP('',(#96,#97,#98,#99,#100,#101,#102,#103,#104,#105));
#761=EDGE_LOOP('',(#106));
#762=EDGE_LOOP('',(#107,#108,#109,#110,#111,#112));
#763=EDGE_LOOP('',(#113));
#764=EDGE_LOOP('',(#114,#115,#116,#117,#118,#119));
#765=EDGE_LOOP('',(#120));
#766=EDGE_LOOP('',(#121,#122,#123,#124));
#767=EDGE_LOOP('',(#125));
#768=EDGE_LOOP('',(#126,#127,#128,#129));
#769=EDGE_LOOP('',(#130,#131,#132,#133,#134,#135,#136,#137,#138,#139,#140,
#141,#142,#143,#144,#145,#146,#147,#148,#149,#150,#151,#152,#153,#154,#155,
#156,#157));
#770=EDGE_LOOP('',(#158,#159,#160,#161));
#771=EDGE_LOOP('',(#162,#163,#164,#165,#166,#167,#168));
#772=EDGE_LOOP('',(#169,#170,#171,#172,#173,#174,#175));
#773=EDGE_LOOP('',(#176,#177,#178,#179));
#774=EDGE_LOOP('',(#180,#181,#182,#183));
#775=EDGE_LOOP('',(#184));
#776=EDGE_LOOP('',(#185,#186,#187,#188,#189,#190));
#777=EDGE_LOOP('',(#191));
#778=EDGE_LOOP('',(#192,#193,#194,#195));
#779=EDGE_LOOP('',(#196,#197,#198,#199,#200));
#780=EDGE_LOOP('',(#201,#202,#203,#204,#205));
#781=EDGE_LOOP('',(#206));
#782=EDGE_LOOP('',(#207,#208,#209,#210));
#783=EDGE_LOOP('',(#211));
#784=EDGE_LOOP('',(#212,#213,#214,#215,#216,#217));
#785=EDGE_LOOP('',(#218,#219,#220,#221,#222,#223,#224,#225,#226,#227,#228,
#229));
#786=EDGE_LOOP('',(#230,#231,#232,#233,#234,#235));
#787=EDGE_LOOP('',(#236,#237,#238,#239));
#788=EDGE_LOOP('',(#240,#241,#242,#243));
#789=EDGE_LOOP('',(#244,#245,#246,#247,#248,#249,#250,#251));
#790=EDGE_LOOP('',(#252,#253,#254,#255));
#791=EDGE_LOOP('',(#256,#257,#258,#259));
#792=EDGE_LOOP('',(#260,#261,#262,#263,#264,#265,#266,#267));
#793=EDGE_LOOP('',(#268,#269,#270,#271));
#794=EDGE_LOOP('',(#272,#273,#274,#275));
#795=EDGE_LOOP('',(#276,#277,#278,#279));
#796=EDGE_LOOP('',(#280,#281,#282,#283));
#797=EDGE_LOOP('',(#284,#285,#286,#287,#288));
#798=EDGE_LOOP('',(#289,#290,#291,#292,#293,#294,#295));
#799=EDGE_LOOP('',(#296,#297,#298,#299,#300,#301,#302));
#800=EDGE_LOOP('',(#303,#304,#305,#306,#307));
#801=EDGE_LOOP('',(#308,#309,#310,#311));
#802=EDGE_LOOP('',(#312,#313,#314,#315));
#803=EDGE_LOOP('',(#316,#317,#318,#319));
#804=EDGE_LOOP('',(#320,#321,#322,#323));
#805=EDGE_LOOP('',(#324,#325,#326,#327));
#806=EDGE_LOOP('',(#328));
#807=EDGE_LOOP('',(#329));
#808=EDGE_LOOP('',(#330));
#809=EDGE_LOOP('',(#331));
#810=EDGE_LOOP('',(#332));
#811=EDGE_LOOP('',(#333));
#812=EDGE_LOOP('',(#334));
#813=EDGE_LOOP('',(#335));
#814=EDGE_LOOP('',(#336));
#815=EDGE_LOOP('',(#337));
#816=EDGE_LOOP('',(#338));
#817=EDGE_LOOP('',(#339));
#818=EDGE_LOOP('',(#340));
#819=EDGE_LOOP('',(#341));
#820=EDGE_LOOP('',(#342));
#821=EDGE_LOOP('',(#343));
#822=EDGE_LOOP('',(#344));
#823=EDGE_LOOP('',(#345));
#824=EDGE_LOOP('',(#346));
#825=EDGE_LOOP('',(#347));
#826=EDGE_LOOP('',(#348));
#827=EDGE_LOOP('',(#349));
#828=EDGE_LOOP('',(#350));
#829=EDGE_LOOP('',(#351));
#830=EDGE_LOOP('',(#352,#353,#354,#355));
#831=EDGE_LOOP('',(#356,#357,#358,#359));
#832=EDGE_LOOP('',(#360,#361,#362,#363));
#833=EDGE_LOOP('',(#364,#365,#366,#367));
#834=FACE_BOUND('',#760,.T.);
#835=FACE_BOUND('',#761,.T.);
#836=FACE_BOUND('',#762,.T.);
#837=FACE_BOUND('',#763,.T.);
#838=FACE_BOUND('',#764,.T.);
#839=FACE_BOUND('',#765,.T.);
#840=FACE_BOUND('',#766,.T.);
#841=FACE_BOUND('',#767,.T.);
#842=FACE_BOUND('',#768,.T.);
#843=FACE_BOUND('',#769,.T.);
#844=FACE_BOUND('',#770,.T.);
#845=FACE_BOUND('',#771,.T.);
#846=FACE_BOUND('',#772,.T.);
#847=FACE_BOUND('',#773,.T.);
#848=FACE_BOUND('',#774,.T.);
#849=FACE_BOUND('',#775,.T.);
#850=FACE_BOUND('',#776,.T.);
#851=FACE_BOUND('',#777,.T.);
#852=FACE_BOUND('',#778,.T.);
#853=FACE_BOUND('',#779,.T.);
#854=FACE_BOUND('',#780,.T.);
#855=FACE_BOUND('',#781,.T.);
#856=FACE_BOUND('',#782,.T.);
#857=FACE_BOUND('',#783,.T.);
#858=FACE_BOUND('',#784,.T.);
#859=FACE_BOUND('',#785,.T.);
#860=FACE_BOUND('',#786,.T.);
#861=FACE_BOUND('',#787,.T.);
#862=FACE_BOUND('',#788,.T.);
#863=FACE_BOUND('',#789,.T.);
#864=FACE_BOUND('',#790,.T.);
#865=FACE_BOUND('',#791,.T.);
#866=FACE_BOUND('',#792,.T.);
#867=FACE_BOUND('',#793,.T.);
#868=FACE_BOUND('',#794,.T.);
#869=FACE_BOUND('',#795,.T.);
#870=FACE_BOUND('',#796,.T.);
#871=FACE_BOUND('',#797,.T.);
#872=FACE_BOUND('',#798,.T.);
#873=FACE_BOUND('',#799,.T.);
#874=FACE_BOUND('',#800,.T.);
#875=FACE_BOUND('',#801,.T.);
#876=FACE_BOUND('',#802,.T.);
#877=FACE_BOUND('',#803,.T.);
#878=FACE_BOUND('',#804,.T.);
#879=FACE_BOUND('',#805,.T.);
#880=FACE_BOUND('',#806,.T.);
#881=FACE_BOUND('',#807,.T.);
#882=FACE_BOUND('',#808,.T.);
#883=FACE_BOUND('',#809,.T.);
#884=FACE_BOUND('',#810,.T.);
#885=FACE_BOUND('',#811,.T.);
#886=FACE_BOUND('',#812,.T.);
#887=FACE_BOUND('',#813,.T.);
#888=FACE_BOUND('',#814,.T.);
#889=FACE_BOUND('',#815,.T.);
#890=FACE_BOUND('',#816,.T.);
#891=FACE_BOUND('',#817,.T.);
#892=FACE_BOUND('',#818,.T.);
#893=FACE_BOUND('',#819,.T.);
#894=FACE_BOUND('',#820,.T.);
#895=FACE_BOUND('',#821,.T.);
#896=FACE_BOUND('',#822,.T.);
#897=FACE_BOUND('',#823,.T.);
#898=FACE_BOUND('',#824,.T.);
#899=FACE_BOUND('',#825,.T.);
#900=FACE_BOUND('',#826,.T.);
#901=FACE_BOUND('',#827,.T.);
#902=FACE_BOUND('',#828,.T.);
#903=FACE_BOUND('',#829,.T.);
#904=FACE_BOUND('',#830,.T.);
#905=FACE_BOUND('',#831,.T.);
#906=FACE_BOUND('',#832,.T.);
#907=FACE_BOUND('',#833,.T.);
#908=PLANE('',#1001);
#909=PLANE('',#1004);
#910=PLANE('',#1007);
#911=PLANE('',#1010);
#912=PLANE('',#1013);
#913=PLANE('',#1016);
#914=PLANE('',#1025);
#915=PLANE('',#1027);
#916=PLANE('',#1030);
#917=PLANE('',#1033);
#918=PLANE('',#1035);
#919=PLANE('',#1036);
#920=PLANE('',#1039);
#921=PLANE('',#1042);
#922=PLANE('',#1044);
#923=PLANE('',#1046);
#924=PLANE('',#1049);
#925=PLANE('',#1052);
#926=PLANE('',#1055);
#927=PLANE('',#1058);
#928=PLANE('',#1059);
#929=PLANE('',#1074);
#930=PLANE('',#1099);
#931=PLANE('',#1100);
#932=PLANE('',#1101);
#933=PLANE('',#1102);
#934=ADVANCED_FACE('',(#834),#908,.T.);
#935=ADVANCED_FACE('',(#835,#836),#909,.T.);
#936=ADVANCED_FACE('',(#837,#838),#910,.F.);
#937=ADVANCED_FACE('',(#839,#840),#911,.T.);
#938=ADVANCED_FACE('',(#841,#842),#912,.F.);
#939=ADVANCED_FACE('',(#843),#913,.F.);
#940=ADVANCED_FACE('',(#844),#914,.F.);
#941=ADVANCED_FACE('',(#845),#915,.T.);
#942=ADVANCED_FACE('',(#846),#916,.F.);
#943=ADVANCED_FACE('',(#847),#917,.T.);
#944=ADVANCED_FACE('',(#848),#918,.T.);
#945=ADVANCED_FACE('',(#849,#850),#919,.T.);
#946=ADVANCED_FACE('',(#851,#852),#920,.F.);
#947=ADVANCED_FACE('',(#853),#921,.T.);
#948=ADVANCED_FACE('',(#854),#922,.F.);
#949=ADVANCED_FACE('',(#855,#856),#923,.T.);
#950=ADVANCED_FACE('',(#857,#858),#924,.F.);
#951=ADVANCED_FACE('',(#859),#925,.T.);
#952=ADVANCED_FACE('',(#860),#926,.T.);
#953=ADVANCED_FACE('',(#861),#927,.T.);
#954=ADVANCED_FACE('',(#862),#928,.F.);
#955=ADVANCED_FACE('',(#863),#28,.T.);
#956=ADVANCED_FACE('',(#864),#29,.F.);
#957=ADVANCED_FACE('',(#865),#30,.F.);
#958=ADVANCED_FACE('',(#866),#31,.T.);
#959=ADVANCED_FACE('',(#867),#32,.T.);
#960=ADVANCED_FACE('',(#868),#33,.T.);
#961=ADVANCED_FACE('',(#869),#34,.F.);
#962=ADVANCED_FACE('',(#870),#35,.F.);
#963=ADVANCED_FACE('',(#871),#36,.T.);
#964=ADVANCED_FACE('',(#872),#37,.F.);
#965=ADVANCED_FACE('',(#873),#38,.F.);
#966=ADVANCED_FACE('',(#874),#39,.T.);
#967=ADVANCED_FACE('',(#875),#929,.T.);
#968=ADVANCED_FACE('',(#876),#40,.T.);
#969=ADVANCED_FACE('',(#877),#41,.T.);
#970=ADVANCED_FACE('',(#878),#42,.T.);
#971=ADVANCED_FACE('',(#879),#43,.T.);
#972=ADVANCED_FACE('',(#880,#881),#44,.F.);
#973=ADVANCED_FACE('',(#882,#883),#45,.F.);
#974=ADVANCED_FACE('',(#884,#885),#46,.F.);
#975=ADVANCED_FACE('',(#886,#887),#47,.F.);
#976=ADVANCED_FACE('',(#888,#889),#12,.F.);
#977=ADVANCED_FACE('',(#890,#891),#13,.F.);
#978=ADVANCED_FACE('',(#892,#893),#14,.F.);
#979=ADVANCED_FACE('',(#894,#895),#15,.F.);
#980=ADVANCED_FACE('',(#896,#897),#16,.F.);
#981=ADVANCED_FACE('',(#898,#899),#17,.F.);
#982=ADVANCED_FACE('',(#900,#901),#18,.F.);
#983=ADVANCED_FACE('',(#902,#903),#19,.F.);
#984=ADVANCED_FACE('',(#904),#930,.T.);
#985=ADVANCED_FACE('',(#905),#931,.F.);
#986=ADVANCED_FACE('',(#906),#932,.F.);
#987=ADVANCED_FACE('',(#907),#933,.T.);
#988=CLOSED_SHELL('',(#934,#935,#936,#937,#938,#939,#940,#941,#942,#943,
#944,#945,#946,#947,#948,#949,#950,#951,#952,#953,#954,#955,#956,#957,#958,
#959,#960,#961,#962,#963,#964,#965,#966,#967,#968,#969,#970,#971,#972,#973,
#974,#975,#976,#977,#978,#979,#980,#981,#982,#983,#984,#985,#986,#987));
#989=STYLED_ITEM('',(#990),#997);
#990=PRESENTATION_STYLE_ASSIGNMENT((#991));
#991=SURFACE_STYLE_USAGE(.BOTH.,#992);
#992=SURFACE_SIDE_STYLE('',(#993));
#993=SURFACE_STYLE_FILL_AREA(#994);
#994=FILL_AREA_STYLE('',(#995));
#995=FILL_AREA_STYLE_COLOUR('',#996);
#996=DRAUGHTING_PRE_DEFINED_COLOUR('black');
#997=MANIFOLD_SOLID_BREP('upper arm',#988);
#998=SHAPE_DEFINITION_REPRESENTATION(#1710,#999);
#999=SHAPE_REPRESENTATION('upper arm',(#1000),#1705);
#1000=AXIS2_PLACEMENT_3D('',#1389,#1103,#1104);
#1001=AXIS2_PLACEMENT_3D('',#1390,#1105,#1106);
#1002=AXIS2_PLACEMENT_3D('',#1402,#1112,#1113);
#1003=AXIS2_PLACEMENT_3D('',#1406,#1115,#1116);
#1004=AXIS2_PLACEMENT_3D('',#1411,#1119,#1120);
#1005=AXIS2_PLACEMENT_3D('',#1412,#1121,#1122);
#1006=AXIS2_PLACEMENT_3D('',#1414,#1123,#1124);
#1007=AXIS2_PLACEMENT_3D('',#1423,#1129,#1130);
#1008=AXIS2_PLACEMENT_3D('',#1424,#1131,#1132);
#1009=AXIS2_PLACEMENT_3D('',#1429,#1134,#1135);
#1010=AXIS2_PLACEMENT_3D('',#1435,#1139,#1140);
#1011=AXIS2_PLACEMENT_3D('',#1436,#1141,#1142);
#1012=AXIS2_PLACEMENT_3D('',#1438,#1143,#1144);
#1013=AXIS2_PLACEMENT_3D('',#1443,#1147,#1148);
#1014=AXIS2_PLACEMENT_3D('',#1444,#1149,#1150);
#1015=AXIS2_PLACEMENT_3D('',#1449,#1152,#1153);
#1016=AXIS2_PLACEMENT_3D('',#1451,#1155,#1156);
#1017=AXIS2_PLACEMENT_3D('',#1454,#1159,#1160);
#1018=AXIS2_PLACEMENT_3D('',#1458,#1162,#1163);
#1019=AXIS2_PLACEMENT_3D('',#1462,#1165,#1166);
#1020=AXIS2_PLACEMENT_3D('',#1466,#1168,#1169);
#1021=AXIS2_PLACEMENT_3D('',#1482,#1177,#1178);
#1022=AXIS2_PLACEMENT_3D('',#1486,#1180,#1181);
#1023=AXIS2_PLACEMENT_3D('',#1490,#1183,#1184);
#1024=AXIS2_PLACEMENT_3D('',#1494,#1186,#1187);
#1025=AXIS2_PLACEMENT_3D('',#1496,#1189,#1190);
#1026=AXIS2_PLACEMENT_3D('',#1499,#1192,#1193);
#1027=AXIS2_PLACEMENT_3D('',#1502,#1195,#1196);
#1028=AXIS2_PLACEMENT_3D('',#1509,#1200,#1201);
#1029=AXIS2_PLACEMENT_3D('',#1513,#1203,#1204);
#1030=AXIS2_PLACEMENT_3D('',#1514,#1205,#1206);
#1031=AXIS2_PLACEMENT_3D('',#1519,#1209,#1210);
#1032=AXIS2_PLACEMENT_3D('',#1523,#1212,#1213);
#1033=AXIS2_PLACEMENT_3D('',#1526,#1215,#1216);
#1034=AXIS2_PLACEMENT_3D('',#1529,#1218,#1219);
#1035=AXIS2_PLACEMENT_3D('',#1532,#1221,#1222);
#1036=AXIS2_PLACEMENT_3D('',#1541,#1227,#1228);
#1037=AXIS2_PLACEMENT_3D('',#1542,#1229,#1230);
#1038=AXIS2_PLACEMENT_3D('',#1544,#1231,#1232);
#1039=AXIS2_PLACEMENT_3D('',#1550,#1236,#1237);
#1040=AXIS2_PLACEMENT_3D('',#1551,#1238,#1239);
#1041=AXIS2_PLACEMENT_3D('',#1553,#1240,#1241);
#1042=AXIS2_PLACEMENT_3D('',#1558,#1244,#1245);
#1043=AXIS2_PLACEMENT_3D('',#1565,#1249,#1250);
#1044=AXIS2_PLACEMENT_3D('',#1566,#1251,#1252);
#1045=AXIS2_PLACEMENT_3D('',#1571,#1255,#1256);
#1046=AXIS2_PLACEMENT_3D('',#1574,#1258,#1259);
#1047=AXIS2_PLACEMENT_3D('',#1575,#1260,#1261);
#1048=AXIS2_PLACEMENT_3D('',#1577,#1262,#1263);
#1049=AXIS2_PLACEMENT_3D('',#1582,#1266,#1267);
#1050=AXIS2_PLACEMENT_3D('',#1583,#1268,#1269);
#1051=AXIS2_PLACEMENT_3D('',#1585,#1270,#1271);
#1052=AXIS2_PLACEMENT_3D('',#1591,#1275,#1276);
#1053=AXIS2_PLACEMENT_3D('',#1594,#1279,#1280);
#1054=AXIS2_PLACEMENT_3D('',#1596,#1282,#1283);
#1055=AXIS2_PLACEMENT_3D('',#1598,#1285,#1286);
#1056=AXIS2_PLACEMENT_3D('',#1600,#1288,#1289);
#1057=AXIS2_PLACEMENT_3D('',#1604,#1291,#1292);
#1058=AXIS2_PLACEMENT_3D('',#1605,#1293,#1294);
#1059=AXIS2_PLACEMENT_3D('',#1608,#1297,#1298);
#1060=AXIS2_PLACEMENT_3D('',#1612,#1300,#1301);
#1061=AXIS2_PLACEMENT_3D('',#1616,#1303,#1304);
#1062=AXIS2_PLACEMENT_3D('',#1617,#1305,#1306);
#1063=AXIS2_PLACEMENT_3D('',#1630,#1307,#1308);
#1064=AXIS2_PLACEMENT_3D('',#1631,#1309,#1310);
#1065=AXIS2_PLACEMENT_3D('',#1640,#1311,#1312);
#1066=AXIS2_PLACEMENT_3D('',#1657,#1313,#1314);
#1067=AXIS2_PLACEMENT_3D('',#1658,#1315,#1316);
#1068=AXIS2_PLACEMENT_3D('',#1659,#1317,#1318);
#1069=AXIS2_PLACEMENT_3D('',#1660,#1319,#1320);
#1070=AXIS2_PLACEMENT_3D('',#1661,#1321,#1322);
#1071=AXIS2_PLACEMENT_3D('',#1662,#1323,#1324);
#1072=AXIS2_PLACEMENT_3D('',#1663,#1325,#1326);
#1073=AXIS2_PLACEMENT_3D('',#1664,#1327,#1328);
#1074=AXIS2_PLACEMENT_3D('',#1665,#1329,#1330);
#1075=AXIS2_PLACEMENT_3D('',#1668,#1333,#1334);
#1076=AXIS2_PLACEMENT_3D('',#1669,#1335,#1336);
#1077=AXIS2_PLACEMENT_3D('',#1670,#1337,#1338);
#1078=AXIS2_PLACEMENT_3D('',#1671,#1339,#1340);
#1079=AXIS2_PLACEMENT_3D('',#1672,#1341,#1342);
#1080=AXIS2_PLACEMENT_3D('',#1673,#1343,#1344);
#1081=AXIS2_PLACEMENT_3D('',#1675,#1345,#1346);
#1082=AXIS2_PLACEMENT_3D('',#1677,#1347,#1348);
#1083=AXIS2_PLACEMENT_3D('',#1678,#1349,#1350);
#1084=AXIS2_PLACEMENT_3D('',#1680,#1351,#1352);
#1085=AXIS2_PLACEMENT_3D('',#1682,#1353,#1354);
#1086=AXIS2_PLACEMENT_3D('',#1683,#1355,#1356);
#1087=AXIS2_PLACEMENT_3D('',#1685,#1357,#1358);
#1088=AXIS2_PLACEMENT_3D('',#1687,#1359,#1360);
#1089=AXIS2_PLACEMENT_3D('',#1688,#1361,#1362);
#1090=AXIS2_PLACEMENT_3D('',#1690,#1363,#1364);
#1091=AXIS2_PLACEMENT_3D('',#1692,#1365,#1366);
#1092=AXIS2_PLACEMENT_3D('',#1693,#1367,#1368);
#1093=AXIS2_PLACEMENT_3D('',#1694,#1369,#1370);
#1094=AXIS2_PLACEMENT_3D('',#1695,#1371,#1372);
#1095=AXIS2_PLACEMENT_3D('',#1696,#1373,#1374);
#1096=AXIS2_PLACEMENT_3D('',#1697,#1375,#1376);
#1097=AXIS2_PLACEMENT_3D('',#1698,#1377,#1378);
#1098=AXIS2_PLACEMENT_3D('',#1699,#1379,#1380);
#1099=AXIS2_PLACEMENT_3D('',#1700,#1381,#1382);
#1100=AXIS2_PLACEMENT_3D('',#1701,#1383,#1384);
#1101=AXIS2_PLACEMENT_3D('',#1702,#1385,#1386);
#1102=AXIS2_PLACEMENT_3D('',#1703,#1387,#1388);
#1103=DIRECTION('',(0.,0.,1.));
#1104=DIRECTION('',(1.,0.,0.));
#1105=DIRECTION('',(0.,0.,1.));
#1106=DIRECTION('',(1.,0.,0.));
#1107=DIRECTION('',(-1.,0.,0.));
#1108=DIRECTION('',(0.,-1.,0.));
#1109=DIRECTION('',(-1.,0.,0.));
#1110=DIRECTION('',(0.,-1.,0.));
#1111=DIRECTION('',(-1.,0.,0.));
#1112=DIRECTION('',(0.,0.,1.));
#1113=DIRECTION('',(1.,0.,0.));
#1114=DIRECTION('',(1.42190448850558E-16,-1.,0.));
#1115=DIRECTION('',(0.,0.,1.));
#1116=DIRECTION('',(1.,0.,0.));
#1117=DIRECTION('',(-1.,0.,0.));
#1118=DIRECTION('',(0.,-1.,0.));
#1119=DIRECTION('',(0.,-1.,0.));
#1120=DIRECTION('',(0.,0.,-1.));
#1121=DIRECTION('',(0.,-1.,0.));
#1122=DIRECTION('',(0.,0.,-1.));
#1123=DIRECTION('',(0.,-1.,0.));
#1124=DIRECTION('',(0.,0.,-1.));
#1125=DIRECTION('',(-1.,0.,0.));
#1126=DIRECTION('',(-0.707106781186548,0.,0.707106781186548));
#1127=DIRECTION('',(0.,0.,-1.));
#1128=DIRECTION('',(-0.707106781186548,0.,-0.707106781186548));
#1129=DIRECTION('',(0.,-1.,0.));
#1130=DIRECTION('',(0.,0.,-1.));
#1131=DIRECTION('',(0.,-1.,0.));
#1132=DIRECTION('',(0.,0.,-1.));
#1133=DIRECTION('',(-1.,0.,0.));
#1134=DIRECTION('',(0.,-1.,0.));
#1135=DIRECTION('',(0.,0.,-1.));
#1136=DIRECTION('',(0.707106781186548,0.,0.707106781186548));
#1137=DIRECTION('',(0.,0.,-1.));
#1138=DIRECTION('',(0.707106781186548,0.,-0.707106781186548));
#1139=DIRECTION('',(0.,-1.,0.));
#1140=DIRECTION('',(0.,0.,-1.));
#1141=DIRECTION('',(0.,-1.,0.));
#1142=DIRECTION('',(0.,0.,-1.));
#1143=DIRECTION('',(0.,-1.,0.));
#1144=DIRECTION('',(0.,0.,-1.));
#1145=DIRECTION('',(-1.,0.,0.));
#1146=DIRECTION('',(0.,0.,-1.));
#1147=DIRECTION('',(0.,-1.,0.));
#1148=DIRECTION('',(0.,0.,-1.));
#1149=DIRECTION('',(0.,-1.,0.));
#1150=DIRECTION('',(0.,0.,-1.));
#1151=DIRECTION('',(-1.,0.,0.));
#1152=DIRECTION('',(0.,-1.,0.));
#1153=DIRECTION('',(0.,0.,-1.));
#1154=DIRECTION('',(0.,0.,-1.));
#1155=DIRECTION('',(0.,0.,1.));
#1156=DIRECTION('',(1.,0.,0.));
#1157=DIRECTION('',(0.,1.,0.));
#1158=DIRECTION('',(0.,-1.,0.));
#1159=DIRECTION('',(0.,0.,1.));
#1160=DIRECTION('',(1.,0.,0.));
#1161=DIRECTION('',(0.911921505175107,-0.410364677328798,0.));
#1162=DIRECTION('',(0.,0.,1.));
#1163=DIRECTION('',(1.,0.,0.));
#1164=DIRECTION('',(-1.,0.,0.));
#1165=DIRECTION('',(0.,0.,1.));
#1166=DIRECTION('',(1.,0.,0.));
#1167=DIRECTION('',(0.819231920519041,0.573462344363328,0.));
#1168=DIRECTION('',(0.,0.,1.));
#1169=DIRECTION('',(1.,0.,0.));
#1170=DIRECTION('',(-1.,0.,0.));
#1171=DIRECTION('',(0.,-1.,0.));
#1172=DIRECTION('',(-1.,0.,0.));
#1173=DIRECTION('',(0.,-1.,0.));
#1174=DIRECTION('',(-1.,-1.73472347597681E-16,0.));
#1175=DIRECTION('',(0.,-1.,0.));
#1176=DIRECTION('',(-1.,0.,0.));
#1177=DIRECTION('',(0.,0.,1.));
#1178=DIRECTION('',(1.,0.,0.));
#1179=DIRECTION('',(0.81923192051904,-0.573462344363329,0.));
#1180=DIRECTION('',(0.,0.,1.));
#1181=DIRECTION('',(1.,0.,0.));
#1182=DIRECTION('',(-1.,0.,0.));
#1183=DIRECTION('',(0.,0.,1.));
#1184=DIRECTION('',(1.,0.,0.));
#1185=DIRECTION('',(0.911921505175106,0.410364677328798,0.));
#1186=DIRECTION('',(0.,0.,1.));
#1187=DIRECTION('',(1.,0.,0.));
#1188=DIRECTION('',(0.,-1.,0.));
#1189=DIRECTION('',(-0.410364677328798,0.911921505175106,0.));
#1190=DIRECTION('',(-0.911921505175106,-0.410364677328798,0.));
#1191=DIRECTION('',(0.,0.,-1.));
#1192=DIRECTION('',(-0.410364677328798,0.911921505175106,0.));
#1193=DIRECTION('',(-0.911921505175106,-0.410364677328798,0.));
#1194=DIRECTION('',(0.,0.,-1.));
#1195=DIRECTION('',(0.,-1.,0.));
#1196=DIRECTION('',(0.,0.,-1.));
#1197=DIRECTION('',(-1.,0.,0.));
#1198=DIRECTION('',(0.,0.,-1.));
#1199=DIRECTION('',(0.,0.,-1.));
#1200=DIRECTION('',(0.,-1.,0.));
#1201=DIRECTION('',(0.,0.,-1.));
#1202=DIRECTION('',(-0.98058067569092,0.,-0.196116135138184));
#1203=DIRECTION('',(0.,-1.,0.));
#1204=DIRECTION('',(0.,0.,-1.));
#1205=DIRECTION('',(0.,-1.,0.));
#1206=DIRECTION('',(0.,0.,-1.));
#1207=DIRECTION('',(0.,0.,-1.));
#1208=DIRECTION('',(-1.,0.,0.));
#1209=DIRECTION('',(0.,-1.,0.));
#1210=DIRECTION('',(0.,0.,-1.));
#1211=DIRECTION('',(0.98058067569092,0.,0.196116135138184));
#1212=DIRECTION('',(0.,-1.,0.));
#1213=DIRECTION('',(0.,0.,-1.));
#1214=DIRECTION('',(0.,0.,-1.));
#1215=DIRECTION('',(0.410364677328798,0.911921505175107,0.));
#1216=DIRECTION('',(-0.911921505175107,0.410364677328798,0.));
#1217=DIRECTION('',(0.,0.,-1.));
#1218=DIRECTION('',(0.410364677328798,0.911921505175107,0.));
#1219=DIRECTION('',(0.911921505175107,-0.410364677328798,0.));
#1220=DIRECTION('',(0.,0.,-1.));
#1221=DIRECTION('',(1.,0.,0.));
#1222=DIRECTION('',(0.,0.,-1.));
#1223=DIRECTION('',(0.,0.,-1.));
#1224=DIRECTION('',(0.,-1.,0.));
#1225=DIRECTION('',(0.,0.,-1.));
#1226=DIRECTION('',(0.,1.,0.));
#1227=DIRECTION('',(0.,-1.,0.));
#1228=DIRECTION('',(0.,0.,-1.));
#1229=DIRECTION('',(0.,-1.,0.));
#1230=DIRECTION('',(0.,0.,-1.));
#1231=DIRECTION('',(0.,-1.,0.));
#1232=DIRECTION('',(0.,0.,-1.));
#1233=DIRECTION('',(-1.,0.,0.));
#1234=DIRECTION('',(-0.707106781186548,0.,0.707106781186547));
#1235=DIRECTION('',(-0.707106781186548,0.,-0.707106781186547));
#1236=DIRECTION('',(0.,-1.,0.));
#1237=DIRECTION('',(0.,0.,-1.));
#1238=DIRECTION('',(0.,-1.,0.));
#1239=DIRECTION('',(0.,0.,-1.));
#1240=DIRECTION('',(0.,-1.,0.));
#1241=DIRECTION('',(0.,0.,-1.));
#1242=DIRECTION('',(0.,0.,-1.));
#1243=DIRECTION('',(-1.,0.,0.));
#1244=DIRECTION('',(-0.573462344363328,0.819231920519041,0.));
#1245=DIRECTION('',(-0.819231920519041,-0.573462344363328,0.));
#1246=DIRECTION('',(0.819231920519041,0.573462344363328,0.));
#1247=DIRECTION('',(0.,0.,-1.));
#1248=DIRECTION('',(0.,0.,-1.));
#1249=DIRECTION('',(-0.573462344363328,0.819231920519041,0.));
#1250=DIRECTION('',(-0.819231920519041,-0.573462344363328,0.));
#1251=DIRECTION('',(0.573462344363329,0.81923192051904,0.));
#1252=DIRECTION('',(-0.81923192051904,0.573462344363329,0.));
#1253=DIRECTION('',(0.,0.,-1.));
#1254=DIRECTION('',(0.81923192051904,-0.573462344363329,0.));
#1255=DIRECTION('',(0.573462344363329,0.81923192051904,0.));
#1256=DIRECTION('',(0.81923192051904,-0.573462344363329,0.));
#1257=DIRECTION('',(0.,0.,-1.));
#1258=DIRECTION('',(0.,-1.,0.));
#1259=DIRECTION('',(0.,0.,-1.));
#1260=DIRECTION('',(0.,-1.,0.));
#1261=DIRECTION('',(0.,0.,-1.));
#1262=DIRECTION('',(0.,-1.,0.));
#1263=DIRECTION('',(0.,0.,-1.));
#1264=DIRECTION('',(-1.,0.,0.));
#1265=DIRECTION('',(0.,0.,-1.));
#1266=DIRECTION('',(1.73472347597681E-16,-1.,0.));
#1267=DIRECTION('',(1.,1.73472347597681E-16,0.));
#1268=DIRECTION('',(1.73472347597681E-16,-1.,0.));
#1269=DIRECTION('',(1.,1.73472347597681E-16,0.));
#1270=DIRECTION('',(1.73472347597681E-16,-1.,0.));
#1271=DIRECTION('',(1.,1.73472347597681E-16,0.));
#1272=DIRECTION('',(0.707106781186548,1.2266347333467E-16,0.707106781186547));
#1273=DIRECTION('',(0.707106781186548,1.2266347333467E-16,-0.707106781186547));
#1274=DIRECTION('',(-1.,-1.73472347597681E-16,0.));
#1275=DIRECTION('',(0.,0.,1.));
#1276=DIRECTION('',(1.,0.,0.));
#1277=DIRECTION('',(0.,1.,0.));
#1278=DIRECTION('',(0.,-1.,0.));
#1279=DIRECTION('',(0.,0.,1.));
#1280=DIRECTION('',(1.,0.,0.));
#1281=DIRECTION('',(0.,-1.,0.));
#1282=DIRECTION('',(0.,0.,1.));
#1283=DIRECTION('',(1.,0.,0.));
#1284=DIRECTION('',(0.,-1.,0.));
#1285=DIRECTION('',(0.,0.,1.));
#1286=DIRECTION('',(1.,0.,0.));
#1287=DIRECTION('',(0.,1.,0.));
#1288=DIRECTION('',(0.,0.,1.));
#1289=DIRECTION('',(1.,0.,0.));
#1290=DIRECTION('',(-1.42190448850558E-16,1.,0.));
#1291=DIRECTION('',(0.,0.,1.));
#1292=DIRECTION('',(1.,0.,0.));
#1293=DIRECTION('',(-0.196116135138184,0.,0.98058067569092));
#1294=DIRECTION('',(0.,1.,0.));
#1295=DIRECTION('',(0.,-1.,0.));
#1296=DIRECTION('',(0.,1.,0.));
#1297=DIRECTION('',(-0.196116135138184,-2.78858412821351E-17,-0.98058067569092));
#1298=DIRECTION('',(1.42190448850558E-16,-1.,0.));
#1299=DIRECTION('',(-1.42190448850558E-16,1.,1.13960351738891E-34));
#1300=DIRECTION('',(-0.196116135138184,-2.78858412821351E-17,-0.98058067569092));
#1301=DIRECTION('',(0.98058067569092,1.39429206410675E-16,-0.196116135138184));
#1302=DIRECTION('',(1.42190448850558E-16,-1.,-1.1396035173889E-34));
#1303=DIRECTION('',(-0.196116135138184,-2.78858412821351E-17,-0.98058067569092));
#1304=DIRECTION('',(0.98058067569092,1.39429206410675E-16,-0.196116135138184));
#1305=DIRECTION('',(0.,-1.,0.));
#1306=DIRECTION('',(0.,0.,-1.));
#1307=DIRECTION('',(0.,-1.,0.));
#1308=DIRECTION('',(0.,0.,-1.));
#1309=DIRECTION('',(1.42190448850558E-16,-1.,0.));
#1310=DIRECTION('',(1.,1.42190448850558E-16,0.));
#1311=DIRECTION('',(1.42190448850558E-16,-1.,0.));
#1312=DIRECTION('',(1.,1.42190448850558E-16,0.));
#1313=DIRECTION('',(0.,0.,1.));
#1314=DIRECTION('',(1.,0.,0.));
#1315=DIRECTION('',(0.,0.,1.));
#1316=DIRECTION('',(1.,0.,0.));
#1317=DIRECTION('',(0.,0.,-1.));
#1318=DIRECTION('',(-1.,0.,0.));
#1319=DIRECTION('',(0.,0.,-1.));
#1320=DIRECTION('',(-1.,0.,0.));
#1321=DIRECTION('',(0.,0.,1.));
#1322=DIRECTION('',(1.,0.,0.));
#1323=DIRECTION('',(0.,0.,-1.));
#1324=DIRECTION('',(-1.,0.,0.));
#1325=DIRECTION('',(0.,0.,-1.));
#1326=DIRECTION('',(-1.,0.,0.));
#1327=DIRECTION('',(0.,0.,1.));
#1328=DIRECTION('',(1.,0.,0.));
#1329=DIRECTION('',(-1.,0.,0.));
#1330=DIRECTION('',(0.,0.,1.));
#1331=DIRECTION('',(0.,-1.,0.));
#1332=DIRECTION('',(0.,1.,0.));
#1333=DIRECTION('',(0.,-1.,0.));
#1334=DIRECTION('',(0.,0.,-1.));
#1335=DIRECTION('',(0.,-1.,0.));
#1336=DIRECTION('',(0.,0.,-1.));
#1337=DIRECTION('',(0.,1.,0.));
#1338=DIRECTION('',(0.,0.,1.));
#1339=DIRECTION('',(0.,1.,0.));
#1340=DIRECTION('',(0.,0.,1.));
#1341=DIRECTION('',(0.,-1.,0.));
#1342=DIRECTION('',(0.,0.,-1.));
#1343=DIRECTION('',(0.,-1.,0.));
#1344=DIRECTION('',(0.,0.,-1.));
#1345=DIRECTION('',(0.,-1.,0.));
#1346=DIRECTION('',(0.,0.,-1.));
#1347=DIRECTION('',(0.,-1.,0.));
#1348=DIRECTION('',(0.,0.,-1.));
#1349=DIRECTION('',(0.,-1.,0.));
#1350=DIRECTION('',(0.,0.,-1.));
#1351=DIRECTION('',(0.,-1.,0.));
#1352=DIRECTION('',(0.,0.,-1.));
#1353=DIRECTION('',(0.,-1.,0.));
#1354=DIRECTION('',(0.,0.,-1.));
#1355=DIRECTION('',(0.,-1.,0.));
#1356=DIRECTION('',(0.,0.,-1.));
#1357=DIRECTION('',(0.,-1.,0.));
#1358=DIRECTION('',(0.,0.,-1.));
#1359=DIRECTION('',(0.,-1.,0.));
#1360=DIRECTION('',(0.,0.,-1.));
#1361=DIRECTION('',(0.,-1.,0.));
#1362=DIRECTION('',(0.,0.,-1.));
#1363=DIRECTION('',(0.,-1.,0.));
#1364=DIRECTION('',(0.,0.,-1.));
#1365=DIRECTION('',(0.,-1.,0.));
#1366=DIRECTION('',(0.,0.,-1.));
#1367=DIRECTION('',(0.,1.,0.));
#1368=DIRECTION('',(0.,0.,1.));
#1369=DIRECTION('',(0.,1.,0.));
#1370=DIRECTION('',(0.,0.,1.));
#1371=DIRECTION('',(0.,-1.,0.));
#1372=DIRECTION('',(0.,0.,-1.));
#1373=DIRECTION('',(0.,1.,0.));
#1374=DIRECTION('',(0.,0.,1.));
#1375=DIRECTION('',(0.,-1.,0.));
#1376=DIRECTION('',(0.,0.,-1.));
#1377=DIRECTION('',(0.,-1.,0.));
#1378=DIRECTION('',(0.,0.,-1.));
#1379=DIRECTION('',(0.,1.,0.));
#1380=DIRECTION('',(0.,0.,1.));
#1381=DIRECTION('',(-0.707106781186548,0.,-0.707106781186547));
#1382=DIRECTION('',(0.,-1.,0.));
#1383=DIRECTION('',(0.707106781186548,0.,-0.707106781186547));
#1384=DIRECTION('',(0.,1.,0.));
#1385=DIRECTION('',(-0.707106781186547,0.,-0.707106781186548));
#1386=DIRECTION('',(0.,-1.,0.));
#1387=DIRECTION('',(0.707106781186547,0.,-0.707106781186548));
#1388=DIRECTION('',(0.,1.,0.));
#1389=CARTESIAN_POINT('',(0.,0.,0.));
#1390=CARTESIAN_POINT('',(0.,-1.38777878078145E-17,0.01));
#1391=CARTESIAN_POINT('',(-0.0505,0.0091,0.01));
#1392=CARTESIAN_POINT('',(-0.022,0.0091,0.01));
#1393=CARTESIAN_POINT('',(-0.038,0.0091,0.01));
#1394=CARTESIAN_POINT('',(-0.022,-1.38777878078145E-17,0.01));
#1395=CARTESIAN_POINT('',(-0.022,-0.0091,0.01));
#1396=CARTESIAN_POINT('',(-0.0505,-0.0091,0.01));
#1397=CARTESIAN_POINT('',(-0.038,-0.0091,0.01));
#1398=CARTESIAN_POINT('',(-0.038,-0.0151,0.01));
#1399=CARTESIAN_POINT('',(-0.038,-0.0151,0.01));
#1400=CARTESIAN_POINT('',(-0.0505,-0.0151,0.01));
#1401=CARTESIAN_POINT('',(-0.0314390406648711,-0.0151,0.01));
#1402=CARTESIAN_POINT('',(-0.0314390406648711,0.0149,0.01));
#1403=CARTESIAN_POINT('',(-0.0199509756796392,-0.0128132524777423,0.01));
#1404=CARTESIAN_POINT('',(-0.0199509756796392,-1.6714625994709E-17,0.01));
#1405=CARTESIAN_POINT('',(-0.0199509756796393,0.0128132524777423,0.01));
#1406=CARTESIAN_POINT('',(-0.0314390406648711,-0.0149,0.01));
#1407=CARTESIAN_POINT('',(-0.0314390406648711,0.0151,0.01));
#1408=CARTESIAN_POINT('',(-0.0505,0.0151,0.01));
#1409=CARTESIAN_POINT('',(-0.038,0.0151,0.01));
#1410=CARTESIAN_POINT('',(-0.038,0.0091,0.01));
#1411=CARTESIAN_POINT('',(-0.0505,0.0091,0.01));
#1412=CARTESIAN_POINT('',(-0.038,0.0091,0.005));
#1413=CARTESIAN_POINT('',(-0.038,0.0091,0.0024));
#1414=CARTESIAN_POINT('',(-0.038,0.0091,0.005));
#1415=CARTESIAN_POINT('',(-0.038,0.0091,0.));
#1416=CARTESIAN_POINT('',(-0.0505,0.0091,0.));
#1417=CARTESIAN_POINT('',(-0.022,0.0091,0.));
#1418=CARTESIAN_POINT('',(-0.022,0.0091,0.));
#1419=CARTESIAN_POINT('',(-0.025,0.0091,0.003));
#1420=CARTESIAN_POINT('',(-0.025,0.0091,0.01));
#1421=CARTESIAN_POINT('',(-0.025,0.0091,0.007));
#1422=CARTESIAN_POINT('',(-0.025,0.0091,0.007));
#1423=CARTESIAN_POINT('',(-0.0505,-0.0091,0.01));
#1424=CARTESIAN_POINT('',(-0.038,-0.0091,0.005));
#1425=CARTESIAN_POINT('',(-0.038,-0.0091,0.0024));
#1426=CARTESIAN_POINT('',(-0.0505,-0.0091,0.));
#1427=CARTESIAN_POINT('',(-0.022,-0.0091,0.));
#1428=CARTESIAN_POINT('',(-0.038,-0.0091,0.));
#1429=CARTESIAN_POINT('',(-0.038,-0.0091,0.005));
#1430=CARTESIAN_POINT('',(-0.03625,-0.0091,-0.00425));
#1431=CARTESIAN_POINT('',(-0.025,-0.0091,0.007));
#1432=CARTESIAN_POINT('',(-0.025,-0.0091,0.01));
#1433=CARTESIAN_POINT('',(-0.025,-0.0091,0.003));
#1434=CARTESIAN_POINT('',(-0.04125,-0.0091,0.01925));
#1435=CARTESIAN_POINT('',(-0.0505,-0.0151,0.01));
#1436=CARTESIAN_POINT('',(-0.038,-0.0151,0.005));
#1437=CARTESIAN_POINT('',(-0.038,-0.0151,0.0024));
#1438=CARTESIAN_POINT('',(-0.038,-0.0151,0.005));
#1439=CARTESIAN_POINT('',(-0.038,-0.0151,0.));
#1440=CARTESIAN_POINT('',(-0.0505,-0.0151,0.));
#1441=CARTESIAN_POINT('',(-0.0314390406648711,-0.0151,0.));
#1442=CARTESIAN_POINT('',(-0.0314390406648711,-0.0151,0.01));
#1443=CARTESIAN_POINT('',(-0.0505,0.0151,0.01));
#1444=CARTESIAN_POINT('',(-0.038,0.0151,0.005));
#1445=CARTESIAN_POINT('',(-0.038,0.0151,0.0024));
#1446=CARTESIAN_POINT('',(-0.0505,0.0151,0.));
#1447=CARTESIAN_POINT('',(-0.0314390406648711,0.0151,0.));
#1448=CARTESIAN_POINT('',(-0.038,0.0151,0.));
#1449=CARTESIAN_POINT('',(-0.038,0.0151,0.005));
#1450=CARTESIAN_POINT('',(-0.0314390406648711,0.0151,0.));
#1451=CARTESIAN_POINT('',(0.,-1.38777878078145E-17,0.));
#1452=CARTESIAN_POINT('',(-0.022,0.0091,0.));
#1453=CARTESIAN_POINT('',(-0.038,-1.38777878078145E-17,0.));
#1454=CARTESIAN_POINT('',(-0.0314390406648711,-0.0149,0.));
#1455=CARTESIAN_POINT('',(-0.0191281003450071,0.0124576451552532,0.));
#1456=CARTESIAN_POINT('',(-0.015,0.0106,0.));
#1457=CARTESIAN_POINT('',(-0.0108718996549929,0.0087423548447468,0.));
#1458=CARTESIAN_POINT('',(0.00143904066487102,0.0361,0.));
#1459=CARTESIAN_POINT('',(0.00143904066487102,0.0061,0.));
#1460=CARTESIAN_POINT('',(-1.64798730217796E-17,0.0061,0.));
#1461=CARTESIAN_POINT('',(0.0252716665377135,0.0061,0.));
#1462=CARTESIAN_POINT('',(0.0252716665377135,0.0211,0.));
#1463=CARTESIAN_POINT('',(0.0338736017031634,0.0088115211922144,0.));
#1464=CARTESIAN_POINT('',(0.035,0.0096,0.));
#1465=CARTESIAN_POINT('',(0.0361263982968366,0.0103884788077856,0.));
#1466=CARTESIAN_POINT('',(0.0447283334622866,-0.0019,0.));
#1467=CARTESIAN_POINT('',(0.0447283334622866,0.0131,0.));
#1468=CARTESIAN_POINT('',(0.0455,0.0131,0.));
#1469=CARTESIAN_POINT('',(0.048,0.0131,0.));
#1470=CARTESIAN_POINT('',(0.048,0.0061,0.));
#1471=CARTESIAN_POINT('',(0.048,0.0061,0.));
#1472=CARTESIAN_POINT('',(0.0455,0.0061,0.));
#1473=CARTESIAN_POINT('',(0.037,0.0061,0.));
#1474=CARTESIAN_POINT('',(0.037,-0.0061,0.));
#1475=CARTESIAN_POINT('',(0.037,-0.0061,0.));
#1476=CARTESIAN_POINT('',(0.0455,-0.0061,0.));
#1477=CARTESIAN_POINT('',(0.048,-0.0061,0.));
#1478=CARTESIAN_POINT('',(0.048,-0.0131,0.));
#1479=CARTESIAN_POINT('',(0.048,-0.0131,0.));
#1480=CARTESIAN_POINT('',(0.0455,-0.0131,0.));
#1481=CARTESIAN_POINT('',(0.0447283334622865,-0.0131,0.));
#1482=CARTESIAN_POINT('',(0.0447283334622865,0.0019,0.));
#1483=CARTESIAN_POINT('',(0.0361263982968366,-0.0103884788077856,0.));
#1484=CARTESIAN_POINT('',(0.035,-0.0096,0.));
#1485=CARTESIAN_POINT('',(0.0338736017031634,-0.00881152119221441,0.));
#1486=CARTESIAN_POINT('',(0.0252716665377135,-0.0211,0.));
#1487=CARTESIAN_POINT('',(0.0252716665377135,-0.0061,0.));
#1488=CARTESIAN_POINT('',(-1.12757025938492E-17,-0.0061,0.));
#1489=CARTESIAN_POINT('',(0.00143904066487102,-0.0061,0.));
#1490=CARTESIAN_POINT('',(0.00143904066487102,-0.0361,0.));
#1491=CARTESIAN_POINT('',(-0.0108718996549929,-0.00874235484474682,0.));
#1492=CARTESIAN_POINT('',(-0.015,-0.0106,0.));
#1493=CARTESIAN_POINT('',(-0.0191281003450071,-0.0124576451552532,0.));
#1494=CARTESIAN_POINT('',(-0.0314390406648711,0.0149,0.));
#1495=CARTESIAN_POINT('',(-0.038,-1.38777878078145E-17,0.));
#1496=CARTESIAN_POINT('',(-0.015,-0.0106,0.01));
#1497=CARTESIAN_POINT('',(-0.0108718996549929,-0.00874235484474682,0.01));
#1498=CARTESIAN_POINT('',(-0.0108718996549929,-0.00874235484474683,0.00916879476394245));
#1499=CARTESIAN_POINT('',(-0.0199509756796392,-0.0128279390558377,-0.04));
#1500=CARTESIAN_POINT('',(-0.0191281003450071,-0.0124576451552532,0.00999322830327779));
#1501=CARTESIAN_POINT('',(-0.0191281003450071,-0.0124576451552532,0.));
#1502=CARTESIAN_POINT('',(-1.12757025938492E-17,-0.0061,0.01));
#1503=CARTESIAN_POINT('',(0.02,-0.0061,0.008));
#1504=CARTESIAN_POINT('',(0.0150490243203608,-0.0061,0.008));
#1505=CARTESIAN_POINT('',(0.00143904066487102,-0.0061,0.008));
#1506=CARTESIAN_POINT('',(0.00143904066487102,-0.0061,0.01));
#1507=CARTESIAN_POINT('',(0.0252716665377135,-0.0061,0.01));
#1508=CARTESIAN_POINT('',(0.0252716665377135,-0.0061,0.00905416368194482));
#1509=CARTESIAN_POINT('',(0.0349509756796392,-0.0061,-0.04));
#1510=CARTESIAN_POINT('',(0.02514516892273,-0.0061,0.009029033784546));
#1511=CARTESIAN_POINT('',(0.00115384615384614,-0.0061,0.00423076923076923));
#1512=CARTESIAN_POINT('',(0.02485483107727,-0.0061,0.008970966215454));
#1513=CARTESIAN_POINT('',(0.0150490243203608,-0.0061,0.058));
#1514=CARTESIAN_POINT('',(-1.64798730217796E-17,0.0061,0.01));
#1515=CARTESIAN_POINT('',(0.00143904066487102,0.0061,0.01));
#1516=CARTESIAN_POINT('',(0.00143904066487102,0.0061,0.008));
#1517=CARTESIAN_POINT('',(0.035,0.0061,0.008));
#1518=CARTESIAN_POINT('',(0.0150490243203608,0.0061,0.008));
#1519=CARTESIAN_POINT('',(0.0150490243203608,0.0061,0.058));
#1520=CARTESIAN_POINT('',(0.02485483107727,0.0061,0.008970966215454));
#1521=CARTESIAN_POINT('',(0.03,0.0061,0.01));
#1522=CARTESIAN_POINT('',(0.02514516892273,0.0061,0.009029033784546));
#1523=CARTESIAN_POINT('',(0.0349509756796392,0.0061,-0.04));
#1524=CARTESIAN_POINT('',(0.0252716665377135,0.0061,0.00905416368194482));
#1525=CARTESIAN_POINT('',(0.0252716665377135,0.0061,0.01));
#1526=CARTESIAN_POINT('',(-0.015,0.0106,0.01));
#1527=CARTESIAN_POINT('',(-0.0191281003450071,0.0124576451552532,0.01));
#1528=CARTESIAN_POINT('',(-0.0191281003450071,0.0124576451552532,0.00999322830327779));
#1529=CARTESIAN_POINT('',(-0.0199509756796393,0.0128279390558376,-0.04));
#1530=CARTESIAN_POINT('',(-0.0108718996549929,0.0087423548447468,0.00916879476394244));
#1531=CARTESIAN_POINT('',(-0.0108718996549929,0.0087423548447468,0.01));
#1532=CARTESIAN_POINT('',(0.04,-0.00305,0.01));
#1533=CARTESIAN_POINT('',(0.04,0.0061,0.01));
#1534=CARTESIAN_POINT('',(0.04,0.0061,0.007));
#1535=CARTESIAN_POINT('',(0.04,0.0061,0.003));
#1536=CARTESIAN_POINT('',(0.04,-0.00305,0.007));
#1537=CARTESIAN_POINT('',(0.04,-0.0061,0.007));
#1538=CARTESIAN_POINT('',(0.04,-0.0061,0.01));
#1539=CARTESIAN_POINT('',(0.04,-0.0061,0.003));
#1540=CARTESIAN_POINT('',(0.04,0.0061,0.003));
#1541=CARTESIAN_POINT('',(0.0455,0.0061,0.01));
#1542=CARTESIAN_POINT('',(0.048,0.0061,0.005));
#1543=CARTESIAN_POINT('',(0.048,0.0061,0.0024));
#1544=CARTESIAN_POINT('',(0.048,0.0061,0.005));
#1545=CARTESIAN_POINT('',(0.048,0.0061,0.01));
#1546=CARTESIAN_POINT('',(0.0455,0.0061,0.01));
#1547=CARTESIAN_POINT('',(0.037,0.0061,0.01));
#1548=CARTESIAN_POINT('',(0.04,0.0061,0.007));
#1549=CARTESIAN_POINT('',(0.037,0.0061,0.));
#1550=CARTESIAN_POINT('',(0.0455,0.0131,0.01));
#1551=CARTESIAN_POINT('',(0.048,0.0131,0.005));
#1552=CARTESIAN_POINT('',(0.048,0.0131,0.0024));
#1553=CARTESIAN_POINT('',(0.048,0.0131,0.005));
#1554=CARTESIAN_POINT('',(0.048,0.0131,0.01));
#1555=CARTESIAN_POINT('',(0.0447283334622866,0.0131,0.01));
#1556=CARTESIAN_POINT('',(0.0447283334622866,0.0131,0.01));
#1557=CARTESIAN_POINT('',(0.0455,0.0131,0.01));
#1558=CARTESIAN_POINT('',(0.035,0.0096,0.01));
#1559=CARTESIAN_POINT('',(0.035,0.0096,0.01));
#1560=CARTESIAN_POINT('',(0.0349509756796392,0.00956568297574744,0.01));
#1561=CARTESIAN_POINT('',(0.0361263982968366,0.0103884788077856,0.01));
#1562=CARTESIAN_POINT('',(0.0361263982968366,0.0103884788077856,0.));
#1563=CARTESIAN_POINT('',(0.0338736017031634,0.0088115211922144,0.01));
#1564=CARTESIAN_POINT('',(0.0338736017031634,0.00881152119221441,0.00998839130553027));
#1565=CARTESIAN_POINT('',(0.0349509756796392,0.00956568297574744,-0.04));
#1566=CARTESIAN_POINT('',(0.035,-0.0096,0.01));
#1567=CARTESIAN_POINT('',(0.0361263982968366,-0.0103884788077856,0.01));
#1568=CARTESIAN_POINT('',(0.0361263982968366,-0.0103884788077856,0.01));
#1569=CARTESIAN_POINT('',(0.035,-0.0096,0.01));
#1570=CARTESIAN_POINT('',(0.0349509756796392,-0.00956568297574744,0.01));
#1571=CARTESIAN_POINT('',(0.0349509756796392,-0.00956568297574744,-0.04));
#1572=CARTESIAN_POINT('',(0.0338736017031634,-0.00881152119221439,0.00998839130553027));
#1573=CARTESIAN_POINT('',(0.0338736017031634,-0.00881152119221441,0.01));
#1574=CARTESIAN_POINT('',(0.0455,-0.0131,0.01));
#1575=CARTESIAN_POINT('',(0.048,-0.0131,0.005));
#1576=CARTESIAN_POINT('',(0.048,-0.0131,0.0024));
#1577=CARTESIAN_POINT('',(0.048,-0.0131,0.005));
#1578=CARTESIAN_POINT('',(0.048,-0.0131,0.01));
#1579=CARTESIAN_POINT('',(0.0455,-0.0131,0.01));
#1580=CARTESIAN_POINT('',(0.0447283334622865,-0.0131,0.01));
#1581=CARTESIAN_POINT('',(0.0447283334622865,-0.0131,0.));
#1582=CARTESIAN_POINT('',(0.0455,-0.0061,0.01));
#1583=CARTESIAN_POINT('',(0.048,-0.0061,0.005));
#1584=CARTESIAN_POINT('',(0.0506,-0.0061,0.005));
#1585=CARTESIAN_POINT('',(0.048,-0.0061,0.005));
#1586=CARTESIAN_POINT('',(0.048,-0.0061,0.01));
#1587=CARTESIAN_POINT('',(0.04625,-0.0061,0.00925));
#1588=CARTESIAN_POINT('',(0.04125,-0.0061,0.00575));
#1589=CARTESIAN_POINT('',(0.037,-0.0061,0.01));
#1590=CARTESIAN_POINT('',(0.0455,-0.0061,0.01));
#1591=CARTESIAN_POINT('',(0.,-1.38777878078145E-17,0.01));
#1592=CARTESIAN_POINT('',(0.037,-1.38777878078145E-17,0.01));
#1593=CARTESIAN_POINT('',(0.048,-1.38777878078145E-17,0.01));
#1594=CARTESIAN_POINT('',(0.0447283334622866,-0.0019,0.01));
#1595=CARTESIAN_POINT('',(0.0349509756796392,-1.38777878078145E-17,0.01));
#1596=CARTESIAN_POINT('',(0.0447283334622865,0.0019,0.01));
#1597=CARTESIAN_POINT('',(0.048,-1.38777878078145E-17,0.01));
#1598=CARTESIAN_POINT('',(0.,-1.38777878078145E-17,0.008));
#1599=CARTESIAN_POINT('',(0.0150490243203608,0.0061,0.008));
#1600=CARTESIAN_POINT('',(0.00143904066487102,0.0361,0.008));
#1601=CARTESIAN_POINT('',(-4.90243203607952E-5,0.00613692835172391,0.008));
#1602=CARTESIAN_POINT('',(-4.90243203607935E-5,-0.0061,0.008));
#1603=CARTESIAN_POINT('',(-4.90243203607935E-5,-0.00613692835172391,0.008));
#1604=CARTESIAN_POINT('',(0.00143904066487102,-0.0361,0.008));
#1605=CARTESIAN_POINT('',(0.03,-1.38777878078145E-17,0.01));
#1606=CARTESIAN_POINT('',(0.02514516892273,-1.38777878078145E-17,0.009029033784546));
#1607=CARTESIAN_POINT('',(0.02485483107727,-0.0061,0.008970966215454));
#1608=CARTESIAN_POINT('',(0.005,0.,0.006));
#1609=CARTESIAN_POINT('',(-0.01014516892273,-2.1534983670405E-18,0.00902903378454601));
#1610=CARTESIAN_POINT('',(-0.01014516892273,0.0084267983740491,0.00902903378454601));
#1611=CARTESIAN_POINT('',(-0.01014516892273,-0.0084267983740491,0.00902903378454601));
#1612=CARTESIAN_POINT('',(0.00143904066487102,-0.0361,0.0067121918670258));
#1613=CARTESIAN_POINT('',(-0.00985483107726999,-0.00830704295919435,0.008970966215454));
#1614=CARTESIAN_POINT('',(-0.00985483107727,0.0061,0.008970966215454));
#1615=CARTESIAN_POINT('',(-0.00985483107727,0.00830704295919435,0.008970966215454));
#1616=CARTESIAN_POINT('',(0.00143904066487102,0.0361,0.0067121918670258));
#1617=CARTESIAN_POINT('',(0.0349509756796392,-1.38777878078145E-17,-0.04));
#1618=CARTESIAN_POINT('',(0.0252716665377135,-0.0061,0.00905416368194482));
#1619=CARTESIAN_POINT('',(0.026792020355756,-0.0061,0.00935415808619875));
#1620=CARTESIAN_POINT('',(0.0290463459394593,-0.00644082602296464,0.00968816276210759));
#1621=CARTESIAN_POINT('',(0.0319201058867609,-0.00758785921690512,0.00992248508055908));
#1622=CARTESIAN_POINT('',(0.0332388326724865,-0.00836718287074052,0.00997471045649985));
#1623=CARTESIAN_POINT('',(0.0338736017031634,-0.00881152119221441,0.00998839130553026));
#1624=CARTESIAN_POINT('',(0.0338736017031634,0.0088115211922144,0.00998839130553027));
#1625=CARTESIAN_POINT('',(0.0326041103089999,0.00792287721629988,0.00996103061326329));
#1626=CARTESIAN_POINT('',(0.0305381548551808,0.00690875817621081,0.00984383540415779));
#1627=CARTESIAN_POINT('',(0.0275379952375745,0.00621339445969277,0.00946508167411084));
#1628=CARTESIAN_POINT('',(0.0260318870193108,0.0061,0.00920416948176059));
#1629=CARTESIAN_POINT('',(0.0252716665377135,0.0061,0.00905416368194481));
#1630=CARTESIAN_POINT('',(0.0150490243203608,-1.38777878078145E-17,0.058));
#1631=CARTESIAN_POINT('',(-4.90243203607944E-5,-1.38847585979311E-17,0.058));
#1632=CARTESIAN_POINT('',(-4.90243203607952E-5,0.00613692835172391,0.008));
#1633=CARTESIAN_POINT('',(-0.00347214023454452,0.00630693158076801,0.008));
#1634=CARTESIAN_POINT('',(-0.00673630208749037,0.00703980585365681,0.00834726041749806));
#1635=CARTESIAN_POINT('',(-0.00985483107727,0.00830704295919435,0.00897096621545399));
#1636=CARTESIAN_POINT('',(-0.00985483107726999,-0.00830704295919435,0.008970966215454));
#1637=CARTESIAN_POINT('',(-0.00673630208749036,-0.00703980585365681,0.00834726041749807));
#1638=CARTESIAN_POINT('',(-0.00347214023454452,-0.00630693158076801,0.008));
#1639=CARTESIAN_POINT('',(-4.90243203607925E-5,-0.00613692835172391,0.008));
#1640=CARTESIAN_POINT('',(-0.0199509756796392,-1.6714625994709E-17,-0.04));
#1641=CARTESIAN_POINT('',(-0.0191281003450071,0.0124576451552532,0.00999322830327779));
#1642=CARTESIAN_POINT('',(-0.0194006055980492,0.0125802725191221,0.00999771366777407));
#1643=CARTESIAN_POINT('',(-0.0196748969736329,0.012698808670824,0.01));
#1644=CARTESIAN_POINT('',(-0.0199509756796393,0.0128132524777423,0.01));
#1645=CARTESIAN_POINT('',(-0.0199509756796392,-0.0128132524777423,0.01));
#1646=CARTESIAN_POINT('',(-0.0196748969736329,-0.0126988086708241,0.01));
#1647=CARTESIAN_POINT('',(-0.0194006055980492,-0.0125802725191221,0.00999771366777406));
#1648=CARTESIAN_POINT('',(-0.0191281003450071,-0.0124576451552532,0.00999322830327778));
#1649=CARTESIAN_POINT('',(-0.0108718996549929,-0.00874235484474682,0.00916879476394245));
#1650=CARTESIAN_POINT('',(-0.0106307150252787,-0.00863382176137541,0.00912425973721128));
#1651=CARTESIAN_POINT('',(-0.0103884643644375,-0.00852864366923912,0.00907769287288752));
#1652=CARTESIAN_POINT('',(-0.01014516892273,-0.0084267983740491,0.00902903378454601));
#1653=CARTESIAN_POINT('',(-0.01014516892273,0.0084267983740491,0.00902903378454601));
#1654=CARTESIAN_POINT('',(-0.0103884643644375,0.00852864366923912,0.00907769287288751));
#1655=CARTESIAN_POINT('',(-0.0106307150252787,0.0086338217613754,0.00912425973721124));
#1656=CARTESIAN_POINT('',(-0.0108718996549929,0.00874235484474681,0.00916879476394242));
#1657=CARTESIAN_POINT('',(0.0447283334622866,-0.0019,0.01));
#1658=CARTESIAN_POINT('',(0.0447283334622865,0.0019,0.01));
#1659=CARTESIAN_POINT('',(0.0252716665377135,0.0211,0.01));
#1660=CARTESIAN_POINT('',(0.0252716665377135,-0.0211,0.01));
#1661=CARTESIAN_POINT('',(-0.0314390406648711,-0.0149,0.01));
#1662=CARTESIAN_POINT('',(0.00143904066487102,0.0361,0.01));
#1663=CARTESIAN_POINT('',(0.00143904066487102,-0.0361,0.01));
#1664=CARTESIAN_POINT('',(-0.0314390406648711,0.0149,0.01));
#1665=CARTESIAN_POINT('',(-0.025,0.00305,0.01));
#1666=CARTESIAN_POINT('',(-0.025,-0.0091,0.003));
#1667=CARTESIAN_POINT('',(-0.025,0.00305,0.007));
#1668=CARTESIAN_POINT('',(0.048,0.0096,0.005));
#1669=CARTESIAN_POINT('',(0.048,-0.0096,0.005));
#1670=CARTESIAN_POINT('',(-0.038,-1.38777878078145E-17,0.005));
#1671=CARTESIAN_POINT('',(-0.038,-1.38777878078145E-17,0.005));
#1672=CARTESIAN_POINT('',(0.048,0.0269,0.005));
#1673=CARTESIAN_POINT('',(0.048,-0.0121,0.005));
#1674=CARTESIAN_POINT('',(0.048,-0.0121,0.0034));
#1675=CARTESIAN_POINT('',(0.048,-0.0071,0.005));
#1676=CARTESIAN_POINT('',(0.048,-0.0071,0.0034));
#1677=CARTESIAN_POINT('',(0.048,0.0269,0.005));
#1678=CARTESIAN_POINT('',(0.048,0.0121,0.005));
#1679=CARTESIAN_POINT('',(0.048,0.0121,0.0034));
#1680=CARTESIAN_POINT('',(0.048,0.0071,0.005));
#1681=CARTESIAN_POINT('',(0.048,0.0071,0.0034));
#1682=CARTESIAN_POINT('',(-0.038,0.0249,0.005));
#1683=CARTESIAN_POINT('',(-0.038,0.0101,0.005));
#1684=CARTESIAN_POINT('',(-0.038,0.0101,0.0034));
#1685=CARTESIAN_POINT('',(-0.038,0.0141,0.005));
#1686=CARTESIAN_POINT('',(-0.038,0.0141,0.0034));
#1687=CARTESIAN_POINT('',(-0.038,0.0249,0.005));
#1688=CARTESIAN_POINT('',(-0.038,-0.0101,0.005));
#1689=CARTESIAN_POINT('',(-0.038,-0.0101,0.0034));
#1690=CARTESIAN_POINT('',(-0.038,-0.0141,0.005));
#1691=CARTESIAN_POINT('',(-0.038,-0.0141,0.0034));
#1692=CARTESIAN_POINT('',(-0.038,0.0101,0.005));
#1693=CARTESIAN_POINT('',(-0.038,-0.0091,0.005));
#1694=CARTESIAN_POINT('',(-0.038,0.0151,0.005));
#1695=CARTESIAN_POINT('',(-0.038,-0.0141,0.005));
#1696=CARTESIAN_POINT('',(0.048,0.0131,0.005));
#1697=CARTESIAN_POINT('',(0.048,-0.0121,0.005));
#1698=CARTESIAN_POINT('',(0.048,0.0071,0.005));
#1699=CARTESIAN_POINT('',(0.048,-0.0061,0.005));
#1700=CARTESIAN_POINT('',(-0.022,-1.38777878078145E-17,0.));
#1701=CARTESIAN_POINT('',(-0.025,0.00305,0.007));
#1702=CARTESIAN_POINT('',(0.04,-0.00305,0.007));
#1703=CARTESIAN_POINT('',(0.037,-1.38777878078145E-17,0.));
#1704=MECHANICAL_DESIGN_GEOMETRIC_PRESENTATION_REPRESENTATION('',(#989),
#1705);
#1705=(
GEOMETRIC_REPRESENTATION_CONTEXT(3)
GLOBAL_UNCERTAINTY_ASSIGNED_CONTEXT((#1706))
GLOBAL_UNIT_ASSIGNED_CONTEXT((#1709,#1708,#1707))
REPRESENTATION_CONTEXT('upper arm','TOP_LEVEL_ASSEMBLY_PART')
);
#1706=UNCERTAINTY_MEASURE_WITH_UNIT(LENGTH_MEASURE(2.E-5),#1709,
'DISTANCE_ACCURACY_VALUE','Maximum Tolerance applied to model');
#1707=(
NAMED_UNIT(*)
SI_UNIT($,.STERADIAN.)
SOLID_ANGLE_UNIT()
);
#1708=(
NAMED_UNIT(*)
PLANE_ANGLE_UNIT()
SI_UNIT($,.RADIAN.)
);
#1709=(
LENGTH_UNIT()
NAMED_UNIT(*)
SI_UNIT($,.METRE.)
);
#1710=PRODUCT_DEFINITION_SHAPE('','',#1711);
#1711=PRODUCT_DEFINITION('','',#1713,#1712);
#1712=PRODUCT_DEFINITION_CONTEXT('',#1719,'design');
#1713=PRODUCT_DEFINITION_FORMATION_WITH_SPECIFIED_SOURCE('','',#1715,
 .NOT_KNOWN.);
#1714=PRODUCT_RELATED_PRODUCT_CATEGORY('','',(#1715));
#1715=PRODUCT('upper arm','upper arm','upper arm',(#1717));
#1716=PRODUCT_CATEGORY('','');
#1717=PRODUCT_CONTEXT('',#1719,'mechanical');
#1718=APPLICATION_PROTOCOL_DEFINITION('international standard',
'ap242_managed_model_based_3d_engineering',2020,#1719);
#1719=APPLICATION_CONTEXT('managed model based 3d engineering');
ENDSEC;
END-ISO-10303-21;
