ISO-10303-21;
HEADER;
/* Generated by software containing ST-Developer
 * from STEP Tools, Inc. (www.steptools.com) 
 */
/* OPTION: using custom renumber hook */

FILE_DESCRIPTION(
/* description */ ('STEP AP242 Edition 2',
'CAx-IF Rec.Pracs.---Representation and Presentation of Product Manufa
cturing Information (PMI)---4.0---2014-10-13',
'CAx-IF Rec.Pracs.---3D Tessellated Geometry---0.4---2014-09-14','2;1',
'CAx-IF Rec.Pracs.---User Defined Attributes---1.5---2016-08-15'),
/* implementation_level */ '2;1');

FILE_NAME(
/* name */ 'Motor holder',
/* time_stamp */ '2026-09-29T21:23:16Z',
/* author */ (''),
/* organization */ (''),
/* preprocessor_version */ 'ST-DEVELOPER v20',
/* originating_system */ 'ONSHAPE BY PTC INC, 1.221',
/* authorisation */ '  ');

FILE_SCHEMA (('AP242_MANAGED_MODEL_BASED_3D_ENGINEERING_MIM_LF { 1 0 10303 442 3 1 4 }'));
ENDSEC;

DATA;
#10=SHAPE_REPRESENTATION_RELATIONSHIP('','',#1195,#11);
#11=ADVANCED_BREP_SHAPE_REPRESENTATION('',(#1193),#2048);
#12=TOROIDAL_SURFACE('',#1255,0.008,0.001);
#13=TOROIDAL_SURFACE('',#1256,0.008,0.001);
#14=TOROIDAL_SURFACE('',#1266,0.0065,0.0007);
#15=TOROIDAL_SURFACE('',#1270,0.0065,0.0007);
#16=TOROIDAL_SURFACE('',#1310,0.003,0.001);
#17=TOROIDAL_SURFACE('',#1314,0.005,0.001);
#18=TOROIDAL_SURFACE('',#1318,0.003,0.001);
#19=TOROIDAL_SURFACE('',#1322,0.005,0.001);
#20=TOROIDAL_SURFACE('',#1324,0.0062,0.001);
#21=TOROIDAL_SURFACE('',#1328,0.0062,0.001);
#22=CONICAL_SURFACE('',#1248,0.0016,0.785398163397449);
#23=CONICAL_SURFACE('',#1249,0.0016,0.785398163397449);
#24=CONICAL_SURFACE('',#1252,0.0016,0.785398163397449);
#25=CONICAL_SURFACE('',#1253,0.0016,0.785398163397449);
#26=CONICAL_SURFACE('',#1299,0.00555,0.785398163397449);
#27=CONICAL_SURFACE('',#1300,0.00555,0.785398163397449);
#28=B_SPLINE_CURVE_WITH_KNOTS('',3,(#1850,#1851,#1852,#1853),
 .UNSPECIFIED.,.F.,.F.,(4,4),(0.,0.0015524174696259),.UNSPECIFIED.);
#29=B_SPLINE_CURVE_WITH_KNOTS('',3,(#1932,#1933,#1934,#1935,#1936),
 .UNSPECIFIED.,.F.,.F.,(4,1,4),(0.,0.00132176470805016,0.00264352941610033),
 .UNSPECIFIED.);
#30=B_SPLINE_CURVE_WITH_KNOTS('',3,(#2007,#2008,#2009,#2010),
 .UNSPECIFIED.,.F.,.F.,(4,4),(0.,0.001552417469626),.UNSPECIFIED.);
#31=B_SPLINE_CURVE_WITH_KNOTS('',3,(#2012,#2013,#2014,#2015),
 .UNSPECIFIED.,.F.,.F.,(4,4),(0.,0.001552417469626),.UNSPECIFIED.);
#32=CYLINDRICAL_SURFACE('',#1225,0.0016);
#33=CYLINDRICAL_SURFACE('',#1227,0.0016);
#34=CYLINDRICAL_SURFACE('',#1232,0.007);
#35=CYLINDRICAL_SURFACE('',#1235,0.0016);
#36=CYLINDRICAL_SURFACE('',#1238,0.0016);
#37=CYLINDRICAL_SURFACE('',#1242,0.0016);
#38=CYLINDRICAL_SURFACE('',#1245,0.0016);
#39=CYLINDRICAL_SURFACE('',#1257,0.0072);
#40=CYLINDRICAL_SURFACE('',#1261,0.0072);
#41=CYLINDRICAL_SURFACE('',#1264,0.0007);
#42=CYLINDRICAL_SURFACE('',#1268,0.0007);
#43=CYLINDRICAL_SURFACE('',#1272,0.0007);
#44=CYLINDRICAL_SURFACE('',#1280,0.0016);
#45=CYLINDRICAL_SURFACE('',#1290,0.0016);
#46=CYLINDRICAL_SURFACE('',#1296,0.00555);
#47=CYLINDRICAL_SURFACE('',#1301,0.004);
#48=CYLINDRICAL_SURFACE('',#1304,0.004);
#49=CYLINDRICAL_SURFACE('',#1307,0.001);
#50=CYLINDRICAL_SURFACE('',#1312,0.001);
#51=CYLINDRICAL_SURFACE('',#1315,0.001);
#52=CYLINDRICAL_SURFACE('',#1320,0.001);
#53=CYLINDRICAL_SURFACE('',#1326,0.001);
#54=CYLINDRICAL_SURFACE('',#1330,0.001);
#55=LINE('',#1700,#147);
#56=LINE('',#1705,#148);
#57=LINE('',#1711,#149);
#58=LINE('',#1715,#150);
#59=LINE('',#1716,#151);
#60=LINE('',#1719,#152);
#61=LINE('',#1721,#153);
#62=LINE('',#1723,#154);
#63=LINE('',#1724,#155);
#64=LINE('',#1727,#156);
#65=LINE('',#1729,#157);
#66=LINE('',#1731,#158);
#67=LINE('',#1733,#159);
#68=LINE('',#1735,#160);
#69=LINE('',#1737,#161);
#70=LINE('',#1739,#162);
#71=LINE('',#1743,#163);
#72=LINE('',#1749,#164);
#73=LINE('',#1753,#165);
#74=LINE('',#1757,#166);
#75=LINE('',#1763,#167);
#76=LINE('',#1767,#168);
#77=LINE('',#1771,#169);
#78=LINE('',#1775,#170);
#79=LINE('',#1778,#171);
#80=LINE('',#1780,#172);
#81=LINE('',#1782,#173);
#82=LINE('',#1784,#174);
#83=LINE('',#1787,#175);
#84=LINE('',#1791,#176);
#85=LINE('',#1793,#177);
#86=LINE('',#1796,#178);
#87=LINE('',#1798,#179);
#88=LINE('',#1800,#180);
#89=LINE('',#1806,#181);
#90=LINE('',#1810,#182);
#91=LINE('',#1814,#183);
#92=LINE('',#1818,#184);
#93=LINE('',#1819,#185);
#94=LINE('',#1821,#186);
#95=LINE('',#1825,#187);
#96=LINE('',#1828,#188);
#97=LINE('',#1831,#189);
#98=LINE('',#1833,#190);
#99=LINE('',#1835,#191);
#100=LINE('',#1843,#192);
#101=LINE('',#1846,#193);
#102=LINE('',#1847,#194);
#103=LINE('',#1849,#195);
#104=LINE('',#1855,#196);
#105=LINE('',#1857,#197);
#106=LINE('',#1859,#198);
#107=LINE('',#1861,#199);
#108=LINE('',#1864,#200);
#109=LINE('',#1866,#201);
#110=LINE('',#1868,#202);
#111=LINE('',#1875,#203);
#112=LINE('',#1879,#204);
#113=LINE('',#1881,#205);
#114=LINE('',#1883,#206);
#115=LINE('',#1887,#207);
#116=LINE('',#1889,#208);
#117=LINE('',#1891,#209);
#118=LINE('',#1893,#210);
#119=LINE('',#1895,#211);
#120=LINE('',#1899,#212);
#121=LINE('',#1901,#213);
#122=LINE('',#1903,#214);
#123=LINE('',#1907,#215);
#124=LINE('',#1908,#216);
#125=LINE('',#1910,#217);
#126=LINE('',#1912,#218);
#127=LINE('',#1915,#219);
#128=LINE('',#1916,#220);
#129=LINE('',#1918,#221);
#130=LINE('',#1920,#222);
#131=LINE('',#1925,#223);
#132=LINE('',#1950,#224);
#133=LINE('',#1951,#225);
#134=LINE('',#1953,#226);
#135=LINE('',#1954,#227);
#136=LINE('',#1964,#228);
#137=LINE('',#1965,#229);
#138=LINE('',#1967,#230);
#139=LINE('',#1969,#231);
#140=LINE('',#1971,#232);
#141=LINE('',#1983,#233);
#142=LINE('',#1989,#234);
#143=LINE('',#1993,#235);
#144=LINE('',#1996,#236);
#145=LINE('',#1998,#237);
#146=LINE('',#2000,#238);
#147=VECTOR('',#1338,1.);
#148=VECTOR('',#1341,1.);
#149=VECTOR('',#1346,1.);
#150=VECTOR('',#1349,1.);
#151=VECTOR('',#1350,1.);
#152=VECTOR('',#1351,1.);
#153=VECTOR('',#1352,1.);
#154=VECTOR('',#1353,1.);
#155=VECTOR('',#1354,1.);
#156=VECTOR('',#1355,1.);
#157=VECTOR('',#1356,1.);
#158=VECTOR('',#1357,1.);
#159=VECTOR('',#1358,1.);
#160=VECTOR('',#1359,1.);
#161=VECTOR('',#1360,1.);
#162=VECTOR('',#1361,1.);
#163=VECTOR('',#1364,1.);
#164=VECTOR('',#1369,1.);
#165=VECTOR('',#1372,1.);
#166=VECTOR('',#1375,1.);
#167=VECTOR('',#1382,1.);
#168=VECTOR('',#1385,1.);
#169=VECTOR('',#1388,1.);
#170=VECTOR('',#1393,1.);
#171=VECTOR('',#1394,1.);
#172=VECTOR('',#1395,1.);
#173=VECTOR('',#1396,1.);
#174=VECTOR('',#1399,1.);
#175=VECTOR('',#1400,1.);
#176=VECTOR('',#1403,1.);
#177=VECTOR('',#1406,1.);
#178=VECTOR('',#1407,1.);
#179=VECTOR('',#1408,1.);
#180=VECTOR('',#1409,1.);
#181=VECTOR('',#1414,1.);
#182=VECTOR('',#1417,1.);
#183=VECTOR('',#1420,1.);
#184=VECTOR('',#1423,1.);
#185=VECTOR('',#1424,1.);
#186=VECTOR('',#1425,1.);
#187=VECTOR('',#1428,1.);
#188=VECTOR('',#1431,1.);
#189=VECTOR('',#1432,1.);
#190=VECTOR('',#1433,1.);
#191=VECTOR('',#1434,1.);
#192=VECTOR('',#1445,1.);
#193=VECTOR('',#1446,1.);
#194=VECTOR('',#1447,1.);
#195=VECTOR('',#1450,1.);
#196=VECTOR('',#1451,1.);
#197=VECTOR('',#1452,1.);
#198=VECTOR('',#1453,1.);
#199=VECTOR('',#1456,1.);
#200=VECTOR('',#1457,1.);
#201=VECTOR('',#1458,1.);
#202=VECTOR('',#1459,1.);
#203=VECTOR('',#1468,1.);
#204=VECTOR('',#1471,1.);
#205=VECTOR('',#1474,1.);
#206=VECTOR('',#1475,1.);
#207=VECTOR('',#1480,1.);
#208=VECTOR('',#1483,1.);
#209=VECTOR('',#1486,1.);
#210=VECTOR('',#1487,1.);
#211=VECTOR('',#1488,1.);
#212=VECTOR('',#1493,1.);
#213=VECTOR('',#1496,1.);
#214=VECTOR('',#1497,1.);
#215=VECTOR('',#1504,1.);
#216=VECTOR('',#1505,1.);
#217=VECTOR('',#1508,1.);
#218=VECTOR('',#1511,1.);
#219=VECTOR('',#1516,1.);
#220=VECTOR('',#1517,1.);
#221=VECTOR('',#1520,1.);
#222=VECTOR('',#1523,1.);
#223=VECTOR('',#1532,1.);
#224=VECTOR('',#1565,1.);
#225=VECTOR('',#1566,1.);
#226=VECTOR('',#1569,1.);
#227=VECTOR('',#1570,1.);
#228=VECTOR('',#1585,1.);
#229=VECTOR('',#1586,1.);
#230=VECTOR('',#1589,1.);
#231=VECTOR('',#1590,1.);
#232=VECTOR('',#1591,1.);
#233=VECTOR('',#1610,1.);
#234=VECTOR('',#1615,1.);
#235=VECTOR('',#1620,1.);
#236=VECTOR('',#1621,1.);
#237=VECTOR('',#1622,1.);
#238=VECTOR('',#1623,1.);
#239=ORIENTED_EDGE('',*,*,#565,.T.);
#240=ORIENTED_EDGE('',*,*,#566,.F.);
#241=ORIENTED_EDGE('',*,*,#567,.F.);
#242=ORIENTED_EDGE('',*,*,#568,.F.);
#243=ORIENTED_EDGE('',*,*,#569,.F.);
#244=ORIENTED_EDGE('',*,*,#570,.F.);
#245=ORIENTED_EDGE('',*,*,#571,.F.);
#246=ORIENTED_EDGE('',*,*,#572,.F.);
#247=ORIENTED_EDGE('',*,*,#573,.F.);
#248=ORIENTED_EDGE('',*,*,#574,.F.);
#249=ORIENTED_EDGE('',*,*,#575,.T.);
#250=ORIENTED_EDGE('',*,*,#576,.T.);
#251=ORIENTED_EDGE('',*,*,#577,.F.);
#252=ORIENTED_EDGE('',*,*,#578,.F.);
#253=ORIENTED_EDGE('',*,*,#579,.T.);
#254=ORIENTED_EDGE('',*,*,#580,.F.);
#255=ORIENTED_EDGE('',*,*,#581,.T.);
#256=ORIENTED_EDGE('',*,*,#582,.T.);
#257=ORIENTED_EDGE('',*,*,#583,.T.);
#258=ORIENTED_EDGE('',*,*,#584,.F.);
#259=ORIENTED_EDGE('',*,*,#585,.T.);
#260=ORIENTED_EDGE('',*,*,#586,.T.);
#261=ORIENTED_EDGE('',*,*,#587,.T.);
#262=ORIENTED_EDGE('',*,*,#588,.T.);
#263=ORIENTED_EDGE('',*,*,#589,.T.);
#264=ORIENTED_EDGE('',*,*,#590,.T.);
#265=ORIENTED_EDGE('',*,*,#591,.T.);
#266=ORIENTED_EDGE('',*,*,#592,.T.);
#267=ORIENTED_EDGE('',*,*,#593,.T.);
#268=ORIENTED_EDGE('',*,*,#594,.T.);
#269=ORIENTED_EDGE('',*,*,#595,.F.);
#270=ORIENTED_EDGE('',*,*,#596,.F.);
#271=ORIENTED_EDGE('',*,*,#580,.T.);
#272=ORIENTED_EDGE('',*,*,#597,.F.);
#273=ORIENTED_EDGE('',*,*,#598,.T.);
#274=ORIENTED_EDGE('',*,*,#599,.F.);
#275=ORIENTED_EDGE('',*,*,#600,.T.);
#276=ORIENTED_EDGE('',*,*,#601,.T.);
#277=ORIENTED_EDGE('',*,*,#602,.T.);
#278=ORIENTED_EDGE('',*,*,#603,.T.);
#279=ORIENTED_EDGE('',*,*,#604,.T.);
#280=ORIENTED_EDGE('',*,*,#605,.T.);
#281=ORIENTED_EDGE('',*,*,#606,.T.);
#282=ORIENTED_EDGE('',*,*,#607,.F.);
#283=ORIENTED_EDGE('',*,*,#608,.T.);
#284=ORIENTED_EDGE('',*,*,#609,.T.);
#285=ORIENTED_EDGE('',*,*,#610,.F.);
#286=ORIENTED_EDGE('',*,*,#611,.F.);
#287=ORIENTED_EDGE('',*,*,#612,.F.);
#288=ORIENTED_EDGE('',*,*,#613,.T.);
#289=ORIENTED_EDGE('',*,*,#614,.T.);
#290=ORIENTED_EDGE('',*,*,#615,.T.);
#291=ORIENTED_EDGE('',*,*,#616,.T.);
#292=ORIENTED_EDGE('',*,*,#617,.T.);
#293=ORIENTED_EDGE('',*,*,#618,.T.);
#294=ORIENTED_EDGE('',*,*,#619,.T.);
#295=ORIENTED_EDGE('',*,*,#620,.T.);
#296=ORIENTED_EDGE('',*,*,#621,.T.);
#297=ORIENTED_EDGE('',*,*,#622,.T.);
#298=ORIENTED_EDGE('',*,*,#623,.T.);
#299=ORIENTED_EDGE('',*,*,#624,.T.);
#300=ORIENTED_EDGE('',*,*,#599,.T.);
#301=ORIENTED_EDGE('',*,*,#625,.T.);
#302=ORIENTED_EDGE('',*,*,#626,.T.);
#303=ORIENTED_EDGE('',*,*,#627,.T.);
#304=ORIENTED_EDGE('',*,*,#628,.T.);
#305=ORIENTED_EDGE('',*,*,#629,.F.);
#306=ORIENTED_EDGE('',*,*,#630,.T.);
#307=ORIENTED_EDGE('',*,*,#631,.T.);
#308=ORIENTED_EDGE('',*,*,#632,.F.);
#309=ORIENTED_EDGE('',*,*,#633,.F.);
#310=ORIENTED_EDGE('',*,*,#595,.T.);
#311=ORIENTED_EDGE('',*,*,#634,.F.);
#312=ORIENTED_EDGE('',*,*,#596,.T.);
#313=ORIENTED_EDGE('',*,*,#635,.T.);
#314=ORIENTED_EDGE('',*,*,#636,.T.);
#315=ORIENTED_EDGE('',*,*,#601,.F.);
#316=ORIENTED_EDGE('',*,*,#637,.T.);
#317=ORIENTED_EDGE('',*,*,#597,.T.);
#318=ORIENTED_EDGE('',*,*,#579,.F.);
#319=ORIENTED_EDGE('',*,*,#638,.F.);
#320=ORIENTED_EDGE('',*,*,#610,.T.);
#321=ORIENTED_EDGE('',*,*,#639,.T.);
#322=ORIENTED_EDGE('',*,*,#640,.T.);
#323=ORIENTED_EDGE('',*,*,#641,.T.);
#324=ORIENTED_EDGE('',*,*,#642,.T.);
#325=ORIENTED_EDGE('',*,*,#643,.T.);
#326=ORIENTED_EDGE('',*,*,#644,.T.);
#327=ORIENTED_EDGE('',*,*,#645,.T.);
#328=ORIENTED_EDGE('',*,*,#646,.T.);
#329=ORIENTED_EDGE('',*,*,#647,.T.);
#330=ORIENTED_EDGE('',*,*,#648,.T.);
#331=ORIENTED_EDGE('',*,*,#649,.T.);
#332=ORIENTED_EDGE('',*,*,#650,.T.);
#333=ORIENTED_EDGE('',*,*,#651,.F.);
#334=ORIENTED_EDGE('',*,*,#570,.T.);
#335=ORIENTED_EDGE('',*,*,#651,.T.);
#336=ORIENTED_EDGE('',*,*,#652,.T.);
#337=ORIENTED_EDGE('',*,*,#653,.F.);
#338=ORIENTED_EDGE('',*,*,#571,.T.);
#339=ORIENTED_EDGE('',*,*,#653,.T.);
#340=ORIENTED_EDGE('',*,*,#654,.T.);
#341=ORIENTED_EDGE('',*,*,#655,.F.);
#342=ORIENTED_EDGE('',*,*,#572,.T.);
#343=ORIENTED_EDGE('',*,*,#655,.T.);
#344=ORIENTED_EDGE('',*,*,#656,.T.);
#345=ORIENTED_EDGE('',*,*,#649,.F.);
#346=ORIENTED_EDGE('',*,*,#573,.T.);
#347=ORIENTED_EDGE('',*,*,#657,.T.);
#348=ORIENTED_EDGE('',*,*,#658,.T.);
#349=ORIENTED_EDGE('',*,*,#659,.F.);
#350=ORIENTED_EDGE('',*,*,#566,.T.);
#351=ORIENTED_EDGE('',*,*,#659,.T.);
#352=ORIENTED_EDGE('',*,*,#660,.T.);
#353=ORIENTED_EDGE('',*,*,#661,.F.);
#354=ORIENTED_EDGE('',*,*,#567,.T.);
#355=ORIENTED_EDGE('',*,*,#661,.T.);
#356=ORIENTED_EDGE('',*,*,#662,.T.);
#357=ORIENTED_EDGE('',*,*,#663,.F.);
#358=ORIENTED_EDGE('',*,*,#568,.T.);
#359=ORIENTED_EDGE('',*,*,#663,.T.);
#360=ORIENTED_EDGE('',*,*,#664,.T.);
#361=ORIENTED_EDGE('',*,*,#657,.F.);
#362=ORIENTED_EDGE('',*,*,#569,.T.);
#363=ORIENTED_EDGE('',*,*,#665,.F.);
#364=ORIENTED_EDGE('',*,*,#619,.F.);
#365=ORIENTED_EDGE('',*,*,#666,.F.);
#366=ORIENTED_EDGE('',*,*,#662,.F.);
#367=ORIENTED_EDGE('',*,*,#666,.T.);
#368=ORIENTED_EDGE('',*,*,#618,.F.);
#369=ORIENTED_EDGE('',*,*,#667,.F.);
#370=ORIENTED_EDGE('',*,*,#664,.F.);
#371=ORIENTED_EDGE('',*,*,#665,.T.);
#372=ORIENTED_EDGE('',*,*,#660,.F.);
#373=ORIENTED_EDGE('',*,*,#668,.F.);
#374=ORIENTED_EDGE('',*,*,#616,.F.);
#375=ORIENTED_EDGE('',*,*,#667,.T.);
#376=ORIENTED_EDGE('',*,*,#617,.F.);
#377=ORIENTED_EDGE('',*,*,#668,.T.);
#378=ORIENTED_EDGE('',*,*,#658,.F.);
#379=ORIENTED_EDGE('',*,*,#669,.F.);
#380=ORIENTED_EDGE('',*,*,#623,.F.);
#381=ORIENTED_EDGE('',*,*,#670,.F.);
#382=ORIENTED_EDGE('',*,*,#656,.F.);
#383=ORIENTED_EDGE('',*,*,#670,.T.);
#384=ORIENTED_EDGE('',*,*,#622,.F.);
#385=ORIENTED_EDGE('',*,*,#671,.F.);
#386=ORIENTED_EDGE('',*,*,#650,.F.);
#387=ORIENTED_EDGE('',*,*,#669,.T.);
#388=ORIENTED_EDGE('',*,*,#654,.F.);
#389=ORIENTED_EDGE('',*,*,#672,.F.);
#390=ORIENTED_EDGE('',*,*,#620,.F.);
#391=ORIENTED_EDGE('',*,*,#671,.T.);
#392=ORIENTED_EDGE('',*,*,#621,.F.);
#393=ORIENTED_EDGE('',*,*,#672,.T.);
#394=ORIENTED_EDGE('',*,*,#652,.F.);
#395=ORIENTED_EDGE('',*,*,#565,.F.);
#396=ORIENTED_EDGE('',*,*,#647,.F.);
#397=ORIENTED_EDGE('',*,*,#615,.F.);
#398=ORIENTED_EDGE('',*,*,#648,.F.);
#399=ORIENTED_EDGE('',*,*,#673,.T.);
#400=ORIENTED_EDGE('',*,*,#674,.T.);
#401=ORIENTED_EDGE('',*,*,#643,.F.);
#402=ORIENTED_EDGE('',*,*,#675,.T.);
#403=ORIENTED_EDGE('',*,*,#641,.F.);
#404=ORIENTED_EDGE('',*,*,#676,.T.);
#405=ORIENTED_EDGE('',*,*,#677,.T.);
#406=ORIENTED_EDGE('',*,*,#645,.F.);
#407=ORIENTED_EDGE('',*,*,#678,.T.);
#408=ORIENTED_EDGE('',*,*,#635,.F.);
#409=ORIENTED_EDGE('',*,*,#679,.T.);
#410=ORIENTED_EDGE('',*,*,#637,.F.);
#411=ORIENTED_EDGE('',*,*,#600,.F.);
#412=ORIENTED_EDGE('',*,*,#624,.F.);
#413=ORIENTED_EDGE('',*,*,#680,.F.);
#414=ORIENTED_EDGE('',*,*,#680,.T.);
#415=ORIENTED_EDGE('',*,*,#628,.F.);
#416=ORIENTED_EDGE('',*,*,#681,.F.);
#417=ORIENTED_EDGE('',*,*,#679,.F.);
#418=ORIENTED_EDGE('',*,*,#681,.T.);
#419=ORIENTED_EDGE('',*,*,#627,.F.);
#420=ORIENTED_EDGE('',*,*,#682,.F.);
#421=ORIENTED_EDGE('',*,*,#646,.F.);
#422=ORIENTED_EDGE('',*,*,#682,.T.);
#423=ORIENTED_EDGE('',*,*,#626,.F.);
#424=ORIENTED_EDGE('',*,*,#683,.F.);
#425=ORIENTED_EDGE('',*,*,#675,.F.);
#426=ORIENTED_EDGE('',*,*,#683,.T.);
#427=ORIENTED_EDGE('',*,*,#625,.F.);
#428=ORIENTED_EDGE('',*,*,#598,.F.);
#429=ORIENTED_EDGE('',*,*,#642,.F.);
#430=ORIENTED_EDGE('',*,*,#629,.T.);
#431=ORIENTED_EDGE('',*,*,#684,.T.);
#432=ORIENTED_EDGE('',*,*,#575,.F.);
#433=ORIENTED_EDGE('',*,*,#685,.F.);
#434=ORIENTED_EDGE('',*,*,#686,.T.);
#435=ORIENTED_EDGE('',*,*,#577,.T.);
#436=ORIENTED_EDGE('',*,*,#687,.F.);
#437=ORIENTED_EDGE('',*,*,#631,.F.);
#438=ORIENTED_EDGE('',*,*,#688,.F.);
#439=ORIENTED_EDGE('',*,*,#685,.T.);
#440=ORIENTED_EDGE('',*,*,#574,.T.);
#441=ORIENTED_EDGE('',*,*,#686,.F.);
#442=ORIENTED_EDGE('',*,*,#630,.F.);
#443=ORIENTED_EDGE('',*,*,#634,.T.);
#444=ORIENTED_EDGE('',*,*,#632,.T.);
#445=ORIENTED_EDGE('',*,*,#687,.T.);
#446=ORIENTED_EDGE('',*,*,#576,.F.);
#447=ORIENTED_EDGE('',*,*,#684,.F.);
#448=ORIENTED_EDGE('',*,*,#689,.T.);
#449=ORIENTED_EDGE('',*,*,#688,.T.);
#450=ORIENTED_EDGE('',*,*,#689,.F.);
#451=ORIENTED_EDGE('',*,*,#611,.T.);
#452=ORIENTED_EDGE('',*,*,#690,.T.);
#453=ORIENTED_EDGE('',*,*,#583,.F.);
#454=ORIENTED_EDGE('',*,*,#691,.F.);
#455=ORIENTED_EDGE('',*,*,#692,.T.);
#456=ORIENTED_EDGE('',*,*,#693,.T.);
#457=ORIENTED_EDGE('',*,*,#694,.F.);
#458=ORIENTED_EDGE('',*,*,#613,.F.);
#459=ORIENTED_EDGE('',*,*,#633,.T.);
#460=ORIENTED_EDGE('',*,*,#582,.F.);
#461=ORIENTED_EDGE('',*,*,#695,.T.);
#462=ORIENTED_EDGE('',*,*,#692,.F.);
#463=ORIENTED_EDGE('',*,*,#612,.T.);
#464=ORIENTED_EDGE('',*,*,#691,.T.);
#465=ORIENTED_EDGE('',*,*,#696,.F.);
#466=ORIENTED_EDGE('',*,*,#694,.T.);
#467=ORIENTED_EDGE('',*,*,#697,.T.);
#468=ORIENTED_EDGE('',*,*,#584,.T.);
#469=ORIENTED_EDGE('',*,*,#690,.F.);
#470=ORIENTED_EDGE('',*,*,#614,.F.);
#471=ORIENTED_EDGE('',*,*,#698,.T.);
#472=ORIENTED_EDGE('',*,*,#696,.T.);
#473=ORIENTED_EDGE('',*,*,#698,.F.);
#474=ORIENTED_EDGE('',*,*,#699,.T.);
#475=ORIENTED_EDGE('',*,*,#700,.T.);
#476=ORIENTED_EDGE('',*,*,#676,.F.);
#477=ORIENTED_EDGE('',*,*,#640,.F.);
#478=ORIENTED_EDGE('',*,*,#701,.T.);
#479=ORIENTED_EDGE('',*,*,#702,.T.);
#480=ORIENTED_EDGE('',*,*,#703,.T.);
#481=ORIENTED_EDGE('',*,*,#704,.T.);
#482=ORIENTED_EDGE('',*,*,#705,.T.);
#483=ORIENTED_EDGE('',*,*,#706,.T.);
#484=ORIENTED_EDGE('',*,*,#707,.T.);
#485=ORIENTED_EDGE('',*,*,#708,.T.);
#486=ORIENTED_EDGE('',*,*,#709,.T.);
#487=ORIENTED_EDGE('',*,*,#593,.F.);
#488=ORIENTED_EDGE('',*,*,#710,.T.);
#489=ORIENTED_EDGE('',*,*,#708,.F.);
#490=ORIENTED_EDGE('',*,*,#609,.F.);
#491=ORIENTED_EDGE('',*,*,#711,.T.);
#492=ORIENTED_EDGE('',*,*,#701,.F.);
#493=ORIENTED_EDGE('',*,*,#639,.F.);
#494=ORIENTED_EDGE('',*,*,#709,.F.);
#495=ORIENTED_EDGE('',*,*,#673,.F.);
#496=ORIENTED_EDGE('',*,*,#712,.T.);
#497=ORIENTED_EDGE('',*,*,#704,.F.);
#498=ORIENTED_EDGE('',*,*,#713,.T.);
#499=ORIENTED_EDGE('',*,*,#706,.F.);
#500=ORIENTED_EDGE('',*,*,#714,.T.);
#501=ORIENTED_EDGE('',*,*,#606,.F.);
#502=ORIENTED_EDGE('',*,*,#715,.T.);
#503=ORIENTED_EDGE('',*,*,#716,.F.);
#504=ORIENTED_EDGE('',*,*,#603,.F.);
#505=ORIENTED_EDGE('',*,*,#717,.F.);
#506=ORIENTED_EDGE('',*,*,#702,.F.);
#507=ORIENTED_EDGE('',*,*,#711,.F.);
#508=ORIENTED_EDGE('',*,*,#608,.F.);
#509=ORIENTED_EDGE('',*,*,#717,.T.);
#510=ORIENTED_EDGE('',*,*,#714,.F.);
#511=ORIENTED_EDGE('',*,*,#718,.F.);
#512=ORIENTED_EDGE('',*,*,#703,.F.);
#513=ORIENTED_EDGE('',*,*,#718,.T.);
#514=ORIENTED_EDGE('',*,*,#705,.F.);
#515=ORIENTED_EDGE('',*,*,#719,.F.);
#516=ORIENTED_EDGE('',*,*,#699,.F.);
#517=ORIENTED_EDGE('',*,*,#719,.T.);
#518=ORIENTED_EDGE('',*,*,#712,.F.);
#519=ORIENTED_EDGE('',*,*,#677,.F.);
#520=ORIENTED_EDGE('',*,*,#700,.F.);
#521=ORIENTED_EDGE('',*,*,#720,.F.);
#522=ORIENTED_EDGE('',*,*,#594,.F.);
#523=ORIENTED_EDGE('',*,*,#710,.F.);
#524=ORIENTED_EDGE('',*,*,#592,.F.);
#525=ORIENTED_EDGE('',*,*,#721,.F.);
#526=ORIENTED_EDGE('',*,*,#605,.F.);
#527=ORIENTED_EDGE('',*,*,#721,.T.);
#528=ORIENTED_EDGE('',*,*,#591,.F.);
#529=ORIENTED_EDGE('',*,*,#722,.F.);
#530=ORIENTED_EDGE('',*,*,#715,.F.);
#531=ORIENTED_EDGE('',*,*,#722,.T.);
#532=ORIENTED_EDGE('',*,*,#590,.F.);
#533=ORIENTED_EDGE('',*,*,#723,.F.);
#534=ORIENTED_EDGE('',*,*,#707,.F.);
#535=ORIENTED_EDGE('',*,*,#723,.T.);
#536=ORIENTED_EDGE('',*,*,#589,.F.);
#537=ORIENTED_EDGE('',*,*,#724,.F.);
#538=ORIENTED_EDGE('',*,*,#713,.F.);
#539=ORIENTED_EDGE('',*,*,#724,.T.);
#540=ORIENTED_EDGE('',*,*,#588,.F.);
#541=ORIENTED_EDGE('',*,*,#725,.F.);
#542=ORIENTED_EDGE('',*,*,#674,.F.);
#543=ORIENTED_EDGE('',*,*,#725,.T.);
#544=ORIENTED_EDGE('',*,*,#587,.F.);
#545=ORIENTED_EDGE('',*,*,#726,.F.);
#546=ORIENTED_EDGE('',*,*,#644,.F.);
#547=ORIENTED_EDGE('',*,*,#726,.T.);
#548=ORIENTED_EDGE('',*,*,#586,.F.);
#549=ORIENTED_EDGE('',*,*,#727,.F.);
#550=ORIENTED_EDGE('',*,*,#678,.F.);
#551=ORIENTED_EDGE('',*,*,#695,.F.);
#552=ORIENTED_EDGE('',*,*,#581,.F.);
#553=ORIENTED_EDGE('',*,*,#602,.F.);
#554=ORIENTED_EDGE('',*,*,#636,.F.);
#555=ORIENTED_EDGE('',*,*,#727,.T.);
#556=ORIENTED_EDGE('',*,*,#585,.F.);
#557=ORIENTED_EDGE('',*,*,#697,.F.);
#558=ORIENTED_EDGE('',*,*,#693,.F.);
#559=ORIENTED_EDGE('',*,*,#607,.T.);
#560=ORIENTED_EDGE('',*,*,#638,.T.);
#561=ORIENTED_EDGE('',*,*,#578,.T.);
#562=ORIENTED_EDGE('',*,*,#720,.T.);
#563=ORIENTED_EDGE('',*,*,#604,.F.);
#564=ORIENTED_EDGE('',*,*,#716,.T.);
#565=EDGE_CURVE('',#728,#728,#834,.F.);
#566=EDGE_CURVE('',#729,#730,#55,.T.);
#567=EDGE_CURVE('',#731,#729,#835,.T.);
#568=EDGE_CURVE('',#732,#731,#56,.T.);
#569=EDGE_CURVE('',#730,#732,#836,.T.);
#570=EDGE_CURVE('',#733,#734,#837,.T.);
#571=EDGE_CURVE('',#735,#733,#57,.T.);
#572=EDGE_CURVE('',#736,#735,#838,.T.);
#573=EDGE_CURVE('',#734,#736,#58,.T.);
#574=EDGE_CURVE('',#737,#738,#59,.T.);
#575=EDGE_CURVE('',#737,#739,#60,.T.);
#576=EDGE_CURVE('',#739,#740,#61,.T.);
#577=EDGE_CURVE('',#738,#740,#62,.T.);
#578=EDGE_CURVE('',#741,#742,#63,.T.);
#579=EDGE_CURVE('',#741,#743,#64,.T.);
#580=EDGE_CURVE('',#744,#743,#65,.T.);
#581=EDGE_CURVE('',#744,#745,#66,.F.);
#582=EDGE_CURVE('',#745,#746,#67,.T.);
#583=EDGE_CURVE('',#746,#747,#68,.T.);
#584=EDGE_CURVE('',#748,#747,#69,.T.);
#585=EDGE_CURVE('',#748,#749,#70,.F.);
#586=EDGE_CURVE('',#749,#750,#839,.T.);
#587=EDGE_CURVE('',#750,#751,#71,.T.);
#588=EDGE_CURVE('',#751,#752,#840,.T.);
#589=EDGE_CURVE('',#752,#753,#841,.F.);
#590=EDGE_CURVE('',#753,#754,#72,.F.);
#591=EDGE_CURVE('',#754,#755,#842,.T.);
#592=EDGE_CURVE('',#755,#756,#73,.T.);
#593=EDGE_CURVE('',#756,#757,#843,.F.);
#594=EDGE_CURVE('',#757,#742,#74,.T.);
#595=EDGE_CURVE('',#758,#758,#844,.T.);
#596=EDGE_CURVE('',#759,#759,#845,.T.);
#597=EDGE_CURVE('',#760,#743,#75,.T.);
#598=EDGE_CURVE('',#760,#761,#846,.F.);
#599=EDGE_CURVE('',#762,#761,#76,.T.);
#600=EDGE_CURVE('',#762,#763,#847,.F.);
#601=EDGE_CURVE('',#763,#764,#77,.T.);
#602=EDGE_CURVE('',#764,#744,#848,.F.);
#603=EDGE_CURVE('',#765,#766,#78,.F.);
#604=EDGE_CURVE('',#766,#767,#79,.T.);
#605=EDGE_CURVE('',#767,#768,#80,.F.);
#606=EDGE_CURVE('',#768,#765,#81,.T.);
#607=EDGE_CURVE('',#769,#770,#82,.T.);
#608=EDGE_CURVE('',#769,#771,#83,.T.);
#609=EDGE_CURVE('',#771,#772,#849,.F.);
#610=EDGE_CURVE('',#770,#772,#84,.T.);
#611=EDGE_CURVE('',#773,#774,#85,.T.);
#612=EDGE_CURVE('',#775,#773,#86,.T.);
#613=EDGE_CURVE('',#775,#776,#87,.T.);
#614=EDGE_CURVE('',#776,#774,#88,.T.);
#615=EDGE_CURVE('',#777,#777,#850,.T.);
#616=EDGE_CURVE('',#778,#779,#851,.T.);
#617=EDGE_CURVE('',#779,#780,#89,.F.);
#618=EDGE_CURVE('',#780,#781,#852,.T.);
#619=EDGE_CURVE('',#781,#778,#90,.F.);
#620=EDGE_CURVE('',#782,#783,#853,.T.);
#621=EDGE_CURVE('',#783,#784,#91,.F.);
#622=EDGE_CURVE('',#784,#785,#854,.T.);
#623=EDGE_CURVE('',#785,#782,#92,.F.);
#624=EDGE_CURVE('',#786,#762,#93,.T.);
#625=EDGE_CURVE('',#761,#787,#94,.F.);
#626=EDGE_CURVE('',#787,#788,#855,.F.);
#627=EDGE_CURVE('',#788,#789,#95,.T.);
#628=EDGE_CURVE('',#789,#786,#856,.F.);
#629=EDGE_CURVE('',#790,#791,#96,.T.);
#630=EDGE_CURVE('',#790,#792,#97,.T.);
#631=EDGE_CURVE('',#792,#793,#98,.T.);
#632=EDGE_CURVE('',#791,#793,#99,.T.);
#633=EDGE_CURVE('',#794,#794,#857,.F.);
#634=EDGE_CURVE('',#795,#795,#858,.F.);
#635=EDGE_CURVE('',#796,#797,#100,.F.);
#636=EDGE_CURVE('',#797,#764,#101,.T.);
#637=EDGE_CURVE('',#763,#796,#102,.F.);
#638=EDGE_CURVE('',#770,#741,#103,.T.);
#639=EDGE_CURVE('',#772,#798,#28,.T.);
#640=EDGE_CURVE('',#798,#799,#104,.T.);
#641=EDGE_CURVE('',#799,#800,#105,.T.);
#642=EDGE_CURVE('',#800,#760,#106,.T.);
#643=EDGE_CURVE('',#801,#802,#107,.F.);
#644=EDGE_CURVE('',#802,#803,#108,.F.);
#645=EDGE_CURVE('',#803,#804,#109,.T.);
#646=EDGE_CURVE('',#804,#801,#110,.F.);
#647=EDGE_CURVE('',#805,#805,#859,.T.);
#648=EDGE_CURVE('',#806,#806,#860,.F.);
#649=EDGE_CURVE('',#734,#807,#111,.T.);
#650=EDGE_CURVE('',#807,#808,#861,.F.);
#651=EDGE_CURVE('',#733,#808,#112,.T.);
#652=EDGE_CURVE('',#808,#809,#113,.T.);
#653=EDGE_CURVE('',#735,#809,#114,.T.);
#654=EDGE_CURVE('',#809,#810,#862,.F.);
#655=EDGE_CURVE('',#736,#810,#115,.T.);
#656=EDGE_CURVE('',#810,#807,#116,.T.);
#657=EDGE_CURVE('',#730,#811,#117,.T.);
#658=EDGE_CURVE('',#811,#812,#118,.T.);
#659=EDGE_CURVE('',#729,#812,#119,.T.);
#660=EDGE_CURVE('',#812,#813,#863,.F.);
#661=EDGE_CURVE('',#731,#813,#120,.T.);
#662=EDGE_CURVE('',#813,#814,#121,.T.);
#663=EDGE_CURVE('',#732,#814,#122,.T.);
#664=EDGE_CURVE('',#814,#811,#864,.F.);
#665=EDGE_CURVE('',#778,#813,#123,.T.);
#666=EDGE_CURVE('',#814,#781,#124,.T.);
#667=EDGE_CURVE('',#811,#780,#125,.T.);
#668=EDGE_CURVE('',#779,#812,#126,.T.);
#669=EDGE_CURVE('',#782,#810,#127,.T.);
#670=EDGE_CURVE('',#807,#785,#128,.T.);
#671=EDGE_CURVE('',#808,#784,#129,.T.);
#672=EDGE_CURVE('',#783,#809,#130,.T.);
#673=EDGE_CURVE('',#815,#816,#131,.F.);
#674=EDGE_CURVE('',#816,#802,#865,.F.);
#675=EDGE_CURVE('',#801,#800,#866,.F.);
#676=EDGE_CURVE('',#799,#817,#867,.T.);
#677=EDGE_CURVE('',#817,#815,#29,.T.);
#678=EDGE_CURVE('',#803,#797,#868,.F.);
#679=EDGE_CURVE('',#796,#804,#869,.T.);
#680=EDGE_CURVE('',#796,#786,#870,.F.);
#681=EDGE_CURVE('',#804,#789,#871,.F.);
#682=EDGE_CURVE('',#801,#788,#872,.F.);
#683=EDGE_CURVE('',#800,#787,#873,.T.);
#684=EDGE_CURVE('',#791,#739,#132,.T.);
#685=EDGE_CURVE('',#790,#737,#133,.T.);
#686=EDGE_CURVE('',#792,#738,#134,.T.);
#687=EDGE_CURVE('',#793,#740,#135,.T.);
#688=EDGE_CURVE('',#818,#818,#874,.F.);
#689=EDGE_CURVE('',#819,#819,#875,.T.);
#690=EDGE_CURVE('',#774,#747,#136,.T.);
#691=EDGE_CURVE('',#773,#746,#137,.T.);
#692=EDGE_CURVE('',#775,#820,#138,.T.);
#693=EDGE_CURVE('',#820,#821,#139,.F.);
#694=EDGE_CURVE('',#776,#821,#140,.T.);
#695=EDGE_CURVE('',#745,#820,#876,.T.);
#696=EDGE_CURVE('',#822,#822,#877,.F.);
#697=EDGE_CURVE('',#821,#748,#878,.F.);
#698=EDGE_CURVE('',#823,#823,#879,.T.);
#699=EDGE_CURVE('',#824,#825,#141,.T.);
#700=EDGE_CURVE('',#825,#817,#880,.F.);
#701=EDGE_CURVE('',#798,#826,#881,.F.);
#702=EDGE_CURVE('',#826,#827,#142,.T.);
#703=EDGE_CURVE('',#827,#824,#882,.T.);
#704=EDGE_CURVE('',#828,#829,#143,.T.);
#705=EDGE_CURVE('',#829,#830,#144,.F.);
#706=EDGE_CURVE('',#830,#831,#145,.F.);
#707=EDGE_CURVE('',#831,#828,#146,.T.);
#708=EDGE_CURVE('',#832,#832,#883,.T.);
#709=EDGE_CURVE('',#833,#833,#884,.T.);
#710=EDGE_CURVE('',#756,#757,#30,.T.);
#711=EDGE_CURVE('',#771,#826,#31,.T.);
#712=EDGE_CURVE('',#815,#829,#885,.T.);
#713=EDGE_CURVE('',#828,#816,#886,.T.);
#714=EDGE_CURVE('',#830,#765,#887,.F.);
#715=EDGE_CURVE('',#768,#831,#888,.F.);
#716=EDGE_CURVE('',#766,#769,#889,.F.);
#717=EDGE_CURVE('',#827,#765,#890,.T.);
#718=EDGE_CURVE('',#824,#830,#891,.T.);
#719=EDGE_CURVE('',#825,#829,#892,.T.);
#720=EDGE_CURVE('',#742,#767,#893,.F.);
#721=EDGE_CURVE('',#768,#755,#894,.T.);
#722=EDGE_CURVE('',#831,#754,#895,.T.);
#723=EDGE_CURVE('',#828,#753,#896,.T.);
#724=EDGE_CURVE('',#816,#752,#897,.T.);
#725=EDGE_CURVE('',#802,#751,#898,.T.);
#726=EDGE_CURVE('',#803,#750,#899,.T.);
#727=EDGE_CURVE('',#797,#749,#900,.T.);
#728=VERTEX_POINT('',#1699);
#729=VERTEX_POINT('',#1701);
#730=VERTEX_POINT('',#1702);
#731=VERTEX_POINT('',#1704);
#732=VERTEX_POINT('',#1706);
#733=VERTEX_POINT('',#1709);
#734=VERTEX_POINT('',#1710);
#735=VERTEX_POINT('',#1712);
#736=VERTEX_POINT('',#1714);
#737=VERTEX_POINT('',#1717);
#738=VERTEX_POINT('',#1718);
#739=VERTEX_POINT('',#1720);
#740=VERTEX_POINT('',#1722);
#741=VERTEX_POINT('',#1725);
#742=VERTEX_POINT('',#1726);
#743=VERTEX_POINT('',#1728);
#744=VERTEX_POINT('',#1730);
#745=VERTEX_POINT('',#1732);
#746=VERTEX_POINT('',#1734);
#747=VERTEX_POINT('',#1736);
#748=VERTEX_POINT('',#1738);
#749=VERTEX_POINT('',#1740);
#750=VERTEX_POINT('',#1742);
#751=VERTEX_POINT('',#1744);
#752=VERTEX_POINT('',#1746);
#753=VERTEX_POINT('',#1748);
#754=VERTEX_POINT('',#1750);
#755=VERTEX_POINT('',#1752);
#756=VERTEX_POINT('',#1754);
#757=VERTEX_POINT('',#1756);
#758=VERTEX_POINT('',#1760);
#759=VERTEX_POINT('',#1762);
#760=VERTEX_POINT('',#1764);
#761=VERTEX_POINT('',#1766);
#762=VERTEX_POINT('',#1768);
#763=VERTEX_POINT('',#1770);
#764=VERTEX_POINT('',#1772);
#765=VERTEX_POINT('',#1776);
#766=VERTEX_POINT('',#1777);
#767=VERTEX_POINT('',#1779);
#768=VERTEX_POINT('',#1781);
#769=VERTEX_POINT('',#1785);
#770=VERTEX_POINT('',#1786);
#771=VERTEX_POINT('',#1788);
#772=VERTEX_POINT('',#1790);
#773=VERTEX_POINT('',#1794);
#774=VERTEX_POINT('',#1795);
#775=VERTEX_POINT('',#1797);
#776=VERTEX_POINT('',#1799);
#777=VERTEX_POINT('',#1802);
#778=VERTEX_POINT('',#1804);
#779=VERTEX_POINT('',#1805);
#780=VERTEX_POINT('',#1807);
#781=VERTEX_POINT('',#1809);
#782=VERTEX_POINT('',#1812);
#783=VERTEX_POINT('',#1813);
#784=VERTEX_POINT('',#1815);
#785=VERTEX_POINT('',#1817);
#786=VERTEX_POINT('',#1820);
#787=VERTEX_POINT('',#1822);
#788=VERTEX_POINT('',#1824);
#789=VERTEX_POINT('',#1826);
#790=VERTEX_POINT('',#1829);
#791=VERTEX_POINT('',#1830);
#792=VERTEX_POINT('',#1832);
#793=VERTEX_POINT('',#1834);
#794=VERTEX_POINT('',#1838);
#795=VERTEX_POINT('',#1841);
#796=VERTEX_POINT('',#1844);
#797=VERTEX_POINT('',#1845);
#798=VERTEX_POINT('',#1854);
#799=VERTEX_POINT('',#1856);
#800=VERTEX_POINT('',#1858);
#801=VERTEX_POINT('',#1862);
#802=VERTEX_POINT('',#1863);
#803=VERTEX_POINT('',#1865);
#804=VERTEX_POINT('',#1867);
#805=VERTEX_POINT('',#1871);
#806=VERTEX_POINT('',#1873);
#807=VERTEX_POINT('',#1876);
#808=VERTEX_POINT('',#1878);
#809=VERTEX_POINT('',#1882);
#810=VERTEX_POINT('',#1886);
#811=VERTEX_POINT('',#1892);
#812=VERTEX_POINT('',#1894);
#813=VERTEX_POINT('',#1898);
#814=VERTEX_POINT('',#1902);
#815=VERTEX_POINT('',#1926);
#816=VERTEX_POINT('',#1927);
#817=VERTEX_POINT('',#1931);
#818=VERTEX_POINT('',#1957);
#819=VERTEX_POINT('',#1961);
#820=VERTEX_POINT('',#1968);
#821=VERTEX_POINT('',#1970);
#822=VERTEX_POINT('',#1976);
#823=VERTEX_POINT('',#1980);
#824=VERTEX_POINT('',#1984);
#825=VERTEX_POINT('',#1985);
#826=VERTEX_POINT('',#1988);
#827=VERTEX_POINT('',#1990);
#828=VERTEX_POINT('',#1994);
#829=VERTEX_POINT('',#1995);
#830=VERTEX_POINT('',#1997);
#831=VERTEX_POINT('',#1999);
#832=VERTEX_POINT('',#2003);
#833=VERTEX_POINT('',#2005);
#834=CIRCLE('',#1198,0.008);
#835=CIRCLE('',#1199,0.0016);
#836=CIRCLE('',#1200,0.0016);
#837=CIRCLE('',#1201,0.0016);
#838=CIRCLE('',#1202,0.0016);
#839=CIRCLE('',#1203,0.0062);
#840=CIRCLE('',#1204,0.0062);
#841=CIRCLE('',#1205,0.005);
#842=CIRCLE('',#1206,0.003);
#843=CIRCLE('',#1207,0.00605);
#844=CIRCLE('',#1209,0.0016);
#845=CIRCLE('',#1210,0.0016);
#846=CIRCLE('',#1211,0.0007);
#847=CIRCLE('',#1212,0.0007);
#848=CIRCLE('',#1213,0.001);
#849=CIRCLE('',#1216,0.00605);
#850=CIRCLE('',#1218,0.008);
#851=CIRCLE('',#1219,0.0028);
#852=CIRCLE('',#1220,0.0028);
#853=CIRCLE('',#1221,0.0028);
#854=CIRCLE('',#1222,0.0028);
#855=CIRCLE('',#1223,0.0065);
#856=CIRCLE('',#1224,0.0065);
#857=CIRCLE('',#1226,0.0016);
#858=CIRCLE('',#1228,0.0016);
#859=CIRCLE('',#1233,0.007);
#860=CIRCLE('',#1234,0.007);
#861=CIRCLE('',#1236,0.0016);
#862=CIRCLE('',#1239,0.0016);
#863=CIRCLE('',#1243,0.0016);
#864=CIRCLE('',#1246,0.0016);
#865=CIRCLE('',#1258,0.0072);
#866=CIRCLE('',#1259,0.0072);
#867=CIRCLE('',#1260,0.0072);
#868=CIRCLE('',#1262,0.0072);
#869=CIRCLE('',#1263,0.0072);
#870=CIRCLE('',#1265,0.0007);
#871=CIRCLE('',#1267,0.0007);
#872=CIRCLE('',#1269,0.0007);
#873=CIRCLE('',#1271,0.0007);
#874=CIRCLE('',#1276,0.0016);
#875=CIRCLE('',#1279,0.0016);
#876=CIRCLE('',#1284,0.001);
#877=CIRCLE('',#1286,0.0016);
#878=CIRCLE('',#1287,0.001);
#879=CIRCLE('',#1289,0.0016);
#880=CIRCLE('',#1292,0.005);
#881=CIRCLE('',#1293,0.00605);
#882=CIRCLE('',#1294,0.003);
#883=CIRCLE('',#1297,0.00555);
#884=CIRCLE('',#1298,0.00555);
#885=CIRCLE('',#1302,0.004);
#886=CIRCLE('',#1303,0.004);
#887=CIRCLE('',#1305,0.004);
#888=CIRCLE('',#1306,0.004);
#889=CIRCLE('',#1308,0.001);
#890=CIRCLE('',#1309,0.001);
#891=CIRCLE('',#1311,0.001);
#892=CIRCLE('',#1313,0.001);
#893=CIRCLE('',#1316,0.001);
#894=CIRCLE('',#1317,0.001);
#895=CIRCLE('',#1319,0.001);
#896=CIRCLE('',#1321,0.001);
#897=CIRCLE('',#1323,0.001);
#898=CIRCLE('',#1325,0.001);
#899=CIRCLE('',#1327,0.001);
#900=CIRCLE('',#1329,0.001);
#901=EDGE_LOOP('',(#239));
#902=EDGE_LOOP('',(#240,#241,#242,#243));
#903=EDGE_LOOP('',(#244,#245,#246,#247));
#904=EDGE_LOOP('',(#248,#249,#250,#251));
#905=EDGE_LOOP('',(#252,#253,#254,#255,#256,#257,#258,#259,#260,#261,#262,
#263,#264,#265,#266,#267,#268));
#906=EDGE_LOOP('',(#269));
#907=EDGE_LOOP('',(#270));
#908=EDGE_LOOP('',(#271,#272,#273,#274,#275,#276,#277));
#909=EDGE_LOOP('',(#278,#279,#280,#281));
#910=EDGE_LOOP('',(#282,#283,#284,#285));
#911=EDGE_LOOP('',(#286,#287,#288,#289));
#912=EDGE_LOOP('',(#290));
#913=EDGE_LOOP('',(#291,#292,#293,#294));
#914=EDGE_LOOP('',(#295,#296,#297,#298));
#915=EDGE_LOOP('',(#299,#300,#301,#302,#303,#304));
#916=EDGE_LOOP('',(#305,#306,#307,#308));
#917=EDGE_LOOP('',(#309));
#918=EDGE_LOOP('',(#310));
#919=EDGE_LOOP('',(#311));
#920=EDGE_LOOP('',(#312));
#921=EDGE_LOOP('',(#313,#314,#315,#316));
#922=EDGE_LOOP('',(#317,#318,#319,#320,#321,#322,#323,#324));
#923=EDGE_LOOP('',(#325,#326,#327,#328));
#924=EDGE_LOOP('',(#329));
#925=EDGE_LOOP('',(#330));
#926=EDGE_LOOP('',(#331,#332,#333,#334));
#927=EDGE_LOOP('',(#335,#336,#337,#338));
#928=EDGE_LOOP('',(#339,#340,#341,#342));
#929=EDGE_LOOP('',(#343,#344,#345,#346));
#930=EDGE_LOOP('',(#347,#348,#349,#350));
#931=EDGE_LOOP('',(#351,#352,#353,#354));
#932=EDGE_LOOP('',(#355,#356,#357,#358));
#933=EDGE_LOOP('',(#359,#360,#361,#362));
#934=EDGE_LOOP('',(#363,#364,#365,#366));
#935=EDGE_LOOP('',(#367,#368,#369,#370));
#936=EDGE_LOOP('',(#371,#372,#373,#374));
#937=EDGE_LOOP('',(#375,#376,#377,#378));
#938=EDGE_LOOP('',(#379,#380,#381,#382));
#939=EDGE_LOOP('',(#383,#384,#385,#386));
#940=EDGE_LOOP('',(#387,#388,#389,#390));
#941=EDGE_LOOP('',(#391,#392,#393,#394));
#942=EDGE_LOOP('',(#395));
#943=EDGE_LOOP('',(#396));
#944=EDGE_LOOP('',(#397));
#945=EDGE_LOOP('',(#398));
#946=EDGE_LOOP('',(#399,#400,#401,#402,#403,#404,#405));
#947=EDGE_LOOP('',(#406,#407,#408,#409));
#948=EDGE_LOOP('',(#410,#411,#412,#413));
#949=EDGE_LOOP('',(#414,#415,#416,#417));
#950=EDGE_LOOP('',(#418,#419,#420,#421));
#951=EDGE_LOOP('',(#422,#423,#424,#425));
#952=EDGE_LOOP('',(#426,#427,#428,#429));
#953=EDGE_LOOP('',(#430,#431,#432,#433));
#954=EDGE_LOOP('',(#434,#435,#436,#437));
#955=EDGE_LOOP('',(#438));
#956=EDGE_LOOP('',(#439,#440,#441,#442));
#957=EDGE_LOOP('',(#443));
#958=EDGE_LOOP('',(#444,#445,#446,#447));
#959=EDGE_LOOP('',(#448));
#960=EDGE_LOOP('',(#449));
#961=EDGE_LOOP('',(#450));
#962=EDGE_LOOP('',(#451,#452,#453,#454));
#963=EDGE_LOOP('',(#455,#456,#457,#458));
#964=EDGE_LOOP('',(#459));
#965=EDGE_LOOP('',(#460,#461,#462,#463,#464));
#966=EDGE_LOOP('',(#465));
#967=EDGE_LOOP('',(#466,#467,#468,#469,#470));
#968=EDGE_LOOP('',(#471));
#969=EDGE_LOOP('',(#472));
#970=EDGE_LOOP('',(#473));
#971=EDGE_LOOP('',(#474,#475,#476,#477,#478,#479,#480));
#972=EDGE_LOOP('',(#481,#482,#483,#484));
#973=EDGE_LOOP('',(#485));
#974=EDGE_LOOP('',(#486));
#975=EDGE_LOOP('',(#487,#488));
#976=EDGE_LOOP('',(#489));
#977=EDGE_LOOP('',(#490,#491,#492,#493));
#978=EDGE_LOOP('',(#494));
#979=EDGE_LOOP('',(#495,#496,#497,#498));
#980=EDGE_LOOP('',(#499,#500,#501,#502));
#981=EDGE_LOOP('',(#503,#504,#505,#506,#507,#508));
#982=EDGE_LOOP('',(#509,#510,#511,#512));
#983=EDGE_LOOP('',(#513,#514,#515,#516));
#984=EDGE_LOOP('',(#517,#518,#519,#520));
#985=EDGE_LOOP('',(#521,#522,#523,#524,#525,#526));
#986=EDGE_LOOP('',(#527,#528,#529,#530));
#987=EDGE_LOOP('',(#531,#532,#533,#534));
#988=EDGE_LOOP('',(#535,#536,#537,#538));
#989=EDGE_LOOP('',(#539,#540,#541,#542));
#990=EDGE_LOOP('',(#543,#544,#545,#546));
#991=EDGE_LOOP('',(#547,#548,#549,#550));
#992=EDGE_LOOP('',(#551,#552,#553,#554,#555,#556,#557,#558));
#993=EDGE_LOOP('',(#559,#560,#561,#562,#563,#564));
#994=FACE_BOUND('',#901,.T.);
#995=FACE_BOUND('',#902,.T.);
#996=FACE_BOUND('',#903,.T.);
#997=FACE_BOUND('',#904,.T.);
#998=FACE_BOUND('',#905,.T.);
#999=FACE_BOUND('',#906,.T.);
#1000=FACE_BOUND('',#907,.T.);
#1001=FACE_BOUND('',#908,.T.);
#1002=FACE_BOUND('',#909,.T.);
#1003=FACE_BOUND('',#910,.T.);
#1004=FACE_BOUND('',#911,.T.);
#1005=FACE_BOUND('',#912,.T.);
#1006=FACE_BOUND('',#913,.T.);
#1007=FACE_BOUND('',#914,.T.);
#1008=FACE_BOUND('',#915,.T.);
#1009=FACE_BOUND('',#916,.T.);
#1010=FACE_BOUND('',#917,.T.);
#1011=FACE_BOUND('',#918,.T.);
#1012=FACE_BOUND('',#919,.T.);
#1013=FACE_BOUND('',#920,.T.);
#1014=FACE_BOUND('',#921,.T.);
#1015=FACE_BOUND('',#922,.T.);
#1016=FACE_BOUND('',#923,.T.);
#1017=FACE_BOUND('',#924,.T.);
#1018=FACE_BOUND('',#925,.T.);
#1019=FACE_BOUND('',#926,.T.);
#1020=FACE_BOUND('',#927,.T.);
#1021=FACE_BOUND('',#928,.T.);
#1022=FACE_BOUND('',#929,.T.);
#1023=FACE_BOUND('',#930,.T.);
#1024=FACE_BOUND('',#931,.T.);
#1025=FACE_BOUND('',#932,.T.);
#1026=FACE_BOUND('',#933,.T.);
#1027=FACE_BOUND('',#934,.T.);
#1028=FACE_BOUND('',#935,.T.);
#1029=FACE_BOUND('',#936,.T.);
#1030=FACE_BOUND('',#937,.T.);
#1031=FACE_BOUND('',#938,.T.);
#1032=FACE_BOUND('',#939,.T.);
#1033=FACE_BOUND('',#940,.T.);
#1034=FACE_BOUND('',#941,.T.);
#1035=FACE_BOUND('',#942,.T.);
#1036=FACE_BOUND('',#943,.T.);
#1037=FACE_BOUND('',#944,.T.);
#1038=FACE_BOUND('',#945,.T.);
#1039=FACE_BOUND('',#946,.T.);
#1040=FACE_BOUND('',#947,.T.);
#1041=FACE_BOUND('',#948,.T.);
#1042=FACE_BOUND('',#949,.T.);
#1043=FACE_BOUND('',#950,.T.);
#1044=FACE_BOUND('',#951,.T.);
#1045=FACE_BOUND('',#952,.T.);
#1046=FACE_BOUND('',#953,.T.);
#1047=FACE_BOUND('',#954,.T.);
#1048=FACE_BOUND('',#955,.T.);
#1049=FACE_BOUND('',#956,.T.);
#1050=FACE_BOUND('',#957,.T.);
#1051=FACE_BOUND('',#958,.T.);
#1052=FACE_BOUND('',#959,.T.);
#1053=FACE_BOUND('',#960,.T.);
#1054=FACE_BOUND('',#961,.T.);
#1055=FACE_BOUND('',#962,.T.);
#1056=FACE_BOUND('',#963,.T.);
#1057=FACE_BOUND('',#964,.T.);
#1058=FACE_BOUND('',#965,.T.);
#1059=FACE_BOUND('',#966,.T.);
#1060=FACE_BOUND('',#967,.T.);
#1061=FACE_BOUND('',#968,.T.);
#1062=FACE_BOUND('',#969,.T.);
#1063=FACE_BOUND('',#970,.T.);
#1064=FACE_BOUND('',#971,.T.);
#1065=FACE_BOUND('',#972,.T.);
#1066=FACE_BOUND('',#973,.T.);
#1067=FACE_BOUND('',#974,.T.);
#1068=FACE_BOUND('',#975,.T.);
#1069=FACE_BOUND('',#976,.T.);
#1070=FACE_BOUND('',#977,.T.);
#1071=FACE_BOUND('',#978,.T.);
#1072=FACE_BOUND('',#979,.T.);
#1073=FACE_BOUND('',#980,.T.);
#1074=FACE_BOUND('',#981,.T.);
#1075=FACE_BOUND('',#982,.T.);
#1076=FACE_BOUND('',#983,.T.);
#1077=FACE_BOUND('',#984,.T.);
#1078=FACE_BOUND('',#985,.T.);
#1079=FACE_BOUND('',#986,.T.);
#1080=FACE_BOUND('',#987,.T.);
#1081=FACE_BOUND('',#988,.T.);
#1082=FACE_BOUND('',#989,.T.);
#1083=FACE_BOUND('',#990,.T.);
#1084=FACE_BOUND('',#991,.T.);
#1085=FACE_BOUND('',#992,.T.);
#1086=FACE_BOUND('',#993,.T.);
#1087=PLANE('',#1197);
#1088=PLANE('',#1208);
#1089=PLANE('',#1214);
#1090=PLANE('',#1215);
#1091=PLANE('',#1217);
#1092=PLANE('',#1229);
#1093=PLANE('',#1230);
#1094=PLANE('',#1231);
#1095=PLANE('',#1237);
#1096=PLANE('',#1240);
#1097=PLANE('',#1241);
#1098=PLANE('',#1244);
#1099=PLANE('',#1247);
#1100=PLANE('',#1250);
#1101=PLANE('',#1251);
#1102=PLANE('',#1254);
#1103=PLANE('',#1273);
#1104=PLANE('',#1274);
#1105=PLANE('',#1275);
#1106=PLANE('',#1277);
#1107=PLANE('',#1278);
#1108=PLANE('',#1281);
#1109=PLANE('',#1282);
#1110=PLANE('',#1283);
#1111=PLANE('',#1285);
#1112=PLANE('',#1288);
#1113=PLANE('',#1291);
#1114=PLANE('',#1295);
#1115=PLANE('',#1331);
#1116=ADVANCED_FACE('',(#994,#995,#996,#997,#998),#1087,.T.);
#1117=ADVANCED_FACE('',(#999,#1000,#1001),#1088,.F.);
#1118=ADVANCED_FACE('',(#1002),#1089,.T.);
#1119=ADVANCED_FACE('',(#1003),#1090,.T.);
#1120=ADVANCED_FACE('',(#1004,#1005,#1006,#1007,#1008,#1009),#1091,.F.);
#1121=ADVANCED_FACE('',(#1010,#1011),#32,.F.);
#1122=ADVANCED_FACE('',(#1012,#1013),#33,.F.);
#1123=ADVANCED_FACE('',(#1014),#1092,.T.);
#1124=ADVANCED_FACE('',(#1015),#1093,.F.);
#1125=ADVANCED_FACE('',(#1016),#1094,.T.);
#1126=ADVANCED_FACE('',(#1017,#1018),#34,.F.);
#1127=ADVANCED_FACE('',(#1019),#35,.F.);
#1128=ADVANCED_FACE('',(#1020),#1095,.F.);
#1129=ADVANCED_FACE('',(#1021),#36,.F.);
#1130=ADVANCED_FACE('',(#1022),#1096,.F.);
#1131=ADVANCED_FACE('',(#1023),#1097,.F.);
#1132=ADVANCED_FACE('',(#1024),#37,.F.);
#1133=ADVANCED_FACE('',(#1025),#1098,.F.);
#1134=ADVANCED_FACE('',(#1026),#38,.F.);
#1135=ADVANCED_FACE('',(#1027),#1099,.F.);
#1136=ADVANCED_FACE('',(#1028),#22,.F.);
#1137=ADVANCED_FACE('',(#1029),#23,.F.);
#1138=ADVANCED_FACE('',(#1030),#1100,.F.);
#1139=ADVANCED_FACE('',(#1031),#1101,.F.);
#1140=ADVANCED_FACE('',(#1032),#24,.F.);
#1141=ADVANCED_FACE('',(#1033),#25,.F.);
#1142=ADVANCED_FACE('',(#1034),#1102,.F.);
#1143=ADVANCED_FACE('',(#1035,#1036),#12,.T.);
#1144=ADVANCED_FACE('',(#1037,#1038),#13,.T.);
#1145=ADVANCED_FACE('',(#1039),#39,.T.);
#1146=ADVANCED_FACE('',(#1040),#40,.T.);
#1147=ADVANCED_FACE('',(#1041),#41,.T.);
#1148=ADVANCED_FACE('',(#1042),#14,.T.);
#1149=ADVANCED_FACE('',(#1043),#42,.T.);
#1150=ADVANCED_FACE('',(#1044),#15,.T.);
#1151=ADVANCED_FACE('',(#1045),#43,.T.);
#1152=ADVANCED_FACE('',(#1046),#1103,.T.);
#1153=ADVANCED_FACE('',(#1047),#1104,.F.);
#1154=ADVANCED_FACE('',(#1048,#1049),#1105,.F.);
#1155=ADVANCED_FACE('',(#1050,#1051),#1106,.T.);
#1156=ADVANCED_FACE('',(#1052),#1107,.T.);
#1157=ADVANCED_FACE('',(#1053,#1054),#44,.F.);
#1158=ADVANCED_FACE('',(#1055),#1108,.T.);
#1159=ADVANCED_FACE('',(#1056),#1109,.F.);
#1160=ADVANCED_FACE('',(#1057,#1058),#1110,.T.);
#1161=ADVANCED_FACE('',(#1059,#1060),#1111,.F.);
#1162=ADVANCED_FACE('',(#1061),#1112,.T.);
#1163=ADVANCED_FACE('',(#1062,#1063),#45,.F.);
#1164=ADVANCED_FACE('',(#1064),#1113,.T.);
#1165=ADVANCED_FACE('',(#1065),#1114,.F.);
#1166=ADVANCED_FACE('',(#1066,#1067),#46,.F.);
#1167=ADVANCED_FACE('',(#1068,#1069),#26,.F.);
#1168=ADVANCED_FACE('',(#1070,#1071),#27,.F.);
#1169=ADVANCED_FACE('',(#1072),#47,.F.);
#1170=ADVANCED_FACE('',(#1073),#48,.T.);
#1171=ADVANCED_FACE('',(#1074),#49,.T.);
#1172=ADVANCED_FACE('',(#1075),#16,.T.);
#1173=ADVANCED_FACE('',(#1076),#50,.T.);
#1174=ADVANCED_FACE('',(#1077),#17,.T.);
#1175=ADVANCED_FACE('',(#1078),#51,.T.);
#1176=ADVANCED_FACE('',(#1079),#18,.T.);
#1177=ADVANCED_FACE('',(#1080),#52,.T.);
#1178=ADVANCED_FACE('',(#1081),#19,.T.);
#1179=ADVANCED_FACE('',(#1082),#20,.T.);
#1180=ADVANCED_FACE('',(#1083),#53,.T.);
#1181=ADVANCED_FACE('',(#1084),#21,.T.);
#1182=ADVANCED_FACE('',(#1085),#54,.T.);
#1183=ADVANCED_FACE('',(#1086),#1115,.T.);
#1184=CLOSED_SHELL('',(#1116,#1117,#1118,#1119,#1120,#1121,#1122,#1123,
#1124,#1125,#1126,#1127,#1128,#1129,#1130,#1131,#1132,#1133,#1134,#1135,
#1136,#1137,#1138,#1139,#1140,#1141,#1142,#1143,#1144,#1145,#1146,#1147,
#1148,#1149,#1150,#1151,#1152,#1153,#1154,#1155,#1156,#1157,#1158,#1159,
#1160,#1161,#1162,#1163,#1164,#1165,#1166,#1167,#1168,#1169,#1170,#1171,
#1172,#1173,#1174,#1175,#1176,#1177,#1178,#1179,#1180,#1181,#1182,#1183));
#1185=STYLED_ITEM('',(#1186),#1193);
#1186=PRESENTATION_STYLE_ASSIGNMENT((#1187));
#1187=SURFACE_STYLE_USAGE(.BOTH.,#1188);
#1188=SURFACE_SIDE_STYLE('',(#1189));
#1189=SURFACE_STYLE_FILL_AREA(#1190);
#1190=FILL_AREA_STYLE('',(#1191));
#1191=FILL_AREA_STYLE_COLOUR('',#1192);
#1192=DRAUGHTING_PRE_DEFINED_COLOUR('black');
#1193=MANIFOLD_SOLID_BREP('motor holder 2',#1184);
#1194=SHAPE_DEFINITION_REPRESENTATION(#2053,#1195);
#1195=SHAPE_REPRESENTATION('motor holder 2',(#1196),#2048);
#1196=AXIS2_PLACEMENT_3D('',#1696,#1332,#1333);
#1197=AXIS2_PLACEMENT_3D('',#1697,#1334,#1335);
#1198=AXIS2_PLACEMENT_3D('',#1698,#1336,#1337);
#1199=AXIS2_PLACEMENT_3D('',#1703,#1339,#1340);
#1200=AXIS2_PLACEMENT_3D('',#1707,#1342,#1343);
#1201=AXIS2_PLACEMENT_3D('',#1708,#1344,#1345);
#1202=AXIS2_PLACEMENT_3D('',#1713,#1347,#1348);
#1203=AXIS2_PLACEMENT_3D('',#1741,#1362,#1363);
#1204=AXIS2_PLACEMENT_3D('',#1745,#1365,#1366);
#1205=AXIS2_PLACEMENT_3D('',#1747,#1367,#1368);
#1206=AXIS2_PLACEMENT_3D('',#1751,#1370,#1371);
#1207=AXIS2_PLACEMENT_3D('',#1755,#1373,#1374);
#1208=AXIS2_PLACEMENT_3D('',#1758,#1376,#1377);
#1209=AXIS2_PLACEMENT_3D('',#1759,#1378,#1379);
#1210=AXIS2_PLACEMENT_3D('',#1761,#1380,#1381);
#1211=AXIS2_PLACEMENT_3D('',#1765,#1383,#1384);
#1212=AXIS2_PLACEMENT_3D('',#1769,#1386,#1387);
#1213=AXIS2_PLACEMENT_3D('',#1773,#1389,#1390);
#1214=AXIS2_PLACEMENT_3D('',#1774,#1391,#1392);
#1215=AXIS2_PLACEMENT_3D('',#1783,#1397,#1398);
#1216=AXIS2_PLACEMENT_3D('',#1789,#1401,#1402);
#1217=AXIS2_PLACEMENT_3D('',#1792,#1404,#1405);
#1218=AXIS2_PLACEMENT_3D('',#1801,#1410,#1411);
#1219=AXIS2_PLACEMENT_3D('',#1803,#1412,#1413);
#1220=AXIS2_PLACEMENT_3D('',#1808,#1415,#1416);
#1221=AXIS2_PLACEMENT_3D('',#1811,#1418,#1419);
#1222=AXIS2_PLACEMENT_3D('',#1816,#1421,#1422);
#1223=AXIS2_PLACEMENT_3D('',#1823,#1426,#1427);
#1224=AXIS2_PLACEMENT_3D('',#1827,#1429,#1430);
#1225=AXIS2_PLACEMENT_3D('',#1836,#1435,#1436);
#1226=AXIS2_PLACEMENT_3D('',#1837,#1437,#1438);
#1227=AXIS2_PLACEMENT_3D('',#1839,#1439,#1440);
#1228=AXIS2_PLACEMENT_3D('',#1840,#1441,#1442);
#1229=AXIS2_PLACEMENT_3D('',#1842,#1443,#1444);
#1230=AXIS2_PLACEMENT_3D('',#1848,#1448,#1449);
#1231=AXIS2_PLACEMENT_3D('',#1860,#1454,#1455);
#1232=AXIS2_PLACEMENT_3D('',#1869,#1460,#1461);
#1233=AXIS2_PLACEMENT_3D('',#1870,#1462,#1463);
#1234=AXIS2_PLACEMENT_3D('',#1872,#1464,#1465);
#1235=AXIS2_PLACEMENT_3D('',#1874,#1466,#1467);
#1236=AXIS2_PLACEMENT_3D('',#1877,#1469,#1470);
#1237=AXIS2_PLACEMENT_3D('',#1880,#1472,#1473);
#1238=AXIS2_PLACEMENT_3D('',#1884,#1476,#1477);
#1239=AXIS2_PLACEMENT_3D('',#1885,#1478,#1479);
#1240=AXIS2_PLACEMENT_3D('',#1888,#1481,#1482);
#1241=AXIS2_PLACEMENT_3D('',#1890,#1484,#1485);
#1242=AXIS2_PLACEMENT_3D('',#1896,#1489,#1490);
#1243=AXIS2_PLACEMENT_3D('',#1897,#1491,#1492);
#1244=AXIS2_PLACEMENT_3D('',#1900,#1494,#1495);
#1245=AXIS2_PLACEMENT_3D('',#1904,#1498,#1499);
#1246=AXIS2_PLACEMENT_3D('',#1905,#1500,#1501);
#1247=AXIS2_PLACEMENT_3D('',#1906,#1502,#1503);
#1248=AXIS2_PLACEMENT_3D('',#1909,#1506,#1507);
#1249=AXIS2_PLACEMENT_3D('',#1911,#1509,#1510);
#1250=AXIS2_PLACEMENT_3D('',#1913,#1512,#1513);
#1251=AXIS2_PLACEMENT_3D('',#1914,#1514,#1515);
#1252=AXIS2_PLACEMENT_3D('',#1917,#1518,#1519);
#1253=AXIS2_PLACEMENT_3D('',#1919,#1521,#1522);
#1254=AXIS2_PLACEMENT_3D('',#1921,#1524,#1525);
#1255=AXIS2_PLACEMENT_3D('',#1922,#1526,#1527);
#1256=AXIS2_PLACEMENT_3D('',#1923,#1528,#1529);
#1257=AXIS2_PLACEMENT_3D('',#1924,#1530,#1531);
#1258=AXIS2_PLACEMENT_3D('',#1928,#1533,#1534);
#1259=AXIS2_PLACEMENT_3D('',#1929,#1535,#1536);
#1260=AXIS2_PLACEMENT_3D('',#1930,#1537,#1538);
#1261=AXIS2_PLACEMENT_3D('',#1937,#1539,#1540);
#1262=AXIS2_PLACEMENT_3D('',#1938,#1541,#1542);
#1263=AXIS2_PLACEMENT_3D('',#1939,#1543,#1544);
#1264=AXIS2_PLACEMENT_3D('',#1940,#1545,#1546);
#1265=AXIS2_PLACEMENT_3D('',#1941,#1547,#1548);
#1266=AXIS2_PLACEMENT_3D('',#1942,#1549,#1550);
#1267=AXIS2_PLACEMENT_3D('',#1943,#1551,#1552);
#1268=AXIS2_PLACEMENT_3D('',#1944,#1553,#1554);
#1269=AXIS2_PLACEMENT_3D('',#1945,#1555,#1556);
#1270=AXIS2_PLACEMENT_3D('',#1946,#1557,#1558);
#1271=AXIS2_PLACEMENT_3D('',#1947,#1559,#1560);
#1272=AXIS2_PLACEMENT_3D('',#1948,#1561,#1562);
#1273=AXIS2_PLACEMENT_3D('',#1949,#1563,#1564);
#1274=AXIS2_PLACEMENT_3D('',#1952,#1567,#1568);
#1275=AXIS2_PLACEMENT_3D('',#1955,#1571,#1572);
#1276=AXIS2_PLACEMENT_3D('',#1956,#1573,#1574);
#1277=AXIS2_PLACEMENT_3D('',#1958,#1575,#1576);
#1278=AXIS2_PLACEMENT_3D('',#1959,#1577,#1578);
#1279=AXIS2_PLACEMENT_3D('',#1960,#1579,#1580);
#1280=AXIS2_PLACEMENT_3D('',#1962,#1581,#1582);
#1281=AXIS2_PLACEMENT_3D('',#1963,#1583,#1584);
#1282=AXIS2_PLACEMENT_3D('',#1966,#1587,#1588);
#1283=AXIS2_PLACEMENT_3D('',#1972,#1592,#1593);
#1284=AXIS2_PLACEMENT_3D('',#1973,#1594,#1595);
#1285=AXIS2_PLACEMENT_3D('',#1974,#1596,#1597);
#1286=AXIS2_PLACEMENT_3D('',#1975,#1598,#1599);
#1287=AXIS2_PLACEMENT_3D('',#1977,#1600,#1601);
#1288=AXIS2_PLACEMENT_3D('',#1978,#1602,#1603);
#1289=AXIS2_PLACEMENT_3D('',#1979,#1604,#1605);
#1290=AXIS2_PLACEMENT_3D('',#1981,#1606,#1607);
#1291=AXIS2_PLACEMENT_3D('',#1982,#1608,#1609);
#1292=AXIS2_PLACEMENT_3D('',#1986,#1611,#1612);
#1293=AXIS2_PLACEMENT_3D('',#1987,#1613,#1614);
#1294=AXIS2_PLACEMENT_3D('',#1991,#1616,#1617);
#1295=AXIS2_PLACEMENT_3D('',#1992,#1618,#1619);
#1296=AXIS2_PLACEMENT_3D('',#2001,#1624,#1625);
#1297=AXIS2_PLACEMENT_3D('',#2002,#1626,#1627);
#1298=AXIS2_PLACEMENT_3D('',#2004,#1628,#1629);
#1299=AXIS2_PLACEMENT_3D('',#2006,#1630,#1631);
#1300=AXIS2_PLACEMENT_3D('',#2011,#1632,#1633);
#1301=AXIS2_PLACEMENT_3D('',#2016,#1634,#1635);
#1302=AXIS2_PLACEMENT_3D('',#2017,#1636,#1637);
#1303=AXIS2_PLACEMENT_3D('',#2018,#1638,#1639);
#1304=AXIS2_PLACEMENT_3D('',#2019,#1640,#1641);
#1305=AXIS2_PLACEMENT_3D('',#2020,#1642,#1643);
#1306=AXIS2_PLACEMENT_3D('',#2021,#1644,#1645);
#1307=AXIS2_PLACEMENT_3D('',#2022,#1646,#1647);
#1308=AXIS2_PLACEMENT_3D('',#2023,#1648,#1649);
#1309=AXIS2_PLACEMENT_3D('',#2024,#1650,#1651);
#1310=AXIS2_PLACEMENT_3D('',#2025,#1652,#1653);
#1311=AXIS2_PLACEMENT_3D('',#2026,#1654,#1655);
#1312=AXIS2_PLACEMENT_3D('',#2027,#1656,#1657);
#1313=AXIS2_PLACEMENT_3D('',#2028,#1658,#1659);
#1314=AXIS2_PLACEMENT_3D('',#2029,#1660,#1661);
#1315=AXIS2_PLACEMENT_3D('',#2030,#1662,#1663);
#1316=AXIS2_PLACEMENT_3D('',#2031,#1664,#1665);
#1317=AXIS2_PLACEMENT_3D('',#2032,#1666,#1667);
#1318=AXIS2_PLACEMENT_3D('',#2033,#1668,#1669);
#1319=AXIS2_PLACEMENT_3D('',#2034,#1670,#1671);
#1320=AXIS2_PLACEMENT_3D('',#2035,#1672,#1673);
#1321=AXIS2_PLACEMENT_3D('',#2036,#1674,#1675);
#1322=AXIS2_PLACEMENT_3D('',#2037,#1676,#1677);
#1323=AXIS2_PLACEMENT_3D('',#2038,#1678,#1679);
#1324=AXIS2_PLACEMENT_3D('',#2039,#1680,#1681);
#1325=AXIS2_PLACEMENT_3D('',#2040,#1682,#1683);
#1326=AXIS2_PLACEMENT_3D('',#2041,#1684,#1685);
#1327=AXIS2_PLACEMENT_3D('',#2042,#1686,#1687);
#1328=AXIS2_PLACEMENT_3D('',#2043,#1688,#1689);
#1329=AXIS2_PLACEMENT_3D('',#2044,#1690,#1691);
#1330=AXIS2_PLACEMENT_3D('',#2045,#1692,#1693);
#1331=AXIS2_PLACEMENT_3D('',#2046,#1694,#1695);
#1332=DIRECTION('',(0.,0.,1.));
#1333=DIRECTION('',(1.,0.,0.));
#1334=DIRECTION('',(0.,-1.,0.));
#1335=DIRECTION('',(0.,0.,-1.));
#1336=DIRECTION('',(0.,-1.,0.));
#1337=DIRECTION('',(0.,0.,-1.));
#1338=DIRECTION('',(1.,0.,-3.46944695195362E-16));
#1339=DIRECTION('',(0.,-1.,0.));
#1340=DIRECTION('',(0.,0.,-1.));
#1341=DIRECTION('',(-1.,0.,0.));
#1342=DIRECTION('',(0.,-1.,0.));
#1343=DIRECTION('',(0.,0.,-1.));
#1344=DIRECTION('',(0.,-1.,0.));
#1345=DIRECTION('',(0.,0.,-1.));
#1346=DIRECTION('',(1.,0.,0.));
#1347=DIRECTION('',(0.,-1.,0.));
#1348=DIRECTION('',(0.,0.,-1.));
#1349=DIRECTION('',(-1.,0.,0.));
#1350=DIRECTION('',(-1.,0.,0.));
#1351=DIRECTION('',(0.,0.,-1.));
#1352=DIRECTION('',(-1.,0.,0.));
#1353=DIRECTION('',(0.,0.,-1.));
#1354=DIRECTION('',(-1.,0.,0.));
#1355=DIRECTION('',(0.,0.,-1.));
#1356=DIRECTION('',(-1.,0.,0.));
#1357=DIRECTION('',(0.,0.,-1.));
#1358=DIRECTION('',(-1.,0.,-1.4954512723938E-16));
#1359=DIRECTION('',(0.,0.,1.));
#1360=DIRECTION('',(-1.,0.,0.));
#1361=DIRECTION('',(0.,0.,-1.));
#1362=DIRECTION('',(0.,-1.,0.));
#1363=DIRECTION('',(0.,0.,-1.));
#1364=DIRECTION('',(-1.,0.,0.));
#1365=DIRECTION('',(0.,-1.,0.));
#1366=DIRECTION('',(0.,0.,-1.));
#1367=DIRECTION('',(0.,-1.,0.));
#1368=DIRECTION('',(0.,0.,-1.));
#1369=DIRECTION('',(1.,0.,0.));
#1370=DIRECTION('',(0.,-1.,0.));
#1371=DIRECTION('',(0.,0.,-1.));
#1372=DIRECTION('',(0.,0.,-1.));
#1373=DIRECTION('',(0.,-1.,0.));
#1374=DIRECTION('',(0.,0.,-1.));
#1375=DIRECTION('',(0.,0.,-1.));
#1376=DIRECTION('',(0.,0.,1.));
#1377=DIRECTION('',(1.,0.,0.));
#1378=DIRECTION('',(0.,0.,-1.));
#1379=DIRECTION('',(-1.,-6.12323399573676E-17,0.));
#1380=DIRECTION('',(0.,0.,-1.));
#1381=DIRECTION('',(1.,6.12323399573676E-17,0.));
#1382=DIRECTION('',(0.,-1.,0.));
#1383=DIRECTION('',(0.,0.,1.));
#1384=DIRECTION('',(1.,0.,0.));
#1385=DIRECTION('',(-1.,0.,0.));
#1386=DIRECTION('',(0.,0.,1.));
#1387=DIRECTION('',(1.,0.,0.));
#1388=DIRECTION('',(0.,-1.,0.));
#1389=DIRECTION('',(0.,0.,1.));
#1390=DIRECTION('',(1.,0.,0.));
#1391=DIRECTION('',(-1.,0.,0.));
#1392=DIRECTION('',(0.,-1.,0.));
#1393=DIRECTION('',(0.,0.,1.));
#1394=DIRECTION('',(0.,-1.,0.));
#1395=DIRECTION('',(0.,0.,-1.));
#1396=DIRECTION('',(0.,1.,0.));
#1397=DIRECTION('',(0.,1.,0.));
#1398=DIRECTION('',(0.,0.,1.));
#1399=DIRECTION('',(1.,0.,0.));
#1400=DIRECTION('',(0.,0.,1.));
#1401=DIRECTION('',(0.,1.,0.));
#1402=DIRECTION('',(0.,0.,1.));
#1403=DIRECTION('',(0.,0.,1.));
#1404=DIRECTION('',(0.,-1.,0.));
#1405=DIRECTION('',(0.,0.,-1.));
#1406=DIRECTION('',(0.,0.,1.));
#1407=DIRECTION('',(-1.,0.,-1.4954512723938E-16));
#1408=DIRECTION('',(0.,0.,1.));
#1409=DIRECTION('',(-1.,0.,0.));
#1410=DIRECTION('',(0.,-1.,0.));
#1411=DIRECTION('',(0.,0.,-1.));
#1412=DIRECTION('',(0.,-1.,0.));
#1413=DIRECTION('',(0.,0.,-1.));
#1414=DIRECTION('',(-1.,0.,3.46944695195362E-16));
#1415=DIRECTION('',(0.,-1.,0.));
#1416=DIRECTION('',(0.,0.,-1.));
#1417=DIRECTION('',(1.,0.,0.));
#1418=DIRECTION('',(0.,-1.,0.));
#1419=DIRECTION('',(0.,0.,-1.));
#1420=DIRECTION('',(-1.,0.,0.));
#1421=DIRECTION('',(0.,-1.,0.));
#1422=DIRECTION('',(0.,0.,-1.));
#1423=DIRECTION('',(1.,0.,0.));
#1424=DIRECTION('',(0.,0.,-1.));
#1425=DIRECTION('',(0.,0.,-1.));
#1426=DIRECTION('',(0.,-1.,0.));
#1427=DIRECTION('',(0.,0.,-1.));
#1428=DIRECTION('',(1.,0.,0.));
#1429=DIRECTION('',(0.,-1.,0.));
#1430=DIRECTION('',(0.,0.,-1.));
#1431=DIRECTION('',(0.,0.,-1.));
#1432=DIRECTION('',(-1.,0.,0.));
#1433=DIRECTION('',(0.,0.,-1.));
#1434=DIRECTION('',(-1.,0.,0.));
#1435=DIRECTION('',(0.,0.,-1.));
#1436=DIRECTION('',(-1.,0.,0.));
#1437=DIRECTION('',(-1.4954512723938E-16,0.,1.));
#1438=DIRECTION('',(1.,0.,1.4954512723938E-16));
#1439=DIRECTION('',(0.,0.,-1.));
#1440=DIRECTION('',(-1.,0.,0.));
#1441=DIRECTION('',(0.,0.,1.));
#1442=DIRECTION('',(1.,0.,0.));
#1443=DIRECTION('',(1.,0.,0.));
#1444=DIRECTION('',(0.,0.,-1.));
#1445=DIRECTION('',(0.,1.,0.));
#1446=DIRECTION('',(0.,0.,-1.));
#1447=DIRECTION('',(0.,0.,-1.));
#1448=DIRECTION('',(1.,0.,0.));
#1449=DIRECTION('',(0.,0.,-1.));
#1450=DIRECTION('',(0.,-1.,0.));
#1451=DIRECTION('',(0.,0.,1.));
#1452=DIRECTION('',(0.,1.,0.));
#1453=DIRECTION('',(0.,0.,-1.));
#1454=DIRECTION('',(0.,0.,1.));
#1455=DIRECTION('',(1.,0.,0.));
#1456=DIRECTION('',(0.,1.,0.));
#1457=DIRECTION('',(-1.,0.,0.));
#1458=DIRECTION('',(0.,1.,0.));
#1459=DIRECTION('',(1.,0.,0.));
#1460=DIRECTION('',(0.,1.,0.));
#1461=DIRECTION('',(0.,0.,1.));
#1462=DIRECTION('',(0.,-1.,0.));
#1463=DIRECTION('',(0.,0.,-1.));
#1464=DIRECTION('',(0.,-1.,0.));
#1465=DIRECTION('',(0.,0.,-1.));
#1466=DIRECTION('',(0.,1.,0.));
#1467=DIRECTION('',(0.,0.,1.));
#1468=DIRECTION('',(0.,1.,0.));
#1469=DIRECTION('',(0.,-1.,0.));
#1470=DIRECTION('',(0.,0.,-1.));
#1471=DIRECTION('',(0.,1.,0.));
#1472=DIRECTION('',(0.,0.,-1.));
#1473=DIRECTION('',(-1.,0.,0.));
#1474=DIRECTION('',(-1.,0.,0.));
#1475=DIRECTION('',(0.,1.,0.));
#1476=DIRECTION('',(0.,1.,0.));
#1477=DIRECTION('',(0.,0.,1.));
#1478=DIRECTION('',(0.,-1.,0.));
#1479=DIRECTION('',(0.,0.,-1.));
#1480=DIRECTION('',(0.,1.,0.));
#1481=DIRECTION('',(0.,0.,1.));
#1482=DIRECTION('',(1.,0.,0.));
#1483=DIRECTION('',(1.,0.,0.));
#1484=DIRECTION('',(-3.46944695195362E-16,0.,-1.));
#1485=DIRECTION('',(-1.,0.,3.46944695195362E-16));
#1486=DIRECTION('',(0.,1.,0.));
#1487=DIRECTION('',(-1.,0.,3.46944695195362E-16));
#1488=DIRECTION('',(0.,1.,0.));
#1489=DIRECTION('',(0.,1.,0.));
#1490=DIRECTION('',(0.,0.,1.));
#1491=DIRECTION('',(0.,-1.,0.));
#1492=DIRECTION('',(0.,0.,-1.));
#1493=DIRECTION('',(0.,1.,0.));
#1494=DIRECTION('',(0.,0.,1.));
#1495=DIRECTION('',(1.,0.,0.));
#1496=DIRECTION('',(1.,0.,0.));
#1497=DIRECTION('',(0.,1.,0.));
#1498=DIRECTION('',(0.,1.,0.));
#1499=DIRECTION('',(0.,0.,1.));
#1500=DIRECTION('',(0.,-1.,0.));
#1501=DIRECTION('',(0.,0.,-1.));
#1502=DIRECTION('',(0.,-0.707106781186548,0.707106781186547));
#1503=DIRECTION('',(1.,0.,0.));
#1504=DIRECTION('',(0.,-0.707106781186547,-0.707106781186548));
#1505=DIRECTION('',(0.,0.707106781186547,0.707106781186548));
#1506=DIRECTION('',(0.,1.,0.));
#1507=DIRECTION('',(0.,0.,1.));
#1508=DIRECTION('',(-2.0443912222445E-16,0.707106781186547,-0.707106781186548));
#1509=DIRECTION('',(0.,1.,0.));
#1510=DIRECTION('',(0.,0.,1.));
#1511=DIRECTION('',(2.0443912222445E-16,-0.707106781186547,0.707106781186548));
#1512=DIRECTION('',(-2.4532694666934E-16,-0.707106781186547,-0.707106781186548));
#1513=DIRECTION('',(-1.,0.,3.46944695195362E-16));
#1514=DIRECTION('',(0.,-0.707106781186548,0.707106781186547));
#1515=DIRECTION('',(1.,0.,0.));
#1516=DIRECTION('',(0.,-0.707106781186547,-0.707106781186548));
#1517=DIRECTION('',(0.,0.707106781186547,0.707106781186548));
#1518=DIRECTION('',(0.,1.,0.));
#1519=DIRECTION('',(0.,0.,1.));
#1520=DIRECTION('',(0.,0.707106781186547,-0.707106781186548));
#1521=DIRECTION('',(0.,1.,0.));
#1522=DIRECTION('',(0.,0.,1.));
#1523=DIRECTION('',(0.,-0.707106781186547,0.707106781186548));
#1524=DIRECTION('',(0.,-0.707106781186548,-0.707106781186547));
#1525=DIRECTION('',(-1.,0.,0.));
#1526=DIRECTION('',(0.,-1.,0.));
#1527=DIRECTION('',(0.,0.,-1.));
#1528=DIRECTION('',(0.,-1.,0.));
#1529=DIRECTION('',(0.,0.,-1.));
#1530=DIRECTION('',(0.,1.,0.));
#1531=DIRECTION('',(0.,0.,1.));
#1532=DIRECTION('',(0.,1.,0.));
#1533=DIRECTION('',(0.,-1.,0.));
#1534=DIRECTION('',(0.,0.,-1.));
#1535=DIRECTION('',(0.,1.,0.));
#1536=DIRECTION('',(0.,0.,1.));
#1537=DIRECTION('',(0.,1.,0.));
#1538=DIRECTION('',(0.,0.,1.));
#1539=DIRECTION('',(0.,-1.,0.));
#1540=DIRECTION('',(0.,0.,-1.));
#1541=DIRECTION('',(0.,-1.,0.));
#1542=DIRECTION('',(0.,0.,-1.));
#1543=DIRECTION('',(0.,-1.,0.));
#1544=DIRECTION('',(0.,0.,-1.));
#1545=DIRECTION('',(0.,0.,1.));
#1546=DIRECTION('',(1.,0.,0.));
#1547=DIRECTION('',(-6.12323399573677E-17,0.,-1.));
#1548=DIRECTION('',(-1.,0.,6.12323399573677E-17));
#1549=DIRECTION('',(0.,-1.,0.));
#1550=DIRECTION('',(0.,0.,-1.));
#1551=DIRECTION('',(1.,0.,0.));
#1552=DIRECTION('',(0.,0.,-1.));
#1553=DIRECTION('',(1.,0.,0.));
#1554=DIRECTION('',(0.,0.,-1.));
#1555=DIRECTION('',(1.,0.,-1.22464679914735E-16));
#1556=DIRECTION('',(-1.22464679914735E-16,0.,-1.));
#1557=DIRECTION('',(0.,-1.,0.));
#1558=DIRECTION('',(0.,0.,-1.));
#1559=DIRECTION('',(0.,0.,-1.));
#1560=DIRECTION('',(-1.,0.,0.));
#1561=DIRECTION('',(0.,0.,-1.));
#1562=DIRECTION('',(-1.,0.,0.));
#1563=DIRECTION('',(-1.,0.,0.));
#1564=DIRECTION('',(0.,0.,1.));
#1565=DIRECTION('',(0.,-1.,0.));
#1566=DIRECTION('',(0.,-1.,0.));
#1567=DIRECTION('',(-1.,0.,0.));
#1568=DIRECTION('',(0.,0.,1.));
#1569=DIRECTION('',(0.,-1.,0.));
#1570=DIRECTION('',(0.,-1.,0.));
#1571=DIRECTION('',(0.,0.,1.));
#1572=DIRECTION('',(1.,0.,0.));
#1573=DIRECTION('',(0.,0.,1.));
#1574=DIRECTION('',(1.,0.,0.));
#1575=DIRECTION('',(0.,0.,1.));
#1576=DIRECTION('',(1.,0.,0.));
#1577=DIRECTION('',(0.,0.,-1.));
#1578=DIRECTION('',(1.,0.,0.));
#1579=DIRECTION('',(0.,0.,-1.));
#1580=DIRECTION('',(1.,6.12323399573676E-17,0.));
#1581=DIRECTION('',(0.,0.,-1.));
#1582=DIRECTION('',(-1.,0.,0.));
#1583=DIRECTION('',(1.,0.,0.));
#1584=DIRECTION('',(0.,0.,-1.));
#1585=DIRECTION('',(0.,-1.,0.));
#1586=DIRECTION('',(0.,-1.,0.));
#1587=DIRECTION('',(1.,0.,0.));
#1588=DIRECTION('',(0.,0.,-1.));
#1589=DIRECTION('',(0.,-1.,0.));
#1590=DIRECTION('',(0.,0.,-1.));
#1591=DIRECTION('',(0.,-1.,0.));
#1592=DIRECTION('',(-1.4954512723938E-16,0.,1.));
#1593=DIRECTION('',(1.,0.,1.4954512723938E-16));
#1594=DIRECTION('',(-1.4954512723938E-16,0.,1.));
#1595=DIRECTION('',(1.,0.,1.4954512723938E-16));
#1596=DIRECTION('',(0.,0.,1.));
#1597=DIRECTION('',(1.,0.,0.));
#1598=DIRECTION('',(0.,0.,1.));
#1599=DIRECTION('',(1.,0.,0.));
#1600=DIRECTION('',(0.,0.,1.));
#1601=DIRECTION('',(1.,0.,0.));
#1602=DIRECTION('',(0.,0.,-1.));
#1603=DIRECTION('',(1.,0.,0.));
#1604=DIRECTION('',(0.,0.,-1.));
#1605=DIRECTION('',(-1.,-6.12323399573676E-17,0.));
#1606=DIRECTION('',(0.,0.,-1.));
#1607=DIRECTION('',(-1.,0.,0.));
#1608=DIRECTION('',(0.,1.,0.));
#1609=DIRECTION('',(0.,0.,1.));
#1610=DIRECTION('',(1.,0.,0.));
#1611=DIRECTION('',(0.,1.,0.));
#1612=DIRECTION('',(0.,0.,1.));
#1613=DIRECTION('',(0.,1.,0.));
#1614=DIRECTION('',(0.,0.,1.));
#1615=DIRECTION('',(0.,0.,1.));
#1616=DIRECTION('',(0.,1.,0.));
#1617=DIRECTION('',(0.,0.,1.));
#1618=DIRECTION('',(0.,0.,-1.));
#1619=DIRECTION('',(-1.,0.,0.));
#1620=DIRECTION('',(0.,1.,0.));
#1621=DIRECTION('',(1.,0.,0.));
#1622=DIRECTION('',(0.,1.,0.));
#1623=DIRECTION('',(1.,0.,0.));
#1624=DIRECTION('',(0.,1.,0.));
#1625=DIRECTION('',(0.,0.,1.));
#1626=DIRECTION('',(0.,-1.,0.));
#1627=DIRECTION('',(0.,0.,-1.));
#1628=DIRECTION('',(0.,1.,0.));
#1629=DIRECTION('',(0.,0.,1.));
#1630=DIRECTION('',(0.,-1.,0.));
#1631=DIRECTION('',(0.,0.,-1.));
#1632=DIRECTION('',(0.,1.,0.));
#1633=DIRECTION('',(0.,0.,1.));
#1634=DIRECTION('',(0.,1.,0.));
#1635=DIRECTION('',(0.,0.,1.));
#1636=DIRECTION('',(0.,1.,0.));
#1637=DIRECTION('',(0.,0.,1.));
#1638=DIRECTION('',(0.,-1.,0.));
#1639=DIRECTION('',(0.,0.,-1.));
#1640=DIRECTION('',(0.,-1.,0.));
#1641=DIRECTION('',(0.,0.,-1.));
#1642=DIRECTION('',(0.,1.,0.));
#1643=DIRECTION('',(0.,0.,1.));
#1644=DIRECTION('',(0.,-1.,0.));
#1645=DIRECTION('',(0.,0.,-1.));
#1646=DIRECTION('',(0.,0.,1.));
#1647=DIRECTION('',(1.,0.,0.));
#1648=DIRECTION('',(0.,0.,1.));
#1649=DIRECTION('',(1.,0.,0.));
#1650=DIRECTION('',(0.,0.,1.));
#1651=DIRECTION('',(1.,0.,0.));
#1652=DIRECTION('',(0.,1.,0.));
#1653=DIRECTION('',(0.,0.,1.));
#1654=DIRECTION('',(1.,0.,0.));
#1655=DIRECTION('',(0.,0.,-1.));
#1656=DIRECTION('',(-1.,0.,0.));
#1657=DIRECTION('',(0.,0.,1.));
#1658=DIRECTION('',(1.,0.,0.));
#1659=DIRECTION('',(0.,0.,-1.));
#1660=DIRECTION('',(0.,1.,0.));
#1661=DIRECTION('',(0.,0.,1.));
#1662=DIRECTION('',(0.,0.,-1.));
#1663=DIRECTION('',(-1.,0.,0.));
#1664=DIRECTION('',(0.,0.,1.));
#1665=DIRECTION('',(1.,0.,0.));
#1666=DIRECTION('',(0.,0.,1.));
#1667=DIRECTION('',(1.,0.,0.));
#1668=DIRECTION('',(0.,-1.,0.));
#1669=DIRECTION('',(0.,0.,-1.));
#1670=DIRECTION('',(1.,0.,0.));
#1671=DIRECTION('',(0.,0.,-1.));
#1672=DIRECTION('',(-1.,0.,0.));
#1673=DIRECTION('',(0.,0.,1.));
#1674=DIRECTION('',(1.,0.,0.));
#1675=DIRECTION('',(0.,0.,-1.));
#1676=DIRECTION('',(0.,-1.,0.));
#1677=DIRECTION('',(0.,0.,-1.));
#1678=DIRECTION('',(0.357142857142855,-3.24063614004451E-15,0.934049773615859));
#1679=DIRECTION('',(0.93404977361586,0.,-0.357142857142855));
#1680=DIRECTION('',(0.,-1.,0.));
#1681=DIRECTION('',(0.,0.,-1.));
#1682=DIRECTION('',(1.,0.,0.));
#1683=DIRECTION('',(0.,0.,-1.));
#1684=DIRECTION('',(-1.,0.,0.));
#1685=DIRECTION('',(0.,0.,1.));
#1686=DIRECTION('',(1.,0.,0.));
#1687=DIRECTION('',(0.,0.,-1.));
#1688=DIRECTION('',(0.,-1.,0.));
#1689=DIRECTION('',(0.,0.,-1.));
#1690=DIRECTION('',(0.,0.,-1.));
#1691=DIRECTION('',(-1.,0.,0.));
#1692=DIRECTION('',(0.,0.,-1.));
#1693=DIRECTION('',(-1.,0.,0.));
#1694=DIRECTION('',(0.,0.,-1.));
#1695=DIRECTION('',(1.,0.,0.));
#1696=CARTESIAN_POINT('',(0.,0.,0.));
#1697=CARTESIAN_POINT('',(0.,-0.0037,0.0358));
#1698=CARTESIAN_POINT('',(1.7347234759768E-18,-0.0037,0.0179));
#1699=CARTESIAN_POINT('',(1.7347234759768E-18,-0.0037,0.0099));
#1700=CARTESIAN_POINT('',(-1.11889664200504E-17,-0.0037,0.00355));
#1701=CARTESIAN_POINT('',(-0.0025,-0.0037,0.00355));
#1702=CARTESIAN_POINT('',(0.0025,-0.0037,0.00355));
#1703=CARTESIAN_POINT('',(-0.0025,-0.0037,0.00515));
#1704=CARTESIAN_POINT('',(-0.0025,-0.0037,0.00675));
#1705=CARTESIAN_POINT('',(0.,-0.0037,0.00675));
#1706=CARTESIAN_POINT('',(0.0025,-0.0037,0.00675));
#1707=CARTESIAN_POINT('',(0.0025,-0.0037,0.00515));
#1708=CARTESIAN_POINT('',(0.0025,-0.0037,0.03065));
#1709=CARTESIAN_POINT('',(0.0025,-0.0037,0.02905));
#1710=CARTESIAN_POINT('',(0.0025,-0.0037,0.03225));
#1711=CARTESIAN_POINT('',(0.,-0.0037,0.02905));
#1712=CARTESIAN_POINT('',(-0.0025,-0.0037,0.02905));
#1713=CARTESIAN_POINT('',(-0.0025,-0.0037,0.03065));
#1714=CARTESIAN_POINT('',(-0.0025,-0.0037,0.03225));
#1715=CARTESIAN_POINT('',(0.,-0.0037,0.03225));
#1716=CARTESIAN_POINT('',(0.,-0.0037,0.009));
#1717=CARTESIAN_POINT('',(-0.0121,-0.0037,0.009));
#1718=CARTESIAN_POINT('',(-0.0179,-0.0037,0.009));
#1719=CARTESIAN_POINT('',(-0.0121,-0.0037,0.0358));
#1720=CARTESIAN_POINT('',(-0.0121,-0.0037,0.007));
#1721=CARTESIAN_POINT('',(0.,-0.0037,0.007));
#1722=CARTESIAN_POINT('',(-0.0179,-0.0037,0.007));
#1723=CARTESIAN_POINT('',(-0.0179,-0.0037,0.0358));
#1724=CARTESIAN_POINT('',(0.,-0.0037,-1.7347234759768E-18));
#1725=CARTESIAN_POINT('',(-0.0187,-0.0037,-8.67361737988404E-19));
#1726=CARTESIAN_POINT('',(-0.0307,-0.0037,0.));
#1727=CARTESIAN_POINT('',(-0.0187,-0.0037,-8.67361737988404E-19));
#1728=CARTESIAN_POINT('',(-0.0187,-0.0037,-0.002));
#1729=CARTESIAN_POINT('',(0.,-0.0037,-0.002));
#1730=CARTESIAN_POINT('',(0.0177,-0.0037,-0.002));
#1731=CARTESIAN_POINT('',(0.0177,-0.0037,0.0358));
#1732=CARTESIAN_POINT('',(0.0177,-0.0037,0.007));
#1733=CARTESIAN_POINT('',(4.30689966449414E-18,-0.0037,0.007));
#1734=CARTESIAN_POINT('',(0.0121,-0.0037,0.007));
#1735=CARTESIAN_POINT('',(0.0121,-0.0037,0.0358));
#1736=CARTESIAN_POINT('',(0.0121,-0.0037,0.009));
#1737=CARTESIAN_POINT('',(0.,-0.0037,0.009));
#1738=CARTESIAN_POINT('',(0.0177,-0.0037,0.009));
#1739=CARTESIAN_POINT('',(0.0177,-0.0037,0.0358));
#1740=CARTESIAN_POINT('',(0.0177,-0.0037,0.0283));
#1741=CARTESIAN_POINT('',(0.0115,-0.0037,0.0283));
#1742=CARTESIAN_POINT('',(0.0115,-0.0037,0.0345));
#1743=CARTESIAN_POINT('',(0.,-0.0037,0.0345));
#1744=CARTESIAN_POINT('',(-0.0115,-0.0037,0.0345));
#1745=CARTESIAN_POINT('',(-0.0115,-0.0037,0.0283));
#1746=CARTESIAN_POINT('',(-0.0172911085964183,-0.0037,0.0305142857142857));
#1747=CARTESIAN_POINT('',(-0.0219613574644976,-0.0037,0.0323));
#1748=CARTESIAN_POINT('',(-0.0219613574644976,-0.0037,0.0273));
#1749=CARTESIAN_POINT('',(-0.0277,-0.0037,0.0273));
#1750=CARTESIAN_POINT('',(-0.0277,-0.0037,0.0273));
#1751=CARTESIAN_POINT('',(-0.0277,-0.0037,0.0243));
#1752=CARTESIAN_POINT('',(-0.0307,-0.0037,0.0243));
#1753=CARTESIAN_POINT('',(-0.0307,-0.0037,0.0358));
#1754=CARTESIAN_POINT('',(-0.0307,-0.0037,0.020476208734813));
#1755=CARTESIAN_POINT('',(-0.0247,-0.0037,0.0197));
#1756=CARTESIAN_POINT('',(-0.0307,-0.0037,0.018923791265187));
#1757=CARTESIAN_POINT('',(-0.0307,-0.0037,0.0358));
#1758=CARTESIAN_POINT('',(0.,0.,-0.002));
#1759=CARTESIAN_POINT('',(0.015,-9.79717439317883E-20,-0.002));
#1760=CARTESIAN_POINT('',(0.0134,-1.95943487863576E-19,-0.002));
#1761=CARTESIAN_POINT('',(-0.015,-9.79717439317883E-20,-0.002));
#1762=CARTESIAN_POINT('',(-0.0134,-1.44444745829043E-34,-0.002));
#1763=CARTESIAN_POINT('',(-0.0187,0.,-0.002));
#1764=CARTESIAN_POINT('',(-0.0187,0.003,-0.002));
#1765=CARTESIAN_POINT('',(-0.018,0.003,-0.002));
#1766=CARTESIAN_POINT('',(-0.018,0.0037,-0.002));
#1767=CARTESIAN_POINT('',(3.46944695195361E-18,0.0037,-0.002));
#1768=CARTESIAN_POINT('',(0.018,0.0037,-0.002));
#1769=CARTESIAN_POINT('',(0.018,0.003,-0.002));
#1770=CARTESIAN_POINT('',(0.0187,0.003,-0.002));
#1771=CARTESIAN_POINT('',(0.0187,-4.33680868994202E-19,-0.002));
#1772=CARTESIAN_POINT('',(0.0187,-0.0027,-0.002));
#1773=CARTESIAN_POINT('',(0.0177,-0.0027,-0.002));
#1774=CARTESIAN_POINT('',(-0.0317,-0.00035,0.01315));
#1775=CARTESIAN_POINT('',(-0.0317,-8.67361737988404E-19,0.01315));
#1776=CARTESIAN_POINT('',(-0.0317,-8.67361737988404E-19,0.0243));
#1777=CARTESIAN_POINT('',(-0.0317,-8.67361737988404E-19,-1.7347234759768E-18));
#1778=CARTESIAN_POINT('',(-0.0317,0.,-1.7347234759768E-18));
#1779=CARTESIAN_POINT('',(-0.0317,-0.0027,-1.7347234759768E-18));
#1780=CARTESIAN_POINT('',(-0.0317,-0.0027,0.01315));
#1781=CARTESIAN_POINT('',(-0.0317,-0.0027,0.0243));
#1782=CARTESIAN_POINT('',(-0.0317,0.001,0.0243));
#1783=CARTESIAN_POINT('',(-0.0317,0.001,0.01315));
#1784=CARTESIAN_POINT('',(-0.0317,0.001,-1.7347234759768E-18));
#1785=CARTESIAN_POINT('',(-0.0307,0.001,-1.7347234759768E-18));
#1786=CARTESIAN_POINT('',(-0.0187,0.001,-1.7347234759768E-18));
#1787=CARTESIAN_POINT('',(-0.0307,0.001,0.01315));
#1788=CARTESIAN_POINT('',(-0.0307,0.001,0.018923791265187));
#1789=CARTESIAN_POINT('',(-0.0247,0.001,0.0197));
#1790=CARTESIAN_POINT('',(-0.0187,0.001,0.018923791265187));
#1791=CARTESIAN_POINT('',(-0.0187,0.001,0.01315));
#1792=CARTESIAN_POINT('',(3.46944695195361E-18,0.0037,0.0358));
#1793=CARTESIAN_POINT('',(0.0121,0.0037,0.0358));
#1794=CARTESIAN_POINT('',(0.0121,0.0037,0.007));
#1795=CARTESIAN_POINT('',(0.0121,0.0037,0.009));
#1796=CARTESIAN_POINT('',(7.77634661644776E-18,0.0037,0.007));
#1797=CARTESIAN_POINT('',(0.0179,0.0037,0.007));
#1798=CARTESIAN_POINT('',(0.0179,0.0037,0.0358));
#1799=CARTESIAN_POINT('',(0.0179,0.0037,0.009));
#1800=CARTESIAN_POINT('',(3.46944695195361E-18,0.0037,0.009));
#1801=CARTESIAN_POINT('',(1.7347234759768E-18,0.0037,0.0179));
#1802=CARTESIAN_POINT('',(1.7347234759768E-18,0.0037,0.0099));
#1803=CARTESIAN_POINT('',(-0.0025,0.0037,0.00515));
#1804=CARTESIAN_POINT('',(-0.0025,0.0037,0.00795));
#1805=CARTESIAN_POINT('',(-0.0025,0.0037,0.00235));
#1806=CARTESIAN_POINT('',(3.05311331771918E-18,0.0037,0.00235));
#1807=CARTESIAN_POINT('',(0.0025,0.0037,0.00235));
#1808=CARTESIAN_POINT('',(0.0025,0.0037,0.00515));
#1809=CARTESIAN_POINT('',(0.0025,0.0037,0.00795));
#1810=CARTESIAN_POINT('',(3.90312782094781E-18,0.0037,0.00795));
#1811=CARTESIAN_POINT('',(-0.0025,0.0037,0.03065));
#1812=CARTESIAN_POINT('',(-0.0025,0.0037,0.03345));
#1813=CARTESIAN_POINT('',(-0.0025,0.0037,0.02785));
#1814=CARTESIAN_POINT('',(3.90312782094781E-18,0.0037,0.02785));
#1815=CARTESIAN_POINT('',(0.0025,0.0037,0.02785));
#1816=CARTESIAN_POINT('',(0.0025,0.0037,0.03065));
#1817=CARTESIAN_POINT('',(0.0025,0.0037,0.03345));
#1818=CARTESIAN_POINT('',(3.90312782094781E-18,0.0037,0.03345));
#1819=CARTESIAN_POINT('',(0.018,0.0037,0.0358));
#1820=CARTESIAN_POINT('',(0.018,0.0037,0.0283));
#1821=CARTESIAN_POINT('',(-0.018,0.0037,0.0358));
#1822=CARTESIAN_POINT('',(-0.018,0.0037,0.0283));
#1823=CARTESIAN_POINT('',(-0.0115,0.0037,0.0283));
#1824=CARTESIAN_POINT('',(-0.0115,0.0037,0.0348));
#1825=CARTESIAN_POINT('',(3.46944695195361E-18,0.0037,0.0348));
#1826=CARTESIAN_POINT('',(0.0115,0.0037,0.0348));
#1827=CARTESIAN_POINT('',(0.0115,0.0037,0.0283));
#1828=CARTESIAN_POINT('',(-0.0121,0.0037,0.0358));
#1829=CARTESIAN_POINT('',(-0.0121,0.0037,0.009));
#1830=CARTESIAN_POINT('',(-0.0121,0.0037,0.007));
#1831=CARTESIAN_POINT('',(3.46944695195361E-18,0.0037,0.009));
#1832=CARTESIAN_POINT('',(-0.0179,0.0037,0.009));
#1833=CARTESIAN_POINT('',(-0.0179,0.0037,0.0358));
#1834=CARTESIAN_POINT('',(-0.0179,0.0037,0.007));
#1835=CARTESIAN_POINT('',(3.46944695195361E-18,0.0037,0.007));
#1836=CARTESIAN_POINT('',(0.015,-9.79717439317883E-20,0.012));
#1837=CARTESIAN_POINT('',(0.015,-9.79717439317883E-20,0.007));
#1838=CARTESIAN_POINT('',(0.0166,-9.79717439317883E-20,0.007));
#1839=CARTESIAN_POINT('',(-0.015,-9.79717439317883E-20,0.012));
#1840=CARTESIAN_POINT('',(-0.015,-9.79717439317883E-20,0.007));
#1841=CARTESIAN_POINT('',(-0.0134,-9.79717439317883E-20,0.007));
#1842=CARTESIAN_POINT('',(0.0187,-4.33680868994202E-19,0.0358));
#1843=CARTESIAN_POINT('',(0.0187,-4.33680868994202E-19,0.0283));
#1844=CARTESIAN_POINT('',(0.0187,0.003,0.0283));
#1845=CARTESIAN_POINT('',(0.0187,-0.0027,0.0283));
#1846=CARTESIAN_POINT('',(0.0187,-0.0027,0.0358));
#1847=CARTESIAN_POINT('',(0.0187,0.003,0.0358));
#1848=CARTESIAN_POINT('',(-0.0187,0.,0.0358));
#1849=CARTESIAN_POINT('',(-0.0187,-0.00135,0.));
#1850=CARTESIAN_POINT('',(-0.0187,0.001,0.018923791265187));
#1851=CARTESIAN_POINT('',(-0.0187,0.000933608815427006,0.0194412637550623));
#1852=CARTESIAN_POINT('',(-0.0187,0.000933608815427006,0.0199587362449376));
#1853=CARTESIAN_POINT('',(-0.0187,0.001,0.0204762087348129));
#1854=CARTESIAN_POINT('',(-0.0187,0.001,0.0204762087348129));
#1855=CARTESIAN_POINT('',(-0.0187,0.001,0.01315));
#1856=CARTESIAN_POINT('',(-0.0187,0.001,0.0283));
#1857=CARTESIAN_POINT('',(-0.0187,0.,0.0283));
#1858=CARTESIAN_POINT('',(-0.0187,0.003,0.0283));
#1859=CARTESIAN_POINT('',(-0.0187,0.003,0.0358));
#1860=CARTESIAN_POINT('',(0.,0.,0.0355));
#1861=CARTESIAN_POINT('',(-0.0115,0.,0.0355));
#1862=CARTESIAN_POINT('',(-0.0115,0.003,0.0355));
#1863=CARTESIAN_POINT('',(-0.0115,-0.0027,0.0355));
#1864=CARTESIAN_POINT('',(0.,-0.0027,0.0355));
#1865=CARTESIAN_POINT('',(0.0115,-0.0027,0.0355));
#1866=CARTESIAN_POINT('',(0.0115,0.,0.0355));
#1867=CARTESIAN_POINT('',(0.0115,0.003,0.0355));
#1868=CARTESIAN_POINT('',(0.,0.003,0.0355));
#1869=CARTESIAN_POINT('',(1.7347234759768E-18,-0.021,0.0179));
#1870=CARTESIAN_POINT('',(1.7347234759768E-18,-0.0027,0.0179));
#1871=CARTESIAN_POINT('',(1.7347234759768E-18,-0.0027,0.0109));
#1872=CARTESIAN_POINT('',(1.7347234759768E-18,0.0027,0.0179));
#1873=CARTESIAN_POINT('',(1.7347234759768E-18,0.0027,0.0109));
#1874=CARTESIAN_POINT('',(0.0025,-0.021,0.03065));
#1875=CARTESIAN_POINT('',(0.0025,-0.021,0.03225));
#1876=CARTESIAN_POINT('',(0.0025,0.0025,0.03225));
#1877=CARTESIAN_POINT('',(0.0025,0.0025,0.03065));
#1878=CARTESIAN_POINT('',(0.0025,0.0025,0.02905));
#1879=CARTESIAN_POINT('',(0.0025,-0.021,0.02905));
#1880=CARTESIAN_POINT('',(3.90312782094781E-18,-0.021,0.02905));
#1881=CARTESIAN_POINT('',(3.90312782094781E-18,0.0025,0.02905));
#1882=CARTESIAN_POINT('',(-0.0025,0.0025,0.02905));
#1883=CARTESIAN_POINT('',(-0.0025,-0.021,0.02905));
#1884=CARTESIAN_POINT('',(-0.0025,-0.021,0.03065));
#1885=CARTESIAN_POINT('',(-0.0025,0.0025,0.03065));
#1886=CARTESIAN_POINT('',(-0.0025,0.0025,0.03225));
#1887=CARTESIAN_POINT('',(-0.0025,-0.021,0.03225));
#1888=CARTESIAN_POINT('',(3.90312782094781E-18,-0.021,0.03225));
#1889=CARTESIAN_POINT('',(3.90312782094781E-18,0.0025,0.03225));
#1890=CARTESIAN_POINT('',(3.46944695195361E-18,-0.021,0.00355));
#1891=CARTESIAN_POINT('',(0.0025,-0.021,0.00355));
#1892=CARTESIAN_POINT('',(0.0025,0.0025,0.00355));
#1893=CARTESIAN_POINT('',(3.46944695195361E-18,0.0025,0.00355));
#1894=CARTESIAN_POINT('',(-0.0025,0.0025,0.00355));
#1895=CARTESIAN_POINT('',(-0.0025,-0.021,0.00355));
#1896=CARTESIAN_POINT('',(-0.0025,-0.021,0.00515));
#1897=CARTESIAN_POINT('',(-0.0025,0.0025,0.00515));
#1898=CARTESIAN_POINT('',(-0.0025,0.0025,0.00675));
#1899=CARTESIAN_POINT('',(-0.0025,-0.021,0.00675));
#1900=CARTESIAN_POINT('',(3.90312782094781E-18,-0.021,0.00675));
#1901=CARTESIAN_POINT('',(3.90312782094781E-18,0.0025,0.00675));
#1902=CARTESIAN_POINT('',(0.0025,0.0025,0.00675));
#1903=CARTESIAN_POINT('',(0.0025,-0.021,0.00675));
#1904=CARTESIAN_POINT('',(0.0025,-0.021,0.00515));
#1905=CARTESIAN_POINT('',(0.0025,0.0025,0.00515));
#1906=CARTESIAN_POINT('',(3.90312782094781E-18,0.0025,0.00675));
#1907=CARTESIAN_POINT('',(-0.0025,0.004,0.00825));
#1908=CARTESIAN_POINT('',(0.0025,0.0025,0.00675));
#1909=CARTESIAN_POINT('',(0.0025,0.0025,0.00515));
#1910=CARTESIAN_POINT('',(0.0025,0.0025,0.00355));
#1911=CARTESIAN_POINT('',(-0.0025,0.0025,0.00515));
#1912=CARTESIAN_POINT('',(-0.0025,0.004,0.00205));
#1913=CARTESIAN_POINT('',(3.46944695195361E-18,0.0025,0.00355));
#1914=CARTESIAN_POINT('',(3.90312782094781E-18,0.0025,0.03225));
#1915=CARTESIAN_POINT('',(-0.0025,0.004,0.03375));
#1916=CARTESIAN_POINT('',(0.0025,0.0025,0.03225));
#1917=CARTESIAN_POINT('',(0.0025,0.0025,0.03065));
#1918=CARTESIAN_POINT('',(0.0025,0.0025,0.02905));
#1919=CARTESIAN_POINT('',(-0.0025,0.0025,0.03065));
#1920=CARTESIAN_POINT('',(-0.0025,0.004,0.02755));
#1921=CARTESIAN_POINT('',(3.90312782094781E-18,0.0025,0.02905));
#1922=CARTESIAN_POINT('',(1.7347234759768E-18,-0.0027,0.0179));
#1923=CARTESIAN_POINT('',(1.7347234759768E-18,0.0027,0.0179));
#1924=CARTESIAN_POINT('',(-0.0115,0.,0.0283));
#1925=CARTESIAN_POINT('',(-0.0182251583700342,0.,0.0308714285714285));
#1926=CARTESIAN_POINT('',(-0.0182251583700342,-8.67361737988404E-19,0.0308714285714285));
#1927=CARTESIAN_POINT('',(-0.0182251583700342,-0.0027,0.0308714285714285));
#1928=CARTESIAN_POINT('',(-0.0115,-0.0027,0.0283));
#1929=CARTESIAN_POINT('',(-0.0115,0.003,0.0283));
#1930=CARTESIAN_POINT('',(-0.0115,0.001,0.0283));
#1931=CARTESIAN_POINT('',(-0.0186968551514918,0.001,0.0285127814100081));
#1932=CARTESIAN_POINT('',(-0.0186968551514918,0.001,0.0285127814100081));
#1933=CARTESIAN_POINT('',(-0.0186836429388884,0.00100000000000001,0.0289596549424944));
#1934=CARTESIAN_POINT('',(-0.0185747768769839,0.000701115367551822,0.0298026197868405));
#1935=CARTESIAN_POINT('',(-0.0183586769441087,0.000233136698503897,0.0305222321885428));
#1936=CARTESIAN_POINT('',(-0.0182251583700342,-8.67361737988404E-19,0.0308714285714285));
#1937=CARTESIAN_POINT('',(0.0115,-4.33680868994202E-19,0.0283));
#1938=CARTESIAN_POINT('',(0.0115,-0.0027,0.0283));
#1939=CARTESIAN_POINT('',(0.0115,0.003,0.0283));
#1940=CARTESIAN_POINT('',(0.018,0.003,0.0358));
#1941=CARTESIAN_POINT('',(0.018,0.003,0.0283));
#1942=CARTESIAN_POINT('',(0.0115,0.003,0.0283));
#1943=CARTESIAN_POINT('',(0.0115,0.003,0.0348));
#1944=CARTESIAN_POINT('',(0.,0.003,0.0348));
#1945=CARTESIAN_POINT('',(-0.0115,0.003,0.0348));
#1946=CARTESIAN_POINT('',(-0.0115,0.003,0.0283));
#1947=CARTESIAN_POINT('',(-0.018,0.003,0.0283));
#1948=CARTESIAN_POINT('',(-0.018,0.003,0.0358));
#1949=CARTESIAN_POINT('',(-0.0121,0.021,0.0075));
#1950=CARTESIAN_POINT('',(-0.0121,0.021,0.007));
#1951=CARTESIAN_POINT('',(-0.0121,0.021,0.009));
#1952=CARTESIAN_POINT('',(-0.0179,0.021,0.008));
#1953=CARTESIAN_POINT('',(-0.0179,0.021,0.009));
#1954=CARTESIAN_POINT('',(-0.0179,0.021,0.007));
#1955=CARTESIAN_POINT('',(-0.015,0.021,0.009));
#1956=CARTESIAN_POINT('',(-0.015,-9.79717439317883E-20,0.009));
#1957=CARTESIAN_POINT('',(-0.0134,-9.79717439317883E-20,0.009));
#1958=CARTESIAN_POINT('',(-0.015,0.021,0.007));
#1959=CARTESIAN_POINT('',(0.,0.,0.012));
#1960=CARTESIAN_POINT('',(-0.015,-9.79717439317883E-20,0.012));
#1961=CARTESIAN_POINT('',(-0.0134,-1.44444745829043E-34,0.012));
#1962=CARTESIAN_POINT('',(-0.015,-9.79717439317883E-20,0.012));
#1963=CARTESIAN_POINT('',(0.0121,0.021,0.0085));
#1964=CARTESIAN_POINT('',(0.0121,0.021,0.009));
#1965=CARTESIAN_POINT('',(0.0121,0.021,0.007));
#1966=CARTESIAN_POINT('',(0.0179,0.021,0.008));
#1967=CARTESIAN_POINT('',(0.0179,0.021,0.007));
#1968=CARTESIAN_POINT('',(0.0179,-0.00367979589711327,0.007));
#1969=CARTESIAN_POINT('',(0.0179,-0.00367979589711327,0.007));
#1970=CARTESIAN_POINT('',(0.0179,-0.00367979589711327,0.009));
#1971=CARTESIAN_POINT('',(0.0179,0.021,0.009));
#1972=CARTESIAN_POINT('',(0.015,0.021,0.007));
#1973=CARTESIAN_POINT('',(0.0177,-0.0027,0.007));
#1974=CARTESIAN_POINT('',(0.015,0.021,0.009));
#1975=CARTESIAN_POINT('',(0.015,-9.79717439317883E-20,0.009));
#1976=CARTESIAN_POINT('',(0.0166,-9.79717439317883E-20,0.009));
#1977=CARTESIAN_POINT('',(0.0177,-0.0027,0.009));
#1978=CARTESIAN_POINT('',(0.,0.,0.012));
#1979=CARTESIAN_POINT('',(0.015,-9.79717439317883E-20,0.012));
#1980=CARTESIAN_POINT('',(0.0134,-1.95943487863576E-19,0.012));
#1981=CARTESIAN_POINT('',(0.015,-9.79717439317883E-20,0.012));
#1982=CARTESIAN_POINT('',(-0.0317,0.001,0.01315));
#1983=CARTESIAN_POINT('',(-0.0219613574644976,0.001,0.0273));
#1984=CARTESIAN_POINT('',(-0.0277,0.001,0.0273));
#1985=CARTESIAN_POINT('',(-0.0219613574644976,0.001,0.0273));
#1986=CARTESIAN_POINT('',(-0.0219613574644976,0.001,0.0323));
#1987=CARTESIAN_POINT('',(-0.0247,0.001,0.0197));
#1988=CARTESIAN_POINT('',(-0.0307,0.001,0.020476208734813));
#1989=CARTESIAN_POINT('',(-0.0307,0.001,0.01315));
#1990=CARTESIAN_POINT('',(-0.0307,0.001,0.0243));
#1991=CARTESIAN_POINT('',(-0.0277,0.001,0.0243));
#1992=CARTESIAN_POINT('',(-0.0317,0.,0.0283));
#1993=CARTESIAN_POINT('',(-0.0219613574644976,0.,0.0283));
#1994=CARTESIAN_POINT('',(-0.0219613574644976,-0.0027,0.0283));
#1995=CARTESIAN_POINT('',(-0.0219613574644976,-8.67361737988404E-19,0.0283));
#1996=CARTESIAN_POINT('',(-0.0277,-8.67361737988404E-19,0.0283));
#1997=CARTESIAN_POINT('',(-0.0277,-8.67361737988404E-19,0.0283));
#1998=CARTESIAN_POINT('',(-0.0277,-0.0037,0.0283));
#1999=CARTESIAN_POINT('',(-0.0277,-0.0027,0.0283));
#2000=CARTESIAN_POINT('',(-0.0219613574644976,-0.0027,0.0283));
#2001=CARTESIAN_POINT('',(-0.0247,-0.004,0.0197));
#2002=CARTESIAN_POINT('',(-0.0247,-0.0032,0.0197));
#2003=CARTESIAN_POINT('',(-0.0247,-0.0032,0.01415));
#2004=CARTESIAN_POINT('',(-0.0247,0.0005,0.0197));
#2005=CARTESIAN_POINT('',(-0.0247,0.0005,0.02525));
#2006=CARTESIAN_POINT('',(-0.0247,-0.0032,0.0197));
#2007=CARTESIAN_POINT('',(-0.0307,-0.0037,0.020476208734813));
#2008=CARTESIAN_POINT('',(-0.0307669444444445,-0.0037,0.0199587362449377));
#2009=CARTESIAN_POINT('',(-0.0307669444444445,-0.0037,0.0194412637550623));
#2010=CARTESIAN_POINT('',(-0.0307,-0.0037,0.018923791265187));
#2011=CARTESIAN_POINT('',(-0.0247,0.0005,0.0197));
#2012=CARTESIAN_POINT('',(-0.0307,0.001,0.018923791265187));
#2013=CARTESIAN_POINT('',(-0.0307669444444445,0.001,0.0194412637550623));
#2014=CARTESIAN_POINT('',(-0.0307669444444445,0.001,0.0199587362449377));
#2015=CARTESIAN_POINT('',(-0.0307,0.001,0.020476208734813));
#2016=CARTESIAN_POINT('',(-0.0219613574644976,0.,0.0323));
#2017=CARTESIAN_POINT('',(-0.0219613574644976,-8.67361737988404E-19,0.0323));
#2018=CARTESIAN_POINT('',(-0.0219613574644976,-0.0027,0.0323));
#2019=CARTESIAN_POINT('',(-0.0277,-0.00035,0.0243));
#2020=CARTESIAN_POINT('',(-0.0277,-8.67361737988404E-19,0.0243));
#2021=CARTESIAN_POINT('',(-0.0277,-0.0027,0.0243));
#2022=CARTESIAN_POINT('',(-0.0307,-8.67361737988404E-19,0.01315));
#2023=CARTESIAN_POINT('',(-0.0307,-8.67361737988404E-19,0.));
#2024=CARTESIAN_POINT('',(-0.0307,-8.67361737988404E-19,0.0243));
#2025=CARTESIAN_POINT('',(-0.0277,-8.67361737988404E-19,0.0243));
#2026=CARTESIAN_POINT('',(-0.0277,-8.67361737988404E-19,0.0273));
#2027=CARTESIAN_POINT('',(-0.0317,-8.67361737988404E-19,0.0273));
#2028=CARTESIAN_POINT('',(-0.0219613574644976,-8.67361737988404E-19,0.0273));
#2029=CARTESIAN_POINT('',(-0.0219613574644976,-8.67361737988404E-19,0.0323));
#2030=CARTESIAN_POINT('',(-0.0307,-0.0027,0.0358));
#2031=CARTESIAN_POINT('',(-0.0307,-0.0027,-1.7347234759768E-18));
#2032=CARTESIAN_POINT('',(-0.0307,-0.0027,0.0243));
#2033=CARTESIAN_POINT('',(-0.0277,-0.0027,0.0243));
#2034=CARTESIAN_POINT('',(-0.0277,-0.0027,0.0273));
#2035=CARTESIAN_POINT('',(-0.0317,-0.0027,0.0273));
#2036=CARTESIAN_POINT('',(-0.0219613574644976,-0.0027,0.0273));
#2037=CARTESIAN_POINT('',(-0.0219613574644976,-0.0027,0.0323));
#2038=CARTESIAN_POINT('',(-0.0172911085964183,-0.0027,0.0305142857142857));
#2039=CARTESIAN_POINT('',(-0.0115,-0.0027,0.0283));
#2040=CARTESIAN_POINT('',(-0.0115,-0.0027,0.0345));
#2041=CARTESIAN_POINT('',(0.,-0.0027,0.0345));
#2042=CARTESIAN_POINT('',(0.0115,-0.0027,0.0345));
#2043=CARTESIAN_POINT('',(0.0115,-0.0027,0.0283));
#2044=CARTESIAN_POINT('',(0.0177,-0.0027,0.0283));
#2045=CARTESIAN_POINT('',(0.0177,-0.0027,0.0358));
#2046=CARTESIAN_POINT('',(-0.0065,0.,0.));
#2047=MECHANICAL_DESIGN_GEOMETRIC_PRESENTATION_REPRESENTATION('',(#1185),
#2048);
#2048=(
GEOMETRIC_REPRESENTATION_CONTEXT(3)
GLOBAL_UNCERTAINTY_ASSIGNED_CONTEXT((#2049))
GLOBAL_UNIT_ASSIGNED_CONTEXT((#2052,#2051,#2050))
REPRESENTATION_CONTEXT('motor holder 2','TOP_LEVEL_ASSEMBLY_PART')
);
#2049=UNCERTAINTY_MEASURE_WITH_UNIT(LENGTH_MEASURE(2.E-5),#2052,
'DISTANCE_ACCURACY_VALUE','Maximum Tolerance applied to model');
#2050=(
NAMED_UNIT(*)
SI_UNIT($,.STERADIAN.)
SOLID_ANGLE_UNIT()
);
#2051=(
NAMED_UNIT(*)
PLANE_ANGLE_UNIT()
SI_UNIT($,.RADIAN.)
);
#2052=(
LENGTH_UNIT()
NAMED_UNIT(*)
SI_UNIT($,.METRE.)
);
#2053=PRODUCT_DEFINITION_SHAPE('','',#2054);
#2054=PRODUCT_DEFINITION('','',#2056,#2055);
#2055=PRODUCT_DEFINITION_CONTEXT('',#2062,'design');
#2056=PRODUCT_DEFINITION_FORMATION_WITH_SPECIFIED_SOURCE('','',#2058,
 .NOT_KNOWN.);
#2057=PRODUCT_RELATED_PRODUCT_CATEGORY('','',(#2058));
#2058=PRODUCT('motor holder 2','motor holder 2','motor holder 2',(#2060));
#2059=PRODUCT_CATEGORY('','');
#2060=PRODUCT_CONTEXT('',#2062,'mechanical');
#2061=APPLICATION_PROTOCOL_DEFINITION('international standard',
'ap242_managed_model_based_3d_engineering',2020,#2062);
#2062=APPLICATION_CONTEXT('managed model based 3d engineering');
ENDSEC;
END-ISO-10303-21;
