ISO-10303-21;
HEADER;
/* Generated by software containing ST-Developer
 * from STEP Tools, Inc. (www.steptools.com) 
 */
/* OPTION: using custom renumber hook */

FILE_DESCRIPTION(
/* description */ ('STEP AP242 Edition 2',
'CAx-IF Rec.Pracs.---Representation and Presentation of Product Manufa
cturing Information (PMI)---4.0---2014-10-13',
'CAx-IF Rec.Pracs.---3D Tessellated Geometry---0.4---2014-09-14','2;1',
'CAx-IF Rec.Pracs.---User Defined Attributes---1.5---2016-08-15'),
/* implementation_level */ '2;1');

FILE_NAME(
/* name */ 'Rear hub',
/* time_stamp */ '2026-09-29T21:24:38Z',
/* author */ (''),
/* organization */ (''),
/* preprocessor_version */ 'ST-DEVELOPER v20',
/* originating_system */ 'ONSHAPE BY PTC INC, 1.221',
/* authorisation */ '  ');

FILE_SCHEMA (('AP242_MANAGED_MODEL_BASED_3D_ENGINEERING_MIM_LF { 1 0 10303 442 3 1 4 }'));
ENDSEC;

DATA;
#10=SHAPE_REPRESENTATION_RELATIONSHIP('','',#495,#11);
#11=ADVANCED_BREP_SHAPE_REPRESENTATION('',(#493),#855);
#12=TOROIDAL_SURFACE('',#554,0.0063,0.00075);
#13=TOROIDAL_SURFACE('',#555,0.0083,0.00075);
#14=TOROIDAL_SURFACE('',#556,0.00705,0.0005);
#15=TOROIDAL_SURFACE('',#557,0.00505,0.0005);
#16=PLANE('',#503);
#17=PLANE('',#507);
#18=PLANE('',#508);
#19=PLANE('',#515);
#20=PLANE('',#519);
#21=PLANE('',#520);
#22=PLANE('',#524);
#23=PLANE('',#530);
#24=PLANE('',#547);
#25=PLANE('',#552);
#26=LINE('',#726,#54);
#27=LINE('',#730,#55);
#28=LINE('',#734,#56);
#29=LINE('',#739,#57);
#30=LINE('',#741,#58);
#31=LINE('',#743,#59);
#32=LINE('',#747,#60);
#33=LINE('',#750,#61);
#34=LINE('',#751,#62);
#35=LINE('',#755,#63);
#36=LINE('',#761,#64);
#37=LINE('',#763,#65);
#38=LINE('',#768,#66);
#39=LINE('',#772,#67);
#40=LINE('',#776,#68);
#41=LINE('',#781,#69);
#42=LINE('',#783,#70);
#43=LINE('',#785,#71);
#44=LINE('',#789,#72);
#45=LINE('',#792,#73);
#46=LINE('',#793,#74);
#47=LINE('',#797,#75);
#48=LINE('',#803,#76);
#49=LINE('',#805,#77);
#50=LINE('',#809,#78);
#51=LINE('',#812,#79);
#52=LINE('',#818,#80);
#53=LINE('',#821,#81);
#54=VECTOR('',#572,1.);
#55=VECTOR('',#575,1.);
#56=VECTOR('',#580,1.);
#57=VECTOR('',#583,1.);
#58=VECTOR('',#584,1.);
#59=VECTOR('',#585,1.);
#60=VECTOR('',#590,1.);
#61=VECTOR('',#591,1.);
#62=VECTOR('',#592,1.);
#63=VECTOR('',#597,1.);
#64=VECTOR('',#602,1.);
#65=VECTOR('',#603,1.);
#66=VECTOR('',#608,1.);
#67=VECTOR('',#611,1.);
#68=VECTOR('',#616,1.);
#69=VECTOR('',#619,1.);
#70=VECTOR('',#620,1.);
#71=VECTOR('',#621,1.);
#72=VECTOR('',#626,1.);
#73=VECTOR('',#627,1.);
#74=VECTOR('',#628,1.);
#75=VECTOR('',#633,1.);
#76=VECTOR('',#638,1.);
#77=VECTOR('',#639,1.);
#78=VECTOR('',#644,1.);
#79=VECTOR('',#649,1.);
#80=VECTOR('',#658,1.);
#81=VECTOR('',#663,1.);
#82=ORIENTED_EDGE('',*,*,#206,.T.);
#83=ORIENTED_EDGE('',*,*,#207,.T.);
#84=ORIENTED_EDGE('',*,*,#208,.F.);
#85=ORIENTED_EDGE('',*,*,#209,.T.);
#86=ORIENTED_EDGE('',*,*,#210,.T.);
#87=ORIENTED_EDGE('',*,*,#211,.T.);
#88=ORIENTED_EDGE('',*,*,#212,.F.);
#89=ORIENTED_EDGE('',*,*,#213,.F.);
#90=ORIENTED_EDGE('',*,*,#214,.T.);
#91=ORIENTED_EDGE('',*,*,#215,.T.);
#92=ORIENTED_EDGE('',*,*,#216,.T.);
#93=ORIENTED_EDGE('',*,*,#217,.F.);
#94=ORIENTED_EDGE('',*,*,#218,.T.);
#95=ORIENTED_EDGE('',*,*,#219,.F.);
#96=ORIENTED_EDGE('',*,*,#220,.T.);
#97=ORIENTED_EDGE('',*,*,#213,.T.);
#98=ORIENTED_EDGE('',*,*,#221,.T.);
#99=ORIENTED_EDGE('',*,*,#222,.F.);
#100=ORIENTED_EDGE('',*,*,#223,.F.);
#101=ORIENTED_EDGE('',*,*,#224,.T.);
#102=ORIENTED_EDGE('',*,*,#219,.T.);
#103=ORIENTED_EDGE('',*,*,#225,.T.);
#104=ORIENTED_EDGE('',*,*,#226,.T.);
#105=ORIENTED_EDGE('',*,*,#227,.T.);
#106=ORIENTED_EDGE('',*,*,#228,.F.);
#107=ORIENTED_EDGE('',*,*,#229,.T.);
#108=ORIENTED_EDGE('',*,*,#230,.T.);
#109=ORIENTED_EDGE('',*,*,#231,.T.);
#110=ORIENTED_EDGE('',*,*,#232,.F.);
#111=ORIENTED_EDGE('',*,*,#233,.F.);
#112=ORIENTED_EDGE('',*,*,#234,.T.);
#113=ORIENTED_EDGE('',*,*,#235,.T.);
#114=ORIENTED_EDGE('',*,*,#236,.T.);
#115=ORIENTED_EDGE('',*,*,#237,.F.);
#116=ORIENTED_EDGE('',*,*,#238,.T.);
#117=ORIENTED_EDGE('',*,*,#239,.F.);
#118=ORIENTED_EDGE('',*,*,#240,.T.);
#119=ORIENTED_EDGE('',*,*,#233,.T.);
#120=ORIENTED_EDGE('',*,*,#241,.T.);
#121=ORIENTED_EDGE('',*,*,#242,.T.);
#122=ORIENTED_EDGE('',*,*,#243,.F.);
#123=ORIENTED_EDGE('',*,*,#244,.T.);
#124=ORIENTED_EDGE('',*,*,#239,.T.);
#125=ORIENTED_EDGE('',*,*,#245,.T.);
#126=ORIENTED_EDGE('',*,*,#246,.T.);
#127=ORIENTED_EDGE('',*,*,#247,.T.);
#128=ORIENTED_EDGE('',*,*,#248,.T.);
#129=ORIENTED_EDGE('',*,*,#215,.F.);
#130=ORIENTED_EDGE('',*,*,#249,.T.);
#131=ORIENTED_EDGE('',*,*,#223,.T.);
#132=ORIENTED_EDGE('',*,*,#250,.T.);
#133=ORIENTED_EDGE('',*,*,#228,.T.);
#134=ORIENTED_EDGE('',*,*,#251,.T.);
#135=ORIENTED_EDGE('',*,*,#235,.F.);
#136=ORIENTED_EDGE('',*,*,#252,.T.);
#137=ORIENTED_EDGE('',*,*,#243,.T.);
#138=ORIENTED_EDGE('',*,*,#253,.T.);
#139=ORIENTED_EDGE('',*,*,#208,.T.);
#140=ORIENTED_EDGE('',*,*,#254,.T.);
#141=ORIENTED_EDGE('',*,*,#255,.T.);
#142=ORIENTED_EDGE('',*,*,#226,.F.);
#143=ORIENTED_EDGE('',*,*,#256,.T.);
#144=ORIENTED_EDGE('',*,*,#217,.T.);
#145=ORIENTED_EDGE('',*,*,#257,.T.);
#146=ORIENTED_EDGE('',*,*,#210,.F.);
#147=ORIENTED_EDGE('',*,*,#258,.T.);
#148=ORIENTED_EDGE('',*,*,#246,.F.);
#149=ORIENTED_EDGE('',*,*,#259,.T.);
#150=ORIENTED_EDGE('',*,*,#237,.T.);
#151=ORIENTED_EDGE('',*,*,#260,.T.);
#152=ORIENTED_EDGE('',*,*,#230,.F.);
#153=ORIENTED_EDGE('',*,*,#261,.T.);
#154=ORIENTED_EDGE('',*,*,#253,.F.);
#155=ORIENTED_EDGE('',*,*,#247,.F.);
#156=ORIENTED_EDGE('',*,*,#258,.F.);
#157=ORIENTED_EDGE('',*,*,#209,.F.);
#158=ORIENTED_EDGE('',*,*,#254,.F.);
#159=ORIENTED_EDGE('',*,*,#211,.F.);
#160=ORIENTED_EDGE('',*,*,#257,.F.);
#161=ORIENTED_EDGE('',*,*,#216,.F.);
#162=ORIENTED_EDGE('',*,*,#250,.F.);
#163=ORIENTED_EDGE('',*,*,#227,.F.);
#164=ORIENTED_EDGE('',*,*,#261,.F.);
#165=ORIENTED_EDGE('',*,*,#229,.F.);
#166=ORIENTED_EDGE('',*,*,#251,.F.);
#167=ORIENTED_EDGE('',*,*,#231,.F.);
#168=ORIENTED_EDGE('',*,*,#260,.F.);
#169=ORIENTED_EDGE('',*,*,#236,.F.);
#170=ORIENTED_EDGE('',*,*,#224,.F.);
#171=ORIENTED_EDGE('',*,*,#249,.F.);
#172=ORIENTED_EDGE('',*,*,#214,.F.);
#173=ORIENTED_EDGE('',*,*,#220,.F.);
#174=ORIENTED_EDGE('',*,*,#225,.F.);
#175=ORIENTED_EDGE('',*,*,#221,.F.);
#176=ORIENTED_EDGE('',*,*,#218,.F.);
#177=ORIENTED_EDGE('',*,*,#256,.F.);
#178=ORIENTED_EDGE('',*,*,#234,.F.);
#179=ORIENTED_EDGE('',*,*,#240,.F.);
#180=ORIENTED_EDGE('',*,*,#244,.F.);
#181=ORIENTED_EDGE('',*,*,#252,.F.);
#182=ORIENTED_EDGE('',*,*,#238,.F.);
#183=ORIENTED_EDGE('',*,*,#259,.F.);
#184=ORIENTED_EDGE('',*,*,#245,.F.);
#185=ORIENTED_EDGE('',*,*,#241,.F.);
#186=ORIENTED_EDGE('',*,*,#262,.T.);
#187=ORIENTED_EDGE('',*,*,#263,.T.);
#188=ORIENTED_EDGE('',*,*,#264,.T.);
#189=ORIENTED_EDGE('',*,*,#265,.T.);
#190=ORIENTED_EDGE('',*,*,#266,.T.);
#191=ORIENTED_EDGE('',*,*,#265,.F.);
#192=ORIENTED_EDGE('',*,*,#267,.T.);
#193=ORIENTED_EDGE('',*,*,#266,.F.);
#194=ORIENTED_EDGE('',*,*,#248,.F.);
#195=ORIENTED_EDGE('',*,*,#207,.F.);
#196=ORIENTED_EDGE('',*,*,#255,.F.);
#197=ORIENTED_EDGE('',*,*,#263,.F.);
#198=ORIENTED_EDGE('',*,*,#262,.F.);
#199=ORIENTED_EDGE('',*,*,#267,.F.);
#200=ORIENTED_EDGE('',*,*,#206,.F.);
#201=ORIENTED_EDGE('',*,*,#264,.F.);
#202=ORIENTED_EDGE('',*,*,#232,.T.);
#203=ORIENTED_EDGE('',*,*,#242,.F.);
#204=ORIENTED_EDGE('',*,*,#212,.T.);
#205=ORIENTED_EDGE('',*,*,#222,.T.);
#206=EDGE_CURVE('',#268,#268,#314,.T.);
#207=EDGE_CURVE('',#269,#269,#315,.T.);
#208=EDGE_CURVE('',#270,#271,#316,.T.);
#209=EDGE_CURVE('',#270,#272,#26,.T.);
#210=EDGE_CURVE('',#272,#273,#317,.T.);
#211=EDGE_CURVE('',#273,#271,#27,.F.);
#212=EDGE_CURVE('',#274,#274,#318,.T.);
#213=EDGE_CURVE('',#275,#276,#28,.T.);
#214=EDGE_CURVE('',#275,#277,#319,.T.);
#215=EDGE_CURVE('',#277,#278,#29,.T.);
#216=EDGE_CURVE('',#278,#279,#30,.T.);
#217=EDGE_CURVE('',#280,#279,#31,.T.);
#218=EDGE_CURVE('',#280,#276,#320,.T.);
#219=EDGE_CURVE('',#281,#282,#32,.T.);
#220=EDGE_CURVE('',#281,#275,#33,.T.);
#221=EDGE_CURVE('',#276,#282,#34,.F.);
#222=EDGE_CURVE('',#283,#283,#321,.T.);
#223=EDGE_CURVE('',#284,#285,#35,.T.);
#224=EDGE_CURVE('',#284,#281,#322,.F.);
#225=EDGE_CURVE('',#282,#286,#323,.F.);
#226=EDGE_CURVE('',#286,#287,#36,.T.);
#227=EDGE_CURVE('',#287,#285,#37,.T.);
#228=EDGE_CURVE('',#288,#289,#324,.T.);
#229=EDGE_CURVE('',#288,#290,#38,.T.);
#230=EDGE_CURVE('',#290,#291,#325,.T.);
#231=EDGE_CURVE('',#291,#289,#39,.F.);
#232=EDGE_CURVE('',#292,#292,#326,.T.);
#233=EDGE_CURVE('',#293,#294,#40,.T.);
#234=EDGE_CURVE('',#293,#295,#327,.T.);
#235=EDGE_CURVE('',#295,#296,#41,.T.);
#236=EDGE_CURVE('',#296,#297,#42,.T.);
#237=EDGE_CURVE('',#298,#297,#43,.T.);
#238=EDGE_CURVE('',#298,#294,#328,.T.);
#239=EDGE_CURVE('',#299,#300,#44,.T.);
#240=EDGE_CURVE('',#299,#293,#45,.F.);
#241=EDGE_CURVE('',#294,#300,#46,.T.);
#242=EDGE_CURVE('',#301,#301,#329,.T.);
#243=EDGE_CURVE('',#302,#303,#47,.T.);
#244=EDGE_CURVE('',#302,#299,#330,.F.);
#245=EDGE_CURVE('',#300,#304,#331,.F.);
#246=EDGE_CURVE('',#304,#305,#48,.T.);
#247=EDGE_CURVE('',#305,#303,#49,.T.);
#248=EDGE_CURVE('',#306,#306,#332,.F.);
#249=EDGE_CURVE('',#277,#284,#50,.F.);
#250=EDGE_CURVE('',#285,#288,#333,.F.);
#251=EDGE_CURVE('',#289,#296,#334,.F.);
#252=EDGE_CURVE('',#295,#302,#51,.T.);
#253=EDGE_CURVE('',#303,#270,#335,.F.);
#254=EDGE_CURVE('',#271,#278,#336,.F.);
#255=EDGE_CURVE('',#307,#307,#337,.T.);
#256=EDGE_CURVE('',#286,#280,#52,.T.);
#257=EDGE_CURVE('',#279,#273,#338,.T.);
#258=EDGE_CURVE('',#272,#305,#339,.T.);
#259=EDGE_CURVE('',#304,#298,#53,.F.);
#260=EDGE_CURVE('',#297,#291,#340,.T.);
#261=EDGE_CURVE('',#290,#287,#341,.T.);
#262=EDGE_CURVE('',#308,#308,#342,.F.);
#263=EDGE_CURVE('',#309,#309,#343,.F.);
#264=EDGE_CURVE('',#310,#310,#344,.F.);
#265=EDGE_CURVE('',#311,#311,#345,.T.);
#266=EDGE_CURVE('',#312,#312,#346,.T.);
#267=EDGE_CURVE('',#313,#313,#347,.T.);
#268=VERTEX_POINT('',#719);
#269=VERTEX_POINT('',#721);
#270=VERTEX_POINT('',#724);
#271=VERTEX_POINT('',#725);
#272=VERTEX_POINT('',#727);
#273=VERTEX_POINT('',#729);
#274=VERTEX_POINT('',#733);
#275=VERTEX_POINT('',#735);
#276=VERTEX_POINT('',#736);
#277=VERTEX_POINT('',#738);
#278=VERTEX_POINT('',#740);
#279=VERTEX_POINT('',#742);
#280=VERTEX_POINT('',#744);
#281=VERTEX_POINT('',#748);
#282=VERTEX_POINT('',#749);
#283=VERTEX_POINT('',#754);
#284=VERTEX_POINT('',#756);
#285=VERTEX_POINT('',#757);
#286=VERTEX_POINT('',#760);
#287=VERTEX_POINT('',#762);
#288=VERTEX_POINT('',#766);
#289=VERTEX_POINT('',#767);
#290=VERTEX_POINT('',#769);
#291=VERTEX_POINT('',#771);
#292=VERTEX_POINT('',#775);
#293=VERTEX_POINT('',#777);
#294=VERTEX_POINT('',#778);
#295=VERTEX_POINT('',#780);
#296=VERTEX_POINT('',#782);
#297=VERTEX_POINT('',#784);
#298=VERTEX_POINT('',#786);
#299=VERTEX_POINT('',#790);
#300=VERTEX_POINT('',#791);
#301=VERTEX_POINT('',#796);
#302=VERTEX_POINT('',#798);
#303=VERTEX_POINT('',#799);
#304=VERTEX_POINT('',#802);
#305=VERTEX_POINT('',#804);
#306=VERTEX_POINT('',#808);
#307=VERTEX_POINT('',#817);
#308=VERTEX_POINT('',#834);
#309=VERTEX_POINT('',#836);
#310=VERTEX_POINT('',#839);
#311=VERTEX_POINT('',#841);
#312=VERTEX_POINT('',#844);
#313=VERTEX_POINT('',#847);
#314=CIRCLE('',#498,0.00555);
#315=CIRCLE('',#499,0.00555);
#316=CIRCLE('',#501,0.01);
#317=CIRCLE('',#502,0.01);
#318=CIRCLE('',#504,0.0016);
#319=CIRCLE('',#505,0.0025);
#320=CIRCLE('',#506,0.0025);
#321=CIRCLE('',#509,0.0016);
#322=CIRCLE('',#510,0.0025);
#323=CIRCLE('',#511,0.0025);
#324=CIRCLE('',#513,0.01);
#325=CIRCLE('',#514,0.01);
#326=CIRCLE('',#516,0.0016);
#327=CIRCLE('',#517,0.0025);
#328=CIRCLE('',#518,0.0025);
#329=CIRCLE('',#521,0.0016);
#330=CIRCLE('',#522,0.0025);
#331=CIRCLE('',#523,0.0025);
#332=CIRCLE('',#525,0.0063);
#333=CIRCLE('',#526,0.015);
#334=CIRCLE('',#527,0.015);
#335=CIRCLE('',#528,0.015);
#336=CIRCLE('',#529,0.015);
#337=CIRCLE('',#531,0.0083);
#338=CIRCLE('',#532,0.015);
#339=CIRCLE('',#533,0.015);
#340=CIRCLE('',#534,0.015);
#341=CIRCLE('',#535,0.015);
#342=CIRCLE('',#545,0.00755);
#343=CIRCLE('',#546,0.00755);
#344=CIRCLE('',#548,0.00505);
#345=CIRCLE('',#549,0.005);
#346=CIRCLE('',#551,0.005);
#347=CIRCLE('',#553,0.00705);
#348=EDGE_LOOP('',(#82));
#349=EDGE_LOOP('',(#83));
#350=EDGE_LOOP('',(#84,#85,#86,#87));
#351=EDGE_LOOP('',(#88));
#352=EDGE_LOOP('',(#89,#90,#91,#92,#93,#94));
#353=EDGE_LOOP('',(#95,#96,#97,#98));
#354=EDGE_LOOP('',(#99));
#355=EDGE_LOOP('',(#100,#101,#102,#103,#104,#105));
#356=EDGE_LOOP('',(#106,#107,#108,#109));
#357=EDGE_LOOP('',(#110));
#358=EDGE_LOOP('',(#111,#112,#113,#114,#115,#116));
#359=EDGE_LOOP('',(#117,#118,#119,#120));
#360=EDGE_LOOP('',(#121));
#361=EDGE_LOOP('',(#122,#123,#124,#125,#126,#127));
#362=EDGE_LOOP('',(#128));
#363=EDGE_LOOP('',(#129,#130,#131,#132,#133,#134,#135,#136,#137,#138,#139,
#140));
#364=EDGE_LOOP('',(#141));
#365=EDGE_LOOP('',(#142,#143,#144,#145,#146,#147,#148,#149,#150,#151,#152,
#153));
#366=EDGE_LOOP('',(#154,#155,#156,#157));
#367=EDGE_LOOP('',(#158,#159,#160,#161));
#368=EDGE_LOOP('',(#162,#163,#164,#165));
#369=EDGE_LOOP('',(#166,#167,#168,#169));
#370=EDGE_LOOP('',(#170,#171,#172,#173));
#371=EDGE_LOOP('',(#174,#175,#176,#177));
#372=EDGE_LOOP('',(#178,#179,#180,#181));
#373=EDGE_LOOP('',(#182,#183,#184,#185));
#374=EDGE_LOOP('',(#186));
#375=EDGE_LOOP('',(#187));
#376=EDGE_LOOP('',(#188));
#377=EDGE_LOOP('',(#189));
#378=EDGE_LOOP('',(#190));
#379=EDGE_LOOP('',(#191));
#380=EDGE_LOOP('',(#192));
#381=EDGE_LOOP('',(#193));
#382=EDGE_LOOP('',(#194));
#383=EDGE_LOOP('',(#195));
#384=EDGE_LOOP('',(#196));
#385=EDGE_LOOP('',(#197));
#386=EDGE_LOOP('',(#198));
#387=EDGE_LOOP('',(#199));
#388=EDGE_LOOP('',(#200));
#389=EDGE_LOOP('',(#201));
#390=EDGE_LOOP('',(#202));
#391=EDGE_LOOP('',(#203));
#392=EDGE_LOOP('',(#204));
#393=EDGE_LOOP('',(#205));
#394=FACE_BOUND('',#348,.T.);
#395=FACE_BOUND('',#349,.T.);
#396=FACE_BOUND('',#350,.T.);
#397=FACE_BOUND('',#351,.T.);
#398=FACE_BOUND('',#352,.T.);
#399=FACE_BOUND('',#353,.T.);
#400=FACE_BOUND('',#354,.T.);
#401=FACE_BOUND('',#355,.T.);
#402=FACE_BOUND('',#356,.T.);
#403=FACE_BOUND('',#357,.T.);
#404=FACE_BOUND('',#358,.T.);
#405=FACE_BOUND('',#359,.T.);
#406=FACE_BOUND('',#360,.T.);
#407=FACE_BOUND('',#361,.T.);
#408=FACE_BOUND('',#362,.T.);
#409=FACE_BOUND('',#363,.T.);
#410=FACE_BOUND('',#364,.T.);
#411=FACE_BOUND('',#365,.T.);
#412=FACE_BOUND('',#366,.T.);
#413=FACE_BOUND('',#367,.T.);
#414=FACE_BOUND('',#368,.T.);
#415=FACE_BOUND('',#369,.T.);
#416=FACE_BOUND('',#370,.T.);
#417=FACE_BOUND('',#371,.T.);
#418=FACE_BOUND('',#372,.T.);
#419=FACE_BOUND('',#373,.T.);
#420=FACE_BOUND('',#374,.T.);
#421=FACE_BOUND('',#375,.T.);
#422=FACE_BOUND('',#376,.T.);
#423=FACE_BOUND('',#377,.T.);
#424=FACE_BOUND('',#378,.T.);
#425=FACE_BOUND('',#379,.T.);
#426=FACE_BOUND('',#380,.T.);
#427=FACE_BOUND('',#381,.T.);
#428=FACE_BOUND('',#382,.T.);
#429=FACE_BOUND('',#383,.T.);
#430=FACE_BOUND('',#384,.T.);
#431=FACE_BOUND('',#385,.T.);
#432=FACE_BOUND('',#386,.T.);
#433=FACE_BOUND('',#387,.T.);
#434=FACE_BOUND('',#388,.T.);
#435=FACE_BOUND('',#389,.T.);
#436=FACE_BOUND('',#390,.T.);
#437=FACE_BOUND('',#391,.T.);
#438=FACE_BOUND('',#392,.T.);
#439=FACE_BOUND('',#393,.T.);
#440=CYLINDRICAL_SURFACE('',#497,0.00555);
#441=CYLINDRICAL_SURFACE('',#500,0.01);
#442=CYLINDRICAL_SURFACE('',#512,0.01);
#443=CYLINDRICAL_SURFACE('',#536,0.015);
#444=CYLINDRICAL_SURFACE('',#537,0.015);
#445=CYLINDRICAL_SURFACE('',#538,0.015);
#446=CYLINDRICAL_SURFACE('',#539,0.015);
#447=CYLINDRICAL_SURFACE('',#540,0.0025);
#448=CYLINDRICAL_SURFACE('',#541,0.0025);
#449=CYLINDRICAL_SURFACE('',#542,0.0025);
#450=CYLINDRICAL_SURFACE('',#543,0.0025);
#451=CYLINDRICAL_SURFACE('',#544,0.00755);
#452=CYLINDRICAL_SURFACE('',#550,0.005);
#453=CYLINDRICAL_SURFACE('',#558,0.0016);
#454=CYLINDRICAL_SURFACE('',#559,0.0016);
#455=ADVANCED_FACE('',(#394,#395),#440,.F.);
#456=ADVANCED_FACE('',(#396),#441,.T.);
#457=ADVANCED_FACE('',(#397,#398),#16,.T.);
#458=ADVANCED_FACE('',(#399),#17,.T.);
#459=ADVANCED_FACE('',(#400,#401),#18,.F.);
#460=ADVANCED_FACE('',(#402),#442,.T.);
#461=ADVANCED_FACE('',(#403,#404),#19,.T.);
#462=ADVANCED_FACE('',(#405),#20,.F.);
#463=ADVANCED_FACE('',(#406,#407),#21,.F.);
#464=ADVANCED_FACE('',(#408,#409),#22,.T.);
#465=ADVANCED_FACE('',(#410,#411),#23,.F.);
#466=ADVANCED_FACE('',(#412),#443,.F.);
#467=ADVANCED_FACE('',(#413),#444,.F.);
#468=ADVANCED_FACE('',(#414),#445,.F.);
#469=ADVANCED_FACE('',(#415),#446,.F.);
#470=ADVANCED_FACE('',(#416),#447,.T.);
#471=ADVANCED_FACE('',(#417),#448,.T.);
#472=ADVANCED_FACE('',(#418),#449,.T.);
#473=ADVANCED_FACE('',(#419),#450,.T.);
#474=ADVANCED_FACE('',(#420,#421),#451,.F.);
#475=ADVANCED_FACE('',(#422,#423),#24,.F.);
#476=ADVANCED_FACE('',(#424,#425),#452,.F.);
#477=ADVANCED_FACE('',(#426,#427),#25,.T.);
#478=ADVANCED_FACE('',(#428,#429),#12,.T.);
#479=ADVANCED_FACE('',(#430,#431),#13,.T.);
#480=ADVANCED_FACE('',(#432,#433),#14,.F.);
#481=ADVANCED_FACE('',(#434,#435),#15,.F.);
#482=ADVANCED_FACE('',(#436,#437),#453,.F.);
#483=ADVANCED_FACE('',(#438,#439),#454,.F.);
#484=CLOSED_SHELL('',(#455,#456,#457,#458,#459,#460,#461,#462,#463,#464,
#465,#466,#467,#468,#469,#470,#471,#472,#473,#474,#475,#476,#477,#478,#479,
#480,#481,#482,#483));
#485=STYLED_ITEM('',(#486),#493);
#486=PRESENTATION_STYLE_ASSIGNMENT((#487));
#487=SURFACE_STYLE_USAGE(.BOTH.,#488);
#488=SURFACE_SIDE_STYLE('',(#489));
#489=SURFACE_STYLE_FILL_AREA(#490);
#490=FILL_AREA_STYLE('',(#491));
#491=FILL_AREA_STYLE_COLOUR('',#492);
#492=DRAUGHTING_PRE_DEFINED_COLOUR('black');
#493=MANIFOLD_SOLID_BREP('rear hub',#484);
#494=SHAPE_DEFINITION_REPRESENTATION(#860,#495);
#495=SHAPE_REPRESENTATION('rear hub',(#496),#855);
#496=AXIS2_PLACEMENT_3D('',#716,#560,#561);
#497=AXIS2_PLACEMENT_3D('',#717,#562,#563);
#498=AXIS2_PLACEMENT_3D('',#718,#564,#565);
#499=AXIS2_PLACEMENT_3D('',#720,#566,#567);
#500=AXIS2_PLACEMENT_3D('',#722,#568,#569);
#501=AXIS2_PLACEMENT_3D('',#723,#570,#571);
#502=AXIS2_PLACEMENT_3D('',#728,#573,#574);
#503=AXIS2_PLACEMENT_3D('',#731,#576,#577);
#504=AXIS2_PLACEMENT_3D('',#732,#578,#579);
#505=AXIS2_PLACEMENT_3D('',#737,#581,#582);
#506=AXIS2_PLACEMENT_3D('',#745,#586,#587);
#507=AXIS2_PLACEMENT_3D('',#746,#588,#589);
#508=AXIS2_PLACEMENT_3D('',#752,#593,#594);
#509=AXIS2_PLACEMENT_3D('',#753,#595,#596);
#510=AXIS2_PLACEMENT_3D('',#758,#598,#599);
#511=AXIS2_PLACEMENT_3D('',#759,#600,#601);
#512=AXIS2_PLACEMENT_3D('',#764,#604,#605);
#513=AXIS2_PLACEMENT_3D('',#765,#606,#607);
#514=AXIS2_PLACEMENT_3D('',#770,#609,#610);
#515=AXIS2_PLACEMENT_3D('',#773,#612,#613);
#516=AXIS2_PLACEMENT_3D('',#774,#614,#615);
#517=AXIS2_PLACEMENT_3D('',#779,#617,#618);
#518=AXIS2_PLACEMENT_3D('',#787,#622,#623);
#519=AXIS2_PLACEMENT_3D('',#788,#624,#625);
#520=AXIS2_PLACEMENT_3D('',#794,#629,#630);
#521=AXIS2_PLACEMENT_3D('',#795,#631,#632);
#522=AXIS2_PLACEMENT_3D('',#800,#634,#635);
#523=AXIS2_PLACEMENT_3D('',#801,#636,#637);
#524=AXIS2_PLACEMENT_3D('',#806,#640,#641);
#525=AXIS2_PLACEMENT_3D('',#807,#642,#643);
#526=AXIS2_PLACEMENT_3D('',#810,#645,#646);
#527=AXIS2_PLACEMENT_3D('',#811,#647,#648);
#528=AXIS2_PLACEMENT_3D('',#813,#650,#651);
#529=AXIS2_PLACEMENT_3D('',#814,#652,#653);
#530=AXIS2_PLACEMENT_3D('',#815,#654,#655);
#531=AXIS2_PLACEMENT_3D('',#816,#656,#657);
#532=AXIS2_PLACEMENT_3D('',#819,#659,#660);
#533=AXIS2_PLACEMENT_3D('',#820,#661,#662);
#534=AXIS2_PLACEMENT_3D('',#822,#664,#665);
#535=AXIS2_PLACEMENT_3D('',#823,#666,#667);
#536=AXIS2_PLACEMENT_3D('',#824,#668,#669);
#537=AXIS2_PLACEMENT_3D('',#825,#670,#671);
#538=AXIS2_PLACEMENT_3D('',#826,#672,#673);
#539=AXIS2_PLACEMENT_3D('',#827,#674,#675);
#540=AXIS2_PLACEMENT_3D('',#828,#676,#677);
#541=AXIS2_PLACEMENT_3D('',#829,#678,#679);
#542=AXIS2_PLACEMENT_3D('',#830,#680,#681);
#543=AXIS2_PLACEMENT_3D('',#831,#682,#683);
#544=AXIS2_PLACEMENT_3D('',#832,#684,#685);
#545=AXIS2_PLACEMENT_3D('',#833,#686,#687);
#546=AXIS2_PLACEMENT_3D('',#835,#688,#689);
#547=AXIS2_PLACEMENT_3D('',#837,#690,#691);
#548=AXIS2_PLACEMENT_3D('',#838,#692,#693);
#549=AXIS2_PLACEMENT_3D('',#840,#694,#695);
#550=AXIS2_PLACEMENT_3D('',#842,#696,#697);
#551=AXIS2_PLACEMENT_3D('',#843,#698,#699);
#552=AXIS2_PLACEMENT_3D('',#845,#700,#701);
#553=AXIS2_PLACEMENT_3D('',#846,#702,#703);
#554=AXIS2_PLACEMENT_3D('',#848,#704,#705);
#555=AXIS2_PLACEMENT_3D('',#849,#706,#707);
#556=AXIS2_PLACEMENT_3D('',#850,#708,#709);
#557=AXIS2_PLACEMENT_3D('',#851,#710,#711);
#558=AXIS2_PLACEMENT_3D('',#852,#712,#713);
#559=AXIS2_PLACEMENT_3D('',#853,#714,#715);
#560=DIRECTION('',(0.,0.,1.));
#561=DIRECTION('',(1.,0.,0.));
#562=DIRECTION('',(0.,1.,0.));
#563=DIRECTION('',(0.,0.,1.));
#564=DIRECTION('',(0.,1.,0.));
#565=DIRECTION('',(0.,0.,1.));
#566=DIRECTION('',(0.,-1.,0.));
#567=DIRECTION('',(0.,0.,-1.));
#568=DIRECTION('',(0.,1.,0.));
#569=DIRECTION('',(0.,0.,1.));
#570=DIRECTION('',(0.,-1.,0.));
#571=DIRECTION('',(-0.75,0.,0.661437827766147));
#572=DIRECTION('',(0.,1.,0.));
#573=DIRECTION('',(0.,-1.,0.));
#574=DIRECTION('',(-0.75,0.,0.661437827766147));
#575=DIRECTION('',(0.,1.,0.));
#576=DIRECTION('',(-1.,0.,0.));
#577=DIRECTION('',(0.,0.,1.));
#578=DIRECTION('',(-1.,0.,0.));
#579=DIRECTION('',(0.,0.,1.));
#580=DIRECTION('',(0.,1.,0.));
#581=DIRECTION('',(-1.,0.,0.));
#582=DIRECTION('',(0.,0.,1.));
#583=DIRECTION('',(0.,0.,1.));
#584=DIRECTION('',(0.,1.,0.));
#585=DIRECTION('',(0.,0.,1.));
#586=DIRECTION('',(-1.,0.,0.));
#587=DIRECTION('',(0.,0.,1.));
#588=DIRECTION('',(0.,0.,-1.));
#589=DIRECTION('',(-1.,0.,0.));
#590=DIRECTION('',(0.,1.,0.));
#591=DIRECTION('',(-1.,0.,0.));
#592=DIRECTION('',(-1.,0.,0.));
#593=DIRECTION('',(-1.,0.,0.));
#594=DIRECTION('',(0.,0.,1.));
#595=DIRECTION('',(1.,0.,0.));
#596=DIRECTION('',(0.,1.,0.));
#597=DIRECTION('',(0.,0.,1.));
#598=DIRECTION('',(-1.,0.,0.));
#599=DIRECTION('',(0.,0.,1.));
#600=DIRECTION('',(-1.,0.,0.));
#601=DIRECTION('',(0.,0.,1.));
#602=DIRECTION('',(0.,0.,1.));
#603=DIRECTION('',(0.,-1.,0.));
#604=DIRECTION('',(0.,1.,0.));
#605=DIRECTION('',(0.,0.,1.));
#606=DIRECTION('',(0.,-1.,0.));
#607=DIRECTION('',(0.75,0.,-0.661437827766147));
#608=DIRECTION('',(0.,1.,0.));
#609=DIRECTION('',(0.,-1.,0.));
#610=DIRECTION('',(0.75,0.,-0.661437827766147));
#611=DIRECTION('',(0.,1.,0.));
#612=DIRECTION('',(1.,0.,0.));
#613=DIRECTION('',(0.,0.,-1.));
#614=DIRECTION('',(1.,0.,0.));
#615=DIRECTION('',(0.,1.,0.));
#616=DIRECTION('',(0.,1.,0.));
#617=DIRECTION('',(1.,0.,0.));
#618=DIRECTION('',(0.,0.,-1.));
#619=DIRECTION('',(0.,0.,-1.));
#620=DIRECTION('',(0.,1.,0.));
#621=DIRECTION('',(0.,0.,-1.));
#622=DIRECTION('',(1.,0.,0.));
#623=DIRECTION('',(0.,0.,-1.));
#624=DIRECTION('',(0.,0.,-1.));
#625=DIRECTION('',(-1.,0.,0.));
#626=DIRECTION('',(0.,1.,0.));
#627=DIRECTION('',(-1.,0.,0.));
#628=DIRECTION('',(-1.,0.,0.));
#629=DIRECTION('',(1.,0.,0.));
#630=DIRECTION('',(0.,0.,-1.));
#631=DIRECTION('',(1.,0.,0.));
#632=DIRECTION('',(0.,0.,-1.));
#633=DIRECTION('',(0.,0.,-1.));
#634=DIRECTION('',(1.,0.,0.));
#635=DIRECTION('',(0.,0.,-1.));
#636=DIRECTION('',(1.,0.,0.));
#637=DIRECTION('',(0.,0.,-1.));
#638=DIRECTION('',(0.,0.,-1.));
#639=DIRECTION('',(0.,-1.,0.));
#640=DIRECTION('',(0.,-1.,0.));
#641=DIRECTION('',(1.,0.,0.));
#642=DIRECTION('',(0.,-1.,0.));
#643=DIRECTION('',(0.,0.,-1.));
#644=DIRECTION('',(-1.,0.,0.));
#645=DIRECTION('',(0.,-1.,0.));
#646=DIRECTION('',(0.,0.,-1.));
#647=DIRECTION('',(0.,-1.,0.));
#648=DIRECTION('',(0.,0.,-1.));
#649=DIRECTION('',(-1.,0.,0.));
#650=DIRECTION('',(0.,-1.,0.));
#651=DIRECTION('',(0.,0.,-1.));
#652=DIRECTION('',(0.,-1.,0.));
#653=DIRECTION('',(0.,0.,-1.));
#654=DIRECTION('',(0.,-1.,0.));
#655=DIRECTION('',(1.,0.,0.));
#656=DIRECTION('',(0.,-1.,0.));
#657=DIRECTION('',(0.,0.,-1.));
#658=DIRECTION('',(-1.,0.,0.));
#659=DIRECTION('',(0.,-1.,0.));
#660=DIRECTION('',(0.,0.,-1.));
#661=DIRECTION('',(0.,-1.,0.));
#662=DIRECTION('',(0.,0.,-1.));
#663=DIRECTION('',(-1.,0.,0.));
#664=DIRECTION('',(0.,-1.,0.));
#665=DIRECTION('',(0.,0.,-1.));
#666=DIRECTION('',(0.,-1.,0.));
#667=DIRECTION('',(0.,0.,-1.));
#668=DIRECTION('',(0.,1.,0.));
#669=DIRECTION('',(0.,0.,1.));
#670=DIRECTION('',(0.,1.,0.));
#671=DIRECTION('',(0.,0.,1.));
#672=DIRECTION('',(0.,1.,0.));
#673=DIRECTION('',(0.,0.,1.));
#674=DIRECTION('',(0.,1.,0.));
#675=DIRECTION('',(0.,0.,1.));
#676=DIRECTION('',(-1.,0.,0.));
#677=DIRECTION('',(0.,0.,1.));
#678=DIRECTION('',(1.,0.,0.));
#679=DIRECTION('',(0.,0.,-1.));
#680=DIRECTION('',(1.,0.,0.));
#681=DIRECTION('',(0.,0.,-1.));
#682=DIRECTION('',(-1.,0.,0.));
#683=DIRECTION('',(0.,0.,1.));
#684=DIRECTION('',(0.,1.,0.));
#685=DIRECTION('',(0.,0.,1.));
#686=DIRECTION('',(0.,1.,0.));
#687=DIRECTION('',(0.,0.,1.));
#688=DIRECTION('',(0.,-1.,0.));
#689=DIRECTION('',(0.,0.,-1.));
#690=DIRECTION('',(0.,1.,0.));
#691=DIRECTION('',(-1.,0.,0.));
#692=DIRECTION('',(0.,1.,0.));
#693=DIRECTION('',(0.,0.,1.));
#694=DIRECTION('',(0.,1.,0.));
#695=DIRECTION('',(-1.,0.,-6.12323399573677E-17));
#696=DIRECTION('',(0.,-1.,0.));
#697=DIRECTION('',(0.,0.,-1.));
#698=DIRECTION('',(0.,1.,0.));
#699=DIRECTION('',(-1.,0.,-6.12323399573677E-17));
#700=DIRECTION('',(0.,1.,0.));
#701=DIRECTION('',(-1.,0.,0.));
#702=DIRECTION('',(0.,1.,0.));
#703=DIRECTION('',(0.,0.,1.));
#704=DIRECTION('',(0.,-1.,0.));
#705=DIRECTION('',(0.,0.,-1.));
#706=DIRECTION('',(0.,-1.,0.));
#707=DIRECTION('',(0.,0.,-1.));
#708=DIRECTION('',(0.,1.,0.));
#709=DIRECTION('',(0.,0.,1.));
#710=DIRECTION('',(0.,1.,0.));
#711=DIRECTION('',(0.,0.,1.));
#712=DIRECTION('',(1.,0.,0.));
#713=DIRECTION('',(0.,0.,-1.));
#714=DIRECTION('',(1.,0.,0.));
#715=DIRECTION('',(0.,0.,-1.));
#716=CARTESIAN_POINT('',(0.,0.,0.));
#717=CARTESIAN_POINT('',(0.,-0.025,3.3983948676339E-19));
#718=CARTESIAN_POINT('',(0.,-0.0065,3.3983948676339E-19));
#719=CARTESIAN_POINT('',(0.,-0.0065,0.00555));
#720=CARTESIAN_POINT('',(0.,-0.00925,3.3983948676339E-19));
#721=CARTESIAN_POINT('',(0.,-0.00925,-0.00555));
#722=CARTESIAN_POINT('',(8.67361737988404E-19,-0.01,8.67361737988404E-19));
#723=CARTESIAN_POINT('',(8.67361737988404E-19,-0.01,8.67361737988404E-19));
#724=CARTESIAN_POINT('',(-0.009,-0.01,0.00435889894354067));
#725=CARTESIAN_POINT('',(-0.009,-0.01,-0.00435889894354067));
#726=CARTESIAN_POINT('',(-0.009,-0.01,0.00435889894354068));
#727=CARTESIAN_POINT('',(-0.009,0.,0.00435889894354067));
#728=CARTESIAN_POINT('',(8.67361737988404E-19,0.,8.67361737988404E-19));
#729=CARTESIAN_POINT('',(-0.009,0.,-0.00435889894354067));
#730=CARTESIAN_POINT('',(-0.009,-0.01,-0.00435889894354067));
#731=CARTESIAN_POINT('',(-0.0075,-0.01,-0.0108071891388307));
#732=CARTESIAN_POINT('',(-0.0075,-0.005,-0.02));
#733=CARTESIAN_POINT('',(-0.0075,-0.005,-0.0184));
#734=CARTESIAN_POINT('',(-0.0075,-0.01,-0.025));
#735=CARTESIAN_POINT('',(-0.0075,-0.0075,-0.025));
#736=CARTESIAN_POINT('',(-0.0075,-0.0025,-0.025));
#737=CARTESIAN_POINT('',(-0.0075,-0.0075,-0.0225));
#738=CARTESIAN_POINT('',(-0.0075,-0.01,-0.0225));
#739=CARTESIAN_POINT('',(-0.0075,-0.01,-0.0108071891388307));
#740=CARTESIAN_POINT('',(-0.0075,-0.01,-0.0108972473588517));
#741=CARTESIAN_POINT('',(-0.0075,-0.01,-0.0108972473588517));
#742=CARTESIAN_POINT('',(-0.0075,0.,-0.0108972473588517));
#743=CARTESIAN_POINT('',(-0.0075,0.,-0.0108071891388307));
#744=CARTESIAN_POINT('',(-0.0075,0.,-0.0225));
#745=CARTESIAN_POINT('',(-0.0075,-0.0025,-0.0225));
#746=CARTESIAN_POINT('',(0.,-0.01,-0.025));
#747=CARTESIAN_POINT('',(0.0075,-0.01,-0.025));
#748=CARTESIAN_POINT('',(0.0075,-0.0075,-0.025));
#749=CARTESIAN_POINT('',(0.0075,-0.0025,-0.025));
#750=CARTESIAN_POINT('',(0.,-0.0075,-0.025));
#751=CARTESIAN_POINT('',(0.0075,-0.0025,-0.025));
#752=CARTESIAN_POINT('',(0.0075,-0.01,-0.0108071891388307));
#753=CARTESIAN_POINT('',(0.0075,-0.005,-0.02));
#754=CARTESIAN_POINT('',(0.0075,-0.0034,-0.02));
#755=CARTESIAN_POINT('',(0.0075,-0.01,-0.0108071891388307));
#756=CARTESIAN_POINT('',(0.0075,-0.01,-0.0225));
#757=CARTESIAN_POINT('',(0.0075,-0.01,-0.0108972473588517));
#758=CARTESIAN_POINT('',(0.0075,-0.0075,-0.0225));
#759=CARTESIAN_POINT('',(0.0075,-0.0025,-0.0225));
#760=CARTESIAN_POINT('',(0.0075,0.,-0.0225));
#761=CARTESIAN_POINT('',(0.0075,0.,-0.0108071891388307));
#762=CARTESIAN_POINT('',(0.0075,0.,-0.0108972473588517));
#763=CARTESIAN_POINT('',(0.0075,-0.01,-0.0108972473588517));
#764=CARTESIAN_POINT('',(-1.3010426069826E-18,-0.01,-2.60208521396521E-18));
#765=CARTESIAN_POINT('',(-1.3010426069826E-18,-0.01,-2.60208521396521E-18));
#766=CARTESIAN_POINT('',(0.009,-0.01,-0.00435889894354068));
#767=CARTESIAN_POINT('',(0.009,-0.01,0.00435889894354067));
#768=CARTESIAN_POINT('',(0.009,-0.01,-0.00435889894354068));
#769=CARTESIAN_POINT('',(0.009,0.,-0.00435889894354068));
#770=CARTESIAN_POINT('',(-1.3010426069826E-18,0.,-2.60208521396521E-18));
#771=CARTESIAN_POINT('',(0.009,0.,0.00435889894354067));
#772=CARTESIAN_POINT('',(0.009,-0.01,0.00435889894354067));
#773=CARTESIAN_POINT('',(0.0075,-0.01,0.0108071891388307));
#774=CARTESIAN_POINT('',(0.0075,-0.005,0.02));
#775=CARTESIAN_POINT('',(0.0075,-0.0034,0.02));
#776=CARTESIAN_POINT('',(0.0075,-0.01,0.025));
#777=CARTESIAN_POINT('',(0.0075,-0.0075,0.025));
#778=CARTESIAN_POINT('',(0.0075,-0.0025,0.025));
#779=CARTESIAN_POINT('',(0.0075,-0.0075,0.0225));
#780=CARTESIAN_POINT('',(0.0075,-0.01,0.0225));
#781=CARTESIAN_POINT('',(0.0075,-0.01,0.0108071891388307));
#782=CARTESIAN_POINT('',(0.0075,-0.01,0.0108972473588517));
#783=CARTESIAN_POINT('',(0.0075,-0.01,0.0108972473588517));
#784=CARTESIAN_POINT('',(0.0075,0.,0.0108972473588517));
#785=CARTESIAN_POINT('',(0.0075,0.,0.0108071891388307));
#786=CARTESIAN_POINT('',(0.0075,0.,0.0225));
#787=CARTESIAN_POINT('',(0.0075,-0.0025,0.0225));
#788=CARTESIAN_POINT('',(8.67361737988404E-19,-0.01,0.025));
#789=CARTESIAN_POINT('',(-0.0075,-0.01,0.025));
#790=CARTESIAN_POINT('',(-0.0075,-0.0075,0.025));
#791=CARTESIAN_POINT('',(-0.0075,-0.0025,0.025));
#792=CARTESIAN_POINT('',(0.0075,-0.0075,0.025));
#793=CARTESIAN_POINT('',(8.67361737988404E-19,-0.0025,0.025));
#794=CARTESIAN_POINT('',(-0.0075,-0.01,0.0108071891388307));
#795=CARTESIAN_POINT('',(-0.0075,-0.005,0.02));
#796=CARTESIAN_POINT('',(-0.0075,-0.005,0.0184));
#797=CARTESIAN_POINT('',(-0.0075,-0.01,0.0108071891388307));
#798=CARTESIAN_POINT('',(-0.0075,-0.01,0.0225));
#799=CARTESIAN_POINT('',(-0.0075,-0.01,0.0108972473588517));
#800=CARTESIAN_POINT('',(-0.0075,-0.0075,0.0225));
#801=CARTESIAN_POINT('',(-0.0075,-0.0025,0.0225));
#802=CARTESIAN_POINT('',(-0.0075,0.,0.0225));
#803=CARTESIAN_POINT('',(-0.0075,0.,0.0108071891388307));
#804=CARTESIAN_POINT('',(-0.0075,0.,0.0108972473588517));
#805=CARTESIAN_POINT('',(-0.0075,-0.01,0.0108972473588517));
#806=CARTESIAN_POINT('',(0.,-0.01,0.));
#807=CARTESIAN_POINT('',(0.,-0.01,3.3983948676339E-19));
#808=CARTESIAN_POINT('',(0.,-0.01,-0.0063));
#809=CARTESIAN_POINT('',(0.,-0.01,-0.0225));
#810=CARTESIAN_POINT('',(0.0225,-0.01,-0.0108972473588517));
#811=CARTESIAN_POINT('',(0.0225,-0.01,0.0108972473588517));
#812=CARTESIAN_POINT('',(-0.0075,-0.01,0.0225));
#813=CARTESIAN_POINT('',(-0.0225,-0.01,0.0108972473588517));
#814=CARTESIAN_POINT('',(-0.0225,-0.01,-0.0108972473588517));
#815=CARTESIAN_POINT('',(0.,0.,0.));
#816=CARTESIAN_POINT('',(0.,0.,4.62304166678126E-19));
#817=CARTESIAN_POINT('',(0.,0.,-0.0083));
#818=CARTESIAN_POINT('',(-0.0075,0.,-0.0225));
#819=CARTESIAN_POINT('',(-0.0225,0.,-0.0108972473588517));
#820=CARTESIAN_POINT('',(-0.0225,0.,0.0108972473588517));
#821=CARTESIAN_POINT('',(0.,0.,0.0225));
#822=CARTESIAN_POINT('',(0.0225,0.,0.0108972473588517));
#823=CARTESIAN_POINT('',(0.0225,0.,-0.0108972473588517));
#824=CARTESIAN_POINT('',(-0.0225,-0.01,0.0108972473588517));
#825=CARTESIAN_POINT('',(-0.0225,-0.01,-0.0108972473588517));
#826=CARTESIAN_POINT('',(0.0225,-0.01,-0.0108972473588517));
#827=CARTESIAN_POINT('',(0.0225,-0.01,0.0108972473588517));
#828=CARTESIAN_POINT('',(0.,-0.0075,-0.0225));
#829=CARTESIAN_POINT('',(0.,-0.0025,-0.0225));
#830=CARTESIAN_POINT('',(0.,-0.0075,0.0225));
#831=CARTESIAN_POINT('',(8.67361737988404E-19,-0.0025,0.0225));
#832=CARTESIAN_POINT('',(0.,-0.006,4.62304166678126E-19));
#833=CARTESIAN_POINT('',(0.,-0.0045,4.62304166678126E-19));
#834=CARTESIAN_POINT('',(0.,-0.0045,0.00755));
#835=CARTESIAN_POINT('',(0.,-0.00075,4.62304166678126E-19));
#836=CARTESIAN_POINT('',(0.,-0.00075,-0.00755));
#837=CARTESIAN_POINT('',(0.,-0.006,0.));
#838=CARTESIAN_POINT('',(0.,-0.006,3.3983948676339E-19));
#839=CARTESIAN_POINT('',(0.,-0.006,0.00505));
#840=CARTESIAN_POINT('',(0.,-0.006,6.4293956955236E-19));
#841=CARTESIAN_POINT('',(-0.005,-0.006,3.36777869765521E-19));
#842=CARTESIAN_POINT('',(0.,-0.005,6.4293956955236E-19));
#843=CARTESIAN_POINT('',(0.,-0.005,6.4293956955236E-19));
#844=CARTESIAN_POINT('',(-0.005,-0.005,3.36777869765521E-19));
#845=CARTESIAN_POINT('',(0.,-0.005,0.));
#846=CARTESIAN_POINT('',(0.,-0.005,4.62304166678126E-19));
#847=CARTESIAN_POINT('',(0.,-0.005,0.00705));
#848=CARTESIAN_POINT('',(0.,-0.00925,3.3983948676339E-19));
#849=CARTESIAN_POINT('',(0.,-0.00075,4.62304166678126E-19));
#850=CARTESIAN_POINT('',(0.,-0.0045,4.62304166678126E-19));
#851=CARTESIAN_POINT('',(0.,-0.0065,3.3983948676339E-19));
#852=CARTESIAN_POINT('',(-0.0175,-0.005,0.02));
#853=CARTESIAN_POINT('',(-0.0175,-0.005,-0.02));
#854=MECHANICAL_DESIGN_GEOMETRIC_PRESENTATION_REPRESENTATION('',(#485),
#855);
#855=(
GEOMETRIC_REPRESENTATION_CONTEXT(3)
GLOBAL_UNCERTAINTY_ASSIGNED_CONTEXT((#856))
GLOBAL_UNIT_ASSIGNED_CONTEXT((#859,#858,#857))
REPRESENTATION_CONTEXT('rear hub','TOP_LEVEL_ASSEMBLY_PART')
);
#856=UNCERTAINTY_MEASURE_WITH_UNIT(LENGTH_MEASURE(1.E-8),#859,
'DISTANCE_ACCURACY_VALUE','Maximum Tolerance applied to model');
#857=(
NAMED_UNIT(*)
SI_UNIT($,.STERADIAN.)
SOLID_ANGLE_UNIT()
);
#858=(
NAMED_UNIT(*)
PLANE_ANGLE_UNIT()
SI_UNIT($,.RADIAN.)
);
#859=(
LENGTH_UNIT()
NAMED_UNIT(*)
SI_UNIT($,.METRE.)
);
#860=PRODUCT_DEFINITION_SHAPE('','',#861);
#861=PRODUCT_DEFINITION('','',#863,#862);
#862=PRODUCT_DEFINITION_CONTEXT('',#869,'design');
#863=PRODUCT_DEFINITION_FORMATION_WITH_SPECIFIED_SOURCE('','',#865,
 .NOT_KNOWN.);
#864=PRODUCT_RELATED_PRODUCT_CATEGORY('','',(#865));
#865=PRODUCT('rear hub','rear hub','rear hub',(#867));
#866=PRODUCT_CATEGORY('','');
#867=PRODUCT_CONTEXT('',#869,'mechanical');
#868=APPLICATION_PROTOCOL_DEFINITION('international standard',
'ap242_managed_model_based_3d_engineering',2020,#869);
#869=APPLICATION_CONTEXT('managed model based 3d engineering');
ENDSEC;
END-ISO-10303-21;
