ISO-10303-21;
HEADER;
/* Generated by software containing ST-Developer
 * from STEP Tools, Inc. (www.steptools.com) 
 */
/* OPTION: using custom renumber hook */

FILE_DESCRIPTION(
/* description */ ('STEP AP242 Edition 2',
'CAx-IF Rec.Pracs.---Representation and Presentation of Product Manufa
cturing Information (PMI)---4.0---2014-10-13',
'CAx-IF Rec.Pracs.---3D Tessellated Geometry---0.4---2014-09-14','2;1',
'CAx-IF Rec.Pracs.---User Defined Attributes---1.5---2016-08-15'),
/* implementation_level */ '2;1');

FILE_NAME(
/* name */ 'Rear upper arm',
/* time_stamp */ '2026-09-29T21:25:04Z',
/* author */ (''),
/* organization */ (''),
/* preprocessor_version */ 'ST-DEVELOPER v20',
/* originating_system */ 'ONSHAPE BY PTC INC, 1.221',
/* authorisation */ '  ');

FILE_SCHEMA (('AP242_MANAGED_MODEL_BASED_3D_ENGINEERING_MIM_LF { 1 0 10303 442 3 1 4 }'));
ENDSEC;

DATA;
#10=SHAPE_REPRESENTATION_RELATIONSHIP('','',#1009,#11);
#11=ADVANCED_BREP_SHAPE_REPRESENTATION('',(#1007),#1741);
#12=CONICAL_SURFACE('',#1109,0.0016,0.785398163397448);
#13=CONICAL_SURFACE('',#1110,0.0016,0.785398163397448);
#14=CONICAL_SURFACE('',#1111,0.0016,0.785398163397448);
#15=CONICAL_SURFACE('',#1112,0.0016,0.785398163397448);
#16=CONICAL_SURFACE('',#1117,0.0016,0.785398163397448);
#17=CONICAL_SURFACE('',#1118,0.0026,0.785398163397448);
#18=CONICAL_SURFACE('',#1119,0.0016,0.785398163397448);
#19=CONICAL_SURFACE('',#1120,0.0026,0.785398163397448);
#20=B_SPLINE_CURVE_WITH_KNOTS('',3,(#1661,#1662,#1663,#1664,#1665,#1666),
 .UNSPECIFIED.,.F.,.F.,(4,1,1,4),(0.,0.00458390374144184,0.00687585561216276,
0.00916780748288368),.UNSPECIFIED.);
#21=B_SPLINE_CURVE_WITH_KNOTS('',3,(#1667,#1668,#1669,#1670,#1671,#1672),
 .UNSPECIFIED.,.F.,.F.,(4,1,1,4),(0.,0.00458376206841193,0.0068756431026179,
0.00916752413682386),.UNSPECIFIED.);
#22=B_SPLINE_CURVE_WITH_KNOTS('',3,(#1675,#1676,#1677,#1678),
 .UNSPECIFIED.,.F.,.F.,(4,4),(0.,0.0100200180690877),.UNSPECIFIED.);
#23=B_SPLINE_CURVE_WITH_KNOTS('',3,(#1679,#1680,#1681,#1682),
 .UNSPECIFIED.,.F.,.F.,(4,4),(0.,0.0100200180690877),.UNSPECIFIED.);
#24=B_SPLINE_CURVE_WITH_KNOTS('',3,(#1684,#1685,#1686,#1687),
 .UNSPECIFIED.,.F.,.F.,(4,4),(0.,4.76629359908108E-5),.UNSPECIFIED.);
#25=B_SPLINE_CURVE_WITH_KNOTS('',3,(#1688,#1689,#1690,#1691),
 .UNSPECIFIED.,.F.,.F.,(4,4),(0.,4.76629359908112E-5),.UNSPECIFIED.);
#26=B_SPLINE_CURVE_WITH_KNOTS('',3,(#1698,#1699,#1700,#1701),
 .UNSPECIFIED.,.F.,.F.,(4,4),(0.,0.000909381881036517),.UNSPECIFIED.);
#27=B_SPLINE_CURVE_WITH_KNOTS('',3,(#1703,#1704,#1705,#1706),
 .UNSPECIFIED.,.F.,.F.,(4,4),(0.,0.000909381881036371),.UNSPECIFIED.);
#28=CYLINDRICAL_SURFACE('',#1050,0.005);
#29=CYLINDRICAL_SURFACE('',#1051,0.005);
#30=CYLINDRICAL_SURFACE('',#1076,0.005);
#31=CYLINDRICAL_SURFACE('',#1077,0.005);
#32=CYLINDRICAL_SURFACE('',#1085,0.05);
#33=CYLINDRICAL_SURFACE('',#1086,0.05);
#34=CYLINDRICAL_SURFACE('',#1087,0.05);
#35=CYLINDRICAL_SURFACE('',#1088,0.05);
#36=CYLINDRICAL_SURFACE('',#1089,0.015);
#37=CYLINDRICAL_SURFACE('',#1090,0.015);
#38=CYLINDRICAL_SURFACE('',#1091,0.015);
#39=CYLINDRICAL_SURFACE('',#1092,0.015);
#40=CYLINDRICAL_SURFACE('',#1093,0.03);
#41=CYLINDRICAL_SURFACE('',#1094,0.03);
#42=CYLINDRICAL_SURFACE('',#1095,0.03);
#43=CYLINDRICAL_SURFACE('',#1096,0.03);
#44=CYLINDRICAL_SURFACE('',#1097,0.0016);
#45=CYLINDRICAL_SURFACE('',#1100,0.0016);
#46=CYLINDRICAL_SURFACE('',#1103,0.0016);
#47=CYLINDRICAL_SURFACE('',#1106,0.0016);
#48=CYLINDRICAL_SURFACE('',#1113,0.0025);
#49=CYLINDRICAL_SURFACE('',#1114,0.0025);
#50=CYLINDRICAL_SURFACE('',#1115,0.0025);
#51=CYLINDRICAL_SURFACE('',#1116,0.0025);
#52=ELLIPSE('',#1026,0.0534000234082346,0.05);
#53=ELLIPSE('',#1034,0.0534000234082346,0.05);
#54=ELLIPSE('',#1062,0.0610327780786685,0.05);
#55=ELLIPSE('',#1064,0.0610327780786685,0.05);
#56=ELLIPSE('',#1083,0.0305941170815567,0.03);
#57=ELLIPSE('',#1084,0.0305941170815567,0.03);
#58=LINE('',#1426,#134);
#59=LINE('',#1430,#135);
#60=LINE('',#1434,#136);
#61=LINE('',#1436,#137);
#62=LINE('',#1438,#138);
#63=LINE('',#1440,#139);
#64=LINE('',#1444,#140);
#65=LINE('',#1449,#141);
#66=LINE('',#1454,#142);
#67=LINE('',#1459,#143);
#68=LINE('',#1461,#144);
#69=LINE('',#1465,#145);
#70=LINE('',#1467,#146);
#71=LINE('',#1470,#147);
#72=LINE('',#1472,#148);
#73=LINE('',#1476,#149);
#74=LINE('',#1478,#150);
#75=LINE('',#1481,#151);
#76=LINE('',#1483,#152);
#77=LINE('',#1485,#153);
#78=LINE('',#1489,#154);
#79=LINE('',#1493,#155);
#80=LINE('',#1496,#156);
#81=LINE('',#1498,#157);
#82=LINE('',#1502,#158);
#83=LINE('',#1506,#159);
#84=LINE('',#1508,#160);
#85=LINE('',#1511,#161);
#86=LINE('',#1515,#162);
#87=LINE('',#1517,#163);
#88=LINE('',#1519,#164);
#89=LINE('',#1524,#165);
#90=LINE('',#1526,#166);
#91=LINE('',#1530,#167);
#92=LINE('',#1532,#168);
#93=LINE('',#1533,#169);
#94=LINE('',#1536,#170);
#95=LINE('',#1539,#171);
#96=LINE('',#1541,#172);
#97=LINE('',#1544,#173);
#98=LINE('',#1546,#174);
#99=LINE('',#1548,#175);
#100=LINE('',#1552,#176);
#101=LINE('',#1557,#177);
#102=LINE('',#1558,#178);
#103=LINE('',#1559,#179);
#104=LINE('',#1564,#180);
#105=LINE('',#1568,#181);
#106=LINE('',#1570,#182);
#107=LINE('',#1572,#183);
#108=LINE('',#1576,#184);
#109=LINE('',#1579,#185);
#110=LINE('',#1581,#186);
#111=LINE('',#1583,#187);
#112=LINE('',#1589,#188);
#113=LINE('',#1596,#189);
#114=LINE('',#1598,#190);
#115=LINE('',#1602,#191);
#116=LINE('',#1605,#192);
#117=LINE('',#1606,#193);
#118=LINE('',#1610,#194);
#119=LINE('',#1612,#195);
#120=LINE('',#1616,#196);
#121=LINE('',#1620,#197);
#122=LINE('',#1623,#198);
#123=LINE('',#1633,#199);
#124=LINE('',#1635,#200);
#125=LINE('',#1636,#201);
#126=LINE('',#1638,#202);
#127=LINE('',#1640,#203);
#128=LINE('',#1644,#204);
#129=LINE('',#1647,#205);
#130=LINE('',#1651,#206);
#131=LINE('',#1652,#207);
#132=LINE('',#1656,#208);
#133=LINE('',#1659,#209);
#134=VECTOR('',#1129,1.);
#135=VECTOR('',#1132,1.);
#136=VECTOR('',#1135,1.);
#137=VECTOR('',#1138,1.);
#138=VECTOR('',#1139,1.);
#139=VECTOR('',#1140,1.);
#140=VECTOR('',#1145,1.);
#141=VECTOR('',#1148,1.);
#142=VECTOR('',#1155,1.);
#143=VECTOR('',#1158,1.);
#144=VECTOR('',#1159,1.);
#145=VECTOR('',#1162,1.);
#146=VECTOR('',#1165,1.);
#147=VECTOR('',#1166,1.);
#148=VECTOR('',#1167,1.);
#149=VECTOR('',#1170,1.);
#150=VECTOR('',#1173,1.);
#151=VECTOR('',#1174,1.);
#152=VECTOR('',#1175,1.);
#153=VECTOR('',#1176,1.);
#154=VECTOR('',#1179,1.);
#155=VECTOR('',#1184,1.);
#156=VECTOR('',#1185,1.);
#157=VECTOR('',#1186,1.);
#158=VECTOR('',#1189,1.);
#159=VECTOR('',#1192,1.);
#160=VECTOR('',#1195,1.);
#161=VECTOR('',#1196,1.);
#162=VECTOR('',#1199,1.);
#163=VECTOR('',#1200,1.);
#164=VECTOR('',#1203,1.);
#165=VECTOR('',#1206,1.);
#166=VECTOR('',#1207,1.);
#167=VECTOR('',#1210,1.);
#168=VECTOR('',#1213,1.);
#169=VECTOR('',#1214,1.);
#170=VECTOR('',#1217,1.);
#171=VECTOR('',#1220,1.);
#172=VECTOR('',#1223,1.);
#173=VECTOR('',#1224,1.);
#174=VECTOR('',#1225,1.);
#175=VECTOR('',#1226,1.);
#176=VECTOR('',#1229,1.);
#177=VECTOR('',#1236,1.);
#178=VECTOR('',#1237,1.);
#179=VECTOR('',#1238,1.);
#180=VECTOR('',#1245,1.);
#181=VECTOR('',#1248,1.);
#182=VECTOR('',#1249,1.);
#183=VECTOR('',#1250,1.);
#184=VECTOR('',#1257,1.);
#185=VECTOR('',#1258,1.);
#186=VECTOR('',#1259,1.);
#187=VECTOR('',#1260,1.);
#188=VECTOR('',#1267,1.);
#189=VECTOR('',#1276,1.);
#190=VECTOR('',#1277,1.);
#191=VECTOR('',#1282,1.);
#192=VECTOR('',#1283,1.);
#193=VECTOR('',#1284,1.);
#194=VECTOR('',#1289,1.);
#195=VECTOR('',#1290,1.);
#196=VECTOR('',#1293,1.);
#197=VECTOR('',#1298,1.);
#198=VECTOR('',#1299,1.);
#199=VECTOR('',#1312,1.);
#200=VECTOR('',#1315,1.);
#201=VECTOR('',#1316,1.);
#202=VECTOR('',#1319,1.);
#203=VECTOR('',#1322,1.);
#204=VECTOR('',#1329,1.);
#205=VECTOR('',#1332,1.);
#206=VECTOR('',#1337,1.);
#207=VECTOR('',#1338,1.);
#208=VECTOR('',#1343,1.);
#209=VECTOR('',#1346,1.);
#210=ORIENTED_EDGE('',*,*,#490,.T.);
#211=ORIENTED_EDGE('',*,*,#491,.T.);
#212=ORIENTED_EDGE('',*,*,#492,.F.);
#213=ORIENTED_EDGE('',*,*,#493,.T.);
#214=ORIENTED_EDGE('',*,*,#494,.F.);
#215=ORIENTED_EDGE('',*,*,#495,.T.);
#216=ORIENTED_EDGE('',*,*,#496,.T.);
#217=ORIENTED_EDGE('',*,*,#494,.T.);
#218=ORIENTED_EDGE('',*,*,#497,.T.);
#219=ORIENTED_EDGE('',*,*,#498,.F.);
#220=ORIENTED_EDGE('',*,*,#499,.T.);
#221=ORIENTED_EDGE('',*,*,#500,.T.);
#222=ORIENTED_EDGE('',*,*,#501,.T.);
#223=ORIENTED_EDGE('',*,*,#502,.T.);
#224=ORIENTED_EDGE('',*,*,#503,.F.);
#225=ORIENTED_EDGE('',*,*,#504,.T.);
#226=ORIENTED_EDGE('',*,*,#498,.T.);
#227=ORIENTED_EDGE('',*,*,#505,.T.);
#228=ORIENTED_EDGE('',*,*,#506,.T.);
#229=ORIENTED_EDGE('',*,*,#507,.T.);
#230=ORIENTED_EDGE('',*,*,#508,.T.);
#231=ORIENTED_EDGE('',*,*,#509,.T.);
#232=ORIENTED_EDGE('',*,*,#510,.T.);
#233=ORIENTED_EDGE('',*,*,#511,.F.);
#234=ORIENTED_EDGE('',*,*,#512,.F.);
#235=ORIENTED_EDGE('',*,*,#513,.T.);
#236=ORIENTED_EDGE('',*,*,#514,.T.);
#237=ORIENTED_EDGE('',*,*,#515,.T.);
#238=ORIENTED_EDGE('',*,*,#516,.T.);
#239=ORIENTED_EDGE('',*,*,#517,.T.);
#240=ORIENTED_EDGE('',*,*,#518,.T.);
#241=ORIENTED_EDGE('',*,*,#519,.F.);
#242=ORIENTED_EDGE('',*,*,#520,.T.);
#243=ORIENTED_EDGE('',*,*,#521,.T.);
#244=ORIENTED_EDGE('',*,*,#522,.T.);
#245=ORIENTED_EDGE('',*,*,#523,.T.);
#246=ORIENTED_EDGE('',*,*,#524,.T.);
#247=ORIENTED_EDGE('',*,*,#525,.T.);
#248=ORIENTED_EDGE('',*,*,#526,.F.);
#249=ORIENTED_EDGE('',*,*,#527,.T.);
#250=ORIENTED_EDGE('',*,*,#528,.T.);
#251=ORIENTED_EDGE('',*,*,#529,.T.);
#252=ORIENTED_EDGE('',*,*,#530,.T.);
#253=ORIENTED_EDGE('',*,*,#531,.T.);
#254=ORIENTED_EDGE('',*,*,#532,.T.);
#255=ORIENTED_EDGE('',*,*,#533,.T.);
#256=ORIENTED_EDGE('',*,*,#534,.T.);
#257=ORIENTED_EDGE('',*,*,#535,.T.);
#258=ORIENTED_EDGE('',*,*,#536,.T.);
#259=ORIENTED_EDGE('',*,*,#537,.T.);
#260=ORIENTED_EDGE('',*,*,#538,.T.);
#261=ORIENTED_EDGE('',*,*,#539,.T.);
#262=ORIENTED_EDGE('',*,*,#540,.T.);
#263=ORIENTED_EDGE('',*,*,#541,.F.);
#264=ORIENTED_EDGE('',*,*,#496,.F.);
#265=ORIENTED_EDGE('',*,*,#542,.T.);
#266=ORIENTED_EDGE('',*,*,#503,.T.);
#267=ORIENTED_EDGE('',*,*,#543,.T.);
#268=ORIENTED_EDGE('',*,*,#509,.F.);
#269=ORIENTED_EDGE('',*,*,#544,.T.);
#270=ORIENTED_EDGE('',*,*,#545,.T.);
#271=ORIENTED_EDGE('',*,*,#546,.T.);
#272=ORIENTED_EDGE('',*,*,#541,.T.);
#273=ORIENTED_EDGE('',*,*,#547,.T.);
#274=ORIENTED_EDGE('',*,*,#548,.T.);
#275=ORIENTED_EDGE('',*,*,#549,.F.);
#276=ORIENTED_EDGE('',*,*,#550,.T.);
#277=ORIENTED_EDGE('',*,*,#551,.T.);
#278=ORIENTED_EDGE('',*,*,#552,.T.);
#279=ORIENTED_EDGE('',*,*,#553,.F.);
#280=ORIENTED_EDGE('',*,*,#554,.T.);
#281=ORIENTED_EDGE('',*,*,#519,.T.);
#282=ORIENTED_EDGE('',*,*,#555,.T.);
#283=ORIENTED_EDGE('',*,*,#512,.T.);
#284=ORIENTED_EDGE('',*,*,#556,.T.);
#285=ORIENTED_EDGE('',*,*,#511,.T.);
#286=ORIENTED_EDGE('',*,*,#557,.T.);
#287=ORIENTED_EDGE('',*,*,#501,.F.);
#288=ORIENTED_EDGE('',*,*,#558,.T.);
#289=ORIENTED_EDGE('',*,*,#492,.T.);
#290=ORIENTED_EDGE('',*,*,#559,.T.);
#291=ORIENTED_EDGE('',*,*,#539,.F.);
#292=ORIENTED_EDGE('',*,*,#560,.T.);
#293=ORIENTED_EDGE('',*,*,#531,.F.);
#294=ORIENTED_EDGE('',*,*,#561,.T.);
#295=ORIENTED_EDGE('',*,*,#524,.F.);
#296=ORIENTED_EDGE('',*,*,#562,.T.);
#297=ORIENTED_EDGE('',*,*,#563,.T.);
#298=ORIENTED_EDGE('',*,*,#564,.T.);
#299=ORIENTED_EDGE('',*,*,#565,.F.);
#300=ORIENTED_EDGE('',*,*,#566,.T.);
#301=ORIENTED_EDGE('',*,*,#567,.T.);
#302=ORIENTED_EDGE('',*,*,#547,.F.);
#303=ORIENTED_EDGE('',*,*,#540,.F.);
#304=ORIENTED_EDGE('',*,*,#559,.F.);
#305=ORIENTED_EDGE('',*,*,#491,.F.);
#306=ORIENTED_EDGE('',*,*,#543,.F.);
#307=ORIENTED_EDGE('',*,*,#502,.F.);
#308=ORIENTED_EDGE('',*,*,#557,.F.);
#309=ORIENTED_EDGE('',*,*,#510,.F.);
#310=ORIENTED_EDGE('',*,*,#568,.T.);
#311=ORIENTED_EDGE('',*,*,#569,.T.);
#312=ORIENTED_EDGE('',*,*,#570,.F.);
#313=ORIENTED_EDGE('',*,*,#571,.T.);
#314=ORIENTED_EDGE('',*,*,#572,.T.);
#315=ORIENTED_EDGE('',*,*,#567,.F.);
#316=ORIENTED_EDGE('',*,*,#573,.T.);
#317=ORIENTED_EDGE('',*,*,#574,.T.);
#318=ORIENTED_EDGE('',*,*,#575,.T.);
#319=ORIENTED_EDGE('',*,*,#570,.T.);
#320=ORIENTED_EDGE('',*,*,#576,.T.);
#321=ORIENTED_EDGE('',*,*,#577,.T.);
#322=ORIENTED_EDGE('',*,*,#565,.T.);
#323=ORIENTED_EDGE('',*,*,#578,.T.);
#324=ORIENTED_EDGE('',*,*,#579,.F.);
#325=ORIENTED_EDGE('',*,*,#580,.T.);
#326=ORIENTED_EDGE('',*,*,#581,.T.);
#327=ORIENTED_EDGE('',*,*,#582,.T.);
#328=ORIENTED_EDGE('',*,*,#563,.F.);
#329=ORIENTED_EDGE('',*,*,#583,.T.);
#330=ORIENTED_EDGE('',*,*,#584,.T.);
#331=ORIENTED_EDGE('',*,*,#553,.T.);
#332=ORIENTED_EDGE('',*,*,#585,.T.);
#333=ORIENTED_EDGE('',*,*,#586,.F.);
#334=ORIENTED_EDGE('',*,*,#587,.T.);
#335=ORIENTED_EDGE('',*,*,#588,.T.);
#336=ORIENTED_EDGE('',*,*,#589,.T.);
#337=ORIENTED_EDGE('',*,*,#590,.T.);
#338=ORIENTED_EDGE('',*,*,#591,.T.);
#339=ORIENTED_EDGE('',*,*,#551,.F.);
#340=ORIENTED_EDGE('',*,*,#592,.T.);
#341=ORIENTED_EDGE('',*,*,#593,.T.);
#342=ORIENTED_EDGE('',*,*,#594,.T.);
#343=ORIENTED_EDGE('',*,*,#549,.T.);
#344=ORIENTED_EDGE('',*,*,#595,.T.);
#345=ORIENTED_EDGE('',*,*,#568,.F.);
#346=ORIENTED_EDGE('',*,*,#596,.T.);
#347=ORIENTED_EDGE('',*,*,#597,.F.);
#348=ORIENTED_EDGE('',*,*,#597,.T.);
#349=ORIENTED_EDGE('',*,*,#598,.T.);
#350=ORIENTED_EDGE('',*,*,#574,.F.);
#351=ORIENTED_EDGE('',*,*,#599,.T.);
#352=ORIENTED_EDGE('',*,*,#579,.T.);
#353=ORIENTED_EDGE('',*,*,#600,.T.);
#354=ORIENTED_EDGE('',*,*,#581,.F.);
#355=ORIENTED_EDGE('',*,*,#601,.T.);
#356=ORIENTED_EDGE('',*,*,#586,.T.);
#357=ORIENTED_EDGE('',*,*,#602,.T.);
#358=ORIENTED_EDGE('',*,*,#590,.F.);
#359=ORIENTED_EDGE('',*,*,#603,.T.);
#360=ORIENTED_EDGE('',*,*,#592,.F.);
#361=ORIENTED_EDGE('',*,*,#550,.F.);
#362=ORIENTED_EDGE('',*,*,#594,.F.);
#363=ORIENTED_EDGE('',*,*,#603,.F.);
#364=ORIENTED_EDGE('',*,*,#573,.F.);
#365=ORIENTED_EDGE('',*,*,#566,.F.);
#366=ORIENTED_EDGE('',*,*,#580,.F.);
#367=ORIENTED_EDGE('',*,*,#599,.F.);
#368=ORIENTED_EDGE('',*,*,#517,.F.);
#369=ORIENTED_EDGE('',*,*,#604,.T.);
#370=ORIENTED_EDGE('',*,*,#526,.T.);
#371=ORIENTED_EDGE('',*,*,#605,.T.);
#372=ORIENTED_EDGE('',*,*,#606,.T.);
#373=ORIENTED_EDGE('',*,*,#607,.T.);
#374=ORIENTED_EDGE('',*,*,#522,.F.);
#375=ORIENTED_EDGE('',*,*,#608,.T.);
#376=ORIENTED_EDGE('',*,*,#528,.F.);
#377=ORIENTED_EDGE('',*,*,#609,.T.);
#378=ORIENTED_EDGE('',*,*,#514,.F.);
#379=ORIENTED_EDGE('',*,*,#610,.T.);
#380=ORIENTED_EDGE('',*,*,#611,.T.);
#381=ORIENTED_EDGE('',*,*,#612,.T.);
#382=ORIENTED_EDGE('',*,*,#534,.F.);
#383=ORIENTED_EDGE('',*,*,#613,.T.);
#384=ORIENTED_EDGE('',*,*,#529,.F.);
#385=ORIENTED_EDGE('',*,*,#608,.F.);
#386=ORIENTED_EDGE('',*,*,#521,.F.);
#387=ORIENTED_EDGE('',*,*,#614,.T.);
#388=ORIENTED_EDGE('',*,*,#587,.F.);
#389=ORIENTED_EDGE('',*,*,#601,.F.);
#390=ORIENTED_EDGE('',*,*,#584,.F.);
#391=ORIENTED_EDGE('',*,*,#615,.T.);
#392=ORIENTED_EDGE('',*,*,#523,.F.);
#393=ORIENTED_EDGE('',*,*,#609,.F.);
#394=ORIENTED_EDGE('',*,*,#527,.F.);
#395=ORIENTED_EDGE('',*,*,#604,.F.);
#396=ORIENTED_EDGE('',*,*,#606,.F.);
#397=ORIENTED_EDGE('',*,*,#616,.T.);
#398=ORIENTED_EDGE('',*,*,#611,.F.);
#399=ORIENTED_EDGE('',*,*,#617,.T.);
#400=ORIENTED_EDGE('',*,*,#545,.F.);
#401=ORIENTED_EDGE('',*,*,#618,.T.);
#402=ORIENTED_EDGE('',*,*,#515,.F.);
#403=ORIENTED_EDGE('',*,*,#613,.F.);
#404=ORIENTED_EDGE('',*,*,#533,.F.);
#405=ORIENTED_EDGE('',*,*,#619,.T.);
#406=ORIENTED_EDGE('',*,*,#600,.F.);
#407=ORIENTED_EDGE('',*,*,#578,.F.);
#408=ORIENTED_EDGE('',*,*,#564,.F.);
#409=ORIENTED_EDGE('',*,*,#582,.F.);
#410=ORIENTED_EDGE('',*,*,#602,.F.);
#411=ORIENTED_EDGE('',*,*,#585,.F.);
#412=ORIENTED_EDGE('',*,*,#552,.F.);
#413=ORIENTED_EDGE('',*,*,#591,.F.);
#414=ORIENTED_EDGE('',*,*,#615,.F.);
#415=ORIENTED_EDGE('',*,*,#583,.F.);
#416=ORIENTED_EDGE('',*,*,#562,.F.);
#417=ORIENTED_EDGE('',*,*,#530,.F.);
#418=ORIENTED_EDGE('',*,*,#614,.F.);
#419=ORIENTED_EDGE('',*,*,#520,.F.);
#420=ORIENTED_EDGE('',*,*,#554,.F.);
#421=ORIENTED_EDGE('',*,*,#588,.F.);
#422=ORIENTED_EDGE('',*,*,#610,.F.);
#423=ORIENTED_EDGE('',*,*,#513,.F.);
#424=ORIENTED_EDGE('',*,*,#555,.F.);
#425=ORIENTED_EDGE('',*,*,#518,.F.);
#426=ORIENTED_EDGE('',*,*,#607,.F.);
#427=ORIENTED_EDGE('',*,*,#617,.F.);
#428=ORIENTED_EDGE('',*,*,#508,.F.);
#429=ORIENTED_EDGE('',*,*,#620,.T.);
#430=ORIENTED_EDGE('',*,*,#506,.F.);
#431=ORIENTED_EDGE('',*,*,#556,.F.);
#432=ORIENTED_EDGE('',*,*,#516,.F.);
#433=ORIENTED_EDGE('',*,*,#618,.F.);
#434=ORIENTED_EDGE('',*,*,#544,.F.);
#435=ORIENTED_EDGE('',*,*,#538,.F.);
#436=ORIENTED_EDGE('',*,*,#621,.T.);
#437=ORIENTED_EDGE('',*,*,#536,.F.);
#438=ORIENTED_EDGE('',*,*,#546,.F.);
#439=ORIENTED_EDGE('',*,*,#619,.F.);
#440=ORIENTED_EDGE('',*,*,#532,.F.);
#441=ORIENTED_EDGE('',*,*,#560,.F.);
#442=ORIENTED_EDGE('',*,*,#605,.F.);
#443=ORIENTED_EDGE('',*,*,#525,.F.);
#444=ORIENTED_EDGE('',*,*,#561,.F.);
#445=ORIENTED_EDGE('',*,*,#535,.F.);
#446=ORIENTED_EDGE('',*,*,#612,.F.);
#447=ORIENTED_EDGE('',*,*,#616,.F.);
#448=ORIENTED_EDGE('',*,*,#622,.T.);
#449=ORIENTED_EDGE('',*,*,#623,.T.);
#450=ORIENTED_EDGE('',*,*,#624,.T.);
#451=ORIENTED_EDGE('',*,*,#625,.T.);
#452=ORIENTED_EDGE('',*,*,#626,.T.);
#453=ORIENTED_EDGE('',*,*,#627,.T.);
#454=ORIENTED_EDGE('',*,*,#628,.T.);
#455=ORIENTED_EDGE('',*,*,#629,.T.);
#456=ORIENTED_EDGE('',*,*,#621,.F.);
#457=ORIENTED_EDGE('',*,*,#537,.F.);
#458=ORIENTED_EDGE('',*,*,#627,.F.);
#459=ORIENTED_EDGE('',*,*,#620,.F.);
#460=ORIENTED_EDGE('',*,*,#507,.F.);
#461=ORIENTED_EDGE('',*,*,#629,.F.);
#462=ORIENTED_EDGE('',*,*,#577,.F.);
#463=ORIENTED_EDGE('',*,*,#625,.F.);
#464=ORIENTED_EDGE('',*,*,#589,.F.);
#465=ORIENTED_EDGE('',*,*,#623,.F.);
#466=ORIENTED_EDGE('',*,*,#576,.F.);
#467=ORIENTED_EDGE('',*,*,#569,.F.);
#468=ORIENTED_EDGE('',*,*,#595,.F.);
#469=ORIENTED_EDGE('',*,*,#548,.F.);
#470=ORIENTED_EDGE('',*,*,#575,.F.);
#471=ORIENTED_EDGE('',*,*,#598,.F.);
#472=ORIENTED_EDGE('',*,*,#596,.F.);
#473=ORIENTED_EDGE('',*,*,#571,.F.);
#474=ORIENTED_EDGE('',*,*,#505,.F.);
#475=ORIENTED_EDGE('',*,*,#497,.F.);
#476=ORIENTED_EDGE('',*,*,#493,.F.);
#477=ORIENTED_EDGE('',*,*,#558,.F.);
#478=ORIENTED_EDGE('',*,*,#504,.F.);
#479=ORIENTED_EDGE('',*,*,#542,.F.);
#480=ORIENTED_EDGE('',*,*,#495,.F.);
#481=ORIENTED_EDGE('',*,*,#499,.F.);
#482=ORIENTED_EDGE('',*,*,#490,.F.);
#483=ORIENTED_EDGE('',*,*,#626,.F.);
#484=ORIENTED_EDGE('',*,*,#628,.F.);
#485=ORIENTED_EDGE('',*,*,#500,.F.);
#486=ORIENTED_EDGE('',*,*,#572,.F.);
#487=ORIENTED_EDGE('',*,*,#624,.F.);
#488=ORIENTED_EDGE('',*,*,#622,.F.);
#489=ORIENTED_EDGE('',*,*,#593,.F.);
#490=EDGE_CURVE('',#630,#630,#728,.F.);
#491=EDGE_CURVE('',#631,#632,#729,.T.);
#492=EDGE_CURVE('',#633,#632,#58,.T.);
#493=EDGE_CURVE('',#633,#634,#730,.F.);
#494=EDGE_CURVE('',#635,#634,#59,.T.);
#495=EDGE_CURVE('',#635,#636,#731,.F.);
#496=EDGE_CURVE('',#636,#631,#60,.T.);
#497=EDGE_CURVE('',#634,#637,#61,.F.);
#498=EDGE_CURVE('',#638,#637,#62,.T.);
#499=EDGE_CURVE('',#638,#635,#63,.T.);
#500=EDGE_CURVE('',#639,#639,#732,.T.);
#501=EDGE_CURVE('',#640,#641,#64,.T.);
#502=EDGE_CURVE('',#641,#642,#733,.F.);
#503=EDGE_CURVE('',#643,#642,#65,.T.);
#504=EDGE_CURVE('',#643,#638,#734,.T.);
#505=EDGE_CURVE('',#637,#640,#735,.T.);
#506=EDGE_CURVE('',#644,#645,#66,.F.);
#507=EDGE_CURVE('',#645,#646,#736,.F.);
#508=EDGE_CURVE('',#646,#647,#67,.F.);
#509=EDGE_CURVE('',#647,#648,#68,.T.);
#510=EDGE_CURVE('',#648,#649,#737,.T.);
#511=EDGE_CURVE('',#644,#649,#69,.T.);
#512=EDGE_CURVE('',#650,#651,#70,.T.);
#513=EDGE_CURVE('',#650,#652,#71,.F.);
#514=EDGE_CURVE('',#652,#653,#72,.F.);
#515=EDGE_CURVE('',#653,#654,#52,.T.);
#516=EDGE_CURVE('',#654,#651,#73,.T.);
#517=EDGE_CURVE('',#655,#656,#74,.T.);
#518=EDGE_CURVE('',#656,#657,#75,.T.);
#519=EDGE_CURVE('',#658,#657,#76,.T.);
#520=EDGE_CURVE('',#658,#659,#77,.F.);
#521=EDGE_CURVE('',#659,#660,#738,.T.);
#522=EDGE_CURVE('',#660,#661,#78,.T.);
#523=EDGE_CURVE('',#661,#655,#739,.F.);
#524=EDGE_CURVE('',#662,#663,#79,.T.);
#525=EDGE_CURVE('',#663,#664,#80,.F.);
#526=EDGE_CURVE('',#665,#664,#81,.T.);
#527=EDGE_CURVE('',#665,#666,#740,.T.);
#528=EDGE_CURVE('',#666,#667,#82,.T.);
#529=EDGE_CURVE('',#667,#668,#741,.F.);
#530=EDGE_CURVE('',#668,#662,#83,.T.);
#531=EDGE_CURVE('',#669,#670,#84,.T.);
#532=EDGE_CURVE('',#670,#671,#85,.F.);
#533=EDGE_CURVE('',#671,#672,#53,.F.);
#534=EDGE_CURVE('',#672,#673,#86,.F.);
#535=EDGE_CURVE('',#673,#669,#87,.T.);
#536=EDGE_CURVE('',#674,#675,#88,.T.);
#537=EDGE_CURVE('',#675,#676,#742,.T.);
#538=EDGE_CURVE('',#676,#677,#89,.T.);
#539=EDGE_CURVE('',#677,#678,#90,.T.);
#540=EDGE_CURVE('',#678,#679,#743,.F.);
#541=EDGE_CURVE('',#674,#679,#91,.T.);
#542=EDGE_CURVE('',#636,#643,#92,.F.);
#543=EDGE_CURVE('',#642,#648,#93,.T.);
#544=EDGE_CURVE('',#647,#680,#744,.T.);
#545=EDGE_CURVE('',#680,#681,#94,.F.);
#546=EDGE_CURVE('',#681,#674,#745,.T.);
#547=EDGE_CURVE('',#679,#631,#95,.T.);
#548=EDGE_CURVE('',#682,#683,#96,.T.);
#549=EDGE_CURVE('',#684,#683,#97,.T.);
#550=EDGE_CURVE('',#684,#685,#98,.T.);
#551=EDGE_CURVE('',#685,#686,#99,.T.);
#552=EDGE_CURVE('',#686,#687,#746,.F.);
#553=EDGE_CURVE('',#688,#687,#100,.T.);
#554=EDGE_CURVE('',#688,#658,#747,.T.);
#555=EDGE_CURVE('',#657,#650,#748,.T.);
#556=EDGE_CURVE('',#651,#644,#749,.F.);
#557=EDGE_CURVE('',#649,#641,#101,.F.);
#558=EDGE_CURVE('',#640,#633,#102,.T.);
#559=EDGE_CURVE('',#632,#678,#103,.F.);
#560=EDGE_CURVE('',#677,#670,#750,.F.);
#561=EDGE_CURVE('',#669,#663,#751,.T.);
#562=EDGE_CURVE('',#662,#689,#752,.T.);
#563=EDGE_CURVE('',#689,#690,#104,.T.);
#564=EDGE_CURVE('',#690,#691,#753,.F.);
#565=EDGE_CURVE('',#692,#691,#105,.T.);
#566=EDGE_CURVE('',#692,#693,#106,.T.);
#567=EDGE_CURVE('',#693,#682,#107,.T.);
#568=EDGE_CURVE('',#694,#695,#108,.T.);
#569=EDGE_CURVE('',#695,#696,#109,.F.);
#570=EDGE_CURVE('',#697,#696,#110,.T.);
#571=EDGE_CURVE('',#697,#694,#111,.T.);
#572=EDGE_CURVE('',#698,#698,#754,.F.);
#573=EDGE_CURVE('',#693,#699,#755,.T.);
#574=EDGE_CURVE('',#699,#700,#112,.T.);
#575=EDGE_CURVE('',#700,#697,#756,.F.);
#576=EDGE_CURVE('',#696,#682,#757,.F.);
#577=EDGE_CURVE('',#701,#701,#758,.T.);
#578=EDGE_CURVE('',#691,#702,#113,.F.);
#579=EDGE_CURVE('',#703,#702,#114,.T.);
#580=EDGE_CURVE('',#703,#692,#759,.F.);
#581=EDGE_CURVE('',#704,#705,#115,.T.);
#582=EDGE_CURVE('',#705,#690,#116,.T.);
#583=EDGE_CURVE('',#689,#706,#117,.F.);
#584=EDGE_CURVE('',#706,#704,#54,.T.);
#585=EDGE_CURVE('',#687,#707,#118,.F.);
#586=EDGE_CURVE('',#708,#707,#119,.T.);
#587=EDGE_CURVE('',#708,#709,#55,.F.);
#588=EDGE_CURVE('',#709,#688,#120,.T.);
#589=EDGE_CURVE('',#710,#710,#760,.F.);
#590=EDGE_CURVE('',#711,#712,#121,.T.);
#591=EDGE_CURVE('',#712,#686,#122,.T.);
#592=EDGE_CURVE('',#685,#711,#761,.T.);
#593=EDGE_CURVE('',#713,#713,#762,.T.);
#594=EDGE_CURVE('',#714,#684,#763,.F.);
#595=EDGE_CURVE('',#683,#695,#764,.T.);
#596=EDGE_CURVE('',#694,#715,#765,.T.);
#597=EDGE_CURVE('',#714,#715,#123,.T.);
#598=EDGE_CURVE('',#715,#700,#124,.F.);
#599=EDGE_CURVE('',#699,#703,#125,.F.);
#600=EDGE_CURVE('',#702,#705,#766,.T.);
#601=EDGE_CURVE('',#704,#708,#126,.T.);
#602=EDGE_CURVE('',#707,#712,#767,.T.);
#603=EDGE_CURVE('',#711,#714,#127,.F.);
#604=EDGE_CURVE('',#655,#665,#128,.T.);
#605=EDGE_CURVE('',#664,#716,#768,.F.);
#606=EDGE_CURVE('',#716,#717,#129,.F.);
#607=EDGE_CURVE('',#717,#656,#769,.F.);
#608=EDGE_CURVE('',#660,#667,#130,.F.);
#609=EDGE_CURVE('',#666,#661,#131,.F.);
#610=EDGE_CURVE('',#652,#718,#56,.T.);
#611=EDGE_CURVE('',#718,#719,#132,.F.);
#612=EDGE_CURVE('',#719,#673,#57,.T.);
#613=EDGE_CURVE('',#672,#653,#133,.F.);
#614=EDGE_CURVE('',#659,#709,#20,.T.);
#615=EDGE_CURVE('',#706,#668,#21,.T.);
#616=EDGE_CURVE('',#716,#719,#22,.T.);
#617=EDGE_CURVE('',#718,#717,#23,.T.);
#618=EDGE_CURVE('',#680,#654,#24,.T.);
#619=EDGE_CURVE('',#671,#681,#25,.T.);
#620=EDGE_CURVE('',#646,#645,#26,.T.);
#621=EDGE_CURVE('',#676,#675,#27,.T.);
#622=EDGE_CURVE('',#720,#720,#770,.F.);
#623=EDGE_CURVE('',#721,#721,#771,.T.);
#624=EDGE_CURVE('',#722,#722,#772,.T.);
#625=EDGE_CURVE('',#723,#723,#773,.F.);
#626=EDGE_CURVE('',#724,#724,#774,.T.);
#627=EDGE_CURVE('',#725,#725,#775,.F.);
#628=EDGE_CURVE('',#726,#726,#776,.F.);
#629=EDGE_CURVE('',#727,#727,#777,.T.);
#630=VERTEX_POINT('',#1422);
#631=VERTEX_POINT('',#1424);
#632=VERTEX_POINT('',#1425);
#633=VERTEX_POINT('',#1427);
#634=VERTEX_POINT('',#1429);
#635=VERTEX_POINT('',#1431);
#636=VERTEX_POINT('',#1433);
#637=VERTEX_POINT('',#1437);
#638=VERTEX_POINT('',#1439);
#639=VERTEX_POINT('',#1443);
#640=VERTEX_POINT('',#1445);
#641=VERTEX_POINT('',#1446);
#642=VERTEX_POINT('',#1448);
#643=VERTEX_POINT('',#1450);
#644=VERTEX_POINT('',#1455);
#645=VERTEX_POINT('',#1456);
#646=VERTEX_POINT('',#1458);
#647=VERTEX_POINT('',#1460);
#648=VERTEX_POINT('',#1462);
#649=VERTEX_POINT('',#1464);
#650=VERTEX_POINT('',#1468);
#651=VERTEX_POINT('',#1469);
#652=VERTEX_POINT('',#1471);
#653=VERTEX_POINT('',#1473);
#654=VERTEX_POINT('',#1475);
#655=VERTEX_POINT('',#1479);
#656=VERTEX_POINT('',#1480);
#657=VERTEX_POINT('',#1482);
#658=VERTEX_POINT('',#1484);
#659=VERTEX_POINT('',#1486);
#660=VERTEX_POINT('',#1488);
#661=VERTEX_POINT('',#1490);
#662=VERTEX_POINT('',#1494);
#663=VERTEX_POINT('',#1495);
#664=VERTEX_POINT('',#1497);
#665=VERTEX_POINT('',#1499);
#666=VERTEX_POINT('',#1501);
#667=VERTEX_POINT('',#1503);
#668=VERTEX_POINT('',#1505);
#669=VERTEX_POINT('',#1509);
#670=VERTEX_POINT('',#1510);
#671=VERTEX_POINT('',#1512);
#672=VERTEX_POINT('',#1514);
#673=VERTEX_POINT('',#1516);
#674=VERTEX_POINT('',#1520);
#675=VERTEX_POINT('',#1521);
#676=VERTEX_POINT('',#1523);
#677=VERTEX_POINT('',#1525);
#678=VERTEX_POINT('',#1527);
#679=VERTEX_POINT('',#1529);
#680=VERTEX_POINT('',#1535);
#681=VERTEX_POINT('',#1537);
#682=VERTEX_POINT('',#1542);
#683=VERTEX_POINT('',#1543);
#684=VERTEX_POINT('',#1545);
#685=VERTEX_POINT('',#1547);
#686=VERTEX_POINT('',#1549);
#687=VERTEX_POINT('',#1551);
#688=VERTEX_POINT('',#1553);
#689=VERTEX_POINT('',#1563);
#690=VERTEX_POINT('',#1565);
#691=VERTEX_POINT('',#1567);
#692=VERTEX_POINT('',#1569);
#693=VERTEX_POINT('',#1571);
#694=VERTEX_POINT('',#1577);
#695=VERTEX_POINT('',#1578);
#696=VERTEX_POINT('',#1580);
#697=VERTEX_POINT('',#1582);
#698=VERTEX_POINT('',#1586);
#699=VERTEX_POINT('',#1588);
#700=VERTEX_POINT('',#1590);
#701=VERTEX_POINT('',#1595);
#702=VERTEX_POINT('',#1597);
#703=VERTEX_POINT('',#1599);
#704=VERTEX_POINT('',#1603);
#705=VERTEX_POINT('',#1604);
#706=VERTEX_POINT('',#1607);
#707=VERTEX_POINT('',#1611);
#708=VERTEX_POINT('',#1613);
#709=VERTEX_POINT('',#1615);
#710=VERTEX_POINT('',#1619);
#711=VERTEX_POINT('',#1621);
#712=VERTEX_POINT('',#1622);
#713=VERTEX_POINT('',#1627);
#714=VERTEX_POINT('',#1629);
#715=VERTEX_POINT('',#1632);
#716=VERTEX_POINT('',#1646);
#717=VERTEX_POINT('',#1648);
#718=VERTEX_POINT('',#1655);
#719=VERTEX_POINT('',#1657);
#720=VERTEX_POINT('',#1710);
#721=VERTEX_POINT('',#1712);
#722=VERTEX_POINT('',#1715);
#723=VERTEX_POINT('',#1717);
#724=VERTEX_POINT('',#1720);
#725=VERTEX_POINT('',#1722);
#726=VERTEX_POINT('',#1725);
#727=VERTEX_POINT('',#1727);
#728=CIRCLE('',#1012,0.0026);
#729=CIRCLE('',#1013,0.005);
#730=CIRCLE('',#1014,0.0025);
#731=CIRCLE('',#1015,0.0025);
#732=CIRCLE('',#1018,0.0026);
#733=CIRCLE('',#1019,0.005);
#734=CIRCLE('',#1020,0.0025);
#735=CIRCLE('',#1021,0.0025);
#736=CIRCLE('',#1023,0.0026);
#737=CIRCLE('',#1024,0.005);
#738=CIRCLE('',#1028,0.05);
#739=CIRCLE('',#1029,0.05);
#740=CIRCLE('',#1031,0.05);
#741=CIRCLE('',#1032,0.05);
#742=CIRCLE('',#1036,0.0026);
#743=CIRCLE('',#1037,0.005);
#744=CIRCLE('',#1039,0.03);
#745=CIRCLE('',#1040,0.03);
#746=CIRCLE('',#1042,0.015);
#747=CIRCLE('',#1043,0.015);
#748=CIRCLE('',#1044,0.03);
#749=CIRCLE('',#1045,0.03);
#750=CIRCLE('',#1046,0.03);
#751=CIRCLE('',#1047,0.03);
#752=CIRCLE('',#1048,0.015);
#753=CIRCLE('',#1049,0.015);
#754=CIRCLE('',#1054,0.0026);
#755=CIRCLE('',#1055,0.005);
#756=CIRCLE('',#1056,0.0025);
#757=CIRCLE('',#1057,0.0025);
#758=CIRCLE('',#1059,0.0026);
#759=CIRCLE('',#1060,0.005);
#760=CIRCLE('',#1066,0.0026);
#761=CIRCLE('',#1067,0.005);
#762=CIRCLE('',#1069,0.0026);
#763=CIRCLE('',#1070,0.005);
#764=CIRCLE('',#1071,0.0025);
#765=CIRCLE('',#1072,0.0025);
#766=CIRCLE('',#1074,0.015);
#767=CIRCLE('',#1075,0.015);
#768=CIRCLE('',#1079,0.03);
#769=CIRCLE('',#1080,0.03);
#770=CIRCLE('',#1098,0.0016);
#771=CIRCLE('',#1099,0.0016);
#772=CIRCLE('',#1101,0.0016);
#773=CIRCLE('',#1102,0.0016);
#774=CIRCLE('',#1104,0.0016);
#775=CIRCLE('',#1105,0.0016);
#776=CIRCLE('',#1107,0.0016);
#777=CIRCLE('',#1108,0.0016);
#778=EDGE_LOOP('',(#210));
#779=EDGE_LOOP('',(#211,#212,#213,#214,#215,#216));
#780=EDGE_LOOP('',(#217,#218,#219,#220));
#781=EDGE_LOOP('',(#221));
#782=EDGE_LOOP('',(#222,#223,#224,#225,#226,#227));
#783=EDGE_LOOP('',(#228,#229,#230,#231,#232,#233));
#784=EDGE_LOOP('',(#234,#235,#236,#237,#238));
#785=EDGE_LOOP('',(#239,#240,#241,#242,#243,#244,#245));
#786=EDGE_LOOP('',(#246,#247,#248,#249,#250,#251,#252));
#787=EDGE_LOOP('',(#253,#254,#255,#256,#257));
#788=EDGE_LOOP('',(#258,#259,#260,#261,#262,#263));
#789=EDGE_LOOP('',(#264,#265,#266,#267,#268,#269,#270,#271,#272,#273));
#790=EDGE_LOOP('',(#274,#275,#276,#277,#278,#279,#280,#281,#282,#283,#284,
#285,#286,#287,#288,#289,#290,#291,#292,#293,#294,#295,#296,#297,#298,#299,
#300,#301));
#791=EDGE_LOOP('',(#302,#303,#304,#305));
#792=EDGE_LOOP('',(#306,#307,#308,#309));
#793=EDGE_LOOP('',(#310,#311,#312,#313));
#794=EDGE_LOOP('',(#314));
#795=EDGE_LOOP('',(#315,#316,#317,#318,#319,#320));
#796=EDGE_LOOP('',(#321));
#797=EDGE_LOOP('',(#322,#323,#324,#325));
#798=EDGE_LOOP('',(#326,#327,#328,#329,#330));
#799=EDGE_LOOP('',(#331,#332,#333,#334,#335));
#800=EDGE_LOOP('',(#336));
#801=EDGE_LOOP('',(#337,#338,#339,#340));
#802=EDGE_LOOP('',(#341));
#803=EDGE_LOOP('',(#342,#343,#344,#345,#346,#347));
#804=EDGE_LOOP('',(#348,#349,#350,#351,#352,#353,#354,#355,#356,#357,#358,
#359));
#805=EDGE_LOOP('',(#360,#361,#362,#363));
#806=EDGE_LOOP('',(#364,#365,#366,#367));
#807=EDGE_LOOP('',(#368,#369,#370,#371,#372,#373));
#808=EDGE_LOOP('',(#374,#375,#376,#377));
#809=EDGE_LOOP('',(#378,#379,#380,#381,#382,#383));
#810=EDGE_LOOP('',(#384,#385,#386,#387,#388,#389,#390,#391));
#811=EDGE_LOOP('',(#392,#393,#394,#395));
#812=EDGE_LOOP('',(#396,#397,#398,#399));
#813=EDGE_LOOP('',(#400,#401,#402,#403,#404,#405));
#814=EDGE_LOOP('',(#406,#407,#408,#409));
#815=EDGE_LOOP('',(#410,#411,#412,#413));
#816=EDGE_LOOP('',(#414,#415,#416,#417));
#817=EDGE_LOOP('',(#418,#419,#420,#421));
#818=EDGE_LOOP('',(#422,#423,#424,#425,#426,#427));
#819=EDGE_LOOP('',(#428,#429,#430,#431,#432,#433,#434));
#820=EDGE_LOOP('',(#435,#436,#437,#438,#439,#440,#441));
#821=EDGE_LOOP('',(#442,#443,#444,#445,#446,#447));
#822=EDGE_LOOP('',(#448));
#823=EDGE_LOOP('',(#449));
#824=EDGE_LOOP('',(#450));
#825=EDGE_LOOP('',(#451));
#826=EDGE_LOOP('',(#452));
#827=EDGE_LOOP('',(#453));
#828=EDGE_LOOP('',(#454));
#829=EDGE_LOOP('',(#455));
#830=EDGE_LOOP('',(#456,#457));
#831=EDGE_LOOP('',(#458));
#832=EDGE_LOOP('',(#459,#460));
#833=EDGE_LOOP('',(#461));
#834=EDGE_LOOP('',(#462));
#835=EDGE_LOOP('',(#463));
#836=EDGE_LOOP('',(#464));
#837=EDGE_LOOP('',(#465));
#838=EDGE_LOOP('',(#466,#467,#468,#469));
#839=EDGE_LOOP('',(#470,#471,#472,#473));
#840=EDGE_LOOP('',(#474,#475,#476,#477));
#841=EDGE_LOOP('',(#478,#479,#480,#481));
#842=EDGE_LOOP('',(#482));
#843=EDGE_LOOP('',(#483));
#844=EDGE_LOOP('',(#484));
#845=EDGE_LOOP('',(#485));
#846=EDGE_LOOP('',(#486));
#847=EDGE_LOOP('',(#487));
#848=EDGE_LOOP('',(#488));
#849=EDGE_LOOP('',(#489));
#850=FACE_BOUND('',#778,.T.);
#851=FACE_BOUND('',#779,.T.);
#852=FACE_BOUND('',#780,.T.);
#853=FACE_BOUND('',#781,.T.);
#854=FACE_BOUND('',#782,.T.);
#855=FACE_BOUND('',#783,.T.);
#856=FACE_BOUND('',#784,.T.);
#857=FACE_BOUND('',#785,.T.);
#858=FACE_BOUND('',#786,.T.);
#859=FACE_BOUND('',#787,.T.);
#860=FACE_BOUND('',#788,.T.);
#861=FACE_BOUND('',#789,.T.);
#862=FACE_BOUND('',#790,.T.);
#863=FACE_BOUND('',#791,.T.);
#864=FACE_BOUND('',#792,.T.);
#865=FACE_BOUND('',#793,.T.);
#866=FACE_BOUND('',#794,.T.);
#867=FACE_BOUND('',#795,.T.);
#868=FACE_BOUND('',#796,.T.);
#869=FACE_BOUND('',#797,.T.);
#870=FACE_BOUND('',#798,.T.);
#871=FACE_BOUND('',#799,.T.);
#872=FACE_BOUND('',#800,.T.);
#873=FACE_BOUND('',#801,.T.);
#874=FACE_BOUND('',#802,.T.);
#875=FACE_BOUND('',#803,.T.);
#876=FACE_BOUND('',#804,.T.);
#877=FACE_BOUND('',#805,.T.);
#878=FACE_BOUND('',#806,.T.);
#879=FACE_BOUND('',#807,.T.);
#880=FACE_BOUND('',#808,.T.);
#881=FACE_BOUND('',#809,.T.);
#882=FACE_BOUND('',#810,.T.);
#883=FACE_BOUND('',#811,.T.);
#884=FACE_BOUND('',#812,.T.);
#885=FACE_BOUND('',#813,.T.);
#886=FACE_BOUND('',#814,.T.);
#887=FACE_BOUND('',#815,.T.);
#888=FACE_BOUND('',#816,.T.);
#889=FACE_BOUND('',#817,.T.);
#890=FACE_BOUND('',#818,.T.);
#891=FACE_BOUND('',#819,.T.);
#892=FACE_BOUND('',#820,.T.);
#893=FACE_BOUND('',#821,.T.);
#894=FACE_BOUND('',#822,.T.);
#895=FACE_BOUND('',#823,.T.);
#896=FACE_BOUND('',#824,.T.);
#897=FACE_BOUND('',#825,.T.);
#898=FACE_BOUND('',#826,.T.);
#899=FACE_BOUND('',#827,.T.);
#900=FACE_BOUND('',#828,.T.);
#901=FACE_BOUND('',#829,.T.);
#902=FACE_BOUND('',#830,.T.);
#903=FACE_BOUND('',#831,.T.);
#904=FACE_BOUND('',#832,.T.);
#905=FACE_BOUND('',#833,.T.);
#906=FACE_BOUND('',#834,.T.);
#907=FACE_BOUND('',#835,.T.);
#908=FACE_BOUND('',#836,.T.);
#909=FACE_BOUND('',#837,.T.);
#910=FACE_BOUND('',#838,.T.);
#911=FACE_BOUND('',#839,.T.);
#912=FACE_BOUND('',#840,.T.);
#913=FACE_BOUND('',#841,.T.);
#914=FACE_BOUND('',#842,.T.);
#915=FACE_BOUND('',#843,.T.);
#916=FACE_BOUND('',#844,.T.);
#917=FACE_BOUND('',#845,.T.);
#918=FACE_BOUND('',#846,.T.);
#919=FACE_BOUND('',#847,.T.);
#920=FACE_BOUND('',#848,.T.);
#921=FACE_BOUND('',#849,.T.);
#922=PLANE('',#1011);
#923=PLANE('',#1016);
#924=PLANE('',#1017);
#925=PLANE('',#1022);
#926=PLANE('',#1025);
#927=PLANE('',#1027);
#928=PLANE('',#1030);
#929=PLANE('',#1033);
#930=PLANE('',#1035);
#931=PLANE('',#1038);
#932=PLANE('',#1041);
#933=PLANE('',#1052);
#934=PLANE('',#1053);
#935=PLANE('',#1058);
#936=PLANE('',#1061);
#937=PLANE('',#1063);
#938=PLANE('',#1065);
#939=PLANE('',#1068);
#940=PLANE('',#1073);
#941=PLANE('',#1078);
#942=PLANE('',#1081);
#943=PLANE('',#1082);
#944=ADVANCED_FACE('',(#850,#851),#922,.T.);
#945=ADVANCED_FACE('',(#852),#923,.T.);
#946=ADVANCED_FACE('',(#853,#854),#924,.F.);
#947=ADVANCED_FACE('',(#855),#925,.T.);
#948=ADVANCED_FACE('',(#856),#926,.T.);
#949=ADVANCED_FACE('',(#857),#927,.T.);
#950=ADVANCED_FACE('',(#858),#928,.F.);
#951=ADVANCED_FACE('',(#859),#929,.F.);
#952=ADVANCED_FACE('',(#860),#930,.F.);
#953=ADVANCED_FACE('',(#861),#931,.T.);
#954=ADVANCED_FACE('',(#862),#932,.F.);
#955=ADVANCED_FACE('',(#863),#28,.T.);
#956=ADVANCED_FACE('',(#864),#29,.T.);
#957=ADVANCED_FACE('',(#865),#933,.T.);
#958=ADVANCED_FACE('',(#866,#867),#934,.T.);
#959=ADVANCED_FACE('',(#868,#869),#935,.F.);
#960=ADVANCED_FACE('',(#870),#936,.T.);
#961=ADVANCED_FACE('',(#871),#937,.F.);
#962=ADVANCED_FACE('',(#872,#873),#938,.T.);
#963=ADVANCED_FACE('',(#874,#875),#939,.F.);
#964=ADVANCED_FACE('',(#876),#940,.T.);
#965=ADVANCED_FACE('',(#877),#30,.T.);
#966=ADVANCED_FACE('',(#878),#31,.T.);
#967=ADVANCED_FACE('',(#879),#941,.T.);
#968=ADVANCED_FACE('',(#880),#942,.T.);
#969=ADVANCED_FACE('',(#881),#943,.F.);
#970=ADVANCED_FACE('',(#882),#32,.T.);
#971=ADVANCED_FACE('',(#883),#33,.F.);
#972=ADVANCED_FACE('',(#884),#34,.F.);
#973=ADVANCED_FACE('',(#885),#35,.T.);
#974=ADVANCED_FACE('',(#886),#36,.T.);
#975=ADVANCED_FACE('',(#887),#37,.T.);
#976=ADVANCED_FACE('',(#888),#38,.F.);
#977=ADVANCED_FACE('',(#889),#39,.F.);
#978=ADVANCED_FACE('',(#890),#40,.F.);
#979=ADVANCED_FACE('',(#891),#41,.T.);
#980=ADVANCED_FACE('',(#892),#42,.T.);
#981=ADVANCED_FACE('',(#893),#43,.F.);
#982=ADVANCED_FACE('',(#894,#895),#44,.F.);
#983=ADVANCED_FACE('',(#896,#897),#45,.F.);
#984=ADVANCED_FACE('',(#898,#899),#46,.F.);
#985=ADVANCED_FACE('',(#900,#901),#47,.F.);
#986=ADVANCED_FACE('',(#902,#903),#12,.F.);
#987=ADVANCED_FACE('',(#904,#905),#13,.F.);
#988=ADVANCED_FACE('',(#906,#907),#14,.F.);
#989=ADVANCED_FACE('',(#908,#909),#15,.F.);
#990=ADVANCED_FACE('',(#910),#48,.T.);
#991=ADVANCED_FACE('',(#911),#49,.T.);
#992=ADVANCED_FACE('',(#912),#50,.T.);
#993=ADVANCED_FACE('',(#913),#51,.T.);
#994=ADVANCED_FACE('',(#914,#915),#16,.F.);
#995=ADVANCED_FACE('',(#916,#917),#17,.F.);
#996=ADVANCED_FACE('',(#918,#919),#18,.F.);
#997=ADVANCED_FACE('',(#920,#921),#19,.F.);
#998=CLOSED_SHELL('',(#944,#945,#946,#947,#948,#949,#950,#951,#952,#953,
#954,#955,#956,#957,#958,#959,#960,#961,#962,#963,#964,#965,#966,#967,#968,
#969,#970,#971,#972,#973,#974,#975,#976,#977,#978,#979,#980,#981,#982,#983,
#984,#985,#986,#987,#988,#989,#990,#991,#992,#993,#994,#995,#996,#997));
#999=STYLED_ITEM('',(#1000),#1007);
#1000=PRESENTATION_STYLE_ASSIGNMENT((#1001));
#1001=SURFACE_STYLE_USAGE(.BOTH.,#1002);
#1002=SURFACE_SIDE_STYLE('',(#1003));
#1003=SURFACE_STYLE_FILL_AREA(#1004);
#1004=FILL_AREA_STYLE('',(#1005));
#1005=FILL_AREA_STYLE_COLOUR('',#1006);
#1006=DRAUGHTING_PRE_DEFINED_COLOUR('black');
#1007=MANIFOLD_SOLID_BREP('upper arm',#998);
#1008=SHAPE_DEFINITION_REPRESENTATION(#1746,#1009);
#1009=SHAPE_REPRESENTATION('upper arm',(#1010),#1741);
#1010=AXIS2_PLACEMENT_3D('',#1419,#1121,#1122);
#1011=AXIS2_PLACEMENT_3D('',#1420,#1123,#1124);
#1012=AXIS2_PLACEMENT_3D('',#1421,#1125,#1126);
#1013=AXIS2_PLACEMENT_3D('',#1423,#1127,#1128);
#1014=AXIS2_PLACEMENT_3D('',#1428,#1130,#1131);
#1015=AXIS2_PLACEMENT_3D('',#1432,#1133,#1134);
#1016=AXIS2_PLACEMENT_3D('',#1435,#1136,#1137);
#1017=AXIS2_PLACEMENT_3D('',#1441,#1141,#1142);
#1018=AXIS2_PLACEMENT_3D('',#1442,#1143,#1144);
#1019=AXIS2_PLACEMENT_3D('',#1447,#1146,#1147);
#1020=AXIS2_PLACEMENT_3D('',#1451,#1149,#1150);
#1021=AXIS2_PLACEMENT_3D('',#1452,#1151,#1152);
#1022=AXIS2_PLACEMENT_3D('',#1453,#1153,#1154);
#1023=AXIS2_PLACEMENT_3D('',#1457,#1156,#1157);
#1024=AXIS2_PLACEMENT_3D('',#1463,#1160,#1161);
#1025=AXIS2_PLACEMENT_3D('',#1466,#1163,#1164);
#1026=AXIS2_PLACEMENT_3D('',#1474,#1168,#1169);
#1027=AXIS2_PLACEMENT_3D('',#1477,#1171,#1172);
#1028=AXIS2_PLACEMENT_3D('',#1487,#1177,#1178);
#1029=AXIS2_PLACEMENT_3D('',#1491,#1180,#1181);
#1030=AXIS2_PLACEMENT_3D('',#1492,#1182,#1183);
#1031=AXIS2_PLACEMENT_3D('',#1500,#1187,#1188);
#1032=AXIS2_PLACEMENT_3D('',#1504,#1190,#1191);
#1033=AXIS2_PLACEMENT_3D('',#1507,#1193,#1194);
#1034=AXIS2_PLACEMENT_3D('',#1513,#1197,#1198);
#1035=AXIS2_PLACEMENT_3D('',#1518,#1201,#1202);
#1036=AXIS2_PLACEMENT_3D('',#1522,#1204,#1205);
#1037=AXIS2_PLACEMENT_3D('',#1528,#1208,#1209);
#1038=AXIS2_PLACEMENT_3D('',#1531,#1211,#1212);
#1039=AXIS2_PLACEMENT_3D('',#1534,#1215,#1216);
#1040=AXIS2_PLACEMENT_3D('',#1538,#1218,#1219);
#1041=AXIS2_PLACEMENT_3D('',#1540,#1221,#1222);
#1042=AXIS2_PLACEMENT_3D('',#1550,#1227,#1228);
#1043=AXIS2_PLACEMENT_3D('',#1554,#1230,#1231);
#1044=AXIS2_PLACEMENT_3D('',#1555,#1232,#1233);
#1045=AXIS2_PLACEMENT_3D('',#1556,#1234,#1235);
#1046=AXIS2_PLACEMENT_3D('',#1560,#1239,#1240);
#1047=AXIS2_PLACEMENT_3D('',#1561,#1241,#1242);
#1048=AXIS2_PLACEMENT_3D('',#1562,#1243,#1244);
#1049=AXIS2_PLACEMENT_3D('',#1566,#1246,#1247);
#1050=AXIS2_PLACEMENT_3D('',#1573,#1251,#1252);
#1051=AXIS2_PLACEMENT_3D('',#1574,#1253,#1254);
#1052=AXIS2_PLACEMENT_3D('',#1575,#1255,#1256);
#1053=AXIS2_PLACEMENT_3D('',#1584,#1261,#1262);
#1054=AXIS2_PLACEMENT_3D('',#1585,#1263,#1264);
#1055=AXIS2_PLACEMENT_3D('',#1587,#1265,#1266);
#1056=AXIS2_PLACEMENT_3D('',#1591,#1268,#1269);
#1057=AXIS2_PLACEMENT_3D('',#1592,#1270,#1271);
#1058=AXIS2_PLACEMENT_3D('',#1593,#1272,#1273);
#1059=AXIS2_PLACEMENT_3D('',#1594,#1274,#1275);
#1060=AXIS2_PLACEMENT_3D('',#1600,#1278,#1279);
#1061=AXIS2_PLACEMENT_3D('',#1601,#1280,#1281);
#1062=AXIS2_PLACEMENT_3D('',#1608,#1285,#1286);
#1063=AXIS2_PLACEMENT_3D('',#1609,#1287,#1288);
#1064=AXIS2_PLACEMENT_3D('',#1614,#1291,#1292);
#1065=AXIS2_PLACEMENT_3D('',#1617,#1294,#1295);
#1066=AXIS2_PLACEMENT_3D('',#1618,#1296,#1297);
#1067=AXIS2_PLACEMENT_3D('',#1624,#1300,#1301);
#1068=AXIS2_PLACEMENT_3D('',#1625,#1302,#1303);
#1069=AXIS2_PLACEMENT_3D('',#1626,#1304,#1305);
#1070=AXIS2_PLACEMENT_3D('',#1628,#1306,#1307);
#1071=AXIS2_PLACEMENT_3D('',#1630,#1308,#1309);
#1072=AXIS2_PLACEMENT_3D('',#1631,#1310,#1311);
#1073=AXIS2_PLACEMENT_3D('',#1634,#1313,#1314);
#1074=AXIS2_PLACEMENT_3D('',#1637,#1317,#1318);
#1075=AXIS2_PLACEMENT_3D('',#1639,#1320,#1321);
#1076=AXIS2_PLACEMENT_3D('',#1641,#1323,#1324);
#1077=AXIS2_PLACEMENT_3D('',#1642,#1325,#1326);
#1078=AXIS2_PLACEMENT_3D('',#1643,#1327,#1328);
#1079=AXIS2_PLACEMENT_3D('',#1645,#1330,#1331);
#1080=AXIS2_PLACEMENT_3D('',#1649,#1333,#1334);
#1081=AXIS2_PLACEMENT_3D('',#1650,#1335,#1336);
#1082=AXIS2_PLACEMENT_3D('',#1653,#1339,#1340);
#1083=AXIS2_PLACEMENT_3D('',#1654,#1341,#1342);
#1084=AXIS2_PLACEMENT_3D('',#1658,#1344,#1345);
#1085=AXIS2_PLACEMENT_3D('',#1660,#1347,#1348);
#1086=AXIS2_PLACEMENT_3D('',#1673,#1349,#1350);
#1087=AXIS2_PLACEMENT_3D('',#1674,#1351,#1352);
#1088=AXIS2_PLACEMENT_3D('',#1683,#1353,#1354);
#1089=AXIS2_PLACEMENT_3D('',#1692,#1355,#1356);
#1090=AXIS2_PLACEMENT_3D('',#1693,#1357,#1358);
#1091=AXIS2_PLACEMENT_3D('',#1694,#1359,#1360);
#1092=AXIS2_PLACEMENT_3D('',#1695,#1361,#1362);
#1093=AXIS2_PLACEMENT_3D('',#1696,#1363,#1364);
#1094=AXIS2_PLACEMENT_3D('',#1697,#1365,#1366);
#1095=AXIS2_PLACEMENT_3D('',#1702,#1367,#1368);
#1096=AXIS2_PLACEMENT_3D('',#1707,#1369,#1370);
#1097=AXIS2_PLACEMENT_3D('',#1708,#1371,#1372);
#1098=AXIS2_PLACEMENT_3D('',#1709,#1373,#1374);
#1099=AXIS2_PLACEMENT_3D('',#1711,#1375,#1376);
#1100=AXIS2_PLACEMENT_3D('',#1713,#1377,#1378);
#1101=AXIS2_PLACEMENT_3D('',#1714,#1379,#1380);
#1102=AXIS2_PLACEMENT_3D('',#1716,#1381,#1382);
#1103=AXIS2_PLACEMENT_3D('',#1718,#1383,#1384);
#1104=AXIS2_PLACEMENT_3D('',#1719,#1385,#1386);
#1105=AXIS2_PLACEMENT_3D('',#1721,#1387,#1388);
#1106=AXIS2_PLACEMENT_3D('',#1723,#1389,#1390);
#1107=AXIS2_PLACEMENT_3D('',#1724,#1391,#1392);
#1108=AXIS2_PLACEMENT_3D('',#1726,#1393,#1394);
#1109=AXIS2_PLACEMENT_3D('',#1728,#1395,#1396);
#1110=AXIS2_PLACEMENT_3D('',#1729,#1397,#1398);
#1111=AXIS2_PLACEMENT_3D('',#1730,#1399,#1400);
#1112=AXIS2_PLACEMENT_3D('',#1731,#1401,#1402);
#1113=AXIS2_PLACEMENT_3D('',#1732,#1403,#1404);
#1114=AXIS2_PLACEMENT_3D('',#1733,#1405,#1406);
#1115=AXIS2_PLACEMENT_3D('',#1734,#1407,#1408);
#1116=AXIS2_PLACEMENT_3D('',#1735,#1409,#1410);
#1117=AXIS2_PLACEMENT_3D('',#1736,#1411,#1412);
#1118=AXIS2_PLACEMENT_3D('',#1737,#1413,#1414);
#1119=AXIS2_PLACEMENT_3D('',#1738,#1415,#1416);
#1120=AXIS2_PLACEMENT_3D('',#1739,#1417,#1418);
#1121=DIRECTION('',(0.,0.,1.));
#1122=DIRECTION('',(1.,0.,0.));
#1123=DIRECTION('',(-1.7347234759768E-16,-1.,0.));
#1124=DIRECTION('',(1.,-1.7347234759768E-16,0.));
#1125=DIRECTION('',(-1.7347234759768E-16,-1.,0.));
#1126=DIRECTION('',(1.,-1.7347234759768E-16,0.));
#1127=DIRECTION('',(-1.7347234759768E-16,-1.,0.));
#1128=DIRECTION('',(1.,-1.7347234759768E-16,0.));
#1129=DIRECTION('',(-1.,1.7347234759768E-16,0.));
#1130=DIRECTION('',(-1.7347234759768E-16,-1.,0.));
#1131=DIRECTION('',(1.,-1.7347234759768E-16,0.));
#1132=DIRECTION('',(0.,0.,-1.));
#1133=DIRECTION('',(-1.7347234759768E-16,-1.,0.));
#1134=DIRECTION('',(1.,-1.7347234759768E-16,0.));
#1135=DIRECTION('',(-1.,1.7347234759768E-16,0.));
#1136=DIRECTION('',(-1.,0.,0.));
#1137=DIRECTION('',(0.,0.,1.));
#1138=DIRECTION('',(0.,1.,0.));
#1139=DIRECTION('',(0.,0.,-1.));
#1140=DIRECTION('',(0.,1.,0.));
#1141=DIRECTION('',(0.,-1.,0.));
#1142=DIRECTION('',(0.,0.,-1.));
#1143=DIRECTION('',(0.,-1.,0.));
#1144=DIRECTION('',(0.,0.,-1.));
#1145=DIRECTION('',(-1.,0.,0.));
#1146=DIRECTION('',(0.,-1.,0.));
#1147=DIRECTION('',(0.,0.,-1.));
#1148=DIRECTION('',(-1.,0.,0.));
#1149=DIRECTION('',(0.,-1.,0.));
#1150=DIRECTION('',(0.,0.,-1.));
#1151=DIRECTION('',(0.,-1.,0.));
#1152=DIRECTION('',(0.,0.,-1.));
#1153=DIRECTION('',(0.,-1.,0.));
#1154=DIRECTION('',(0.,0.,-1.));
#1155=DIRECTION('',(0.,0.,-1.));
#1156=DIRECTION('',(0.,-1.,0.));
#1157=DIRECTION('',(0.,0.,-1.));
#1158=DIRECTION('',(0.,0.,-1.));
#1159=DIRECTION('',(-1.,0.,0.));
#1160=DIRECTION('',(0.,-1.,0.));
#1161=DIRECTION('',(0.,0.,-1.));
#1162=DIRECTION('',(-1.,0.,0.));
#1163=DIRECTION('',(0.351123441588392,-0.936329177569044,0.));
#1164=DIRECTION('',(0.936329177569044,0.351123441588392,0.));
#1165=DIRECTION('',(-0.936329177569044,-0.351123441588392,0.));
#1166=DIRECTION('',(0.,0.,-1.));
#1167=DIRECTION('',(0.920330918458474,0.345124094421928,-0.184066183691695));
#1168=DIRECTION('',(0.351123441588392,-0.936329177569044,0.));
#1169=DIRECTION('',(-0.936329177569044,-0.351123441588392,0.));
#1170=DIRECTION('',(0.,0.,-1.));
#1171=DIRECTION('',(0.,-1.,0.));
#1172=DIRECTION('',(0.,0.,-1.));
#1173=DIRECTION('',(-1.,0.,0.));
#1174=DIRECTION('',(0.,0.,-1.));
#1175=DIRECTION('',(-1.,0.,0.));
#1176=DIRECTION('',(0.,0.,-1.));
#1177=DIRECTION('',(0.,-1.,0.));
#1178=DIRECTION('',(0.,0.,-1.));
#1179=DIRECTION('',(-0.98058067569092,0.,-0.196116135138184));
#1180=DIRECTION('',(0.,-1.,0.));
#1181=DIRECTION('',(0.,0.,-1.));
#1182=DIRECTION('',(0.,-1.,0.));
#1183=DIRECTION('',(0.,0.,-1.));
#1184=DIRECTION('',(-1.,0.,0.));
#1185=DIRECTION('',(0.,0.,-1.));
#1186=DIRECTION('',(-1.,0.,0.));
#1187=DIRECTION('',(0.,-1.,0.));
#1188=DIRECTION('',(0.,0.,-1.));
#1189=DIRECTION('',(0.98058067569092,0.,0.196116135138184));
#1190=DIRECTION('',(0.,-1.,0.));
#1191=DIRECTION('',(0.,0.,-1.));
#1192=DIRECTION('',(0.,0.,-1.));
#1193=DIRECTION('',(-0.351123441588391,-0.936329177569045,0.));
#1194=DIRECTION('',(0.936329177569045,-0.351123441588391,0.));
#1195=DIRECTION('',(-0.936329177569045,0.351123441588391,0.));
#1196=DIRECTION('',(0.,0.,-1.));
#1197=DIRECTION('',(-0.351123441588391,-0.936329177569045,0.));
#1198=DIRECTION('',(0.936329177569045,-0.351123441588391,0.));
#1199=DIRECTION('',(-0.920330918458475,0.345124094421927,0.184066183691695));
#1200=DIRECTION('',(0.,0.,-1.));
#1201=DIRECTION('',(0.,-1.,0.));
#1202=DIRECTION('',(0.,0.,-1.));
#1203=DIRECTION('',(0.,0.,-1.));
#1204=DIRECTION('',(0.,-1.,0.));
#1205=DIRECTION('',(0.,0.,-1.));
#1206=DIRECTION('',(0.,0.,-1.));
#1207=DIRECTION('',(-1.,0.,0.));
#1208=DIRECTION('',(0.,-1.,0.));
#1209=DIRECTION('',(0.,0.,-1.));
#1210=DIRECTION('',(-1.,0.,0.));
#1211=DIRECTION('',(0.,0.,1.));
#1212=DIRECTION('',(1.,0.,0.));
#1213=DIRECTION('',(0.,1.,0.));
#1214=DIRECTION('',(0.,-1.,0.));
#1215=DIRECTION('',(0.,0.,1.));
#1216=DIRECTION('',(1.,0.,0.));
#1217=DIRECTION('',(0.,-1.,0.));
#1218=DIRECTION('',(0.,0.,1.));
#1219=DIRECTION('',(1.,0.,0.));
#1220=DIRECTION('',(0.,-1.,0.));
#1221=DIRECTION('',(0.,0.,1.));
#1222=DIRECTION('',(1.,0.,0.));
#1223=DIRECTION('',(0.,-1.,0.));
#1224=DIRECTION('',(-1.,-1.73472347597681E-16,0.));
#1225=DIRECTION('',(0.,-1.,0.));
#1226=DIRECTION('',(-1.,0.,0.));
#1227=DIRECTION('',(0.,0.,1.));
#1228=DIRECTION('',(1.,0.,0.));
#1229=DIRECTION('',(0.81923192051904,-0.573462344363329,0.));
#1230=DIRECTION('',(0.,0.,1.));
#1231=DIRECTION('',(1.,0.,0.));
#1232=DIRECTION('',(0.,0.,1.));
#1233=DIRECTION('',(1.,0.,0.));
#1234=DIRECTION('',(0.,0.,1.));
#1235=DIRECTION('',(1.,0.,0.));
#1236=DIRECTION('',(0.,-1.,0.));
#1237=DIRECTION('',(0.,1.,0.));
#1238=DIRECTION('',(0.,-1.,0.));
#1239=DIRECTION('',(0.,0.,1.));
#1240=DIRECTION('',(1.,0.,0.));
#1241=DIRECTION('',(0.,0.,1.));
#1242=DIRECTION('',(1.,0.,0.));
#1243=DIRECTION('',(0.,0.,1.));
#1244=DIRECTION('',(1.,0.,0.));
#1245=DIRECTION('',(0.81923192051904,0.573462344363328,0.));
#1246=DIRECTION('',(0.,0.,1.));
#1247=DIRECTION('',(1.,0.,0.));
#1248=DIRECTION('',(-1.,0.,0.));
#1249=DIRECTION('',(0.,-1.,0.));
#1250=DIRECTION('',(-1.,0.,0.));
#1251=DIRECTION('',(0.,1.,0.));
#1252=DIRECTION('',(0.,0.,1.));
#1253=DIRECTION('',(0.,1.,0.));
#1254=DIRECTION('',(0.,0.,1.));
#1255=DIRECTION('',(1.,0.,0.));
#1256=DIRECTION('',(0.,0.,-1.));
#1257=DIRECTION('',(0.,0.,-1.));
#1258=DIRECTION('',(0.,-1.,0.));
#1259=DIRECTION('',(0.,0.,-1.));
#1260=DIRECTION('',(0.,-1.,0.));
#1261=DIRECTION('',(0.,-1.,0.));
#1262=DIRECTION('',(0.,0.,-1.));
#1263=DIRECTION('',(0.,-1.,0.));
#1264=DIRECTION('',(0.,0.,-1.));
#1265=DIRECTION('',(0.,-1.,0.));
#1266=DIRECTION('',(0.,0.,-1.));
#1267=DIRECTION('',(-1.,0.,0.));
#1268=DIRECTION('',(0.,-1.,0.));
#1269=DIRECTION('',(0.,0.,-1.));
#1270=DIRECTION('',(0.,-1.,0.));
#1271=DIRECTION('',(0.,0.,-1.));
#1272=DIRECTION('',(0.,-1.,0.));
#1273=DIRECTION('',(0.,0.,-1.));
#1274=DIRECTION('',(0.,-1.,0.));
#1275=DIRECTION('',(0.,0.,-1.));
#1276=DIRECTION('',(0.,0.,-1.));
#1277=DIRECTION('',(-1.,0.,0.));
#1278=DIRECTION('',(0.,-1.,0.));
#1279=DIRECTION('',(0.,0.,-1.));
#1280=DIRECTION('',(-0.573462344363328,0.819231920519041,0.));
#1281=DIRECTION('',(-0.819231920519041,-0.573462344363328,0.));
#1282=DIRECTION('',(0.81923192051904,0.573462344363328,0.));
#1283=DIRECTION('',(0.,0.,-1.));
#1284=DIRECTION('',(0.,0.,-1.));
#1285=DIRECTION('',(-0.573462344363328,0.819231920519041,0.));
#1286=DIRECTION('',(-0.819231920519041,-0.573462344363328,0.));
#1287=DIRECTION('',(0.573462344363329,0.81923192051904,0.));
#1288=DIRECTION('',(-0.81923192051904,0.573462344363329,0.));
#1289=DIRECTION('',(0.,0.,-1.));
#1290=DIRECTION('',(0.81923192051904,-0.573462344363329,0.));
#1291=DIRECTION('',(0.573462344363329,0.81923192051904,0.));
#1292=DIRECTION('',(0.81923192051904,-0.573462344363329,0.));
#1293=DIRECTION('',(0.,0.,-1.));
#1294=DIRECTION('',(0.,-1.,0.));
#1295=DIRECTION('',(0.,0.,-1.));
#1296=DIRECTION('',(0.,-1.,0.));
#1297=DIRECTION('',(0.,0.,-1.));
#1298=DIRECTION('',(-1.,0.,0.));
#1299=DIRECTION('',(0.,0.,-1.));
#1300=DIRECTION('',(0.,-1.,0.));
#1301=DIRECTION('',(0.,0.,-1.));
#1302=DIRECTION('',(1.73472347597681E-16,-1.,0.));
#1303=DIRECTION('',(1.,1.73472347597681E-16,0.));
#1304=DIRECTION('',(1.73472347597681E-16,-1.,0.));
#1305=DIRECTION('',(1.,1.73472347597681E-16,0.));
#1306=DIRECTION('',(1.73472347597681E-16,-1.,0.));
#1307=DIRECTION('',(1.,1.73472347597681E-16,0.));
#1308=DIRECTION('',(1.73472347597681E-16,-1.,0.));
#1309=DIRECTION('',(1.,1.73472347597681E-16,0.));
#1310=DIRECTION('',(1.73472347597681E-16,-1.,0.));
#1311=DIRECTION('',(1.,1.73472347597681E-16,0.));
#1312=DIRECTION('',(-1.,-1.73472347597681E-16,0.));
#1313=DIRECTION('',(0.,0.,1.));
#1314=DIRECTION('',(1.,0.,0.));
#1315=DIRECTION('',(0.,-1.,0.));
#1316=DIRECTION('',(0.,-1.,0.));
#1317=DIRECTION('',(0.,0.,1.));
#1318=DIRECTION('',(1.,0.,0.));
#1319=DIRECTION('',(0.,-1.,0.));
#1320=DIRECTION('',(0.,0.,1.));
#1321=DIRECTION('',(1.,0.,0.));
#1322=DIRECTION('',(0.,-1.,0.));
#1323=DIRECTION('',(0.,-1.,0.));
#1324=DIRECTION('',(0.,0.,-1.));
#1325=DIRECTION('',(0.,-1.,0.));
#1326=DIRECTION('',(0.,0.,-1.));
#1327=DIRECTION('',(0.,0.,1.));
#1328=DIRECTION('',(1.,0.,0.));
#1329=DIRECTION('',(0.,1.,0.));
#1330=DIRECTION('',(0.,0.,1.));
#1331=DIRECTION('',(1.,0.,0.));
#1332=DIRECTION('',(0.,1.,0.));
#1333=DIRECTION('',(0.,0.,1.));
#1334=DIRECTION('',(1.,0.,0.));
#1335=DIRECTION('',(-0.196116135138184,0.,0.98058067569092));
#1336=DIRECTION('',(0.,1.,0.));
#1337=DIRECTION('',(0.,-1.,0.));
#1338=DIRECTION('',(0.,1.,0.));
#1339=DIRECTION('',(-0.196116135138184,0.,-0.98058067569092));
#1340=DIRECTION('',(0.,-1.,0.));
#1341=DIRECTION('',(-0.196116135138184,0.,-0.98058067569092));
#1342=DIRECTION('',(-0.98058067569092,0.,0.196116135138184));
#1343=DIRECTION('',(0.,-1.,0.));
#1344=DIRECTION('',(-0.196116135138184,0.,-0.98058067569092));
#1345=DIRECTION('',(-0.98058067569092,0.,0.196116135138184));
#1346=DIRECTION('',(0.,1.,0.));
#1347=DIRECTION('',(0.,-1.,0.));
#1348=DIRECTION('',(0.,0.,-1.));
#1349=DIRECTION('',(0.,-1.,0.));
#1350=DIRECTION('',(0.,0.,-1.));
#1351=DIRECTION('',(0.,-1.,0.));
#1352=DIRECTION('',(0.,0.,-1.));
#1353=DIRECTION('',(0.,-1.,0.));
#1354=DIRECTION('',(0.,0.,-1.));
#1355=DIRECTION('',(0.,0.,1.));
#1356=DIRECTION('',(1.,0.,0.));
#1357=DIRECTION('',(0.,0.,1.));
#1358=DIRECTION('',(1.,0.,0.));
#1359=DIRECTION('',(0.,0.,-1.));
#1360=DIRECTION('',(-1.,0.,0.));
#1361=DIRECTION('',(0.,0.,-1.));
#1362=DIRECTION('',(-1.,0.,0.));
#1363=DIRECTION('',(0.,0.,1.));
#1364=DIRECTION('',(1.,0.,0.));
#1365=DIRECTION('',(0.,0.,-1.));
#1366=DIRECTION('',(-1.,0.,0.));
#1367=DIRECTION('',(0.,0.,-1.));
#1368=DIRECTION('',(-1.,0.,0.));
#1369=DIRECTION('',(0.,0.,1.));
#1370=DIRECTION('',(1.,0.,0.));
#1371=DIRECTION('',(0.,1.,0.));
#1372=DIRECTION('',(0.,0.,1.));
#1373=DIRECTION('',(0.,-1.,0.));
#1374=DIRECTION('',(0.,0.,-1.));
#1375=DIRECTION('',(0.,-1.,0.));
#1376=DIRECTION('',(0.,0.,-1.));
#1377=DIRECTION('',(0.,1.,0.));
#1378=DIRECTION('',(0.,0.,1.));
#1379=DIRECTION('',(0.,-1.,0.));
#1380=DIRECTION('',(0.,0.,-1.));
#1381=DIRECTION('',(0.,-1.,0.));
#1382=DIRECTION('',(0.,0.,-1.));
#1383=DIRECTION('',(0.,1.,0.));
#1384=DIRECTION('',(0.,0.,1.));
#1385=DIRECTION('',(0.,-1.,0.));
#1386=DIRECTION('',(0.,0.,-1.));
#1387=DIRECTION('',(0.,-1.,0.));
#1388=DIRECTION('',(0.,0.,-1.));
#1389=DIRECTION('',(0.,1.,0.));
#1390=DIRECTION('',(0.,0.,1.));
#1391=DIRECTION('',(0.,-1.,0.));
#1392=DIRECTION('',(0.,0.,-1.));
#1393=DIRECTION('',(0.,-1.,0.));
#1394=DIRECTION('',(0.,0.,-1.));
#1395=DIRECTION('',(0.,1.,0.));
#1396=DIRECTION('',(0.,0.,1.));
#1397=DIRECTION('',(0.,-1.,0.));
#1398=DIRECTION('',(0.,0.,-1.));
#1399=DIRECTION('',(0.,1.,0.));
#1400=DIRECTION('',(0.,0.,1.));
#1401=DIRECTION('',(0.,-1.,0.));
#1402=DIRECTION('',(0.,0.,-1.));
#1403=DIRECTION('',(0.,1.,0.));
#1404=DIRECTION('',(0.,0.,1.));
#1405=DIRECTION('',(0.,-1.,0.));
#1406=DIRECTION('',(0.,0.,-1.));
#1407=DIRECTION('',(0.,-1.,0.));
#1408=DIRECTION('',(0.,0.,-1.));
#1409=DIRECTION('',(0.,1.,0.));
#1410=DIRECTION('',(0.,0.,1.));
#1411=DIRECTION('',(0.,-1.,0.));
#1412=DIRECTION('',(0.,0.,-1.));
#1413=DIRECTION('',(0.,1.,0.));
#1414=DIRECTION('',(0.,0.,1.));
#1415=DIRECTION('',(0.,-1.,0.));
#1416=DIRECTION('',(0.,0.,-1.));
#1417=DIRECTION('',(0.,1.,0.));
#1418=DIRECTION('',(0.,0.,1.));
#1419=CARTESIAN_POINT('',(0.,0.,0.));
#1420=CARTESIAN_POINT('',(-0.0495,0.0076,0.01));
#1421=CARTESIAN_POINT('',(-0.047,0.0076,0.005));
#1422=CARTESIAN_POINT('',(-0.0444,0.0076,0.005));
#1423=CARTESIAN_POINT('',(-0.047,0.0076,0.005));
#1424=CARTESIAN_POINT('',(-0.047,0.0076,0.01));
#1425=CARTESIAN_POINT('',(-0.047,0.0076,0.));
#1426=CARTESIAN_POINT('',(-0.0495,0.0076,0.));
#1427=CARTESIAN_POINT('',(-0.0365,0.0076,0.));
#1428=CARTESIAN_POINT('',(-0.0365,0.0076,0.0025));
#1429=CARTESIAN_POINT('',(-0.039,0.0076,0.0025));
#1430=CARTESIAN_POINT('',(-0.039,0.0076,0.01));
#1431=CARTESIAN_POINT('',(-0.039,0.0076,0.0075));
#1432=CARTESIAN_POINT('',(-0.0365,0.0076,0.0075));
#1433=CARTESIAN_POINT('',(-0.0365,0.0076,0.01));
#1434=CARTESIAN_POINT('',(-0.0495,0.0076,0.01));
#1435=CARTESIAN_POINT('',(-0.039,0.00305,0.01));
#1436=CARTESIAN_POINT('',(-0.039,-0.0076,0.0025));
#1437=CARTESIAN_POINT('',(-0.039,-0.0076,0.0025));
#1438=CARTESIAN_POINT('',(-0.039,-0.0076,0.01));
#1439=CARTESIAN_POINT('',(-0.039,-0.0076,0.0075));
#1440=CARTESIAN_POINT('',(-0.039,0.00305,0.0075));
#1441=CARTESIAN_POINT('',(-0.0495,-0.0076,0.01));
#1442=CARTESIAN_POINT('',(-0.047,-0.0076,0.005));
#1443=CARTESIAN_POINT('',(-0.047,-0.0076,0.0024));
#1444=CARTESIAN_POINT('',(-0.0495,-0.0076,0.));
#1445=CARTESIAN_POINT('',(-0.0365,-0.0076,0.));
#1446=CARTESIAN_POINT('',(-0.047,-0.0076,0.));
#1447=CARTESIAN_POINT('',(-0.047,-0.0076,0.005));
#1448=CARTESIAN_POINT('',(-0.047,-0.0076,0.01));
#1449=CARTESIAN_POINT('',(-0.0495,-0.0076,0.01));
#1450=CARTESIAN_POINT('',(-0.0365,-0.0076,0.01));
#1451=CARTESIAN_POINT('',(-0.0365,-0.0076,0.0075));
#1452=CARTESIAN_POINT('',(-0.0365,-0.0076,0.0025));
#1453=CARTESIAN_POINT('',(-0.0495,-0.0136,0.01));
#1454=CARTESIAN_POINT('',(-0.0444400374531753,-0.0136,0.01));
#1455=CARTESIAN_POINT('',(-0.0444400374531753,-0.0136,0.));
#1456=CARTESIAN_POINT('',(-0.0444400374531753,-0.0136,0.00454547633850938));
#1457=CARTESIAN_POINT('',(-0.047,-0.0136,0.005));
#1458=CARTESIAN_POINT('',(-0.0444400374531753,-0.0136,0.00545452366149062));
#1459=CARTESIAN_POINT('',(-0.0444400374531753,-0.0136,0.01));
#1460=CARTESIAN_POINT('',(-0.0444400374531753,-0.0136,0.01));
#1461=CARTESIAN_POINT('',(-0.0495,-0.0136,0.01));
#1462=CARTESIAN_POINT('',(-0.047,-0.0136,0.01));
#1463=CARTESIAN_POINT('',(-0.047,-0.0136,0.005));
#1464=CARTESIAN_POINT('',(-0.047,-0.0136,0.));
#1465=CARTESIAN_POINT('',(-0.0495,-0.0136,0.));
#1466=CARTESIAN_POINT('',(-0.029,-0.00985,0.01));
#1467=CARTESIAN_POINT('',(-0.029,-0.00985,0.));
#1468=CARTESIAN_POINT('',(-0.0240936657944765,-0.00801012467292868,0.));
#1469=CARTESIAN_POINT('',(-0.0339063342055235,-0.0116898753270713,0.));
#1470=CARTESIAN_POINT('',(-0.0240936657944765,-0.00801012467292868,0.00824572541158277));
#1471=CARTESIAN_POINT('',(-0.0240936657944765,-0.00801012467292868,0.0090187331588953));
#1472=CARTESIAN_POINT('',(-0.029,-0.00985,0.01));
#1473=CARTESIAN_POINT('',(-0.02414516892273,-0.00802943834602376,0.009029033784546));
#1474=CARTESIAN_POINT('',(-0.0339509756796392,-0.0117066158798647,-0.04));
#1475=CARTESIAN_POINT('',(-0.0339063342055235,-0.0116898753270713,0.00999998007138392));
#1476=CARTESIAN_POINT('',(-0.0339063342055235,-0.0116898753270713,0.01));
#1477=CARTESIAN_POINT('',(-0.014,-0.0061,0.01));
#1478=CARTESIAN_POINT('',(-0.029,-0.0061,0.008));
#1479=CARTESIAN_POINT('',(0.0140490243203608,-0.0061,0.008));
#1480=CARTESIAN_POINT('',(-0.0135599625468247,-0.0061,0.008));
#1481=CARTESIAN_POINT('',(-0.0135599625468247,-0.0061,0.));
#1482=CARTESIAN_POINT('',(-0.0135599625468247,-0.0061,0.));
#1483=CARTESIAN_POINT('',(-0.014,-0.0061,0.));
#1484=CARTESIAN_POINT('',(0.0242716665377135,-0.0061,0.));
#1485=CARTESIAN_POINT('',(0.0242716665377135,-0.0061,0.01));
#1486=CARTESIAN_POINT('',(0.0242716665377135,-0.0061,0.00905416368194482));
#1487=CARTESIAN_POINT('',(0.0339509756796392,-0.0061,-0.04));
#1488=CARTESIAN_POINT('',(0.02414516892273,-0.0061,0.009029033784546));
#1489=CARTESIAN_POINT('',(-0.0123461538461539,-0.0061,0.00173076923076922));
#1490=CARTESIAN_POINT('',(0.02385483107727,-0.0061,0.008970966215454));
#1491=CARTESIAN_POINT('',(0.0140490243203608,-0.0061,0.058));
#1492=CARTESIAN_POINT('',(-0.014,0.0061,0.01));
#1493=CARTESIAN_POINT('',(-0.014,0.0061,0.));
#1494=CARTESIAN_POINT('',(0.0242716665377136,0.0061,0.));
#1495=CARTESIAN_POINT('',(-0.0135599625468247,0.0061,0.));
#1496=CARTESIAN_POINT('',(-0.0135599625468247,0.0061,0.00824572541158277));
#1497=CARTESIAN_POINT('',(-0.0135599625468247,0.0061,0.008));
#1498=CARTESIAN_POINT('',(-0.014,0.0061,0.008));
#1499=CARTESIAN_POINT('',(0.0140490243203608,0.0061,0.008));
#1500=CARTESIAN_POINT('',(0.0140490243203608,0.0061,0.058));
#1501=CARTESIAN_POINT('',(0.02385483107727,0.0061,0.008970966215454));
#1502=CARTESIAN_POINT('',(0.029,0.0061,0.01));
#1503=CARTESIAN_POINT('',(0.02414516892273,0.0061,0.009029033784546));
#1504=CARTESIAN_POINT('',(0.0339509756796392,0.0061,-0.04));
#1505=CARTESIAN_POINT('',(0.0242716665377136,0.0061,0.00905416368194482));
#1506=CARTESIAN_POINT('',(0.0242716665377136,0.0061,0.01));
#1507=CARTESIAN_POINT('',(-0.029,0.00985,0.01));
#1508=CARTESIAN_POINT('',(-0.029,0.00985,0.));
#1509=CARTESIAN_POINT('',(-0.0240936657944765,0.00801012467292867,0.));
#1510=CARTESIAN_POINT('',(-0.0339063342055235,0.0116898753270713,0.));
#1511=CARTESIAN_POINT('',(-0.0339063342055235,0.0116898753270713,0.01));
#1512=CARTESIAN_POINT('',(-0.0339063342055235,0.0116898753270713,0.00999998007138393));
#1513=CARTESIAN_POINT('',(-0.0339509756796392,0.0117066158798647,-0.04));
#1514=CARTESIAN_POINT('',(-0.02414516892273,0.00802943834602375,0.009029033784546));
#1515=CARTESIAN_POINT('',(-0.00825357331921651,0.0020700899947062,0.0058507146638433));
#1516=CARTESIAN_POINT('',(-0.0240936657944765,0.00801012467292867,0.00901873315889529));
#1517=CARTESIAN_POINT('',(-0.0240936657944765,0.00801012467292867,3.46944695195361E-18));
#1518=CARTESIAN_POINT('',(-0.0495,0.0136,0.01));
#1519=CARTESIAN_POINT('',(-0.0444400374531753,0.0136,0.01));
#1520=CARTESIAN_POINT('',(-0.0444400374531753,0.0136,0.01));
#1521=CARTESIAN_POINT('',(-0.0444400374531753,0.0136,0.00545452366149055));
#1522=CARTESIAN_POINT('',(-0.047,0.0136,0.005));
#1523=CARTESIAN_POINT('',(-0.0444400374531753,0.0136,0.00454547633850945));
#1524=CARTESIAN_POINT('',(-0.0444400374531753,0.0136,0.01));
#1525=CARTESIAN_POINT('',(-0.0444400374531753,0.0136,0.));
#1526=CARTESIAN_POINT('',(-0.0495,0.0136,0.));
#1527=CARTESIAN_POINT('',(-0.047,0.0136,0.));
#1528=CARTESIAN_POINT('',(-0.047,0.0136,0.005));
#1529=CARTESIAN_POINT('',(-0.047,0.0136,0.01));
#1530=CARTESIAN_POINT('',(-0.0495,0.0136,0.01));
#1531=CARTESIAN_POINT('',(0.,-1.04083408558608E-17,0.01));
#1532=CARTESIAN_POINT('',(-0.0365,-1.04083408558608E-17,0.01));
#1533=CARTESIAN_POINT('',(-0.047,-0.0136,0.01));
#1534=CARTESIAN_POINT('',(-0.0444400374531753,0.0164,0.01));
#1535=CARTESIAN_POINT('',(-0.0339509756796392,-0.0117065754426067,0.01));
#1536=CARTESIAN_POINT('',(-0.0339509756796392,-1.04083408558608E-17,0.01));
#1537=CARTESIAN_POINT('',(-0.0339509756796392,0.0117065754426067,0.01));
#1538=CARTESIAN_POINT('',(-0.0444400374531753,-0.0164,0.01));
#1539=CARTESIAN_POINT('',(-0.047,0.0076,0.01));
#1540=CARTESIAN_POINT('',(0.,-1.04083408558608E-17,0.));
#1541=CARTESIAN_POINT('',(0.0365,-0.0061,0.));
#1542=CARTESIAN_POINT('',(0.0365,0.0061,0.));
#1543=CARTESIAN_POINT('',(0.0365,-0.0061,0.));
#1544=CARTESIAN_POINT('',(0.0445,-0.0061,0.));
#1545=CARTESIAN_POINT('',(0.047,-0.0061,0.));
#1546=CARTESIAN_POINT('',(0.047,-0.0131,0.));
#1547=CARTESIAN_POINT('',(0.047,-0.0131,0.));
#1548=CARTESIAN_POINT('',(0.0445,-0.0131,0.));
#1549=CARTESIAN_POINT('',(0.0437283334622865,-0.0131,0.));
#1550=CARTESIAN_POINT('',(0.0437283334622865,0.0019,0.));
#1551=CARTESIAN_POINT('',(0.0351263982968366,-0.0103884788077856,0.));
#1552=CARTESIAN_POINT('',(0.034,-0.0096,0.));
#1553=CARTESIAN_POINT('',(0.0328736017031634,-0.00881152119221441,0.));
#1554=CARTESIAN_POINT('',(0.0242716665377135,-0.0211,0.));
#1555=CARTESIAN_POINT('',(-0.0135599625468247,-0.0361,0.));
#1556=CARTESIAN_POINT('',(-0.0444400374531753,0.0164,0.));
#1557=CARTESIAN_POINT('',(-0.047,-1.04083408558608E-17,0.));
#1558=CARTESIAN_POINT('',(-0.0365,0.0076,0.));
#1559=CARTESIAN_POINT('',(-0.047,-1.04083408558608E-17,0.));
#1560=CARTESIAN_POINT('',(-0.0444400374531753,-0.0164,0.));
#1561=CARTESIAN_POINT('',(-0.0135599625468247,0.0361,0.));
#1562=CARTESIAN_POINT('',(0.0242716665377136,0.0211,0.));
#1563=CARTESIAN_POINT('',(0.0328736017031634,0.00881152119221441,0.));
#1564=CARTESIAN_POINT('',(0.034,0.0096,0.));
#1565=CARTESIAN_POINT('',(0.0351263982968366,0.0103884788077856,0.));
#1566=CARTESIAN_POINT('',(0.0437283334622866,-0.0019,0.));
#1567=CARTESIAN_POINT('',(0.0437283334622866,0.0131,0.));
#1568=CARTESIAN_POINT('',(0.0445,0.0131,0.));
#1569=CARTESIAN_POINT('',(0.047,0.0131,0.));
#1570=CARTESIAN_POINT('',(0.047,0.0061,0.));
#1571=CARTESIAN_POINT('',(0.047,0.0061,0.));
#1572=CARTESIAN_POINT('',(0.0445,0.0061,0.));
#1573=CARTESIAN_POINT('',(-0.047,-1.04083408558608E-17,0.005));
#1574=CARTESIAN_POINT('',(-0.047,-1.04083408558608E-17,0.005));
#1575=CARTESIAN_POINT('',(0.039,-0.00305,0.01));
#1576=CARTESIAN_POINT('',(0.039,-0.0061,0.01));
#1577=CARTESIAN_POINT('',(0.039,-0.0061,0.0075));
#1578=CARTESIAN_POINT('',(0.039,-0.0061,0.0025));
#1579=CARTESIAN_POINT('',(0.039,0.0061,0.0025));
#1580=CARTESIAN_POINT('',(0.039,0.0061,0.0025));
#1581=CARTESIAN_POINT('',(0.039,0.0061,0.01));
#1582=CARTESIAN_POINT('',(0.039,0.0061,0.0075));
#1583=CARTESIAN_POINT('',(0.039,-0.00305,0.0075));
#1584=CARTESIAN_POINT('',(0.0445,0.0061,0.01));
#1585=CARTESIAN_POINT('',(0.047,0.0061,0.005));
#1586=CARTESIAN_POINT('',(0.047,0.0061,0.0024));
#1587=CARTESIAN_POINT('',(0.047,0.0061,0.005));
#1588=CARTESIAN_POINT('',(0.047,0.0061,0.01));
#1589=CARTESIAN_POINT('',(0.0445,0.0061,0.01));
#1590=CARTESIAN_POINT('',(0.0365,0.0061,0.01));
#1591=CARTESIAN_POINT('',(0.0365,0.0061,0.0075));
#1592=CARTESIAN_POINT('',(0.0365,0.0061,0.0025));
#1593=CARTESIAN_POINT('',(0.0445,0.0131,0.01));
#1594=CARTESIAN_POINT('',(0.047,0.0131,0.005));
#1595=CARTESIAN_POINT('',(0.047,0.0131,0.0024));
#1596=CARTESIAN_POINT('',(0.0437283334622866,0.0131,0.01));
#1597=CARTESIAN_POINT('',(0.0437283334622866,0.0131,0.01));
#1598=CARTESIAN_POINT('',(0.0445,0.0131,0.01));
#1599=CARTESIAN_POINT('',(0.047,0.0131,0.01));
#1600=CARTESIAN_POINT('',(0.047,0.0131,0.005));
#1601=CARTESIAN_POINT('',(0.034,0.0096,0.01));
#1602=CARTESIAN_POINT('',(0.034,0.0096,0.01));
#1603=CARTESIAN_POINT('',(0.0339509756796392,0.00956568297574744,0.01));
#1604=CARTESIAN_POINT('',(0.0351263982968366,0.0103884788077856,0.01));
#1605=CARTESIAN_POINT('',(0.0351263982968366,0.0103884788077856,0.));
#1606=CARTESIAN_POINT('',(0.0328736017031634,0.00881152119221441,0.01));
#1607=CARTESIAN_POINT('',(0.0328736017031634,0.00881152119221441,0.00998839130553027));
#1608=CARTESIAN_POINT('',(0.0339509756796392,0.00956568297574744,-0.04));
#1609=CARTESIAN_POINT('',(0.034,-0.0096,0.01));
#1610=CARTESIAN_POINT('',(0.0351263982968366,-0.0103884788077856,0.01));
#1611=CARTESIAN_POINT('',(0.0351263982968366,-0.0103884788077856,0.01));
#1612=CARTESIAN_POINT('',(0.034,-0.0096,0.01));
#1613=CARTESIAN_POINT('',(0.0339509756796392,-0.00956568297574744,0.01));
#1614=CARTESIAN_POINT('',(0.0339509756796392,-0.00956568297574745,-0.04));
#1615=CARTESIAN_POINT('',(0.0328736017031634,-0.00881152119221439,0.00998839130553027));
#1616=CARTESIAN_POINT('',(0.0328736017031634,-0.00881152119221441,0.01));
#1617=CARTESIAN_POINT('',(0.0445,-0.0131,0.01));
#1618=CARTESIAN_POINT('',(0.047,-0.0131,0.005));
#1619=CARTESIAN_POINT('',(0.047,-0.0131,0.0024));
#1620=CARTESIAN_POINT('',(0.0445,-0.0131,0.01));
#1621=CARTESIAN_POINT('',(0.047,-0.0131,0.01));
#1622=CARTESIAN_POINT('',(0.0437283334622865,-0.0131,0.01));
#1623=CARTESIAN_POINT('',(0.0437283334622865,-0.0131,0.));
#1624=CARTESIAN_POINT('',(0.047,-0.0131,0.005));
#1625=CARTESIAN_POINT('',(0.0445,-0.0061,0.01));
#1626=CARTESIAN_POINT('',(0.047,-0.0061,0.005));
#1627=CARTESIAN_POINT('',(0.0496,-0.0061,0.005));
#1628=CARTESIAN_POINT('',(0.047,-0.0061,0.005));
#1629=CARTESIAN_POINT('',(0.047,-0.0061,0.01));
#1630=CARTESIAN_POINT('',(0.0365,-0.0061,0.0025));
#1631=CARTESIAN_POINT('',(0.0365,-0.0061,0.0075));
#1632=CARTESIAN_POINT('',(0.0365,-0.0061,0.01));
#1633=CARTESIAN_POINT('',(0.0445,-0.0061,0.01));
#1634=CARTESIAN_POINT('',(0.,-1.04083408558608E-17,0.01));
#1635=CARTESIAN_POINT('',(0.0365,-1.04083408558608E-17,0.01));
#1636=CARTESIAN_POINT('',(0.047,-1.04083408558608E-17,0.01));
#1637=CARTESIAN_POINT('',(0.0437283334622866,-0.0019,0.01));
#1638=CARTESIAN_POINT('',(0.0339509756796392,-1.04083408558608E-17,0.01));
#1639=CARTESIAN_POINT('',(0.0437283334622865,0.0019,0.01));
#1640=CARTESIAN_POINT('',(0.047,-1.04083408558608E-17,0.01));
#1641=CARTESIAN_POINT('',(0.047,-0.0096,0.005));
#1642=CARTESIAN_POINT('',(0.047,0.0096,0.005));
#1643=CARTESIAN_POINT('',(0.,-1.04083408558608E-17,0.008));
#1644=CARTESIAN_POINT('',(0.0140490243203608,0.0061,0.008));
#1645=CARTESIAN_POINT('',(-0.0135599625468247,0.0361,0.008));
#1646=CARTESIAN_POINT('',(-0.0140490243203608,0.00610398662185814,0.008));
#1647=CARTESIAN_POINT('',(-0.0140490243203608,-0.0061,0.008));
#1648=CARTESIAN_POINT('',(-0.0140490243203608,-0.00610398662185814,0.008));
#1649=CARTESIAN_POINT('',(-0.0135599625468247,-0.0361,0.008));
#1650=CARTESIAN_POINT('',(0.029,-1.04083408558608E-17,0.01));
#1651=CARTESIAN_POINT('',(0.02414516892273,-1.04083408558608E-17,0.009029033784546));
#1652=CARTESIAN_POINT('',(0.02385483107727,-0.0061,0.008970966215454));
#1653=CARTESIAN_POINT('',(-0.009,8.67361737988404E-19,0.006));
#1654=CARTESIAN_POINT('',(-0.0135599625468247,-0.0361,0.00691199250936495));
#1655=CARTESIAN_POINT('',(-0.02385483107727,-0.0079217161285353,0.008970966215454));
#1656=CARTESIAN_POINT('',(-0.02385483107727,0.0061,0.008970966215454));
#1657=CARTESIAN_POINT('',(-0.02385483107727,0.00792171612853532,0.008970966215454));
#1658=CARTESIAN_POINT('',(-0.0135599625468247,0.0361,0.00691199250936494));
#1659=CARTESIAN_POINT('',(-0.02414516892273,8.67361737988404E-19,0.00902903378454601));
#1660=CARTESIAN_POINT('',(0.0339509756796392,-1.04083408558608E-17,-0.04));
#1661=CARTESIAN_POINT('',(0.0242716665377135,-0.0061,0.00905416368194482));
#1662=CARTESIAN_POINT('',(0.025792020355756,-0.0061,0.00935415808619875));
#1663=CARTESIAN_POINT('',(0.0280463459394593,-0.00644082602296464,0.00968816276210759));
#1664=CARTESIAN_POINT('',(0.0309201058867608,-0.00758785921690511,0.00992248508055908));
#1665=CARTESIAN_POINT('',(0.0322388326724865,-0.00836718287074052,0.00997471045649985));
#1666=CARTESIAN_POINT('',(0.0328736017031634,-0.00881152119221441,0.00998839130553026));
#1667=CARTESIAN_POINT('',(0.0328736017031635,0.00881152119221441,0.00998839130553027));
#1668=CARTESIAN_POINT('',(0.0316041103089999,0.0079228772162999,0.0099610306132633));
#1669=CARTESIAN_POINT('',(0.0295381548551808,0.0069087581762108,0.0098438354041578));
#1670=CARTESIAN_POINT('',(0.0265379952375746,0.00621339445969276,0.00946508167411084));
#1671=CARTESIAN_POINT('',(0.0250318870193109,0.0061,0.00920416948176059));
#1672=CARTESIAN_POINT('',(0.0242716665377136,0.0061,0.00905416368194481));
#1673=CARTESIAN_POINT('',(0.0140490243203608,-1.04083408558608E-17,0.058));
#1674=CARTESIAN_POINT('',(-0.0140490243203608,-1.04083408558608E-17,0.058));
#1675=CARTESIAN_POINT('',(-0.0140490243203608,0.00610398662185814,0.008));
#1676=CARTESIAN_POINT('',(-0.0174517098162178,0.0061594647743183,0.008));
#1677=CARTESIAN_POINT('',(-0.0207165530319104,0.00677515376028273,0.00834331060638206));
#1678=CARTESIAN_POINT('',(-0.02385483107727,0.00792171612853532,0.00897096621545399));
#1679=CARTESIAN_POINT('',(-0.02385483107727,-0.0079217161285353,0.008970966215454));
#1680=CARTESIAN_POINT('',(-0.0207165530319104,-0.00677515376028272,0.00834331060638207));
#1681=CARTESIAN_POINT('',(-0.0174517098162178,-0.00615946477431829,0.008));
#1682=CARTESIAN_POINT('',(-0.0140490243203608,-0.00610398662185814,0.008));
#1683=CARTESIAN_POINT('',(-0.0339509756796392,-1.04083408558608E-17,-0.04));
#1684=CARTESIAN_POINT('',(-0.0339509756796392,-0.0117065754426067,0.01));
#1685=CARTESIAN_POINT('',(-0.0339360907635722,-0.0117010205572583,0.01));
#1686=CARTESIAN_POINT('',(-0.0339212102722034,-0.0116954538520763,0.00999999335318013));
#1687=CARTESIAN_POINT('',(-0.0339063342055235,-0.0116898753270713,0.00999998007138392));
#1688=CARTESIAN_POINT('',(-0.0339063342055235,0.0116898753270713,0.00999998007138393));
#1689=CARTESIAN_POINT('',(-0.0339212102722034,0.0116954538520763,0.00999999335318013));
#1690=CARTESIAN_POINT('',(-0.0339360907635722,0.0117010205572583,0.01));
#1691=CARTESIAN_POINT('',(-0.0339509756796392,0.0117065754426067,0.01));
#1692=CARTESIAN_POINT('',(0.0437283334622866,-0.0019,0.01));
#1693=CARTESIAN_POINT('',(0.0437283334622865,0.0019,0.01));
#1694=CARTESIAN_POINT('',(0.0242716665377136,0.0211,0.01));
#1695=CARTESIAN_POINT('',(0.0242716665377135,-0.0211,0.01));
#1696=CARTESIAN_POINT('',(-0.0135599625468247,-0.0361,0.01));
#1697=CARTESIAN_POINT('',(-0.0444400374531753,0.0164,0.01));
#1698=CARTESIAN_POINT('',(-0.0444400374531753,-0.0136,0.00545452366149062));
#1699=CARTESIAN_POINT('',(-0.0443864549149822,-0.0136,0.00515273675233755));
#1700=CARTESIAN_POINT('',(-0.0443864557123144,-0.0136,0.00484725875693781));
#1701=CARTESIAN_POINT('',(-0.0444400374531753,-0.0136,0.00454547633850938));
#1702=CARTESIAN_POINT('',(-0.0444400374531753,-0.0164,0.01));
#1703=CARTESIAN_POINT('',(-0.0444400374531753,0.0136,0.00454547633850945));
#1704=CARTESIAN_POINT('',(-0.0443864549149822,0.0136,0.00484726324766247));
#1705=CARTESIAN_POINT('',(-0.0443864557123144,0.0136,0.00515274124306217));
#1706=CARTESIAN_POINT('',(-0.0444400374531753,0.0136,0.00545452366149055));
#1707=CARTESIAN_POINT('',(-0.0135599625468247,0.0361,0.01));
#1708=CARTESIAN_POINT('',(0.047,-0.0266,0.005));
#1709=CARTESIAN_POINT('',(0.047,-0.0071,0.005));
#1710=CARTESIAN_POINT('',(0.047,-0.0071,0.0034));
#1711=CARTESIAN_POINT('',(0.047,-0.0121,0.005));
#1712=CARTESIAN_POINT('',(0.047,-0.0121,0.0034));
#1713=CARTESIAN_POINT('',(0.047,-0.0266,0.005));
#1714=CARTESIAN_POINT('',(0.047,0.0071,0.005));
#1715=CARTESIAN_POINT('',(0.047,0.0071,0.0034));
#1716=CARTESIAN_POINT('',(0.047,0.0121,0.005));
#1717=CARTESIAN_POINT('',(0.047,0.0121,0.0034));
#1718=CARTESIAN_POINT('',(-0.047,-0.0261,0.005));
#1719=CARTESIAN_POINT('',(-0.047,0.0086,0.005));
#1720=CARTESIAN_POINT('',(-0.047,0.0086,0.0034));
#1721=CARTESIAN_POINT('',(-0.047,0.0126,0.005));
#1722=CARTESIAN_POINT('',(-0.047,0.0126,0.0034));
#1723=CARTESIAN_POINT('',(-0.047,-0.0261,0.005));
#1724=CARTESIAN_POINT('',(-0.047,-0.0086,0.005));
#1725=CARTESIAN_POINT('',(-0.047,-0.0086,0.0034));
#1726=CARTESIAN_POINT('',(-0.047,-0.0126,0.005));
#1727=CARTESIAN_POINT('',(-0.047,-0.0126,0.0034));
#1728=CARTESIAN_POINT('',(-0.047,0.0126,0.005));
#1729=CARTESIAN_POINT('',(-0.047,-0.0126,0.005));
#1730=CARTESIAN_POINT('',(0.047,0.0121,0.005));
#1731=CARTESIAN_POINT('',(0.047,-0.0121,0.005));
#1732=CARTESIAN_POINT('',(0.0365,-1.04083408558608E-17,0.0025));
#1733=CARTESIAN_POINT('',(0.0365,-0.00305,0.0075));
#1734=CARTESIAN_POINT('',(-0.0365,-1.04083408558608E-17,0.0025));
#1735=CARTESIAN_POINT('',(-0.0365,0.00305,0.0075));
#1736=CARTESIAN_POINT('',(-0.047,0.0086,0.005));
#1737=CARTESIAN_POINT('',(-0.047,-0.0076,0.005));
#1738=CARTESIAN_POINT('',(0.047,0.0071,0.005));
#1739=CARTESIAN_POINT('',(0.047,-0.0061,0.005));
#1740=MECHANICAL_DESIGN_GEOMETRIC_PRESENTATION_REPRESENTATION('',(#999),
#1741);
#1741=(
GEOMETRIC_REPRESENTATION_CONTEXT(3)
GLOBAL_UNCERTAINTY_ASSIGNED_CONTEXT((#1742))
GLOBAL_UNIT_ASSIGNED_CONTEXT((#1745,#1744,#1743))
REPRESENTATION_CONTEXT('upper arm','TOP_LEVEL_ASSEMBLY_PART')
);
#1742=UNCERTAINTY_MEASURE_WITH_UNIT(LENGTH_MEASURE(2.E-5),#1745,
'DISTANCE_ACCURACY_VALUE','Maximum Tolerance applied to model');
#1743=(
NAMED_UNIT(*)
SI_UNIT($,.STERADIAN.)
SOLID_ANGLE_UNIT()
);
#1744=(
NAMED_UNIT(*)
PLANE_ANGLE_UNIT()
SI_UNIT($,.RADIAN.)
);
#1745=(
LENGTH_UNIT()
NAMED_UNIT(*)
SI_UNIT($,.METRE.)
);
#1746=PRODUCT_DEFINITION_SHAPE('','',#1747);
#1747=PRODUCT_DEFINITION('','',#1749,#1748);
#1748=PRODUCT_DEFINITION_CONTEXT('',#1755,'design');
#1749=PRODUCT_DEFINITION_FORMATION_WITH_SPECIFIED_SOURCE('','',#1751,
 .NOT_KNOWN.);
#1750=PRODUCT_RELATED_PRODUCT_CATEGORY('','',(#1751));
#1751=PRODUCT('upper arm','upper arm','upper arm',(#1753));
#1752=PRODUCT_CATEGORY('','');
#1753=PRODUCT_CONTEXT('',#1755,'mechanical');
#1754=APPLICATION_PROTOCOL_DEFINITION('international standard',
'ap242_managed_model_based_3d_engineering',2020,#1755);
#1755=APPLICATION_CONTEXT('managed model based 3d engineering');
ENDSEC;
END-ISO-10303-21;
