ISO-10303-21;
HEADER;
/* Generated by software containing ST-Developer
 * from STEP Tools, Inc. (www.steptools.com) 
 */
/* OPTION: using custom renumber hook */

FILE_DESCRIPTION(
/* description */ ('STEP AP242 Edition 2',
'CAx-IF Rec.Pracs.---Representation and Presentation of Product Manufa
cturing Information (PMI)---4.0---2014-10-13',
'CAx-IF Rec.Pracs.---3D Tessellated Geometry---0.4---2014-09-14','2;1',
'CAx-IF Rec.Pracs.---User Defined Attributes---1.5---2016-08-15'),
/* implementation_level */ '2;1');

FILE_NAME(
/* name */ 'round steering thing',
/* time_stamp */ '2026-09-29T21:26:11Z',
/* author */ (''),
/* organization */ (''),
/* preprocessor_version */ 'ST-DEVELOPER v20',
/* originating_system */ 'ONSHAPE BY PTC INC, 1.221',
/* authorisation */ '  ');

FILE_SCHEMA (('AP242_MANAGED_MODEL_BASED_3D_ENGINEERING_MIM_LF { 1 0 10303 442 3 1 4 }'));
ENDSEC;

DATA;
#10=SHAPE_REPRESENTATION_RELATIONSHIP('','',#917,#12);
#11=SHAPE_REPRESENTATION_RELATIONSHIP('','',#918,#13);
#12=ADVANCED_BREP_SHAPE_REPRESENTATION('',(#913),#1695);
#13=ADVANCED_BREP_SHAPE_REPRESENTATION('',(#914),#1696);
#14=TOROIDAL_SURFACE('',#981,0.0073,0.0007);
#15=TOROIDAL_SURFACE('',#982,0.0073,0.0007);
#16=TOROIDAL_SURFACE('',#1046,0.0073,0.0007);
#17=TOROIDAL_SURFACE('',#1047,0.0073,0.0007);
#18=B_SPLINE_SURFACE_WITH_KNOTS('',3,1,((#1434,#1435),(#1436,#1437),(#1438,
#1439),(#1440,#1441),(#1442,#1443),(#1444,#1445),(#1446,#1447)),
 .SURF_OF_LINEAR_EXTRUSION.,.F.,.F.,.F.,(4,1,1,1,4),(2,2),(0.0731542092516726,
0.297050240169007,0.520946271086341,0.744842302003675,0.96873833292101),
(0.,1.),.UNSPECIFIED.);
#19=B_SPLINE_SURFACE_WITH_KNOTS('',3,1,((#1455,#1456),(#1457,#1458),(#1459,
#1460),(#1461,#1462),(#1463,#1464),(#1465,#1466),(#1467,#1468),(#1469,#1470),
(#1471,#1472)),.SURF_OF_LINEAR_EXTRUSION.,.F.,.F.,.F.,(4,1,1,1,1,1,4),(2,
2),(0.,0.235521131432192,0.353281697148288,0.471042262864384,0.58880282858048,
0.706563394296576,0.942084525728768),(0.,1.),.UNSPECIFIED.);
#20=B_SPLINE_SURFACE_WITH_KNOTS('',3,1,((#1610,#1611),(#1612,#1613),(#1614,
#1615),(#1616,#1617),(#1618,#1619),(#1620,#1621),(#1622,#1623)),
 .SURF_OF_LINEAR_EXTRUSION.,.F.,.F.,.F.,(4,1,1,1,4),(2,2),(0.0731542092516727,
0.297050240169007,0.520946271086342,0.744842302003676,0.96873833292101),
(0.,1.),.UNSPECIFIED.);
#21=B_SPLINE_SURFACE_WITH_KNOTS('',3,1,((#1631,#1632),(#1633,#1634),(#1635,
#1636),(#1637,#1638),(#1639,#1640),(#1641,#1642),(#1643,#1644),(#1645,#1646),
(#1647,#1648)),.SURF_OF_LINEAR_EXTRUSION.,.F.,.F.,.F.,(4,1,1,1,1,1,4),(2,
2),(0.,0.235521131432192,0.353281697148288,0.471042262864384,0.58880282858048,
0.706563394296575,0.942084525728767),(0.,1.),.UNSPECIFIED.);
#22=CONICAL_SURFACE('',#955,0.0076,0.785398163397446);
#23=CONICAL_SURFACE('',#956,0.00735,0.785398163397453);
#24=CONICAL_SURFACE('',#957,0.00785,0.785398163397448);
#25=CONICAL_SURFACE('',#958,0.0076,0.785398163397455);
#26=CONICAL_SURFACE('',#1020,0.0076,0.785398163397446);
#27=CONICAL_SURFACE('',#1021,0.00735,0.785398163397453);
#28=CONICAL_SURFACE('',#1022,0.00785,0.785398163397448);
#29=CONICAL_SURFACE('',#1023,0.0076,0.785398163397455);
#30=LINE('',#1391,#62);
#31=LINE('',#1409,#63);
#32=LINE('',#1411,#64);
#33=LINE('',#1415,#65);
#34=LINE('',#1416,#66);
#35=LINE('',#1432,#67);
#36=LINE('',#1433,#68);
#37=LINE('',#1454,#69);
#38=LINE('',#1473,#70);
#39=LINE('',#1481,#71);
#40=LINE('',#1485,#72);
#41=LINE('',#1489,#73);
#42=LINE('',#1493,#74);
#43=LINE('',#1497,#75);
#44=LINE('',#1503,#76);
#45=LINE('',#1505,#77);
#46=LINE('',#1559,#78);
#47=LINE('',#1585,#79);
#48=LINE('',#1589,#80);
#49=LINE('',#1590,#81);
#50=LINE('',#1594,#82);
#51=LINE('',#1608,#83);
#52=LINE('',#1609,#84);
#53=LINE('',#1624,#85);
#54=LINE('',#1655,#86);
#55=LINE('',#1659,#87);
#56=LINE('',#1663,#88);
#57=LINE('',#1665,#89);
#58=LINE('',#1669,#90);
#59=LINE('',#1673,#91);
#60=LINE('',#1677,#92);
#61=LINE('',#1683,#93);
#62=VECTOR('',#1099,1.);
#63=VECTOR('',#1112,1.);
#64=VECTOR('',#1113,1.);
#65=VECTOR('',#1116,1.);
#66=VECTOR('',#1117,1.);
#67=VECTOR('',#1138,1.);
#68=VECTOR('',#1139,1.);
#69=VECTOR('',#1140,1.);
#70=VECTOR('',#1141,1.);
#71=VECTOR('',#1144,1.);
#72=VECTOR('',#1149,1.);
#73=VECTOR('',#1154,1.);
#74=VECTOR('',#1157,1.);
#75=VECTOR('',#1164,1.);
#76=VECTOR('',#1173,1.);
#77=VECTOR('',#1176,1.);
#78=VECTOR('',#1237,1.);
#79=VECTOR('',#1258,1.);
#80=VECTOR('',#1261,1.);
#81=VECTOR('',#1262,1.);
#82=VECTOR('',#1265,1.);
#83=VECTOR('',#1284,1.);
#84=VECTOR('',#1285,1.);
#85=VECTOR('',#1286,1.);
#86=VECTOR('',#1287,1.);
#87=VECTOR('',#1292,1.);
#88=VECTOR('',#1297,1.);
#89=VECTOR('',#1300,1.);
#90=VECTOR('',#1303,1.);
#91=VECTOR('',#1310,1.);
#92=VECTOR('',#1317,1.);
#93=VECTOR('',#1324,1.);
#94=B_SPLINE_CURVE_WITH_KNOTS('',3,(#1381,#1382,#1383,#1384,#1385),
 .UNSPECIFIED.,.F.,.F.,(4,1,4),(0.,0.469280671135731,1.),.UNSPECIFIED.);
#95=B_SPLINE_CURVE_WITH_KNOTS('',3,(#1397,#1398,#1399,#1400,#1401),
 .UNSPECIFIED.,.F.,.F.,(4,1,4),(0.,0.574830415866014,1.),.UNSPECIFIED.);
#96=B_SPLINE_CURVE_WITH_KNOTS('',3,(#1448,#1449,#1450,#1451,#1452),
 .UNSPECIFIED.,.F.,.F.,(4,1,4),(0.,0.469280671135731,1.),.UNSPECIFIED.);
#97=B_SPLINE_CURVE_WITH_KNOTS('',3,(#1475,#1476,#1477,#1478,#1479),
 .UNSPECIFIED.,.F.,.F.,(4,1,4),(0.,0.574830415866014,1.),.UNSPECIFIED.);
#98=B_SPLINE_CURVE_WITH_KNOTS('',3,(#1549,#1550,#1551,#1552,#1553),
 .UNSPECIFIED.,.F.,.F.,(4,1,4),(0.,0.574830415866014,1.),.UNSPECIFIED.);
#99=B_SPLINE_CURVE_WITH_KNOTS('',3,(#1565,#1566,#1567,#1568,#1569),
 .UNSPECIFIED.,.F.,.F.,(4,1,4),(0.,0.469280671135731,1.),.UNSPECIFIED.);
#100=B_SPLINE_CURVE_WITH_KNOTS('',3,(#1626,#1627,#1628,#1629,#1630),
 .UNSPECIFIED.,.F.,.F.,(4,1,4),(0.,0.469280671135731,1.),.UNSPECIFIED.);
#101=B_SPLINE_CURVE_WITH_KNOTS('',3,(#1649,#1650,#1651,#1652,#1653),
 .UNSPECIFIED.,.F.,.F.,(4,1,4),(0.,0.574830415866014,1.),.UNSPECIFIED.);
#102=PLANE('',#923);
#103=PLANE('',#929);
#104=PLANE('',#935);
#105=PLANE('',#953);
#106=PLANE('',#969);
#107=PLANE('',#970);
#108=PLANE('',#980);
#109=PLANE('',#988);
#110=PLANE('',#994);
#111=PLANE('',#1000);
#112=PLANE('',#1018);
#113=PLANE('',#1034);
#114=PLANE('',#1035);
#115=PLANE('',#1045);
#116=ORIENTED_EDGE('',*,*,#344,.F.);
#117=ORIENTED_EDGE('',*,*,#345,.F.);
#118=ORIENTED_EDGE('',*,*,#346,.F.);
#119=ORIENTED_EDGE('',*,*,#347,.F.);
#120=ORIENTED_EDGE('',*,*,#348,.F.);
#121=ORIENTED_EDGE('',*,*,#349,.F.);
#122=ORIENTED_EDGE('',*,*,#350,.F.);
#123=ORIENTED_EDGE('',*,*,#351,.F.);
#124=ORIENTED_EDGE('',*,*,#352,.F.);
#125=ORIENTED_EDGE('',*,*,#353,.F.);
#126=ORIENTED_EDGE('',*,*,#354,.F.);
#127=ORIENTED_EDGE('',*,*,#355,.F.);
#128=ORIENTED_EDGE('',*,*,#356,.T.);
#129=ORIENTED_EDGE('',*,*,#357,.F.);
#130=ORIENTED_EDGE('',*,*,#358,.T.);
#131=ORIENTED_EDGE('',*,*,#359,.F.);
#132=ORIENTED_EDGE('',*,*,#360,.F.);
#133=ORIENTED_EDGE('',*,*,#361,.F.);
#134=ORIENTED_EDGE('',*,*,#362,.F.);
#135=ORIENTED_EDGE('',*,*,#363,.T.);
#136=ORIENTED_EDGE('',*,*,#364,.T.);
#137=ORIENTED_EDGE('',*,*,#365,.F.);
#138=ORIENTED_EDGE('',*,*,#366,.T.);
#139=ORIENTED_EDGE('',*,*,#367,.T.);
#140=ORIENTED_EDGE('',*,*,#368,.F.);
#141=ORIENTED_EDGE('',*,*,#369,.T.);
#142=ORIENTED_EDGE('',*,*,#370,.T.);
#143=ORIENTED_EDGE('',*,*,#355,.T.);
#144=ORIENTED_EDGE('',*,*,#371,.F.);
#145=ORIENTED_EDGE('',*,*,#372,.T.);
#146=ORIENTED_EDGE('',*,*,#373,.T.);
#147=ORIENTED_EDGE('',*,*,#359,.T.);
#148=ORIENTED_EDGE('',*,*,#374,.F.);
#149=ORIENTED_EDGE('',*,*,#375,.T.);
#150=ORIENTED_EDGE('',*,*,#376,.F.);
#151=ORIENTED_EDGE('',*,*,#377,.F.);
#152=ORIENTED_EDGE('',*,*,#376,.T.);
#153=ORIENTED_EDGE('',*,*,#347,.T.);
#154=ORIENTED_EDGE('',*,*,#344,.T.);
#155=ORIENTED_EDGE('',*,*,#352,.T.);
#156=ORIENTED_EDGE('',*,*,#351,.T.);
#157=ORIENTED_EDGE('',*,*,#345,.T.);
#158=ORIENTED_EDGE('',*,*,#377,.T.);
#159=ORIENTED_EDGE('',*,*,#354,.T.);
#160=ORIENTED_EDGE('',*,*,#353,.T.);
#161=ORIENTED_EDGE('',*,*,#378,.F.);
#162=ORIENTED_EDGE('',*,*,#379,.T.);
#163=ORIENTED_EDGE('',*,*,#362,.T.);
#164=ORIENTED_EDGE('',*,*,#380,.F.);
#165=ORIENTED_EDGE('',*,*,#360,.T.);
#166=ORIENTED_EDGE('',*,*,#373,.F.);
#167=ORIENTED_EDGE('',*,*,#381,.F.);
#168=ORIENTED_EDGE('',*,*,#382,.F.);
#169=ORIENTED_EDGE('',*,*,#366,.F.);
#170=ORIENTED_EDGE('',*,*,#383,.F.);
#171=ORIENTED_EDGE('',*,*,#384,.T.);
#172=ORIENTED_EDGE('',*,*,#371,.T.);
#173=ORIENTED_EDGE('',*,*,#365,.T.);
#174=ORIENTED_EDGE('',*,*,#385,.F.);
#175=ORIENTED_EDGE('',*,*,#386,.F.);
#176=ORIENTED_EDGE('',*,*,#383,.T.);
#177=ORIENTED_EDGE('',*,*,#364,.F.);
#178=ORIENTED_EDGE('',*,*,#387,.F.);
#179=ORIENTED_EDGE('',*,*,#388,.T.);
#180=ORIENTED_EDGE('',*,*,#385,.T.);
#181=ORIENTED_EDGE('',*,*,#367,.F.);
#182=ORIENTED_EDGE('',*,*,#389,.F.);
#183=ORIENTED_EDGE('',*,*,#390,.T.);
#184=ORIENTED_EDGE('',*,*,#391,.T.);
#185=ORIENTED_EDGE('',*,*,#368,.T.);
#186=ORIENTED_EDGE('',*,*,#391,.F.);
#187=ORIENTED_EDGE('',*,*,#392,.F.);
#188=ORIENTED_EDGE('',*,*,#389,.T.);
#189=ORIENTED_EDGE('',*,*,#363,.F.);
#190=ORIENTED_EDGE('',*,*,#379,.F.);
#191=ORIENTED_EDGE('',*,*,#393,.T.);
#192=ORIENTED_EDGE('',*,*,#387,.T.);
#193=ORIENTED_EDGE('',*,*,#390,.F.);
#194=ORIENTED_EDGE('',*,*,#392,.T.);
#195=ORIENTED_EDGE('',*,*,#378,.T.);
#196=ORIENTED_EDGE('',*,*,#394,.F.);
#197=ORIENTED_EDGE('',*,*,#381,.T.);
#198=ORIENTED_EDGE('',*,*,#372,.F.);
#199=ORIENTED_EDGE('',*,*,#384,.F.);
#200=ORIENTED_EDGE('',*,*,#386,.T.);
#201=ORIENTED_EDGE('',*,*,#388,.F.);
#202=ORIENTED_EDGE('',*,*,#393,.F.);
#203=ORIENTED_EDGE('',*,*,#356,.F.);
#204=ORIENTED_EDGE('',*,*,#370,.F.);
#205=ORIENTED_EDGE('',*,*,#395,.T.);
#206=ORIENTED_EDGE('',*,*,#396,.T.);
#207=ORIENTED_EDGE('',*,*,#358,.F.);
#208=ORIENTED_EDGE('',*,*,#397,.F.);
#209=ORIENTED_EDGE('',*,*,#398,.T.);
#210=ORIENTED_EDGE('',*,*,#374,.T.);
#211=ORIENTED_EDGE('',*,*,#357,.T.);
#212=ORIENTED_EDGE('',*,*,#396,.F.);
#213=ORIENTED_EDGE('',*,*,#399,.F.);
#214=ORIENTED_EDGE('',*,*,#397,.T.);
#215=ORIENTED_EDGE('',*,*,#400,.T.);
#216=ORIENTED_EDGE('',*,*,#369,.F.);
#217=ORIENTED_EDGE('',*,*,#395,.F.);
#218=ORIENTED_EDGE('',*,*,#375,.F.);
#219=ORIENTED_EDGE('',*,*,#398,.F.);
#220=ORIENTED_EDGE('',*,*,#399,.T.);
#221=ORIENTED_EDGE('',*,*,#400,.F.);
#222=ORIENTED_EDGE('',*,*,#350,.T.);
#223=ORIENTED_EDGE('',*,*,#348,.T.);
#224=ORIENTED_EDGE('',*,*,#349,.T.);
#225=ORIENTED_EDGE('',*,*,#346,.T.);
#226=ORIENTED_EDGE('',*,*,#394,.T.);
#227=ORIENTED_EDGE('',*,*,#380,.T.);
#228=ORIENTED_EDGE('',*,*,#361,.T.);
#229=ORIENTED_EDGE('',*,*,#382,.T.);
#230=ORIENTED_EDGE('',*,*,#401,.T.);
#231=ORIENTED_EDGE('',*,*,#402,.T.);
#232=ORIENTED_EDGE('',*,*,#403,.T.);
#233=ORIENTED_EDGE('',*,*,#404,.T.);
#234=ORIENTED_EDGE('',*,*,#405,.T.);
#235=ORIENTED_EDGE('',*,*,#406,.T.);
#236=ORIENTED_EDGE('',*,*,#407,.T.);
#237=ORIENTED_EDGE('',*,*,#408,.T.);
#238=ORIENTED_EDGE('',*,*,#409,.T.);
#239=ORIENTED_EDGE('',*,*,#410,.T.);
#240=ORIENTED_EDGE('',*,*,#411,.T.);
#241=ORIENTED_EDGE('',*,*,#412,.T.);
#242=ORIENTED_EDGE('',*,*,#413,.F.);
#243=ORIENTED_EDGE('',*,*,#414,.T.);
#244=ORIENTED_EDGE('',*,*,#415,.F.);
#245=ORIENTED_EDGE('',*,*,#416,.F.);
#246=ORIENTED_EDGE('',*,*,#417,.T.);
#247=ORIENTED_EDGE('',*,*,#418,.T.);
#248=ORIENTED_EDGE('',*,*,#419,.T.);
#249=ORIENTED_EDGE('',*,*,#420,.T.);
#250=ORIENTED_EDGE('',*,*,#421,.F.);
#251=ORIENTED_EDGE('',*,*,#422,.T.);
#252=ORIENTED_EDGE('',*,*,#423,.F.);
#253=ORIENTED_EDGE('',*,*,#424,.F.);
#254=ORIENTED_EDGE('',*,*,#425,.T.);
#255=ORIENTED_EDGE('',*,*,#426,.F.);
#256=ORIENTED_EDGE('',*,*,#427,.F.);
#257=ORIENTED_EDGE('',*,*,#428,.F.);
#258=ORIENTED_EDGE('',*,*,#429,.T.);
#259=ORIENTED_EDGE('',*,*,#420,.F.);
#260=ORIENTED_EDGE('',*,*,#430,.F.);
#261=ORIENTED_EDGE('',*,*,#431,.F.);
#262=ORIENTED_EDGE('',*,*,#432,.T.);
#263=ORIENTED_EDGE('',*,*,#412,.F.);
#264=ORIENTED_EDGE('',*,*,#433,.T.);
#265=ORIENTED_EDGE('',*,*,#434,.T.);
#266=ORIENTED_EDGE('',*,*,#433,.F.);
#267=ORIENTED_EDGE('',*,*,#404,.F.);
#268=ORIENTED_EDGE('',*,*,#401,.F.);
#269=ORIENTED_EDGE('',*,*,#409,.F.);
#270=ORIENTED_EDGE('',*,*,#408,.F.);
#271=ORIENTED_EDGE('',*,*,#402,.F.);
#272=ORIENTED_EDGE('',*,*,#434,.F.);
#273=ORIENTED_EDGE('',*,*,#411,.F.);
#274=ORIENTED_EDGE('',*,*,#410,.F.);
#275=ORIENTED_EDGE('',*,*,#435,.T.);
#276=ORIENTED_EDGE('',*,*,#436,.T.);
#277=ORIENTED_EDGE('',*,*,#417,.F.);
#278=ORIENTED_EDGE('',*,*,#437,.F.);
#279=ORIENTED_EDGE('',*,*,#419,.F.);
#280=ORIENTED_EDGE('',*,*,#438,.T.);
#281=ORIENTED_EDGE('',*,*,#439,.T.);
#282=ORIENTED_EDGE('',*,*,#430,.T.);
#283=ORIENTED_EDGE('',*,*,#413,.T.);
#284=ORIENTED_EDGE('',*,*,#432,.F.);
#285=ORIENTED_EDGE('',*,*,#440,.F.);
#286=ORIENTED_EDGE('',*,*,#441,.T.);
#287=ORIENTED_EDGE('',*,*,#414,.F.);
#288=ORIENTED_EDGE('',*,*,#441,.F.);
#289=ORIENTED_EDGE('',*,*,#442,.T.);
#290=ORIENTED_EDGE('',*,*,#443,.T.);
#291=ORIENTED_EDGE('',*,*,#415,.T.);
#292=ORIENTED_EDGE('',*,*,#443,.F.);
#293=ORIENTED_EDGE('',*,*,#444,.F.);
#294=ORIENTED_EDGE('',*,*,#445,.T.);
#295=ORIENTED_EDGE('',*,*,#424,.T.);
#296=ORIENTED_EDGE('',*,*,#446,.F.);
#297=ORIENTED_EDGE('',*,*,#447,.F.);
#298=ORIENTED_EDGE('',*,*,#448,.T.);
#299=ORIENTED_EDGE('',*,*,#425,.F.);
#300=ORIENTED_EDGE('',*,*,#448,.F.);
#301=ORIENTED_EDGE('',*,*,#449,.T.);
#302=ORIENTED_EDGE('',*,*,#446,.T.);
#303=ORIENTED_EDGE('',*,*,#416,.T.);
#304=ORIENTED_EDGE('',*,*,#445,.F.);
#305=ORIENTED_EDGE('',*,*,#450,.F.);
#306=ORIENTED_EDGE('',*,*,#437,.T.);
#307=ORIENTED_EDGE('',*,*,#447,.T.);
#308=ORIENTED_EDGE('',*,*,#449,.F.);
#309=ORIENTED_EDGE('',*,*,#435,.F.);
#310=ORIENTED_EDGE('',*,*,#450,.T.);
#311=ORIENTED_EDGE('',*,*,#444,.T.);
#312=ORIENTED_EDGE('',*,*,#442,.F.);
#313=ORIENTED_EDGE('',*,*,#440,.T.);
#314=ORIENTED_EDGE('',*,*,#431,.T.);
#315=ORIENTED_EDGE('',*,*,#439,.F.);
#316=ORIENTED_EDGE('',*,*,#451,.T.);
#317=ORIENTED_EDGE('',*,*,#423,.T.);
#318=ORIENTED_EDGE('',*,*,#452,.F.);
#319=ORIENTED_EDGE('',*,*,#453,.F.);
#320=ORIENTED_EDGE('',*,*,#427,.T.);
#321=ORIENTED_EDGE('',*,*,#421,.T.);
#322=ORIENTED_EDGE('',*,*,#429,.F.);
#323=ORIENTED_EDGE('',*,*,#454,.F.);
#324=ORIENTED_EDGE('',*,*,#455,.T.);
#325=ORIENTED_EDGE('',*,*,#422,.F.);
#326=ORIENTED_EDGE('',*,*,#455,.F.);
#327=ORIENTED_EDGE('',*,*,#456,.T.);
#328=ORIENTED_EDGE('',*,*,#452,.T.);
#329=ORIENTED_EDGE('',*,*,#457,.F.);
#330=ORIENTED_EDGE('',*,*,#426,.T.);
#331=ORIENTED_EDGE('',*,*,#453,.T.);
#332=ORIENTED_EDGE('',*,*,#456,.F.);
#333=ORIENTED_EDGE('',*,*,#454,.T.);
#334=ORIENTED_EDGE('',*,*,#428,.T.);
#335=ORIENTED_EDGE('',*,*,#457,.T.);
#336=ORIENTED_EDGE('',*,*,#407,.F.);
#337=ORIENTED_EDGE('',*,*,#405,.F.);
#338=ORIENTED_EDGE('',*,*,#406,.F.);
#339=ORIENTED_EDGE('',*,*,#403,.F.);
#340=ORIENTED_EDGE('',*,*,#451,.F.);
#341=ORIENTED_EDGE('',*,*,#438,.F.);
#342=ORIENTED_EDGE('',*,*,#418,.F.);
#343=ORIENTED_EDGE('',*,*,#436,.F.);
#344=EDGE_CURVE('',#458,#458,#544,.F.);
#345=EDGE_CURVE('',#459,#459,#545,.F.);
#346=EDGE_CURVE('',#460,#460,#546,.F.);
#347=EDGE_CURVE('',#461,#461,#547,.T.);
#348=EDGE_CURVE('',#462,#462,#548,.F.);
#349=EDGE_CURVE('',#463,#463,#549,.T.);
#350=EDGE_CURVE('',#464,#464,#550,.T.);
#351=EDGE_CURVE('',#465,#465,#551,.F.);
#352=EDGE_CURVE('',#466,#466,#552,.T.);
#353=EDGE_CURVE('',#467,#467,#553,.T.);
#354=EDGE_CURVE('',#468,#468,#554,.F.);
#355=EDGE_CURVE('',#469,#470,#555,.T.);
#356=EDGE_CURVE('',#469,#471,#556,.T.);
#357=EDGE_CURVE('',#472,#471,#557,.T.);
#358=EDGE_CURVE('',#472,#473,#558,.T.);
#359=EDGE_CURVE('',#474,#473,#559,.T.);
#360=EDGE_CURVE('',#475,#474,#94,.T.);
#361=EDGE_CURVE('',#476,#475,#560,.F.);
#362=EDGE_CURVE('',#477,#476,#561,.T.);
#363=EDGE_CURVE('',#477,#478,#30,.T.);
#364=EDGE_CURVE('',#478,#479,#562,.T.);
#365=EDGE_CURVE('',#480,#479,#563,.T.);
#366=EDGE_CURVE('',#480,#470,#95,.T.);
#367=EDGE_CURVE('',#481,#482,#564,.T.);
#368=EDGE_CURVE('',#481,#482,#565,.T.);
#369=EDGE_CURVE('',#483,#483,#566,.T.);
#370=EDGE_CURVE('',#484,#469,#31,.T.);
#371=EDGE_CURVE('',#485,#470,#32,.T.);
#372=EDGE_CURVE('',#485,#486,#567,.T.);
#373=EDGE_CURVE('',#486,#474,#33,.T.);
#374=EDGE_CURVE('',#487,#473,#34,.T.);
#375=EDGE_CURVE('',#487,#484,#568,.T.);
#376=EDGE_CURVE('',#488,#488,#569,.T.);
#377=EDGE_CURVE('',#489,#489,#570,.T.);
#378=EDGE_CURVE('',#490,#491,#571,.T.);
#379=EDGE_CURVE('',#490,#477,#35,.T.);
#380=EDGE_CURVE('',#491,#476,#36,.T.);
#381=EDGE_CURVE('',#492,#486,#96,.T.);
#382=EDGE_CURVE('',#475,#492,#37,.F.);
#383=EDGE_CURVE('',#493,#480,#38,.T.);
#384=EDGE_CURVE('',#493,#485,#97,.T.);
#385=EDGE_CURVE('',#494,#479,#39,.T.);
#386=EDGE_CURVE('',#493,#494,#572,.T.);
#387=EDGE_CURVE('',#495,#478,#40,.T.);
#388=EDGE_CURVE('',#495,#494,#573,.T.);
#389=EDGE_CURVE('',#496,#481,#41,.T.);
#390=EDGE_CURVE('',#496,#497,#574,.T.);
#391=EDGE_CURVE('',#497,#482,#42,.T.);
#392=EDGE_CURVE('',#496,#497,#575,.T.);
#393=EDGE_CURVE('',#490,#495,#43,.T.);
#394=EDGE_CURVE('',#492,#491,#576,.T.);
#395=EDGE_CURVE('',#484,#498,#577,.T.);
#396=EDGE_CURVE('',#498,#471,#44,.T.);
#397=EDGE_CURVE('',#499,#472,#45,.T.);
#398=EDGE_CURVE('',#499,#487,#578,.T.);
#399=EDGE_CURVE('',#499,#498,#579,.T.);
#400=EDGE_CURVE('',#500,#500,#580,.T.);
#401=EDGE_CURVE('',#501,#501,#581,.F.);
#402=EDGE_CURVE('',#502,#502,#582,.F.);
#403=EDGE_CURVE('',#503,#503,#583,.F.);
#404=EDGE_CURVE('',#504,#504,#584,.T.);
#405=EDGE_CURVE('',#505,#505,#585,.F.);
#406=EDGE_CURVE('',#506,#506,#586,.T.);
#407=EDGE_CURVE('',#507,#507,#587,.T.);
#408=EDGE_CURVE('',#508,#508,#588,.F.);
#409=EDGE_CURVE('',#509,#509,#589,.T.);
#410=EDGE_CURVE('',#510,#510,#590,.T.);
#411=EDGE_CURVE('',#511,#511,#591,.F.);
#412=EDGE_CURVE('',#512,#513,#592,.T.);
#413=EDGE_CURVE('',#514,#513,#98,.T.);
#414=EDGE_CURVE('',#514,#515,#593,.T.);
#415=EDGE_CURVE('',#516,#515,#594,.T.);
#416=EDGE_CURVE('',#517,#516,#46,.T.);
#417=EDGE_CURVE('',#517,#518,#595,.T.);
#418=EDGE_CURVE('',#518,#519,#596,.F.);
#419=EDGE_CURVE('',#519,#520,#99,.T.);
#420=EDGE_CURVE('',#520,#521,#597,.T.);
#421=EDGE_CURVE('',#522,#521,#598,.T.);
#422=EDGE_CURVE('',#522,#523,#599,.T.);
#423=EDGE_CURVE('',#512,#523,#600,.T.);
#424=EDGE_CURVE('',#524,#525,#601,.T.);
#425=EDGE_CURVE('',#524,#525,#602,.T.);
#426=EDGE_CURVE('',#526,#526,#603,.T.);
#427=EDGE_CURVE('',#527,#512,#47,.T.);
#428=EDGE_CURVE('',#528,#527,#604,.T.);
#429=EDGE_CURVE('',#528,#521,#48,.T.);
#430=EDGE_CURVE('',#529,#520,#49,.T.);
#431=EDGE_CURVE('',#530,#529,#605,.T.);
#432=EDGE_CURVE('',#530,#513,#50,.T.);
#433=EDGE_CURVE('',#531,#531,#606,.T.);
#434=EDGE_CURVE('',#532,#532,#607,.T.);
#435=EDGE_CURVE('',#533,#534,#608,.T.);
#436=EDGE_CURVE('',#534,#518,#51,.T.);
#437=EDGE_CURVE('',#533,#517,#52,.T.);
#438=EDGE_CURVE('',#519,#535,#53,.F.);
#439=EDGE_CURVE('',#535,#529,#100,.T.);
#440=EDGE_CURVE('',#536,#530,#101,.T.);
#441=EDGE_CURVE('',#536,#514,#54,.T.);
#442=EDGE_CURVE('',#536,#537,#609,.T.);
#443=EDGE_CURVE('',#537,#515,#55,.T.);
#444=EDGE_CURVE('',#538,#537,#610,.T.);
#445=EDGE_CURVE('',#538,#516,#56,.T.);
#446=EDGE_CURVE('',#539,#525,#57,.T.);
#447=EDGE_CURVE('',#540,#539,#611,.T.);
#448=EDGE_CURVE('',#540,#524,#58,.T.);
#449=EDGE_CURVE('',#540,#539,#612,.T.);
#450=EDGE_CURVE('',#533,#538,#59,.T.);
#451=EDGE_CURVE('',#535,#534,#613,.T.);
#452=EDGE_CURVE('',#541,#523,#60,.T.);
#453=EDGE_CURVE('',#527,#541,#614,.T.);
#454=EDGE_CURVE('',#542,#528,#615,.T.);
#455=EDGE_CURVE('',#542,#522,#61,.T.);
#456=EDGE_CURVE('',#542,#541,#616,.T.);
#457=EDGE_CURVE('',#543,#543,#617,.T.);
#458=VERTEX_POINT('',#1344);
#459=VERTEX_POINT('',#1346);
#460=VERTEX_POINT('',#1349);
#461=VERTEX_POINT('',#1351);
#462=VERTEX_POINT('',#1354);
#463=VERTEX_POINT('',#1356);
#464=VERTEX_POINT('',#1359);
#465=VERTEX_POINT('',#1361);
#466=VERTEX_POINT('',#1364);
#467=VERTEX_POINT('',#1366);
#468=VERTEX_POINT('',#1369);
#469=VERTEX_POINT('',#1371);
#470=VERTEX_POINT('',#1372);
#471=VERTEX_POINT('',#1374);
#472=VERTEX_POINT('',#1376);
#473=VERTEX_POINT('',#1378);
#474=VERTEX_POINT('',#1380);
#475=VERTEX_POINT('',#1386);
#476=VERTEX_POINT('',#1388);
#477=VERTEX_POINT('',#1390);
#478=VERTEX_POINT('',#1392);
#479=VERTEX_POINT('',#1394);
#480=VERTEX_POINT('',#1396);
#481=VERTEX_POINT('',#1403);
#482=VERTEX_POINT('',#1404);
#483=VERTEX_POINT('',#1407);
#484=VERTEX_POINT('',#1410);
#485=VERTEX_POINT('',#1412);
#486=VERTEX_POINT('',#1414);
#487=VERTEX_POINT('',#1417);
#488=VERTEX_POINT('',#1420);
#489=VERTEX_POINT('',#1423);
#490=VERTEX_POINT('',#1430);
#491=VERTEX_POINT('',#1431);
#492=VERTEX_POINT('',#1453);
#493=VERTEX_POINT('',#1474);
#494=VERTEX_POINT('',#1482);
#495=VERTEX_POINT('',#1486);
#496=VERTEX_POINT('',#1490);
#497=VERTEX_POINT('',#1492);
#498=VERTEX_POINT('',#1502);
#499=VERTEX_POINT('',#1506);
#500=VERTEX_POINT('',#1512);
#501=VERTEX_POINT('',#1520);
#502=VERTEX_POINT('',#1522);
#503=VERTEX_POINT('',#1525);
#504=VERTEX_POINT('',#1527);
#505=VERTEX_POINT('',#1530);
#506=VERTEX_POINT('',#1532);
#507=VERTEX_POINT('',#1535);
#508=VERTEX_POINT('',#1537);
#509=VERTEX_POINT('',#1540);
#510=VERTEX_POINT('',#1542);
#511=VERTEX_POINT('',#1545);
#512=VERTEX_POINT('',#1547);
#513=VERTEX_POINT('',#1548);
#514=VERTEX_POINT('',#1554);
#515=VERTEX_POINT('',#1556);
#516=VERTEX_POINT('',#1558);
#517=VERTEX_POINT('',#1560);
#518=VERTEX_POINT('',#1562);
#519=VERTEX_POINT('',#1564);
#520=VERTEX_POINT('',#1570);
#521=VERTEX_POINT('',#1572);
#522=VERTEX_POINT('',#1574);
#523=VERTEX_POINT('',#1576);
#524=VERTEX_POINT('',#1579);
#525=VERTEX_POINT('',#1580);
#526=VERTEX_POINT('',#1583);
#527=VERTEX_POINT('',#1586);
#528=VERTEX_POINT('',#1588);
#529=VERTEX_POINT('',#1591);
#530=VERTEX_POINT('',#1593);
#531=VERTEX_POINT('',#1596);
#532=VERTEX_POINT('',#1599);
#533=VERTEX_POINT('',#1606);
#534=VERTEX_POINT('',#1607);
#535=VERTEX_POINT('',#1625);
#536=VERTEX_POINT('',#1654);
#537=VERTEX_POINT('',#1658);
#538=VERTEX_POINT('',#1662);
#539=VERTEX_POINT('',#1666);
#540=VERTEX_POINT('',#1668);
#541=VERTEX_POINT('',#1678);
#542=VERTEX_POINT('',#1682);
#543=VERTEX_POINT('',#1688);
#544=CIRCLE('',#921,0.0076);
#545=CIRCLE('',#922,0.0076);
#546=CIRCLE('',#924,0.0073);
#547=CIRCLE('',#925,0.00735);
#548=CIRCLE('',#927,0.0066);
#549=CIRCLE('',#928,0.0066);
#550=CIRCLE('',#930,0.0073);
#551=CIRCLE('',#931,0.00735);
#552=CIRCLE('',#933,0.0076);
#553=CIRCLE('',#934,0.0076);
#554=CIRCLE('',#936,0.00785);
#555=CIRCLE('',#937,0.0111);
#556=CIRCLE('',#938,0.00619368724083152);
#557=CIRCLE('',#939,0.004);
#558=CIRCLE('',#940,0.00534602131366244);
#559=CIRCLE('',#941,0.0111);
#560=CIRCLE('',#942,0.015);
#561=CIRCLE('',#943,0.004);
#562=CIRCLE('',#944,0.0717729310264026);
#563=CIRCLE('',#945,0.004);
#564=CIRCLE('',#946,0.0016);
#565=CIRCLE('',#947,0.013785143914834);
#566=CIRCLE('',#948,0.0016);
#567=CIRCLE('',#950,0.0111);
#568=CIRCLE('',#951,0.0111);
#569=CIRCLE('',#952,0.0111);
#570=CIRCLE('',#954,0.00785);
#571=CIRCLE('',#960,0.004);
#572=CIRCLE('',#962,0.004);
#573=CIRCLE('',#964,0.0717729310264026);
#574=CIRCLE('',#966,0.0016);
#575=CIRCLE('',#968,0.013785143914834);
#576=CIRCLE('',#971,0.015);
#577=CIRCLE('',#973,0.00619368724083152);
#578=CIRCLE('',#975,0.00534602131366244);
#579=CIRCLE('',#977,0.004);
#580=CIRCLE('',#979,0.0016);
#581=CIRCLE('',#986,0.0076);
#582=CIRCLE('',#987,0.0076);
#583=CIRCLE('',#989,0.0073);
#584=CIRCLE('',#990,0.00735);
#585=CIRCLE('',#992,0.0066);
#586=CIRCLE('',#993,0.0066);
#587=CIRCLE('',#995,0.0073);
#588=CIRCLE('',#996,0.00735);
#589=CIRCLE('',#998,0.0076);
#590=CIRCLE('',#999,0.0076);
#591=CIRCLE('',#1001,0.00785);
#592=CIRCLE('',#1002,0.0111);
#593=CIRCLE('',#1003,0.004);
#594=CIRCLE('',#1004,0.0717729310264026);
#595=CIRCLE('',#1005,0.004);
#596=CIRCLE('',#1006,0.015);
#597=CIRCLE('',#1007,0.0111);
#598=CIRCLE('',#1008,0.00534602131366244);
#599=CIRCLE('',#1009,0.004);
#600=CIRCLE('',#1010,0.00619368724083152);
#601=CIRCLE('',#1011,0.0016);
#602=CIRCLE('',#1012,0.013785143914834);
#603=CIRCLE('',#1013,0.0016);
#604=CIRCLE('',#1015,0.0111);
#605=CIRCLE('',#1016,0.0111);
#606=CIRCLE('',#1017,0.0111);
#607=CIRCLE('',#1019,0.00785);
#608=CIRCLE('',#1025,0.004);
#609=CIRCLE('',#1027,0.004);
#610=CIRCLE('',#1029,0.0717729310264026);
#611=CIRCLE('',#1031,0.0016);
#612=CIRCLE('',#1033,0.013785143914834);
#613=CIRCLE('',#1036,0.015);
#614=CIRCLE('',#1038,0.00619368724083152);
#615=CIRCLE('',#1040,0.00534602131366244);
#616=CIRCLE('',#1042,0.004);
#617=CIRCLE('',#1044,0.0016);
#618=EDGE_LOOP('',(#116));
#619=EDGE_LOOP('',(#117));
#620=EDGE_LOOP('',(#118));
#621=EDGE_LOOP('',(#119));
#622=EDGE_LOOP('',(#120));
#623=EDGE_LOOP('',(#121));
#624=EDGE_LOOP('',(#122));
#625=EDGE_LOOP('',(#123));
#626=EDGE_LOOP('',(#124));
#627=EDGE_LOOP('',(#125));
#628=EDGE_LOOP('',(#126));
#629=EDGE_LOOP('',(#127,#128,#129,#130,#131,#132,#133,#134,#135,#136,#137,
#138));
#630=EDGE_LOOP('',(#139,#140));
#631=EDGE_LOOP('',(#141));
#632=EDGE_LOOP('',(#142,#143,#144,#145,#146,#147,#148,#149));
#633=EDGE_LOOP('',(#150));
#634=EDGE_LOOP('',(#151));
#635=EDGE_LOOP('',(#152));
#636=EDGE_LOOP('',(#153));
#637=EDGE_LOOP('',(#154));
#638=EDGE_LOOP('',(#155));
#639=EDGE_LOOP('',(#156));
#640=EDGE_LOOP('',(#157));
#641=EDGE_LOOP('',(#158));
#642=EDGE_LOOP('',(#159));
#643=EDGE_LOOP('',(#160));
#644=EDGE_LOOP('',(#161,#162,#163,#164));
#645=EDGE_LOOP('',(#165,#166,#167,#168));
#646=EDGE_LOOP('',(#169,#170,#171,#172));
#647=EDGE_LOOP('',(#173,#174,#175,#176));
#648=EDGE_LOOP('',(#177,#178,#179,#180));
#649=EDGE_LOOP('',(#181,#182,#183,#184));
#650=EDGE_LOOP('',(#185,#186,#187,#188));
#651=EDGE_LOOP('',(#189,#190,#191,#192));
#652=EDGE_LOOP('',(#193,#194));
#653=EDGE_LOOP('',(#195,#196,#197,#198,#199,#200,#201,#202));
#654=EDGE_LOOP('',(#203,#204,#205,#206));
#655=EDGE_LOOP('',(#207,#208,#209,#210));
#656=EDGE_LOOP('',(#211,#212,#213,#214));
#657=EDGE_LOOP('',(#215));
#658=EDGE_LOOP('',(#216));
#659=EDGE_LOOP('',(#217,#218,#219,#220));
#660=EDGE_LOOP('',(#221));
#661=EDGE_LOOP('',(#222));
#662=EDGE_LOOP('',(#223));
#663=EDGE_LOOP('',(#224));
#664=EDGE_LOOP('',(#225));
#665=EDGE_LOOP('',(#226,#227,#228,#229));
#666=EDGE_LOOP('',(#230));
#667=EDGE_LOOP('',(#231));
#668=EDGE_LOOP('',(#232));
#669=EDGE_LOOP('',(#233));
#670=EDGE_LOOP('',(#234));
#671=EDGE_LOOP('',(#235));
#672=EDGE_LOOP('',(#236));
#673=EDGE_LOOP('',(#237));
#674=EDGE_LOOP('',(#238));
#675=EDGE_LOOP('',(#239));
#676=EDGE_LOOP('',(#240));
#677=EDGE_LOOP('',(#241,#242,#243,#244,#245,#246,#247,#248,#249,#250,#251,
#252));
#678=EDGE_LOOP('',(#253,#254));
#679=EDGE_LOOP('',(#255));
#680=EDGE_LOOP('',(#256,#257,#258,#259,#260,#261,#262,#263));
#681=EDGE_LOOP('',(#264));
#682=EDGE_LOOP('',(#265));
#683=EDGE_LOOP('',(#266));
#684=EDGE_LOOP('',(#267));
#685=EDGE_LOOP('',(#268));
#686=EDGE_LOOP('',(#269));
#687=EDGE_LOOP('',(#270));
#688=EDGE_LOOP('',(#271));
#689=EDGE_LOOP('',(#272));
#690=EDGE_LOOP('',(#273));
#691=EDGE_LOOP('',(#274));
#692=EDGE_LOOP('',(#275,#276,#277,#278));
#693=EDGE_LOOP('',(#279,#280,#281,#282));
#694=EDGE_LOOP('',(#283,#284,#285,#286));
#695=EDGE_LOOP('',(#287,#288,#289,#290));
#696=EDGE_LOOP('',(#291,#292,#293,#294));
#697=EDGE_LOOP('',(#295,#296,#297,#298));
#698=EDGE_LOOP('',(#299,#300,#301,#302));
#699=EDGE_LOOP('',(#303,#304,#305,#306));
#700=EDGE_LOOP('',(#307,#308));
#701=EDGE_LOOP('',(#309,#310,#311,#312,#313,#314,#315,#316));
#702=EDGE_LOOP('',(#317,#318,#319,#320));
#703=EDGE_LOOP('',(#321,#322,#323,#324));
#704=EDGE_LOOP('',(#325,#326,#327,#328));
#705=EDGE_LOOP('',(#329));
#706=EDGE_LOOP('',(#330));
#707=EDGE_LOOP('',(#331,#332,#333,#334));
#708=EDGE_LOOP('',(#335));
#709=EDGE_LOOP('',(#336));
#710=EDGE_LOOP('',(#337));
#711=EDGE_LOOP('',(#338));
#712=EDGE_LOOP('',(#339));
#713=EDGE_LOOP('',(#340,#341,#342,#343));
#714=FACE_BOUND('',#618,.T.);
#715=FACE_BOUND('',#619,.T.);
#716=FACE_BOUND('',#620,.T.);
#717=FACE_BOUND('',#621,.T.);
#718=FACE_BOUND('',#622,.T.);
#719=FACE_BOUND('',#623,.T.);
#720=FACE_BOUND('',#624,.T.);
#721=FACE_BOUND('',#625,.T.);
#722=FACE_BOUND('',#626,.T.);
#723=FACE_BOUND('',#627,.T.);
#724=FACE_BOUND('',#628,.T.);
#725=FACE_BOUND('',#629,.T.);
#726=FACE_BOUND('',#630,.T.);
#727=FACE_BOUND('',#631,.T.);
#728=FACE_BOUND('',#632,.T.);
#729=FACE_BOUND('',#633,.T.);
#730=FACE_BOUND('',#634,.T.);
#731=FACE_BOUND('',#635,.T.);
#732=FACE_BOUND('',#636,.T.);
#733=FACE_BOUND('',#637,.T.);
#734=FACE_BOUND('',#638,.T.);
#735=FACE_BOUND('',#639,.T.);
#736=FACE_BOUND('',#640,.T.);
#737=FACE_BOUND('',#641,.T.);
#738=FACE_BOUND('',#642,.T.);
#739=FACE_BOUND('',#643,.T.);
#740=FACE_BOUND('',#644,.T.);
#741=FACE_BOUND('',#645,.T.);
#742=FACE_BOUND('',#646,.T.);
#743=FACE_BOUND('',#647,.T.);
#744=FACE_BOUND('',#648,.T.);
#745=FACE_BOUND('',#649,.T.);
#746=FACE_BOUND('',#650,.T.);
#747=FACE_BOUND('',#651,.T.);
#748=FACE_BOUND('',#652,.T.);
#749=FACE_BOUND('',#653,.T.);
#750=FACE_BOUND('',#654,.T.);
#751=FACE_BOUND('',#655,.T.);
#752=FACE_BOUND('',#656,.T.);
#753=FACE_BOUND('',#657,.T.);
#754=FACE_BOUND('',#658,.T.);
#755=FACE_BOUND('',#659,.T.);
#756=FACE_BOUND('',#660,.T.);
#757=FACE_BOUND('',#661,.T.);
#758=FACE_BOUND('',#662,.T.);
#759=FACE_BOUND('',#663,.T.);
#760=FACE_BOUND('',#664,.T.);
#761=FACE_BOUND('',#665,.T.);
#762=FACE_BOUND('',#666,.T.);
#763=FACE_BOUND('',#667,.T.);
#764=FACE_BOUND('',#668,.T.);
#765=FACE_BOUND('',#669,.T.);
#766=FACE_BOUND('',#670,.T.);
#767=FACE_BOUND('',#671,.T.);
#768=FACE_BOUND('',#672,.T.);
#769=FACE_BOUND('',#673,.T.);
#770=FACE_BOUND('',#674,.T.);
#771=FACE_BOUND('',#675,.T.);
#772=FACE_BOUND('',#676,.T.);
#773=FACE_BOUND('',#677,.T.);
#774=FACE_BOUND('',#678,.T.);
#775=FACE_BOUND('',#679,.T.);
#776=FACE_BOUND('',#680,.T.);
#777=FACE_BOUND('',#681,.T.);
#778=FACE_BOUND('',#682,.T.);
#779=FACE_BOUND('',#683,.T.);
#780=FACE_BOUND('',#684,.T.);
#781=FACE_BOUND('',#685,.T.);
#782=FACE_BOUND('',#686,.T.);
#783=FACE_BOUND('',#687,.T.);
#784=FACE_BOUND('',#688,.T.);
#785=FACE_BOUND('',#689,.T.);
#786=FACE_BOUND('',#690,.T.);
#787=FACE_BOUND('',#691,.T.);
#788=FACE_BOUND('',#692,.T.);
#789=FACE_BOUND('',#693,.T.);
#790=FACE_BOUND('',#694,.T.);
#791=FACE_BOUND('',#695,.T.);
#792=FACE_BOUND('',#696,.T.);
#793=FACE_BOUND('',#697,.T.);
#794=FACE_BOUND('',#698,.T.);
#795=FACE_BOUND('',#699,.T.);
#796=FACE_BOUND('',#700,.T.);
#797=FACE_BOUND('',#701,.T.);
#798=FACE_BOUND('',#702,.T.);
#799=FACE_BOUND('',#703,.T.);
#800=FACE_BOUND('',#704,.T.);
#801=FACE_BOUND('',#705,.T.);
#802=FACE_BOUND('',#706,.T.);
#803=FACE_BOUND('',#707,.T.);
#804=FACE_BOUND('',#708,.T.);
#805=FACE_BOUND('',#709,.T.);
#806=FACE_BOUND('',#710,.T.);
#807=FACE_BOUND('',#711,.T.);
#808=FACE_BOUND('',#712,.T.);
#809=FACE_BOUND('',#713,.T.);
#810=CYLINDRICAL_SURFACE('',#920,0.0076);
#811=CYLINDRICAL_SURFACE('',#926,0.0066);
#812=CYLINDRICAL_SURFACE('',#932,0.0076);
#813=CYLINDRICAL_SURFACE('',#949,0.0111);
#814=CYLINDRICAL_SURFACE('',#959,0.004);
#815=CYLINDRICAL_SURFACE('',#961,0.004);
#816=CYLINDRICAL_SURFACE('',#963,0.0717729310264026);
#817=CYLINDRICAL_SURFACE('',#965,0.0016);
#818=CYLINDRICAL_SURFACE('',#967,0.013785143914834);
#819=CYLINDRICAL_SURFACE('',#972,0.00619368724083152);
#820=CYLINDRICAL_SURFACE('',#974,0.00534602131366244);
#821=CYLINDRICAL_SURFACE('',#976,0.004);
#822=CYLINDRICAL_SURFACE('',#978,0.0016);
#823=CYLINDRICAL_SURFACE('',#983,0.015);
#824=CYLINDRICAL_SURFACE('',#985,0.0076);
#825=CYLINDRICAL_SURFACE('',#991,0.0066);
#826=CYLINDRICAL_SURFACE('',#997,0.0076);
#827=CYLINDRICAL_SURFACE('',#1014,0.0111);
#828=CYLINDRICAL_SURFACE('',#1024,0.004);
#829=CYLINDRICAL_SURFACE('',#1026,0.004);
#830=CYLINDRICAL_SURFACE('',#1028,0.0717729310264026);
#831=CYLINDRICAL_SURFACE('',#1030,0.0016);
#832=CYLINDRICAL_SURFACE('',#1032,0.013785143914834);
#833=CYLINDRICAL_SURFACE('',#1037,0.00619368724083152);
#834=CYLINDRICAL_SURFACE('',#1039,0.00534602131366244);
#835=CYLINDRICAL_SURFACE('',#1041,0.004);
#836=CYLINDRICAL_SURFACE('',#1043,0.0016);
#837=CYLINDRICAL_SURFACE('',#1048,0.015);
#838=ADVANCED_FACE('',(#714,#715),#810,.F.);
#839=ADVANCED_FACE('',(#716,#717),#102,.T.);
#840=ADVANCED_FACE('',(#718,#719),#811,.F.);
#841=ADVANCED_FACE('',(#720,#721),#103,.F.);
#842=ADVANCED_FACE('',(#722,#723),#812,.F.);
#843=ADVANCED_FACE('',(#724,#725,#726,#727),#104,.T.);
#844=ADVANCED_FACE('',(#728,#729),#813,.T.);
#845=ADVANCED_FACE('',(#730,#731),#105,.F.);
#846=ADVANCED_FACE('',(#732,#733),#22,.F.);
#847=ADVANCED_FACE('',(#734,#735),#23,.F.);
#848=ADVANCED_FACE('',(#736,#737),#24,.F.);
#849=ADVANCED_FACE('',(#738,#739),#25,.F.);
#850=ADVANCED_FACE('',(#740),#814,.T.);
#851=ADVANCED_FACE('',(#741),#18,.F.);
#852=ADVANCED_FACE('',(#742),#19,.T.);
#853=ADVANCED_FACE('',(#743),#815,.T.);
#854=ADVANCED_FACE('',(#744),#816,.F.);
#855=ADVANCED_FACE('',(#745),#817,.F.);
#856=ADVANCED_FACE('',(#746),#818,.T.);
#857=ADVANCED_FACE('',(#747),#106,.F.);
#858=ADVANCED_FACE('',(#748,#749),#107,.F.);
#859=ADVANCED_FACE('',(#750),#819,.F.);
#860=ADVANCED_FACE('',(#751),#820,.F.);
#861=ADVANCED_FACE('',(#752),#821,.T.);
#862=ADVANCED_FACE('',(#753,#754),#822,.F.);
#863=ADVANCED_FACE('',(#755,#756),#108,.F.);
#864=ADVANCED_FACE('',(#757,#758),#14,.T.);
#865=ADVANCED_FACE('',(#759,#760),#15,.T.);
#866=ADVANCED_FACE('',(#761),#823,.F.);
#867=ADVANCED_FACE('',(#762,#763),#824,.F.);
#868=ADVANCED_FACE('',(#764,#765),#109,.T.);
#869=ADVANCED_FACE('',(#766,#767),#825,.F.);
#870=ADVANCED_FACE('',(#768,#769),#110,.F.);
#871=ADVANCED_FACE('',(#770,#771),#826,.F.);
#872=ADVANCED_FACE('',(#772,#773,#774,#775),#111,.T.);
#873=ADVANCED_FACE('',(#776,#777),#827,.T.);
#874=ADVANCED_FACE('',(#778,#779),#112,.F.);
#875=ADVANCED_FACE('',(#780,#781),#26,.F.);
#876=ADVANCED_FACE('',(#782,#783),#27,.F.);
#877=ADVANCED_FACE('',(#784,#785),#28,.F.);
#878=ADVANCED_FACE('',(#786,#787),#29,.F.);
#879=ADVANCED_FACE('',(#788),#828,.T.);
#880=ADVANCED_FACE('',(#789),#20,.T.);
#881=ADVANCED_FACE('',(#790),#21,.F.);
#882=ADVANCED_FACE('',(#791),#829,.T.);
#883=ADVANCED_FACE('',(#792),#830,.F.);
#884=ADVANCED_FACE('',(#793),#831,.F.);
#885=ADVANCED_FACE('',(#794),#832,.T.);
#886=ADVANCED_FACE('',(#795),#113,.F.);
#887=ADVANCED_FACE('',(#796,#797),#114,.F.);
#888=ADVANCED_FACE('',(#798),#833,.F.);
#889=ADVANCED_FACE('',(#799),#834,.F.);
#890=ADVANCED_FACE('',(#800),#835,.T.);
#891=ADVANCED_FACE('',(#801,#802),#836,.F.);
#892=ADVANCED_FACE('',(#803,#804),#115,.F.);
#893=ADVANCED_FACE('',(#805,#806),#16,.T.);
#894=ADVANCED_FACE('',(#807,#808),#17,.T.);
#895=ADVANCED_FACE('',(#809),#837,.F.);
#896=CLOSED_SHELL('',(#838,#839,#840,#841,#842,#843,#844,#845,#846,#847,
#848,#849,#850,#851,#852,#853,#854,#855,#856,#857,#858,#859,#860,#861,#862,
#863,#864,#865,#866));
#897=CLOSED_SHELL('',(#867,#868,#869,#870,#871,#872,#873,#874,#875,#876,
#877,#878,#879,#880,#881,#882,#883,#884,#885,#886,#887,#888,#889,#890,#891,
#892,#893,#894,#895));
#898=STYLED_ITEM('',(#900),#913);
#899=STYLED_ITEM('',(#901),#914);
#900=PRESENTATION_STYLE_ASSIGNMENT((#902));
#901=PRESENTATION_STYLE_ASSIGNMENT((#903));
#902=SURFACE_STYLE_USAGE(.BOTH.,#904);
#903=SURFACE_STYLE_USAGE(.BOTH.,#905);
#904=SURFACE_SIDE_STYLE('',(#906));
#905=SURFACE_SIDE_STYLE('',(#907));
#906=SURFACE_STYLE_FILL_AREA(#908);
#907=SURFACE_STYLE_FILL_AREA(#909);
#908=FILL_AREA_STYLE('',(#910));
#909=FILL_AREA_STYLE('',(#911));
#910=FILL_AREA_STYLE_COLOUR('',#912);
#911=FILL_AREA_STYLE_COLOUR('',#912);
#912=DRAUGHTING_PRE_DEFINED_COLOUR('black');
#913=MANIFOLD_SOLID_BREP('Part 2',#896);
#914=MANIFOLD_SOLID_BREP('Part 1',#897);
#915=SHAPE_DEFINITION_REPRESENTATION(#1705,#917);
#916=SHAPE_DEFINITION_REPRESENTATION(#1706,#918);
#917=SHAPE_REPRESENTATION('Part 2',(#919),#1695);
#918=SHAPE_REPRESENTATION('Part 1',(#984),#1696);
#919=AXIS2_PLACEMENT_3D('',#1341,#1049,#1050);
#920=AXIS2_PLACEMENT_3D('',#1342,#1051,#1052);
#921=AXIS2_PLACEMENT_3D('',#1343,#1053,#1054);
#922=AXIS2_PLACEMENT_3D('',#1345,#1055,#1056);
#923=AXIS2_PLACEMENT_3D('',#1347,#1057,#1058);
#924=AXIS2_PLACEMENT_3D('',#1348,#1059,#1060);
#925=AXIS2_PLACEMENT_3D('',#1350,#1061,#1062);
#926=AXIS2_PLACEMENT_3D('',#1352,#1063,#1064);
#927=AXIS2_PLACEMENT_3D('',#1353,#1065,#1066);
#928=AXIS2_PLACEMENT_3D('',#1355,#1067,#1068);
#929=AXIS2_PLACEMENT_3D('',#1357,#1069,#1070);
#930=AXIS2_PLACEMENT_3D('',#1358,#1071,#1072);
#931=AXIS2_PLACEMENT_3D('',#1360,#1073,#1074);
#932=AXIS2_PLACEMENT_3D('',#1362,#1075,#1076);
#933=AXIS2_PLACEMENT_3D('',#1363,#1077,#1078);
#934=AXIS2_PLACEMENT_3D('',#1365,#1079,#1080);
#935=AXIS2_PLACEMENT_3D('',#1367,#1081,#1082);
#936=AXIS2_PLACEMENT_3D('',#1368,#1083,#1084);
#937=AXIS2_PLACEMENT_3D('',#1370,#1085,#1086);
#938=AXIS2_PLACEMENT_3D('',#1373,#1087,#1088);
#939=AXIS2_PLACEMENT_3D('',#1375,#1089,#1090);
#940=AXIS2_PLACEMENT_3D('',#1377,#1091,#1092);
#941=AXIS2_PLACEMENT_3D('',#1379,#1093,#1094);
#942=AXIS2_PLACEMENT_3D('',#1387,#1095,#1096);
#943=AXIS2_PLACEMENT_3D('',#1389,#1097,#1098);
#944=AXIS2_PLACEMENT_3D('',#1393,#1100,#1101);
#945=AXIS2_PLACEMENT_3D('',#1395,#1102,#1103);
#946=AXIS2_PLACEMENT_3D('',#1402,#1104,#1105);
#947=AXIS2_PLACEMENT_3D('',#1405,#1106,#1107);
#948=AXIS2_PLACEMENT_3D('',#1406,#1108,#1109);
#949=AXIS2_PLACEMENT_3D('',#1408,#1110,#1111);
#950=AXIS2_PLACEMENT_3D('',#1413,#1114,#1115);
#951=AXIS2_PLACEMENT_3D('',#1418,#1118,#1119);
#952=AXIS2_PLACEMENT_3D('',#1419,#1120,#1121);
#953=AXIS2_PLACEMENT_3D('',#1421,#1122,#1123);
#954=AXIS2_PLACEMENT_3D('',#1422,#1124,#1125);
#955=AXIS2_PLACEMENT_3D('',#1424,#1126,#1127);
#956=AXIS2_PLACEMENT_3D('',#1425,#1128,#1129);
#957=AXIS2_PLACEMENT_3D('',#1426,#1130,#1131);
#958=AXIS2_PLACEMENT_3D('',#1427,#1132,#1133);
#959=AXIS2_PLACEMENT_3D('',#1428,#1134,#1135);
#960=AXIS2_PLACEMENT_3D('',#1429,#1136,#1137);
#961=AXIS2_PLACEMENT_3D('',#1480,#1142,#1143);
#962=AXIS2_PLACEMENT_3D('',#1483,#1145,#1146);
#963=AXIS2_PLACEMENT_3D('',#1484,#1147,#1148);
#964=AXIS2_PLACEMENT_3D('',#1487,#1150,#1151);
#965=AXIS2_PLACEMENT_3D('',#1488,#1152,#1153);
#966=AXIS2_PLACEMENT_3D('',#1491,#1155,#1156);
#967=AXIS2_PLACEMENT_3D('',#1494,#1158,#1159);
#968=AXIS2_PLACEMENT_3D('',#1495,#1160,#1161);
#969=AXIS2_PLACEMENT_3D('',#1496,#1162,#1163);
#970=AXIS2_PLACEMENT_3D('',#1498,#1165,#1166);
#971=AXIS2_PLACEMENT_3D('',#1499,#1167,#1168);
#972=AXIS2_PLACEMENT_3D('',#1500,#1169,#1170);
#973=AXIS2_PLACEMENT_3D('',#1501,#1171,#1172);
#974=AXIS2_PLACEMENT_3D('',#1504,#1174,#1175);
#975=AXIS2_PLACEMENT_3D('',#1507,#1177,#1178);
#976=AXIS2_PLACEMENT_3D('',#1508,#1179,#1180);
#977=AXIS2_PLACEMENT_3D('',#1509,#1181,#1182);
#978=AXIS2_PLACEMENT_3D('',#1510,#1183,#1184);
#979=AXIS2_PLACEMENT_3D('',#1511,#1185,#1186);
#980=AXIS2_PLACEMENT_3D('',#1513,#1187,#1188);
#981=AXIS2_PLACEMENT_3D('',#1514,#1189,#1190);
#982=AXIS2_PLACEMENT_3D('',#1515,#1191,#1192);
#983=AXIS2_PLACEMENT_3D('',#1516,#1193,#1194);
#984=AXIS2_PLACEMENT_3D('',#1517,#1195,#1196);
#985=AXIS2_PLACEMENT_3D('',#1518,#1197,#1198);
#986=AXIS2_PLACEMENT_3D('',#1519,#1199,#1200);
#987=AXIS2_PLACEMENT_3D('',#1521,#1201,#1202);
#988=AXIS2_PLACEMENT_3D('',#1523,#1203,#1204);
#989=AXIS2_PLACEMENT_3D('',#1524,#1205,#1206);
#990=AXIS2_PLACEMENT_3D('',#1526,#1207,#1208);
#991=AXIS2_PLACEMENT_3D('',#1528,#1209,#1210);
#992=AXIS2_PLACEMENT_3D('',#1529,#1211,#1212);
#993=AXIS2_PLACEMENT_3D('',#1531,#1213,#1214);
#994=AXIS2_PLACEMENT_3D('',#1533,#1215,#1216);
#995=AXIS2_PLACEMENT_3D('',#1534,#1217,#1218);
#996=AXIS2_PLACEMENT_3D('',#1536,#1219,#1220);
#997=AXIS2_PLACEMENT_3D('',#1538,#1221,#1222);
#998=AXIS2_PLACEMENT_3D('',#1539,#1223,#1224);
#999=AXIS2_PLACEMENT_3D('',#1541,#1225,#1226);
#1000=AXIS2_PLACEMENT_3D('',#1543,#1227,#1228);
#1001=AXIS2_PLACEMENT_3D('',#1544,#1229,#1230);
#1002=AXIS2_PLACEMENT_3D('',#1546,#1231,#1232);
#1003=AXIS2_PLACEMENT_3D('',#1555,#1233,#1234);
#1004=AXIS2_PLACEMENT_3D('',#1557,#1235,#1236);
#1005=AXIS2_PLACEMENT_3D('',#1561,#1238,#1239);
#1006=AXIS2_PLACEMENT_3D('',#1563,#1240,#1241);
#1007=AXIS2_PLACEMENT_3D('',#1571,#1242,#1243);
#1008=AXIS2_PLACEMENT_3D('',#1573,#1244,#1245);
#1009=AXIS2_PLACEMENT_3D('',#1575,#1246,#1247);
#1010=AXIS2_PLACEMENT_3D('',#1577,#1248,#1249);
#1011=AXIS2_PLACEMENT_3D('',#1578,#1250,#1251);
#1012=AXIS2_PLACEMENT_3D('',#1581,#1252,#1253);
#1013=AXIS2_PLACEMENT_3D('',#1582,#1254,#1255);
#1014=AXIS2_PLACEMENT_3D('',#1584,#1256,#1257);
#1015=AXIS2_PLACEMENT_3D('',#1587,#1259,#1260);
#1016=AXIS2_PLACEMENT_3D('',#1592,#1263,#1264);
#1017=AXIS2_PLACEMENT_3D('',#1595,#1266,#1267);
#1018=AXIS2_PLACEMENT_3D('',#1597,#1268,#1269);
#1019=AXIS2_PLACEMENT_3D('',#1598,#1270,#1271);
#1020=AXIS2_PLACEMENT_3D('',#1600,#1272,#1273);
#1021=AXIS2_PLACEMENT_3D('',#1601,#1274,#1275);
#1022=AXIS2_PLACEMENT_3D('',#1602,#1276,#1277);
#1023=AXIS2_PLACEMENT_3D('',#1603,#1278,#1279);
#1024=AXIS2_PLACEMENT_3D('',#1604,#1280,#1281);
#1025=AXIS2_PLACEMENT_3D('',#1605,#1282,#1283);
#1026=AXIS2_PLACEMENT_3D('',#1656,#1288,#1289);
#1027=AXIS2_PLACEMENT_3D('',#1657,#1290,#1291);
#1028=AXIS2_PLACEMENT_3D('',#1660,#1293,#1294);
#1029=AXIS2_PLACEMENT_3D('',#1661,#1295,#1296);
#1030=AXIS2_PLACEMENT_3D('',#1664,#1298,#1299);
#1031=AXIS2_PLACEMENT_3D('',#1667,#1301,#1302);
#1032=AXIS2_PLACEMENT_3D('',#1670,#1304,#1305);
#1033=AXIS2_PLACEMENT_3D('',#1671,#1306,#1307);
#1034=AXIS2_PLACEMENT_3D('',#1672,#1308,#1309);
#1035=AXIS2_PLACEMENT_3D('',#1674,#1311,#1312);
#1036=AXIS2_PLACEMENT_3D('',#1675,#1313,#1314);
#1037=AXIS2_PLACEMENT_3D('',#1676,#1315,#1316);
#1038=AXIS2_PLACEMENT_3D('',#1679,#1318,#1319);
#1039=AXIS2_PLACEMENT_3D('',#1680,#1320,#1321);
#1040=AXIS2_PLACEMENT_3D('',#1681,#1322,#1323);
#1041=AXIS2_PLACEMENT_3D('',#1684,#1325,#1326);
#1042=AXIS2_PLACEMENT_3D('',#1685,#1327,#1328);
#1043=AXIS2_PLACEMENT_3D('',#1686,#1329,#1330);
#1044=AXIS2_PLACEMENT_3D('',#1687,#1331,#1332);
#1045=AXIS2_PLACEMENT_3D('',#1689,#1333,#1334);
#1046=AXIS2_PLACEMENT_3D('',#1690,#1335,#1336);
#1047=AXIS2_PLACEMENT_3D('',#1691,#1337,#1338);
#1048=AXIS2_PLACEMENT_3D('',#1692,#1339,#1340);
#1049=DIRECTION('',(0.,0.,1.));
#1050=DIRECTION('',(1.,0.,0.));
#1051=DIRECTION('',(0.,0.,1.));
#1052=DIRECTION('',(-1.,0.,0.));
#1053=DIRECTION('',(0.,0.,1.));
#1054=DIRECTION('',(1.,0.,0.));
#1055=DIRECTION('',(0.,0.,-1.));
#1056=DIRECTION('',(-1.,0.,0.));
#1057=DIRECTION('',(0.,0.,-1.));
#1058=DIRECTION('',(1.,0.,0.));
#1059=DIRECTION('',(0.,0.,1.));
#1060=DIRECTION('',(1.,0.,0.));
#1061=DIRECTION('',(0.,0.,1.));
#1062=DIRECTION('',(1.,0.,0.));
#1063=DIRECTION('',(0.,0.,1.));
#1064=DIRECTION('',(-1.,0.,0.));
#1065=DIRECTION('',(0.,0.,1.));
#1066=DIRECTION('',(1.,0.,0.));
#1067=DIRECTION('',(0.,0.,1.));
#1068=DIRECTION('',(1.,0.,0.));
#1069=DIRECTION('',(0.,0.,-1.));
#1070=DIRECTION('',(1.,0.,0.));
#1071=DIRECTION('',(0.,0.,1.));
#1072=DIRECTION('',(1.,0.,0.));
#1073=DIRECTION('',(0.,0.,1.));
#1074=DIRECTION('',(1.,0.,0.));
#1075=DIRECTION('',(0.,0.,1.));
#1076=DIRECTION('',(-1.,0.,0.));
#1077=DIRECTION('',(0.,0.,1.));
#1078=DIRECTION('',(1.,0.,0.));
#1079=DIRECTION('',(0.,0.,-1.));
#1080=DIRECTION('',(-1.,0.,0.));
#1081=DIRECTION('',(0.,0.,1.));
#1082=DIRECTION('',(-1.,0.,0.));
#1083=DIRECTION('',(0.,0.,-1.));
#1084=DIRECTION('',(-1.,0.,0.));
#1085=DIRECTION('',(0.,0.,-1.));
#1086=DIRECTION('',(-1.,0.,0.));
#1087=DIRECTION('',(0.,0.,-1.));
#1088=DIRECTION('',(0.583902683923766,0.81182366047475,5.60158564204129E-16));
#1089=DIRECTION('',(0.,0.,-1.));
#1090=DIRECTION('',(0.832745765949693,0.553655569187974,0.));
#1091=DIRECTION('',(0.,0.,-1.));
#1092=DIRECTION('',(-0.879715754499149,-0.475499938260766,-6.48977388677259E-16));
#1093=DIRECTION('',(0.,0.,-1.));
#1094=DIRECTION('',(-1.,0.,0.));
#1095=DIRECTION('',(0.,0.,-1.));
#1096=DIRECTION('',(-1.,0.,0.));
#1097=DIRECTION('',(0.,0.,-1.));
#1098=DIRECTION('',(0.983431831041132,0.181278332116904,0.));
#1099=DIRECTION('',(-0.221037242617963,0.975265367669666,0.));
#1100=DIRECTION('',(0.,0.,-1.));
#1101=DIRECTION('',(-0.932751379951668,-0.360520267389033,0.));
#1102=DIRECTION('',(0.,0.,-1.));
#1103=DIRECTION('',(-0.948588730430368,-0.316511327602194,0.));
#1104=DIRECTION('',(0.,0.,-1.));
#1105=DIRECTION('',(-0.61145614877263,-0.791278319005483,0.));
#1106=DIRECTION('',(0.,0.,-1.));
#1107=DIRECTION('',(0.551691783438557,0.834048065812987,-3.23408980044303E-12));
#1108=DIRECTION('',(0.,0.,-1.));
#1109=DIRECTION('',(-1.,0.,0.));
#1110=DIRECTION('',(0.,0.,1.));
#1111=DIRECTION('',(-1.,0.,0.));
#1112=DIRECTION('',(0.,0.,1.));
#1113=DIRECTION('',(0.,0.,1.));
#1114=DIRECTION('',(0.,0.,-1.));
#1115=DIRECTION('',(-1.,0.,0.));
#1116=DIRECTION('',(0.,0.,1.));
#1117=DIRECTION('',(0.,0.,1.));
#1118=DIRECTION('',(0.,0.,-1.));
#1119=DIRECTION('',(-1.,0.,0.));
#1120=DIRECTION('',(0.,0.,-1.));
#1121=DIRECTION('',(-1.,0.,0.));
#1122=DIRECTION('',(0.,0.,1.));
#1123=DIRECTION('',(-1.,0.,0.));
#1124=DIRECTION('',(0.,0.,-1.));
#1125=DIRECTION('',(-1.,0.,0.));
#1126=DIRECTION('',(0.,0.,-1.));
#1127=DIRECTION('',(1.,0.,0.));
#1128=DIRECTION('',(0.,0.,1.));
#1129=DIRECTION('',(-1.,0.,0.));
#1130=DIRECTION('',(0.,0.,-1.));
#1131=DIRECTION('',(1.,0.,0.));
#1132=DIRECTION('',(0.,0.,1.));
#1133=DIRECTION('',(-1.,0.,0.));
#1134=DIRECTION('',(0.,0.,1.));
#1135=DIRECTION('',(-1.,0.,0.));
#1136=DIRECTION('',(0.,0.,-1.));
#1137=DIRECTION('',(0.983431831041132,0.181278332116904,0.));
#1138=DIRECTION('',(0.,0.,1.));
#1139=DIRECTION('',(0.,0.,1.));
#1140=DIRECTION('',(0.,0.,1.));
#1141=DIRECTION('',(0.,0.,1.));
#1142=DIRECTION('',(0.,0.,1.));
#1143=DIRECTION('',(-1.,0.,0.));
#1144=DIRECTION('',(0.,0.,1.));
#1145=DIRECTION('',(0.,0.,-1.));
#1146=DIRECTION('',(-0.948588730430368,-0.316511327602194,0.));
#1147=DIRECTION('',(0.,0.,1.));
#1148=DIRECTION('',(-1.,0.,0.));
#1149=DIRECTION('',(0.,0.,1.));
#1150=DIRECTION('',(0.,0.,-1.));
#1151=DIRECTION('',(-0.932751379951668,-0.360520267389033,0.));
#1152=DIRECTION('',(0.,0.,1.));
#1153=DIRECTION('',(-1.,0.,0.));
#1154=DIRECTION('',(0.,0.,1.));
#1155=DIRECTION('',(0.,0.,-1.));
#1156=DIRECTION('',(-0.61145614877263,-0.791278319005483,0.));
#1157=DIRECTION('',(0.,0.,1.));
#1158=DIRECTION('',(0.,0.,1.));
#1159=DIRECTION('',(-1.,0.,0.));
#1160=DIRECTION('',(0.,0.,-1.));
#1161=DIRECTION('',(0.551691783438557,0.834048065812987,-3.23408980044303E-12));
#1162=DIRECTION('',(-0.975265367669618,-0.221037242618171,0.));
#1163=DIRECTION('',(-0.221037242618171,0.975265367669618,0.));
#1164=DIRECTION('',(-0.221037242617963,0.975265367669666,0.));
#1165=DIRECTION('',(0.,0.,1.));
#1166=DIRECTION('',(-1.,0.,0.));
#1167=DIRECTION('',(0.,0.,-1.));
#1168=DIRECTION('',(-1.,0.,0.));
#1169=DIRECTION('',(0.,0.,1.));
#1170=DIRECTION('',(-1.,0.,0.));
#1171=DIRECTION('',(0.,0.,-1.));
#1172=DIRECTION('',(0.583902683923766,0.81182366047475,5.60158564204129E-16));
#1173=DIRECTION('',(0.,0.,1.));
#1174=DIRECTION('',(0.,0.,1.));
#1175=DIRECTION('',(-1.,0.,0.));
#1176=DIRECTION('',(0.,0.,1.));
#1177=DIRECTION('',(0.,0.,-1.));
#1178=DIRECTION('',(-0.879715754499149,-0.475499938260766,-6.48977388677259E-16));
#1179=DIRECTION('',(0.,0.,1.));
#1180=DIRECTION('',(-1.,0.,0.));
#1181=DIRECTION('',(0.,0.,-1.));
#1182=DIRECTION('',(0.832745765949693,0.553655569187974,0.));
#1183=DIRECTION('',(0.,0.,1.));
#1184=DIRECTION('',(-1.,0.,0.));
#1185=DIRECTION('',(0.,0.,-1.));
#1186=DIRECTION('',(-1.,0.,0.));
#1187=DIRECTION('',(0.,0.,1.));
#1188=DIRECTION('',(-1.,0.,0.));
#1189=DIRECTION('',(0.,0.,-1.));
#1190=DIRECTION('',(1.,0.,0.));
#1191=DIRECTION('',(0.,0.,-1.));
#1192=DIRECTION('',(1.,0.,0.));
#1193=DIRECTION('',(0.,0.,1.));
#1194=DIRECTION('',(-1.,0.,0.));
#1195=DIRECTION('',(0.,0.,1.));
#1196=DIRECTION('',(1.,0.,0.));
#1197=DIRECTION('',(0.,0.,1.));
#1198=DIRECTION('',(1.,0.,0.));
#1199=DIRECTION('',(0.,0.,-1.));
#1200=DIRECTION('',(-1.,0.,0.));
#1201=DIRECTION('',(0.,0.,1.));
#1202=DIRECTION('',(1.,0.,0.));
#1203=DIRECTION('',(0.,0.,-1.));
#1204=DIRECTION('',(-1.,0.,0.));
#1205=DIRECTION('',(0.,0.,-1.));
#1206=DIRECTION('',(-1.,0.,0.));
#1207=DIRECTION('',(0.,0.,-1.));
#1208=DIRECTION('',(-1.,0.,0.));
#1209=DIRECTION('',(0.,0.,1.));
#1210=DIRECTION('',(1.,0.,0.));
#1211=DIRECTION('',(0.,0.,-1.));
#1212=DIRECTION('',(-1.,0.,0.));
#1213=DIRECTION('',(0.,0.,-1.));
#1214=DIRECTION('',(-1.,0.,0.));
#1215=DIRECTION('',(0.,0.,-1.));
#1216=DIRECTION('',(-1.,0.,0.));
#1217=DIRECTION('',(0.,0.,-1.));
#1218=DIRECTION('',(-1.,0.,0.));
#1219=DIRECTION('',(0.,0.,-1.));
#1220=DIRECTION('',(-1.,0.,0.));
#1221=DIRECTION('',(0.,0.,1.));
#1222=DIRECTION('',(1.,0.,0.));
#1223=DIRECTION('',(0.,0.,-1.));
#1224=DIRECTION('',(-1.,0.,0.));
#1225=DIRECTION('',(0.,0.,1.));
#1226=DIRECTION('',(1.,0.,0.));
#1227=DIRECTION('',(0.,0.,1.));
#1228=DIRECTION('',(1.,0.,0.));
#1229=DIRECTION('',(0.,0.,1.));
#1230=DIRECTION('',(1.,0.,0.));
#1231=DIRECTION('',(0.,0.,1.));
#1232=DIRECTION('',(1.,0.,0.));
#1233=DIRECTION('',(0.,0.,1.));
#1234=DIRECTION('',(0.948588730430368,-0.316511327602194,0.));
#1235=DIRECTION('',(0.,0.,1.));
#1236=DIRECTION('',(0.932751379951668,-0.360520267389033,0.));
#1237=DIRECTION('',(0.221037242618156,0.975265367669622,0.));
#1238=DIRECTION('',(0.,0.,1.));
#1239=DIRECTION('',(-0.983431831041132,0.181278332116904,0.));
#1240=DIRECTION('',(0.,0.,1.));
#1241=DIRECTION('',(1.,0.,0.));
#1242=DIRECTION('',(0.,0.,1.));
#1243=DIRECTION('',(1.,0.,0.));
#1244=DIRECTION('',(0.,0.,1.));
#1245=DIRECTION('',(0.879715754499149,-0.475499938260766,-6.48977388677259E-16));
#1246=DIRECTION('',(0.,0.,1.));
#1247=DIRECTION('',(-0.832745765949693,0.553655569187974,0.));
#1248=DIRECTION('',(0.,0.,1.));
#1249=DIRECTION('',(-0.583902683923766,0.81182366047475,5.60158564204129E-16));
#1250=DIRECTION('',(0.,0.,1.));
#1251=DIRECTION('',(0.61145614877263,-0.791278319005483,0.));
#1252=DIRECTION('',(0.,0.,1.));
#1253=DIRECTION('',(-0.551691783438557,0.834048065812987,-3.23408980044303E-12));
#1254=DIRECTION('',(0.,0.,1.));
#1255=DIRECTION('',(1.,0.,0.));
#1256=DIRECTION('',(0.,0.,1.));
#1257=DIRECTION('',(1.,0.,0.));
#1258=DIRECTION('',(0.,0.,1.));
#1259=DIRECTION('',(0.,0.,1.));
#1260=DIRECTION('',(1.,0.,0.));
#1261=DIRECTION('',(0.,0.,1.));
#1262=DIRECTION('',(0.,0.,1.));
#1263=DIRECTION('',(0.,0.,1.));
#1264=DIRECTION('',(1.,0.,0.));
#1265=DIRECTION('',(0.,0.,1.));
#1266=DIRECTION('',(0.,0.,1.));
#1267=DIRECTION('',(1.,0.,0.));
#1268=DIRECTION('',(0.,0.,1.));
#1269=DIRECTION('',(1.,0.,0.));
#1270=DIRECTION('',(0.,0.,1.));
#1271=DIRECTION('',(1.,0.,0.));
#1272=DIRECTION('',(0.,0.,-1.));
#1273=DIRECTION('',(-1.,0.,0.));
#1274=DIRECTION('',(0.,0.,1.));
#1275=DIRECTION('',(1.,0.,0.));
#1276=DIRECTION('',(0.,0.,-1.));
#1277=DIRECTION('',(-1.,0.,0.));
#1278=DIRECTION('',(0.,0.,1.));
#1279=DIRECTION('',(1.,0.,0.));
#1280=DIRECTION('',(0.,0.,1.));
#1281=DIRECTION('',(1.,0.,0.));
#1282=DIRECTION('',(0.,0.,1.));
#1283=DIRECTION('',(-0.983431831041132,0.181278332116904,0.));
#1284=DIRECTION('',(0.,0.,1.));
#1285=DIRECTION('',(0.,0.,1.));
#1286=DIRECTION('',(0.,0.,1.));
#1287=DIRECTION('',(0.,0.,1.));
#1288=DIRECTION('',(0.,0.,1.));
#1289=DIRECTION('',(1.,0.,0.));
#1290=DIRECTION('',(0.,0.,1.));
#1291=DIRECTION('',(0.948588730430368,-0.316511327602194,0.));
#1292=DIRECTION('',(0.,0.,1.));
#1293=DIRECTION('',(0.,0.,1.));
#1294=DIRECTION('',(1.,0.,0.));
#1295=DIRECTION('',(0.,0.,1.));
#1296=DIRECTION('',(0.932751379951668,-0.360520267389033,0.));
#1297=DIRECTION('',(0.,0.,1.));
#1298=DIRECTION('',(0.,0.,1.));
#1299=DIRECTION('',(1.,0.,0.));
#1300=DIRECTION('',(0.,0.,1.));
#1301=DIRECTION('',(0.,0.,1.));
#1302=DIRECTION('',(0.61145614877263,-0.791278319005483,0.));
#1303=DIRECTION('',(0.,0.,1.));
#1304=DIRECTION('',(0.,0.,1.));
#1305=DIRECTION('',(1.,0.,0.));
#1306=DIRECTION('',(0.,0.,1.));
#1307=DIRECTION('',(-0.551691783438557,0.834048065812987,-3.23408980044303E-12));
#1308=DIRECTION('',(0.975265367669618,-0.221037242618171,0.));
#1309=DIRECTION('',(0.221037242618171,0.975265367669618,0.));
#1310=DIRECTION('',(0.221037242618156,0.975265367669622,0.));
#1311=DIRECTION('',(0.,0.,1.));
#1312=DIRECTION('',(1.,0.,0.));
#1313=DIRECTION('',(0.,0.,1.));
#1314=DIRECTION('',(1.,0.,0.));
#1315=DIRECTION('',(0.,0.,1.));
#1316=DIRECTION('',(1.,0.,0.));
#1317=DIRECTION('',(0.,0.,1.));
#1318=DIRECTION('',(0.,0.,1.));
#1319=DIRECTION('',(-0.583902683923766,0.81182366047475,5.60158564204129E-16));
#1320=DIRECTION('',(0.,0.,1.));
#1321=DIRECTION('',(1.,0.,0.));
#1322=DIRECTION('',(0.,0.,1.));
#1323=DIRECTION('',(0.879715754499149,-0.475499938260766,-6.48977388677259E-16));
#1324=DIRECTION('',(0.,0.,1.));
#1325=DIRECTION('',(0.,0.,1.));
#1326=DIRECTION('',(1.,0.,0.));
#1327=DIRECTION('',(0.,0.,1.));
#1328=DIRECTION('',(-0.832745765949693,0.553655569187974,0.));
#1329=DIRECTION('',(0.,0.,1.));
#1330=DIRECTION('',(1.,0.,0.));
#1331=DIRECTION('',(0.,0.,1.));
#1332=DIRECTION('',(1.,0.,0.));
#1333=DIRECTION('',(0.,0.,1.));
#1334=DIRECTION('',(1.,0.,0.));
#1335=DIRECTION('',(0.,0.,-1.));
#1336=DIRECTION('',(-1.,0.,0.));
#1337=DIRECTION('',(0.,0.,-1.));
#1338=DIRECTION('',(-1.,0.,0.));
#1339=DIRECTION('',(0.,0.,1.));
#1340=DIRECTION('',(1.,0.,0.));
#1341=CARTESIAN_POINT('',(0.,0.,0.));
#1342=CARTESIAN_POINT('',(-0.05,2.38524477946811E-18,0.01));
#1343=CARTESIAN_POINT('',(-0.05,2.38524477946811E-18,-0.0071));
#1344=CARTESIAN_POINT('',(-0.0424,2.38524477946811E-18,-0.0071));
#1345=CARTESIAN_POINT('',(-0.05,2.38524477946811E-18,-0.01075));
#1346=CARTESIAN_POINT('',(-0.0576,2.38524477946811E-18,-0.01075));
#1347=CARTESIAN_POINT('',(-0.05,-0.0071,-0.00685));
#1348=CARTESIAN_POINT('',(-0.05,2.38524477946811E-18,-0.00685));
#1349=CARTESIAN_POINT('',(-0.0427,2.38524477946811E-18,-0.00685));
#1350=CARTESIAN_POINT('',(-0.05,2.38524477946811E-18,-0.00685));
#1351=CARTESIAN_POINT('',(-0.04265,2.38524477946811E-18,-0.00685));
#1352=CARTESIAN_POINT('',(-0.05,2.38524477946811E-18,0.01));
#1353=CARTESIAN_POINT('',(-0.05,2.38524477946811E-18,0.00615));
#1354=CARTESIAN_POINT('',(-0.0434,2.38524477946811E-18,0.00615));
#1355=CARTESIAN_POINT('',(-0.05,2.38524477946811E-18,-0.00615));
#1356=CARTESIAN_POINT('',(-0.0434,2.38524477946811E-18,-0.00615));
#1357=CARTESIAN_POINT('',(-0.05,-0.0071,0.00685));
#1358=CARTESIAN_POINT('',(-0.05,2.38524477946811E-18,0.00685));
#1359=CARTESIAN_POINT('',(-0.0427,2.38524477946811E-18,0.00685));
#1360=CARTESIAN_POINT('',(-0.05,2.38524477946811E-18,0.00685));
#1361=CARTESIAN_POINT('',(-0.04265,2.38524477946811E-18,0.00685));
#1362=CARTESIAN_POINT('',(-0.05,2.38524477946811E-18,0.01));
#1363=CARTESIAN_POINT('',(-0.05,2.38524477946811E-18,0.0071));
#1364=CARTESIAN_POINT('',(-0.0424,2.38524477946811E-18,0.0071));
#1365=CARTESIAN_POINT('',(-0.05,2.38524477946811E-18,0.01075));
#1366=CARTESIAN_POINT('',(-0.0576,2.38524477946811E-18,0.01075));
#1367=CARTESIAN_POINT('',(-0.05,-0.00935,0.011));
#1368=CARTESIAN_POINT('',(-0.05,2.38524477946811E-18,0.011));
#1369=CARTESIAN_POINT('',(-0.05785,2.38524477946811E-18,0.011));
#1370=CARTESIAN_POINT('',(-0.05,2.38524477946811E-18,0.011));
#1371=CARTESIAN_POINT('',(-0.0555448822377232,-0.00961583490757725,0.011));
#1372=CARTESIAN_POINT('',(-0.061014860204665,0.00137217151686222,0.011));
#1373=CARTESIAN_POINT('',(-0.0591613928410292,-0.0146440167552648,0.011));
#1374=CARTESIAN_POINT('',(-0.053669058650035,-0.0175068871281032,0.011));
#1375=CARTESIAN_POINT('',(-0.05,-0.0191,0.011));
#1376=CARTESIAN_POINT('',(-0.0466690169362012,-0.0168853777232481,0.011));
#1377=CARTESIAN_POINT('',(-0.0419660377626841,-0.0143433449186609,0.011));
#1378=CARTESIAN_POINT('',(-0.0447572716506058,-0.00978385401845604,0.011));
#1379=CARTESIAN_POINT('',(-0.05,2.38524477946811E-18,0.011));
#1380=CARTESIAN_POINT('',(-0.044757755930786,0.00978411350704754,0.011));
#1381=CARTESIAN_POINT('',(-0.0560662726758355,0.0253748866715324,0.011));
#1382=CARTESIAN_POINT('',(-0.0557134472064611,0.0213903878496884,0.011));
#1383=CARTESIAN_POINT('',(-0.0542759976854779,0.016195913890145,0.011));
#1384=CARTESIAN_POINT('',(-0.0479300526148747,0.0115996332822542,0.011));
#1385=CARTESIAN_POINT('',(-0.0440831245361938,0.00939151663714696,0.011));
#1386=CARTESIAN_POINT('',(-0.0558749398164675,0.0236189113125501,0.011));
#1387=CARTESIAN_POINT('',(-0.0410065403900126,0.0256015102370412,0.011));
#1388=CARTESIAN_POINT('',(-0.0560013769242132,0.0259950547867456,0.011));
#1389=CARTESIAN_POINT('',(-0.06,0.0261,0.011));
#1390=CARTESIAN_POINT('',(-0.0560662726758355,0.0268251133284676,0.011));
#1391=CARTESIAN_POINT('',(-0.05610215195476,0.0269834206695181,0.011));
#1392=CARTESIAN_POINT('',(-0.0561380312336844,0.0271417280105685,0.011));
#1393=CARTESIAN_POINT('',(0.0108082692243684,0.0530173242955018,0.011));
#1394=CARTESIAN_POINT('',(-0.056421268748307,0.027886807943836,0.011));
#1395=CARTESIAN_POINT('',(-0.06,0.0261,0.011));
#1396=CARTESIAN_POINT('',(-0.0637943549217215,0.0248339546895912,0.011));
#1397=CARTESIAN_POINT('',(-0.0637943549217215,0.0248339546895912,0.011));
#1398=CARTESIAN_POINT('',(-0.0625096818168397,0.018956561554897,0.011));
#1399=CARTESIAN_POINT('',(-0.0604762820129124,0.00875241743970192,0.011));
#1400=CARTESIAN_POINT('',(-0.0608832420852958,0.00352082845893892,0.011));
#1401=CARTESIAN_POINT('',(-0.0611,-1.35709134940714E-18,0.011));
#1402=CARTESIAN_POINT('',(-0.06,0.0261,0.011));
#1403=CARTESIAN_POINT('',(-0.0609783298380362,0.0248339546895913,0.011));
#1404=CARTESIAN_POINT('',(-0.0608035496951669,0.0247164148427374,0.011));
#1405=CARTESIAN_POINT('',(-0.0685834804693682,0.0133364820704703,0.011));
#1406=CARTESIAN_POINT('',(-0.05,-0.0191,0.011));
#1407=CARTESIAN_POINT('',(-0.0516,-0.0191,0.011));
#1408=CARTESIAN_POINT('',(-0.05,2.38524477946811E-18,0.01));
#1409=CARTESIAN_POINT('',(-0.0555448822377232,-0.00961583490757725,0.006));
#1410=CARTESIAN_POINT('',(-0.0555448822377232,-0.00961583490757725,0.006));
#1411=CARTESIAN_POINT('',(-0.061014860204665,0.00137217151686222,0.006));
#1412=CARTESIAN_POINT('',(-0.061014860204665,0.00137217151686216,0.006));
#1413=CARTESIAN_POINT('',(-0.05,2.38524477946811E-18,0.006));
#1414=CARTESIAN_POINT('',(-0.044757755930786,0.00978411350704754,0.006));
#1415=CARTESIAN_POINT('',(-0.044757755930786,0.00978411350704754,0.006));
#1416=CARTESIAN_POINT('',(-0.0447572716506058,-0.00978385401845604,0.006));
#1417=CARTESIAN_POINT('',(-0.0447572716506058,-0.00978385401845604,0.006));
#1418=CARTESIAN_POINT('',(-0.05,2.38524477946811E-18,0.006));
#1419=CARTESIAN_POINT('',(-0.05,2.38524477946811E-18,-0.011));
#1420=CARTESIAN_POINT('',(-0.0611,2.38524477946811E-18,-0.011));
#1421=CARTESIAN_POINT('',(-0.05,-0.00935,-0.011));
#1422=CARTESIAN_POINT('',(-0.05,2.38524477946811E-18,-0.011));
#1423=CARTESIAN_POINT('',(-0.05785,2.38524477946811E-18,-0.011));
#1424=CARTESIAN_POINT('',(-0.05,2.38524477946811E-18,-0.0071));
#1425=CARTESIAN_POINT('',(-0.05,2.38524477946811E-18,0.00685));
#1426=CARTESIAN_POINT('',(-0.05,2.38524477946811E-18,-0.011));
#1427=CARTESIAN_POINT('',(-0.05,2.38524477946811E-18,0.01075));
#1428=CARTESIAN_POINT('',(-0.06,0.0261,0.006));
#1429=CARTESIAN_POINT('',(-0.06,0.0261,0.006));
#1430=CARTESIAN_POINT('',(-0.0560662726758355,0.0268251133284676,0.006));
#1431=CARTESIAN_POINT('',(-0.0560013769242132,0.0259950547867456,0.006));
#1432=CARTESIAN_POINT('',(-0.0560662726758355,0.0268251133284676,0.006));
#1433=CARTESIAN_POINT('',(-0.0560013769242132,0.0259950547867456,0.006));
#1434=CARTESIAN_POINT('',(-0.0558749398161742,0.0236189113103503,0.006));
#1435=CARTESIAN_POINT('',(-0.0558749398161742,0.0236189113103503,0.011));
#1436=CARTESIAN_POINT('',(-0.0556499443793976,0.0219315695187342,0.006));
#1437=CARTESIAN_POINT('',(-0.0556499443793976,0.0219315695187342,0.011));
#1438=CARTESIAN_POINT('',(-0.0550058266517774,0.0191672321993003,0.006));
#1439=CARTESIAN_POINT('',(-0.0550058266517774,0.0191672321993003,0.011));
#1440=CARTESIAN_POINT('',(-0.0529064756028332,0.0158705754183959,0.006));
#1441=CARTESIAN_POINT('',(-0.0529064756028332,0.0158705754183959,0.011));
#1442=CARTESIAN_POINT('',(-0.0493585075587841,0.012690611908827,0.006));
#1443=CARTESIAN_POINT('',(-0.0493585075587841,0.012690611908827,0.011));
#1444=CARTESIAN_POINT('',(-0.046355540506908,0.0107270575721584,0.006));
#1445=CARTESIAN_POINT('',(-0.046355540506908,0.0107270575721584,0.011));
#1446=CARTESIAN_POINT('',(-0.0447577559307854,0.00978411350704721,0.006));
#1447=CARTESIAN_POINT('',(-0.0447577559307854,0.00978411350704721,0.011));
#1448=CARTESIAN_POINT('',(-0.0560662726758355,0.0253748866715324,0.006));
#1449=CARTESIAN_POINT('',(-0.0557134472064611,0.0213903878496884,0.006));
#1450=CARTESIAN_POINT('',(-0.0542759976854779,0.016195913890145,0.006));
#1451=CARTESIAN_POINT('',(-0.0479300526148747,0.0115996332822542,0.006));
#1452=CARTESIAN_POINT('',(-0.0440831245361938,0.00939151663714696,0.006));
#1453=CARTESIAN_POINT('',(-0.0558749398164675,0.0236189113125501,0.006));
#1454=CARTESIAN_POINT('',(-0.0558749398164673,0.0236189113125487,0.011));
#1455=CARTESIAN_POINT('',(-0.0637943549217215,0.0248339546895912,0.006));
#1456=CARTESIAN_POINT('',(-0.0637943549217215,0.0248339546895912,0.011));
#1457=CARTESIAN_POINT('',(-0.0632679950513475,0.0224258526776795,0.006));
#1458=CARTESIAN_POINT('',(-0.0632679950513475,0.0224258526776795,0.011));
#1459=CARTESIAN_POINT('',(-0.0625075754078405,0.01881647624973,0.006));
#1460=CARTESIAN_POINT('',(-0.0625075754078405,0.01881647624973,0.011));
#1461=CARTESIAN_POINT('',(-0.061694670468847,0.0143472237570601,0.006));
#1462=CARTESIAN_POINT('',(-0.061694670468847,0.0143472237570601,0.011));
#1463=CARTESIAN_POINT('',(-0.0612205971764237,0.0112489054004202,0.006));
#1464=CARTESIAN_POINT('',(-0.0612205971764237,0.0112489054004202,0.011));
#1465=CARTESIAN_POINT('',(-0.0609197982877498,0.00849699436665472,0.006));
#1466=CARTESIAN_POINT('',(-0.0609197982877498,0.00849699436665472,0.011));
#1467=CARTESIAN_POINT('',(-0.0607868405861203,0.00535789104291284,0.006));
#1468=CARTESIAN_POINT('',(-0.0607868405861203,0.00535789104291284,0.011));
#1469=CARTESIAN_POINT('',(-0.0609054723773855,0.00314942442720584,0.006));
#1470=CARTESIAN_POINT('',(-0.0609054723773855,0.00314942442720584,0.011));
#1471=CARTESIAN_POINT('',(-0.0610148602045894,0.00137217151808938,0.006));
#1472=CARTESIAN_POINT('',(-0.0610148602045894,0.00137217151808938,0.011));
#1473=CARTESIAN_POINT('',(-0.0637943549217215,0.0248339546895912,0.006));
#1474=CARTESIAN_POINT('',(-0.0637943549217215,0.0248339546895912,0.006));
#1475=CARTESIAN_POINT('',(-0.0637943549217215,0.0248339546895912,0.006));
#1476=CARTESIAN_POINT('',(-0.0625096818168397,0.018956561554897,0.006));
#1477=CARTESIAN_POINT('',(-0.0604762820129124,0.00875241743970192,0.006));
#1478=CARTESIAN_POINT('',(-0.0608832420852958,0.00352082845893892,0.006));
#1479=CARTESIAN_POINT('',(-0.0611,-1.35709134940714E-18,0.006));
#1480=CARTESIAN_POINT('',(-0.06,0.0261,0.006));
#1481=CARTESIAN_POINT('',(-0.056421268748307,0.027886807943836,0.006));
#1482=CARTESIAN_POINT('',(-0.056421268748307,0.027886807943836,0.006));
#1483=CARTESIAN_POINT('',(-0.06,0.0261,0.006));
#1484=CARTESIAN_POINT('',(0.0108082692243684,0.0530173242955018,0.006));
#1485=CARTESIAN_POINT('',(-0.0561380312336844,0.0271417280105685,0.006));
#1486=CARTESIAN_POINT('',(-0.0561380312336844,0.0271417280105685,0.006));
#1487=CARTESIAN_POINT('',(0.0108082692243684,0.0530173242955018,0.006));
#1488=CARTESIAN_POINT('',(-0.06,0.0261,0.006));
#1489=CARTESIAN_POINT('',(-0.0609783298380362,0.0248339546895913,0.006));
#1490=CARTESIAN_POINT('',(-0.0609783298380362,0.0248339546895913,0.006));
#1491=CARTESIAN_POINT('',(-0.06,0.0261,0.006));
#1492=CARTESIAN_POINT('',(-0.0608035496951669,0.0247164148427374,0.006));
#1493=CARTESIAN_POINT('',(-0.0608035496951669,0.0247164148427374,0.006));
#1494=CARTESIAN_POINT('',(-0.0685834804693682,0.0133364820704703,0.006));
#1495=CARTESIAN_POINT('',(-0.0685834804693682,0.0133364820704703,0.006));
#1496=CARTESIAN_POINT('',(-0.0561380312336844,0.0271417280105685,0.006));
#1497=CARTESIAN_POINT('',(-0.05610215195476,0.0269834206695181,0.006));
#1498=CARTESIAN_POINT('',(-0.05145,0.0035,0.006));
#1499=CARTESIAN_POINT('',(-0.0410065403900126,0.0256015102370412,0.006));
#1500=CARTESIAN_POINT('',(-0.0591613928410292,-0.0146440167552648,0.006));
#1501=CARTESIAN_POINT('',(-0.0591613928410292,-0.0146440167552648,0.006));
#1502=CARTESIAN_POINT('',(-0.053669058650035,-0.0175068871281032,0.006));
#1503=CARTESIAN_POINT('',(-0.053669058650035,-0.0175068871281032,0.006));
#1504=CARTESIAN_POINT('',(-0.0419660377626841,-0.0143433449186609,0.006));
#1505=CARTESIAN_POINT('',(-0.0466690169362012,-0.0168853777232481,0.006));
#1506=CARTESIAN_POINT('',(-0.0466690169362012,-0.0168853777232481,0.006));
#1507=CARTESIAN_POINT('',(-0.0419660377626841,-0.0143433449186609,0.006));
#1508=CARTESIAN_POINT('',(-0.05,-0.0191,0.006));
#1509=CARTESIAN_POINT('',(-0.05,-0.0191,0.006));
#1510=CARTESIAN_POINT('',(-0.05,-0.0191,0.006));
#1511=CARTESIAN_POINT('',(-0.05,-0.0191,0.006));
#1512=CARTESIAN_POINT('',(-0.0516,-0.0191,0.006));
#1513=CARTESIAN_POINT('',(-0.05145,0.0035,0.006));
#1514=CARTESIAN_POINT('',(-0.05,2.38524477946811E-18,0.00615));
#1515=CARTESIAN_POINT('',(-0.05,2.38524477946811E-18,-0.00615));
#1516=CARTESIAN_POINT('',(-0.0410065403900126,0.0256015102370412,0.0085));
#1517=CARTESIAN_POINT('',(0.,0.,0.));
#1518=CARTESIAN_POINT('',(0.,2.38524477946811E-18,0.01));
#1519=CARTESIAN_POINT('',(0.,2.38524477946811E-18,-0.0071));
#1520=CARTESIAN_POINT('',(-0.0076,2.38524477946811E-18,-0.0071));
#1521=CARTESIAN_POINT('',(0.,2.38524477946811E-18,-0.01075));
#1522=CARTESIAN_POINT('',(0.0076,2.38524477946811E-18,-0.01075));
#1523=CARTESIAN_POINT('',(0.,-0.0071,-0.00685));
#1524=CARTESIAN_POINT('',(0.,2.38524477946811E-18,-0.00685));
#1525=CARTESIAN_POINT('',(-0.0073,2.38524477946811E-18,-0.00685));
#1526=CARTESIAN_POINT('',(0.,2.38524477946811E-18,-0.00685));
#1527=CARTESIAN_POINT('',(-0.00735,2.38524477946811E-18,-0.00685));
#1528=CARTESIAN_POINT('',(0.,2.38524477946811E-18,0.01));
#1529=CARTESIAN_POINT('',(0.,2.38524477946811E-18,0.00615));
#1530=CARTESIAN_POINT('',(-0.0066,2.38524477946811E-18,0.00615));
#1531=CARTESIAN_POINT('',(0.,2.38524477946811E-18,-0.00615));
#1532=CARTESIAN_POINT('',(-0.0066,2.38524477946811E-18,-0.00615));
#1533=CARTESIAN_POINT('',(0.,-0.0071,0.00685));
#1534=CARTESIAN_POINT('',(0.,2.38524477946811E-18,0.00685));
#1535=CARTESIAN_POINT('',(-0.0073,2.38524477946811E-18,0.00685));
#1536=CARTESIAN_POINT('',(0.,2.38524477946811E-18,0.00685));
#1537=CARTESIAN_POINT('',(-0.00735,2.38524477946811E-18,0.00685));
#1538=CARTESIAN_POINT('',(0.,2.38524477946811E-18,0.01));
#1539=CARTESIAN_POINT('',(0.,2.38524477946811E-18,0.0071));
#1540=CARTESIAN_POINT('',(-0.0076,2.38524477946811E-18,0.0071));
#1541=CARTESIAN_POINT('',(0.,2.38524477946811E-18,0.01075));
#1542=CARTESIAN_POINT('',(0.0076,2.38524477946811E-18,0.01075));
#1543=CARTESIAN_POINT('',(0.,-0.00935,0.011));
#1544=CARTESIAN_POINT('',(0.,2.38524477946811E-18,0.011));
#1545=CARTESIAN_POINT('',(0.00785,2.38524477946811E-18,0.011));
#1546=CARTESIAN_POINT('',(0.,2.38524477946811E-18,0.011));
#1547=CARTESIAN_POINT('',(0.00554488223772324,-0.00961583490757725,0.011));
#1548=CARTESIAN_POINT('',(0.011014860204665,0.00137217151686222,0.011));
#1549=CARTESIAN_POINT('',(0.0137943549217215,0.0248339546895912,0.011));
#1550=CARTESIAN_POINT('',(0.0125096818168397,0.018956561554897,0.011));
#1551=CARTESIAN_POINT('',(0.0104762820129124,0.00875241743970192,0.011));
#1552=CARTESIAN_POINT('',(0.0108832420852958,0.00352082845893892,0.011));
#1553=CARTESIAN_POINT('',(0.0111,-1.35709134940714E-18,0.011));
#1554=CARTESIAN_POINT('',(0.0137943549217215,0.0248339546895912,0.011));
#1555=CARTESIAN_POINT('',(0.01,0.0261,0.011));
#1556=CARTESIAN_POINT('',(0.00642126874830695,0.027886807943836,0.011));
#1557=CARTESIAN_POINT('',(-0.0608082692243685,0.0530173242955018,0.011));
#1558=CARTESIAN_POINT('',(0.00613803123368444,0.0271417280105685,0.011));
#1559=CARTESIAN_POINT('',(0.00610215195475996,0.0269834206695181,0.011));
#1560=CARTESIAN_POINT('',(0.00606627267583547,0.0268251133284676,0.011));
#1561=CARTESIAN_POINT('',(0.01,0.0261,0.011));
#1562=CARTESIAN_POINT('',(0.00600137692421317,0.0259950547867456,0.011));
#1563=CARTESIAN_POINT('',(-0.00899345960998746,0.0256015102370412,0.011));
#1564=CARTESIAN_POINT('',(0.0058749398164675,0.0236189113125501,0.011));
#1565=CARTESIAN_POINT('',(0.00606627267583547,0.0253748866715324,0.011));
#1566=CARTESIAN_POINT('',(0.00571344720646114,0.0213903878496884,0.011));
#1567=CARTESIAN_POINT('',(0.00427599768547789,0.016195913890145,0.011));
#1568=CARTESIAN_POINT('',(-0.00206994738512527,0.0115996332822542,0.011));
#1569=CARTESIAN_POINT('',(-0.0059168754638062,0.00939151663714696,0.011));
#1570=CARTESIAN_POINT('',(-0.00524224406921405,0.00978411350704754,0.011));
#1571=CARTESIAN_POINT('',(0.,2.38524477946811E-18,0.011));
#1572=CARTESIAN_POINT('',(-0.0052427283493942,-0.00978385401845604,0.011));
#1573=CARTESIAN_POINT('',(-0.00803396223731586,-0.0143433449186609,0.011));
#1574=CARTESIAN_POINT('',(-0.00333098306379877,-0.0168853777232481,0.011));
#1575=CARTESIAN_POINT('',(1.21972744404619E-18,-0.0191,0.011));
#1576=CARTESIAN_POINT('',(0.003669058650035,-0.0175068871281032,0.011));
#1577=CARTESIAN_POINT('',(0.00916139284102917,-0.0146440167552648,0.011));
#1578=CARTESIAN_POINT('',(0.0100000000000001,0.0261,0.011));
#1579=CARTESIAN_POINT('',(0.0109783298380362,0.0248339546895913,0.011));
#1580=CARTESIAN_POINT('',(0.0108035496951669,0.0247164148427374,0.011));
#1581=CARTESIAN_POINT('',(0.0185834804693681,0.0133364820704703,0.011));
#1582=CARTESIAN_POINT('',(2.16840434497101E-19,-0.0191,0.011));
#1583=CARTESIAN_POINT('',(0.0016,-0.0191,0.011));
#1584=CARTESIAN_POINT('',(0.,2.38524477946811E-18,0.01));
#1585=CARTESIAN_POINT('',(0.00554488223772324,-0.00961583490757725,0.006));
#1586=CARTESIAN_POINT('',(0.00554488223772324,-0.00961583490757725,0.006));
#1587=CARTESIAN_POINT('',(0.,2.38524477946811E-18,0.006));
#1588=CARTESIAN_POINT('',(-0.00524272834939419,-0.00978385401845604,0.006));
#1589=CARTESIAN_POINT('',(-0.0052427283493942,-0.00978385401845604,0.006));
#1590=CARTESIAN_POINT('',(-0.00524224406921405,0.00978411350704754,0.006));
#1591=CARTESIAN_POINT('',(-0.00524224406921405,0.00978411350704754,0.006));
#1592=CARTESIAN_POINT('',(0.,2.38524477946811E-18,0.006));
#1593=CARTESIAN_POINT('',(0.011014860204665,0.00137217151686216,0.006));
#1594=CARTESIAN_POINT('',(0.011014860204665,0.00137217151686222,0.006));
#1595=CARTESIAN_POINT('',(0.,2.38524477946811E-18,-0.011));
#1596=CARTESIAN_POINT('',(0.0111,2.38524477946811E-18,-0.011));
#1597=CARTESIAN_POINT('',(0.,-0.00935,-0.011));
#1598=CARTESIAN_POINT('',(0.,2.38524477946811E-18,-0.011));
#1599=CARTESIAN_POINT('',(0.00785,2.38524477946811E-18,-0.011));
#1600=CARTESIAN_POINT('',(0.,2.38524477946811E-18,-0.0071));
#1601=CARTESIAN_POINT('',(0.,2.38524477946811E-18,0.00685));
#1602=CARTESIAN_POINT('',(0.,2.38524477946811E-18,-0.011));
#1603=CARTESIAN_POINT('',(0.,2.38524477946811E-18,0.01075));
#1604=CARTESIAN_POINT('',(0.01,0.0261,0.006));
#1605=CARTESIAN_POINT('',(0.01,0.0261,0.006));
#1606=CARTESIAN_POINT('',(0.00606627267583547,0.0268251133284676,0.006));
#1607=CARTESIAN_POINT('',(0.00600137692421317,0.0259950547867456,0.006));
#1608=CARTESIAN_POINT('',(0.00600137692421317,0.0259950547867456,0.006));
#1609=CARTESIAN_POINT('',(0.00606627267583547,0.0268251133284676,0.006));
#1610=CARTESIAN_POINT('',(0.00587493981617418,0.0236189113103503,0.006));
#1611=CARTESIAN_POINT('',(0.00587493981617418,0.0236189113103503,0.011));
#1612=CARTESIAN_POINT('',(0.00564994437939765,0.0219315695187342,0.006));
#1613=CARTESIAN_POINT('',(0.00564994437939765,0.0219315695187342,0.011));
#1614=CARTESIAN_POINT('',(0.00500582665177742,0.0191672321993002,0.006));
#1615=CARTESIAN_POINT('',(0.00500582665177742,0.0191672321993002,0.011));
#1616=CARTESIAN_POINT('',(0.00290647560283319,0.0158705754183959,0.006));
#1617=CARTESIAN_POINT('',(0.00290647560283319,0.0158705754183959,0.011));
#1618=CARTESIAN_POINT('',(-0.000641492441215869,0.012690611908827,0.006));
#1619=CARTESIAN_POINT('',(-0.000641492441215869,0.012690611908827,0.011));
#1620=CARTESIAN_POINT('',(-0.00364445949309199,0.0107270575721584,0.006));
#1621=CARTESIAN_POINT('',(-0.00364445949309199,0.0107270575721584,0.011));
#1622=CARTESIAN_POINT('',(-0.00524224406921461,0.00978411350704721,0.006));
#1623=CARTESIAN_POINT('',(-0.00524224406921461,0.00978411350704721,0.011));
#1624=CARTESIAN_POINT('',(0.00587493981646732,0.0236189113125487,0.011));
#1625=CARTESIAN_POINT('',(0.0058749398164675,0.0236189113125501,0.006));
#1626=CARTESIAN_POINT('',(0.00606627267583547,0.0253748866715324,0.006));
#1627=CARTESIAN_POINT('',(0.00571344720646114,0.0213903878496884,0.006));
#1628=CARTESIAN_POINT('',(0.00427599768547789,0.016195913890145,0.006));
#1629=CARTESIAN_POINT('',(-0.00206994738512527,0.0115996332822542,0.006));
#1630=CARTESIAN_POINT('',(-0.0059168754638062,0.00939151663714696,0.006));
#1631=CARTESIAN_POINT('',(0.0137943549217215,0.0248339546895912,0.006));
#1632=CARTESIAN_POINT('',(0.0137943549217215,0.0248339546895912,0.011));
#1633=CARTESIAN_POINT('',(0.0132679950513475,0.0224258526776795,0.006));
#1634=CARTESIAN_POINT('',(0.0132679950513475,0.0224258526776795,0.011));
#1635=CARTESIAN_POINT('',(0.0125075754078405,0.01881647624973,0.006));
#1636=CARTESIAN_POINT('',(0.0125075754078405,0.01881647624973,0.011));
#1637=CARTESIAN_POINT('',(0.011694670468847,0.0143472237570601,0.006));
#1638=CARTESIAN_POINT('',(0.011694670468847,0.0143472237570601,0.011));
#1639=CARTESIAN_POINT('',(0.0112205971764237,0.0112489054004202,0.006));
#1640=CARTESIAN_POINT('',(0.0112205971764237,0.0112489054004202,0.011));
#1641=CARTESIAN_POINT('',(0.0109197982877497,0.00849699436665473,0.006));
#1642=CARTESIAN_POINT('',(0.0109197982877497,0.00849699436665473,0.011));
#1643=CARTESIAN_POINT('',(0.0107868405861203,0.00535789104291285,0.006));
#1644=CARTESIAN_POINT('',(0.0107868405861203,0.00535789104291285,0.011));
#1645=CARTESIAN_POINT('',(0.0109054723773855,0.00314942442720586,0.006));
#1646=CARTESIAN_POINT('',(0.0109054723773855,0.00314942442720586,0.011));
#1647=CARTESIAN_POINT('',(0.0110148602045894,0.00137217151808939,0.006));
#1648=CARTESIAN_POINT('',(0.0110148602045894,0.00137217151808939,0.011));
#1649=CARTESIAN_POINT('',(0.0137943549217215,0.0248339546895912,0.006));
#1650=CARTESIAN_POINT('',(0.0125096818168397,0.018956561554897,0.006));
#1651=CARTESIAN_POINT('',(0.0104762820129124,0.00875241743970192,0.006));
#1652=CARTESIAN_POINT('',(0.0108832420852958,0.00352082845893892,0.006));
#1653=CARTESIAN_POINT('',(0.0111,-1.35709134940714E-18,0.006));
#1654=CARTESIAN_POINT('',(0.0137943549217215,0.0248339546895912,0.006));
#1655=CARTESIAN_POINT('',(0.0137943549217215,0.0248339546895912,0.006));
#1656=CARTESIAN_POINT('',(0.01,0.0261,0.006));
#1657=CARTESIAN_POINT('',(0.01,0.0261,0.006));
#1658=CARTESIAN_POINT('',(0.00642126874830695,0.027886807943836,0.006));
#1659=CARTESIAN_POINT('',(0.00642126874830695,0.027886807943836,0.006));
#1660=CARTESIAN_POINT('',(-0.0608082692243685,0.0530173242955018,0.006));
#1661=CARTESIAN_POINT('',(-0.0608082692243685,0.0530173242955018,0.006));
#1662=CARTESIAN_POINT('',(0.00613803123368444,0.0271417280105685,0.006));
#1663=CARTESIAN_POINT('',(0.00613803123368444,0.0271417280105685,0.006));
#1664=CARTESIAN_POINT('',(0.0100000000000001,0.0261,0.006));
#1665=CARTESIAN_POINT('',(0.0108035496951669,0.0247164148427374,0.006));
#1666=CARTESIAN_POINT('',(0.0108035496951669,0.0247164148427374,0.006));
#1667=CARTESIAN_POINT('',(0.0100000000000001,0.0261,0.006));
#1668=CARTESIAN_POINT('',(0.0109783298380362,0.0248339546895913,0.006));
#1669=CARTESIAN_POINT('',(0.0109783298380362,0.0248339546895913,0.006));
#1670=CARTESIAN_POINT('',(0.0185834804693681,0.0133364820704703,0.006));
#1671=CARTESIAN_POINT('',(0.0185834804693681,0.0133364820704703,0.006));
#1672=CARTESIAN_POINT('',(0.00613803123368444,0.0271417280105685,0.006));
#1673=CARTESIAN_POINT('',(0.00610215195475996,0.0269834206695181,0.006));
#1674=CARTESIAN_POINT('',(0.00145,0.0035,0.006));
#1675=CARTESIAN_POINT('',(-0.00899345960998746,0.0256015102370412,0.006));
#1676=CARTESIAN_POINT('',(0.00916139284102917,-0.0146440167552648,0.006));
#1677=CARTESIAN_POINT('',(0.003669058650035,-0.0175068871281032,0.006));
#1678=CARTESIAN_POINT('',(0.003669058650035,-0.0175068871281032,0.006));
#1679=CARTESIAN_POINT('',(0.00916139284102917,-0.0146440167552648,0.006));
#1680=CARTESIAN_POINT('',(-0.00803396223731586,-0.0143433449186609,0.006));
#1681=CARTESIAN_POINT('',(-0.00803396223731586,-0.0143433449186609,0.006));
#1682=CARTESIAN_POINT('',(-0.00333098306379877,-0.0168853777232481,0.006));
#1683=CARTESIAN_POINT('',(-0.00333098306379877,-0.0168853777232481,0.006));
#1684=CARTESIAN_POINT('',(1.21972744404619E-18,-0.0191,0.006));
#1685=CARTESIAN_POINT('',(1.21972744404619E-18,-0.0191,0.006));
#1686=CARTESIAN_POINT('',(2.16840434497101E-19,-0.0191,0.006));
#1687=CARTESIAN_POINT('',(2.16840434497101E-19,-0.0191,0.006));
#1688=CARTESIAN_POINT('',(0.0016,-0.0191,0.006));
#1689=CARTESIAN_POINT('',(0.00145,0.0035,0.006));
#1690=CARTESIAN_POINT('',(0.,2.38524477946811E-18,0.00615));
#1691=CARTESIAN_POINT('',(0.,2.38524477946811E-18,-0.00615));
#1692=CARTESIAN_POINT('',(-0.00899345960998746,0.0256015102370412,0.0085));
#1693=MECHANICAL_DESIGN_GEOMETRIC_PRESENTATION_REPRESENTATION('',(#898),
#1695);
#1694=MECHANICAL_DESIGN_GEOMETRIC_PRESENTATION_REPRESENTATION('',(#899),
#1696);
#1695=(
GEOMETRIC_REPRESENTATION_CONTEXT(3)
GLOBAL_UNCERTAINTY_ASSIGNED_CONTEXT((#1697))
GLOBAL_UNIT_ASSIGNED_CONTEXT((#1703,#1701,#1699))
REPRESENTATION_CONTEXT('Part 2','TOP_LEVEL_ASSEMBLY_PART')
);
#1696=(
GEOMETRIC_REPRESENTATION_CONTEXT(3)
GLOBAL_UNCERTAINTY_ASSIGNED_CONTEXT((#1698))
GLOBAL_UNIT_ASSIGNED_CONTEXT((#1704,#1702,#1700))
REPRESENTATION_CONTEXT('Part 1','TOP_LEVEL_ASSEMBLY_PART')
);
#1697=UNCERTAINTY_MEASURE_WITH_UNIT(LENGTH_MEASURE(2.E-5),#1703,
'DISTANCE_ACCURACY_VALUE','Maximum Tolerance applied to model');
#1698=UNCERTAINTY_MEASURE_WITH_UNIT(LENGTH_MEASURE(2.E-5),#1704,
'DISTANCE_ACCURACY_VALUE','Maximum Tolerance applied to model');
#1699=(
NAMED_UNIT(*)
SI_UNIT($,.STERADIAN.)
SOLID_ANGLE_UNIT()
);
#1700=(
NAMED_UNIT(*)
SI_UNIT($,.STERADIAN.)
SOLID_ANGLE_UNIT()
);
#1701=(
NAMED_UNIT(*)
PLANE_ANGLE_UNIT()
SI_UNIT($,.RADIAN.)
);
#1702=(
NAMED_UNIT(*)
PLANE_ANGLE_UNIT()
SI_UNIT($,.RADIAN.)
);
#1703=(
LENGTH_UNIT()
NAMED_UNIT(*)
SI_UNIT($,.METRE.)
);
#1704=(
LENGTH_UNIT()
NAMED_UNIT(*)
SI_UNIT($,.METRE.)
);
#1705=PRODUCT_DEFINITION_SHAPE('','',#1707);
#1706=PRODUCT_DEFINITION_SHAPE('','',#1708);
#1707=PRODUCT_DEFINITION('','',#1711,#1709);
#1708=PRODUCT_DEFINITION('','',#1712,#1710);
#1709=PRODUCT_DEFINITION_CONTEXT('',#1723,'design');
#1710=PRODUCT_DEFINITION_CONTEXT('',#1724,'design');
#1711=PRODUCT_DEFINITION_FORMATION_WITH_SPECIFIED_SOURCE('','',#1715,
 .NOT_KNOWN.);
#1712=PRODUCT_DEFINITION_FORMATION_WITH_SPECIFIED_SOURCE('','',#1716,
 .NOT_KNOWN.);
#1713=PRODUCT_RELATED_PRODUCT_CATEGORY('','',(#1715));
#1714=PRODUCT_RELATED_PRODUCT_CATEGORY('','',(#1716));
#1715=PRODUCT('Part 2','Part 2','Part 2',(#1719));
#1716=PRODUCT('Part 1','Part 1','Part 1',(#1720));
#1717=PRODUCT_CATEGORY('','');
#1718=PRODUCT_CATEGORY('','');
#1719=PRODUCT_CONTEXT('',#1723,'mechanical');
#1720=PRODUCT_CONTEXT('',#1724,'mechanical');
#1721=APPLICATION_PROTOCOL_DEFINITION('international standard',
'ap242_managed_model_based_3d_engineering',2020,#1723);
#1722=APPLICATION_PROTOCOL_DEFINITION('international standard',
'ap242_managed_model_based_3d_engineering',2020,#1724);
#1723=APPLICATION_CONTEXT('managed model based 3d engineering');
#1724=APPLICATION_CONTEXT('managed model based 3d engineering');
ENDSEC;
END-ISO-10303-21;
