ISO-10303-21;
HEADER;
/* Generated by software containing ST-Developer
 * from STEP Tools, Inc. (www.steptools.com) 
 */
/* OPTION: using custom renumber hook */

FILE_DESCRIPTION(
/* description */ ('STEP AP242 Edition 2',
'CAx-IF Rec.Pracs.---Representation and Presentation of Product Manufa
cturing Information (PMI)---4.0---2014-10-13',
'CAx-IF Rec.Pracs.---3D Tessellated Geometry---0.4---2014-09-14','2;1',
'CAx-IF Rec.Pracs.---User Defined Attributes---1.5---2016-08-15'),
/* implementation_level */ '2;1');

FILE_NAME(
/* name */ 'Servo holder',
/* time_stamp */ '2026-09-29T21:26:22Z',
/* author */ (''),
/* organization */ (''),
/* preprocessor_version */ 'ST-DEVELOPER v20',
/* originating_system */ 'ONSHAPE BY PTC INC, 1.221',
/* authorisation */ '  ');

FILE_SCHEMA (('AP242_MANAGED_MODEL_BASED_3D_ENGINEERING_MIM_LF { 1 0 10303 442 3 1 4 }'));
ENDSEC;

DATA;
#10=SHAPE_REPRESENTATION_RELATIONSHIP('','',#879,#11);
#11=ADVANCED_BREP_SHAPE_REPRESENTATION('',(#877),#1453);
#12=ELLIPSE('',#938,0.00353553390593274,0.0025);
#13=ELLIPSE('',#939,0.00212132034355965,0.0015);
#14=ELLIPSE('',#940,0.00212132034355965,0.0015);
#15=ELLIPSE('',#941,0.00353553390593274,0.0025);
#16=ELLIPSE('',#943,0.00353553390593274,0.0025);
#17=ELLIPSE('',#944,0.00212132034355965,0.0015);
#18=ELLIPSE('',#945,0.00212132034355965,0.0015);
#19=ELLIPSE('',#946,0.00353553390593274,0.0025);
#20=CIRCLE('',#883,0.0016);
#21=CIRCLE('',#884,0.0016);
#22=CIRCLE('',#887,0.0016);
#23=CIRCLE('',#888,0.0016);
#24=CIRCLE('',#890,0.0005);
#25=CIRCLE('',#891,0.0005);
#26=CIRCLE('',#893,0.0016);
#27=CIRCLE('',#894,0.0016);
#28=CIRCLE('',#896,0.0016);
#29=CIRCLE('',#897,0.0016);
#30=CIRCLE('',#900,0.0005);
#31=CIRCLE('',#901,0.0005);
#32=CIRCLE('',#907,0.0015);
#33=CIRCLE('',#910,0.0015);
#34=CIRCLE('',#914,0.0015);
#35=CIRCLE('',#917,0.0015);
#36=CIRCLE('',#921,0.0016);
#37=CIRCLE('',#926,0.0016);
#38=CIRCLE('',#930,0.0016);
#39=CIRCLE('',#935,0.0016);
#40=CIRCLE('',#950,0.0015);
#41=CIRCLE('',#952,0.0015);
#42=CIRCLE('',#954,0.0015);
#43=CIRCLE('',#956,0.0015);
#44=CYLINDRICAL_SURFACE('',#882,0.0016);
#45=CYLINDRICAL_SURFACE('',#886,0.0016);
#46=CYLINDRICAL_SURFACE('',#892,0.0016);
#47=CYLINDRICAL_SURFACE('',#895,0.0016);
#48=CYLINDRICAL_SURFACE('',#927,0.0016);
#49=CYLINDRICAL_SURFACE('',#936,0.0016);
#50=CYLINDRICAL_SURFACE('',#947,0.0025);
#51=CYLINDRICAL_SURFACE('',#948,0.0025);
#52=CYLINDRICAL_SURFACE('',#949,0.0015);
#53=CYLINDRICAL_SURFACE('',#951,0.0015);
#54=CYLINDRICAL_SURFACE('',#953,0.0015);
#55=CYLINDRICAL_SURFACE('',#955,0.0015);
#56=CYLINDRICAL_SURFACE('',#957,0.0005);
#57=CYLINDRICAL_SURFACE('',#958,0.0005);
#58=ORIENTED_EDGE('',*,*,#290,.T.);
#59=ORIENTED_EDGE('',*,*,#291,.T.);
#60=ORIENTED_EDGE('',*,*,#292,.T.);
#61=ORIENTED_EDGE('',*,*,#293,.T.);
#62=ORIENTED_EDGE('',*,*,#294,.T.);
#63=ORIENTED_EDGE('',*,*,#295,.F.);
#64=ORIENTED_EDGE('',*,*,#296,.F.);
#65=ORIENTED_EDGE('',*,*,#297,.T.);
#66=ORIENTED_EDGE('',*,*,#298,.F.);
#67=ORIENTED_EDGE('',*,*,#299,.T.);
#68=ORIENTED_EDGE('',*,*,#300,.T.);
#69=ORIENTED_EDGE('',*,*,#301,.T.);
#70=ORIENTED_EDGE('',*,*,#302,.F.);
#71=ORIENTED_EDGE('',*,*,#303,.T.);
#72=ORIENTED_EDGE('',*,*,#304,.F.);
#73=ORIENTED_EDGE('',*,*,#305,.T.);
#74=ORIENTED_EDGE('',*,*,#306,.T.);
#75=ORIENTED_EDGE('',*,*,#307,.F.);
#76=ORIENTED_EDGE('',*,*,#308,.F.);
#77=ORIENTED_EDGE('',*,*,#309,.T.);
#78=ORIENTED_EDGE('',*,*,#310,.T.);
#79=ORIENTED_EDGE('',*,*,#311,.T.);
#80=ORIENTED_EDGE('',*,*,#312,.T.);
#81=ORIENTED_EDGE('',*,*,#313,.T.);
#82=ORIENTED_EDGE('',*,*,#314,.F.);
#83=ORIENTED_EDGE('',*,*,#315,.F.);
#84=ORIENTED_EDGE('',*,*,#316,.T.);
#85=ORIENTED_EDGE('',*,*,#317,.T.);
#86=ORIENTED_EDGE('',*,*,#318,.T.);
#87=ORIENTED_EDGE('',*,*,#319,.F.);
#88=ORIENTED_EDGE('',*,*,#320,.T.);
#89=ORIENTED_EDGE('',*,*,#321,.T.);
#90=ORIENTED_EDGE('',*,*,#322,.T.);
#91=ORIENTED_EDGE('',*,*,#323,.F.);
#92=ORIENTED_EDGE('',*,*,#324,.F.);
#93=ORIENTED_EDGE('',*,*,#325,.T.);
#94=ORIENTED_EDGE('',*,*,#326,.T.);
#95=ORIENTED_EDGE('',*,*,#327,.T.);
#96=ORIENTED_EDGE('',*,*,#328,.T.);
#97=ORIENTED_EDGE('',*,*,#329,.T.);
#98=ORIENTED_EDGE('',*,*,#330,.T.);
#99=ORIENTED_EDGE('',*,*,#331,.T.);
#100=ORIENTED_EDGE('',*,*,#332,.F.);
#101=ORIENTED_EDGE('',*,*,#333,.T.);
#102=ORIENTED_EDGE('',*,*,#324,.T.);
#103=ORIENTED_EDGE('',*,*,#334,.F.);
#104=ORIENTED_EDGE('',*,*,#330,.F.);
#105=ORIENTED_EDGE('',*,*,#328,.F.);
#106=ORIENTED_EDGE('',*,*,#335,.T.);
#107=ORIENTED_EDGE('',*,*,#336,.T.);
#108=ORIENTED_EDGE('',*,*,#337,.T.);
#109=ORIENTED_EDGE('',*,*,#338,.F.);
#110=ORIENTED_EDGE('',*,*,#339,.T.);
#111=ORIENTED_EDGE('',*,*,#340,.F.);
#112=ORIENTED_EDGE('',*,*,#341,.T.);
#113=ORIENTED_EDGE('',*,*,#332,.T.);
#114=ORIENTED_EDGE('',*,*,#342,.F.);
#115=ORIENTED_EDGE('',*,*,#343,.T.);
#116=ORIENTED_EDGE('',*,*,#310,.F.);
#117=ORIENTED_EDGE('',*,*,#344,.T.);
#118=ORIENTED_EDGE('',*,*,#338,.T.);
#119=ORIENTED_EDGE('',*,*,#345,.T.);
#120=ORIENTED_EDGE('',*,*,#340,.T.);
#121=ORIENTED_EDGE('',*,*,#346,.T.);
#122=ORIENTED_EDGE('',*,*,#326,.F.);
#123=ORIENTED_EDGE('',*,*,#347,.T.);
#124=ORIENTED_EDGE('',*,*,#348,.T.);
#125=ORIENTED_EDGE('',*,*,#349,.T.);
#126=ORIENTED_EDGE('',*,*,#350,.T.);
#127=ORIENTED_EDGE('',*,*,#351,.T.);
#128=ORIENTED_EDGE('',*,*,#352,.T.);
#129=ORIENTED_EDGE('',*,*,#353,.T.);
#130=ORIENTED_EDGE('',*,*,#354,.F.);
#131=ORIENTED_EDGE('',*,*,#355,.T.);
#132=ORIENTED_EDGE('',*,*,#354,.T.);
#133=ORIENTED_EDGE('',*,*,#356,.T.);
#134=ORIENTED_EDGE('',*,*,#315,.T.);
#135=ORIENTED_EDGE('',*,*,#357,.F.);
#136=ORIENTED_EDGE('',*,*,#358,.F.);
#137=ORIENTED_EDGE('',*,*,#314,.T.);
#138=ORIENTED_EDGE('',*,*,#359,.F.);
#139=ORIENTED_EDGE('',*,*,#360,.F.);
#140=ORIENTED_EDGE('',*,*,#357,.T.);
#141=ORIENTED_EDGE('',*,*,#313,.F.);
#142=ORIENTED_EDGE('',*,*,#361,.T.);
#143=ORIENTED_EDGE('',*,*,#352,.F.);
#144=ORIENTED_EDGE('',*,*,#362,.T.);
#145=ORIENTED_EDGE('',*,*,#359,.T.);
#146=ORIENTED_EDGE('',*,*,#355,.F.);
#147=ORIENTED_EDGE('',*,*,#358,.T.);
#148=ORIENTED_EDGE('',*,*,#360,.T.);
#149=ORIENTED_EDGE('',*,*,#362,.F.);
#150=ORIENTED_EDGE('',*,*,#331,.F.);
#151=ORIENTED_EDGE('',*,*,#320,.F.);
#152=ORIENTED_EDGE('',*,*,#363,.F.);
#153=ORIENTED_EDGE('',*,*,#364,.T.);
#154=ORIENTED_EDGE('',*,*,#365,.T.);
#155=ORIENTED_EDGE('',*,*,#319,.T.);
#156=ORIENTED_EDGE('',*,*,#366,.T.);
#157=ORIENTED_EDGE('',*,*,#367,.F.);
#158=ORIENTED_EDGE('',*,*,#368,.F.);
#159=ORIENTED_EDGE('',*,*,#363,.T.);
#160=ORIENTED_EDGE('',*,*,#367,.T.);
#161=ORIENTED_EDGE('',*,*,#369,.T.);
#162=ORIENTED_EDGE('',*,*,#370,.F.);
#163=ORIENTED_EDGE('',*,*,#371,.F.);
#164=ORIENTED_EDGE('',*,*,#370,.T.);
#165=ORIENTED_EDGE('',*,*,#372,.T.);
#166=ORIENTED_EDGE('',*,*,#321,.F.);
#167=ORIENTED_EDGE('',*,*,#365,.F.);
#168=ORIENTED_EDGE('',*,*,#373,.T.);
#169=ORIENTED_EDGE('',*,*,#364,.F.);
#170=ORIENTED_EDGE('',*,*,#368,.T.);
#171=ORIENTED_EDGE('',*,*,#371,.T.);
#172=ORIENTED_EDGE('',*,*,#373,.F.);
#173=ORIENTED_EDGE('',*,*,#329,.F.);
#174=ORIENTED_EDGE('',*,*,#305,.F.);
#175=ORIENTED_EDGE('',*,*,#374,.F.);
#176=ORIENTED_EDGE('',*,*,#375,.T.);
#177=ORIENTED_EDGE('',*,*,#376,.T.);
#178=ORIENTED_EDGE('',*,*,#308,.T.);
#179=ORIENTED_EDGE('',*,*,#307,.T.);
#180=ORIENTED_EDGE('',*,*,#377,.F.);
#181=ORIENTED_EDGE('',*,*,#378,.F.);
#182=ORIENTED_EDGE('',*,*,#379,.T.);
#183=ORIENTED_EDGE('',*,*,#380,.F.);
#184=ORIENTED_EDGE('',*,*,#304,.T.);
#185=ORIENTED_EDGE('',*,*,#379,.F.);
#186=ORIENTED_EDGE('',*,*,#381,.F.);
#187=ORIENTED_EDGE('',*,*,#374,.T.);
#188=ORIENTED_EDGE('',*,*,#306,.F.);
#189=ORIENTED_EDGE('',*,*,#376,.F.);
#190=ORIENTED_EDGE('',*,*,#382,.T.);
#191=ORIENTED_EDGE('',*,*,#377,.T.);
#192=ORIENTED_EDGE('',*,*,#375,.F.);
#193=ORIENTED_EDGE('',*,*,#381,.T.);
#194=ORIENTED_EDGE('',*,*,#378,.T.);
#195=ORIENTED_EDGE('',*,*,#382,.F.);
#196=ORIENTED_EDGE('',*,*,#383,.T.);
#197=ORIENTED_EDGE('',*,*,#380,.T.);
#198=ORIENTED_EDGE('',*,*,#383,.F.);
#199=ORIENTED_EDGE('',*,*,#294,.F.);
#200=ORIENTED_EDGE('',*,*,#384,.F.);
#201=ORIENTED_EDGE('',*,*,#385,.T.);
#202=ORIENTED_EDGE('',*,*,#386,.T.);
#203=ORIENTED_EDGE('',*,*,#298,.T.);
#204=ORIENTED_EDGE('',*,*,#296,.T.);
#205=ORIENTED_EDGE('',*,*,#387,.F.);
#206=ORIENTED_EDGE('',*,*,#388,.F.);
#207=ORIENTED_EDGE('',*,*,#389,.T.);
#208=ORIENTED_EDGE('',*,*,#390,.F.);
#209=ORIENTED_EDGE('',*,*,#297,.F.);
#210=ORIENTED_EDGE('',*,*,#389,.F.);
#211=ORIENTED_EDGE('',*,*,#391,.T.);
#212=ORIENTED_EDGE('',*,*,#384,.T.);
#213=ORIENTED_EDGE('',*,*,#295,.T.);
#214=ORIENTED_EDGE('',*,*,#386,.F.);
#215=ORIENTED_EDGE('',*,*,#392,.F.);
#216=ORIENTED_EDGE('',*,*,#387,.T.);
#217=ORIENTED_EDGE('',*,*,#385,.F.);
#218=ORIENTED_EDGE('',*,*,#391,.F.);
#219=ORIENTED_EDGE('',*,*,#388,.T.);
#220=ORIENTED_EDGE('',*,*,#392,.T.);
#221=ORIENTED_EDGE('',*,*,#393,.T.);
#222=ORIENTED_EDGE('',*,*,#390,.T.);
#223=ORIENTED_EDGE('',*,*,#393,.F.);
#224=ORIENTED_EDGE('',*,*,#394,.T.);
#225=ORIENTED_EDGE('',*,*,#395,.T.);
#226=ORIENTED_EDGE('',*,*,#290,.F.);
#227=ORIENTED_EDGE('',*,*,#396,.T.);
#228=ORIENTED_EDGE('',*,*,#397,.T.);
#229=ORIENTED_EDGE('',*,*,#348,.F.);
#230=ORIENTED_EDGE('',*,*,#398,.T.);
#231=ORIENTED_EDGE('',*,*,#399,.T.);
#232=ORIENTED_EDGE('',*,*,#300,.F.);
#233=ORIENTED_EDGE('',*,*,#400,.T.);
#234=ORIENTED_EDGE('',*,*,#401,.T.);
#235=ORIENTED_EDGE('',*,*,#350,.F.);
#236=ORIENTED_EDGE('',*,*,#398,.F.);
#237=ORIENTED_EDGE('',*,*,#349,.F.);
#238=ORIENTED_EDGE('',*,*,#397,.F.);
#239=ORIENTED_EDGE('',*,*,#335,.F.);
#240=ORIENTED_EDGE('',*,*,#401,.F.);
#241=ORIENTED_EDGE('',*,*,#317,.F.);
#242=ORIENTED_EDGE('',*,*,#394,.F.);
#243=ORIENTED_EDGE('',*,*,#351,.F.);
#244=ORIENTED_EDGE('',*,*,#361,.F.);
#245=ORIENTED_EDGE('',*,*,#312,.F.);
#246=ORIENTED_EDGE('',*,*,#402,.F.);
#247=ORIENTED_EDGE('',*,*,#291,.F.);
#248=ORIENTED_EDGE('',*,*,#395,.F.);
#249=ORIENTED_EDGE('',*,*,#316,.F.);
#250=ORIENTED_EDGE('',*,*,#356,.F.);
#251=ORIENTED_EDGE('',*,*,#353,.F.);
#252=ORIENTED_EDGE('',*,*,#396,.F.);
#253=ORIENTED_EDGE('',*,*,#293,.F.);
#254=ORIENTED_EDGE('',*,*,#403,.F.);
#255=ORIENTED_EDGE('',*,*,#336,.F.);
#256=ORIENTED_EDGE('',*,*,#399,.F.);
#257=ORIENTED_EDGE('',*,*,#343,.F.);
#258=ORIENTED_EDGE('',*,*,#404,.F.);
#259=ORIENTED_EDGE('',*,*,#301,.F.);
#260=ORIENTED_EDGE('',*,*,#400,.F.);
#261=ORIENTED_EDGE('',*,*,#303,.F.);
#262=ORIENTED_EDGE('',*,*,#405,.F.);
#263=ORIENTED_EDGE('',*,*,#322,.F.);
#264=ORIENTED_EDGE('',*,*,#372,.F.);
#265=ORIENTED_EDGE('',*,*,#369,.F.);
#266=ORIENTED_EDGE('',*,*,#366,.F.);
#267=ORIENTED_EDGE('',*,*,#318,.F.);
#268=ORIENTED_EDGE('',*,*,#339,.F.);
#269=ORIENTED_EDGE('',*,*,#344,.F.);
#270=ORIENTED_EDGE('',*,*,#327,.F.);
#271=ORIENTED_EDGE('',*,*,#346,.F.);
#272=ORIENTED_EDGE('',*,*,#341,.F.);
#273=ORIENTED_EDGE('',*,*,#347,.F.);
#274=ORIENTED_EDGE('',*,*,#325,.F.);
#275=ORIENTED_EDGE('',*,*,#333,.F.);
#276=ORIENTED_EDGE('',*,*,#299,.F.);
#277=ORIENTED_EDGE('',*,*,#292,.F.);
#278=ORIENTED_EDGE('',*,*,#402,.T.);
#279=ORIENTED_EDGE('',*,*,#311,.F.);
#280=ORIENTED_EDGE('',*,*,#345,.F.);
#281=ORIENTED_EDGE('',*,*,#337,.F.);
#282=ORIENTED_EDGE('',*,*,#403,.T.);
#283=ORIENTED_EDGE('',*,*,#309,.F.);
#284=ORIENTED_EDGE('',*,*,#302,.T.);
#285=ORIENTED_EDGE('',*,*,#404,.T.);
#286=ORIENTED_EDGE('',*,*,#342,.T.);
#287=ORIENTED_EDGE('',*,*,#334,.T.);
#288=ORIENTED_EDGE('',*,*,#323,.T.);
#289=ORIENTED_EDGE('',*,*,#405,.T.);
#290=EDGE_CURVE('',#406,#407,#486,.T.);
#291=EDGE_CURVE('',#407,#408,#487,.T.);
#292=EDGE_CURVE('',#408,#409,#488,.T.);
#293=EDGE_CURVE('',#409,#406,#489,.F.);
#294=EDGE_CURVE('',#410,#411,#490,.T.);
#295=EDGE_CURVE('',#412,#411,#491,.T.);
#296=EDGE_CURVE('',#413,#412,#492,.T.);
#297=EDGE_CURVE('',#413,#410,#493,.T.);
#298=EDGE_CURVE('',#414,#414,#20,.F.);
#299=EDGE_CURVE('',#415,#415,#21,.T.);
#300=EDGE_CURVE('',#416,#417,#494,.T.);
#301=EDGE_CURVE('',#417,#418,#495,.T.);
#302=EDGE_CURVE('',#419,#418,#496,.T.);
#303=EDGE_CURVE('',#419,#416,#497,.F.);
#304=EDGE_CURVE('',#420,#421,#498,.T.);
#305=EDGE_CURVE('',#420,#422,#499,.T.);
#306=EDGE_CURVE('',#422,#423,#500,.T.);
#307=EDGE_CURVE('',#421,#423,#501,.T.);
#308=EDGE_CURVE('',#424,#424,#22,.F.);
#309=EDGE_CURVE('',#425,#425,#23,.T.);
#310=EDGE_CURVE('',#426,#427,#502,.T.);
#311=EDGE_CURVE('',#427,#428,#503,.T.);
#312=EDGE_CURVE('',#428,#429,#504,.F.);
#313=EDGE_CURVE('',#429,#430,#505,.T.);
#314=EDGE_CURVE('',#431,#430,#506,.T.);
#315=EDGE_CURVE('',#432,#431,#507,.T.);
#316=EDGE_CURVE('',#432,#433,#508,.F.);
#317=EDGE_CURVE('',#433,#434,#509,.F.);
#318=EDGE_CURVE('',#434,#435,#510,.T.);
#319=EDGE_CURVE('',#436,#435,#511,.T.);
#320=EDGE_CURVE('',#436,#437,#512,.T.);
#321=EDGE_CURVE('',#437,#438,#513,.T.);
#322=EDGE_CURVE('',#438,#439,#514,.T.);
#323=EDGE_CURVE('',#440,#439,#515,.T.);
#324=EDGE_CURVE('',#441,#440,#516,.T.);
#325=EDGE_CURVE('',#441,#442,#24,.F.);
#326=EDGE_CURVE('',#442,#443,#517,.T.);
#327=EDGE_CURVE('',#443,#426,#25,.F.);
#328=EDGE_CURVE('',#444,#444,#26,.T.);
#329=EDGE_CURVE('',#445,#445,#27,.T.);
#330=EDGE_CURVE('',#446,#446,#28,.T.);
#331=EDGE_CURVE('',#447,#447,#29,.T.);
#332=EDGE_CURVE('',#448,#449,#518,.T.);
#333=EDGE_CURVE('',#448,#441,#519,.T.);
#334=EDGE_CURVE('',#449,#440,#520,.T.);
#335=EDGE_CURVE('',#450,#451,#521,.T.);
#336=EDGE_CURVE('',#451,#452,#522,.T.);
#337=EDGE_CURVE('',#452,#453,#523,.T.);
#338=EDGE_CURVE('',#454,#453,#524,.T.);
#339=EDGE_CURVE('',#454,#455,#30,.F.);
#340=EDGE_CURVE('',#456,#455,#525,.T.);
#341=EDGE_CURVE('',#456,#448,#31,.F.);
#342=EDGE_CURVE('',#457,#449,#526,.T.);
#343=EDGE_CURVE('',#457,#450,#527,.F.);
#344=EDGE_CURVE('',#426,#454,#528,.F.);
#345=EDGE_CURVE('',#453,#427,#529,.T.);
#346=EDGE_CURVE('',#455,#443,#530,.T.);
#347=EDGE_CURVE('',#442,#456,#531,.F.);
#348=EDGE_CURVE('',#458,#459,#532,.T.);
#349=EDGE_CURVE('',#459,#460,#533,.F.);
#350=EDGE_CURVE('',#460,#461,#534,.T.);
#351=EDGE_CURVE('',#461,#458,#535,.T.);
#352=EDGE_CURVE('',#462,#463,#536,.T.);
#353=EDGE_CURVE('',#463,#464,#537,.T.);
#354=EDGE_CURVE('',#465,#464,#538,.T.);
#355=EDGE_CURVE('',#465,#462,#539,.T.);
#356=EDGE_CURVE('',#464,#432,#32,.F.);
#357=EDGE_CURVE('',#466,#431,#540,.T.);
#358=EDGE_CURVE('',#465,#466,#541,.T.);
#359=EDGE_CURVE('',#467,#430,#542,.T.);
#360=EDGE_CURVE('',#466,#467,#543,.T.);
#361=EDGE_CURVE('',#429,#463,#33,.T.);
#362=EDGE_CURVE('',#462,#467,#544,.T.);
#363=EDGE_CURVE('',#468,#436,#545,.T.);
#364=EDGE_CURVE('',#468,#469,#546,.T.);
#365=EDGE_CURVE('',#469,#437,#547,.T.);
#366=EDGE_CURVE('',#435,#470,#34,.F.);
#367=EDGE_CURVE('',#471,#470,#548,.T.);
#368=EDGE_CURVE('',#468,#471,#549,.T.);
#369=EDGE_CURVE('',#470,#472,#550,.T.);
#370=EDGE_CURVE('',#473,#472,#551,.T.);
#371=EDGE_CURVE('',#471,#473,#552,.T.);
#372=EDGE_CURVE('',#472,#438,#35,.T.);
#373=EDGE_CURVE('',#469,#473,#553,.T.);
#374=EDGE_CURVE('',#474,#420,#554,.T.);
#375=EDGE_CURVE('',#474,#475,#555,.T.);
#376=EDGE_CURVE('',#475,#422,#556,.T.);
#377=EDGE_CURVE('',#476,#423,#557,.T.);
#378=EDGE_CURVE('',#477,#476,#558,.T.);
#379=EDGE_CURVE('',#477,#421,#559,.T.);
#380=EDGE_CURVE('',#478,#478,#36,.F.);
#381=EDGE_CURVE('',#474,#477,#560,.T.);
#382=EDGE_CURVE('',#475,#476,#561,.T.);
#383=EDGE_CURVE('',#479,#479,#37,.T.);
#384=EDGE_CURVE('',#480,#410,#562,.T.);
#385=EDGE_CURVE('',#480,#481,#563,.T.);
#386=EDGE_CURVE('',#481,#411,#564,.T.);
#387=EDGE_CURVE('',#482,#412,#565,.T.);
#388=EDGE_CURVE('',#483,#482,#566,.T.);
#389=EDGE_CURVE('',#483,#413,#567,.T.);
#390=EDGE_CURVE('',#484,#484,#38,.F.);
#391=EDGE_CURVE('',#483,#480,#568,.T.);
#392=EDGE_CURVE('',#482,#481,#569,.T.);
#393=EDGE_CURVE('',#485,#485,#39,.T.);
#394=EDGE_CURVE('',#458,#433,#12,.T.);
#395=EDGE_CURVE('',#433,#407,#13,.T.);
#396=EDGE_CURVE('',#406,#451,#14,.T.);
#397=EDGE_CURVE('',#451,#459,#15,.T.);
#398=EDGE_CURVE('',#460,#450,#16,.F.);
#399=EDGE_CURVE('',#450,#417,#17,.F.);
#400=EDGE_CURVE('',#416,#434,#18,.F.);
#401=EDGE_CURVE('',#434,#461,#19,.F.);
#402=EDGE_CURVE('',#408,#428,#40,.F.);
#403=EDGE_CURVE('',#452,#409,#41,.F.);
#404=EDGE_CURVE('',#418,#457,#42,.F.);
#405=EDGE_CURVE('',#439,#419,#43,.F.);
#406=VERTEX_POINT('',#1210);
#407=VERTEX_POINT('',#1211);
#408=VERTEX_POINT('',#1213);
#409=VERTEX_POINT('',#1215);
#410=VERTEX_POINT('',#1218);
#411=VERTEX_POINT('',#1219);
#412=VERTEX_POINT('',#1221);
#413=VERTEX_POINT('',#1223);
#414=VERTEX_POINT('',#1227);
#415=VERTEX_POINT('',#1229);
#416=VERTEX_POINT('',#1232);
#417=VERTEX_POINT('',#1233);
#418=VERTEX_POINT('',#1235);
#419=VERTEX_POINT('',#1237);
#420=VERTEX_POINT('',#1240);
#421=VERTEX_POINT('',#1241);
#422=VERTEX_POINT('',#1243);
#423=VERTEX_POINT('',#1245);
#424=VERTEX_POINT('',#1249);
#425=VERTEX_POINT('',#1251);
#426=VERTEX_POINT('',#1254);
#427=VERTEX_POINT('',#1255);
#428=VERTEX_POINT('',#1257);
#429=VERTEX_POINT('',#1259);
#430=VERTEX_POINT('',#1261);
#431=VERTEX_POINT('',#1263);
#432=VERTEX_POINT('',#1265);
#433=VERTEX_POINT('',#1267);
#434=VERTEX_POINT('',#1269);
#435=VERTEX_POINT('',#1271);
#436=VERTEX_POINT('',#1273);
#437=VERTEX_POINT('',#1275);
#438=VERTEX_POINT('',#1277);
#439=VERTEX_POINT('',#1279);
#440=VERTEX_POINT('',#1281);
#441=VERTEX_POINT('',#1283);
#442=VERTEX_POINT('',#1285);
#443=VERTEX_POINT('',#1287);
#444=VERTEX_POINT('',#1291);
#445=VERTEX_POINT('',#1293);
#446=VERTEX_POINT('',#1296);
#447=VERTEX_POINT('',#1298);
#448=VERTEX_POINT('',#1301);
#449=VERTEX_POINT('',#1302);
#450=VERTEX_POINT('',#1307);
#451=VERTEX_POINT('',#1308);
#452=VERTEX_POINT('',#1310);
#453=VERTEX_POINT('',#1312);
#454=VERTEX_POINT('',#1314);
#455=VERTEX_POINT('',#1316);
#456=VERTEX_POINT('',#1318);
#457=VERTEX_POINT('',#1321);
#458=VERTEX_POINT('',#1331);
#459=VERTEX_POINT('',#1332);
#460=VERTEX_POINT('',#1334);
#461=VERTEX_POINT('',#1336);
#462=VERTEX_POINT('',#1340);
#463=VERTEX_POINT('',#1341);
#464=VERTEX_POINT('',#1343);
#465=VERTEX_POINT('',#1345);
#466=VERTEX_POINT('',#1350);
#467=VERTEX_POINT('',#1354);
#468=VERTEX_POINT('',#1362);
#469=VERTEX_POINT('',#1364);
#470=VERTEX_POINT('',#1368);
#471=VERTEX_POINT('',#1370);
#472=VERTEX_POINT('',#1374);
#473=VERTEX_POINT('',#1376);
#474=VERTEX_POINT('',#1384);
#475=VERTEX_POINT('',#1386);
#476=VERTEX_POINT('',#1390);
#477=VERTEX_POINT('',#1392);
#478=VERTEX_POINT('',#1395);
#479=VERTEX_POINT('',#1403);
#480=VERTEX_POINT('',#1407);
#481=VERTEX_POINT('',#1409);
#482=VERTEX_POINT('',#1413);
#483=VERTEX_POINT('',#1415);
#484=VERTEX_POINT('',#1418);
#485=VERTEX_POINT('',#1426);
#486=LINE('',#1209,#570);
#487=LINE('',#1212,#571);
#488=LINE('',#1214,#572);
#489=LINE('',#1216,#573);
#490=LINE('',#1217,#574);
#491=LINE('',#1220,#575);
#492=LINE('',#1222,#576);
#493=LINE('',#1224,#577);
#494=LINE('',#1231,#578);
#495=LINE('',#1234,#579);
#496=LINE('',#1236,#580);
#497=LINE('',#1238,#581);
#498=LINE('',#1239,#582);
#499=LINE('',#1242,#583);
#500=LINE('',#1244,#584);
#501=LINE('',#1246,#585);
#502=LINE('',#1253,#586);
#503=LINE('',#1256,#587);
#504=LINE('',#1258,#588);
#505=LINE('',#1260,#589);
#506=LINE('',#1262,#590);
#507=LINE('',#1264,#591);
#508=LINE('',#1266,#592);
#509=LINE('',#1268,#593);
#510=LINE('',#1270,#594);
#511=LINE('',#1272,#595);
#512=LINE('',#1274,#596);
#513=LINE('',#1276,#597);
#514=LINE('',#1278,#598);
#515=LINE('',#1280,#599);
#516=LINE('',#1282,#600);
#517=LINE('',#1286,#601);
#518=LINE('',#1300,#602);
#519=LINE('',#1303,#603);
#520=LINE('',#1304,#604);
#521=LINE('',#1306,#605);
#522=LINE('',#1309,#606);
#523=LINE('',#1311,#607);
#524=LINE('',#1313,#608);
#525=LINE('',#1317,#609);
#526=LINE('',#1320,#610);
#527=LINE('',#1322,#611);
#528=LINE('',#1324,#612);
#529=LINE('',#1325,#613);
#530=LINE('',#1327,#614);
#531=LINE('',#1328,#615);
#532=LINE('',#1330,#616);
#533=LINE('',#1333,#617);
#534=LINE('',#1335,#618);
#535=LINE('',#1337,#619);
#536=LINE('',#1339,#620);
#537=LINE('',#1342,#621);
#538=LINE('',#1344,#622);
#539=LINE('',#1346,#623);
#540=LINE('',#1349,#624);
#541=LINE('',#1351,#625);
#542=LINE('',#1353,#626);
#543=LINE('',#1355,#627);
#544=LINE('',#1358,#628);
#545=LINE('',#1361,#629);
#546=LINE('',#1363,#630);
#547=LINE('',#1365,#631);
#548=LINE('',#1369,#632);
#549=LINE('',#1371,#633);
#550=LINE('',#1373,#634);
#551=LINE('',#1375,#635);
#552=LINE('',#1377,#636);
#553=LINE('',#1380,#637);
#554=LINE('',#1383,#638);
#555=LINE('',#1385,#639);
#556=LINE('',#1387,#640);
#557=LINE('',#1389,#641);
#558=LINE('',#1391,#642);
#559=LINE('',#1393,#643);
#560=LINE('',#1397,#644);
#561=LINE('',#1399,#645);
#562=LINE('',#1406,#646);
#563=LINE('',#1408,#647);
#564=LINE('',#1410,#648);
#565=LINE('',#1412,#649);
#566=LINE('',#1414,#650);
#567=LINE('',#1416,#651);
#568=LINE('',#1420,#652);
#569=LINE('',#1422,#653);
#570=VECTOR('',#965,1.);
#571=VECTOR('',#966,1.);
#572=VECTOR('',#967,1.);
#573=VECTOR('',#968,1.);
#574=VECTOR('',#969,1.);
#575=VECTOR('',#970,1.);
#576=VECTOR('',#971,1.);
#577=VECTOR('',#972,1.);
#578=VECTOR('',#981,1.);
#579=VECTOR('',#982,1.);
#580=VECTOR('',#983,1.);
#581=VECTOR('',#984,1.);
#582=VECTOR('',#985,1.);
#583=VECTOR('',#986,1.);
#584=VECTOR('',#987,1.);
#585=VECTOR('',#988,1.);
#586=VECTOR('',#997,1.);
#587=VECTOR('',#998,1.);
#588=VECTOR('',#999,1.);
#589=VECTOR('',#1000,1.);
#590=VECTOR('',#1001,1.);
#591=VECTOR('',#1002,1.);
#592=VECTOR('',#1003,1.);
#593=VECTOR('',#1004,1.);
#594=VECTOR('',#1005,1.);
#595=VECTOR('',#1006,1.);
#596=VECTOR('',#1007,1.);
#597=VECTOR('',#1008,1.);
#598=VECTOR('',#1009,1.);
#599=VECTOR('',#1010,1.);
#600=VECTOR('',#1011,1.);
#601=VECTOR('',#1014,1.);
#602=VECTOR('',#1031,1.);
#603=VECTOR('',#1032,1.);
#604=VECTOR('',#1033,1.);
#605=VECTOR('',#1036,1.);
#606=VECTOR('',#1037,1.);
#607=VECTOR('',#1038,1.);
#608=VECTOR('',#1039,1.);
#609=VECTOR('',#1042,1.);
#610=VECTOR('',#1045,1.);
#611=VECTOR('',#1046,1.);
#612=VECTOR('',#1049,1.);
#613=VECTOR('',#1050,1.);
#614=VECTOR('',#1053,1.);
#615=VECTOR('',#1054,1.);
#616=VECTOR('',#1057,1.);
#617=VECTOR('',#1058,1.);
#618=VECTOR('',#1059,1.);
#619=VECTOR('',#1060,1.);
#620=VECTOR('',#1063,1.);
#621=VECTOR('',#1064,1.);
#622=VECTOR('',#1065,1.);
#623=VECTOR('',#1066,1.);
#624=VECTOR('',#1071,1.);
#625=VECTOR('',#1072,1.);
#626=VECTOR('',#1075,1.);
#627=VECTOR('',#1076,1.);
#628=VECTOR('',#1081,1.);
#629=VECTOR('',#1086,1.);
#630=VECTOR('',#1087,1.);
#631=VECTOR('',#1088,1.);
#632=VECTOR('',#1093,1.);
#633=VECTOR('',#1094,1.);
#634=VECTOR('',#1097,1.);
#635=VECTOR('',#1098,1.);
#636=VECTOR('',#1099,1.);
#637=VECTOR('',#1104,1.);
#638=VECTOR('',#1109,1.);
#639=VECTOR('',#1110,1.);
#640=VECTOR('',#1111,1.);
#641=VECTOR('',#1114,1.);
#642=VECTOR('',#1115,1.);
#643=VECTOR('',#1116,1.);
#644=VECTOR('',#1121,1.);
#645=VECTOR('',#1124,1.);
#646=VECTOR('',#1135,1.);
#647=VECTOR('',#1136,1.);
#648=VECTOR('',#1137,1.);
#649=VECTOR('',#1140,1.);
#650=VECTOR('',#1141,1.);
#651=VECTOR('',#1142,1.);
#652=VECTOR('',#1147,1.);
#653=VECTOR('',#1150,1.);
#654=EDGE_LOOP('',(#58,#59,#60,#61));
#655=EDGE_LOOP('',(#62,#63,#64,#65));
#656=EDGE_LOOP('',(#66));
#657=EDGE_LOOP('',(#67));
#658=EDGE_LOOP('',(#68,#69,#70,#71));
#659=EDGE_LOOP('',(#72,#73,#74,#75));
#660=EDGE_LOOP('',(#76));
#661=EDGE_LOOP('',(#77));
#662=EDGE_LOOP('',(#78,#79,#80,#81,#82,#83,#84,#85,#86,#87,#88,#89,#90,
#91,#92,#93,#94,#95));
#663=EDGE_LOOP('',(#96));
#664=EDGE_LOOP('',(#97));
#665=EDGE_LOOP('',(#98));
#666=EDGE_LOOP('',(#99));
#667=EDGE_LOOP('',(#100,#101,#102,#103));
#668=EDGE_LOOP('',(#104));
#669=EDGE_LOOP('',(#105));
#670=EDGE_LOOP('',(#106,#107,#108,#109,#110,#111,#112,#113,#114,#115));
#671=EDGE_LOOP('',(#116,#117,#118,#119));
#672=EDGE_LOOP('',(#120,#121,#122,#123));
#673=EDGE_LOOP('',(#124,#125,#126,#127));
#674=EDGE_LOOP('',(#128,#129,#130,#131));
#675=EDGE_LOOP('',(#132,#133,#134,#135,#136));
#676=EDGE_LOOP('',(#137,#138,#139,#140));
#677=EDGE_LOOP('',(#141,#142,#143,#144,#145));
#678=EDGE_LOOP('',(#146,#147,#148,#149));
#679=EDGE_LOOP('',(#150));
#680=EDGE_LOOP('',(#151,#152,#153,#154));
#681=EDGE_LOOP('',(#155,#156,#157,#158,#159));
#682=EDGE_LOOP('',(#160,#161,#162,#163));
#683=EDGE_LOOP('',(#164,#165,#166,#167,#168));
#684=EDGE_LOOP('',(#169,#170,#171,#172));
#685=EDGE_LOOP('',(#173));
#686=EDGE_LOOP('',(#174,#175,#176,#177));
#687=EDGE_LOOP('',(#178));
#688=EDGE_LOOP('',(#179,#180,#181,#182));
#689=EDGE_LOOP('',(#183));
#690=EDGE_LOOP('',(#184,#185,#186,#187));
#691=EDGE_LOOP('',(#188,#189,#190,#191));
#692=EDGE_LOOP('',(#192,#193,#194,#195));
#693=EDGE_LOOP('',(#196));
#694=EDGE_LOOP('',(#197));
#695=EDGE_LOOP('',(#198));
#696=EDGE_LOOP('',(#199,#200,#201,#202));
#697=EDGE_LOOP('',(#203));
#698=EDGE_LOOP('',(#204,#205,#206,#207));
#699=EDGE_LOOP('',(#208));
#700=EDGE_LOOP('',(#209,#210,#211,#212));
#701=EDGE_LOOP('',(#213,#214,#215,#216));
#702=EDGE_LOOP('',(#217,#218,#219,#220));
#703=EDGE_LOOP('',(#221));
#704=EDGE_LOOP('',(#222));
#705=EDGE_LOOP('',(#223));
#706=EDGE_LOOP('',(#224,#225,#226,#227,#228,#229));
#707=EDGE_LOOP('',(#230,#231,#232,#233,#234,#235));
#708=EDGE_LOOP('',(#236,#237,#238,#239));
#709=EDGE_LOOP('',(#240,#241,#242,#243));
#710=EDGE_LOOP('',(#244,#245,#246,#247,#248,#249,#250,#251));
#711=EDGE_LOOP('',(#252,#253,#254,#255));
#712=EDGE_LOOP('',(#256,#257,#258,#259));
#713=EDGE_LOOP('',(#260,#261,#262,#263,#264,#265,#266,#267));
#714=EDGE_LOOP('',(#268,#269,#270,#271));
#715=EDGE_LOOP('',(#272,#273,#274,#275));
#716=EDGE_LOOP('',(#276));
#717=EDGE_LOOP('',(#277,#278,#279,#280,#281,#282));
#718=EDGE_LOOP('',(#283));
#719=EDGE_LOOP('',(#284,#285,#286,#287,#288,#289));
#720=FACE_BOUND('',#654,.T.);
#721=FACE_BOUND('',#655,.T.);
#722=FACE_BOUND('',#656,.T.);
#723=FACE_BOUND('',#657,.T.);
#724=FACE_BOUND('',#658,.T.);
#725=FACE_BOUND('',#659,.T.);
#726=FACE_BOUND('',#660,.T.);
#727=FACE_BOUND('',#661,.T.);
#728=FACE_BOUND('',#662,.T.);
#729=FACE_BOUND('',#663,.T.);
#730=FACE_BOUND('',#664,.T.);
#731=FACE_BOUND('',#665,.T.);
#732=FACE_BOUND('',#666,.T.);
#733=FACE_BOUND('',#667,.T.);
#734=FACE_BOUND('',#668,.T.);
#735=FACE_BOUND('',#669,.T.);
#736=FACE_BOUND('',#670,.T.);
#737=FACE_BOUND('',#671,.T.);
#738=FACE_BOUND('',#672,.T.);
#739=FACE_BOUND('',#673,.T.);
#740=FACE_BOUND('',#674,.T.);
#741=FACE_BOUND('',#675,.T.);
#742=FACE_BOUND('',#676,.T.);
#743=FACE_BOUND('',#677,.T.);
#744=FACE_BOUND('',#678,.T.);
#745=FACE_BOUND('',#679,.T.);
#746=FACE_BOUND('',#680,.T.);
#747=FACE_BOUND('',#681,.T.);
#748=FACE_BOUND('',#682,.T.);
#749=FACE_BOUND('',#683,.T.);
#750=FACE_BOUND('',#684,.T.);
#751=FACE_BOUND('',#685,.T.);
#752=FACE_BOUND('',#686,.T.);
#753=FACE_BOUND('',#687,.T.);
#754=FACE_BOUND('',#688,.T.);
#755=FACE_BOUND('',#689,.T.);
#756=FACE_BOUND('',#690,.T.);
#757=FACE_BOUND('',#691,.T.);
#758=FACE_BOUND('',#692,.T.);
#759=FACE_BOUND('',#693,.T.);
#760=FACE_BOUND('',#694,.T.);
#761=FACE_BOUND('',#695,.T.);
#762=FACE_BOUND('',#696,.T.);
#763=FACE_BOUND('',#697,.T.);
#764=FACE_BOUND('',#698,.T.);
#765=FACE_BOUND('',#699,.T.);
#766=FACE_BOUND('',#700,.T.);
#767=FACE_BOUND('',#701,.T.);
#768=FACE_BOUND('',#702,.T.);
#769=FACE_BOUND('',#703,.T.);
#770=FACE_BOUND('',#704,.T.);
#771=FACE_BOUND('',#705,.T.);
#772=FACE_BOUND('',#706,.T.);
#773=FACE_BOUND('',#707,.T.);
#774=FACE_BOUND('',#708,.T.);
#775=FACE_BOUND('',#709,.T.);
#776=FACE_BOUND('',#710,.T.);
#777=FACE_BOUND('',#711,.T.);
#778=FACE_BOUND('',#712,.T.);
#779=FACE_BOUND('',#713,.T.);
#780=FACE_BOUND('',#714,.T.);
#781=FACE_BOUND('',#715,.T.);
#782=FACE_BOUND('',#716,.T.);
#783=FACE_BOUND('',#717,.T.);
#784=FACE_BOUND('',#718,.T.);
#785=FACE_BOUND('',#719,.T.);
#786=PLANE('',#881);
#787=PLANE('',#885);
#788=PLANE('',#889);
#789=PLANE('',#898);
#790=PLANE('',#899);
#791=PLANE('',#902);
#792=PLANE('',#903);
#793=PLANE('',#904);
#794=PLANE('',#905);
#795=PLANE('',#906);
#796=PLANE('',#908);
#797=PLANE('',#909);
#798=PLANE('',#911);
#799=PLANE('',#912);
#800=PLANE('',#913);
#801=PLANE('',#915);
#802=PLANE('',#916);
#803=PLANE('',#918);
#804=PLANE('',#919);
#805=PLANE('',#920);
#806=PLANE('',#922);
#807=PLANE('',#923);
#808=PLANE('',#924);
#809=PLANE('',#925);
#810=PLANE('',#928);
#811=PLANE('',#929);
#812=PLANE('',#931);
#813=PLANE('',#932);
#814=PLANE('',#933);
#815=PLANE('',#934);
#816=PLANE('',#937);
#817=PLANE('',#942);
#818=PLANE('',#959);
#819=PLANE('',#960);
#820=ADVANCED_FACE('',(#720,#721),#786,.F.);
#821=ADVANCED_FACE('',(#722,#723),#44,.F.);
#822=ADVANCED_FACE('',(#724,#725),#787,.T.);
#823=ADVANCED_FACE('',(#726,#727),#45,.F.);
#824=ADVANCED_FACE('',(#728),#788,.T.);
#825=ADVANCED_FACE('',(#729,#730),#46,.F.);
#826=ADVANCED_FACE('',(#731,#732),#47,.F.);
#827=ADVANCED_FACE('',(#733),#789,.T.);
#828=ADVANCED_FACE('',(#734,#735,#736),#790,.T.);
#829=ADVANCED_FACE('',(#737),#791,.F.);
#830=ADVANCED_FACE('',(#738),#792,.F.);
#831=ADVANCED_FACE('',(#739),#793,.T.);
#832=ADVANCED_FACE('',(#740),#794,.T.);
#833=ADVANCED_FACE('',(#741),#795,.F.);
#834=ADVANCED_FACE('',(#742),#796,.F.);
#835=ADVANCED_FACE('',(#743),#797,.T.);
#836=ADVANCED_FACE('',(#744,#745),#798,.T.);
#837=ADVANCED_FACE('',(#746),#799,.T.);
#838=ADVANCED_FACE('',(#747),#800,.F.);
#839=ADVANCED_FACE('',(#748),#801,.F.);
#840=ADVANCED_FACE('',(#749),#802,.T.);
#841=ADVANCED_FACE('',(#750,#751),#803,.T.);
#842=ADVANCED_FACE('',(#752,#753),#804,.T.);
#843=ADVANCED_FACE('',(#754,#755),#805,.F.);
#844=ADVANCED_FACE('',(#756),#806,.F.);
#845=ADVANCED_FACE('',(#757),#807,.T.);
#846=ADVANCED_FACE('',(#758),#808,.T.);
#847=ADVANCED_FACE('',(#759),#809,.T.);
#848=ADVANCED_FACE('',(#760,#761),#48,.F.);
#849=ADVANCED_FACE('',(#762,#763),#810,.T.);
#850=ADVANCED_FACE('',(#764,#765),#811,.F.);
#851=ADVANCED_FACE('',(#766),#812,.T.);
#852=ADVANCED_FACE('',(#767),#813,.F.);
#853=ADVANCED_FACE('',(#768),#814,.T.);
#854=ADVANCED_FACE('',(#769),#815,.T.);
#855=ADVANCED_FACE('',(#770,#771),#49,.F.);
#856=ADVANCED_FACE('',(#772),#816,.T.);
#857=ADVANCED_FACE('',(#773),#817,.F.);
#858=ADVANCED_FACE('',(#774),#50,.T.);
#859=ADVANCED_FACE('',(#775),#51,.T.);
#860=ADVANCED_FACE('',(#776),#52,.T.);
#861=ADVANCED_FACE('',(#777),#53,.T.);
#862=ADVANCED_FACE('',(#778),#54,.T.);
#863=ADVANCED_FACE('',(#779),#55,.T.);
#864=ADVANCED_FACE('',(#780),#56,.F.);
#865=ADVANCED_FACE('',(#781),#57,.F.);
#866=ADVANCED_FACE('',(#782,#783),#818,.F.);
#867=ADVANCED_FACE('',(#784,#785),#819,.F.);
#868=CLOSED_SHELL('',(#820,#821,#822,#823,#824,#825,#826,#827,#828,#829,
#830,#831,#832,#833,#834,#835,#836,#837,#838,#839,#840,#841,#842,#843,#844,
#845,#846,#847,#848,#849,#850,#851,#852,#853,#854,#855,#856,#857,#858,#859,
#860,#861,#862,#863,#864,#865,#866,#867));
#869=STYLED_ITEM('',(#870),#877);
#870=PRESENTATION_STYLE_ASSIGNMENT((#871));
#871=SURFACE_STYLE_USAGE(.BOTH.,#872);
#872=SURFACE_SIDE_STYLE('',(#873));
#873=SURFACE_STYLE_FILL_AREA(#874);
#874=FILL_AREA_STYLE('',(#875));
#875=FILL_AREA_STYLE_COLOUR('',#876);
#876=COLOUR_RGB('',0.498039215686275,0.498039215686275,0.498039215686275);
#877=MANIFOLD_SOLID_BREP('Part 1',#868);
#878=SHAPE_DEFINITION_REPRESENTATION(#1458,#879);
#879=SHAPE_REPRESENTATION('Part 1',(#880),#1453);
#880=AXIS2_PLACEMENT_3D('',#1207,#961,#962);
#881=AXIS2_PLACEMENT_3D('',#1208,#963,#964);
#882=AXIS2_PLACEMENT_3D('',#1225,#973,#974);
#883=AXIS2_PLACEMENT_3D('',#1226,#975,#976);
#884=AXIS2_PLACEMENT_3D('',#1228,#977,#978);
#885=AXIS2_PLACEMENT_3D('',#1230,#979,#980);
#886=AXIS2_PLACEMENT_3D('',#1247,#989,#990);
#887=AXIS2_PLACEMENT_3D('',#1248,#991,#992);
#888=AXIS2_PLACEMENT_3D('',#1250,#993,#994);
#889=AXIS2_PLACEMENT_3D('',#1252,#995,#996);
#890=AXIS2_PLACEMENT_3D('',#1284,#1012,#1013);
#891=AXIS2_PLACEMENT_3D('',#1288,#1015,#1016);
#892=AXIS2_PLACEMENT_3D('',#1289,#1017,#1018);
#893=AXIS2_PLACEMENT_3D('',#1290,#1019,#1020);
#894=AXIS2_PLACEMENT_3D('',#1292,#1021,#1022);
#895=AXIS2_PLACEMENT_3D('',#1294,#1023,#1024);
#896=AXIS2_PLACEMENT_3D('',#1295,#1025,#1026);
#897=AXIS2_PLACEMENT_3D('',#1297,#1027,#1028);
#898=AXIS2_PLACEMENT_3D('',#1299,#1029,#1030);
#899=AXIS2_PLACEMENT_3D('',#1305,#1034,#1035);
#900=AXIS2_PLACEMENT_3D('',#1315,#1040,#1041);
#901=AXIS2_PLACEMENT_3D('',#1319,#1043,#1044);
#902=AXIS2_PLACEMENT_3D('',#1323,#1047,#1048);
#903=AXIS2_PLACEMENT_3D('',#1326,#1051,#1052);
#904=AXIS2_PLACEMENT_3D('',#1329,#1055,#1056);
#905=AXIS2_PLACEMENT_3D('',#1338,#1061,#1062);
#906=AXIS2_PLACEMENT_3D('',#1347,#1067,#1068);
#907=AXIS2_PLACEMENT_3D('',#1348,#1069,#1070);
#908=AXIS2_PLACEMENT_3D('',#1352,#1073,#1074);
#909=AXIS2_PLACEMENT_3D('',#1356,#1077,#1078);
#910=AXIS2_PLACEMENT_3D('',#1357,#1079,#1080);
#911=AXIS2_PLACEMENT_3D('',#1359,#1082,#1083);
#912=AXIS2_PLACEMENT_3D('',#1360,#1084,#1085);
#913=AXIS2_PLACEMENT_3D('',#1366,#1089,#1090);
#914=AXIS2_PLACEMENT_3D('',#1367,#1091,#1092);
#915=AXIS2_PLACEMENT_3D('',#1372,#1095,#1096);
#916=AXIS2_PLACEMENT_3D('',#1378,#1100,#1101);
#917=AXIS2_PLACEMENT_3D('',#1379,#1102,#1103);
#918=AXIS2_PLACEMENT_3D('',#1381,#1105,#1106);
#919=AXIS2_PLACEMENT_3D('',#1382,#1107,#1108);
#920=AXIS2_PLACEMENT_3D('',#1388,#1112,#1113);
#921=AXIS2_PLACEMENT_3D('',#1394,#1117,#1118);
#922=AXIS2_PLACEMENT_3D('',#1396,#1119,#1120);
#923=AXIS2_PLACEMENT_3D('',#1398,#1122,#1123);
#924=AXIS2_PLACEMENT_3D('',#1400,#1125,#1126);
#925=AXIS2_PLACEMENT_3D('',#1401,#1127,#1128);
#926=AXIS2_PLACEMENT_3D('',#1402,#1129,#1130);
#927=AXIS2_PLACEMENT_3D('',#1404,#1131,#1132);
#928=AXIS2_PLACEMENT_3D('',#1405,#1133,#1134);
#929=AXIS2_PLACEMENT_3D('',#1411,#1138,#1139);
#930=AXIS2_PLACEMENT_3D('',#1417,#1143,#1144);
#931=AXIS2_PLACEMENT_3D('',#1419,#1145,#1146);
#932=AXIS2_PLACEMENT_3D('',#1421,#1148,#1149);
#933=AXIS2_PLACEMENT_3D('',#1423,#1151,#1152);
#934=AXIS2_PLACEMENT_3D('',#1424,#1153,#1154);
#935=AXIS2_PLACEMENT_3D('',#1425,#1155,#1156);
#936=AXIS2_PLACEMENT_3D('',#1427,#1157,#1158);
#937=AXIS2_PLACEMENT_3D('',#1428,#1159,#1160);
#938=AXIS2_PLACEMENT_3D('',#1429,#1161,#1162);
#939=AXIS2_PLACEMENT_3D('',#1430,#1163,#1164);
#940=AXIS2_PLACEMENT_3D('',#1431,#1165,#1166);
#941=AXIS2_PLACEMENT_3D('',#1432,#1167,#1168);
#942=AXIS2_PLACEMENT_3D('',#1433,#1169,#1170);
#943=AXIS2_PLACEMENT_3D('',#1434,#1171,#1172);
#944=AXIS2_PLACEMENT_3D('',#1435,#1173,#1174);
#945=AXIS2_PLACEMENT_3D('',#1436,#1175,#1176);
#946=AXIS2_PLACEMENT_3D('',#1437,#1177,#1178);
#947=AXIS2_PLACEMENT_3D('',#1438,#1179,#1180);
#948=AXIS2_PLACEMENT_3D('',#1439,#1181,#1182);
#949=AXIS2_PLACEMENT_3D('',#1440,#1183,#1184);
#950=AXIS2_PLACEMENT_3D('',#1441,#1185,#1186);
#951=AXIS2_PLACEMENT_3D('',#1442,#1187,#1188);
#952=AXIS2_PLACEMENT_3D('',#1443,#1189,#1190);
#953=AXIS2_PLACEMENT_3D('',#1444,#1191,#1192);
#954=AXIS2_PLACEMENT_3D('',#1445,#1193,#1194);
#955=AXIS2_PLACEMENT_3D('',#1446,#1195,#1196);
#956=AXIS2_PLACEMENT_3D('',#1447,#1197,#1198);
#957=AXIS2_PLACEMENT_3D('',#1448,#1199,#1200);
#958=AXIS2_PLACEMENT_3D('',#1449,#1201,#1202);
#959=AXIS2_PLACEMENT_3D('',#1450,#1203,#1204);
#960=AXIS2_PLACEMENT_3D('',#1451,#1205,#1206);
#961=DIRECTION('',(0.,0.,1.));
#962=DIRECTION('',(1.,0.,0.));
#963=DIRECTION('',(0.,-1.,0.));
#964=DIRECTION('',(0.,0.,-1.));
#965=DIRECTION('',(1.,0.,0.));
#966=DIRECTION('',(0.,0.,-1.));
#967=DIRECTION('',(-1.,0.,0.));
#968=DIRECTION('',(0.,0.,-1.));
#969=DIRECTION('',(1.,0.,0.));
#970=DIRECTION('',(0.,0.,-1.));
#971=DIRECTION('',(1.,0.,0.));
#972=DIRECTION('',(0.,0.,-1.));
#973=DIRECTION('',(0.,0.,-1.));
#974=DIRECTION('',(-1.,0.,0.));
#975=DIRECTION('',(0.,0.,1.));
#976=DIRECTION('',(1.,0.,0.));
#977=DIRECTION('',(0.,0.,-1.));
#978=DIRECTION('',(1.,0.,0.));
#979=DIRECTION('',(0.,-1.,0.));
#980=DIRECTION('',(0.,0.,-1.));
#981=DIRECTION('',(-1.,0.,0.));
#982=DIRECTION('',(0.,0.,-1.));
#983=DIRECTION('',(-1.,0.,0.));
#984=DIRECTION('',(0.,0.,-1.));
#985=DIRECTION('',(0.,0.,1.));
#986=DIRECTION('',(-1.,0.,0.));
#987=DIRECTION('',(0.,0.,1.));
#988=DIRECTION('',(-1.,0.,0.));
#989=DIRECTION('',(0.,0.,-1.));
#990=DIRECTION('',(-1.,0.,0.));
#991=DIRECTION('',(0.,0.,1.));
#992=DIRECTION('',(1.,0.,0.));
#993=DIRECTION('',(0.,0.,-1.));
#994=DIRECTION('',(1.,0.,0.));
#995=DIRECTION('',(1.,2.16840434497101E-16,0.));
#996=DIRECTION('',(-2.16840434497101E-16,1.,0.));
#997=DIRECTION('',(0.,0.,-1.));
#998=DIRECTION('',(0.,1.,0.));
#999=DIRECTION('',(0.,0.,-1.));
#1000=DIRECTION('',(2.16840434497101E-16,-1.,0.));
#1001=DIRECTION('',(0.,0.,-1.));
#1002=DIRECTION('',(2.16840434497101E-16,-1.,0.));
#1003=DIRECTION('',(0.,0.,-1.));
#1004=DIRECTION('',(-2.16840434497101E-16,1.,0.));
#1005=DIRECTION('',(0.,0.,-1.));
#1006=DIRECTION('',(2.16840434497101E-16,-1.,0.));
#1007=DIRECTION('',(0.,0.,-1.));
#1008=DIRECTION('',(2.16840434497101E-16,-1.,0.));
#1009=DIRECTION('',(0.,0.,-1.));
#1010=DIRECTION('',(2.16840434497101E-16,-1.,0.));
#1011=DIRECTION('',(0.,0.,-1.));
#1012=DIRECTION('',(1.,2.16840434497101E-16,0.));
#1013=DIRECTION('',(-2.16840434497101E-16,1.,0.));
#1014=DIRECTION('',(-1.84218422227625E-16,1.,0.));
#1015=DIRECTION('',(1.,2.16840434497101E-16,0.));
#1016=DIRECTION('',(-2.16840434497101E-16,1.,0.));
#1017=DIRECTION('',(-1.,0.,0.));
#1018=DIRECTION('',(0.,0.,1.));
#1019=DIRECTION('',(-1.,0.,0.));
#1020=DIRECTION('',(0.,-1.,0.));
#1021=DIRECTION('',(1.,2.16840434497101E-16,0.));
#1022=DIRECTION('',(-2.16840434497101E-16,1.,0.));
#1023=DIRECTION('',(-1.,0.,0.));
#1024=DIRECTION('',(0.,0.,1.));
#1025=DIRECTION('',(-1.,0.,0.));
#1026=DIRECTION('',(0.,-1.,0.));
#1027=DIRECTION('',(1.,2.16840434497101E-16,0.));
#1028=DIRECTION('',(-2.16840434497101E-16,1.,0.));
#1029=DIRECTION('',(0.,1.,0.));
#1030=DIRECTION('',(0.,0.,1.));
#1031=DIRECTION('',(0.,0.,-1.));
#1032=DIRECTION('',(1.,0.,0.));
#1033=DIRECTION('',(1.,0.,0.));
#1034=DIRECTION('',(-1.,0.,0.));
#1035=DIRECTION('',(0.,0.,1.));
#1036=DIRECTION('',(0.,1.,0.));
#1037=DIRECTION('',(0.,0.,-1.));
#1038=DIRECTION('',(0.,-1.,0.));
#1039=DIRECTION('',(0.,0.,-1.));
#1040=DIRECTION('',(-1.,0.,0.));
#1041=DIRECTION('',(0.,0.,1.));
#1042=DIRECTION('',(-1.83697019872103E-16,1.,0.));
#1043=DIRECTION('',(-1.,0.,0.));
#1044=DIRECTION('',(0.,0.,1.));
#1045=DIRECTION('',(0.,1.,0.));
#1046=DIRECTION('',(0.,0.,-1.));
#1047=DIRECTION('',(0.,1.,0.));
#1048=DIRECTION('',(0.,0.,1.));
#1049=DIRECTION('',(1.,0.,0.));
#1050=DIRECTION('',(1.,0.,0.));
#1051=DIRECTION('',(0.,0.,1.));
#1052=DIRECTION('',(1.,0.,0.));
#1053=DIRECTION('',(1.,0.,0.));
#1054=DIRECTION('',(1.,0.,0.));
#1055=DIRECTION('',(0.,0.,1.));
#1056=DIRECTION('',(1.,0.,0.));
#1057=DIRECTION('',(-1.,0.,0.));
#1058=DIRECTION('',(0.,1.,0.));
#1059=DIRECTION('',(1.,0.,0.));
#1060=DIRECTION('',(-2.16840434497101E-16,1.,0.));
#1061=DIRECTION('',(2.16840434497101E-16,-1.,0.));
#1062=DIRECTION('',(1.,2.16840434497101E-16,0.));
#1063=DIRECTION('',(1.,2.16840434497101E-16,0.));
#1064=DIRECTION('',(0.,0.,1.));
#1065=DIRECTION('',(1.,2.16840434497101E-16,0.));
#1066=DIRECTION('',(0.,0.,-1.));
#1067=DIRECTION('',(0.,0.,1.));
#1068=DIRECTION('',(1.,0.,0.));
#1069=DIRECTION('',(0.,0.,1.));
#1070=DIRECTION('',(1.,0.,0.));
#1071=DIRECTION('',(1.,2.16840434497101E-16,0.));
#1072=DIRECTION('',(2.16840434497101E-16,-1.,0.));
#1073=DIRECTION('',(2.16840434497101E-16,-1.,0.));
#1074=DIRECTION('',(1.,2.16840434497101E-16,0.));
#1075=DIRECTION('',(1.,2.16840434497101E-16,0.));
#1076=DIRECTION('',(0.,0.,-1.));
#1077=DIRECTION('',(0.,0.,1.));
#1078=DIRECTION('',(1.,0.,0.));
#1079=DIRECTION('',(0.,0.,1.));
#1080=DIRECTION('',(1.,0.,0.));
#1081=DIRECTION('',(2.16840434497101E-16,-1.,0.));
#1082=DIRECTION('',(1.,2.16840434497101E-16,0.));
#1083=DIRECTION('',(-2.16840434497101E-16,1.,0.));
#1084=DIRECTION('',(2.16840434497101E-16,-1.,0.));
#1085=DIRECTION('',(1.,2.16840434497101E-16,0.));
#1086=DIRECTION('',(1.,2.16840434497101E-16,0.));
#1087=DIRECTION('',(0.,0.,-1.));
#1088=DIRECTION('',(1.,2.16840434497101E-16,0.));
#1089=DIRECTION('',(0.,0.,1.));
#1090=DIRECTION('',(1.,0.,0.));
#1091=DIRECTION('',(0.,0.,1.));
#1092=DIRECTION('',(1.,0.,0.));
#1093=DIRECTION('',(1.,2.16840434497101E-16,0.));
#1094=DIRECTION('',(2.16840434497101E-16,-1.,0.));
#1095=DIRECTION('',(2.16840434497101E-16,-1.,0.));
#1096=DIRECTION('',(1.,2.16840434497101E-16,0.));
#1097=DIRECTION('',(0.,0.,-1.));
#1098=DIRECTION('',(1.,2.16840434497101E-16,0.));
#1099=DIRECTION('',(0.,0.,-1.));
#1100=DIRECTION('',(0.,0.,1.));
#1101=DIRECTION('',(1.,0.,0.));
#1102=DIRECTION('',(0.,0.,1.));
#1103=DIRECTION('',(1.,0.,0.));
#1104=DIRECTION('',(2.16840434497101E-16,-1.,0.));
#1105=DIRECTION('',(1.,2.16840434497101E-16,0.));
#1106=DIRECTION('',(-2.16840434497101E-16,1.,0.));
#1107=DIRECTION('',(0.,0.,1.));
#1108=DIRECTION('',(1.,0.,0.));
#1109=DIRECTION('',(0.,-1.,0.));
#1110=DIRECTION('',(-1.,0.,0.));
#1111=DIRECTION('',(0.,-1.,0.));
#1112=DIRECTION('',(0.,0.,1.));
#1113=DIRECTION('',(1.,0.,0.));
#1114=DIRECTION('',(0.,-1.,0.));
#1115=DIRECTION('',(-1.,0.,0.));
#1116=DIRECTION('',(0.,-1.,0.));
#1117=DIRECTION('',(0.,0.,1.));
#1118=DIRECTION('',(1.,0.,0.));
#1119=DIRECTION('',(1.,0.,0.));
#1120=DIRECTION('',(0.,0.,-1.));
#1121=DIRECTION('',(0.,0.,1.));
#1122=DIRECTION('',(1.,0.,0.));
#1123=DIRECTION('',(0.,0.,-1.));
#1124=DIRECTION('',(0.,0.,1.));
#1125=DIRECTION('',(0.,-1.,0.));
#1126=DIRECTION('',(1.,0.,0.));
#1127=DIRECTION('',(0.,0.,-1.));
#1128=DIRECTION('',(1.,0.,0.));
#1129=DIRECTION('',(0.,0.,-1.));
#1130=DIRECTION('',(1.,0.,0.));
#1131=DIRECTION('',(0.,0.,-1.));
#1132=DIRECTION('',(-1.,0.,0.));
#1133=DIRECTION('',(0.,0.,1.));
#1134=DIRECTION('',(1.,0.,0.));
#1135=DIRECTION('',(0.,1.,0.));
#1136=DIRECTION('',(1.,0.,0.));
#1137=DIRECTION('',(0.,1.,0.));
#1138=DIRECTION('',(0.,0.,1.));
#1139=DIRECTION('',(1.,0.,0.));
#1140=DIRECTION('',(0.,1.,0.));
#1141=DIRECTION('',(1.,0.,0.));
#1142=DIRECTION('',(0.,1.,0.));
#1143=DIRECTION('',(0.,0.,1.));
#1144=DIRECTION('',(1.,0.,0.));
#1145=DIRECTION('',(1.,0.,0.));
#1146=DIRECTION('',(0.,0.,-1.));
#1147=DIRECTION('',(0.,0.,-1.));
#1148=DIRECTION('',(1.,0.,0.));
#1149=DIRECTION('',(0.,0.,-1.));
#1150=DIRECTION('',(0.,0.,-1.));
#1151=DIRECTION('',(0.,1.,0.));
#1152=DIRECTION('',(-1.,0.,0.));
#1153=DIRECTION('',(0.,0.,-1.));
#1154=DIRECTION('',(1.,0.,0.));
#1155=DIRECTION('',(0.,0.,-1.));
#1156=DIRECTION('',(1.,0.,0.));
#1157=DIRECTION('',(0.,0.,-1.));
#1158=DIRECTION('',(-1.,0.,0.));
#1159=DIRECTION('',(0.,0.707106781186548,0.707106781186548));
#1160=DIRECTION('',(1.,0.,0.));
#1161=DIRECTION('',(0.,0.707106781186548,0.707106781186548));
#1162=DIRECTION('',(-3.06658683336675E-16,0.707106781186548,-0.707106781186548));
#1163=DIRECTION('',(0.,0.707106781186548,0.707106781186548));
#1164=DIRECTION('',(0.,-0.707106781186548,0.707106781186548));
#1165=DIRECTION('',(0.,0.707106781186548,0.707106781186548));
#1166=DIRECTION('',(0.,-0.707106781186548,0.707106781186548));
#1167=DIRECTION('',(0.,0.707106781186548,0.707106781186548));
#1168=DIRECTION('',(0.,0.707106781186548,-0.707106781186548));
#1169=DIRECTION('',(0.,0.707106781186548,-0.707106781186548));
#1170=DIRECTION('',(-1.,0.,0.));
#1171=DIRECTION('',(0.,0.707106781186548,-0.707106781186548));
#1172=DIRECTION('',(0.,0.707106781186548,0.707106781186548));
#1173=DIRECTION('',(0.,0.707106781186548,-0.707106781186548));
#1174=DIRECTION('',(0.,-0.707106781186548,-0.707106781186548));
#1175=DIRECTION('',(0.,0.707106781186548,-0.707106781186548));
#1176=DIRECTION('',(0.,-0.707106781186548,-0.707106781186548));
#1177=DIRECTION('',(0.,0.707106781186548,-0.707106781186548));
#1178=DIRECTION('',(-3.06658683336675E-16,0.707106781186548,0.707106781186548));
#1179=DIRECTION('',(0.,1.,0.));
#1180=DIRECTION('',(0.,0.,1.));
#1181=DIRECTION('',(-2.16840434497101E-16,1.,0.));
#1182=DIRECTION('',(-1.,-2.16840434497101E-16,0.));
#1183=DIRECTION('',(0.,0.,1.));
#1184=DIRECTION('',(1.,0.,0.));
#1185=DIRECTION('',(0.,0.,1.));
#1186=DIRECTION('',(1.,0.,0.));
#1187=DIRECTION('',(0.,0.,1.));
#1188=DIRECTION('',(1.,0.,0.));
#1189=DIRECTION('',(0.,0.,1.));
#1190=DIRECTION('',(1.,0.,0.));
#1191=DIRECTION('',(0.,0.,-1.));
#1192=DIRECTION('',(-1.,0.,0.));
#1193=DIRECTION('',(0.,0.,1.));
#1194=DIRECTION('',(1.,0.,0.));
#1195=DIRECTION('',(0.,0.,-1.));
#1196=DIRECTION('',(-1.,0.,0.));
#1197=DIRECTION('',(0.,0.,1.));
#1198=DIRECTION('',(1.,0.,0.));
#1199=DIRECTION('',(-1.,0.,0.));
#1200=DIRECTION('',(0.,0.,1.));
#1201=DIRECTION('',(1.,0.,0.));
#1202=DIRECTION('',(0.,0.,-1.));
#1203=DIRECTION('',(0.,0.,1.));
#1204=DIRECTION('',(1.,0.,0.));
#1205=DIRECTION('',(0.,0.,1.));
#1206=DIRECTION('',(1.,0.,0.));
#1207=CARTESIAN_POINT('',(0.,0.,0.));
#1208=CARTESIAN_POINT('',(0.007,0.02825,0.02));
#1209=CARTESIAN_POINT('',(0.014,0.02825,0.021));
#1210=CARTESIAN_POINT('',(0.0015,0.02825,0.021));
#1211=CARTESIAN_POINT('',(0.0125,0.02825,0.021));
#1212=CARTESIAN_POINT('',(0.0125,0.02825,0.));
#1213=CARTESIAN_POINT('',(0.0125,0.02825,-0.002));
#1214=CARTESIAN_POINT('',(0.007,0.02825,-0.002));
#1215=CARTESIAN_POINT('',(0.0015,0.02825,-0.002));
#1216=CARTESIAN_POINT('',(0.0015,0.02825,0.021));
#1217=CARTESIAN_POINT('',(0.00555,0.02825,0.006));
#1218=CARTESIAN_POINT('',(0.0041,0.02825,0.006));
#1219=CARTESIAN_POINT('',(0.0099,0.02825,0.006));
#1220=CARTESIAN_POINT('',(0.0099,0.02825,0.007));
#1221=CARTESIAN_POINT('',(0.0099,0.02825,0.008));
#1222=CARTESIAN_POINT('',(0.007,0.02825,0.008));
#1223=CARTESIAN_POINT('',(0.0041,0.02825,0.008));
#1224=CARTESIAN_POINT('',(0.0041,0.02825,0.007));
#1225=CARTESIAN_POINT('',(0.007,0.02425,0.012));
#1226=CARTESIAN_POINT('',(0.007,0.02425,0.006));
#1227=CARTESIAN_POINT('',(0.0086,0.02425,0.006));
#1228=CARTESIAN_POINT('',(0.007,0.02425,-0.002));
#1229=CARTESIAN_POINT('',(0.0086,0.02425,-0.002));
#1230=CARTESIAN_POINT('',(0.007,-0.02825,0.02));
#1231=CARTESIAN_POINT('',(0.007,-0.02825,0.021));
#1232=CARTESIAN_POINT('',(0.0125,-0.02825,0.021));
#1233=CARTESIAN_POINT('',(0.0015,-0.02825,0.021));
#1234=CARTESIAN_POINT('',(0.0015,-0.02825,0.02));
#1235=CARTESIAN_POINT('',(0.0015,-0.02825,-0.002));
#1236=CARTESIAN_POINT('',(0.007,-0.02825,-0.002));
#1237=CARTESIAN_POINT('',(0.0125,-0.02825,-0.002));
#1238=CARTESIAN_POINT('',(0.0125,-0.02825,0.02));
#1239=CARTESIAN_POINT('',(0.0099,-0.02825,0.007));
#1240=CARTESIAN_POINT('',(0.0099,-0.02825,0.006));
#1241=CARTESIAN_POINT('',(0.0099,-0.02825,0.008));
#1242=CARTESIAN_POINT('',(0.007,-0.02825,0.006));
#1243=CARTESIAN_POINT('',(0.0041,-0.02825,0.006));
#1244=CARTESIAN_POINT('',(0.0041,-0.02825,0.007));
#1245=CARTESIAN_POINT('',(0.0041,-0.02825,0.008));
#1246=CARTESIAN_POINT('',(0.007,-0.02825,0.008));
#1247=CARTESIAN_POINT('',(0.007,-0.02425,0.012));
#1248=CARTESIAN_POINT('',(0.007,-0.02425,0.006));
#1249=CARTESIAN_POINT('',(0.0086,-0.02425,0.006));
#1250=CARTESIAN_POINT('',(0.007,-0.02425,-0.002));
#1251=CARTESIAN_POINT('',(0.0086,-0.02425,-0.002));
#1252=CARTESIAN_POINT('',(0.014,-0.02425,0.02));
#1253=CARTESIAN_POINT('',(0.014,0.02025,0.02));
#1254=CARTESIAN_POINT('',(0.014,0.02025,0.0195));
#1255=CARTESIAN_POINT('',(0.014,0.02025,-0.002));
#1256=CARTESIAN_POINT('',(0.014,0.02425,-0.002));
#1257=CARTESIAN_POINT('',(0.014,0.02675,-0.002));
#1258=CARTESIAN_POINT('',(0.014,0.02675,0.021));
#1259=CARTESIAN_POINT('',(0.014,0.02675,0.01185));
#1260=CARTESIAN_POINT('',(0.014,0.024,0.01185));
#1261=CARTESIAN_POINT('',(0.014,0.0211,0.01185));
#1262=CARTESIAN_POINT('',(0.014,0.0211,0.01475));
#1263=CARTESIAN_POINT('',(0.014,0.0211,0.01765));
#1264=CARTESIAN_POINT('',(0.014,0.024,0.01765));
#1265=CARTESIAN_POINT('',(0.014,0.02675,0.01765));
#1266=CARTESIAN_POINT('',(0.014,0.02675,0.021));
#1267=CARTESIAN_POINT('',(0.014,0.02675,0.0225));
#1268=CARTESIAN_POINT('',(0.014,-0.02425,0.0225));
#1269=CARTESIAN_POINT('',(0.014,-0.02675,0.0225));
#1270=CARTESIAN_POINT('',(0.014,-0.02675,0.02));
#1271=CARTESIAN_POINT('',(0.014,-0.02675,0.01765));
#1272=CARTESIAN_POINT('',(0.014,-0.024,0.01765));
#1273=CARTESIAN_POINT('',(0.014,-0.0211,0.01765));
#1274=CARTESIAN_POINT('',(0.014,-0.0211,0.01475));
#1275=CARTESIAN_POINT('',(0.014,-0.0211,0.01185));
#1276=CARTESIAN_POINT('',(0.014,-0.024,0.01185));
#1277=CARTESIAN_POINT('',(0.014,-0.02675,0.01185));
#1278=CARTESIAN_POINT('',(0.014,-0.02675,0.02));
#1279=CARTESIAN_POINT('',(0.014,-0.02675,-0.002));
#1280=CARTESIAN_POINT('',(0.014,-0.02425,-0.002));
#1281=CARTESIAN_POINT('',(0.014,-0.02025,-0.002));
#1282=CARTESIAN_POINT('',(0.014,-0.02025,0.02));
#1283=CARTESIAN_POINT('',(0.014,-0.02025,0.0195));
#1284=CARTESIAN_POINT('',(0.014,-0.01975,0.0195));
#1285=CARTESIAN_POINT('',(0.014,-0.01975,0.02));
#1286=CARTESIAN_POINT('',(0.014,-3.46944695195361E-18,0.02));
#1287=CARTESIAN_POINT('',(0.014,0.01975,0.02));
#1288=CARTESIAN_POINT('',(0.014,0.01975,0.0195));
#1289=CARTESIAN_POINT('',(0.025,-0.024,0.01475));
#1290=CARTESIAN_POINT('',(0.,-0.024,0.01475));
#1291=CARTESIAN_POINT('',(0.,-0.0256,0.01475));
#1292=CARTESIAN_POINT('',(0.0122,-0.024,0.01475));
#1293=CARTESIAN_POINT('',(0.0122,-0.0224,0.01475));
#1294=CARTESIAN_POINT('',(0.025,0.024,0.01475));
#1295=CARTESIAN_POINT('',(0.,0.024,0.01475));
#1296=CARTESIAN_POINT('',(0.,0.0224,0.01475));
#1297=CARTESIAN_POINT('',(0.0122,0.024,0.01475));
#1298=CARTESIAN_POINT('',(0.0122,0.0256,0.01475));
#1299=CARTESIAN_POINT('',(0.007,-0.02025,0.02));
#1300=CARTESIAN_POINT('',(0.,-0.02025,0.02));
#1301=CARTESIAN_POINT('',(0.,-0.02025,0.0195));
#1302=CARTESIAN_POINT('',(0.,-0.02025,-0.002));
#1303=CARTESIAN_POINT('',(0.007,-0.02025,0.0195));
#1304=CARTESIAN_POINT('',(0.007,-0.02025,-0.002));
#1305=CARTESIAN_POINT('',(0.,-0.02425,0.02));
#1306=CARTESIAN_POINT('',(0.,-0.02425,0.0225));
#1307=CARTESIAN_POINT('',(0.,-0.02675,0.0225));
#1308=CARTESIAN_POINT('',(0.,0.02675,0.0225));
#1309=CARTESIAN_POINT('',(0.,0.02675,0.));
#1310=CARTESIAN_POINT('',(0.,0.02675,-0.002));
#1311=CARTESIAN_POINT('',(0.,0.02425,-0.002));
#1312=CARTESIAN_POINT('',(0.,0.02025,-0.002));
#1313=CARTESIAN_POINT('',(0.,0.02025,0.02));
#1314=CARTESIAN_POINT('',(0.,0.02025,0.0195));
#1315=CARTESIAN_POINT('',(0.,0.01975,0.0195));
#1316=CARTESIAN_POINT('',(1.56142466891287E-18,0.01975,0.02));
#1317=CARTESIAN_POINT('',(5.18944081138691E-18,-3.46944695195361E-18,0.02));
#1318=CARTESIAN_POINT('',(8.81745695386094E-18,-0.01975,0.02));
#1319=CARTESIAN_POINT('',(0.,-0.01975,0.0195));
#1320=CARTESIAN_POINT('',(0.,-0.02425,-0.002));
#1321=CARTESIAN_POINT('',(0.,-0.02675,-0.002));
#1322=CARTESIAN_POINT('',(0.,-0.02675,0.02));
#1323=CARTESIAN_POINT('',(0.007,0.02025,0.02));
#1324=CARTESIAN_POINT('',(0.,0.02025,0.0195));
#1325=CARTESIAN_POINT('',(0.007,0.02025,-0.002));
#1326=CARTESIAN_POINT('',(0.007,-3.46944695195361E-18,0.02));
#1327=CARTESIAN_POINT('',(0.014,0.01975,0.02));
#1328=CARTESIAN_POINT('',(0.007,-0.01975,0.02));
#1329=CARTESIAN_POINT('',(0.007,-3.46944695195361E-18,0.025));
#1330=CARTESIAN_POINT('',(0.,0.02425,0.025));
#1331=CARTESIAN_POINT('',(0.0115,0.02425,0.025));
#1332=CARTESIAN_POINT('',(0.0025,0.02425,0.025));
#1333=CARTESIAN_POINT('',(0.0025,-3.46944695195361E-18,0.025));
#1334=CARTESIAN_POINT('',(0.0025,-0.02425,0.025));
#1335=CARTESIAN_POINT('',(0.007,-0.02425,0.025));
#1336=CARTESIAN_POINT('',(0.0115,-0.02425,0.025));
#1337=CARTESIAN_POINT('',(0.0115,-2.49366499671666E-18,0.025));
#1338=CARTESIAN_POINT('',(0.0122,0.0269,0.01475));
#1339=CARTESIAN_POINT('',(0.0122,0.0269,0.01185));
#1340=CARTESIAN_POINT('',(0.0122,0.0269,0.01185));
#1341=CARTESIAN_POINT('',(0.0139924811556599,0.0269,0.01185));
#1342=CARTESIAN_POINT('',(0.0139924811556599,0.0269,0.01185));
#1343=CARTESIAN_POINT('',(0.0139924811556599,0.0269,0.01765));
#1344=CARTESIAN_POINT('',(0.0122,0.0269,0.01765));
#1345=CARTESIAN_POINT('',(0.0122,0.0269,0.01765));
#1346=CARTESIAN_POINT('',(0.0122,0.0269,0.01475));
#1347=CARTESIAN_POINT('',(0.0122,0.024,0.01765));
#1348=CARTESIAN_POINT('',(0.0125,0.02675,0.01765));
#1349=CARTESIAN_POINT('',(0.0122,0.0211,0.01765));
#1350=CARTESIAN_POINT('',(0.0122,0.0211,0.01765));
#1351=CARTESIAN_POINT('',(0.0122,0.024,0.01765));
#1352=CARTESIAN_POINT('',(0.0122,0.0211,0.01475));
#1353=CARTESIAN_POINT('',(0.0122,0.0211,0.01185));
#1354=CARTESIAN_POINT('',(0.0122,0.0211,0.01185));
#1355=CARTESIAN_POINT('',(0.0122,0.0211,0.01475));
#1356=CARTESIAN_POINT('',(0.0122,0.024,0.01185));
#1357=CARTESIAN_POINT('',(0.0125,0.02675,0.01185));
#1358=CARTESIAN_POINT('',(0.0122,0.024,0.01185));
#1359=CARTESIAN_POINT('',(0.0122,-8.23993651088983E-19,0.0125));
#1360=CARTESIAN_POINT('',(0.0122,-0.0211,0.01475));
#1361=CARTESIAN_POINT('',(0.0122,-0.0211,0.01765));
#1362=CARTESIAN_POINT('',(0.0122,-0.0211,0.01765));
#1363=CARTESIAN_POINT('',(0.0122,-0.0211,0.01475));
#1364=CARTESIAN_POINT('',(0.0122,-0.0211,0.01185));
#1365=CARTESIAN_POINT('',(0.0122,-0.0211,0.01185));
#1366=CARTESIAN_POINT('',(0.0122,-0.024,0.01765));
#1367=CARTESIAN_POINT('',(0.0125,-0.02675,0.01765));
#1368=CARTESIAN_POINT('',(0.0139924811556599,-0.0269,0.01765));
#1369=CARTESIAN_POINT('',(0.0122,-0.0269,0.01765));
#1370=CARTESIAN_POINT('',(0.0122,-0.0269,0.01765));
#1371=CARTESIAN_POINT('',(0.0122,-0.024,0.01765));
#1372=CARTESIAN_POINT('',(0.0122,-0.0269,0.01475));
#1373=CARTESIAN_POINT('',(0.0139924811556599,-0.0269,0.01765));
#1374=CARTESIAN_POINT('',(0.0139924811556599,-0.0269,0.01185));
#1375=CARTESIAN_POINT('',(0.0122,-0.0269,0.01185));
#1376=CARTESIAN_POINT('',(0.0122,-0.0269,0.01185));
#1377=CARTESIAN_POINT('',(0.0122,-0.0269,0.01475));
#1378=CARTESIAN_POINT('',(0.0122,-0.024,0.01185));
#1379=CARTESIAN_POINT('',(0.0125,-0.02675,0.01185));
#1380=CARTESIAN_POINT('',(0.0122,-0.024,0.01185));
#1381=CARTESIAN_POINT('',(0.0122,-8.23993651088983E-19,0.0125));
#1382=CARTESIAN_POINT('',(0.007,-0.02135,0.006));
#1383=CARTESIAN_POINT('',(0.0099,-0.02135,0.006));
#1384=CARTESIAN_POINT('',(0.0099,-0.02135,0.006));
#1385=CARTESIAN_POINT('',(0.007,-0.02135,0.006));
#1386=CARTESIAN_POINT('',(0.0041,-0.02135,0.006));
#1387=CARTESIAN_POINT('',(0.0041,-0.02135,0.006));
#1388=CARTESIAN_POINT('',(0.007,-0.02135,0.008));
#1389=CARTESIAN_POINT('',(0.0041,-0.02135,0.008));
#1390=CARTESIAN_POINT('',(0.0041,-0.02135,0.008));
#1391=CARTESIAN_POINT('',(0.007,-0.02135,0.008));
#1392=CARTESIAN_POINT('',(0.0099,-0.02135,0.008));
#1393=CARTESIAN_POINT('',(0.0099,-0.02135,0.008));
#1394=CARTESIAN_POINT('',(0.007,-0.02425,0.008));
#1395=CARTESIAN_POINT('',(0.0086,-0.02425,0.008));
#1396=CARTESIAN_POINT('',(0.0099,-0.02135,0.007));
#1397=CARTESIAN_POINT('',(0.0099,-0.02135,0.007));
#1398=CARTESIAN_POINT('',(0.0041,-0.02135,0.007));
#1399=CARTESIAN_POINT('',(0.0041,-0.02135,0.007));
#1400=CARTESIAN_POINT('',(0.007,-0.02135,0.0125));
#1401=CARTESIAN_POINT('',(0.007,-0.0012,0.012));
#1402=CARTESIAN_POINT('',(0.007,-0.02425,0.012));
#1403=CARTESIAN_POINT('',(0.0086,-0.02425,0.012));
#1404=CARTESIAN_POINT('',(0.007,-0.02425,0.012));
#1405=CARTESIAN_POINT('',(0.00555,0.02135,0.006));
#1406=CARTESIAN_POINT('',(0.0041,0.02135,0.006));
#1407=CARTESIAN_POINT('',(0.0041,0.02135,0.006));
#1408=CARTESIAN_POINT('',(0.00555,0.02135,0.006));
#1409=CARTESIAN_POINT('',(0.0099,0.02135,0.006));
#1410=CARTESIAN_POINT('',(0.0099,0.02135,0.006));
#1411=CARTESIAN_POINT('',(0.007,0.02135,0.008));
#1412=CARTESIAN_POINT('',(0.0099,0.02135,0.008));
#1413=CARTESIAN_POINT('',(0.0099,0.02135,0.008));
#1414=CARTESIAN_POINT('',(0.007,0.02135,0.008));
#1415=CARTESIAN_POINT('',(0.0041,0.02135,0.008));
#1416=CARTESIAN_POINT('',(0.0041,0.02135,0.008));
#1417=CARTESIAN_POINT('',(0.007,0.02425,0.008));
#1418=CARTESIAN_POINT('',(0.0086,0.02425,0.008));
#1419=CARTESIAN_POINT('',(0.0041,0.02135,0.007));
#1420=CARTESIAN_POINT('',(0.0041,0.02135,0.007));
#1421=CARTESIAN_POINT('',(0.0099,0.02135,0.007));
#1422=CARTESIAN_POINT('',(0.0099,0.02135,0.007));
#1423=CARTESIAN_POINT('',(0.007,0.02135,0.0125));
#1424=CARTESIAN_POINT('',(0.007,-0.0012,0.012));
#1425=CARTESIAN_POINT('',(0.007,0.02425,0.012));
#1426=CARTESIAN_POINT('',(0.0086,0.02425,0.012));
#1427=CARTESIAN_POINT('',(0.007,0.02425,0.012));
#1428=CARTESIAN_POINT('',(0.007,0.02425,0.025));
#1429=CARTESIAN_POINT('',(0.0115,0.02675,0.0225));
#1430=CARTESIAN_POINT('',(0.0125,0.02675,0.0225));
#1431=CARTESIAN_POINT('',(0.0015,0.02675,0.0225));
#1432=CARTESIAN_POINT('',(0.0025,0.02675,0.0225));
#1433=CARTESIAN_POINT('',(0.007,-0.02825,0.021));
#1434=CARTESIAN_POINT('',(0.0025,-0.02675,0.0225));
#1435=CARTESIAN_POINT('',(0.0015,-0.02675,0.0225));
#1436=CARTESIAN_POINT('',(0.0125,-0.02675,0.0225));
#1437=CARTESIAN_POINT('',(0.0115,-0.02675,0.0225));
#1438=CARTESIAN_POINT('',(0.0025,-0.02425,0.0225));
#1439=CARTESIAN_POINT('',(0.0115,-2.49366499671666E-18,0.0225));
#1440=CARTESIAN_POINT('',(0.0125,0.02675,0.02));
#1441=CARTESIAN_POINT('',(0.0125,0.02675,-0.002));
#1442=CARTESIAN_POINT('',(0.0015,0.02675,0.02));
#1443=CARTESIAN_POINT('',(0.0015,0.02675,-0.002));
#1444=CARTESIAN_POINT('',(0.0015,-0.02675,0.02));
#1445=CARTESIAN_POINT('',(0.0015,-0.02675,-0.002));
#1446=CARTESIAN_POINT('',(0.0125,-0.02675,0.02));
#1447=CARTESIAN_POINT('',(0.0125,-0.02675,-0.002));
#1448=CARTESIAN_POINT('',(0.007,0.01975,0.0195));
#1449=CARTESIAN_POINT('',(0.007,-0.01975,0.0195));
#1450=CARTESIAN_POINT('',(0.007,-3.46944695195361E-18,-0.002));
#1451=CARTESIAN_POINT('',(0.007,-3.46944695195361E-18,-0.002));
#1452=MECHANICAL_DESIGN_GEOMETRIC_PRESENTATION_REPRESENTATION('',(#869),
#1453);
#1453=(
GEOMETRIC_REPRESENTATION_CONTEXT(3)
GLOBAL_UNCERTAINTY_ASSIGNED_CONTEXT((#1454))
GLOBAL_UNIT_ASSIGNED_CONTEXT((#1457,#1456,#1455))
REPRESENTATION_CONTEXT('Part 1','TOP_LEVEL_ASSEMBLY_PART')
);
#1454=UNCERTAINTY_MEASURE_WITH_UNIT(LENGTH_MEASURE(1.E-8),#1457,
'DISTANCE_ACCURACY_VALUE','Maximum Tolerance applied to model');
#1455=(
NAMED_UNIT(*)
SI_UNIT($,.STERADIAN.)
SOLID_ANGLE_UNIT()
);
#1456=(
NAMED_UNIT(*)
PLANE_ANGLE_UNIT()
SI_UNIT($,.RADIAN.)
);
#1457=(
LENGTH_UNIT()
NAMED_UNIT(*)
SI_UNIT($,.METRE.)
);
#1458=PRODUCT_DEFINITION_SHAPE('','',#1459);
#1459=PRODUCT_DEFINITION('','',#1461,#1460);
#1460=PRODUCT_DEFINITION_CONTEXT('',#1467,'design');
#1461=PRODUCT_DEFINITION_FORMATION_WITH_SPECIFIED_SOURCE('','',#1463,
 .NOT_KNOWN.);
#1462=PRODUCT_RELATED_PRODUCT_CATEGORY('','',(#1463));
#1463=PRODUCT('Part 1','Part 1','Part 1',(#1465));
#1464=PRODUCT_CATEGORY('','');
#1465=PRODUCT_CONTEXT('',#1467,'mechanical');
#1466=APPLICATION_PROTOCOL_DEFINITION('international standard',
'ap242_managed_model_based_3d_engineering',2020,#1467);
#1467=APPLICATION_CONTEXT('managed model based 3d engineering');
ENDSEC;
END-ISO-10303-21;
