ISO-10303-21;
HEADER;
/* Generated by software containing ST-Developer
 * from STEP Tools, Inc. (www.steptools.com) 
 */
/* OPTION: using custom renumber hook */

FILE_DESCRIPTION(
/* description */ ('STEP AP242 Edition 2',
'CAx-IF Rec.Pracs.---Representation and Presentation of Product Manufa
cturing Information (PMI)---4.0---2014-10-13',
'CAx-IF Rec.Pracs.---3D Tessellated Geometry---0.4---2014-09-14','2;1',
'CAx-IF Rec.Pracs.---User Defined Attributes---1.5---2016-08-15'),
/* implementation_level */ '2;1');

FILE_NAME(
/* name */ 'steering tower',
/* time_stamp */ '2026-09-29T21:24:17Z',
/* author */ (''),
/* organization */ (''),
/* preprocessor_version */ 'ST-DEVELOPER v20',
/* originating_system */ 'ONSHAPE BY PTC INC, 1.221',
/* authorisation */ '  ');

FILE_SCHEMA (('AP242_MANAGED_MODEL_BASED_3D_ENGINEERING_MIM_LF { 1 0 10303 442 3 1 4 }'));
ENDSEC;

DATA;
#10=SHAPE_REPRESENTATION_RELATIONSHIP('','',#266,#11);
#11=ADVANCED_BREP_SHAPE_REPRESENTATION('',(#264),#451);
#12=CONICAL_SURFACE('',#298,0.00515,0.785398163397448);
#13=CYLINDRICAL_SURFACE('',#278,0.00145);
#14=CYLINDRICAL_SURFACE('',#286,0.0012);
#15=CYLINDRICAL_SURFACE('',#287,0.0012);
#16=CYLINDRICAL_SURFACE('',#288,0.0012);
#17=CYLINDRICAL_SURFACE('',#289,0.0012);
#18=CYLINDRICAL_SURFACE('',#290,0.00575);
#19=CYLINDRICAL_SURFACE('',#295,0.00495);
#20=CIRCLE('',#269,0.0012);
#21=CIRCLE('',#270,0.0012);
#22=CIRCLE('',#271,0.0012);
#23=CIRCLE('',#272,0.0012);
#24=CIRCLE('',#273,0.00575);
#25=CIRCLE('',#279,0.00145);
#26=CIRCLE('',#280,0.00145);
#27=CIRCLE('',#282,0.0012);
#28=CIRCLE('',#283,0.0012);
#29=CIRCLE('',#284,0.0012);
#30=CIRCLE('',#285,0.0012);
#31=CIRCLE('',#291,0.00575);
#32=CIRCLE('',#293,0.00515);
#33=CIRCLE('',#294,0.00495);
#34=CIRCLE('',#296,0.00495);
#35=ORIENTED_EDGE('',*,*,#97,.F.);
#36=ORIENTED_EDGE('',*,*,#98,.T.);
#37=ORIENTED_EDGE('',*,*,#99,.T.);
#38=ORIENTED_EDGE('',*,*,#100,.T.);
#39=ORIENTED_EDGE('',*,*,#101,.T.);
#40=ORIENTED_EDGE('',*,*,#102,.T.);
#41=ORIENTED_EDGE('',*,*,#103,.F.);
#42=ORIENTED_EDGE('',*,*,#104,.T.);
#43=ORIENTED_EDGE('',*,*,#105,.T.);
#44=ORIENTED_EDGE('',*,*,#106,.F.);
#45=ORIENTED_EDGE('',*,*,#107,.T.);
#46=ORIENTED_EDGE('',*,*,#97,.T.);
#47=ORIENTED_EDGE('',*,*,#108,.T.);
#48=ORIENTED_EDGE('',*,*,#99,.F.);
#49=ORIENTED_EDGE('',*,*,#109,.T.);
#50=ORIENTED_EDGE('',*,*,#110,.T.);
#51=ORIENTED_EDGE('',*,*,#111,.T.);
#52=ORIENTED_EDGE('',*,*,#112,.T.);
#53=ORIENTED_EDGE('',*,*,#113,.T.);
#54=ORIENTED_EDGE('',*,*,#101,.F.);
#55=ORIENTED_EDGE('',*,*,#114,.T.);
#56=ORIENTED_EDGE('',*,*,#115,.F.);
#57=ORIENTED_EDGE('',*,*,#116,.T.);
#58=ORIENTED_EDGE('',*,*,#103,.T.);
#59=ORIENTED_EDGE('',*,*,#117,.T.);
#60=ORIENTED_EDGE('',*,*,#118,.F.);
#61=ORIENTED_EDGE('',*,*,#119,.T.);
#62=ORIENTED_EDGE('',*,*,#110,.F.);
#63=ORIENTED_EDGE('',*,*,#120,.T.);
#64=ORIENTED_EDGE('',*,*,#106,.T.);
#65=ORIENTED_EDGE('',*,*,#121,.T.);
#66=ORIENTED_EDGE('',*,*,#115,.T.);
#67=ORIENTED_EDGE('',*,*,#122,.T.);
#68=ORIENTED_EDGE('',*,*,#112,.F.);
#69=ORIENTED_EDGE('',*,*,#123,.T.);
#70=ORIENTED_EDGE('',*,*,#118,.T.);
#71=ORIENTED_EDGE('',*,*,#98,.F.);
#72=ORIENTED_EDGE('',*,*,#107,.F.);
#73=ORIENTED_EDGE('',*,*,#120,.F.);
#74=ORIENTED_EDGE('',*,*,#109,.F.);
#75=ORIENTED_EDGE('',*,*,#104,.F.);
#76=ORIENTED_EDGE('',*,*,#116,.F.);
#77=ORIENTED_EDGE('',*,*,#121,.F.);
#78=ORIENTED_EDGE('',*,*,#108,.F.);
#79=ORIENTED_EDGE('',*,*,#102,.F.);
#80=ORIENTED_EDGE('',*,*,#113,.F.);
#81=ORIENTED_EDGE('',*,*,#122,.F.);
#82=ORIENTED_EDGE('',*,*,#117,.F.);
#83=ORIENTED_EDGE('',*,*,#100,.F.);
#84=ORIENTED_EDGE('',*,*,#111,.F.);
#85=ORIENTED_EDGE('',*,*,#123,.F.);
#86=ORIENTED_EDGE('',*,*,#114,.F.);
#87=ORIENTED_EDGE('',*,*,#124,.T.);
#88=ORIENTED_EDGE('',*,*,#105,.F.);
#89=ORIENTED_EDGE('',*,*,#125,.T.);
#90=ORIENTED_EDGE('',*,*,#126,.T.);
#91=ORIENTED_EDGE('',*,*,#126,.F.);
#92=ORIENTED_EDGE('',*,*,#127,.F.);
#93=ORIENTED_EDGE('',*,*,#119,.F.);
#94=ORIENTED_EDGE('',*,*,#127,.T.);
#95=ORIENTED_EDGE('',*,*,#124,.F.);
#96=ORIENTED_EDGE('',*,*,#125,.F.);
#97=EDGE_CURVE('',#128,#129,#151,.T.);
#98=EDGE_CURVE('',#128,#130,#20,.T.);
#99=EDGE_CURVE('',#130,#131,#152,.T.);
#100=EDGE_CURVE('',#131,#132,#21,.T.);
#101=EDGE_CURVE('',#132,#133,#153,.T.);
#102=EDGE_CURVE('',#133,#134,#22,.T.);
#103=EDGE_CURVE('',#135,#134,#154,.T.);
#104=EDGE_CURVE('',#135,#129,#23,.T.);
#105=EDGE_CURVE('',#136,#136,#24,.F.);
#106=EDGE_CURVE('',#137,#138,#155,.T.);
#107=EDGE_CURVE('',#137,#128,#156,.F.);
#108=EDGE_CURVE('',#129,#138,#157,.T.);
#109=EDGE_CURVE('',#130,#139,#158,.T.);
#110=EDGE_CURVE('',#139,#140,#159,.T.);
#111=EDGE_CURVE('',#140,#131,#160,.F.);
#112=EDGE_CURVE('',#141,#142,#161,.T.);
#113=EDGE_CURVE('',#142,#133,#162,.F.);
#114=EDGE_CURVE('',#132,#141,#163,.T.);
#115=EDGE_CURVE('',#143,#144,#164,.T.);
#116=EDGE_CURVE('',#143,#135,#165,.F.);
#117=EDGE_CURVE('',#134,#144,#166,.T.);
#118=EDGE_CURVE('',#145,#145,#25,.T.);
#119=EDGE_CURVE('',#146,#146,#26,.T.);
#120=EDGE_CURVE('',#139,#137,#27,.F.);
#121=EDGE_CURVE('',#138,#143,#28,.F.);
#122=EDGE_CURVE('',#144,#142,#29,.F.);
#123=EDGE_CURVE('',#141,#140,#30,.F.);
#124=EDGE_CURVE('',#147,#147,#31,.F.);
#125=EDGE_CURVE('',#148,#148,#32,.T.);
#126=EDGE_CURVE('',#149,#149,#33,.F.);
#127=EDGE_CURVE('',#150,#150,#34,.T.);
#128=VERTEX_POINT('',#382);
#129=VERTEX_POINT('',#383);
#130=VERTEX_POINT('',#385);
#131=VERTEX_POINT('',#387);
#132=VERTEX_POINT('',#389);
#133=VERTEX_POINT('',#391);
#134=VERTEX_POINT('',#393);
#135=VERTEX_POINT('',#395);
#136=VERTEX_POINT('',#398);
#137=VERTEX_POINT('',#401);
#138=VERTEX_POINT('',#402);
#139=VERTEX_POINT('',#407);
#140=VERTEX_POINT('',#409);
#141=VERTEX_POINT('',#413);
#142=VERTEX_POINT('',#414);
#143=VERTEX_POINT('',#419);
#144=VERTEX_POINT('',#420);
#145=VERTEX_POINT('',#425);
#146=VERTEX_POINT('',#427);
#147=VERTEX_POINT('',#439);
#148=VERTEX_POINT('',#442);
#149=VERTEX_POINT('',#444);
#150=VERTEX_POINT('',#447);
#151=LINE('',#381,#167);
#152=LINE('',#386,#168);
#153=LINE('',#390,#169);
#154=LINE('',#394,#170);
#155=LINE('',#400,#171);
#156=LINE('',#403,#172);
#157=LINE('',#404,#173);
#158=LINE('',#406,#174);
#159=LINE('',#408,#175);
#160=LINE('',#410,#176);
#161=LINE('',#412,#177);
#162=LINE('',#415,#178);
#163=LINE('',#416,#179);
#164=LINE('',#418,#180);
#165=LINE('',#421,#181);
#166=LINE('',#422,#182);
#167=VECTOR('',#303,1.);
#168=VECTOR('',#306,1.);
#169=VECTOR('',#309,1.);
#170=VECTOR('',#312,1.);
#171=VECTOR('',#319,1.);
#172=VECTOR('',#320,1.);
#173=VECTOR('',#321,1.);
#174=VECTOR('',#324,1.);
#175=VECTOR('',#325,1.);
#176=VECTOR('',#326,1.);
#177=VECTOR('',#329,1.);
#178=VECTOR('',#330,1.);
#179=VECTOR('',#331,1.);
#180=VECTOR('',#334,1.);
#181=VECTOR('',#335,1.);
#182=VECTOR('',#336,1.);
#183=EDGE_LOOP('',(#35,#36,#37,#38,#39,#40,#41,#42));
#184=EDGE_LOOP('',(#43));
#185=EDGE_LOOP('',(#44,#45,#46,#47));
#186=EDGE_LOOP('',(#48,#49,#50,#51));
#187=EDGE_LOOP('',(#52,#53,#54,#55));
#188=EDGE_LOOP('',(#56,#57,#58,#59));
#189=EDGE_LOOP('',(#60));
#190=EDGE_LOOP('',(#61));
#191=EDGE_LOOP('',(#62,#63,#64,#65,#66,#67,#68,#69));
#192=EDGE_LOOP('',(#70));
#193=EDGE_LOOP('',(#71,#72,#73,#74));
#194=EDGE_LOOP('',(#75,#76,#77,#78));
#195=EDGE_LOOP('',(#79,#80,#81,#82));
#196=EDGE_LOOP('',(#83,#84,#85,#86));
#197=EDGE_LOOP('',(#87));
#198=EDGE_LOOP('',(#88));
#199=EDGE_LOOP('',(#89));
#200=EDGE_LOOP('',(#90));
#201=EDGE_LOOP('',(#91));
#202=EDGE_LOOP('',(#92));
#203=EDGE_LOOP('',(#93));
#204=EDGE_LOOP('',(#94));
#205=EDGE_LOOP('',(#95));
#206=EDGE_LOOP('',(#96));
#207=FACE_BOUND('',#183,.T.);
#208=FACE_BOUND('',#184,.T.);
#209=FACE_BOUND('',#185,.T.);
#210=FACE_BOUND('',#186,.T.);
#211=FACE_BOUND('',#187,.T.);
#212=FACE_BOUND('',#188,.T.);
#213=FACE_BOUND('',#189,.T.);
#214=FACE_BOUND('',#190,.T.);
#215=FACE_BOUND('',#191,.T.);
#216=FACE_BOUND('',#192,.T.);
#217=FACE_BOUND('',#193,.T.);
#218=FACE_BOUND('',#194,.T.);
#219=FACE_BOUND('',#195,.T.);
#220=FACE_BOUND('',#196,.T.);
#221=FACE_BOUND('',#197,.T.);
#222=FACE_BOUND('',#198,.T.);
#223=FACE_BOUND('',#199,.T.);
#224=FACE_BOUND('',#200,.T.);
#225=FACE_BOUND('',#201,.T.);
#226=FACE_BOUND('',#202,.T.);
#227=FACE_BOUND('',#203,.T.);
#228=FACE_BOUND('',#204,.T.);
#229=FACE_BOUND('',#205,.T.);
#230=FACE_BOUND('',#206,.T.);
#231=PLANE('',#268);
#232=PLANE('',#274);
#233=PLANE('',#275);
#234=PLANE('',#276);
#235=PLANE('',#277);
#236=PLANE('',#281);
#237=PLANE('',#292);
#238=PLANE('',#297);
#239=ADVANCED_FACE('',(#207,#208),#231,.T.);
#240=ADVANCED_FACE('',(#209),#232,.T.);
#241=ADVANCED_FACE('',(#210),#233,.F.);
#242=ADVANCED_FACE('',(#211),#234,.F.);
#243=ADVANCED_FACE('',(#212),#235,.T.);
#244=ADVANCED_FACE('',(#213,#214),#13,.F.);
#245=ADVANCED_FACE('',(#215,#216),#236,.F.);
#246=ADVANCED_FACE('',(#217),#14,.T.);
#247=ADVANCED_FACE('',(#218),#15,.T.);
#248=ADVANCED_FACE('',(#219),#16,.T.);
#249=ADVANCED_FACE('',(#220),#17,.T.);
#250=ADVANCED_FACE('',(#221,#222),#18,.T.);
#251=ADVANCED_FACE('',(#223,#224),#237,.T.);
#252=ADVANCED_FACE('',(#225,#226),#19,.T.);
#253=ADVANCED_FACE('',(#227,#228),#238,.T.);
#254=ADVANCED_FACE('',(#229,#230),#12,.T.);
#255=CLOSED_SHELL('',(#239,#240,#241,#242,#243,#244,#245,#246,#247,#248,
#249,#250,#251,#252,#253,#254));
#256=STYLED_ITEM('',(#257),#264);
#257=PRESENTATION_STYLE_ASSIGNMENT((#258));
#258=SURFACE_STYLE_USAGE(.BOTH.,#259);
#259=SURFACE_SIDE_STYLE('',(#260));
#260=SURFACE_STYLE_FILL_AREA(#261);
#261=FILL_AREA_STYLE('',(#262));
#262=FILL_AREA_STYLE_COLOUR('',#263);
#263=DRAUGHTING_PRE_DEFINED_COLOUR('black');
#264=MANIFOLD_SOLID_BREP('Part 1',#255);
#265=SHAPE_DEFINITION_REPRESENTATION(#456,#266);
#266=SHAPE_REPRESENTATION('Part 1',(#267),#451);
#267=AXIS2_PLACEMENT_3D('',#379,#299,#300);
#268=AXIS2_PLACEMENT_3D('',#380,#301,#302);
#269=AXIS2_PLACEMENT_3D('',#384,#304,#305);
#270=AXIS2_PLACEMENT_3D('',#388,#307,#308);
#271=AXIS2_PLACEMENT_3D('',#392,#310,#311);
#272=AXIS2_PLACEMENT_3D('',#396,#313,#314);
#273=AXIS2_PLACEMENT_3D('',#397,#315,#316);
#274=AXIS2_PLACEMENT_3D('',#399,#317,#318);
#275=AXIS2_PLACEMENT_3D('',#405,#322,#323);
#276=AXIS2_PLACEMENT_3D('',#411,#327,#328);
#277=AXIS2_PLACEMENT_3D('',#417,#332,#333);
#278=AXIS2_PLACEMENT_3D('',#423,#337,#338);
#279=AXIS2_PLACEMENT_3D('',#424,#339,#340);
#280=AXIS2_PLACEMENT_3D('',#426,#341,#342);
#281=AXIS2_PLACEMENT_3D('',#428,#343,#344);
#282=AXIS2_PLACEMENT_3D('',#429,#345,#346);
#283=AXIS2_PLACEMENT_3D('',#430,#347,#348);
#284=AXIS2_PLACEMENT_3D('',#431,#349,#350);
#285=AXIS2_PLACEMENT_3D('',#432,#351,#352);
#286=AXIS2_PLACEMENT_3D('',#433,#353,#354);
#287=AXIS2_PLACEMENT_3D('',#434,#355,#356);
#288=AXIS2_PLACEMENT_3D('',#435,#357,#358);
#289=AXIS2_PLACEMENT_3D('',#436,#359,#360);
#290=AXIS2_PLACEMENT_3D('',#437,#361,#362);
#291=AXIS2_PLACEMENT_3D('',#438,#363,#364);
#292=AXIS2_PLACEMENT_3D('',#440,#365,#366);
#293=AXIS2_PLACEMENT_3D('',#441,#367,#368);
#294=AXIS2_PLACEMENT_3D('',#443,#369,#370);
#295=AXIS2_PLACEMENT_3D('',#445,#371,#372);
#296=AXIS2_PLACEMENT_3D('',#446,#373,#374);
#297=AXIS2_PLACEMENT_3D('',#448,#375,#376);
#298=AXIS2_PLACEMENT_3D('',#449,#377,#378);
#299=DIRECTION('',(0.,0.,1.));
#300=DIRECTION('',(1.,0.,0.));
#301=DIRECTION('',(0.,0.,1.));
#302=DIRECTION('',(1.,0.,0.));
#303=DIRECTION('',(-5.56001114095131E-17,-1.,0.));
#304=DIRECTION('',(0.,0.,1.));
#305=DIRECTION('',(1.,0.,0.));
#306=DIRECTION('',(-1.,0.,0.));
#307=DIRECTION('',(0.,0.,1.));
#308=DIRECTION('',(1.,0.,0.));
#309=DIRECTION('',(-5.56001114095131E-17,-1.,0.));
#310=DIRECTION('',(0.,0.,1.));
#311=DIRECTION('',(1.,0.,0.));
#312=DIRECTION('',(-1.,0.,0.));
#313=DIRECTION('',(0.,0.,1.));
#314=DIRECTION('',(1.,0.,0.));
#315=DIRECTION('',(0.,0.,1.));
#316=DIRECTION('',(1.,0.,0.));
#317=DIRECTION('',(1.,-5.56001114095131E-17,0.));
#318=DIRECTION('',(5.56001114095131E-17,1.,0.));
#319=DIRECTION('',(-5.56001114095131E-17,-1.,0.));
#320=DIRECTION('',(0.,0.,-1.));
#321=DIRECTION('',(0.,0.,-1.));
#322=DIRECTION('',(0.,-1.,0.));
#323=DIRECTION('',(0.,0.,-1.));
#324=DIRECTION('',(0.,0.,-1.));
#325=DIRECTION('',(-1.,0.,0.));
#326=DIRECTION('',(0.,0.,-1.));
#327=DIRECTION('',(1.,-5.56001114095131E-17,0.));
#328=DIRECTION('',(5.56001114095131E-17,1.,0.));
#329=DIRECTION('',(-5.56001114095131E-17,-1.,0.));
#330=DIRECTION('',(0.,0.,-1.));
#331=DIRECTION('',(0.,0.,-1.));
#332=DIRECTION('',(0.,-1.,0.));
#333=DIRECTION('',(0.,0.,-1.));
#334=DIRECTION('',(-1.,0.,0.));
#335=DIRECTION('',(0.,0.,-1.));
#336=DIRECTION('',(0.,0.,-1.));
#337=DIRECTION('',(0.,0.,-1.));
#338=DIRECTION('',(-1.,0.,0.));
#339=DIRECTION('',(0.,0.,1.));
#340=DIRECTION('',(1.,-6.12323399573677E-17,0.));
#341=DIRECTION('',(0.,0.,1.));
#342=DIRECTION('',(1.,-6.12323399573677E-17,0.));
#343=DIRECTION('',(0.,0.,1.));
#344=DIRECTION('',(1.,0.,0.));
#345=DIRECTION('',(0.,0.,1.));
#346=DIRECTION('',(1.,0.,0.));
#347=DIRECTION('',(0.,0.,1.));
#348=DIRECTION('',(1.,0.,0.));
#349=DIRECTION('',(0.,0.,1.));
#350=DIRECTION('',(1.,0.,0.));
#351=DIRECTION('',(0.,0.,1.));
#352=DIRECTION('',(1.,0.,0.));
#353=DIRECTION('',(0.,0.,1.));
#354=DIRECTION('',(1.,0.,0.));
#355=DIRECTION('',(0.,0.,-1.));
#356=DIRECTION('',(-1.,0.,0.));
#357=DIRECTION('',(0.,0.,1.));
#358=DIRECTION('',(1.,0.,0.));
#359=DIRECTION('',(0.,0.,-1.));
#360=DIRECTION('',(-1.,0.,0.));
#361=DIRECTION('',(0.,0.,-1.));
#362=DIRECTION('',(-1.,0.,0.));
#363=DIRECTION('',(0.,0.,1.));
#364=DIRECTION('',(1.,0.,0.));
#365=DIRECTION('',(0.,0.,1.));
#366=DIRECTION('',(1.,0.,0.));
#367=DIRECTION('',(0.,0.,1.));
#368=DIRECTION('',(1.,0.,0.));
#369=DIRECTION('',(0.,0.,1.));
#370=DIRECTION('',(1.,0.,0.));
#371=DIRECTION('',(0.,0.,-1.));
#372=DIRECTION('',(-1.,0.,0.));
#373=DIRECTION('',(0.,0.,1.));
#374=DIRECTION('',(1.,-6.12323399573677E-17,0.));
#375=DIRECTION('',(0.,0.,1.));
#376=DIRECTION('',(1.,0.,0.));
#377=DIRECTION('',(0.,0.,-1.));
#378=DIRECTION('',(-1.,0.,0.));
#379=CARTESIAN_POINT('',(0.,0.,0.));
#380=CARTESIAN_POINT('',(0.,0.,0.0025));
#381=CARTESIAN_POINT('',(0.0078,0.,0.0025));
#382=CARTESIAN_POINT('',(0.0078,0.0066,0.0025));
#383=CARTESIAN_POINT('',(0.0078,-0.0066,0.0025));
#384=CARTESIAN_POINT('',(0.0066,0.0066,0.0025));
#385=CARTESIAN_POINT('',(0.0066,0.0078,0.0025));
#386=CARTESIAN_POINT('',(8.67361737988404E-19,0.0078,0.0025));
#387=CARTESIAN_POINT('',(-0.0066,0.0078,0.0025));
#388=CARTESIAN_POINT('',(-0.0066,0.0066,0.0025));
#389=CARTESIAN_POINT('',(-0.0078,0.0066,0.0025));
#390=CARTESIAN_POINT('',(-0.0078,0.,0.0025));
#391=CARTESIAN_POINT('',(-0.0078,-0.0066,0.0025));
#392=CARTESIAN_POINT('',(-0.0066,-0.0066,0.0025));
#393=CARTESIAN_POINT('',(-0.0066,-0.0078,0.0025));
#394=CARTESIAN_POINT('',(-8.67361737988404E-19,-0.0078,0.0025));
#395=CARTESIAN_POINT('',(0.0066,-0.0078,0.0025));
#396=CARTESIAN_POINT('',(0.0066,-0.0066,0.0025));
#397=CARTESIAN_POINT('',(0.,3.52085954754864E-19,0.0025));
#398=CARTESIAN_POINT('',(0.00575,3.52085954754864E-19,0.0025));
#399=CARTESIAN_POINT('',(0.0078,0.,0.0025));
#400=CARTESIAN_POINT('',(0.0078,0.,0.));
#401=CARTESIAN_POINT('',(0.0078,0.0066,0.));
#402=CARTESIAN_POINT('',(0.0078,-0.0066,0.));
#403=CARTESIAN_POINT('',(0.0078,0.0066,0.0025));
#404=CARTESIAN_POINT('',(0.0078,-0.0066,0.0025));
#405=CARTESIAN_POINT('',(8.67361737988404E-19,0.0078,0.0025));
#406=CARTESIAN_POINT('',(0.0066,0.0078,0.));
#407=CARTESIAN_POINT('',(0.0066,0.0078,0.));
#408=CARTESIAN_POINT('',(8.67361737988404E-19,0.0078,0.));
#409=CARTESIAN_POINT('',(-0.0066,0.0078,0.));
#410=CARTESIAN_POINT('',(-0.0066,0.0078,0.0025));
#411=CARTESIAN_POINT('',(-0.0078,0.,0.0025));
#412=CARTESIAN_POINT('',(-0.0078,0.,0.));
#413=CARTESIAN_POINT('',(-0.0078,0.0066,0.));
#414=CARTESIAN_POINT('',(-0.0078,-0.0066,0.));
#415=CARTESIAN_POINT('',(-0.0078,-0.0066,0.0025));
#416=CARTESIAN_POINT('',(-0.0078,0.0066,0.0025));
#417=CARTESIAN_POINT('',(-8.67361737988404E-19,-0.0078,0.0025));
#418=CARTESIAN_POINT('',(-8.67361737988404E-19,-0.0078,0.));
#419=CARTESIAN_POINT('',(0.0066,-0.0078,0.));
#420=CARTESIAN_POINT('',(-0.0066,-0.0078,0.));
#421=CARTESIAN_POINT('',(0.0066,-0.0078,0.0025));
#422=CARTESIAN_POINT('',(-0.0066,-0.0078,0.));
#423=CARTESIAN_POINT('',(0.,8.87868929381831E-20,0.0025));
#424=CARTESIAN_POINT('',(0.,8.87868929381831E-20,0.));
#425=CARTESIAN_POINT('',(0.00145,-4.81482486096809E-35,0.));
#426=CARTESIAN_POINT('',(0.,8.87868929381831E-20,0.0275));
#427=CARTESIAN_POINT('',(0.00145,-4.81482486096809E-35,0.0275));
#428=CARTESIAN_POINT('',(0.,0.,0.));
#429=CARTESIAN_POINT('',(0.0066,0.0066,0.));
#430=CARTESIAN_POINT('',(0.0066,-0.0066,0.));
#431=CARTESIAN_POINT('',(-0.0066,-0.0066,0.));
#432=CARTESIAN_POINT('',(-0.0066,0.0066,0.));
#433=CARTESIAN_POINT('',(0.0066,0.0066,0.0025));
#434=CARTESIAN_POINT('',(0.0066,-0.0066,0.0025));
#435=CARTESIAN_POINT('',(-0.0066,-0.0066,0.0025));
#436=CARTESIAN_POINT('',(-0.0066,0.0066,0.0025));
#437=CARTESIAN_POINT('',(0.,3.52085954754864E-19,0.0035));
#438=CARTESIAN_POINT('',(0.,3.52085954754864E-19,0.0029));
#439=CARTESIAN_POINT('',(0.00575,3.52085954754864E-19,0.0029));
#440=CARTESIAN_POINT('',(0.,0.,0.0035));
#441=CARTESIAN_POINT('',(0.,3.52085954754864E-19,0.0035));
#442=CARTESIAN_POINT('',(0.00515,3.52085954754864E-19,0.0035));
#443=CARTESIAN_POINT('',(0.,3.0310008278897E-19,0.0035));
#444=CARTESIAN_POINT('',(0.00495,3.0310008278897E-19,0.0035));
#445=CARTESIAN_POINT('',(0.,3.0310008278897E-19,0.0275));
#446=CARTESIAN_POINT('',(0.,3.0310008278897E-19,0.0275));
#447=CARTESIAN_POINT('',(0.00495,-9.62964972193618E-35,0.0275));
#448=CARTESIAN_POINT('',(0.,0.,0.0275));
#449=CARTESIAN_POINT('',(0.,3.52085954754864E-19,0.0035));
#450=MECHANICAL_DESIGN_GEOMETRIC_PRESENTATION_REPRESENTATION('',(#256),
#451);
#451=(
GEOMETRIC_REPRESENTATION_CONTEXT(3)
GLOBAL_UNCERTAINTY_ASSIGNED_CONTEXT((#452))
GLOBAL_UNIT_ASSIGNED_CONTEXT((#455,#454,#453))
REPRESENTATION_CONTEXT('Part 1','TOP_LEVEL_ASSEMBLY_PART')
);
#452=UNCERTAINTY_MEASURE_WITH_UNIT(LENGTH_MEASURE(1.E-8),#455,
'DISTANCE_ACCURACY_VALUE','Maximum Tolerance applied to model');
#453=(
NAMED_UNIT(*)
SI_UNIT($,.STERADIAN.)
SOLID_ANGLE_UNIT()
);
#454=(
NAMED_UNIT(*)
PLANE_ANGLE_UNIT()
SI_UNIT($,.RADIAN.)
);
#455=(
LENGTH_UNIT()
NAMED_UNIT(*)
SI_UNIT($,.METRE.)
);
#456=PRODUCT_DEFINITION_SHAPE('','',#457);
#457=PRODUCT_DEFINITION('','',#459,#458);
#458=PRODUCT_DEFINITION_CONTEXT('',#465,'design');
#459=PRODUCT_DEFINITION_FORMATION_WITH_SPECIFIED_SOURCE('','',#461,
 .NOT_KNOWN.);
#460=PRODUCT_RELATED_PRODUCT_CATEGORY('','',(#461));
#461=PRODUCT('Part 1','Part 1','Part 1',(#463));
#462=PRODUCT_CATEGORY('','');
#463=PRODUCT_CONTEXT('',#465,'mechanical');
#464=APPLICATION_PROTOCOL_DEFINITION('international standard',
'ap242_managed_model_based_3d_engineering',2020,#465);
#465=APPLICATION_CONTEXT('managed model based 3d engineering');
ENDSEC;
END-ISO-10303-21;
