ISO-10303-21;
HEADER;
/* Generated by software containing ST-Developer
 * from STEP Tools, Inc. (www.steptools.com) 
 */
/* OPTION: using custom renumber hook */

FILE_DESCRIPTION(
/* description */ ('STEP AP242 Edition 2',
'CAx-IF Rec.Pracs.---Representation and Presentation of Product Manufa
cturing Information (PMI)---4.0---2014-10-13',
'CAx-IF Rec.Pracs.---3D Tessellated Geometry---0.4---2014-09-14','2;1',
'CAx-IF Rec.Pracs.---User Defined Attributes---1.5---2016-08-15'),
/* implementation_level */ '2;1');

FILE_NAME(
/* name */ 'steering rod',
/* time_stamp */ '2026-09-29T21:26:49Z',
/* author */ (''),
/* organization */ (''),
/* preprocessor_version */ 'ST-DEVELOPER v20',
/* originating_system */ 'ONSHAPE BY PTC INC, 1.221',
/* authorisation */ '  ');

FILE_SCHEMA (('AP242_MANAGED_MODEL_BASED_3D_ENGINEERING_MIM_LF { 1 0 10303 442 3 1 4 }'));
ENDSEC;

DATA;
#10=SHAPE_REPRESENTATION_RELATIONSHIP('','',#515,#11);
#11=ADVANCED_BREP_SHAPE_REPRESENTATION('',(#513),#873);
#12=CYLINDRICAL_SURFACE('',#563,0.0045);
#13=CYLINDRICAL_SURFACE('',#564,0.0045);
#14=CYLINDRICAL_SURFACE('',#565,0.0045);
#15=CYLINDRICAL_SURFACE('',#566,0.0045);
#16=CYLINDRICAL_SURFACE('',#567,0.0045);
#17=CYLINDRICAL_SURFACE('',#568,0.0045);
#18=CYLINDRICAL_SURFACE('',#569,0.0045);
#19=CYLINDRICAL_SURFACE('',#570,0.0045);
#20=CYLINDRICAL_SURFACE('',#571,0.0045);
#21=CYLINDRICAL_SURFACE('',#572,0.0045);
#22=TOROIDAL_SURFACE('',#548,0.0031603006186121,0.0003);
#23=TOROIDAL_SURFACE('',#549,0.0031603006186121,0.0003);
#24=TOROIDAL_SURFACE('',#559,0.0031603006186121,0.0003);
#25=TOROIDAL_SURFACE('',#560,0.0031603006186121,0.0003);
#26=SPHERICAL_SURFACE('',#545,0.003);
#27=SPHERICAL_SURFACE('',#556,0.003);
#28=CIRCLE('',#520,0.0031603006186121);
#29=CIRCLE('',#521,0.0045);
#30=CIRCLE('',#522,0.0045);
#31=CIRCLE('',#523,0.0045);
#32=CIRCLE('',#524,0.0045);
#33=CIRCLE('',#525,0.0045);
#34=CIRCLE('',#526,0.0045);
#35=CIRCLE('',#527,0.0045);
#36=CIRCLE('',#528,0.0045);
#37=CIRCLE('',#529,0.0045);
#38=CIRCLE('',#530,0.0045);
#39=CIRCLE('',#531,0.0031603006186121);
#40=CIRCLE('',#533,0.0031603006186121);
#41=CIRCLE('',#534,0.0045);
#42=CIRCLE('',#535,0.0045);
#43=CIRCLE('',#536,0.0045);
#44=CIRCLE('',#537,0.0045);
#45=CIRCLE('',#538,0.0045);
#46=CIRCLE('',#539,0.0045);
#47=CIRCLE('',#540,0.0045);
#48=CIRCLE('',#541,0.0045);
#49=CIRCLE('',#542,0.0045);
#50=CIRCLE('',#543,0.0045);
#51=CIRCLE('',#544,0.0031603006186121);
#52=CIRCLE('',#546,0.00287300056237464);
#53=CIRCLE('',#547,0.00287300056237464);
#54=CIRCLE('',#557,0.00287300056237464);
#55=CIRCLE('',#558,0.00287300056237464);
#56=ORIENTED_EDGE('',*,*,#192,.F.);
#57=ORIENTED_EDGE('',*,*,#193,.T.);
#58=ORIENTED_EDGE('',*,*,#194,.T.);
#59=ORIENTED_EDGE('',*,*,#195,.T.);
#60=ORIENTED_EDGE('',*,*,#196,.F.);
#61=ORIENTED_EDGE('',*,*,#197,.T.);
#62=ORIENTED_EDGE('',*,*,#198,.T.);
#63=ORIENTED_EDGE('',*,*,#199,.T.);
#64=ORIENTED_EDGE('',*,*,#200,.T.);
#65=ORIENTED_EDGE('',*,*,#201,.T.);
#66=ORIENTED_EDGE('',*,*,#202,.F.);
#67=ORIENTED_EDGE('',*,*,#203,.T.);
#68=ORIENTED_EDGE('',*,*,#204,.F.);
#69=ORIENTED_EDGE('',*,*,#205,.T.);
#70=ORIENTED_EDGE('',*,*,#206,.T.);
#71=ORIENTED_EDGE('',*,*,#207,.T.);
#72=ORIENTED_EDGE('',*,*,#208,.T.);
#73=ORIENTED_EDGE('',*,*,#209,.T.);
#74=ORIENTED_EDGE('',*,*,#196,.T.);
#75=ORIENTED_EDGE('',*,*,#210,.T.);
#76=ORIENTED_EDGE('',*,*,#194,.F.);
#77=ORIENTED_EDGE('',*,*,#211,.T.);
#78=ORIENTED_EDGE('',*,*,#212,.F.);
#79=ORIENTED_EDGE('',*,*,#213,.T.);
#80=ORIENTED_EDGE('',*,*,#214,.F.);
#81=ORIENTED_EDGE('',*,*,#215,.T.);
#82=ORIENTED_EDGE('',*,*,#216,.T.);
#83=ORIENTED_EDGE('',*,*,#217,.T.);
#84=ORIENTED_EDGE('',*,*,#218,.T.);
#85=ORIENTED_EDGE('',*,*,#219,.F.);
#86=ORIENTED_EDGE('',*,*,#220,.T.);
#87=ORIENTED_EDGE('',*,*,#221,.T.);
#88=ORIENTED_EDGE('',*,*,#222,.T.);
#89=ORIENTED_EDGE('',*,*,#223,.F.);
#90=ORIENTED_EDGE('',*,*,#224,.T.);
#91=ORIENTED_EDGE('',*,*,#225,.F.);
#92=ORIENTED_EDGE('',*,*,#226,.T.);
#93=ORIENTED_EDGE('',*,*,#227,.T.);
#94=ORIENTED_EDGE('',*,*,#228,.T.);
#95=ORIENTED_EDGE('',*,*,#229,.T.);
#96=ORIENTED_EDGE('',*,*,#230,.T.);
#97=ORIENTED_EDGE('',*,*,#192,.T.);
#98=ORIENTED_EDGE('',*,*,#231,.T.);
#99=ORIENTED_EDGE('',*,*,#198,.F.);
#100=ORIENTED_EDGE('',*,*,#232,.T.);
#101=ORIENTED_EDGE('',*,*,#233,.F.);
#102=ORIENTED_EDGE('',*,*,#234,.T.);
#103=ORIENTED_EDGE('',*,*,#235,.F.);
#104=ORIENTED_EDGE('',*,*,#236,.T.);
#105=ORIENTED_EDGE('',*,*,#237,.T.);
#106=ORIENTED_EDGE('',*,*,#238,.T.);
#107=ORIENTED_EDGE('',*,*,#239,.F.);
#108=ORIENTED_EDGE('',*,*,#240,.T.);
#109=ORIENTED_EDGE('',*,*,#241,.T.);
#110=ORIENTED_EDGE('',*,*,#240,.F.);
#111=ORIENTED_EDGE('',*,*,#220,.F.);
#112=ORIENTED_EDGE('',*,*,#200,.F.);
#113=ORIENTED_EDGE('',*,*,#241,.F.);
#114=ORIENTED_EDGE('',*,*,#227,.F.);
#115=ORIENTED_EDGE('',*,*,#242,.T.);
#116=ORIENTED_EDGE('',*,*,#214,.T.);
#117=ORIENTED_EDGE('',*,*,#243,.T.);
#118=ORIENTED_EDGE('',*,*,#229,.F.);
#119=ORIENTED_EDGE('',*,*,#244,.T.);
#120=ORIENTED_EDGE('',*,*,#212,.T.);
#121=ORIENTED_EDGE('',*,*,#245,.T.);
#122=ORIENTED_EDGE('',*,*,#235,.T.);
#123=ORIENTED_EDGE('',*,*,#246,.T.);
#124=ORIENTED_EDGE('',*,*,#206,.F.);
#125=ORIENTED_EDGE('',*,*,#247,.T.);
#126=ORIENTED_EDGE('',*,*,#208,.F.);
#127=ORIENTED_EDGE('',*,*,#248,.T.);
#128=ORIENTED_EDGE('',*,*,#233,.T.);
#129=ORIENTED_EDGE('',*,*,#249,.T.);
#130=ORIENTED_EDGE('',*,*,#223,.T.);
#131=ORIENTED_EDGE('',*,*,#250,.T.);
#132=ORIENTED_EDGE('',*,*,#218,.F.);
#133=ORIENTED_EDGE('',*,*,#251,.T.);
#134=ORIENTED_EDGE('',*,*,#202,.T.);
#135=ORIENTED_EDGE('',*,*,#252,.T.);
#136=ORIENTED_EDGE('',*,*,#221,.F.);
#137=ORIENTED_EDGE('',*,*,#253,.T.);
#138=ORIENTED_EDGE('',*,*,#254,.F.);
#139=ORIENTED_EDGE('',*,*,#255,.F.);
#140=ORIENTED_EDGE('',*,*,#254,.T.);
#141=ORIENTED_EDGE('',*,*,#239,.T.);
#142=ORIENTED_EDGE('',*,*,#219,.T.);
#143=ORIENTED_EDGE('',*,*,#255,.T.);
#144=ORIENTED_EDGE('',*,*,#225,.T.);
#145=ORIENTED_EDGE('',*,*,#256,.T.);
#146=ORIENTED_EDGE('',*,*,#216,.F.);
#147=ORIENTED_EDGE('',*,*,#257,.T.);
#148=ORIENTED_EDGE('',*,*,#237,.F.);
#149=ORIENTED_EDGE('',*,*,#258,.T.);
#150=ORIENTED_EDGE('',*,*,#204,.T.);
#151=ORIENTED_EDGE('',*,*,#259,.T.);
#152=ORIENTED_EDGE('',*,*,#222,.F.);
#153=ORIENTED_EDGE('',*,*,#252,.F.);
#154=ORIENTED_EDGE('',*,*,#201,.F.);
#155=ORIENTED_EDGE('',*,*,#250,.F.);
#156=ORIENTED_EDGE('',*,*,#224,.F.);
#157=ORIENTED_EDGE('',*,*,#251,.F.);
#158=ORIENTED_EDGE('',*,*,#217,.F.);
#159=ORIENTED_EDGE('',*,*,#256,.F.);
#160=ORIENTED_EDGE('',*,*,#226,.F.);
#161=ORIENTED_EDGE('',*,*,#257,.F.);
#162=ORIENTED_EDGE('',*,*,#215,.F.);
#163=ORIENTED_EDGE('',*,*,#242,.F.);
#164=ORIENTED_EDGE('',*,*,#228,.F.);
#165=ORIENTED_EDGE('',*,*,#243,.F.);
#166=ORIENTED_EDGE('',*,*,#213,.F.);
#167=ORIENTED_EDGE('',*,*,#244,.F.);
#168=ORIENTED_EDGE('',*,*,#234,.F.);
#169=ORIENTED_EDGE('',*,*,#248,.F.);
#170=ORIENTED_EDGE('',*,*,#207,.F.);
#171=ORIENTED_EDGE('',*,*,#246,.F.);
#172=ORIENTED_EDGE('',*,*,#236,.F.);
#173=ORIENTED_EDGE('',*,*,#247,.F.);
#174=ORIENTED_EDGE('',*,*,#205,.F.);
#175=ORIENTED_EDGE('',*,*,#258,.F.);
#176=ORIENTED_EDGE('',*,*,#238,.F.);
#177=ORIENTED_EDGE('',*,*,#259,.F.);
#178=ORIENTED_EDGE('',*,*,#203,.F.);
#179=ORIENTED_EDGE('',*,*,#253,.F.);
#180=ORIENTED_EDGE('',*,*,#232,.F.);
#181=ORIENTED_EDGE('',*,*,#197,.F.);
#182=ORIENTED_EDGE('',*,*,#209,.F.);
#183=ORIENTED_EDGE('',*,*,#249,.F.);
#184=ORIENTED_EDGE('',*,*,#230,.F.);
#185=ORIENTED_EDGE('',*,*,#245,.F.);
#186=ORIENTED_EDGE('',*,*,#211,.F.);
#187=ORIENTED_EDGE('',*,*,#193,.F.);
#188=ORIENTED_EDGE('',*,*,#195,.F.);
#189=ORIENTED_EDGE('',*,*,#210,.F.);
#190=ORIENTED_EDGE('',*,*,#199,.F.);
#191=ORIENTED_EDGE('',*,*,#231,.F.);
#192=EDGE_CURVE('',#260,#261,#308,.T.);
#193=EDGE_CURVE('',#260,#262,#309,.T.);
#194=EDGE_CURVE('',#262,#263,#310,.T.);
#195=EDGE_CURVE('',#263,#261,#311,.T.);
#196=EDGE_CURVE('',#264,#265,#312,.T.);
#197=EDGE_CURVE('',#264,#266,#313,.F.);
#198=EDGE_CURVE('',#266,#267,#314,.T.);
#199=EDGE_CURVE('',#267,#265,#315,.F.);
#200=EDGE_CURVE('',#268,#268,#28,.F.);
#201=EDGE_CURVE('',#269,#270,#29,.T.);
#202=EDGE_CURVE('',#271,#270,#316,.T.);
#203=EDGE_CURVE('',#271,#272,#30,.T.);
#204=EDGE_CURVE('',#273,#272,#317,.T.);
#205=EDGE_CURVE('',#273,#274,#31,.F.);
#206=EDGE_CURVE('',#274,#275,#318,.T.);
#207=EDGE_CURVE('',#275,#276,#32,.F.);
#208=EDGE_CURVE('',#276,#277,#319,.T.);
#209=EDGE_CURVE('',#277,#264,#33,.T.);
#210=EDGE_CURVE('',#265,#263,#34,.T.);
#211=EDGE_CURVE('',#262,#278,#35,.T.);
#212=EDGE_CURVE('',#279,#278,#320,.T.);
#213=EDGE_CURVE('',#279,#280,#36,.F.);
#214=EDGE_CURVE('',#281,#280,#321,.T.);
#215=EDGE_CURVE('',#281,#282,#37,.F.);
#216=EDGE_CURVE('',#282,#283,#322,.T.);
#217=EDGE_CURVE('',#283,#284,#38,.T.);
#218=EDGE_CURVE('',#284,#269,#323,.T.);
#219=EDGE_CURVE('',#285,#285,#39,.F.);
#220=EDGE_CURVE('',#286,#286,#40,.T.);
#221=EDGE_CURVE('',#287,#288,#324,.T.);
#222=EDGE_CURVE('',#288,#289,#41,.F.);
#223=EDGE_CURVE('',#290,#289,#325,.T.);
#224=EDGE_CURVE('',#290,#291,#42,.F.);
#225=EDGE_CURVE('',#292,#291,#326,.T.);
#226=EDGE_CURVE('',#292,#293,#43,.T.);
#227=EDGE_CURVE('',#293,#294,#327,.T.);
#228=EDGE_CURVE('',#294,#295,#44,.T.);
#229=EDGE_CURVE('',#295,#296,#328,.T.);
#230=EDGE_CURVE('',#296,#260,#45,.F.);
#231=EDGE_CURVE('',#261,#267,#46,.F.);
#232=EDGE_CURVE('',#266,#297,#47,.F.);
#233=EDGE_CURVE('',#298,#297,#329,.T.);
#234=EDGE_CURVE('',#298,#299,#48,.T.);
#235=EDGE_CURVE('',#300,#299,#330,.T.);
#236=EDGE_CURVE('',#300,#301,#49,.T.);
#237=EDGE_CURVE('',#301,#302,#331,.T.);
#238=EDGE_CURVE('',#302,#287,#50,.F.);
#239=EDGE_CURVE('',#303,#303,#51,.T.);
#240=EDGE_CURVE('',#304,#304,#52,.F.);
#241=EDGE_CURVE('',#305,#305,#53,.F.);
#242=EDGE_CURVE('',#293,#281,#332,.T.);
#243=EDGE_CURVE('',#280,#294,#333,.F.);
#244=EDGE_CURVE('',#295,#279,#334,.T.);
#245=EDGE_CURVE('',#278,#296,#335,.F.);
#246=EDGE_CURVE('',#299,#275,#336,.T.);
#247=EDGE_CURVE('',#274,#300,#337,.F.);
#248=EDGE_CURVE('',#276,#298,#338,.F.);
#249=EDGE_CURVE('',#297,#277,#339,.T.);
#250=EDGE_CURVE('',#289,#269,#340,.F.);
#251=EDGE_CURVE('',#284,#290,#341,.F.);
#252=EDGE_CURVE('',#270,#288,#342,.T.);
#253=EDGE_CURVE('',#287,#271,#343,.T.);
#254=EDGE_CURVE('',#306,#306,#54,.F.);
#255=EDGE_CURVE('',#307,#307,#55,.F.);
#256=EDGE_CURVE('',#291,#283,#344,.T.);
#257=EDGE_CURVE('',#282,#292,#345,.F.);
#258=EDGE_CURVE('',#301,#273,#346,.T.);
#259=EDGE_CURVE('',#272,#302,#347,.F.);
#260=VERTEX_POINT('',#730);
#261=VERTEX_POINT('',#731);
#262=VERTEX_POINT('',#733);
#263=VERTEX_POINT('',#735);
#264=VERTEX_POINT('',#739);
#265=VERTEX_POINT('',#740);
#266=VERTEX_POINT('',#742);
#267=VERTEX_POINT('',#744);
#268=VERTEX_POINT('',#748);
#269=VERTEX_POINT('',#750);
#270=VERTEX_POINT('',#751);
#271=VERTEX_POINT('',#753);
#272=VERTEX_POINT('',#755);
#273=VERTEX_POINT('',#757);
#274=VERTEX_POINT('',#759);
#275=VERTEX_POINT('',#761);
#276=VERTEX_POINT('',#763);
#277=VERTEX_POINT('',#765);
#278=VERTEX_POINT('',#769);
#279=VERTEX_POINT('',#771);
#280=VERTEX_POINT('',#773);
#281=VERTEX_POINT('',#775);
#282=VERTEX_POINT('',#777);
#283=VERTEX_POINT('',#779);
#284=VERTEX_POINT('',#781);
#285=VERTEX_POINT('',#784);
#286=VERTEX_POINT('',#787);
#287=VERTEX_POINT('',#789);
#288=VERTEX_POINT('',#790);
#289=VERTEX_POINT('',#792);
#290=VERTEX_POINT('',#794);
#291=VERTEX_POINT('',#796);
#292=VERTEX_POINT('',#798);
#293=VERTEX_POINT('',#800);
#294=VERTEX_POINT('',#802);
#295=VERTEX_POINT('',#804);
#296=VERTEX_POINT('',#806);
#297=VERTEX_POINT('',#810);
#298=VERTEX_POINT('',#812);
#299=VERTEX_POINT('',#814);
#300=VERTEX_POINT('',#816);
#301=VERTEX_POINT('',#818);
#302=VERTEX_POINT('',#820);
#303=VERTEX_POINT('',#823);
#304=VERTEX_POINT('',#826);
#305=VERTEX_POINT('',#828);
#306=VERTEX_POINT('',#851);
#307=VERTEX_POINT('',#853);
#308=LINE('',#729,#348);
#309=LINE('',#732,#349);
#310=LINE('',#734,#350);
#311=LINE('',#736,#351);
#312=LINE('',#738,#352);
#313=LINE('',#741,#353);
#314=LINE('',#743,#354);
#315=LINE('',#745,#355);
#316=LINE('',#752,#356);
#317=LINE('',#756,#357);
#318=LINE('',#760,#358);
#319=LINE('',#764,#359);
#320=LINE('',#770,#360);
#321=LINE('',#774,#361);
#322=LINE('',#778,#362);
#323=LINE('',#782,#363);
#324=LINE('',#788,#364);
#325=LINE('',#793,#365);
#326=LINE('',#797,#366);
#327=LINE('',#801,#367);
#328=LINE('',#805,#368);
#329=LINE('',#811,#369);
#330=LINE('',#815,#370);
#331=LINE('',#819,#371);
#332=LINE('',#832,#372);
#333=LINE('',#833,#373);
#334=LINE('',#835,#374);
#335=LINE('',#836,#375);
#336=LINE('',#838,#376);
#337=LINE('',#839,#377);
#338=LINE('',#841,#378);
#339=LINE('',#842,#379);
#340=LINE('',#844,#380);
#341=LINE('',#845,#381);
#342=LINE('',#847,#382);
#343=LINE('',#848,#383);
#344=LINE('',#857,#384);
#345=LINE('',#858,#385);
#346=LINE('',#860,#386);
#347=LINE('',#861,#387);
#348=VECTOR('',#577,1.);
#349=VECTOR('',#578,1.);
#350=VECTOR('',#579,1.);
#351=VECTOR('',#580,1.);
#352=VECTOR('',#583,1.);
#353=VECTOR('',#584,1.);
#354=VECTOR('',#585,1.);
#355=VECTOR('',#586,1.);
#356=VECTOR('',#593,1.);
#357=VECTOR('',#596,1.);
#358=VECTOR('',#599,1.);
#359=VECTOR('',#602,1.);
#360=VECTOR('',#609,1.);
#361=VECTOR('',#612,1.);
#362=VECTOR('',#615,1.);
#363=VECTOR('',#618,1.);
#364=VECTOR('',#625,1.);
#365=VECTOR('',#628,1.);
#366=VECTOR('',#631,1.);
#367=VECTOR('',#634,1.);
#368=VECTOR('',#637,1.);
#369=VECTOR('',#644,1.);
#370=VECTOR('',#647,1.);
#371=VECTOR('',#650,1.);
#372=VECTOR('',#667,1.);
#373=VECTOR('',#668,1.);
#374=VECTOR('',#671,1.);
#375=VECTOR('',#672,1.);
#376=VECTOR('',#675,1.);
#377=VECTOR('',#676,1.);
#378=VECTOR('',#679,1.);
#379=VECTOR('',#680,1.);
#380=VECTOR('',#683,1.);
#381=VECTOR('',#684,1.);
#382=VECTOR('',#687,1.);
#383=VECTOR('',#688,1.);
#384=VECTOR('',#701,1.);
#385=VECTOR('',#702,1.);
#386=VECTOR('',#705,1.);
#387=VECTOR('',#706,1.);
#388=EDGE_LOOP('',(#56,#57,#58,#59));
#389=EDGE_LOOP('',(#60,#61,#62,#63));
#390=EDGE_LOOP('',(#64));
#391=EDGE_LOOP('',(#65,#66,#67,#68,#69,#70,#71,#72,#73,#74,#75,#76,#77,
#78,#79,#80,#81,#82,#83,#84));
#392=EDGE_LOOP('',(#85));
#393=EDGE_LOOP('',(#86));
#394=EDGE_LOOP('',(#87,#88,#89,#90,#91,#92,#93,#94,#95,#96,#97,#98,#99,
#100,#101,#102,#103,#104,#105,#106));
#395=EDGE_LOOP('',(#107));
#396=EDGE_LOOP('',(#108));
#397=EDGE_LOOP('',(#109));
#398=EDGE_LOOP('',(#110));
#399=EDGE_LOOP('',(#111));
#400=EDGE_LOOP('',(#112));
#401=EDGE_LOOP('',(#113));
#402=EDGE_LOOP('',(#114,#115,#116,#117));
#403=EDGE_LOOP('',(#118,#119,#120,#121));
#404=EDGE_LOOP('',(#122,#123,#124,#125));
#405=EDGE_LOOP('',(#126,#127,#128,#129));
#406=EDGE_LOOP('',(#130,#131,#132,#133));
#407=EDGE_LOOP('',(#134,#135,#136,#137));
#408=EDGE_LOOP('',(#138));
#409=EDGE_LOOP('',(#139));
#410=EDGE_LOOP('',(#140));
#411=EDGE_LOOP('',(#141));
#412=EDGE_LOOP('',(#142));
#413=EDGE_LOOP('',(#143));
#414=EDGE_LOOP('',(#144,#145,#146,#147));
#415=EDGE_LOOP('',(#148,#149,#150,#151));
#416=EDGE_LOOP('',(#152,#153,#154,#155));
#417=EDGE_LOOP('',(#156,#157,#158,#159));
#418=EDGE_LOOP('',(#160,#161,#162,#163));
#419=EDGE_LOOP('',(#164,#165,#166,#167));
#420=EDGE_LOOP('',(#168,#169,#170,#171));
#421=EDGE_LOOP('',(#172,#173,#174,#175));
#422=EDGE_LOOP('',(#176,#177,#178,#179));
#423=EDGE_LOOP('',(#180,#181,#182,#183));
#424=EDGE_LOOP('',(#184,#185,#186,#187));
#425=EDGE_LOOP('',(#188,#189,#190,#191));
#426=FACE_BOUND('',#388,.T.);
#427=FACE_BOUND('',#389,.T.);
#428=FACE_BOUND('',#390,.T.);
#429=FACE_BOUND('',#391,.T.);
#430=FACE_BOUND('',#392,.T.);
#431=FACE_BOUND('',#393,.T.);
#432=FACE_BOUND('',#394,.T.);
#433=FACE_BOUND('',#395,.T.);
#434=FACE_BOUND('',#396,.T.);
#435=FACE_BOUND('',#397,.T.);
#436=FACE_BOUND('',#398,.T.);
#437=FACE_BOUND('',#399,.T.);
#438=FACE_BOUND('',#400,.T.);
#439=FACE_BOUND('',#401,.T.);
#440=FACE_BOUND('',#402,.T.);
#441=FACE_BOUND('',#403,.T.);
#442=FACE_BOUND('',#404,.T.);
#443=FACE_BOUND('',#405,.T.);
#444=FACE_BOUND('',#406,.T.);
#445=FACE_BOUND('',#407,.T.);
#446=FACE_BOUND('',#408,.T.);
#447=FACE_BOUND('',#409,.T.);
#448=FACE_BOUND('',#410,.T.);
#449=FACE_BOUND('',#411,.T.);
#450=FACE_BOUND('',#412,.T.);
#451=FACE_BOUND('',#413,.T.);
#452=FACE_BOUND('',#414,.T.);
#453=FACE_BOUND('',#415,.T.);
#454=FACE_BOUND('',#416,.T.);
#455=FACE_BOUND('',#417,.T.);
#456=FACE_BOUND('',#418,.T.);
#457=FACE_BOUND('',#419,.T.);
#458=FACE_BOUND('',#420,.T.);
#459=FACE_BOUND('',#421,.T.);
#460=FACE_BOUND('',#422,.T.);
#461=FACE_BOUND('',#423,.T.);
#462=FACE_BOUND('',#424,.T.);
#463=FACE_BOUND('',#425,.T.);
#464=PLANE('',#517);
#465=PLANE('',#518);
#466=PLANE('',#519);
#467=PLANE('',#532);
#468=PLANE('',#550);
#469=PLANE('',#551);
#470=PLANE('',#552);
#471=PLANE('',#553);
#472=PLANE('',#554);
#473=PLANE('',#555);
#474=PLANE('',#561);
#475=PLANE('',#562);
#476=ADVANCED_FACE('',(#426),#464,.T.);
#477=ADVANCED_FACE('',(#427),#465,.F.);
#478=ADVANCED_FACE('',(#428,#429,#430),#466,.T.);
#479=ADVANCED_FACE('',(#431,#432,#433),#467,.F.);
#480=ADVANCED_FACE('',(#434,#435),#26,.F.);
#481=ADVANCED_FACE('',(#436,#437),#22,.T.);
#482=ADVANCED_FACE('',(#438,#439),#23,.T.);
#483=ADVANCED_FACE('',(#440),#468,.F.);
#484=ADVANCED_FACE('',(#441),#469,.F.);
#485=ADVANCED_FACE('',(#442),#470,.T.);
#486=ADVANCED_FACE('',(#443),#471,.T.);
#487=ADVANCED_FACE('',(#444),#472,.T.);
#488=ADVANCED_FACE('',(#445),#473,.F.);
#489=ADVANCED_FACE('',(#446,#447),#27,.F.);
#490=ADVANCED_FACE('',(#448,#449),#24,.T.);
#491=ADVANCED_FACE('',(#450,#451),#25,.T.);
#492=ADVANCED_FACE('',(#452),#474,.F.);
#493=ADVANCED_FACE('',(#453),#475,.T.);
#494=ADVANCED_FACE('',(#454),#12,.T.);
#495=ADVANCED_FACE('',(#455),#13,.T.);
#496=ADVANCED_FACE('',(#456),#14,.F.);
#497=ADVANCED_FACE('',(#457),#15,.F.);
#498=ADVANCED_FACE('',(#458),#16,.F.);
#499=ADVANCED_FACE('',(#459),#17,.F.);
#500=ADVANCED_FACE('',(#460),#18,.T.);
#501=ADVANCED_FACE('',(#461),#19,.T.);
#502=ADVANCED_FACE('',(#462),#20,.T.);
#503=ADVANCED_FACE('',(#463),#21,.T.);
#504=CLOSED_SHELL('',(#476,#477,#478,#479,#480,#481,#482,#483,#484,#485,
#486,#487,#488,#489,#490,#491,#492,#493,#494,#495,#496,#497,#498,#499,#500,
#501,#502,#503));
#505=STYLED_ITEM('',(#506),#513);
#506=PRESENTATION_STYLE_ASSIGNMENT((#507));
#507=SURFACE_STYLE_USAGE(.BOTH.,#508);
#508=SURFACE_SIDE_STYLE('',(#509));
#509=SURFACE_STYLE_FILL_AREA(#510);
#510=FILL_AREA_STYLE('',(#511));
#511=FILL_AREA_STYLE_COLOUR('',#512);
#512=COLOUR_RGB('',0.647058823529412,0.647058823529412,0.647058823529412);
#513=MANIFOLD_SOLID_BREP('Part 1',#504);
#514=SHAPE_DEFINITION_REPRESENTATION(#878,#515);
#515=SHAPE_REPRESENTATION('Part 1',(#516),#873);
#516=AXIS2_PLACEMENT_3D('',#727,#573,#574);
#517=AXIS2_PLACEMENT_3D('',#728,#575,#576);
#518=AXIS2_PLACEMENT_3D('',#737,#581,#582);
#519=AXIS2_PLACEMENT_3D('',#746,#587,#588);
#520=AXIS2_PLACEMENT_3D('',#747,#589,#590);
#521=AXIS2_PLACEMENT_3D('',#749,#591,#592);
#522=AXIS2_PLACEMENT_3D('',#754,#594,#595);
#523=AXIS2_PLACEMENT_3D('',#758,#597,#598);
#524=AXIS2_PLACEMENT_3D('',#762,#600,#601);
#525=AXIS2_PLACEMENT_3D('',#766,#603,#604);
#526=AXIS2_PLACEMENT_3D('',#767,#605,#606);
#527=AXIS2_PLACEMENT_3D('',#768,#607,#608);
#528=AXIS2_PLACEMENT_3D('',#772,#610,#611);
#529=AXIS2_PLACEMENT_3D('',#776,#613,#614);
#530=AXIS2_PLACEMENT_3D('',#780,#616,#617);
#531=AXIS2_PLACEMENT_3D('',#783,#619,#620);
#532=AXIS2_PLACEMENT_3D('',#785,#621,#622);
#533=AXIS2_PLACEMENT_3D('',#786,#623,#624);
#534=AXIS2_PLACEMENT_3D('',#791,#626,#627);
#535=AXIS2_PLACEMENT_3D('',#795,#629,#630);
#536=AXIS2_PLACEMENT_3D('',#799,#632,#633);
#537=AXIS2_PLACEMENT_3D('',#803,#635,#636);
#538=AXIS2_PLACEMENT_3D('',#807,#638,#639);
#539=AXIS2_PLACEMENT_3D('',#808,#640,#641);
#540=AXIS2_PLACEMENT_3D('',#809,#642,#643);
#541=AXIS2_PLACEMENT_3D('',#813,#645,#646);
#542=AXIS2_PLACEMENT_3D('',#817,#648,#649);
#543=AXIS2_PLACEMENT_3D('',#821,#651,#652);
#544=AXIS2_PLACEMENT_3D('',#822,#653,#654);
#545=AXIS2_PLACEMENT_3D('',#824,#655,#656);
#546=AXIS2_PLACEMENT_3D('',#825,#657,#658);
#547=AXIS2_PLACEMENT_3D('',#827,#659,#660);
#548=AXIS2_PLACEMENT_3D('',#829,#661,#662);
#549=AXIS2_PLACEMENT_3D('',#830,#663,#664);
#550=AXIS2_PLACEMENT_3D('',#831,#665,#666);
#551=AXIS2_PLACEMENT_3D('',#834,#669,#670);
#552=AXIS2_PLACEMENT_3D('',#837,#673,#674);
#553=AXIS2_PLACEMENT_3D('',#840,#677,#678);
#554=AXIS2_PLACEMENT_3D('',#843,#681,#682);
#555=AXIS2_PLACEMENT_3D('',#846,#685,#686);
#556=AXIS2_PLACEMENT_3D('',#849,#689,#690);
#557=AXIS2_PLACEMENT_3D('',#850,#691,#692);
#558=AXIS2_PLACEMENT_3D('',#852,#693,#694);
#559=AXIS2_PLACEMENT_3D('',#854,#695,#696);
#560=AXIS2_PLACEMENT_3D('',#855,#697,#698);
#561=AXIS2_PLACEMENT_3D('',#856,#699,#700);
#562=AXIS2_PLACEMENT_3D('',#859,#703,#704);
#563=AXIS2_PLACEMENT_3D('',#862,#707,#708);
#564=AXIS2_PLACEMENT_3D('',#863,#709,#710);
#565=AXIS2_PLACEMENT_3D('',#864,#711,#712);
#566=AXIS2_PLACEMENT_3D('',#865,#713,#714);
#567=AXIS2_PLACEMENT_3D('',#866,#715,#716);
#568=AXIS2_PLACEMENT_3D('',#867,#717,#718);
#569=AXIS2_PLACEMENT_3D('',#868,#719,#720);
#570=AXIS2_PLACEMENT_3D('',#869,#721,#722);
#571=AXIS2_PLACEMENT_3D('',#870,#723,#724);
#572=AXIS2_PLACEMENT_3D('',#871,#725,#726);
#573=DIRECTION('',(0.,0.,1.));
#574=DIRECTION('',(1.,0.,0.));
#575=DIRECTION('',(1.,0.,0.));
#576=DIRECTION('',(0.,0.,-1.));
#577=DIRECTION('',(0.,-1.,0.));
#578=DIRECTION('',(0.,0.,1.));
#579=DIRECTION('',(0.,-1.,0.));
#580=DIRECTION('',(0.,0.,-1.));
#581=DIRECTION('',(1.,0.,0.));
#582=DIRECTION('',(0.,0.,-1.));
#583=DIRECTION('',(0.,-1.,0.));
#584=DIRECTION('',(0.,0.,1.));
#585=DIRECTION('',(0.,-1.,0.));
#586=DIRECTION('',(0.,0.,-1.));
#587=DIRECTION('',(0.,0.,1.));
#588=DIRECTION('',(1.,0.,0.));
#589=DIRECTION('',(0.,0.,1.));
#590=DIRECTION('',(1.,0.,0.));
#591=DIRECTION('',(0.,0.,1.));
#592=DIRECTION('',(1.,0.,0.));
#593=DIRECTION('',(0.,1.,0.));
#594=DIRECTION('',(0.,0.,1.));
#595=DIRECTION('',(1.,0.,0.));
#596=DIRECTION('',(-0.5,0.866025403784439,0.));
#597=DIRECTION('',(0.,0.,1.));
#598=DIRECTION('',(1.,0.,0.));
#599=DIRECTION('',(-5.42101086242752E-17,-1.,0.));
#600=DIRECTION('',(0.,0.,1.));
#601=DIRECTION('',(1.,0.,0.));
#602=DIRECTION('',(-0.5,-0.866025403784439,0.));
#603=DIRECTION('',(0.,0.,1.));
#604=DIRECTION('',(1.,0.,0.));
#605=DIRECTION('',(0.,0.,1.));
#606=DIRECTION('',(1.,0.,0.));
#607=DIRECTION('',(0.,0.,1.));
#608=DIRECTION('',(1.,0.,0.));
#609=DIRECTION('',(0.5,-0.866025403784439,0.));
#610=DIRECTION('',(0.,0.,1.));
#611=DIRECTION('',(1.,0.,0.));
#612=DIRECTION('',(1.0842021724855E-16,-1.,0.));
#613=DIRECTION('',(0.,0.,1.));
#614=DIRECTION('',(1.,0.,0.));
#615=DIRECTION('',(0.5,0.866025403784439,0.));
#616=DIRECTION('',(0.,0.,1.));
#617=DIRECTION('',(1.,0.,0.));
#618=DIRECTION('',(0.,1.,0.));
#619=DIRECTION('',(0.,0.,-1.));
#620=DIRECTION('',(1.,0.,0.));
#621=DIRECTION('',(0.,0.,1.));
#622=DIRECTION('',(1.,0.,0.));
#623=DIRECTION('',(0.,0.,1.));
#624=DIRECTION('',(1.,0.,0.));
#625=DIRECTION('',(0.,1.,0.));
#626=DIRECTION('',(0.,0.,1.));
#627=DIRECTION('',(1.,0.,0.));
#628=DIRECTION('',(0.,1.,0.));
#629=DIRECTION('',(0.,0.,1.));
#630=DIRECTION('',(1.,0.,0.));
#631=DIRECTION('',(0.5,0.866025403784439,0.));
#632=DIRECTION('',(0.,0.,1.));
#633=DIRECTION('',(1.,0.,0.));
#634=DIRECTION('',(1.0842021724855E-16,-1.,0.));
#635=DIRECTION('',(0.,0.,1.));
#636=DIRECTION('',(1.,0.,0.));
#637=DIRECTION('',(0.5,-0.866025403784439,0.));
#638=DIRECTION('',(0.,0.,1.));
#639=DIRECTION('',(1.,0.,0.));
#640=DIRECTION('',(0.,0.,1.));
#641=DIRECTION('',(1.,0.,0.));
#642=DIRECTION('',(0.,0.,1.));
#643=DIRECTION('',(1.,0.,0.));
#644=DIRECTION('',(-0.5,-0.866025403784439,0.));
#645=DIRECTION('',(0.,0.,1.));
#646=DIRECTION('',(1.,0.,0.));
#647=DIRECTION('',(-5.42101086242752E-17,-1.,0.));
#648=DIRECTION('',(0.,0.,1.));
#649=DIRECTION('',(1.,0.,0.));
#650=DIRECTION('',(-0.5,0.866025403784439,0.));
#651=DIRECTION('',(0.,0.,1.));
#652=DIRECTION('',(1.,0.,0.));
#653=DIRECTION('',(0.,0.,-1.));
#654=DIRECTION('',(1.,0.,0.));
#655=DIRECTION('',(0.,0.,1.));
#656=DIRECTION('',(1.,0.,0.));
#657=DIRECTION('',(0.,0.,1.));
#658=DIRECTION('',(1.,0.,0.));
#659=DIRECTION('',(0.,0.,-1.));
#660=DIRECTION('',(-1.,0.,0.));
#661=DIRECTION('',(0.,0.,1.));
#662=DIRECTION('',(1.,0.,0.));
#663=DIRECTION('',(0.,0.,1.));
#664=DIRECTION('',(1.,0.,0.));
#665=DIRECTION('',(-1.,-1.0842021724855E-16,0.));
#666=DIRECTION('',(1.0842021724855E-16,-1.,0.));
#667=DIRECTION('',(0.,0.,1.));
#668=DIRECTION('',(0.,0.,1.));
#669=DIRECTION('',(-0.866025403784439,-0.5,0.));
#670=DIRECTION('',(0.5,-0.866025403784439,0.));
#671=DIRECTION('',(0.,0.,1.));
#672=DIRECTION('',(0.,0.,1.));
#673=DIRECTION('',(-1.,5.42101086242752E-17,0.));
#674=DIRECTION('',(-5.42101086242752E-17,-1.,0.));
#675=DIRECTION('',(0.,0.,1.));
#676=DIRECTION('',(0.,0.,1.));
#677=DIRECTION('',(-0.866025403784439,0.5,0.));
#678=DIRECTION('',(-0.5,-0.866025403784439,0.));
#679=DIRECTION('',(0.,0.,1.));
#680=DIRECTION('',(0.,0.,1.));
#681=DIRECTION('',(1.,0.,0.));
#682=DIRECTION('',(0.,0.,-1.));
#683=DIRECTION('',(0.,0.,-1.));
#684=DIRECTION('',(0.,0.,1.));
#685=DIRECTION('',(1.,0.,0.));
#686=DIRECTION('',(0.,0.,-1.));
#687=DIRECTION('',(0.,0.,-1.));
#688=DIRECTION('',(0.,0.,1.));
#689=DIRECTION('',(0.,0.,1.));
#690=DIRECTION('',(1.,0.,0.));
#691=DIRECTION('',(0.,0.,-1.));
#692=DIRECTION('',(1.,0.,0.));
#693=DIRECTION('',(0.,0.,1.));
#694=DIRECTION('',(-1.,0.,0.));
#695=DIRECTION('',(0.,0.,1.));
#696=DIRECTION('',(1.,0.,0.));
#697=DIRECTION('',(0.,0.,1.));
#698=DIRECTION('',(1.,0.,0.));
#699=DIRECTION('',(-0.866025403784439,0.5,0.));
#700=DIRECTION('',(0.5,0.866025403784439,0.));
#701=DIRECTION('',(0.,0.,1.));
#702=DIRECTION('',(0.,0.,1.));
#703=DIRECTION('',(-0.866025403784439,-0.5,0.));
#704=DIRECTION('',(-0.5,0.866025403784439,0.));
#705=DIRECTION('',(0.,0.,1.));
#706=DIRECTION('',(0.,0.,1.));
#707=DIRECTION('',(0.,0.,-1.));
#708=DIRECTION('',(-1.,0.,0.));
#709=DIRECTION('',(0.,0.,-1.));
#710=DIRECTION('',(-1.,0.,0.));
#711=DIRECTION('',(0.,0.,-1.));
#712=DIRECTION('',(-1.,0.,0.));
#713=DIRECTION('',(0.,0.,-1.));
#714=DIRECTION('',(-1.,0.,0.));
#715=DIRECTION('',(0.,0.,-1.));
#716=DIRECTION('',(-1.,0.,0.));
#717=DIRECTION('',(0.,0.,-1.));
#718=DIRECTION('',(-1.,0.,0.));
#719=DIRECTION('',(0.,0.,-1.));
#720=DIRECTION('',(-1.,0.,0.));
#721=DIRECTION('',(0.,0.,-1.));
#722=DIRECTION('',(-1.,0.,0.));
#723=DIRECTION('',(0.,0.,-1.));
#724=DIRECTION('',(-1.,0.,0.));
#725=DIRECTION('',(0.,0.,-1.));
#726=DIRECTION('',(-1.,0.,0.));
#727=CARTESIAN_POINT('',(0.,0.,0.));
#728=CARTESIAN_POINT('',(0.0045,0.,0.00125));
#729=CARTESIAN_POINT('',(0.0045,0.,-0.00125));
#730=CARTESIAN_POINT('',(0.0045,0.00329422863405994,-0.00125));
#731=CARTESIAN_POINT('',(0.0045,0.,-0.00125));
#732=CARTESIAN_POINT('',(0.0045,0.00329422863405994,0.00125));
#733=CARTESIAN_POINT('',(0.0045,0.00329422863405994,0.00125));
#734=CARTESIAN_POINT('',(0.0045,0.,0.00125));
#735=CARTESIAN_POINT('',(0.0045,0.,0.00125));
#736=CARTESIAN_POINT('',(0.0045,0.,0.00125));
#737=CARTESIAN_POINT('',(-0.0045,0.,0.00125));
#738=CARTESIAN_POINT('',(-0.0045,0.,0.00125));
#739=CARTESIAN_POINT('',(-0.0045,0.00329422863405995,0.00125));
#740=CARTESIAN_POINT('',(-0.0045,0.,0.00125));
#741=CARTESIAN_POINT('',(-0.0045,0.00329422863405995,-0.00125));
#742=CARTESIAN_POINT('',(-0.0045,0.00329422863405995,-0.00125));
#743=CARTESIAN_POINT('',(-0.0045,0.,-0.00125));
#744=CARTESIAN_POINT('',(-0.0045,0.,-0.00125));
#745=CARTESIAN_POINT('',(-0.0045,0.,0.00125));
#746=CARTESIAN_POINT('',(0.,0.,0.00125));
#747=CARTESIAN_POINT('',(-5.1676392725965E-19,0.,0.00125));
#748=CARTESIAN_POINT('',(0.00316030061861209,0.,0.00125));
#749=CARTESIAN_POINT('',(0.,0.03,0.00125));
#750=CARTESIAN_POINT('',(0.0045,0.03,0.00125));
#751=CARTESIAN_POINT('',(-0.0045,0.03,0.00125));
#752=CARTESIAN_POINT('',(-0.0045,0.03,0.00125));
#753=CARTESIAN_POINT('',(-0.0045,0.02670577136594,0.00125));
#754=CARTESIAN_POINT('',(0.,0.02670577136594,0.00125));
#755=CARTESIAN_POINT('',(-0.00389711431702998,0.0244557713659401,0.00125));
#756=CARTESIAN_POINT('',(-0.0035,0.0237679491924312,0.00125));
#757=CARTESIAN_POINT('',(-0.00310288568297002,0.0230801270189222,0.00125));
#758=CARTESIAN_POINT('',(-0.007,0.0208301270189222,0.00125));
#759=CARTESIAN_POINT('',(-0.0025,0.0208301270189222,0.00125));
#760=CARTESIAN_POINT('',(-0.0025,0.0159641016151378,0.00125));
#761=CARTESIAN_POINT('',(-0.0025,0.00916987298107781,0.00125));
#762=CARTESIAN_POINT('',(-0.007,0.00916987298107781,0.00125));
#763=CARTESIAN_POINT('',(-0.00310288568297002,0.00691987298107781,0.00125));
#764=CARTESIAN_POINT('',(-0.0035,0.00623205080756888,0.00125));
#765=CARTESIAN_POINT('',(-0.00389711431702998,0.00554422863405995,0.00125));
#766=CARTESIAN_POINT('',(0.,0.00329422863405995,0.00125));
#767=CARTESIAN_POINT('',(0.,0.,0.00125));
#768=CARTESIAN_POINT('',(0.,0.00329422863405994,0.00125));
#769=CARTESIAN_POINT('',(0.00389711431702998,0.00554422863405995,0.00125));
#770=CARTESIAN_POINT('',(0.0035,0.00623205080756888,0.00125));
#771=CARTESIAN_POINT('',(0.00310288568297002,0.00691987298107781,0.00125));
#772=CARTESIAN_POINT('',(0.007,0.00916987298107781,0.00125));
#773=CARTESIAN_POINT('',(0.0025,0.00916987298107781,0.00125));
#774=CARTESIAN_POINT('',(0.0025,0.0159641016151378,0.00125));
#775=CARTESIAN_POINT('',(0.0025,0.0208301270189222,0.00125));
#776=CARTESIAN_POINT('',(0.007,0.0208301270189222,0.00125));
#777=CARTESIAN_POINT('',(0.00310288568297002,0.0230801270189222,0.00125));
#778=CARTESIAN_POINT('',(0.0035,0.0237679491924312,0.00125));
#779=CARTESIAN_POINT('',(0.00389711431702998,0.0244557713659401,0.00125));
#780=CARTESIAN_POINT('',(0.,0.02670577136594,0.00125));
#781=CARTESIAN_POINT('',(0.0045,0.02670577136594,0.00125));
#782=CARTESIAN_POINT('',(0.0045,0.03,0.00125));
#783=CARTESIAN_POINT('',(-5.1676392725965E-19,0.03,0.00125));
#784=CARTESIAN_POINT('',(0.00316030061861209,0.03,0.00125));
#785=CARTESIAN_POINT('',(0.,0.,-0.00125));
#786=CARTESIAN_POINT('',(-5.1676392725965E-19,0.,-0.00125));
#787=CARTESIAN_POINT('',(0.00316030061861209,0.,-0.00125));
#788=CARTESIAN_POINT('',(-0.0045,0.03,-0.00125));
#789=CARTESIAN_POINT('',(-0.0045,0.02670577136594,-0.00125));
#790=CARTESIAN_POINT('',(-0.0045,0.03,-0.00125));
#791=CARTESIAN_POINT('',(0.,0.03,-0.00125));
#792=CARTESIAN_POINT('',(0.0045,0.03,-0.00125));
#793=CARTESIAN_POINT('',(0.0045,0.03,-0.00125));
#794=CARTESIAN_POINT('',(0.0045,0.02670577136594,-0.00125));
#795=CARTESIAN_POINT('',(0.,0.02670577136594,-0.00125));
#796=CARTESIAN_POINT('',(0.00389711431702998,0.0244557713659401,-0.00125));
#797=CARTESIAN_POINT('',(0.00532355715851499,0.026926442841485,-0.00125));
#798=CARTESIAN_POINT('',(0.00310288568297002,0.0230801270189222,-0.00125));
#799=CARTESIAN_POINT('',(0.007,0.0208301270189222,-0.00125));
#800=CARTESIAN_POINT('',(0.0025,0.0208301270189222,-0.00125));
#801=CARTESIAN_POINT('',(0.0025,2.71050543121376E-19,-0.00125));
#802=CARTESIAN_POINT('',(0.0025,0.00916987298107781,-0.00125));
#803=CARTESIAN_POINT('',(0.007,0.00916987298107781,-0.00125));
#804=CARTESIAN_POINT('',(0.00310288568297002,0.00691987298107781,-0.00125));
#805=CARTESIAN_POINT('',(0.00532355715851499,0.00307355715851499,-0.00125));
#806=CARTESIAN_POINT('',(0.00389711431702998,0.00554422863405995,-0.00125));
#807=CARTESIAN_POINT('',(0.,0.00329422863405994,-0.00125));
#808=CARTESIAN_POINT('',(0.,0.,-0.00125));
#809=CARTESIAN_POINT('',(0.,0.00329422863405995,-0.00125));
#810=CARTESIAN_POINT('',(-0.00389711431702998,0.00554422863405995,-0.00125));
#811=CARTESIAN_POINT('',(-0.00532355715851499,0.00307355715851499,-0.00125));
#812=CARTESIAN_POINT('',(-0.00310288568297002,0.00691987298107781,-0.00125));
#813=CARTESIAN_POINT('',(-0.007,0.00916987298107781,-0.00125));
#814=CARTESIAN_POINT('',(-0.0025,0.00916987298107781,-0.00125));
#815=CARTESIAN_POINT('',(-0.0025,1.35525271560688E-19,-0.00125));
#816=CARTESIAN_POINT('',(-0.0025,0.0208301270189222,-0.00125));
#817=CARTESIAN_POINT('',(-0.007,0.0208301270189222,-0.00125));
#818=CARTESIAN_POINT('',(-0.00310288568297002,0.0230801270189222,-0.00125));
#819=CARTESIAN_POINT('',(-0.00532355715851499,0.026926442841485,-0.00125));
#820=CARTESIAN_POINT('',(-0.00389711431702998,0.0244557713659401,-0.00125));
#821=CARTESIAN_POINT('',(0.,0.02670577136594,-0.00125));
#822=CARTESIAN_POINT('',(-5.1676392725965E-19,0.03,-0.00125));
#823=CARTESIAN_POINT('',(0.00316030061861209,0.03,-0.00125));
#824=CARTESIAN_POINT('',(-5.1676392725965E-19,0.,0.));
#825=CARTESIAN_POINT('',(-5.1676392725965E-19,0.,-0.000863636363636364));
#826=CARTESIAN_POINT('',(0.00287300056237463,0.,-0.000863636363636364));
#827=CARTESIAN_POINT('',(-5.1676392725965E-19,0.,0.000863636363636364));
#828=CARTESIAN_POINT('',(-0.00287300056237464,0.,0.000863636363636364));
#829=CARTESIAN_POINT('',(-5.1676392725965E-19,0.,-0.00095));
#830=CARTESIAN_POINT('',(-5.1676392725965E-19,0.,0.00095));
#831=CARTESIAN_POINT('',(0.0025,0.0159641016151378,-0.02375));
#832=CARTESIAN_POINT('',(0.0025,0.0208301270189222,0.00125));
#833=CARTESIAN_POINT('',(0.0025,0.00916987298107781,-0.00125));
#834=CARTESIAN_POINT('',(0.0035,0.00623205080756888,-0.02375));
#835=CARTESIAN_POINT('',(0.00310288568297002,0.00691987298107781,0.00125));
#836=CARTESIAN_POINT('',(0.00389711431702998,0.00554422863405995,-0.00125));
#837=CARTESIAN_POINT('',(-0.0025,0.0159641016151378,-0.02375));
#838=CARTESIAN_POINT('',(-0.0025,0.00916987298107781,0.00125));
#839=CARTESIAN_POINT('',(-0.0025,0.0208301270189222,-0.00125));
#840=CARTESIAN_POINT('',(-0.0035,0.00623205080756888,-0.02375));
#841=CARTESIAN_POINT('',(-0.00310288568297002,0.00691987298107781,-0.00125));
#842=CARTESIAN_POINT('',(-0.00389711431702998,0.00554422863405995,0.00125));
#843=CARTESIAN_POINT('',(0.0045,0.03,0.00125));
#844=CARTESIAN_POINT('',(0.0045,0.03,0.00125));
#845=CARTESIAN_POINT('',(0.0045,0.02670577136594,-0.00125));
#846=CARTESIAN_POINT('',(-0.0045,0.03,0.00125));
#847=CARTESIAN_POINT('',(-0.0045,0.03,-0.00125));
#848=CARTESIAN_POINT('',(-0.0045,0.02670577136594,0.00125));
#849=CARTESIAN_POINT('',(-5.1676392725965E-19,0.03,0.));
#850=CARTESIAN_POINT('',(-5.1676392725965E-19,0.03,-0.000863636363636364));
#851=CARTESIAN_POINT('',(0.00287300056237463,0.03,-0.000863636363636364));
#852=CARTESIAN_POINT('',(-5.1676392725965E-19,0.03,0.000863636363636364));
#853=CARTESIAN_POINT('',(-0.00287300056237464,0.03,0.000863636363636364));
#854=CARTESIAN_POINT('',(-5.1676392725965E-19,0.03,-0.00095));
#855=CARTESIAN_POINT('',(-5.1676392725965E-19,0.03,0.00095));
#856=CARTESIAN_POINT('',(0.0035,0.0237679491924312,-0.02375));
#857=CARTESIAN_POINT('',(0.00389711431702998,0.0244557713659401,0.00125));
#858=CARTESIAN_POINT('',(0.00310288568297002,0.0230801270189222,-0.00125));
#859=CARTESIAN_POINT('',(-0.0035,0.0237679491924312,-0.02375));
#860=CARTESIAN_POINT('',(-0.00310288568297002,0.0230801270189222,0.00125));
#861=CARTESIAN_POINT('',(-0.00389711431702998,0.0244557713659401,-0.00125));
#862=CARTESIAN_POINT('',(0.,0.03,0.00125));
#863=CARTESIAN_POINT('',(0.,0.02670577136594,-0.02375));
#864=CARTESIAN_POINT('',(0.007,0.0208301270189222,-0.02375));
#865=CARTESIAN_POINT('',(0.007,0.00916987298107781,-0.02375));
#866=CARTESIAN_POINT('',(-0.007,0.00916987298107781,-0.02375));
#867=CARTESIAN_POINT('',(-0.007,0.0208301270189222,-0.02375));
#868=CARTESIAN_POINT('',(0.,0.02670577136594,0.00125));
#869=CARTESIAN_POINT('',(0.,0.00329422863405995,-0.02375));
#870=CARTESIAN_POINT('',(0.,0.00329422863405994,0.00125));
#871=CARTESIAN_POINT('',(0.,0.,0.00125));
#872=MECHANICAL_DESIGN_GEOMETRIC_PRESENTATION_REPRESENTATION('',(#505),
#873);
#873=(
GEOMETRIC_REPRESENTATION_CONTEXT(3)
GLOBAL_UNCERTAINTY_ASSIGNED_CONTEXT((#874))
GLOBAL_UNIT_ASSIGNED_CONTEXT((#877,#876,#875))
REPRESENTATION_CONTEXT('Part 1','TOP_LEVEL_ASSEMBLY_PART')
);
#874=UNCERTAINTY_MEASURE_WITH_UNIT(LENGTH_MEASURE(1.E-8),#877,
'DISTANCE_ACCURACY_VALUE','Maximum Tolerance applied to model');
#875=(
NAMED_UNIT(*)
SI_UNIT($,.STERADIAN.)
SOLID_ANGLE_UNIT()
);
#876=(
NAMED_UNIT(*)
PLANE_ANGLE_UNIT()
SI_UNIT($,.RADIAN.)
);
#877=(
LENGTH_UNIT()
NAMED_UNIT(*)
SI_UNIT($,.METRE.)
);
#878=PRODUCT_DEFINITION_SHAPE('','',#879);
#879=PRODUCT_DEFINITION('','',#881,#880);
#880=PRODUCT_DEFINITION_CONTEXT('',#887,'design');
#881=PRODUCT_DEFINITION_FORMATION_WITH_SPECIFIED_SOURCE('','',#883,
 .NOT_KNOWN.);
#882=PRODUCT_RELATED_PRODUCT_CATEGORY('','',(#883));
#883=PRODUCT('Part 1','Part 1','Part 1',(#885));
#884=PRODUCT_CATEGORY('','');
#885=PRODUCT_CONTEXT('',#887,'mechanical');
#886=APPLICATION_PROTOCOL_DEFINITION('international standard',
'ap242_managed_model_based_3d_engineering',2020,#887);
#887=APPLICATION_CONTEXT('managed model based 3d engineering');
ENDSEC;
END-ISO-10303-21;
