ISO-10303-21;
HEADER;
/* Generated by software containing ST-Developer
 * from STEP Tools, Inc. (www.steptools.com) 
 */
/* OPTION: using custom renumber hook */

FILE_DESCRIPTION(
/* description */ ('STEP AP242 Edition 2',
'CAx-IF Rec.Pracs.---Representation and Presentation of Product Manufa
cturing Information (PMI)---4.0---2014-10-13',
'CAx-IF Rec.Pracs.---3D Tessellated Geometry---0.4---2014-09-14','2;1',
'CAx-IF Rec.Pracs.---User Defined Attributes---1.5---2016-08-15'),
/* implementation_level */ '2;1');

FILE_NAME(
/* name */ 'sturdy rib',
/* time_stamp */ '2026-09-29T21:22:48Z',
/* author */ (''),
/* organization */ (''),
/* preprocessor_version */ 'ST-DEVELOPER v20',
/* originating_system */ 'ONSHAPE BY PTC INC, 1.221',
/* authorisation */ '  ');

FILE_SCHEMA (('AP242_MANAGED_MODEL_BASED_3D_ENGINEERING_MIM_LF { 1 0 10303 442 3 1 4 }'));
ENDSEC;

DATA;
#10=SHAPE_REPRESENTATION_RELATIONSHIP('','',#661,#11);
#11=ADVANCED_BREP_SHAPE_REPRESENTATION('',(#659),#1087);
#12=CONICAL_SURFACE('',#713,0.0033,0.785398163397448);
#13=CONICAL_SURFACE('',#714,0.0033,0.785398163397448);
#14=CONICAL_SURFACE('',#715,0.0033,0.785398163397448);
#15=CONICAL_SURFACE('',#716,0.0033,0.785398163397448);
#16=CONICAL_SURFACE('',#717,0.0033,0.785398163397448);
#17=CONICAL_SURFACE('',#718,0.0033,0.785398163397448);
#18=B_SPLINE_CURVE_WITH_KNOTS('',3,(#1031,#1032,#1033,#1034),
 .UNSPECIFIED.,.F.,.F.,(4,4),(0.,0.00319537103450261),.UNSPECIFIED.);
#19=B_SPLINE_CURVE_WITH_KNOTS('',3,(#1039,#1040,#1041,#1042),
 .UNSPECIFIED.,.F.,.F.,(4,4),(0.,0.00188035576997233),.UNSPECIFIED.);
#20=B_SPLINE_CURVE_WITH_KNOTS('',3,(#1048,#1049,#1050,#1051),
 .UNSPECIFIED.,.F.,.F.,(4,4),(0.,0.00319537103450261),.UNSPECIFIED.);
#21=B_SPLINE_CURVE_WITH_KNOTS('',3,(#1052,#1053,#1054,#1055),
 .UNSPECIFIED.,.F.,.F.,(4,4),(0.,0.00319534480712584),.UNSPECIFIED.);
#22=B_SPLINE_CURVE_WITH_KNOTS('',3,(#1061,#1062,#1063,#1064),
 .UNSPECIFIED.,.F.,.F.,(4,4),(0.,0.00188035576997233),.UNSPECIFIED.);
#23=B_SPLINE_CURVE_WITH_KNOTS('',3,(#1068,#1069,#1070,#1071),
 .UNSPECIFIED.,.F.,.F.,(4,4),(0.,0.00319534480712585),.UNSPECIFIED.);
#24=CIRCLE('',#671,0.0015);
#25=CIRCLE('',#672,0.0015);
#26=CIRCLE('',#674,0.0015);
#27=CIRCLE('',#675,0.0015);
#28=CIRCLE('',#677,0.0015);
#29=CIRCLE('',#678,0.0015);
#30=CIRCLE('',#680,0.0015);
#31=CIRCLE('',#681,0.0015);
#32=CIRCLE('',#683,0.0015);
#33=CIRCLE('',#684,0.0015);
#34=CIRCLE('',#687,0.0015);
#35=CIRCLE('',#688,0.0015);
#36=CIRCLE('',#690,0.0033);
#37=CIRCLE('',#691,0.0033);
#38=CIRCLE('',#692,0.0033);
#39=CIRCLE('',#693,0.0033);
#40=CIRCLE('',#694,0.0033);
#41=CIRCLE('',#695,0.0033);
#42=CYLINDRICAL_SURFACE('',#670,0.0015);
#43=CYLINDRICAL_SURFACE('',#673,0.0015);
#44=CYLINDRICAL_SURFACE('',#676,0.0015);
#45=CYLINDRICAL_SURFACE('',#679,0.0015);
#46=CYLINDRICAL_SURFACE('',#682,0.0015);
#47=CYLINDRICAL_SURFACE('',#686,0.0015);
#48=ORIENTED_EDGE('',*,*,#212,.F.);
#49=ORIENTED_EDGE('',*,*,#213,.T.);
#50=ORIENTED_EDGE('',*,*,#214,.T.);
#51=ORIENTED_EDGE('',*,*,#215,.F.);
#52=ORIENTED_EDGE('',*,*,#216,.T.);
#53=ORIENTED_EDGE('',*,*,#217,.T.);
#54=ORIENTED_EDGE('',*,*,#218,.T.);
#55=ORIENTED_EDGE('',*,*,#219,.F.);
#56=ORIENTED_EDGE('',*,*,#220,.T.);
#57=ORIENTED_EDGE('',*,*,#221,.T.);
#58=ORIENTED_EDGE('',*,*,#222,.T.);
#59=ORIENTED_EDGE('',*,*,#223,.T.);
#60=ORIENTED_EDGE('',*,*,#222,.F.);
#61=ORIENTED_EDGE('',*,*,#224,.T.);
#62=ORIENTED_EDGE('',*,*,#225,.T.);
#63=ORIENTED_EDGE('',*,*,#226,.T.);
#64=ORIENTED_EDGE('',*,*,#225,.F.);
#65=ORIENTED_EDGE('',*,*,#227,.T.);
#66=ORIENTED_EDGE('',*,*,#228,.T.);
#67=ORIENTED_EDGE('',*,*,#229,.F.);
#68=ORIENTED_EDGE('',*,*,#230,.T.);
#69=ORIENTED_EDGE('',*,*,#231,.T.);
#70=ORIENTED_EDGE('',*,*,#232,.T.);
#71=ORIENTED_EDGE('',*,*,#233,.F.);
#72=ORIENTED_EDGE('',*,*,#234,.T.);
#73=ORIENTED_EDGE('',*,*,#235,.T.);
#74=ORIENTED_EDGE('',*,*,#236,.T.);
#75=ORIENTED_EDGE('',*,*,#237,.T.);
#76=ORIENTED_EDGE('',*,*,#238,.T.);
#77=ORIENTED_EDGE('',*,*,#239,.T.);
#78=ORIENTED_EDGE('',*,*,#240,.T.);
#79=ORIENTED_EDGE('',*,*,#241,.T.);
#80=ORIENTED_EDGE('',*,*,#242,.T.);
#81=ORIENTED_EDGE('',*,*,#243,.T.);
#82=ORIENTED_EDGE('',*,*,#244,.T.);
#83=ORIENTED_EDGE('',*,*,#245,.T.);
#84=ORIENTED_EDGE('',*,*,#246,.T.);
#85=ORIENTED_EDGE('',*,*,#247,.T.);
#86=ORIENTED_EDGE('',*,*,#236,.F.);
#87=ORIENTED_EDGE('',*,*,#248,.T.);
#88=ORIENTED_EDGE('',*,*,#212,.T.);
#89=ORIENTED_EDGE('',*,*,#249,.F.);
#90=ORIENTED_EDGE('',*,*,#250,.T.);
#91=ORIENTED_EDGE('',*,*,#251,.T.);
#92=ORIENTED_EDGE('',*,*,#252,.T.);
#93=ORIENTED_EDGE('',*,*,#253,.T.);
#94=ORIENTED_EDGE('',*,*,#254,.T.);
#95=ORIENTED_EDGE('',*,*,#255,.T.);
#96=ORIENTED_EDGE('',*,*,#256,.T.);
#97=ORIENTED_EDGE('',*,*,#257,.T.);
#98=ORIENTED_EDGE('',*,*,#258,.T.);
#99=ORIENTED_EDGE('',*,*,#259,.T.);
#100=ORIENTED_EDGE('',*,*,#260,.T.);
#101=ORIENTED_EDGE('',*,*,#261,.T.);
#102=ORIENTED_EDGE('',*,*,#262,.T.);
#103=ORIENTED_EDGE('',*,*,#263,.T.);
#104=ORIENTED_EDGE('',*,*,#264,.T.);
#105=ORIENTED_EDGE('',*,*,#265,.T.);
#106=ORIENTED_EDGE('',*,*,#266,.T.);
#107=ORIENTED_EDGE('',*,*,#267,.T.);
#108=ORIENTED_EDGE('',*,*,#233,.T.);
#109=ORIENTED_EDGE('',*,*,#268,.T.);
#110=ORIENTED_EDGE('',*,*,#237,.F.);
#111=ORIENTED_EDGE('',*,*,#249,.T.);
#112=ORIENTED_EDGE('',*,*,#215,.T.);
#113=ORIENTED_EDGE('',*,*,#269,.T.);
#114=ORIENTED_EDGE('',*,*,#219,.T.);
#115=ORIENTED_EDGE('',*,*,#270,.T.);
#116=ORIENTED_EDGE('',*,*,#223,.F.);
#117=ORIENTED_EDGE('',*,*,#226,.F.);
#118=ORIENTED_EDGE('',*,*,#229,.T.);
#119=ORIENTED_EDGE('',*,*,#271,.T.);
#120=ORIENTED_EDGE('',*,*,#247,.F.);
#121=ORIENTED_EDGE('',*,*,#245,.F.);
#122=ORIENTED_EDGE('',*,*,#243,.F.);
#123=ORIENTED_EDGE('',*,*,#241,.F.);
#124=ORIENTED_EDGE('',*,*,#239,.F.);
#125=ORIENTED_EDGE('',*,*,#251,.F.);
#126=ORIENTED_EDGE('',*,*,#232,.F.);
#127=ORIENTED_EDGE('',*,*,#272,.T.);
#128=ORIENTED_EDGE('',*,*,#234,.F.);
#129=ORIENTED_EDGE('',*,*,#268,.F.);
#130=ORIENTED_EDGE('',*,*,#228,.F.);
#131=ORIENTED_EDGE('',*,*,#273,.T.);
#132=ORIENTED_EDGE('',*,*,#230,.F.);
#133=ORIENTED_EDGE('',*,*,#271,.F.);
#134=ORIENTED_EDGE('',*,*,#214,.F.);
#135=ORIENTED_EDGE('',*,*,#274,.T.);
#136=ORIENTED_EDGE('',*,*,#216,.F.);
#137=ORIENTED_EDGE('',*,*,#269,.F.);
#138=ORIENTED_EDGE('',*,*,#218,.F.);
#139=ORIENTED_EDGE('',*,*,#275,.T.);
#140=ORIENTED_EDGE('',*,*,#220,.F.);
#141=ORIENTED_EDGE('',*,*,#270,.F.);
#142=ORIENTED_EDGE('',*,*,#276,.F.);
#143=ORIENTED_EDGE('',*,*,#277,.T.);
#144=ORIENTED_EDGE('',*,*,#266,.F.);
#145=ORIENTED_EDGE('',*,*,#278,.F.);
#146=ORIENTED_EDGE('',*,*,#221,.F.);
#147=ORIENTED_EDGE('',*,*,#279,.F.);
#148=ORIENTED_EDGE('',*,*,#280,.T.);
#149=ORIENTED_EDGE('',*,*,#276,.T.);
#150=ORIENTED_EDGE('',*,*,#275,.F.);
#151=ORIENTED_EDGE('',*,*,#278,.T.);
#152=ORIENTED_EDGE('',*,*,#265,.F.);
#153=ORIENTED_EDGE('',*,*,#281,.F.);
#154=ORIENTED_EDGE('',*,*,#224,.F.);
#155=ORIENTED_EDGE('',*,*,#282,.F.);
#156=ORIENTED_EDGE('',*,*,#283,.T.);
#157=ORIENTED_EDGE('',*,*,#256,.F.);
#158=ORIENTED_EDGE('',*,*,#284,.T.);
#159=ORIENTED_EDGE('',*,*,#279,.T.);
#160=ORIENTED_EDGE('',*,*,#217,.F.);
#161=ORIENTED_EDGE('',*,*,#281,.T.);
#162=ORIENTED_EDGE('',*,*,#264,.F.);
#163=ORIENTED_EDGE('',*,*,#285,.F.);
#164=ORIENTED_EDGE('',*,*,#227,.F.);
#165=ORIENTED_EDGE('',*,*,#286,.F.);
#166=ORIENTED_EDGE('',*,*,#287,.T.);
#167=ORIENTED_EDGE('',*,*,#282,.T.);
#168=ORIENTED_EDGE('',*,*,#274,.F.);
#169=ORIENTED_EDGE('',*,*,#285,.T.);
#170=ORIENTED_EDGE('',*,*,#263,.F.);
#171=ORIENTED_EDGE('',*,*,#288,.F.);
#172=ORIENTED_EDGE('',*,*,#273,.F.);
#173=ORIENTED_EDGE('',*,*,#258,.F.);
#174=ORIENTED_EDGE('',*,*,#289,.T.);
#175=ORIENTED_EDGE('',*,*,#286,.T.);
#176=ORIENTED_EDGE('',*,*,#213,.F.);
#177=ORIENTED_EDGE('',*,*,#290,.F.);
#178=ORIENTED_EDGE('',*,*,#288,.T.);
#179=ORIENTED_EDGE('',*,*,#262,.F.);
#180=ORIENTED_EDGE('',*,*,#291,.F.);
#181=ORIENTED_EDGE('',*,*,#231,.F.);
#182=ORIENTED_EDGE('',*,*,#290,.T.);
#183=ORIENTED_EDGE('',*,*,#248,.F.);
#184=ORIENTED_EDGE('',*,*,#292,.F.);
#185=ORIENTED_EDGE('',*,*,#259,.F.);
#186=ORIENTED_EDGE('',*,*,#291,.T.);
#187=ORIENTED_EDGE('',*,*,#261,.F.);
#188=ORIENTED_EDGE('',*,*,#293,.F.);
#189=ORIENTED_EDGE('',*,*,#272,.F.);
#190=ORIENTED_EDGE('',*,*,#292,.T.);
#191=ORIENTED_EDGE('',*,*,#235,.F.);
#192=ORIENTED_EDGE('',*,*,#293,.T.);
#193=ORIENTED_EDGE('',*,*,#260,.F.);
#194=ORIENTED_EDGE('',*,*,#244,.F.);
#195=ORIENTED_EDGE('',*,*,#252,.F.);
#196=ORIENTED_EDGE('',*,*,#242,.F.);
#197=ORIENTED_EDGE('',*,*,#253,.F.);
#198=ORIENTED_EDGE('',*,*,#246,.F.);
#199=ORIENTED_EDGE('',*,*,#254,.F.);
#200=ORIENTED_EDGE('',*,*,#240,.F.);
#201=ORIENTED_EDGE('',*,*,#255,.F.);
#202=ORIENTED_EDGE('',*,*,#250,.F.);
#203=ORIENTED_EDGE('',*,*,#289,.F.);
#204=ORIENTED_EDGE('',*,*,#257,.F.);
#205=ORIENTED_EDGE('',*,*,#283,.F.);
#206=ORIENTED_EDGE('',*,*,#287,.F.);
#207=ORIENTED_EDGE('',*,*,#238,.F.);
#208=ORIENTED_EDGE('',*,*,#284,.F.);
#209=ORIENTED_EDGE('',*,*,#267,.F.);
#210=ORIENTED_EDGE('',*,*,#277,.F.);
#211=ORIENTED_EDGE('',*,*,#280,.F.);
#212=EDGE_CURVE('',#294,#295,#350,.T.);
#213=EDGE_CURVE('',#294,#296,#351,.T.);
#214=EDGE_CURVE('',#296,#297,#352,.T.);
#215=EDGE_CURVE('',#295,#297,#353,.T.);
#216=EDGE_CURVE('',#298,#299,#354,.T.);
#217=EDGE_CURVE('',#299,#300,#355,.T.);
#218=EDGE_CURVE('',#300,#301,#356,.T.);
#219=EDGE_CURVE('',#298,#301,#357,.T.);
#220=EDGE_CURVE('',#302,#303,#358,.T.);
#221=EDGE_CURVE('',#303,#304,#359,.T.);
#222=EDGE_CURVE('',#304,#305,#360,.T.);
#223=EDGE_CURVE('',#305,#302,#361,.T.);
#224=EDGE_CURVE('',#304,#306,#362,.T.);
#225=EDGE_CURVE('',#306,#307,#363,.T.);
#226=EDGE_CURVE('',#307,#305,#364,.T.);
#227=EDGE_CURVE('',#306,#308,#365,.T.);
#228=EDGE_CURVE('',#308,#309,#366,.T.);
#229=EDGE_CURVE('',#307,#309,#367,.T.);
#230=EDGE_CURVE('',#310,#311,#368,.T.);
#231=EDGE_CURVE('',#311,#312,#369,.T.);
#232=EDGE_CURVE('',#312,#313,#370,.T.);
#233=EDGE_CURVE('',#310,#313,#371,.T.);
#234=EDGE_CURVE('',#314,#315,#372,.T.);
#235=EDGE_CURVE('',#315,#316,#373,.T.);
#236=EDGE_CURVE('',#316,#317,#374,.T.);
#237=EDGE_CURVE('',#317,#314,#375,.T.);
#238=EDGE_CURVE('',#318,#318,#24,.F.);
#239=EDGE_CURVE('',#319,#319,#25,.T.);
#240=EDGE_CURVE('',#320,#320,#26,.F.);
#241=EDGE_CURVE('',#321,#321,#27,.T.);
#242=EDGE_CURVE('',#322,#322,#28,.F.);
#243=EDGE_CURVE('',#323,#323,#29,.T.);
#244=EDGE_CURVE('',#324,#324,#30,.F.);
#245=EDGE_CURVE('',#325,#325,#31,.T.);
#246=EDGE_CURVE('',#326,#326,#32,.F.);
#247=EDGE_CURVE('',#327,#327,#33,.T.);
#248=EDGE_CURVE('',#316,#294,#376,.T.);
#249=EDGE_CURVE('',#317,#295,#377,.T.);
#250=EDGE_CURVE('',#328,#328,#34,.F.);
#251=EDGE_CURVE('',#329,#329,#35,.T.);
#252=EDGE_CURVE('',#330,#330,#36,.T.);
#253=EDGE_CURVE('',#331,#331,#37,.T.);
#254=EDGE_CURVE('',#332,#332,#38,.T.);
#255=EDGE_CURVE('',#333,#333,#39,.T.);
#256=EDGE_CURVE('',#334,#335,#378,.T.);
#257=EDGE_CURVE('',#335,#336,#40,.T.);
#258=EDGE_CURVE('',#336,#337,#379,.T.);
#259=EDGE_CURVE('',#337,#338,#380,.T.);
#260=EDGE_CURVE('',#338,#339,#381,.T.);
#261=EDGE_CURVE('',#339,#340,#382,.T.);
#262=EDGE_CURVE('',#340,#341,#383,.T.);
#263=EDGE_CURVE('',#341,#342,#384,.T.);
#264=EDGE_CURVE('',#342,#343,#385,.T.);
#265=EDGE_CURVE('',#343,#344,#386,.T.);
#266=EDGE_CURVE('',#344,#345,#387,.T.);
#267=EDGE_CURVE('',#345,#334,#41,.T.);
#268=EDGE_CURVE('',#313,#314,#388,.T.);
#269=EDGE_CURVE('',#297,#298,#389,.F.);
#270=EDGE_CURVE('',#301,#302,#390,.T.);
#271=EDGE_CURVE('',#309,#310,#391,.F.);
#272=EDGE_CURVE('',#312,#315,#392,.T.);
#273=EDGE_CURVE('',#308,#311,#393,.F.);
#274=EDGE_CURVE('',#296,#299,#394,.F.);
#275=EDGE_CURVE('',#300,#303,#395,.T.);
#276=EDGE_CURVE('',#346,#303,#396,.F.);
#277=EDGE_CURVE('',#346,#345,#18,.T.);
#278=EDGE_CURVE('',#304,#344,#397,.F.);
#279=EDGE_CURVE('',#347,#300,#398,.T.);
#280=EDGE_CURVE('',#347,#346,#19,.T.);
#281=EDGE_CURVE('',#306,#343,#399,.T.);
#282=EDGE_CURVE('',#348,#299,#400,.F.);
#283=EDGE_CURVE('',#348,#335,#20,.T.);
#284=EDGE_CURVE('',#334,#347,#21,.T.);
#285=EDGE_CURVE('',#308,#342,#401,.T.);
#286=EDGE_CURVE('',#349,#296,#402,.F.);
#287=EDGE_CURVE('',#349,#348,#22,.T.);
#288=EDGE_CURVE('',#311,#341,#403,.T.);
#289=EDGE_CURVE('',#336,#349,#23,.T.);
#290=EDGE_CURVE('',#337,#294,#404,.T.);
#291=EDGE_CURVE('',#312,#340,#405,.F.);
#292=EDGE_CURVE('',#338,#316,#406,.T.);
#293=EDGE_CURVE('',#315,#339,#407,.T.);
#294=VERTEX_POINT('',#894);
#295=VERTEX_POINT('',#895);
#296=VERTEX_POINT('',#897);
#297=VERTEX_POINT('',#899);
#298=VERTEX_POINT('',#903);
#299=VERTEX_POINT('',#904);
#300=VERTEX_POINT('',#906);
#301=VERTEX_POINT('',#908);
#302=VERTEX_POINT('',#912);
#303=VERTEX_POINT('',#913);
#304=VERTEX_POINT('',#915);
#305=VERTEX_POINT('',#917);
#306=VERTEX_POINT('',#921);
#307=VERTEX_POINT('',#923);
#308=VERTEX_POINT('',#927);
#309=VERTEX_POINT('',#929);
#310=VERTEX_POINT('',#933);
#311=VERTEX_POINT('',#934);
#312=VERTEX_POINT('',#936);
#313=VERTEX_POINT('',#938);
#314=VERTEX_POINT('',#942);
#315=VERTEX_POINT('',#943);
#316=VERTEX_POINT('',#945);
#317=VERTEX_POINT('',#947);
#318=VERTEX_POINT('',#951);
#319=VERTEX_POINT('',#953);
#320=VERTEX_POINT('',#956);
#321=VERTEX_POINT('',#958);
#322=VERTEX_POINT('',#961);
#323=VERTEX_POINT('',#963);
#324=VERTEX_POINT('',#966);
#325=VERTEX_POINT('',#968);
#326=VERTEX_POINT('',#971);
#327=VERTEX_POINT('',#973);
#328=VERTEX_POINT('',#979);
#329=VERTEX_POINT('',#981);
#330=VERTEX_POINT('',#984);
#331=VERTEX_POINT('',#986);
#332=VERTEX_POINT('',#988);
#333=VERTEX_POINT('',#990);
#334=VERTEX_POINT('',#992);
#335=VERTEX_POINT('',#993);
#336=VERTEX_POINT('',#995);
#337=VERTEX_POINT('',#997);
#338=VERTEX_POINT('',#999);
#339=VERTEX_POINT('',#1001);
#340=VERTEX_POINT('',#1003);
#341=VERTEX_POINT('',#1005);
#342=VERTEX_POINT('',#1007);
#343=VERTEX_POINT('',#1009);
#344=VERTEX_POINT('',#1011);
#345=VERTEX_POINT('',#1013);
#346=VERTEX_POINT('',#1030);
#347=VERTEX_POINT('',#1038);
#348=VERTEX_POINT('',#1047);
#349=VERTEX_POINT('',#1060);
#350=LINE('',#893,#408);
#351=LINE('',#896,#409);
#352=LINE('',#898,#410);
#353=LINE('',#900,#411);
#354=LINE('',#902,#412);
#355=LINE('',#905,#413);
#356=LINE('',#907,#414);
#357=LINE('',#909,#415);
#358=LINE('',#911,#416);
#359=LINE('',#914,#417);
#360=LINE('',#916,#418);
#361=LINE('',#918,#419);
#362=LINE('',#920,#420);
#363=LINE('',#922,#421);
#364=LINE('',#924,#422);
#365=LINE('',#926,#423);
#366=LINE('',#928,#424);
#367=LINE('',#930,#425);
#368=LINE('',#932,#426);
#369=LINE('',#935,#427);
#370=LINE('',#937,#428);
#371=LINE('',#939,#429);
#372=LINE('',#941,#430);
#373=LINE('',#944,#431);
#374=LINE('',#946,#432);
#375=LINE('',#948,#433);
#376=LINE('',#975,#434);
#377=LINE('',#976,#435);
#378=LINE('',#991,#436);
#379=LINE('',#996,#437);
#380=LINE('',#998,#438);
#381=LINE('',#1000,#439);
#382=LINE('',#1002,#440);
#383=LINE('',#1004,#441);
#384=LINE('',#1006,#442);
#385=LINE('',#1008,#443);
#386=LINE('',#1010,#444);
#387=LINE('',#1012,#445);
#388=LINE('',#1016,#446);
#389=LINE('',#1017,#447);
#390=LINE('',#1018,#448);
#391=LINE('',#1019,#449);
#392=LINE('',#1021,#450);
#393=LINE('',#1023,#451);
#394=LINE('',#1025,#452);
#395=LINE('',#1027,#453);
#396=LINE('',#1029,#454);
#397=LINE('',#1035,#455);
#398=LINE('',#1037,#456);
#399=LINE('',#1044,#457);
#400=LINE('',#1046,#458);
#401=LINE('',#1057,#459);
#402=LINE('',#1059,#460);
#403=LINE('',#1066,#461);
#404=LINE('',#1072,#462);
#405=LINE('',#1074,#463);
#406=LINE('',#1076,#464);
#407=LINE('',#1078,#465);
#408=VECTOR('',#723,1.);
#409=VECTOR('',#724,1.);
#410=VECTOR('',#725,1.);
#411=VECTOR('',#726,1.);
#412=VECTOR('',#729,1.);
#413=VECTOR('',#730,1.);
#414=VECTOR('',#731,1.);
#415=VECTOR('',#732,1.);
#416=VECTOR('',#735,1.);
#417=VECTOR('',#736,1.);
#418=VECTOR('',#737,1.);
#419=VECTOR('',#738,1.);
#420=VECTOR('',#741,1.);
#421=VECTOR('',#742,1.);
#422=VECTOR('',#743,1.);
#423=VECTOR('',#746,1.);
#424=VECTOR('',#747,1.);
#425=VECTOR('',#748,1.);
#426=VECTOR('',#751,1.);
#427=VECTOR('',#752,1.);
#428=VECTOR('',#753,1.);
#429=VECTOR('',#754,1.);
#430=VECTOR('',#757,1.);
#431=VECTOR('',#758,1.);
#432=VECTOR('',#759,1.);
#433=VECTOR('',#760,1.);
#434=VECTOR('',#793,1.);
#435=VECTOR('',#794,1.);
#436=VECTOR('',#811,1.);
#437=VECTOR('',#814,1.);
#438=VECTOR('',#815,1.);
#439=VECTOR('',#816,1.);
#440=VECTOR('',#817,1.);
#441=VECTOR('',#818,1.);
#442=VECTOR('',#819,1.);
#443=VECTOR('',#820,1.);
#444=VECTOR('',#821,1.);
#445=VECTOR('',#822,1.);
#446=VECTOR('',#827,1.);
#447=VECTOR('',#828,1.);
#448=VECTOR('',#829,1.);
#449=VECTOR('',#830,1.);
#450=VECTOR('',#833,1.);
#451=VECTOR('',#836,1.);
#452=VECTOR('',#839,1.);
#453=VECTOR('',#842,1.);
#454=VECTOR('',#845,1.);
#455=VECTOR('',#846,1.);
#456=VECTOR('',#849,1.);
#457=VECTOR('',#852,1.);
#458=VECTOR('',#855,1.);
#459=VECTOR('',#858,1.);
#460=VECTOR('',#861,1.);
#461=VECTOR('',#864,1.);
#462=VECTOR('',#867,1.);
#463=VECTOR('',#870,1.);
#464=VECTOR('',#873,1.);
#465=VECTOR('',#876,1.);
#466=EDGE_LOOP('',(#48,#49,#50,#51));
#467=EDGE_LOOP('',(#52,#53,#54,#55));
#468=EDGE_LOOP('',(#56,#57,#58,#59));
#469=EDGE_LOOP('',(#60,#61,#62,#63));
#470=EDGE_LOOP('',(#64,#65,#66,#67));
#471=EDGE_LOOP('',(#68,#69,#70,#71));
#472=EDGE_LOOP('',(#72,#73,#74,#75));
#473=EDGE_LOOP('',(#76));
#474=EDGE_LOOP('',(#77));
#475=EDGE_LOOP('',(#78));
#476=EDGE_LOOP('',(#79));
#477=EDGE_LOOP('',(#80));
#478=EDGE_LOOP('',(#81));
#479=EDGE_LOOP('',(#82));
#480=EDGE_LOOP('',(#83));
#481=EDGE_LOOP('',(#84));
#482=EDGE_LOOP('',(#85));
#483=EDGE_LOOP('',(#86,#87,#88,#89));
#484=EDGE_LOOP('',(#90));
#485=EDGE_LOOP('',(#91));
#486=EDGE_LOOP('',(#92));
#487=EDGE_LOOP('',(#93));
#488=EDGE_LOOP('',(#94));
#489=EDGE_LOOP('',(#95));
#490=EDGE_LOOP('',(#96,#97,#98,#99,#100,#101,#102,#103,#104,#105,#106,#107));
#491=EDGE_LOOP('',(#108,#109,#110,#111,#112,#113,#114,#115,#116,#117,#118,
#119));
#492=EDGE_LOOP('',(#120));
#493=EDGE_LOOP('',(#121));
#494=EDGE_LOOP('',(#122));
#495=EDGE_LOOP('',(#123));
#496=EDGE_LOOP('',(#124));
#497=EDGE_LOOP('',(#125));
#498=EDGE_LOOP('',(#126,#127,#128,#129));
#499=EDGE_LOOP('',(#130,#131,#132,#133));
#500=EDGE_LOOP('',(#134,#135,#136,#137));
#501=EDGE_LOOP('',(#138,#139,#140,#141));
#502=EDGE_LOOP('',(#142,#143,#144,#145,#146));
#503=EDGE_LOOP('',(#147,#148,#149,#150));
#504=EDGE_LOOP('',(#151,#152,#153,#154));
#505=EDGE_LOOP('',(#155,#156,#157,#158,#159,#160));
#506=EDGE_LOOP('',(#161,#162,#163,#164));
#507=EDGE_LOOP('',(#165,#166,#167,#168));
#508=EDGE_LOOP('',(#169,#170,#171,#172));
#509=EDGE_LOOP('',(#173,#174,#175,#176,#177));
#510=EDGE_LOOP('',(#178,#179,#180,#181));
#511=EDGE_LOOP('',(#182,#183,#184,#185));
#512=EDGE_LOOP('',(#186,#187,#188,#189));
#513=EDGE_LOOP('',(#190,#191,#192,#193));
#514=EDGE_LOOP('',(#194));
#515=EDGE_LOOP('',(#195));
#516=EDGE_LOOP('',(#196));
#517=EDGE_LOOP('',(#197));
#518=EDGE_LOOP('',(#198));
#519=EDGE_LOOP('',(#199));
#520=EDGE_LOOP('',(#200));
#521=EDGE_LOOP('',(#201));
#522=EDGE_LOOP('',(#202));
#523=EDGE_LOOP('',(#203,#204,#205,#206));
#524=EDGE_LOOP('',(#207));
#525=EDGE_LOOP('',(#208,#209,#210,#211));
#526=FACE_BOUND('',#466,.T.);
#527=FACE_BOUND('',#467,.T.);
#528=FACE_BOUND('',#468,.T.);
#529=FACE_BOUND('',#469,.T.);
#530=FACE_BOUND('',#470,.T.);
#531=FACE_BOUND('',#471,.T.);
#532=FACE_BOUND('',#472,.T.);
#533=FACE_BOUND('',#473,.T.);
#534=FACE_BOUND('',#474,.T.);
#535=FACE_BOUND('',#475,.T.);
#536=FACE_BOUND('',#476,.T.);
#537=FACE_BOUND('',#477,.T.);
#538=FACE_BOUND('',#478,.T.);
#539=FACE_BOUND('',#479,.T.);
#540=FACE_BOUND('',#480,.T.);
#541=FACE_BOUND('',#481,.T.);
#542=FACE_BOUND('',#482,.T.);
#543=FACE_BOUND('',#483,.T.);
#544=FACE_BOUND('',#484,.T.);
#545=FACE_BOUND('',#485,.T.);
#546=FACE_BOUND('',#486,.T.);
#547=FACE_BOUND('',#487,.T.);
#548=FACE_BOUND('',#488,.T.);
#549=FACE_BOUND('',#489,.T.);
#550=FACE_BOUND('',#490,.T.);
#551=FACE_BOUND('',#491,.T.);
#552=FACE_BOUND('',#492,.T.);
#553=FACE_BOUND('',#493,.T.);
#554=FACE_BOUND('',#494,.T.);
#555=FACE_BOUND('',#495,.T.);
#556=FACE_BOUND('',#496,.T.);
#557=FACE_BOUND('',#497,.T.);
#558=FACE_BOUND('',#498,.T.);
#559=FACE_BOUND('',#499,.T.);
#560=FACE_BOUND('',#500,.T.);
#561=FACE_BOUND('',#501,.T.);
#562=FACE_BOUND('',#502,.T.);
#563=FACE_BOUND('',#503,.T.);
#564=FACE_BOUND('',#504,.T.);
#565=FACE_BOUND('',#505,.T.);
#566=FACE_BOUND('',#506,.T.);
#567=FACE_BOUND('',#507,.T.);
#568=FACE_BOUND('',#508,.T.);
#569=FACE_BOUND('',#509,.T.);
#570=FACE_BOUND('',#510,.T.);
#571=FACE_BOUND('',#511,.T.);
#572=FACE_BOUND('',#512,.T.);
#573=FACE_BOUND('',#513,.T.);
#574=FACE_BOUND('',#514,.T.);
#575=FACE_BOUND('',#515,.T.);
#576=FACE_BOUND('',#516,.T.);
#577=FACE_BOUND('',#517,.T.);
#578=FACE_BOUND('',#518,.T.);
#579=FACE_BOUND('',#519,.T.);
#580=FACE_BOUND('',#520,.T.);
#581=FACE_BOUND('',#521,.T.);
#582=FACE_BOUND('',#522,.T.);
#583=FACE_BOUND('',#523,.T.);
#584=FACE_BOUND('',#524,.T.);
#585=FACE_BOUND('',#525,.T.);
#586=PLANE('',#663);
#587=PLANE('',#664);
#588=PLANE('',#665);
#589=PLANE('',#666);
#590=PLANE('',#667);
#591=PLANE('',#668);
#592=PLANE('',#669);
#593=PLANE('',#685);
#594=PLANE('',#689);
#595=PLANE('',#696);
#596=PLANE('',#697);
#597=PLANE('',#698);
#598=PLANE('',#699);
#599=PLANE('',#700);
#600=PLANE('',#701);
#601=PLANE('',#702);
#602=PLANE('',#703);
#603=PLANE('',#704);
#604=PLANE('',#705);
#605=PLANE('',#706);
#606=PLANE('',#707);
#607=PLANE('',#708);
#608=PLANE('',#709);
#609=PLANE('',#710);
#610=PLANE('',#711);
#611=PLANE('',#712);
#612=ADVANCED_FACE('',(#526),#586,.T.);
#613=ADVANCED_FACE('',(#527),#587,.T.);
#614=ADVANCED_FACE('',(#528),#588,.F.);
#615=ADVANCED_FACE('',(#529),#589,.F.);
#616=ADVANCED_FACE('',(#530),#590,.T.);
#617=ADVANCED_FACE('',(#531),#591,.T.);
#618=ADVANCED_FACE('',(#532),#592,.F.);
#619=ADVANCED_FACE('',(#533,#534),#42,.F.);
#620=ADVANCED_FACE('',(#535,#536),#43,.F.);
#621=ADVANCED_FACE('',(#537,#538),#44,.F.);
#622=ADVANCED_FACE('',(#539,#540),#45,.F.);
#623=ADVANCED_FACE('',(#541,#542),#46,.F.);
#624=ADVANCED_FACE('',(#543),#593,.T.);
#625=ADVANCED_FACE('',(#544,#545),#47,.F.);
#626=ADVANCED_FACE('',(#546,#547,#548,#549,#550),#594,.F.);
#627=ADVANCED_FACE('',(#551,#552,#553,#554,#555,#556,#557),#595,.T.);
#628=ADVANCED_FACE('',(#558),#596,.T.);
#629=ADVANCED_FACE('',(#559),#597,.F.);
#630=ADVANCED_FACE('',(#560),#598,.F.);
#631=ADVANCED_FACE('',(#561),#599,.T.);
#632=ADVANCED_FACE('',(#562),#600,.F.);
#633=ADVANCED_FACE('',(#563),#601,.T.);
#634=ADVANCED_FACE('',(#564),#602,.F.);
#635=ADVANCED_FACE('',(#565),#603,.T.);
#636=ADVANCED_FACE('',(#566),#604,.T.);
#637=ADVANCED_FACE('',(#567),#605,.F.);
#638=ADVANCED_FACE('',(#568),#606,.F.);
#639=ADVANCED_FACE('',(#569),#607,.T.);
#640=ADVANCED_FACE('',(#570),#608,.T.);
#641=ADVANCED_FACE('',(#571),#609,.T.);
#642=ADVANCED_FACE('',(#572),#610,.T.);
#643=ADVANCED_FACE('',(#573),#611,.F.);
#644=ADVANCED_FACE('',(#574,#575),#12,.F.);
#645=ADVANCED_FACE('',(#576,#577),#13,.F.);
#646=ADVANCED_FACE('',(#578,#579),#14,.F.);
#647=ADVANCED_FACE('',(#580,#581),#15,.F.);
#648=ADVANCED_FACE('',(#582,#583),#16,.F.);
#649=ADVANCED_FACE('',(#584,#585),#17,.F.);
#650=CLOSED_SHELL('',(#612,#613,#614,#615,#616,#617,#618,#619,#620,#621,
#622,#623,#624,#625,#626,#627,#628,#629,#630,#631,#632,#633,#634,#635,#636,
#637,#638,#639,#640,#641,#642,#643,#644,#645,#646,#647,#648,#649));
#651=STYLED_ITEM('',(#652),#659);
#652=PRESENTATION_STYLE_ASSIGNMENT((#653));
#653=SURFACE_STYLE_USAGE(.BOTH.,#654);
#654=SURFACE_SIDE_STYLE('',(#655));
#655=SURFACE_STYLE_FILL_AREA(#656);
#656=FILL_AREA_STYLE('',(#657));
#657=FILL_AREA_STYLE_COLOUR('',#658);
#658=COLOUR_RGB('',0.647058823529412,0.647058823529412,0.647058823529412);
#659=MANIFOLD_SOLID_BREP('Part 1',#650);
#660=SHAPE_DEFINITION_REPRESENTATION(#1092,#661);
#661=SHAPE_REPRESENTATION('Part 1',(#662),#1087);
#662=AXIS2_PLACEMENT_3D('',#891,#719,#720);
#663=AXIS2_PLACEMENT_3D('',#892,#721,#722);
#664=AXIS2_PLACEMENT_3D('',#901,#727,#728);
#665=AXIS2_PLACEMENT_3D('',#910,#733,#734);
#666=AXIS2_PLACEMENT_3D('',#919,#739,#740);
#667=AXIS2_PLACEMENT_3D('',#925,#744,#745);
#668=AXIS2_PLACEMENT_3D('',#931,#749,#750);
#669=AXIS2_PLACEMENT_3D('',#940,#755,#756);
#670=AXIS2_PLACEMENT_3D('',#949,#761,#762);
#671=AXIS2_PLACEMENT_3D('',#950,#763,#764);
#672=AXIS2_PLACEMENT_3D('',#952,#765,#766);
#673=AXIS2_PLACEMENT_3D('',#954,#767,#768);
#674=AXIS2_PLACEMENT_3D('',#955,#769,#770);
#675=AXIS2_PLACEMENT_3D('',#957,#771,#772);
#676=AXIS2_PLACEMENT_3D('',#959,#773,#774);
#677=AXIS2_PLACEMENT_3D('',#960,#775,#776);
#678=AXIS2_PLACEMENT_3D('',#962,#777,#778);
#679=AXIS2_PLACEMENT_3D('',#964,#779,#780);
#680=AXIS2_PLACEMENT_3D('',#965,#781,#782);
#681=AXIS2_PLACEMENT_3D('',#967,#783,#784);
#682=AXIS2_PLACEMENT_3D('',#969,#785,#786);
#683=AXIS2_PLACEMENT_3D('',#970,#787,#788);
#684=AXIS2_PLACEMENT_3D('',#972,#789,#790);
#685=AXIS2_PLACEMENT_3D('',#974,#791,#792);
#686=AXIS2_PLACEMENT_3D('',#977,#795,#796);
#687=AXIS2_PLACEMENT_3D('',#978,#797,#798);
#688=AXIS2_PLACEMENT_3D('',#980,#799,#800);
#689=AXIS2_PLACEMENT_3D('',#982,#801,#802);
#690=AXIS2_PLACEMENT_3D('',#983,#803,#804);
#691=AXIS2_PLACEMENT_3D('',#985,#805,#806);
#692=AXIS2_PLACEMENT_3D('',#987,#807,#808);
#693=AXIS2_PLACEMENT_3D('',#989,#809,#810);
#694=AXIS2_PLACEMENT_3D('',#994,#812,#813);
#695=AXIS2_PLACEMENT_3D('',#1014,#823,#824);
#696=AXIS2_PLACEMENT_3D('',#1015,#825,#826);
#697=AXIS2_PLACEMENT_3D('',#1020,#831,#832);
#698=AXIS2_PLACEMENT_3D('',#1022,#834,#835);
#699=AXIS2_PLACEMENT_3D('',#1024,#837,#838);
#700=AXIS2_PLACEMENT_3D('',#1026,#840,#841);
#701=AXIS2_PLACEMENT_3D('',#1028,#843,#844);
#702=AXIS2_PLACEMENT_3D('',#1036,#847,#848);
#703=AXIS2_PLACEMENT_3D('',#1043,#850,#851);
#704=AXIS2_PLACEMENT_3D('',#1045,#853,#854);
#705=AXIS2_PLACEMENT_3D('',#1056,#856,#857);
#706=AXIS2_PLACEMENT_3D('',#1058,#859,#860);
#707=AXIS2_PLACEMENT_3D('',#1065,#862,#863);
#708=AXIS2_PLACEMENT_3D('',#1067,#865,#866);
#709=AXIS2_PLACEMENT_3D('',#1073,#868,#869);
#710=AXIS2_PLACEMENT_3D('',#1075,#871,#872);
#711=AXIS2_PLACEMENT_3D('',#1077,#874,#875);
#712=AXIS2_PLACEMENT_3D('',#1079,#877,#878);
#713=AXIS2_PLACEMENT_3D('',#1080,#879,#880);
#714=AXIS2_PLACEMENT_3D('',#1081,#881,#882);
#715=AXIS2_PLACEMENT_3D('',#1082,#883,#884);
#716=AXIS2_PLACEMENT_3D('',#1083,#885,#886);
#717=AXIS2_PLACEMENT_3D('',#1084,#887,#888);
#718=AXIS2_PLACEMENT_3D('',#1085,#889,#890);
#719=DIRECTION('',(0.,0.,1.));
#720=DIRECTION('',(1.,0.,0.));
#721=DIRECTION('',(1.,0.,0.));
#722=DIRECTION('',(0.,0.,-1.));
#723=DIRECTION('',(0.,0.,1.));
#724=DIRECTION('',(0.,1.,0.));
#725=DIRECTION('',(0.,0.,1.));
#726=DIRECTION('',(0.,1.,0.));
#727=DIRECTION('',(8.85062997947351E-17,1.,0.));
#728=DIRECTION('',(-1.,8.85062997947351E-17,0.));
#729=DIRECTION('',(0.,0.,-1.));
#730=DIRECTION('',(-1.,8.85062997947351E-17,0.));
#731=DIRECTION('',(0.,0.,1.));
#732=DIRECTION('',(-1.,8.85062997947351E-17,0.));
#733=DIRECTION('',(1.,0.,0.));
#734=DIRECTION('',(0.,0.,-1.));
#735=DIRECTION('',(0.,0.,-1.));
#736=DIRECTION('',(0.,-1.,0.));
#737=DIRECTION('',(0.,0.,1.));
#738=DIRECTION('',(0.,1.,0.));
#739=DIRECTION('',(0.781973239595916,-0.623312002576454,0.));
#740=DIRECTION('',(0.623312002576454,0.781973239595916,0.));
#741=DIRECTION('',(-0.623312002576454,-0.781973239595916,0.));
#742=DIRECTION('',(0.,0.,1.));
#743=DIRECTION('',(0.623312002576454,0.781973239595916,0.));
#744=DIRECTION('',(-1.,0.,0.));
#745=DIRECTION('',(0.,0.,1.));
#746=DIRECTION('',(0.,-1.,0.));
#747=DIRECTION('',(0.,0.,1.));
#748=DIRECTION('',(0.,-1.,0.));
#749=DIRECTION('',(0.,-1.,0.));
#750=DIRECTION('',(0.,0.,-1.));
#751=DIRECTION('',(0.,0.,-1.));
#752=DIRECTION('',(1.,0.,0.));
#753=DIRECTION('',(0.,0.,1.));
#754=DIRECTION('',(1.,0.,0.));
#755=DIRECTION('',(-1.,0.,0.));
#756=DIRECTION('',(0.,0.,1.));
#757=DIRECTION('',(0.,0.,-1.));
#758=DIRECTION('',(0.,1.,0.));
#759=DIRECTION('',(0.,0.,1.));
#760=DIRECTION('',(0.,-1.,0.));
#761=DIRECTION('',(0.,0.,1.));
#762=DIRECTION('',(1.,0.,0.));
#763=DIRECTION('',(0.,0.,1.));
#764=DIRECTION('',(1.,0.,0.));
#765=DIRECTION('',(0.,0.,1.));
#766=DIRECTION('',(1.,-6.12323399573677E-17,0.));
#767=DIRECTION('',(0.,0.,1.));
#768=DIRECTION('',(1.,0.,0.));
#769=DIRECTION('',(0.,0.,1.));
#770=DIRECTION('',(1.,0.,0.));
#771=DIRECTION('',(0.,0.,1.));
#772=DIRECTION('',(1.,0.,0.));
#773=DIRECTION('',(0.,0.,1.));
#774=DIRECTION('',(1.,0.,0.));
#775=DIRECTION('',(0.,0.,1.));
#776=DIRECTION('',(1.,0.,0.));
#777=DIRECTION('',(0.,0.,1.));
#778=DIRECTION('',(1.,0.,0.));
#779=DIRECTION('',(0.,0.,1.));
#780=DIRECTION('',(1.,0.,0.));
#781=DIRECTION('',(0.,0.,1.));
#782=DIRECTION('',(1.,0.,0.));
#783=DIRECTION('',(0.,0.,1.));
#784=DIRECTION('',(1.,0.,0.));
#785=DIRECTION('',(0.,0.,1.));
#786=DIRECTION('',(1.,0.,0.));
#787=DIRECTION('',(0.,0.,1.));
#788=DIRECTION('',(1.,0.,0.));
#789=DIRECTION('',(0.,0.,1.));
#790=DIRECTION('',(1.,0.,0.));
#791=DIRECTION('',(0.781973239595915,0.623312002576455,0.));
#792=DIRECTION('',(-0.623312002576455,0.781973239595915,0.));
#793=DIRECTION('',(-0.623312002576455,0.781973239595915,0.));
#794=DIRECTION('',(-0.623312002576455,0.781973239595915,0.));
#795=DIRECTION('',(0.,0.,1.));
#796=DIRECTION('',(1.,0.,0.));
#797=DIRECTION('',(0.,0.,1.));
#798=DIRECTION('',(1.,0.,0.));
#799=DIRECTION('',(0.,0.,1.));
#800=DIRECTION('',(-1.,6.12323399573677E-17,0.));
#801=DIRECTION('',(0.,0.,1.));
#802=DIRECTION('',(1.,0.,0.));
#803=DIRECTION('',(0.,0.,1.));
#804=DIRECTION('',(1.,0.,0.));
#805=DIRECTION('',(0.,0.,1.));
#806=DIRECTION('',(1.,0.,0.));
#807=DIRECTION('',(0.,0.,1.));
#808=DIRECTION('',(1.,0.,0.));
#809=DIRECTION('',(0.,0.,1.));
#810=DIRECTION('',(1.,0.,0.));
#811=DIRECTION('',(1.,-8.85062997947351E-17,0.));
#812=DIRECTION('',(0.,0.,1.));
#813=DIRECTION('',(1.,0.,0.));
#814=DIRECTION('',(0.,-1.,0.));
#815=DIRECTION('',(0.623312002576455,-0.781973239595915,0.));
#816=DIRECTION('',(0.,-1.,0.));
#817=DIRECTION('',(-0.707106781186547,-0.707106781186548,0.));
#818=DIRECTION('',(-1.,0.,0.));
#819=DIRECTION('',(-0.707106781186547,0.707106781186549,0.));
#820=DIRECTION('',(0.,1.,0.));
#821=DIRECTION('',(0.623312002576454,0.781973239595916,0.));
#822=DIRECTION('',(0.,1.,0.));
#823=DIRECTION('',(0.,0.,1.));
#824=DIRECTION('',(1.,0.,0.));
#825=DIRECTION('',(0.,0.,1.));
#826=DIRECTION('',(1.,0.,0.));
#827=DIRECTION('',(0.707106781186547,0.707106781186548,0.));
#828=DIRECTION('',(0.707106781186549,-0.707106781186546,0.));
#829=DIRECTION('',(-0.707106781186547,-0.707106781186548,0.));
#830=DIRECTION('',(-0.707106781186547,0.707106781186549,0.));
#831=DIRECTION('',(0.707106781186548,-0.707106781186547,0.));
#832=DIRECTION('',(0.,0.,-1.));
#833=DIRECTION('',(0.707106781186547,0.707106781186548,0.));
#834=DIRECTION('',(0.707106781186549,0.707106781186547,0.));
#835=DIRECTION('',(0.,0.,1.));
#836=DIRECTION('',(-0.707106781186547,0.707106781186549,0.));
#837=DIRECTION('',(-0.707106781186547,-0.707106781186549,0.));
#838=DIRECTION('',(0.,0.,1.));
#839=DIRECTION('',(0.707106781186549,-0.707106781186546,0.));
#840=DIRECTION('',(-0.707106781186548,0.707106781186547,0.));
#841=DIRECTION('',(0.,0.,-1.));
#842=DIRECTION('',(-0.707106781186547,-0.707106781186548,0.));
#843=DIRECTION('',(0.707106781186548,0.,0.707106781186548));
#844=DIRECTION('',(0.,1.,0.));
#845=DIRECTION('',(0.678598344545847,-0.281084637714823,-0.678598344545847));
#846=DIRECTION('',(-0.686422266836648,0.240101943310907,0.686422266836648));
#847=DIRECTION('',(-0.5,0.5,-0.707106781186548));
#848=DIRECTION('',(-0.707106781186547,-0.707106781186548,0.));
#849=DIRECTION('',(-0.281084637714822,0.678598344545847,0.678598344545846));
#850=DIRECTION('',(0.552938580424686,-0.440748143816778,0.707106781186546));
#851=DIRECTION('',(0.623312002576454,0.781973239595916,0.));
#852=DIRECTION('',(0.686422266836649,-0.240101943310906,-0.686422266836648));
#853=DIRECTION('',(6.25834047625867E-17,0.707106781186547,-0.707106781186548));
#854=DIRECTION('',(1.,-8.85062997947351E-17,0.));
#855=DIRECTION('',(-0.281084637714823,-0.678598344545847,-0.678598344545846));
#856=DIRECTION('',(-0.707106781186547,0.,-0.707106781186548));
#857=DIRECTION('',(0.,1.,0.));
#858=DIRECTION('',(0.678598344545847,0.281084637714821,-0.678598344545847));
#859=DIRECTION('',(-0.5,-0.5,0.707106781186549));
#860=DIRECTION('',(0.707106781186549,-0.707106781186546,0.));
#861=DIRECTION('',(-0.678598344545846,-0.281084637714824,-0.678598344545846));
#862=DIRECTION('',(0.5,0.5,0.707106781186548));
#863=DIRECTION('',(-0.707106781186547,0.707106781186549,0.));
#864=DIRECTION('',(0.281084637714822,0.678598344545847,-0.678598344545847));
#865=DIRECTION('',(0.707106781186548,0.,-0.707106781186548));
#866=DIRECTION('',(0.,-1.,0.));
#867=DIRECTION('',(0.686422266836647,0.240101943310916,0.686422266836647));
#868=DIRECTION('',(0.,-0.707106781186547,-0.707106781186548));
#869=DIRECTION('',(-1.,0.,0.));
#870=DIRECTION('',(0.281084637714818,-0.678598344545848,0.678598344545847));
#871=DIRECTION('',(0.552938580424683,0.440748143816777,-0.707106781186549));
#872=DIRECTION('',(0.623312002576455,-0.781973239595915,0.));
#873=DIRECTION('',(0.686422266836646,0.240101943310917,0.686422266836647));
#874=DIRECTION('',(0.5,-0.5,-0.707106781186547));
#875=DIRECTION('',(0.707106781186547,0.707106781186548,0.));
#876=DIRECTION('',(-0.678598344545847,0.281084637714819,-0.678598344545848));
#877=DIRECTION('',(-0.707106781186548,0.,0.707106781186547));
#878=DIRECTION('',(0.,-1.,0.));
#879=DIRECTION('',(0.,0.,-1.));
#880=DIRECTION('',(-1.,0.,0.));
#881=DIRECTION('',(0.,0.,-1.));
#882=DIRECTION('',(-1.,0.,0.));
#883=DIRECTION('',(0.,0.,-1.));
#884=DIRECTION('',(-1.,0.,0.));
#885=DIRECTION('',(0.,0.,-1.));
#886=DIRECTION('',(-1.,0.,0.));
#887=DIRECTION('',(0.,0.,-1.));
#888=DIRECTION('',(-1.,0.,0.));
#889=DIRECTION('',(0.,0.,-1.));
#890=DIRECTION('',(-1.,0.,0.));
#891=CARTESIAN_POINT('',(0.,0.,0.));
#892=CARTESIAN_POINT('',(0.01025,-0.0291,-0.005));
#893=CARTESIAN_POINT('',(0.01025,-0.0533,-0.005));
#894=CARTESIAN_POINT('',(0.01025,-0.0533,-0.003));
#895=CARTESIAN_POINT('',(0.01025,-0.0533,0.));
#896=CARTESIAN_POINT('',(0.01025,0.0024,-0.003));
#897=CARTESIAN_POINT('',(0.01025,0.0024,-0.003));
#898=CARTESIAN_POINT('',(0.01025,0.0024,-0.005));
#899=CARTESIAN_POINT('',(0.01025,0.0024,0.));
#900=CARTESIAN_POINT('',(0.01025,-0.0291,0.));
#901=CARTESIAN_POINT('',(-0.00535,0.0049,-0.005));
#902=CARTESIAN_POINT('',(0.00775,0.0049,-0.005));
#903=CARTESIAN_POINT('',(0.00775,0.0049,0.));
#904=CARTESIAN_POINT('',(0.00775,0.0049,-0.003));
#905=CARTESIAN_POINT('',(-0.00775,0.0049,-0.003));
#906=CARTESIAN_POINT('',(-0.00775,0.0049,-0.003));
#907=CARTESIAN_POINT('',(-0.00775,0.0049,0.));
#908=CARTESIAN_POINT('',(-0.00775,0.0049,0.));
#909=CARTESIAN_POINT('',(-0.00535,0.0049,0.));
#910=CARTESIAN_POINT('',(-0.01025,-0.0291,-0.005));
#911=CARTESIAN_POINT('',(-0.01025,0.0024,-0.005));
#912=CARTESIAN_POINT('',(-0.01025,0.0024,0.));
#913=CARTESIAN_POINT('',(-0.01025,0.0024,-0.003));
#914=CARTESIAN_POINT('',(-0.01025,-0.0291,-0.003));
#915=CARTESIAN_POINT('',(-0.01025,-0.0533,-0.003));
#916=CARTESIAN_POINT('',(-0.01025,-0.0533,-0.005));
#917=CARTESIAN_POINT('',(-0.01025,-0.0533,0.));
#918=CARTESIAN_POINT('',(-0.01025,-0.0291,0.));
#919=CARTESIAN_POINT('',(-0.017125,-0.061925,-0.005));
#920=CARTESIAN_POINT('',(-0.017125,-0.061925,-0.003));
#921=CARTESIAN_POINT('',(-0.024,-0.07055,-0.003));
#922=CARTESIAN_POINT('',(-0.024,-0.07055,-0.005));
#923=CARTESIAN_POINT('',(-0.024,-0.07055,0.));
#924=CARTESIAN_POINT('',(-0.017125,-0.061925,0.));
#925=CARTESIAN_POINT('',(-0.024,-0.07655,-0.005));
#926=CARTESIAN_POINT('',(-0.024,-0.08005,-0.003));
#927=CARTESIAN_POINT('',(-0.024,-0.08005,-0.003));
#928=CARTESIAN_POINT('',(-0.024,-0.08005,-0.005));
#929=CARTESIAN_POINT('',(-0.024,-0.08005,0.));
#930=CARTESIAN_POINT('',(-0.024,-0.07655,0.));
#931=CARTESIAN_POINT('',(2.94902990916057E-17,-0.08255,-0.005));
#932=CARTESIAN_POINT('',(-0.0215,-0.08255,-0.005));
#933=CARTESIAN_POINT('',(-0.0215,-0.08255,0.));
#934=CARTESIAN_POINT('',(-0.0215,-0.08255,-0.003));
#935=CARTESIAN_POINT('',(0.0215,-0.08255,-0.003));
#936=CARTESIAN_POINT('',(0.0215,-0.08255,-0.003));
#937=CARTESIAN_POINT('',(0.0215,-0.08255,0.));
#938=CARTESIAN_POINT('',(0.0215,-0.08255,0.));
#939=CARTESIAN_POINT('',(2.94902990916057E-17,-0.08255,0.));
#940=CARTESIAN_POINT('',(0.024,-0.07655,-0.005));
#941=CARTESIAN_POINT('',(0.024,-0.08005,-0.005));
#942=CARTESIAN_POINT('',(0.024,-0.08005,0.));
#943=CARTESIAN_POINT('',(0.024,-0.08005,-0.003));
#944=CARTESIAN_POINT('',(0.024,-0.07655,-0.003));
#945=CARTESIAN_POINT('',(0.024,-0.07055,-0.003));
#946=CARTESIAN_POINT('',(0.024,-0.07055,-0.005));
#947=CARTESIAN_POINT('',(0.024,-0.07055,0.));
#948=CARTESIAN_POINT('',(0.024,-0.07655,0.));
#949=CARTESIAN_POINT('',(-0.00535,9.18485099360515E-20,-0.005));
#950=CARTESIAN_POINT('',(-0.00535,9.18485099360515E-20,-0.0032));
#951=CARTESIAN_POINT('',(-0.00385,9.18485099360515E-20,-0.0032));
#952=CARTESIAN_POINT('',(-0.00535,9.18485099360515E-20,0.));
#953=CARTESIAN_POINT('',(-0.00385,-4.81482486096809E-35,0.));
#954=CARTESIAN_POINT('',(-0.00535,-0.0582,-0.005));
#955=CARTESIAN_POINT('',(-0.00535,-0.0582,-0.0032));
#956=CARTESIAN_POINT('',(-0.00385,-0.0582,-0.0032));
#957=CARTESIAN_POINT('',(-0.00535,-0.0582,0.));
#958=CARTESIAN_POINT('',(-0.00385,-0.0582,0.));
#959=CARTESIAN_POINT('',(-0.018,-0.07655,-0.005));
#960=CARTESIAN_POINT('',(-0.018,-0.07655,-0.0032));
#961=CARTESIAN_POINT('',(-0.0165,-0.07655,-0.0032));
#962=CARTESIAN_POINT('',(-0.018,-0.07655,0.));
#963=CARTESIAN_POINT('',(-0.0165,-0.07655,0.));
#964=CARTESIAN_POINT('',(0.018,-0.07655,-0.005));
#965=CARTESIAN_POINT('',(0.018,-0.07655,-0.0032));
#966=CARTESIAN_POINT('',(0.0195,-0.07655,-0.0032));
#967=CARTESIAN_POINT('',(0.018,-0.07655,0.));
#968=CARTESIAN_POINT('',(0.0195,-0.07655,0.));
#969=CARTESIAN_POINT('',(0.00535,-0.0582,-0.005));
#970=CARTESIAN_POINT('',(0.00535,-0.0582,-0.0032));
#971=CARTESIAN_POINT('',(0.00685,-0.0582,-0.0032));
#972=CARTESIAN_POINT('',(0.00535,-0.0582,0.));
#973=CARTESIAN_POINT('',(0.00685,-0.0582,0.));
#974=CARTESIAN_POINT('',(0.017125,-0.061925,-0.005));
#975=CARTESIAN_POINT('',(0.01025,-0.0533,-0.003));
#976=CARTESIAN_POINT('',(0.017125,-0.061925,0.));
#977=CARTESIAN_POINT('',(0.00535,9.18485099360515E-20,-0.005));
#978=CARTESIAN_POINT('',(0.00535,9.18485099360515E-20,-0.0032));
#979=CARTESIAN_POINT('',(0.00685,9.18485099360515E-20,-0.0032));
#980=CARTESIAN_POINT('',(0.00535,9.18485099360515E-20,0.));
#981=CARTESIAN_POINT('',(0.00385,1.83697019872103E-19,0.));
#982=CARTESIAN_POINT('',(2.42861286636753E-17,-0.038825,-0.005));
#983=CARTESIAN_POINT('',(0.018,-0.07655,-0.005));
#984=CARTESIAN_POINT('',(0.0213,-0.07655,-0.005));
#985=CARTESIAN_POINT('',(-0.018,-0.07655,-0.005));
#986=CARTESIAN_POINT('',(-0.0147,-0.07655,-0.005));
#987=CARTESIAN_POINT('',(0.00535,-0.0582,-0.005));
#988=CARTESIAN_POINT('',(0.00865,-0.0582,-0.005));
#989=CARTESIAN_POINT('',(-0.00535,-0.0582,-0.005));
#990=CARTESIAN_POINT('',(-0.00205,-0.0582,-0.005));
#991=CARTESIAN_POINT('',(0.00775,0.0029,-0.005));
#992=CARTESIAN_POINT('',(-0.00377519842519764,0.0029,-0.005));
#993=CARTESIAN_POINT('',(0.00377519842519764,0.0029,-0.005));
#994=CARTESIAN_POINT('',(0.00535,9.18485099360515E-20,-0.005));
#995=CARTESIAN_POINT('',(0.00825,-0.00157480157480236,-0.005));
#996=CARTESIAN_POINT('',(0.00825,-0.0533,-0.005));
#997=CARTESIAN_POINT('',(0.00825,-0.0539995750426845,-0.005));
#998=CARTESIAN_POINT('',(0.0224360535208082,-0.0717966240051529,-0.005));
#999=CARTESIAN_POINT('',(0.022,-0.0712495750426845,-0.005));
#1000=CARTESIAN_POINT('',(0.022,-0.038825,-0.005));
#1001=CARTESIAN_POINT('',(0.022,-0.0792215728752538,-0.005));
#1002=CARTESIAN_POINT('',(0.0200857864376269,-0.0811357864376269,-0.005));
#1003=CARTESIAN_POINT('',(0.0206715728752538,-0.08055,-0.005));
#1004=CARTESIAN_POINT('',(-0.0215,-0.08055,-0.005));
#1005=CARTESIAN_POINT('',(-0.0206715728752538,-0.08055,-0.005));
#1006=CARTESIAN_POINT('',(-0.0225857864376269,-0.0786357864376269,-0.005));
#1007=CARTESIAN_POINT('',(-0.022,-0.0792215728752538,-0.005));
#1008=CARTESIAN_POINT('',(-0.022,-0.07055,-0.005));
#1009=CARTESIAN_POINT('',(-0.022,-0.0712495750426845,-0.005));
#1010=CARTESIAN_POINT('',(0.0023515620712802,-0.0406994335350784,-0.005));
#1011=CARTESIAN_POINT('',(-0.00825,-0.0539995750426845,-0.005));
#1012=CARTESIAN_POINT('',(-0.00825,-0.038825,-0.005));
#1013=CARTESIAN_POINT('',(-0.00825,-0.00157480157480236,-0.005));
#1014=CARTESIAN_POINT('',(-0.00535,9.18485099360515E-20,-0.005));
#1015=CARTESIAN_POINT('',(2.42861286636753E-17,-0.038825,0.));
#1016=CARTESIAN_POINT('',(0.0326125,-0.0714375,0.));
#1017=CARTESIAN_POINT('',(0.0257375,-0.0130875,0.));
#1018=CARTESIAN_POINT('',(-0.0257375,-0.0130875,0.));
#1019=CARTESIAN_POINT('',(-0.0326125,-0.0714375,0.));
#1020=CARTESIAN_POINT('',(0.0215,-0.08255,-0.005));
#1021=CARTESIAN_POINT('',(0.024,-0.08005,-0.003));
#1022=CARTESIAN_POINT('',(-0.024,-0.08005,-0.005));
#1023=CARTESIAN_POINT('',(-0.0215,-0.08255,-0.003));
#1024=CARTESIAN_POINT('',(0.01025,0.0024,-0.005));
#1025=CARTESIAN_POINT('',(0.00775,0.0049,-0.003));
#1026=CARTESIAN_POINT('',(-0.00775,0.0049,-0.005));
#1027=CARTESIAN_POINT('',(-0.01025,0.0024,-0.003));
#1028=CARTESIAN_POINT('',(-0.00825,-0.038825,-0.005));
#1029=CARTESIAN_POINT('',(-0.0125858034678683,0.00336752147542917,-0.000664196532131688));
#1030=CARTESIAN_POINT('',(-0.00825074139926198,0.00157187997288325,-0.00499925860073802));
#1031=CARTESIAN_POINT('',(-0.00825074139926198,0.00157187997288325,-0.00499925860073802));
#1032=CARTESIAN_POINT('',(-0.00850863718960123,0.000554656057770673,-0.00474136281039877));
#1033=CARTESIAN_POINT('',(-0.00850834879820774,-0.000557681339137744,-0.00474165120179226));
#1034=CARTESIAN_POINT('',(-0.00825,-0.00157480157480236,-0.005));
#1035=CARTESIAN_POINT('',(-0.00544681726980884,-0.0549800933817474,-0.00780318273019116));
#1036=CARTESIAN_POINT('',(-0.0243232864376269,-0.0145017135623731,-0.005));
#1037=CARTESIAN_POINT('',(-0.00756037942345775,0.00444221543240669,-0.00345778456759332));
#1038=CARTESIAN_POINT('',(-0.00692187997288325,0.00290074139926198,-0.00499925860073802));
#1039=CARTESIAN_POINT('',(-0.00692187997288325,0.00290074139926198,-0.00499925860073802));
#1040=CARTESIAN_POINT('',(-0.00742626261373538,0.00252442466549165,-0.00490870232940167));
#1041=CARTESIAN_POINT('',(-0.00787430354746407,0.00207642494994083,-0.00490867318374859));
#1042=CARTESIAN_POINT('',(-0.00825074139926198,0.00157187997288325,-0.00499925860073802));
#1043=CARTESIAN_POINT('',(0.0023515620712802,-0.0406994335350784,-0.005));
#1044=CARTESIAN_POINT('',(-0.0155611490276217,-0.0735018047646047,-0.0114388509723782));
#1045=CARTESIAN_POINT('',(-0.00535,0.0049,-0.003));
#1046=CARTESIAN_POINT('',(0.00497719247524827,-0.00179414953210575,-0.00969414953210575));
#1047=CARTESIAN_POINT('',(0.00692187997288325,0.00290074139926198,-0.00499925860073802));
#1048=CARTESIAN_POINT('',(0.00692187997288325,0.00290074139926198,-0.00499925860073802));
#1049=CARTESIAN_POINT('',(0.00590465605777067,0.00315863718960124,-0.00474136281039877));
#1050=CARTESIAN_POINT('',(0.00479231866086226,0.00315834879820774,-0.00474165120179226));
#1051=CARTESIAN_POINT('',(0.00377519842519764,0.0029,-0.005));
#1052=CARTESIAN_POINT('',(-0.00377519842519764,0.0029,-0.005));
#1053=CARTESIAN_POINT('',(-0.00479219987739942,0.00315831862717801,-0.00474168137282199));
#1054=CARTESIAN_POINT('',(-0.00590453690248993,0.00315866739892372,-0.00474133260107628));
#1055=CARTESIAN_POINT('',(-0.00692187997288325,0.00290074139926198,-0.00499925860073802));
#1056=CARTESIAN_POINT('',(-0.024,-0.07655,-0.003));
#1057=CARTESIAN_POINT('',(-0.0233323975055931,-0.0797734699925426,-0.00366760249440691));
#1058=CARTESIAN_POINT('',(0.0243232864376269,-0.014501713562373,-0.005));
#1059=CARTESIAN_POINT('',(0.00424157755033772,-8.87700671171124E-5,-0.00900842244966228));
#1060=CARTESIAN_POINT('',(0.00825074139926198,0.00157187997288326,-0.00499925860073802));
#1061=CARTESIAN_POINT('',(0.00825074139926198,0.00157187997288326,-0.00499925860073802));
#1062=CARTESIAN_POINT('',(0.00787442466549165,0.00207626261373539,-0.00490870232940167));
#1063=CARTESIAN_POINT('',(0.00742642494994083,0.00252430354746407,-0.0049086731837486));
#1064=CARTESIAN_POINT('',(0.00692187997288325,0.00290074139926198,-0.00499925860073802));
#1065=CARTESIAN_POINT('',(-0.0311982864376269,-0.0700232864376268,-0.005));
#1066=CARTESIAN_POINT('',(-0.0194953705746133,-0.0777103964536992,-0.00783960354630082));
#1067=CARTESIAN_POINT('',(0.01025,-0.0291,-0.003));
#1068=CARTESIAN_POINT('',(0.00825,-0.00157480157480236,-0.005));
#1069=CARTESIAN_POINT('',(0.00850831862717801,-0.000557800122600584,-0.00474168137282199));
#1070=CARTESIAN_POINT('',(0.00850866739892373,0.000554536902489937,-0.00474133260107627));
#1071=CARTESIAN_POINT('',(0.00825074139926198,0.00157187997288326,-0.00499925860073802));
#1072=CARTESIAN_POINT('',(0.0142384339488246,-0.0519048955750034,0.000988433948824597));
#1073=CARTESIAN_POINT('',(2.94902990916057E-17,-0.08255,-0.003));
#1074=CARTESIAN_POINT('',(0.0198013156684757,-0.0784490132486433,-0.00710098675135671));
#1075=CARTESIAN_POINT('',(0.017125,-0.061925,-0.003));
#1076=CARTESIAN_POINT('',(0.0221821658789066,-0.0711858556914286,-0.00481783412109347));
#1077=CARTESIAN_POINT('',(0.031198286437627,-0.0700232864376269,-0.005));
#1078=CARTESIAN_POINT('',(0.0244812574820634,-0.0802493433760642,-0.00251874251793664));
#1079=CARTESIAN_POINT('',(0.022,-0.038825,-0.005));
#1080=CARTESIAN_POINT('',(0.018,-0.07655,-0.005));
#1081=CARTESIAN_POINT('',(-0.018,-0.07655,-0.005));
#1082=CARTESIAN_POINT('',(0.00535,-0.0582,-0.005));
#1083=CARTESIAN_POINT('',(-0.00535,-0.0582,-0.005));
#1084=CARTESIAN_POINT('',(0.00535,9.18485099360515E-20,-0.005));
#1085=CARTESIAN_POINT('',(-0.00535,9.18485099360515E-20,-0.005));
#1086=MECHANICAL_DESIGN_GEOMETRIC_PRESENTATION_REPRESENTATION('',(#651),
#1087);
#1087=(
GEOMETRIC_REPRESENTATION_CONTEXT(3)
GLOBAL_UNCERTAINTY_ASSIGNED_CONTEXT((#1088))
GLOBAL_UNIT_ASSIGNED_CONTEXT((#1091,#1090,#1089))
REPRESENTATION_CONTEXT('Part 1','TOP_LEVEL_ASSEMBLY_PART')
);
#1088=UNCERTAINTY_MEASURE_WITH_UNIT(LENGTH_MEASURE(2.E-5),#1091,
'DISTANCE_ACCURACY_VALUE','Maximum Tolerance applied to model');
#1089=(
NAMED_UNIT(*)
SI_UNIT($,.STERADIAN.)
SOLID_ANGLE_UNIT()
);
#1090=(
NAMED_UNIT(*)
PLANE_ANGLE_UNIT()
SI_UNIT($,.RADIAN.)
);
#1091=(
LENGTH_UNIT()
NAMED_UNIT(*)
SI_UNIT($,.METRE.)
);
#1092=PRODUCT_DEFINITION_SHAPE('','',#1093);
#1093=PRODUCT_DEFINITION('','',#1095,#1094);
#1094=PRODUCT_DEFINITION_CONTEXT('',#1101,'design');
#1095=PRODUCT_DEFINITION_FORMATION_WITH_SPECIFIED_SOURCE('','',#1097,
 .NOT_KNOWN.);
#1096=PRODUCT_RELATED_PRODUCT_CATEGORY('','',(#1097));
#1097=PRODUCT('Part 1','Part 1','Part 1',(#1099));
#1098=PRODUCT_CATEGORY('','');
#1099=PRODUCT_CONTEXT('',#1101,'mechanical');
#1100=APPLICATION_PROTOCOL_DEFINITION('international standard',
'ap242_managed_model_based_3d_engineering',2020,#1101);
#1101=APPLICATION_CONTEXT('managed model based 3d engineering');
ENDSEC;
END-ISO-10303-21;
