ISO-10303-21;
HEADER;
/* Generated by software containing ST-Developer
 * from STEP Tools, Inc. (www.steptools.com) 
 */
/* OPTION: using custom renumber hook */

FILE_DESCRIPTION(
/* description */ ('STEP AP242 Edition 2',
'CAx-IF Rec.Pracs.---Representation and Presentation of Product Manufa
cturing Information (PMI)---4.0---2014-10-13',
'CAx-IF Rec.Pracs.---3D Tessellated Geometry---0.4---2014-09-14','2;1',
'CAx-IF Rec.Pracs.---User Defined Attributes---1.5---2016-08-15'),
/* implementation_level */ '2;1');

FILE_NAME(
/* name */ 'suspension steering rod',
/* time_stamp */ '2026-09-29T21:25:43Z',
/* author */ (''),
/* organization */ (''),
/* preprocessor_version */ 'ST-DEVELOPER v20',
/* originating_system */ 'ONSHAPE BY PTC INC, 1.221',
/* authorisation */ '  ');

FILE_SCHEMA (('AP242_MANAGED_MODEL_BASED_3D_ENGINEERING_MIM_LF { 1 0 10303 442 3 1 4 }'));
ENDSEC;

DATA;
#10=SHAPE_REPRESENTATION_RELATIONSHIP('','',#1055,#11);
#11=ADVANCED_BREP_SHAPE_REPRESENTATION('',(#1053),#1893);
#12=CYLINDRICAL_SURFACE('',#1094,0.0045);
#13=CYLINDRICAL_SURFACE('',#1097,0.003);
#14=CYLINDRICAL_SURFACE('',#1100,0.003);
#15=CYLINDRICAL_SURFACE('',#1103,0.003);
#16=CYLINDRICAL_SURFACE('',#1106,0.003);
#17=CYLINDRICAL_SURFACE('',#1118,0.0045);
#18=CYLINDRICAL_SURFACE('',#1121,0.003);
#19=CYLINDRICAL_SURFACE('',#1124,0.003);
#20=CYLINDRICAL_SURFACE('',#1127,0.003);
#21=CYLINDRICAL_SURFACE('',#1130,0.003);
#22=CYLINDRICAL_SURFACE('',#1133,0.0005);
#23=CYLINDRICAL_SURFACE('',#1140,0.0005);
#24=CYLINDRICAL_SURFACE('',#1142,0.0005);
#25=CYLINDRICAL_SURFACE('',#1148,0.0005);
#26=CYLINDRICAL_SURFACE('',#1150,0.0005);
#27=CYLINDRICAL_SURFACE('',#1156,0.0005);
#28=CYLINDRICAL_SURFACE('',#1158,0.0005);
#29=CYLINDRICAL_SURFACE('',#1164,0.0005);
#30=CYLINDRICAL_SURFACE('',#1166,0.0005);
#31=CYLINDRICAL_SURFACE('',#1172,0.0005);
#32=CYLINDRICAL_SURFACE('',#1173,0.0005);
#33=CYLINDRICAL_SURFACE('',#1180,0.0005);
#34=CYLINDRICAL_SURFACE('',#1182,0.0005);
#35=CYLINDRICAL_SURFACE('',#1188,0.0005);
#36=CYLINDRICAL_SURFACE('',#1190,0.0005);
#37=CYLINDRICAL_SURFACE('',#1196,0.0005);
#38=CYLINDRICAL_SURFACE('',#1198,0.0005);
#39=CYLINDRICAL_SURFACE('',#1204,0.0005);
#40=CYLINDRICAL_SURFACE('',#1206,0.0005);
#41=CYLINDRICAL_SURFACE('',#1212,0.0005);
#42=TOROIDAL_SURFACE('',#1088,0.0031863968679372,0.0003);
#43=TOROIDAL_SURFACE('',#1089,0.0031863968679372,0.0003);
#44=TOROIDAL_SURFACE('',#1114,0.0031863968679372,0.0003);
#45=TOROIDAL_SURFACE('',#1115,0.0031863968679372,0.0003);
#46=TOROIDAL_SURFACE('',#1136,0.004,0.0005);
#47=TOROIDAL_SURFACE('',#1138,0.0025,0.0005);
#48=TOROIDAL_SURFACE('',#1144,0.0025,0.0005);
#49=TOROIDAL_SURFACE('',#1146,0.0035,0.0005);
#50=TOROIDAL_SURFACE('',#1152,0.0035,0.0005);
#51=TOROIDAL_SURFACE('',#1154,0.0035,0.0005);
#52=TOROIDAL_SURFACE('',#1160,0.0035,0.0005);
#53=TOROIDAL_SURFACE('',#1162,0.0025,0.0005);
#54=TOROIDAL_SURFACE('',#1168,0.0025,0.0005);
#55=TOROIDAL_SURFACE('',#1170,0.004,0.0005);
#56=TOROIDAL_SURFACE('',#1176,0.004,0.0005);
#57=TOROIDAL_SURFACE('',#1178,0.0025,0.0005);
#58=TOROIDAL_SURFACE('',#1184,0.0025,0.0005);
#59=TOROIDAL_SURFACE('',#1186,0.0035,0.0005);
#60=TOROIDAL_SURFACE('',#1192,0.0035,0.0005);
#61=TOROIDAL_SURFACE('',#1194,0.0035,0.0005);
#62=TOROIDAL_SURFACE('',#1200,0.0035,0.0005);
#63=TOROIDAL_SURFACE('',#1202,0.0025,0.0005);
#64=TOROIDAL_SURFACE('',#1208,0.0025,0.0005);
#65=TOROIDAL_SURFACE('',#1210,0.004,0.0005);
#66=SPHERICAL_SURFACE('',#1085,0.003025);
#67=SPHERICAL_SURFACE('',#1111,0.003025);
#68=CIRCLE('',#1060,0.0025);
#69=CIRCLE('',#1061,0.004);
#70=CIRCLE('',#1062,0.0025);
#71=CIRCLE('',#1063,0.0035);
#72=CIRCLE('',#1064,0.0035);
#73=CIRCLE('',#1065,0.0025);
#74=CIRCLE('',#1066,0.004);
#75=CIRCLE('',#1067,0.0025);
#76=CIRCLE('',#1068,0.0035);
#77=CIRCLE('',#1069,0.0035);
#78=CIRCLE('',#1070,0.0031863968679372);
#79=CIRCLE('',#1071,0.0031863968679372);
#80=CIRCLE('',#1073,0.0025);
#81=CIRCLE('',#1074,0.004);
#82=CIRCLE('',#1075,0.0025);
#83=CIRCLE('',#1076,0.0035);
#84=CIRCLE('',#1077,0.0035);
#85=CIRCLE('',#1078,0.0025);
#86=CIRCLE('',#1079,0.004);
#87=CIRCLE('',#1080,0.0025);
#88=CIRCLE('',#1081,0.0035);
#89=CIRCLE('',#1082,0.0035);
#90=CIRCLE('',#1083,0.0031863968679372);
#91=CIRCLE('',#1084,0.0031863968679372);
#92=CIRCLE('',#1086,0.00289890241368723);
#93=CIRCLE('',#1087,0.00289890241368723);
#94=CIRCLE('',#1095,0.0045);
#95=CIRCLE('',#1096,0.0045);
#96=CIRCLE('',#1098,0.003);
#97=CIRCLE('',#1099,0.003);
#98=CIRCLE('',#1101,0.003);
#99=CIRCLE('',#1102,0.003);
#100=CIRCLE('',#1104,0.003);
#101=CIRCLE('',#1105,0.003);
#102=CIRCLE('',#1107,0.003);
#103=CIRCLE('',#1108,0.003);
#104=CIRCLE('',#1112,0.00289890241368723);
#105=CIRCLE('',#1113,0.00289890241368723);
#106=CIRCLE('',#1119,0.0045);
#107=CIRCLE('',#1120,0.0045);
#108=CIRCLE('',#1122,0.003);
#109=CIRCLE('',#1123,0.003);
#110=CIRCLE('',#1125,0.003);
#111=CIRCLE('',#1126,0.003);
#112=CIRCLE('',#1128,0.003);
#113=CIRCLE('',#1129,0.003);
#114=CIRCLE('',#1131,0.003);
#115=CIRCLE('',#1132,0.003);
#116=CIRCLE('',#1134,0.0005);
#117=CIRCLE('',#1135,0.0005);
#118=CIRCLE('',#1137,0.0005);
#119=CIRCLE('',#1139,0.0005);
#120=CIRCLE('',#1141,0.0005);
#121=CIRCLE('',#1143,0.0005);
#122=CIRCLE('',#1145,0.0005);
#123=CIRCLE('',#1147,0.0005);
#124=CIRCLE('',#1149,0.0005);
#125=CIRCLE('',#1151,0.0005);
#126=CIRCLE('',#1153,0.0005);
#127=CIRCLE('',#1155,0.0005);
#128=CIRCLE('',#1157,0.0005);
#129=CIRCLE('',#1159,0.0005);
#130=CIRCLE('',#1161,0.0005);
#131=CIRCLE('',#1163,0.0005);
#132=CIRCLE('',#1165,0.0005);
#133=CIRCLE('',#1167,0.0005);
#134=CIRCLE('',#1169,0.0005);
#135=CIRCLE('',#1171,0.0005);
#136=CIRCLE('',#1174,0.0005);
#137=CIRCLE('',#1175,0.0005);
#138=CIRCLE('',#1177,0.0005);
#139=CIRCLE('',#1179,0.0005);
#140=CIRCLE('',#1181,0.0005);
#141=CIRCLE('',#1183,0.0005);
#142=CIRCLE('',#1185,0.0005);
#143=CIRCLE('',#1187,0.0005);
#144=CIRCLE('',#1189,0.0005);
#145=CIRCLE('',#1191,0.0005);
#146=CIRCLE('',#1193,0.0005);
#147=CIRCLE('',#1195,0.0005);
#148=CIRCLE('',#1197,0.0005);
#149=CIRCLE('',#1199,0.0005);
#150=CIRCLE('',#1201,0.0005);
#151=CIRCLE('',#1203,0.0005);
#152=CIRCLE('',#1205,0.0005);
#153=CIRCLE('',#1207,0.0005);
#154=CIRCLE('',#1209,0.0005);
#155=CIRCLE('',#1211,0.0005);
#156=ORIENTED_EDGE('',*,*,#452,.T.);
#157=ORIENTED_EDGE('',*,*,#453,.T.);
#158=ORIENTED_EDGE('',*,*,#454,.T.);
#159=ORIENTED_EDGE('',*,*,#455,.T.);
#160=ORIENTED_EDGE('',*,*,#456,.T.);
#161=ORIENTED_EDGE('',*,*,#457,.T.);
#162=ORIENTED_EDGE('',*,*,#458,.T.);
#163=ORIENTED_EDGE('',*,*,#459,.T.);
#164=ORIENTED_EDGE('',*,*,#460,.T.);
#165=ORIENTED_EDGE('',*,*,#461,.T.);
#166=ORIENTED_EDGE('',*,*,#462,.T.);
#167=ORIENTED_EDGE('',*,*,#463,.T.);
#168=ORIENTED_EDGE('',*,*,#464,.T.);
#169=ORIENTED_EDGE('',*,*,#465,.T.);
#170=ORIENTED_EDGE('',*,*,#466,.T.);
#171=ORIENTED_EDGE('',*,*,#467,.T.);
#172=ORIENTED_EDGE('',*,*,#468,.T.);
#173=ORIENTED_EDGE('',*,*,#469,.T.);
#174=ORIENTED_EDGE('',*,*,#470,.T.);
#175=ORIENTED_EDGE('',*,*,#471,.T.);
#176=ORIENTED_EDGE('',*,*,#472,.T.);
#177=ORIENTED_EDGE('',*,*,#473,.T.);
#178=ORIENTED_EDGE('',*,*,#474,.T.);
#179=ORIENTED_EDGE('',*,*,#475,.T.);
#180=ORIENTED_EDGE('',*,*,#476,.T.);
#181=ORIENTED_EDGE('',*,*,#477,.T.);
#182=ORIENTED_EDGE('',*,*,#478,.T.);
#183=ORIENTED_EDGE('',*,*,#479,.T.);
#184=ORIENTED_EDGE('',*,*,#480,.T.);
#185=ORIENTED_EDGE('',*,*,#481,.F.);
#186=ORIENTED_EDGE('',*,*,#482,.T.);
#187=ORIENTED_EDGE('',*,*,#483,.T.);
#188=ORIENTED_EDGE('',*,*,#484,.T.);
#189=ORIENTED_EDGE('',*,*,#485,.T.);
#190=ORIENTED_EDGE('',*,*,#486,.T.);
#191=ORIENTED_EDGE('',*,*,#487,.T.);
#192=ORIENTED_EDGE('',*,*,#488,.T.);
#193=ORIENTED_EDGE('',*,*,#489,.T.);
#194=ORIENTED_EDGE('',*,*,#490,.T.);
#195=ORIENTED_EDGE('',*,*,#491,.T.);
#196=ORIENTED_EDGE('',*,*,#492,.T.);
#197=ORIENTED_EDGE('',*,*,#493,.T.);
#198=ORIENTED_EDGE('',*,*,#494,.T.);
#199=ORIENTED_EDGE('',*,*,#495,.T.);
#200=ORIENTED_EDGE('',*,*,#496,.T.);
#201=ORIENTED_EDGE('',*,*,#497,.T.);
#202=ORIENTED_EDGE('',*,*,#498,.T.);
#203=ORIENTED_EDGE('',*,*,#499,.T.);
#204=ORIENTED_EDGE('',*,*,#500,.T.);
#205=ORIENTED_EDGE('',*,*,#501,.T.);
#206=ORIENTED_EDGE('',*,*,#502,.T.);
#207=ORIENTED_EDGE('',*,*,#503,.F.);
#208=ORIENTED_EDGE('',*,*,#504,.T.);
#209=ORIENTED_EDGE('',*,*,#505,.T.);
#210=ORIENTED_EDGE('',*,*,#504,.F.);
#211=ORIENTED_EDGE('',*,*,#502,.F.);
#212=ORIENTED_EDGE('',*,*,#480,.F.);
#213=ORIENTED_EDGE('',*,*,#505,.F.);
#214=ORIENTED_EDGE('',*,*,#506,.T.);
#215=ORIENTED_EDGE('',*,*,#507,.T.);
#216=ORIENTED_EDGE('',*,*,#508,.F.);
#217=ORIENTED_EDGE('',*,*,#509,.T.);
#218=ORIENTED_EDGE('',*,*,#510,.T.);
#219=ORIENTED_EDGE('',*,*,#511,.T.);
#220=ORIENTED_EDGE('',*,*,#512,.T.);
#221=ORIENTED_EDGE('',*,*,#513,.T.);
#222=ORIENTED_EDGE('',*,*,#514,.F.);
#223=ORIENTED_EDGE('',*,*,#515,.T.);
#224=ORIENTED_EDGE('',*,*,#516,.T.);
#225=ORIENTED_EDGE('',*,*,#517,.T.);
#226=ORIENTED_EDGE('',*,*,#518,.T.);
#227=ORIENTED_EDGE('',*,*,#519,.T.);
#228=ORIENTED_EDGE('',*,*,#520,.T.);
#229=ORIENTED_EDGE('',*,*,#521,.T.);
#230=ORIENTED_EDGE('',*,*,#458,.F.);
#231=ORIENTED_EDGE('',*,*,#522,.T.);
#232=ORIENTED_EDGE('',*,*,#452,.F.);
#233=ORIENTED_EDGE('',*,*,#523,.T.);
#234=ORIENTED_EDGE('',*,*,#454,.F.);
#235=ORIENTED_EDGE('',*,*,#524,.T.);
#236=ORIENTED_EDGE('',*,*,#510,.F.);
#237=ORIENTED_EDGE('',*,*,#525,.T.);
#238=ORIENTED_EDGE('',*,*,#512,.F.);
#239=ORIENTED_EDGE('',*,*,#526,.T.);
#240=ORIENTED_EDGE('',*,*,#506,.F.);
#241=ORIENTED_EDGE('',*,*,#527,.T.);
#242=ORIENTED_EDGE('',*,*,#520,.F.);
#243=ORIENTED_EDGE('',*,*,#528,.T.);
#244=ORIENTED_EDGE('',*,*,#456,.F.);
#245=ORIENTED_EDGE('',*,*,#529,.T.);
#246=ORIENTED_EDGE('',*,*,#516,.F.);
#247=ORIENTED_EDGE('',*,*,#530,.T.);
#248=ORIENTED_EDGE('',*,*,#518,.F.);
#249=ORIENTED_EDGE('',*,*,#531,.T.);
#250=ORIENTED_EDGE('',*,*,#532,.F.);
#251=ORIENTED_EDGE('',*,*,#533,.T.);
#252=ORIENTED_EDGE('',*,*,#534,.F.);
#253=ORIENTED_EDGE('',*,*,#535,.T.);
#254=ORIENTED_EDGE('',*,*,#536,.F.);
#255=ORIENTED_EDGE('',*,*,#537,.T.);
#256=ORIENTED_EDGE('',*,*,#538,.F.);
#257=ORIENTED_EDGE('',*,*,#539,.T.);
#258=ORIENTED_EDGE('',*,*,#540,.F.);
#259=ORIENTED_EDGE('',*,*,#541,.F.);
#260=ORIENTED_EDGE('',*,*,#540,.T.);
#261=ORIENTED_EDGE('',*,*,#503,.T.);
#262=ORIENTED_EDGE('',*,*,#481,.T.);
#263=ORIENTED_EDGE('',*,*,#541,.T.);
#264=ORIENTED_EDGE('',*,*,#542,.F.);
#265=ORIENTED_EDGE('',*,*,#543,.T.);
#266=ORIENTED_EDGE('',*,*,#544,.F.);
#267=ORIENTED_EDGE('',*,*,#545,.T.);
#268=ORIENTED_EDGE('',*,*,#546,.F.);
#269=ORIENTED_EDGE('',*,*,#547,.T.);
#270=ORIENTED_EDGE('',*,*,#548,.F.);
#271=ORIENTED_EDGE('',*,*,#549,.T.);
#272=ORIENTED_EDGE('',*,*,#534,.T.);
#273=ORIENTED_EDGE('',*,*,#550,.T.);
#274=ORIENTED_EDGE('',*,*,#536,.T.);
#275=ORIENTED_EDGE('',*,*,#551,.T.);
#276=ORIENTED_EDGE('',*,*,#544,.T.);
#277=ORIENTED_EDGE('',*,*,#552,.T.);
#278=ORIENTED_EDGE('',*,*,#532,.T.);
#279=ORIENTED_EDGE('',*,*,#553,.T.);
#280=ORIENTED_EDGE('',*,*,#508,.T.);
#281=ORIENTED_EDGE('',*,*,#554,.T.);
#282=ORIENTED_EDGE('',*,*,#542,.T.);
#283=ORIENTED_EDGE('',*,*,#555,.T.);
#284=ORIENTED_EDGE('',*,*,#538,.T.);
#285=ORIENTED_EDGE('',*,*,#556,.T.);
#286=ORIENTED_EDGE('',*,*,#546,.T.);
#287=ORIENTED_EDGE('',*,*,#557,.T.);
#288=ORIENTED_EDGE('',*,*,#548,.T.);
#289=ORIENTED_EDGE('',*,*,#558,.T.);
#290=ORIENTED_EDGE('',*,*,#514,.T.);
#291=ORIENTED_EDGE('',*,*,#559,.T.);
#292=ORIENTED_EDGE('',*,*,#560,.F.);
#293=ORIENTED_EDGE('',*,*,#537,.F.);
#294=ORIENTED_EDGE('',*,*,#561,.F.);
#295=ORIENTED_EDGE('',*,*,#493,.F.);
#296=ORIENTED_EDGE('',*,*,#561,.T.);
#297=ORIENTED_EDGE('',*,*,#550,.F.);
#298=ORIENTED_EDGE('',*,*,#562,.F.);
#299=ORIENTED_EDGE('',*,*,#494,.F.);
#300=ORIENTED_EDGE('',*,*,#560,.T.);
#301=ORIENTED_EDGE('',*,*,#492,.F.);
#302=ORIENTED_EDGE('',*,*,#563,.F.);
#303=ORIENTED_EDGE('',*,*,#556,.F.);
#304=ORIENTED_EDGE('',*,*,#562,.T.);
#305=ORIENTED_EDGE('',*,*,#533,.F.);
#306=ORIENTED_EDGE('',*,*,#564,.F.);
#307=ORIENTED_EDGE('',*,*,#495,.F.);
#308=ORIENTED_EDGE('',*,*,#563,.T.);
#309=ORIENTED_EDGE('',*,*,#491,.F.);
#310=ORIENTED_EDGE('',*,*,#565,.F.);
#311=ORIENTED_EDGE('',*,*,#547,.F.);
#312=ORIENTED_EDGE('',*,*,#564,.T.);
#313=ORIENTED_EDGE('',*,*,#552,.F.);
#314=ORIENTED_EDGE('',*,*,#566,.F.);
#315=ORIENTED_EDGE('',*,*,#496,.F.);
#316=ORIENTED_EDGE('',*,*,#565,.T.);
#317=ORIENTED_EDGE('',*,*,#490,.F.);
#318=ORIENTED_EDGE('',*,*,#567,.F.);
#319=ORIENTED_EDGE('',*,*,#558,.F.);
#320=ORIENTED_EDGE('',*,*,#566,.T.);
#321=ORIENTED_EDGE('',*,*,#543,.F.);
#322=ORIENTED_EDGE('',*,*,#568,.F.);
#323=ORIENTED_EDGE('',*,*,#497,.F.);
#324=ORIENTED_EDGE('',*,*,#567,.T.);
#325=ORIENTED_EDGE('',*,*,#489,.F.);
#326=ORIENTED_EDGE('',*,*,#569,.F.);
#327=ORIENTED_EDGE('',*,*,#515,.F.);
#328=ORIENTED_EDGE('',*,*,#568,.T.);
#329=ORIENTED_EDGE('',*,*,#554,.F.);
#330=ORIENTED_EDGE('',*,*,#570,.F.);
#331=ORIENTED_EDGE('',*,*,#498,.F.);
#332=ORIENTED_EDGE('',*,*,#569,.T.);
#333=ORIENTED_EDGE('',*,*,#488,.F.);
#334=ORIENTED_EDGE('',*,*,#571,.F.);
#335=ORIENTED_EDGE('',*,*,#530,.F.);
#336=ORIENTED_EDGE('',*,*,#570,.T.);
#337=ORIENTED_EDGE('',*,*,#507,.F.);
#338=ORIENTED_EDGE('',*,*,#572,.F.);
#339=ORIENTED_EDGE('',*,*,#499,.F.);
#340=ORIENTED_EDGE('',*,*,#571,.T.);
#341=ORIENTED_EDGE('',*,*,#487,.F.);
#342=ORIENTED_EDGE('',*,*,#573,.F.);
#343=ORIENTED_EDGE('',*,*,#519,.F.);
#344=ORIENTED_EDGE('',*,*,#572,.T.);
#345=ORIENTED_EDGE('',*,*,#526,.F.);
#346=ORIENTED_EDGE('',*,*,#574,.F.);
#347=ORIENTED_EDGE('',*,*,#500,.F.);
#348=ORIENTED_EDGE('',*,*,#573,.T.);
#349=ORIENTED_EDGE('',*,*,#486,.F.);
#350=ORIENTED_EDGE('',*,*,#575,.F.);
#351=ORIENTED_EDGE('',*,*,#528,.F.);
#352=ORIENTED_EDGE('',*,*,#574,.T.);
#353=ORIENTED_EDGE('',*,*,#511,.F.);
#354=ORIENTED_EDGE('',*,*,#576,.F.);
#355=ORIENTED_EDGE('',*,*,#501,.F.);
#356=ORIENTED_EDGE('',*,*,#575,.T.);
#357=ORIENTED_EDGE('',*,*,#485,.F.);
#358=ORIENTED_EDGE('',*,*,#577,.F.);
#359=ORIENTED_EDGE('',*,*,#457,.F.);
#360=ORIENTED_EDGE('',*,*,#576,.T.);
#361=ORIENTED_EDGE('',*,*,#524,.F.);
#362=ORIENTED_EDGE('',*,*,#578,.F.);
#363=ORIENTED_EDGE('',*,*,#482,.F.);
#364=ORIENTED_EDGE('',*,*,#577,.T.);
#365=ORIENTED_EDGE('',*,*,#484,.F.);
#366=ORIENTED_EDGE('',*,*,#579,.F.);
#367=ORIENTED_EDGE('',*,*,#522,.F.);
#368=ORIENTED_EDGE('',*,*,#578,.T.);
#369=ORIENTED_EDGE('',*,*,#453,.F.);
#370=ORIENTED_EDGE('',*,*,#579,.T.);
#371=ORIENTED_EDGE('',*,*,#483,.F.);
#372=ORIENTED_EDGE('',*,*,#580,.F.);
#373=ORIENTED_EDGE('',*,*,#535,.F.);
#374=ORIENTED_EDGE('',*,*,#581,.F.);
#375=ORIENTED_EDGE('',*,*,#471,.F.);
#376=ORIENTED_EDGE('',*,*,#581,.T.);
#377=ORIENTED_EDGE('',*,*,#551,.F.);
#378=ORIENTED_EDGE('',*,*,#582,.F.);
#379=ORIENTED_EDGE('',*,*,#472,.F.);
#380=ORIENTED_EDGE('',*,*,#580,.T.);
#381=ORIENTED_EDGE('',*,*,#470,.F.);
#382=ORIENTED_EDGE('',*,*,#583,.F.);
#383=ORIENTED_EDGE('',*,*,#553,.F.);
#384=ORIENTED_EDGE('',*,*,#582,.T.);
#385=ORIENTED_EDGE('',*,*,#539,.F.);
#386=ORIENTED_EDGE('',*,*,#584,.F.);
#387=ORIENTED_EDGE('',*,*,#473,.F.);
#388=ORIENTED_EDGE('',*,*,#583,.T.);
#389=ORIENTED_EDGE('',*,*,#469,.F.);
#390=ORIENTED_EDGE('',*,*,#585,.F.);
#391=ORIENTED_EDGE('',*,*,#545,.F.);
#392=ORIENTED_EDGE('',*,*,#584,.T.);
#393=ORIENTED_EDGE('',*,*,#557,.F.);
#394=ORIENTED_EDGE('',*,*,#586,.F.);
#395=ORIENTED_EDGE('',*,*,#474,.F.);
#396=ORIENTED_EDGE('',*,*,#585,.T.);
#397=ORIENTED_EDGE('',*,*,#468,.F.);
#398=ORIENTED_EDGE('',*,*,#587,.F.);
#399=ORIENTED_EDGE('',*,*,#555,.F.);
#400=ORIENTED_EDGE('',*,*,#586,.T.);
#401=ORIENTED_EDGE('',*,*,#549,.F.);
#402=ORIENTED_EDGE('',*,*,#588,.F.);
#403=ORIENTED_EDGE('',*,*,#475,.F.);
#404=ORIENTED_EDGE('',*,*,#587,.T.);
#405=ORIENTED_EDGE('',*,*,#467,.F.);
#406=ORIENTED_EDGE('',*,*,#589,.F.);
#407=ORIENTED_EDGE('',*,*,#509,.F.);
#408=ORIENTED_EDGE('',*,*,#588,.T.);
#409=ORIENTED_EDGE('',*,*,#559,.F.);
#410=ORIENTED_EDGE('',*,*,#590,.F.);
#411=ORIENTED_EDGE('',*,*,#476,.F.);
#412=ORIENTED_EDGE('',*,*,#589,.T.);
#413=ORIENTED_EDGE('',*,*,#466,.F.);
#414=ORIENTED_EDGE('',*,*,#591,.F.);
#415=ORIENTED_EDGE('',*,*,#527,.F.);
#416=ORIENTED_EDGE('',*,*,#590,.T.);
#417=ORIENTED_EDGE('',*,*,#517,.F.);
#418=ORIENTED_EDGE('',*,*,#592,.F.);
#419=ORIENTED_EDGE('',*,*,#477,.F.);
#420=ORIENTED_EDGE('',*,*,#591,.T.);
#421=ORIENTED_EDGE('',*,*,#465,.F.);
#422=ORIENTED_EDGE('',*,*,#593,.F.);
#423=ORIENTED_EDGE('',*,*,#513,.F.);
#424=ORIENTED_EDGE('',*,*,#592,.T.);
#425=ORIENTED_EDGE('',*,*,#531,.F.);
#426=ORIENTED_EDGE('',*,*,#594,.F.);
#427=ORIENTED_EDGE('',*,*,#478,.F.);
#428=ORIENTED_EDGE('',*,*,#593,.T.);
#429=ORIENTED_EDGE('',*,*,#464,.F.);
#430=ORIENTED_EDGE('',*,*,#595,.F.);
#431=ORIENTED_EDGE('',*,*,#525,.F.);
#432=ORIENTED_EDGE('',*,*,#594,.T.);
#433=ORIENTED_EDGE('',*,*,#521,.F.);
#434=ORIENTED_EDGE('',*,*,#596,.F.);
#435=ORIENTED_EDGE('',*,*,#479,.F.);
#436=ORIENTED_EDGE('',*,*,#595,.T.);
#437=ORIENTED_EDGE('',*,*,#463,.F.);
#438=ORIENTED_EDGE('',*,*,#597,.F.);
#439=ORIENTED_EDGE('',*,*,#455,.F.);
#440=ORIENTED_EDGE('',*,*,#596,.T.);
#441=ORIENTED_EDGE('',*,*,#529,.F.);
#442=ORIENTED_EDGE('',*,*,#598,.F.);
#443=ORIENTED_EDGE('',*,*,#460,.F.);
#444=ORIENTED_EDGE('',*,*,#597,.T.);
#445=ORIENTED_EDGE('',*,*,#462,.F.);
#446=ORIENTED_EDGE('',*,*,#599,.F.);
#447=ORIENTED_EDGE('',*,*,#523,.F.);
#448=ORIENTED_EDGE('',*,*,#598,.T.);
#449=ORIENTED_EDGE('',*,*,#459,.F.);
#450=ORIENTED_EDGE('',*,*,#599,.T.);
#451=ORIENTED_EDGE('',*,*,#461,.F.);
#452=EDGE_CURVE('',#600,#601,#688,.T.);
#453=EDGE_CURVE('',#601,#602,#689,.F.);
#454=EDGE_CURVE('',#602,#603,#690,.T.);
#455=EDGE_CURVE('',#603,#600,#691,.T.);
#456=EDGE_CURVE('',#604,#605,#692,.F.);
#457=EDGE_CURVE('',#605,#606,#693,.T.);
#458=EDGE_CURVE('',#606,#607,#694,.F.);
#459=EDGE_CURVE('',#607,#604,#695,.F.);
#460=EDGE_CURVE('',#608,#609,#68,.T.);
#461=EDGE_CURVE('',#609,#610,#696,.T.);
#462=EDGE_CURVE('',#610,#611,#69,.T.);
#463=EDGE_CURVE('',#611,#612,#697,.F.);
#464=EDGE_CURVE('',#612,#613,#70,.T.);
#465=EDGE_CURVE('',#613,#614,#698,.F.);
#466=EDGE_CURVE('',#614,#615,#71,.F.);
#467=EDGE_CURVE('',#615,#616,#699,.F.);
#468=EDGE_CURVE('',#616,#617,#72,.F.);
#469=EDGE_CURVE('',#617,#618,#700,.T.);
#470=EDGE_CURVE('',#618,#619,#73,.T.);
#471=EDGE_CURVE('',#619,#620,#701,.T.);
#472=EDGE_CURVE('',#620,#621,#74,.T.);
#473=EDGE_CURVE('',#621,#622,#702,.F.);
#474=EDGE_CURVE('',#622,#623,#75,.T.);
#475=EDGE_CURVE('',#623,#624,#703,.F.);
#476=EDGE_CURVE('',#624,#625,#76,.F.);
#477=EDGE_CURVE('',#625,#626,#704,.T.);
#478=EDGE_CURVE('',#626,#627,#77,.F.);
#479=EDGE_CURVE('',#627,#608,#705,.T.);
#480=EDGE_CURVE('',#628,#628,#78,.F.);
#481=EDGE_CURVE('',#629,#629,#79,.F.);
#482=EDGE_CURVE('',#630,#631,#80,.F.);
#483=EDGE_CURVE('',#631,#632,#706,.T.);
#484=EDGE_CURVE('',#632,#633,#81,.F.);
#485=EDGE_CURVE('',#633,#634,#707,.F.);
#486=EDGE_CURVE('',#634,#635,#82,.F.);
#487=EDGE_CURVE('',#635,#636,#708,.F.);
#488=EDGE_CURVE('',#636,#637,#83,.T.);
#489=EDGE_CURVE('',#637,#638,#709,.F.);
#490=EDGE_CURVE('',#638,#639,#84,.T.);
#491=EDGE_CURVE('',#639,#640,#710,.T.);
#492=EDGE_CURVE('',#640,#641,#85,.F.);
#493=EDGE_CURVE('',#641,#642,#711,.T.);
#494=EDGE_CURVE('',#642,#643,#86,.F.);
#495=EDGE_CURVE('',#643,#644,#712,.F.);
#496=EDGE_CURVE('',#644,#645,#87,.F.);
#497=EDGE_CURVE('',#645,#646,#713,.F.);
#498=EDGE_CURVE('',#646,#647,#88,.T.);
#499=EDGE_CURVE('',#647,#648,#714,.T.);
#500=EDGE_CURVE('',#648,#649,#89,.T.);
#501=EDGE_CURVE('',#649,#630,#715,.T.);
#502=EDGE_CURVE('',#650,#650,#90,.T.);
#503=EDGE_CURVE('',#651,#651,#91,.T.);
#504=EDGE_CURVE('',#652,#652,#92,.F.);
#505=EDGE_CURVE('',#653,#653,#93,.F.);
#506=EDGE_CURVE('',#654,#655,#716,.F.);
#507=EDGE_CURVE('',#655,#656,#717,.F.);
#508=EDGE_CURVE('',#657,#656,#718,.F.);
#509=EDGE_CURVE('',#657,#654,#719,.T.);
#510=EDGE_CURVE('',#658,#659,#720,.F.);
#511=EDGE_CURVE('',#659,#660,#721,.F.);
#512=EDGE_CURVE('',#660,#661,#722,.T.);
#513=EDGE_CURVE('',#661,#658,#723,.T.);
#514=EDGE_CURVE('',#662,#663,#724,.T.);
#515=EDGE_CURVE('',#662,#664,#725,.T.);
#516=EDGE_CURVE('',#664,#665,#726,.T.);
#517=EDGE_CURVE('',#665,#663,#727,.F.);
#518=EDGE_CURVE('',#666,#667,#728,.F.);
#519=EDGE_CURVE('',#667,#668,#729,.T.);
#520=EDGE_CURVE('',#668,#669,#730,.T.);
#521=EDGE_CURVE('',#669,#666,#731,.F.);
#522=EDGE_CURVE('',#606,#601,#94,.T.);
#523=EDGE_CURVE('',#600,#607,#95,.F.);
#524=EDGE_CURVE('',#602,#659,#96,.T.);
#525=EDGE_CURVE('',#658,#603,#97,.F.);
#526=EDGE_CURVE('',#660,#655,#98,.F.);
#527=EDGE_CURVE('',#654,#661,#99,.T.);
#528=EDGE_CURVE('',#668,#605,#100,.T.);
#529=EDGE_CURVE('',#604,#669,#101,.F.);
#530=EDGE_CURVE('',#664,#667,#102,.F.);
#531=EDGE_CURVE('',#666,#665,#103,.T.);
#532=EDGE_CURVE('',#670,#671,#732,.T.);
#533=EDGE_CURVE('',#670,#672,#733,.T.);
#534=EDGE_CURVE('',#673,#672,#734,.T.);
#535=EDGE_CURVE('',#673,#671,#735,.F.);
#536=EDGE_CURVE('',#674,#675,#736,.F.);
#537=EDGE_CURVE('',#674,#676,#737,.F.);
#538=EDGE_CURVE('',#677,#676,#738,.F.);
#539=EDGE_CURVE('',#677,#675,#739,.T.);
#540=EDGE_CURVE('',#678,#678,#104,.F.);
#541=EDGE_CURVE('',#679,#679,#105,.F.);
#542=EDGE_CURVE('',#680,#681,#740,.T.);
#543=EDGE_CURVE('',#680,#682,#741,.T.);
#544=EDGE_CURVE('',#683,#682,#742,.F.);
#545=EDGE_CURVE('',#683,#681,#743,.F.);
#546=EDGE_CURVE('',#684,#685,#744,.T.);
#547=EDGE_CURVE('',#684,#686,#745,.F.);
#548=EDGE_CURVE('',#687,#686,#746,.F.);
#549=EDGE_CURVE('',#687,#685,#747,.T.);
#550=EDGE_CURVE('',#672,#674,#106,.T.);
#551=EDGE_CURVE('',#675,#673,#107,.F.);
#552=EDGE_CURVE('',#682,#670,#108,.T.);
#553=EDGE_CURVE('',#671,#683,#109,.F.);
#554=EDGE_CURVE('',#656,#680,#110,.F.);
#555=EDGE_CURVE('',#681,#657,#111,.T.);
#556=EDGE_CURVE('',#676,#684,#112,.T.);
#557=EDGE_CURVE('',#685,#677,#113,.F.);
#558=EDGE_CURVE('',#686,#662,#114,.F.);
#559=EDGE_CURVE('',#663,#687,#115,.T.);
#560=EDGE_CURVE('',#676,#641,#116,.T.);
#561=EDGE_CURVE('',#642,#674,#117,.T.);
#562=EDGE_CURVE('',#643,#672,#118,.T.);
#563=EDGE_CURVE('',#684,#640,#119,.T.);
#564=EDGE_CURVE('',#644,#670,#120,.T.);
#565=EDGE_CURVE('',#686,#639,#121,.T.);
#566=EDGE_CURVE('',#645,#682,#122,.T.);
#567=EDGE_CURVE('',#662,#638,#123,.T.);
#568=EDGE_CURVE('',#646,#680,#124,.T.);
#569=EDGE_CURVE('',#664,#637,#125,.T.);
#570=EDGE_CURVE('',#647,#656,#126,.T.);
#571=EDGE_CURVE('',#667,#636,#127,.T.);
#572=EDGE_CURVE('',#648,#655,#128,.T.);
#573=EDGE_CURVE('',#668,#635,#129,.T.);
#574=EDGE_CURVE('',#649,#660,#130,.T.);
#575=EDGE_CURVE('',#605,#634,#131,.T.);
#576=EDGE_CURVE('',#630,#659,#132,.T.);
#577=EDGE_CURVE('',#606,#633,#133,.T.);
#578=EDGE_CURVE('',#631,#602,#134,.T.);
#579=EDGE_CURVE('',#601,#632,#135,.T.);
#580=EDGE_CURVE('',#671,#619,#136,.T.);
#581=EDGE_CURVE('',#620,#673,#137,.T.);
#582=EDGE_CURVE('',#621,#675,#138,.T.);
#583=EDGE_CURVE('',#683,#618,#139,.T.);
#584=EDGE_CURVE('',#622,#677,#140,.T.);
#585=EDGE_CURVE('',#681,#617,#141,.T.);
#586=EDGE_CURVE('',#623,#685,#142,.T.);
#587=EDGE_CURVE('',#657,#616,#143,.T.);
#588=EDGE_CURVE('',#624,#687,#144,.T.);
#589=EDGE_CURVE('',#654,#615,#145,.T.);
#590=EDGE_CURVE('',#625,#663,#146,.T.);
#591=EDGE_CURVE('',#661,#614,#147,.T.);
#592=EDGE_CURVE('',#626,#665,#148,.T.);
#593=EDGE_CURVE('',#658,#613,#149,.T.);
#594=EDGE_CURVE('',#627,#666,#150,.T.);
#595=EDGE_CURVE('',#603,#612,#151,.T.);
#596=EDGE_CURVE('',#608,#669,#152,.T.);
#597=EDGE_CURVE('',#600,#611,#153,.T.);
#598=EDGE_CURVE('',#609,#604,#154,.T.);
#599=EDGE_CURVE('',#607,#610,#155,.T.);
#600=VERTEX_POINT('',#1590);
#601=VERTEX_POINT('',#1591);
#602=VERTEX_POINT('',#1593);
#603=VERTEX_POINT('',#1595);
#604=VERTEX_POINT('',#1599);
#605=VERTEX_POINT('',#1600);
#606=VERTEX_POINT('',#1602);
#607=VERTEX_POINT('',#1604);
#608=VERTEX_POINT('',#1608);
#609=VERTEX_POINT('',#1609);
#610=VERTEX_POINT('',#1611);
#611=VERTEX_POINT('',#1613);
#612=VERTEX_POINT('',#1615);
#613=VERTEX_POINT('',#1617);
#614=VERTEX_POINT('',#1619);
#615=VERTEX_POINT('',#1621);
#616=VERTEX_POINT('',#1623);
#617=VERTEX_POINT('',#1625);
#618=VERTEX_POINT('',#1627);
#619=VERTEX_POINT('',#1629);
#620=VERTEX_POINT('',#1631);
#621=VERTEX_POINT('',#1633);
#622=VERTEX_POINT('',#1635);
#623=VERTEX_POINT('',#1637);
#624=VERTEX_POINT('',#1639);
#625=VERTEX_POINT('',#1641);
#626=VERTEX_POINT('',#1643);
#627=VERTEX_POINT('',#1645);
#628=VERTEX_POINT('',#1648);
#629=VERTEX_POINT('',#1650);
#630=VERTEX_POINT('',#1653);
#631=VERTEX_POINT('',#1654);
#632=VERTEX_POINT('',#1656);
#633=VERTEX_POINT('',#1658);
#634=VERTEX_POINT('',#1660);
#635=VERTEX_POINT('',#1662);
#636=VERTEX_POINT('',#1664);
#637=VERTEX_POINT('',#1666);
#638=VERTEX_POINT('',#1668);
#639=VERTEX_POINT('',#1670);
#640=VERTEX_POINT('',#1672);
#641=VERTEX_POINT('',#1674);
#642=VERTEX_POINT('',#1676);
#643=VERTEX_POINT('',#1678);
#644=VERTEX_POINT('',#1680);
#645=VERTEX_POINT('',#1682);
#646=VERTEX_POINT('',#1684);
#647=VERTEX_POINT('',#1686);
#648=VERTEX_POINT('',#1688);
#649=VERTEX_POINT('',#1690);
#650=VERTEX_POINT('',#1693);
#651=VERTEX_POINT('',#1695);
#652=VERTEX_POINT('',#1698);
#653=VERTEX_POINT('',#1700);
#654=VERTEX_POINT('',#1705);
#655=VERTEX_POINT('',#1706);
#656=VERTEX_POINT('',#1708);
#657=VERTEX_POINT('',#1710);
#658=VERTEX_POINT('',#1714);
#659=VERTEX_POINT('',#1715);
#660=VERTEX_POINT('',#1717);
#661=VERTEX_POINT('',#1719);
#662=VERTEX_POINT('',#1723);
#663=VERTEX_POINT('',#1724);
#664=VERTEX_POINT('',#1726);
#665=VERTEX_POINT('',#1728);
#666=VERTEX_POINT('',#1732);
#667=VERTEX_POINT('',#1733);
#668=VERTEX_POINT('',#1735);
#669=VERTEX_POINT('',#1737);
#670=VERTEX_POINT('',#1756);
#671=VERTEX_POINT('',#1757);
#672=VERTEX_POINT('',#1759);
#673=VERTEX_POINT('',#1761);
#674=VERTEX_POINT('',#1765);
#675=VERTEX_POINT('',#1766);
#676=VERTEX_POINT('',#1768);
#677=VERTEX_POINT('',#1770);
#678=VERTEX_POINT('',#1774);
#679=VERTEX_POINT('',#1776);
#680=VERTEX_POINT('',#1781);
#681=VERTEX_POINT('',#1782);
#682=VERTEX_POINT('',#1784);
#683=VERTEX_POINT('',#1786);
#684=VERTEX_POINT('',#1790);
#685=VERTEX_POINT('',#1791);
#686=VERTEX_POINT('',#1793);
#687=VERTEX_POINT('',#1795);
#688=LINE('',#1589,#748);
#689=LINE('',#1592,#749);
#690=LINE('',#1594,#750);
#691=LINE('',#1596,#751);
#692=LINE('',#1598,#752);
#693=LINE('',#1601,#753);
#694=LINE('',#1603,#754);
#695=LINE('',#1605,#755);
#696=LINE('',#1610,#756);
#697=LINE('',#1614,#757);
#698=LINE('',#1618,#758);
#699=LINE('',#1622,#759);
#700=LINE('',#1626,#760);
#701=LINE('',#1630,#761);
#702=LINE('',#1634,#762);
#703=LINE('',#1638,#763);
#704=LINE('',#1642,#764);
#705=LINE('',#1646,#765);
#706=LINE('',#1655,#766);
#707=LINE('',#1659,#767);
#708=LINE('',#1663,#768);
#709=LINE('',#1667,#769);
#710=LINE('',#1671,#770);
#711=LINE('',#1675,#771);
#712=LINE('',#1679,#772);
#713=LINE('',#1683,#773);
#714=LINE('',#1687,#774);
#715=LINE('',#1691,#775);
#716=LINE('',#1704,#776);
#717=LINE('',#1707,#777);
#718=LINE('',#1709,#778);
#719=LINE('',#1711,#779);
#720=LINE('',#1713,#780);
#721=LINE('',#1716,#781);
#722=LINE('',#1718,#782);
#723=LINE('',#1720,#783);
#724=LINE('',#1722,#784);
#725=LINE('',#1725,#785);
#726=LINE('',#1727,#786);
#727=LINE('',#1729,#787);
#728=LINE('',#1731,#788);
#729=LINE('',#1734,#789);
#730=LINE('',#1736,#790);
#731=LINE('',#1738,#791);
#732=LINE('',#1755,#792);
#733=LINE('',#1758,#793);
#734=LINE('',#1760,#794);
#735=LINE('',#1762,#795);
#736=LINE('',#1764,#796);
#737=LINE('',#1767,#797);
#738=LINE('',#1769,#798);
#739=LINE('',#1771,#799);
#740=LINE('',#1780,#800);
#741=LINE('',#1783,#801);
#742=LINE('',#1785,#802);
#743=LINE('',#1787,#803);
#744=LINE('',#1789,#804);
#745=LINE('',#1792,#805);
#746=LINE('',#1794,#806);
#747=LINE('',#1796,#807);
#748=VECTOR('',#1217,1.);
#749=VECTOR('',#1218,1.);
#750=VECTOR('',#1219,1.);
#751=VECTOR('',#1220,1.);
#752=VECTOR('',#1223,1.);
#753=VECTOR('',#1224,1.);
#754=VECTOR('',#1225,1.);
#755=VECTOR('',#1226,1.);
#756=VECTOR('',#1231,1.);
#757=VECTOR('',#1234,1.);
#758=VECTOR('',#1237,1.);
#759=VECTOR('',#1240,1.);
#760=VECTOR('',#1243,1.);
#761=VECTOR('',#1246,1.);
#762=VECTOR('',#1249,1.);
#763=VECTOR('',#1252,1.);
#764=VECTOR('',#1255,1.);
#765=VECTOR('',#1258,1.);
#766=VECTOR('',#1267,1.);
#767=VECTOR('',#1270,1.);
#768=VECTOR('',#1273,1.);
#769=VECTOR('',#1276,1.);
#770=VECTOR('',#1279,1.);
#771=VECTOR('',#1282,1.);
#772=VECTOR('',#1285,1.);
#773=VECTOR('',#1288,1.);
#774=VECTOR('',#1291,1.);
#775=VECTOR('',#1294,1.);
#776=VECTOR('',#1311,1.);
#777=VECTOR('',#1312,1.);
#778=VECTOR('',#1313,1.);
#779=VECTOR('',#1314,1.);
#780=VECTOR('',#1317,1.);
#781=VECTOR('',#1318,1.);
#782=VECTOR('',#1319,1.);
#783=VECTOR('',#1320,1.);
#784=VECTOR('',#1323,1.);
#785=VECTOR('',#1324,1.);
#786=VECTOR('',#1325,1.);
#787=VECTOR('',#1326,1.);
#788=VECTOR('',#1329,1.);
#789=VECTOR('',#1330,1.);
#790=VECTOR('',#1331,1.);
#791=VECTOR('',#1332,1.);
#792=VECTOR('',#1365,1.);
#793=VECTOR('',#1366,1.);
#794=VECTOR('',#1367,1.);
#795=VECTOR('',#1368,1.);
#796=VECTOR('',#1371,1.);
#797=VECTOR('',#1372,1.);
#798=VECTOR('',#1373,1.);
#799=VECTOR('',#1374,1.);
#800=VECTOR('',#1387,1.);
#801=VECTOR('',#1388,1.);
#802=VECTOR('',#1389,1.);
#803=VECTOR('',#1390,1.);
#804=VECTOR('',#1393,1.);
#805=VECTOR('',#1394,1.);
#806=VECTOR('',#1395,1.);
#807=VECTOR('',#1396,1.);
#808=EDGE_LOOP('',(#156,#157,#158,#159));
#809=EDGE_LOOP('',(#160,#161,#162,#163));
#810=EDGE_LOOP('',(#164,#165,#166,#167,#168,#169,#170,#171,#172,#173,#174,
#175,#176,#177,#178,#179,#180,#181,#182,#183));
#811=EDGE_LOOP('',(#184));
#812=EDGE_LOOP('',(#185));
#813=EDGE_LOOP('',(#186,#187,#188,#189,#190,#191,#192,#193,#194,#195,#196,
#197,#198,#199,#200,#201,#202,#203,#204,#205));
#814=EDGE_LOOP('',(#206));
#815=EDGE_LOOP('',(#207));
#816=EDGE_LOOP('',(#208));
#817=EDGE_LOOP('',(#209));
#818=EDGE_LOOP('',(#210));
#819=EDGE_LOOP('',(#211));
#820=EDGE_LOOP('',(#212));
#821=EDGE_LOOP('',(#213));
#822=EDGE_LOOP('',(#214,#215,#216,#217));
#823=EDGE_LOOP('',(#218,#219,#220,#221));
#824=EDGE_LOOP('',(#222,#223,#224,#225));
#825=EDGE_LOOP('',(#226,#227,#228,#229));
#826=EDGE_LOOP('',(#230,#231,#232,#233));
#827=EDGE_LOOP('',(#234,#235,#236,#237));
#828=EDGE_LOOP('',(#238,#239,#240,#241));
#829=EDGE_LOOP('',(#242,#243,#244,#245));
#830=EDGE_LOOP('',(#246,#247,#248,#249));
#831=EDGE_LOOP('',(#250,#251,#252,#253));
#832=EDGE_LOOP('',(#254,#255,#256,#257));
#833=EDGE_LOOP('',(#258));
#834=EDGE_LOOP('',(#259));
#835=EDGE_LOOP('',(#260));
#836=EDGE_LOOP('',(#261));
#837=EDGE_LOOP('',(#262));
#838=EDGE_LOOP('',(#263));
#839=EDGE_LOOP('',(#264,#265,#266,#267));
#840=EDGE_LOOP('',(#268,#269,#270,#271));
#841=EDGE_LOOP('',(#272,#273,#274,#275));
#842=EDGE_LOOP('',(#276,#277,#278,#279));
#843=EDGE_LOOP('',(#280,#281,#282,#283));
#844=EDGE_LOOP('',(#284,#285,#286,#287));
#845=EDGE_LOOP('',(#288,#289,#290,#291));
#846=EDGE_LOOP('',(#292,#293,#294,#295));
#847=EDGE_LOOP('',(#296,#297,#298,#299));
#848=EDGE_LOOP('',(#300,#301,#302,#303));
#849=EDGE_LOOP('',(#304,#305,#306,#307));
#850=EDGE_LOOP('',(#308,#309,#310,#311));
#851=EDGE_LOOP('',(#312,#313,#314,#315));
#852=EDGE_LOOP('',(#316,#317,#318,#319));
#853=EDGE_LOOP('',(#320,#321,#322,#323));
#854=EDGE_LOOP('',(#324,#325,#326,#327));
#855=EDGE_LOOP('',(#328,#329,#330,#331));
#856=EDGE_LOOP('',(#332,#333,#334,#335));
#857=EDGE_LOOP('',(#336,#337,#338,#339));
#858=EDGE_LOOP('',(#340,#341,#342,#343));
#859=EDGE_LOOP('',(#344,#345,#346,#347));
#860=EDGE_LOOP('',(#348,#349,#350,#351));
#861=EDGE_LOOP('',(#352,#353,#354,#355));
#862=EDGE_LOOP('',(#356,#357,#358,#359));
#863=EDGE_LOOP('',(#360,#361,#362,#363));
#864=EDGE_LOOP('',(#364,#365,#366,#367));
#865=EDGE_LOOP('',(#368,#369,#370,#371));
#866=EDGE_LOOP('',(#372,#373,#374,#375));
#867=EDGE_LOOP('',(#376,#377,#378,#379));
#868=EDGE_LOOP('',(#380,#381,#382,#383));
#869=EDGE_LOOP('',(#384,#385,#386,#387));
#870=EDGE_LOOP('',(#388,#389,#390,#391));
#871=EDGE_LOOP('',(#392,#393,#394,#395));
#872=EDGE_LOOP('',(#396,#397,#398,#399));
#873=EDGE_LOOP('',(#400,#401,#402,#403));
#874=EDGE_LOOP('',(#404,#405,#406,#407));
#875=EDGE_LOOP('',(#408,#409,#410,#411));
#876=EDGE_LOOP('',(#412,#413,#414,#415));
#877=EDGE_LOOP('',(#416,#417,#418,#419));
#878=EDGE_LOOP('',(#420,#421,#422,#423));
#879=EDGE_LOOP('',(#424,#425,#426,#427));
#880=EDGE_LOOP('',(#428,#429,#430,#431));
#881=EDGE_LOOP('',(#432,#433,#434,#435));
#882=EDGE_LOOP('',(#436,#437,#438,#439));
#883=EDGE_LOOP('',(#440,#441,#442,#443));
#884=EDGE_LOOP('',(#444,#445,#446,#447));
#885=EDGE_LOOP('',(#448,#449,#450,#451));
#886=FACE_BOUND('',#808,.T.);
#887=FACE_BOUND('',#809,.T.);
#888=FACE_BOUND('',#810,.T.);
#889=FACE_BOUND('',#811,.T.);
#890=FACE_BOUND('',#812,.T.);
#891=FACE_BOUND('',#813,.T.);
#892=FACE_BOUND('',#814,.T.);
#893=FACE_BOUND('',#815,.T.);
#894=FACE_BOUND('',#816,.T.);
#895=FACE_BOUND('',#817,.T.);
#896=FACE_BOUND('',#818,.T.);
#897=FACE_BOUND('',#819,.T.);
#898=FACE_BOUND('',#820,.T.);
#899=FACE_BOUND('',#821,.T.);
#900=FACE_BOUND('',#822,.T.);
#901=FACE_BOUND('',#823,.T.);
#902=FACE_BOUND('',#824,.T.);
#903=FACE_BOUND('',#825,.T.);
#904=FACE_BOUND('',#826,.T.);
#905=FACE_BOUND('',#827,.T.);
#906=FACE_BOUND('',#828,.T.);
#907=FACE_BOUND('',#829,.T.);
#908=FACE_BOUND('',#830,.T.);
#909=FACE_BOUND('',#831,.T.);
#910=FACE_BOUND('',#832,.T.);
#911=FACE_BOUND('',#833,.T.);
#912=FACE_BOUND('',#834,.T.);
#913=FACE_BOUND('',#835,.T.);
#914=FACE_BOUND('',#836,.T.);
#915=FACE_BOUND('',#837,.T.);
#916=FACE_BOUND('',#838,.T.);
#917=FACE_BOUND('',#839,.T.);
#918=FACE_BOUND('',#840,.T.);
#919=FACE_BOUND('',#841,.T.);
#920=FACE_BOUND('',#842,.T.);
#921=FACE_BOUND('',#843,.T.);
#922=FACE_BOUND('',#844,.T.);
#923=FACE_BOUND('',#845,.T.);
#924=FACE_BOUND('',#846,.T.);
#925=FACE_BOUND('',#847,.T.);
#926=FACE_BOUND('',#848,.T.);
#927=FACE_BOUND('',#849,.T.);
#928=FACE_BOUND('',#850,.T.);
#929=FACE_BOUND('',#851,.T.);
#930=FACE_BOUND('',#852,.T.);
#931=FACE_BOUND('',#853,.T.);
#932=FACE_BOUND('',#854,.T.);
#933=FACE_BOUND('',#855,.T.);
#934=FACE_BOUND('',#856,.T.);
#935=FACE_BOUND('',#857,.T.);
#936=FACE_BOUND('',#858,.T.);
#937=FACE_BOUND('',#859,.T.);
#938=FACE_BOUND('',#860,.T.);
#939=FACE_BOUND('',#861,.T.);
#940=FACE_BOUND('',#862,.T.);
#941=FACE_BOUND('',#863,.T.);
#942=FACE_BOUND('',#864,.T.);
#943=FACE_BOUND('',#865,.T.);
#944=FACE_BOUND('',#866,.T.);
#945=FACE_BOUND('',#867,.T.);
#946=FACE_BOUND('',#868,.T.);
#947=FACE_BOUND('',#869,.T.);
#948=FACE_BOUND('',#870,.T.);
#949=FACE_BOUND('',#871,.T.);
#950=FACE_BOUND('',#872,.T.);
#951=FACE_BOUND('',#873,.T.);
#952=FACE_BOUND('',#874,.T.);
#953=FACE_BOUND('',#875,.T.);
#954=FACE_BOUND('',#876,.T.);
#955=FACE_BOUND('',#877,.T.);
#956=FACE_BOUND('',#878,.T.);
#957=FACE_BOUND('',#879,.T.);
#958=FACE_BOUND('',#880,.T.);
#959=FACE_BOUND('',#881,.T.);
#960=FACE_BOUND('',#882,.T.);
#961=FACE_BOUND('',#883,.T.);
#962=FACE_BOUND('',#884,.T.);
#963=FACE_BOUND('',#885,.T.);
#964=PLANE('',#1057);
#965=PLANE('',#1058);
#966=PLANE('',#1059);
#967=PLANE('',#1072);
#968=PLANE('',#1090);
#969=PLANE('',#1091);
#970=PLANE('',#1092);
#971=PLANE('',#1093);
#972=PLANE('',#1109);
#973=PLANE('',#1110);
#974=PLANE('',#1116);
#975=PLANE('',#1117);
#976=ADVANCED_FACE('',(#886),#964,.T.);
#977=ADVANCED_FACE('',(#887),#965,.F.);
#978=ADVANCED_FACE('',(#888,#889,#890),#966,.T.);
#979=ADVANCED_FACE('',(#891,#892,#893),#967,.F.);
#980=ADVANCED_FACE('',(#894,#895),#66,.F.);
#981=ADVANCED_FACE('',(#896,#897),#42,.T.);
#982=ADVANCED_FACE('',(#898,#899),#43,.T.);
#983=ADVANCED_FACE('',(#900),#968,.F.);
#984=ADVANCED_FACE('',(#901),#969,.F.);
#985=ADVANCED_FACE('',(#902),#970,.T.);
#986=ADVANCED_FACE('',(#903),#971,.T.);
#987=ADVANCED_FACE('',(#904),#12,.T.);
#988=ADVANCED_FACE('',(#905),#13,.T.);
#989=ADVANCED_FACE('',(#906),#14,.F.);
#990=ADVANCED_FACE('',(#907),#15,.T.);
#991=ADVANCED_FACE('',(#908),#16,.F.);
#992=ADVANCED_FACE('',(#909),#972,.T.);
#993=ADVANCED_FACE('',(#910),#973,.F.);
#994=ADVANCED_FACE('',(#911,#912),#67,.F.);
#995=ADVANCED_FACE('',(#913,#914),#44,.T.);
#996=ADVANCED_FACE('',(#915,#916),#45,.T.);
#997=ADVANCED_FACE('',(#917),#974,.F.);
#998=ADVANCED_FACE('',(#918),#975,.T.);
#999=ADVANCED_FACE('',(#919),#17,.T.);
#1000=ADVANCED_FACE('',(#920),#18,.T.);
#1001=ADVANCED_FACE('',(#921),#19,.F.);
#1002=ADVANCED_FACE('',(#922),#20,.T.);
#1003=ADVANCED_FACE('',(#923),#21,.F.);
#1004=ADVANCED_FACE('',(#924),#22,.T.);
#1005=ADVANCED_FACE('',(#925),#46,.T.);
#1006=ADVANCED_FACE('',(#926),#47,.T.);
#1007=ADVANCED_FACE('',(#927),#23,.T.);
#1008=ADVANCED_FACE('',(#928),#24,.T.);
#1009=ADVANCED_FACE('',(#929),#48,.T.);
#1010=ADVANCED_FACE('',(#930),#49,.T.);
#1011=ADVANCED_FACE('',(#931),#25,.T.);
#1012=ADVANCED_FACE('',(#932),#26,.T.);
#1013=ADVANCED_FACE('',(#933),#50,.T.);
#1014=ADVANCED_FACE('',(#934),#51,.T.);
#1015=ADVANCED_FACE('',(#935),#27,.T.);
#1016=ADVANCED_FACE('',(#936),#28,.T.);
#1017=ADVANCED_FACE('',(#937),#52,.T.);
#1018=ADVANCED_FACE('',(#938),#53,.T.);
#1019=ADVANCED_FACE('',(#939),#29,.T.);
#1020=ADVANCED_FACE('',(#940),#30,.T.);
#1021=ADVANCED_FACE('',(#941),#54,.T.);
#1022=ADVANCED_FACE('',(#942),#55,.T.);
#1023=ADVANCED_FACE('',(#943),#31,.T.);
#1024=ADVANCED_FACE('',(#944),#32,.T.);
#1025=ADVANCED_FACE('',(#945),#56,.T.);
#1026=ADVANCED_FACE('',(#946),#57,.T.);
#1027=ADVANCED_FACE('',(#947),#33,.T.);
#1028=ADVANCED_FACE('',(#948),#34,.T.);
#1029=ADVANCED_FACE('',(#949),#58,.T.);
#1030=ADVANCED_FACE('',(#950),#59,.T.);
#1031=ADVANCED_FACE('',(#951),#35,.T.);
#1032=ADVANCED_FACE('',(#952),#36,.T.);
#1033=ADVANCED_FACE('',(#953),#60,.T.);
#1034=ADVANCED_FACE('',(#954),#61,.T.);
#1035=ADVANCED_FACE('',(#955),#37,.T.);
#1036=ADVANCED_FACE('',(#956),#38,.T.);
#1037=ADVANCED_FACE('',(#957),#62,.T.);
#1038=ADVANCED_FACE('',(#958),#63,.T.);
#1039=ADVANCED_FACE('',(#959),#39,.T.);
#1040=ADVANCED_FACE('',(#960),#40,.T.);
#1041=ADVANCED_FACE('',(#961),#64,.T.);
#1042=ADVANCED_FACE('',(#962),#65,.T.);
#1043=ADVANCED_FACE('',(#963),#41,.T.);
#1044=CLOSED_SHELL('',(#976,#977,#978,#979,#980,#981,#982,#983,#984,#985,
#986,#987,#988,#989,#990,#991,#992,#993,#994,#995,#996,#997,#998,#999,#1000,
#1001,#1002,#1003,#1004,#1005,#1006,#1007,#1008,#1009,#1010,#1011,#1012,
#1013,#1014,#1015,#1016,#1017,#1018,#1019,#1020,#1021,#1022,#1023,#1024,
#1025,#1026,#1027,#1028,#1029,#1030,#1031,#1032,#1033,#1034,#1035,#1036,
#1037,#1038,#1039,#1040,#1041,#1042,#1043));
#1045=STYLED_ITEM('',(#1046),#1053);
#1046=PRESENTATION_STYLE_ASSIGNMENT((#1047));
#1047=SURFACE_STYLE_USAGE(.BOTH.,#1048);
#1048=SURFACE_SIDE_STYLE('',(#1049));
#1049=SURFACE_STYLE_FILL_AREA(#1050);
#1050=FILL_AREA_STYLE('',(#1051));
#1051=FILL_AREA_STYLE_COLOUR('',#1052);
#1052=DRAUGHTING_PRE_DEFINED_COLOUR('black');
#1053=MANIFOLD_SOLID_BREP('Part 1',#1044);
#1054=SHAPE_DEFINITION_REPRESENTATION(#1898,#1055);
#1055=SHAPE_REPRESENTATION('Part 1',(#1056),#1893);
#1056=AXIS2_PLACEMENT_3D('',#1587,#1213,#1214);
#1057=AXIS2_PLACEMENT_3D('',#1588,#1215,#1216);
#1058=AXIS2_PLACEMENT_3D('',#1597,#1221,#1222);
#1059=AXIS2_PLACEMENT_3D('',#1606,#1227,#1228);
#1060=AXIS2_PLACEMENT_3D('',#1607,#1229,#1230);
#1061=AXIS2_PLACEMENT_3D('',#1612,#1232,#1233);
#1062=AXIS2_PLACEMENT_3D('',#1616,#1235,#1236);
#1063=AXIS2_PLACEMENT_3D('',#1620,#1238,#1239);
#1064=AXIS2_PLACEMENT_3D('',#1624,#1241,#1242);
#1065=AXIS2_PLACEMENT_3D('',#1628,#1244,#1245);
#1066=AXIS2_PLACEMENT_3D('',#1632,#1247,#1248);
#1067=AXIS2_PLACEMENT_3D('',#1636,#1250,#1251);
#1068=AXIS2_PLACEMENT_3D('',#1640,#1253,#1254);
#1069=AXIS2_PLACEMENT_3D('',#1644,#1256,#1257);
#1070=AXIS2_PLACEMENT_3D('',#1647,#1259,#1260);
#1071=AXIS2_PLACEMENT_3D('',#1649,#1261,#1262);
#1072=AXIS2_PLACEMENT_3D('',#1651,#1263,#1264);
#1073=AXIS2_PLACEMENT_3D('',#1652,#1265,#1266);
#1074=AXIS2_PLACEMENT_3D('',#1657,#1268,#1269);
#1075=AXIS2_PLACEMENT_3D('',#1661,#1271,#1272);
#1076=AXIS2_PLACEMENT_3D('',#1665,#1274,#1275);
#1077=AXIS2_PLACEMENT_3D('',#1669,#1277,#1278);
#1078=AXIS2_PLACEMENT_3D('',#1673,#1280,#1281);
#1079=AXIS2_PLACEMENT_3D('',#1677,#1283,#1284);
#1080=AXIS2_PLACEMENT_3D('',#1681,#1286,#1287);
#1081=AXIS2_PLACEMENT_3D('',#1685,#1289,#1290);
#1082=AXIS2_PLACEMENT_3D('',#1689,#1292,#1293);
#1083=AXIS2_PLACEMENT_3D('',#1692,#1295,#1296);
#1084=AXIS2_PLACEMENT_3D('',#1694,#1297,#1298);
#1085=AXIS2_PLACEMENT_3D('',#1696,#1299,#1300);
#1086=AXIS2_PLACEMENT_3D('',#1697,#1301,#1302);
#1087=AXIS2_PLACEMENT_3D('',#1699,#1303,#1304);
#1088=AXIS2_PLACEMENT_3D('',#1701,#1305,#1306);
#1089=AXIS2_PLACEMENT_3D('',#1702,#1307,#1308);
#1090=AXIS2_PLACEMENT_3D('',#1703,#1309,#1310);
#1091=AXIS2_PLACEMENT_3D('',#1712,#1315,#1316);
#1092=AXIS2_PLACEMENT_3D('',#1721,#1321,#1322);
#1093=AXIS2_PLACEMENT_3D('',#1730,#1327,#1328);
#1094=AXIS2_PLACEMENT_3D('',#1739,#1333,#1334);
#1095=AXIS2_PLACEMENT_3D('',#1740,#1335,#1336);
#1096=AXIS2_PLACEMENT_3D('',#1741,#1337,#1338);
#1097=AXIS2_PLACEMENT_3D('',#1742,#1339,#1340);
#1098=AXIS2_PLACEMENT_3D('',#1743,#1341,#1342);
#1099=AXIS2_PLACEMENT_3D('',#1744,#1343,#1344);
#1100=AXIS2_PLACEMENT_3D('',#1745,#1345,#1346);
#1101=AXIS2_PLACEMENT_3D('',#1746,#1347,#1348);
#1102=AXIS2_PLACEMENT_3D('',#1747,#1349,#1350);
#1103=AXIS2_PLACEMENT_3D('',#1748,#1351,#1352);
#1104=AXIS2_PLACEMENT_3D('',#1749,#1353,#1354);
#1105=AXIS2_PLACEMENT_3D('',#1750,#1355,#1356);
#1106=AXIS2_PLACEMENT_3D('',#1751,#1357,#1358);
#1107=AXIS2_PLACEMENT_3D('',#1752,#1359,#1360);
#1108=AXIS2_PLACEMENT_3D('',#1753,#1361,#1362);
#1109=AXIS2_PLACEMENT_3D('',#1754,#1363,#1364);
#1110=AXIS2_PLACEMENT_3D('',#1763,#1369,#1370);
#1111=AXIS2_PLACEMENT_3D('',#1772,#1375,#1376);
#1112=AXIS2_PLACEMENT_3D('',#1773,#1377,#1378);
#1113=AXIS2_PLACEMENT_3D('',#1775,#1379,#1380);
#1114=AXIS2_PLACEMENT_3D('',#1777,#1381,#1382);
#1115=AXIS2_PLACEMENT_3D('',#1778,#1383,#1384);
#1116=AXIS2_PLACEMENT_3D('',#1779,#1385,#1386);
#1117=AXIS2_PLACEMENT_3D('',#1788,#1391,#1392);
#1118=AXIS2_PLACEMENT_3D('',#1797,#1397,#1398);
#1119=AXIS2_PLACEMENT_3D('',#1798,#1399,#1400);
#1120=AXIS2_PLACEMENT_3D('',#1799,#1401,#1402);
#1121=AXIS2_PLACEMENT_3D('',#1800,#1403,#1404);
#1122=AXIS2_PLACEMENT_3D('',#1801,#1405,#1406);
#1123=AXIS2_PLACEMENT_3D('',#1802,#1407,#1408);
#1124=AXIS2_PLACEMENT_3D('',#1803,#1409,#1410);
#1125=AXIS2_PLACEMENT_3D('',#1804,#1411,#1412);
#1126=AXIS2_PLACEMENT_3D('',#1805,#1413,#1414);
#1127=AXIS2_PLACEMENT_3D('',#1806,#1415,#1416);
#1128=AXIS2_PLACEMENT_3D('',#1807,#1417,#1418);
#1129=AXIS2_PLACEMENT_3D('',#1808,#1419,#1420);
#1130=AXIS2_PLACEMENT_3D('',#1809,#1421,#1422);
#1131=AXIS2_PLACEMENT_3D('',#1810,#1423,#1424);
#1132=AXIS2_PLACEMENT_3D('',#1811,#1425,#1426);
#1133=AXIS2_PLACEMENT_3D('',#1812,#1427,#1428);
#1134=AXIS2_PLACEMENT_3D('',#1813,#1429,#1430);
#1135=AXIS2_PLACEMENT_3D('',#1814,#1431,#1432);
#1136=AXIS2_PLACEMENT_3D('',#1815,#1433,#1434);
#1137=AXIS2_PLACEMENT_3D('',#1816,#1435,#1436);
#1138=AXIS2_PLACEMENT_3D('',#1817,#1437,#1438);
#1139=AXIS2_PLACEMENT_3D('',#1818,#1439,#1440);
#1140=AXIS2_PLACEMENT_3D('',#1819,#1441,#1442);
#1141=AXIS2_PLACEMENT_3D('',#1820,#1443,#1444);
#1142=AXIS2_PLACEMENT_3D('',#1821,#1445,#1446);
#1143=AXIS2_PLACEMENT_3D('',#1822,#1447,#1448);
#1144=AXIS2_PLACEMENT_3D('',#1823,#1449,#1450);
#1145=AXIS2_PLACEMENT_3D('',#1824,#1451,#1452);
#1146=AXIS2_PLACEMENT_3D('',#1825,#1453,#1454);
#1147=AXIS2_PLACEMENT_3D('',#1826,#1455,#1456);
#1148=AXIS2_PLACEMENT_3D('',#1827,#1457,#1458);
#1149=AXIS2_PLACEMENT_3D('',#1828,#1459,#1460);
#1150=AXIS2_PLACEMENT_3D('',#1829,#1461,#1462);
#1151=AXIS2_PLACEMENT_3D('',#1830,#1463,#1464);
#1152=AXIS2_PLACEMENT_3D('',#1831,#1465,#1466);
#1153=AXIS2_PLACEMENT_3D('',#1832,#1467,#1468);
#1154=AXIS2_PLACEMENT_3D('',#1833,#1469,#1470);
#1155=AXIS2_PLACEMENT_3D('',#1834,#1471,#1472);
#1156=AXIS2_PLACEMENT_3D('',#1835,#1473,#1474);
#1157=AXIS2_PLACEMENT_3D('',#1836,#1475,#1476);
#1158=AXIS2_PLACEMENT_3D('',#1837,#1477,#1478);
#1159=AXIS2_PLACEMENT_3D('',#1838,#1479,#1480);
#1160=AXIS2_PLACEMENT_3D('',#1839,#1481,#1482);
#1161=AXIS2_PLACEMENT_3D('',#1840,#1483,#1484);
#1162=AXIS2_PLACEMENT_3D('',#1841,#1485,#1486);
#1163=AXIS2_PLACEMENT_3D('',#1842,#1487,#1488);
#1164=AXIS2_PLACEMENT_3D('',#1843,#1489,#1490);
#1165=AXIS2_PLACEMENT_3D('',#1844,#1491,#1492);
#1166=AXIS2_PLACEMENT_3D('',#1845,#1493,#1494);
#1167=AXIS2_PLACEMENT_3D('',#1846,#1495,#1496);
#1168=AXIS2_PLACEMENT_3D('',#1847,#1497,#1498);
#1169=AXIS2_PLACEMENT_3D('',#1848,#1499,#1500);
#1170=AXIS2_PLACEMENT_3D('',#1849,#1501,#1502);
#1171=AXIS2_PLACEMENT_3D('',#1850,#1503,#1504);
#1172=AXIS2_PLACEMENT_3D('',#1851,#1505,#1506);
#1173=AXIS2_PLACEMENT_3D('',#1852,#1507,#1508);
#1174=AXIS2_PLACEMENT_3D('',#1853,#1509,#1510);
#1175=AXIS2_PLACEMENT_3D('',#1854,#1511,#1512);
#1176=AXIS2_PLACEMENT_3D('',#1855,#1513,#1514);
#1177=AXIS2_PLACEMENT_3D('',#1856,#1515,#1516);
#1178=AXIS2_PLACEMENT_3D('',#1857,#1517,#1518);
#1179=AXIS2_PLACEMENT_3D('',#1858,#1519,#1520);
#1180=AXIS2_PLACEMENT_3D('',#1859,#1521,#1522);
#1181=AXIS2_PLACEMENT_3D('',#1860,#1523,#1524);
#1182=AXIS2_PLACEMENT_3D('',#1861,#1525,#1526);
#1183=AXIS2_PLACEMENT_3D('',#1862,#1527,#1528);
#1184=AXIS2_PLACEMENT_3D('',#1863,#1529,#1530);
#1185=AXIS2_PLACEMENT_3D('',#1864,#1531,#1532);
#1186=AXIS2_PLACEMENT_3D('',#1865,#1533,#1534);
#1187=AXIS2_PLACEMENT_3D('',#1866,#1535,#1536);
#1188=AXIS2_PLACEMENT_3D('',#1867,#1537,#1538);
#1189=AXIS2_PLACEMENT_3D('',#1868,#1539,#1540);
#1190=AXIS2_PLACEMENT_3D('',#1869,#1541,#1542);
#1191=AXIS2_PLACEMENT_3D('',#1870,#1543,#1544);
#1192=AXIS2_PLACEMENT_3D('',#1871,#1545,#1546);
#1193=AXIS2_PLACEMENT_3D('',#1872,#1547,#1548);
#1194=AXIS2_PLACEMENT_3D('',#1873,#1549,#1550);
#1195=AXIS2_PLACEMENT_3D('',#1874,#1551,#1552);
#1196=AXIS2_PLACEMENT_3D('',#1875,#1553,#1554);
#1197=AXIS2_PLACEMENT_3D('',#1876,#1555,#1556);
#1198=AXIS2_PLACEMENT_3D('',#1877,#1557,#1558);
#1199=AXIS2_PLACEMENT_3D('',#1878,#1559,#1560);
#1200=AXIS2_PLACEMENT_3D('',#1879,#1561,#1562);
#1201=AXIS2_PLACEMENT_3D('',#1880,#1563,#1564);
#1202=AXIS2_PLACEMENT_3D('',#1881,#1565,#1566);
#1203=AXIS2_PLACEMENT_3D('',#1882,#1567,#1568);
#1204=AXIS2_PLACEMENT_3D('',#1883,#1569,#1570);
#1205=AXIS2_PLACEMENT_3D('',#1884,#1571,#1572);
#1206=AXIS2_PLACEMENT_3D('',#1885,#1573,#1574);
#1207=AXIS2_PLACEMENT_3D('',#1886,#1575,#1576);
#1208=AXIS2_PLACEMENT_3D('',#1887,#1577,#1578);
#1209=AXIS2_PLACEMENT_3D('',#1888,#1579,#1580);
#1210=AXIS2_PLACEMENT_3D('',#1889,#1581,#1582);
#1211=AXIS2_PLACEMENT_3D('',#1890,#1583,#1584);
#1212=AXIS2_PLACEMENT_3D('',#1891,#1585,#1586);
#1213=DIRECTION('',(0.,0.,1.));
#1214=DIRECTION('',(1.,0.,0.));
#1215=DIRECTION('',(1.,0.,0.));
#1216=DIRECTION('',(0.,0.,-1.));
#1217=DIRECTION('',(0.,0.,-1.));
#1218=DIRECTION('',(0.,-1.,0.));
#1219=DIRECTION('',(0.,0.,1.));
#1220=DIRECTION('',(0.,-1.,0.));
#1221=DIRECTION('',(1.,0.,0.));
#1222=DIRECTION('',(0.,0.,-1.));
#1223=DIRECTION('',(0.,0.,1.));
#1224=DIRECTION('',(0.,-1.,0.));
#1225=DIRECTION('',(0.,0.,-1.));
#1226=DIRECTION('',(0.,-1.,0.));
#1227=DIRECTION('',(0.,0.,1.));
#1228=DIRECTION('',(1.,0.,0.));
#1229=DIRECTION('',(0.,0.,1.));
#1230=DIRECTION('',(1.,0.,0.));
#1231=DIRECTION('',(0.,-1.,0.));
#1232=DIRECTION('',(0.,0.,1.));
#1233=DIRECTION('',(1.,0.,0.));
#1234=DIRECTION('',(0.,-1.,0.));
#1235=DIRECTION('',(0.,0.,1.));
#1236=DIRECTION('',(1.,0.,0.));
#1237=DIRECTION('',(0.5,-0.866025403784439,0.));
#1238=DIRECTION('',(0.,0.,1.));
#1239=DIRECTION('',(1.,0.,0.));
#1240=DIRECTION('',(0.,-1.,0.));
#1241=DIRECTION('',(0.,0.,1.));
#1242=DIRECTION('',(1.,0.,0.));
#1243=DIRECTION('',(0.5,0.866025403784439,0.));
#1244=DIRECTION('',(0.,0.,1.));
#1245=DIRECTION('',(1.,0.,0.));
#1246=DIRECTION('',(0.,1.,0.));
#1247=DIRECTION('',(0.,0.,1.));
#1248=DIRECTION('',(1.,0.,0.));
#1249=DIRECTION('',(0.,1.,0.));
#1250=DIRECTION('',(0.,0.,1.));
#1251=DIRECTION('',(1.,0.,0.));
#1252=DIRECTION('',(-0.5,0.866025403784439,0.));
#1253=DIRECTION('',(0.,0.,1.));
#1254=DIRECTION('',(1.,0.,0.));
#1255=DIRECTION('',(-5.9744095153646E-17,-1.,0.));
#1256=DIRECTION('',(0.,0.,1.));
#1257=DIRECTION('',(1.,0.,0.));
#1258=DIRECTION('',(-0.5,-0.866025403784439,0.));
#1259=DIRECTION('',(0.,0.,1.));
#1260=DIRECTION('',(1.,0.,0.));
#1261=DIRECTION('',(0.,0.,-1.));
#1262=DIRECTION('',(1.,0.,0.));
#1263=DIRECTION('',(0.,0.,1.));
#1264=DIRECTION('',(1.,0.,0.));
#1265=DIRECTION('',(0.,0.,1.));
#1266=DIRECTION('',(1.,0.,0.));
#1267=DIRECTION('',(0.,-1.,0.));
#1268=DIRECTION('',(0.,0.,1.));
#1269=DIRECTION('',(1.,0.,0.));
#1270=DIRECTION('',(0.,-1.,0.));
#1271=DIRECTION('',(0.,0.,1.));
#1272=DIRECTION('',(1.,0.,0.));
#1273=DIRECTION('',(-0.5,-0.866025403784439,0.));
#1274=DIRECTION('',(0.,0.,1.));
#1275=DIRECTION('',(1.,0.,0.));
#1276=DIRECTION('',(-5.9744095153646E-17,-1.,0.));
#1277=DIRECTION('',(0.,0.,1.));
#1278=DIRECTION('',(1.,0.,0.));
#1279=DIRECTION('',(-0.5,0.866025403784439,0.));
#1280=DIRECTION('',(0.,0.,1.));
#1281=DIRECTION('',(1.,0.,0.));
#1282=DIRECTION('',(0.,1.,0.));
#1283=DIRECTION('',(0.,0.,1.));
#1284=DIRECTION('',(1.,0.,0.));
#1285=DIRECTION('',(0.,1.,0.));
#1286=DIRECTION('',(0.,0.,1.));
#1287=DIRECTION('',(1.,0.,0.));
#1288=DIRECTION('',(0.5,0.866025403784439,0.));
#1289=DIRECTION('',(0.,0.,1.));
#1290=DIRECTION('',(1.,0.,0.));
#1291=DIRECTION('',(0.,-1.,0.));
#1292=DIRECTION('',(0.,0.,1.));
#1293=DIRECTION('',(1.,0.,0.));
#1294=DIRECTION('',(0.5,-0.866025403784439,0.));
#1295=DIRECTION('',(0.,0.,1.));
#1296=DIRECTION('',(1.,0.,0.));
#1297=DIRECTION('',(0.,0.,-1.));
#1298=DIRECTION('',(1.,0.,0.));
#1299=DIRECTION('',(0.,0.,1.));
#1300=DIRECTION('',(1.,0.,0.));
#1301=DIRECTION('',(0.,0.,1.));
#1302=DIRECTION('',(1.,0.,0.));
#1303=DIRECTION('',(0.,0.,-1.));
#1304=DIRECTION('',(-1.,0.,0.));
#1305=DIRECTION('',(0.,0.,1.));
#1306=DIRECTION('',(1.,0.,0.));
#1307=DIRECTION('',(0.,0.,1.));
#1308=DIRECTION('',(1.,0.,0.));
#1309=DIRECTION('',(-1.,0.,0.));
#1310=DIRECTION('',(0.,0.,1.));
#1311=DIRECTION('',(0.,0.,1.));
#1312=DIRECTION('',(0.,-1.,0.));
#1313=DIRECTION('',(0.,0.,1.));
#1314=DIRECTION('',(0.,-1.,0.));
#1315=DIRECTION('',(-0.866025403784439,-0.5,0.));
#1316=DIRECTION('',(0.5,-0.866025403784439,0.));
#1317=DIRECTION('',(0.,0.,1.));
#1318=DIRECTION('',(0.5,-0.866025403784439,0.));
#1319=DIRECTION('',(0.,0.,1.));
#1320=DIRECTION('',(0.5,-0.866025403784439,0.));
#1321=DIRECTION('',(-1.,5.9744095153646E-17,0.));
#1322=DIRECTION('',(-5.9744095153646E-17,-1.,0.));
#1323=DIRECTION('',(0.,0.,1.));
#1324=DIRECTION('',(-5.9744095153646E-17,-1.,0.));
#1325=DIRECTION('',(0.,0.,1.));
#1326=DIRECTION('',(-5.9744095153646E-17,-1.,0.));
#1327=DIRECTION('',(-0.866025403784439,0.5,0.));
#1328=DIRECTION('',(-0.5,-0.866025403784439,0.));
#1329=DIRECTION('',(0.,0.,1.));
#1330=DIRECTION('',(-0.5,-0.866025403784439,0.));
#1331=DIRECTION('',(0.,0.,1.));
#1332=DIRECTION('',(-0.5,-0.866025403784439,0.));
#1333=DIRECTION('',(0.,0.,-1.));
#1334=DIRECTION('',(-1.,0.,0.));
#1335=DIRECTION('',(0.,0.,1.));
#1336=DIRECTION('',(1.,0.,0.));
#1337=DIRECTION('',(0.,0.,1.));
#1338=DIRECTION('',(1.,0.,0.));
#1339=DIRECTION('',(0.,0.,-1.));
#1340=DIRECTION('',(-1.,0.,0.));
#1341=DIRECTION('',(0.,0.,1.));
#1342=DIRECTION('',(1.,0.,0.));
#1343=DIRECTION('',(0.,0.,1.));
#1344=DIRECTION('',(1.,0.,0.));
#1345=DIRECTION('',(0.,0.,-1.));
#1346=DIRECTION('',(-1.,0.,0.));
#1347=DIRECTION('',(0.,0.,1.));
#1348=DIRECTION('',(1.,0.,0.));
#1349=DIRECTION('',(0.,0.,1.));
#1350=DIRECTION('',(1.,0.,0.));
#1351=DIRECTION('',(0.,0.,-1.));
#1352=DIRECTION('',(-1.,0.,0.));
#1353=DIRECTION('',(0.,0.,1.));
#1354=DIRECTION('',(1.,0.,0.));
#1355=DIRECTION('',(0.,0.,1.));
#1356=DIRECTION('',(1.,0.,0.));
#1357=DIRECTION('',(0.,0.,-1.));
#1358=DIRECTION('',(-1.,0.,0.));
#1359=DIRECTION('',(0.,0.,1.));
#1360=DIRECTION('',(1.,0.,0.));
#1361=DIRECTION('',(0.,0.,1.));
#1362=DIRECTION('',(1.,0.,0.));
#1363=DIRECTION('',(1.,0.,0.));
#1364=DIRECTION('',(0.,0.,-1.));
#1365=DIRECTION('',(0.,0.,1.));
#1366=DIRECTION('',(0.,1.,0.));
#1367=DIRECTION('',(0.,0.,-1.));
#1368=DIRECTION('',(0.,1.,0.));
#1369=DIRECTION('',(1.,0.,0.));
#1370=DIRECTION('',(0.,0.,-1.));
#1371=DIRECTION('',(0.,0.,-1.));
#1372=DIRECTION('',(0.,1.,0.));
#1373=DIRECTION('',(0.,0.,1.));
#1374=DIRECTION('',(0.,1.,0.));
#1375=DIRECTION('',(0.,0.,1.));
#1376=DIRECTION('',(1.,0.,0.));
#1377=DIRECTION('',(0.,0.,-1.));
#1378=DIRECTION('',(1.,0.,0.));
#1379=DIRECTION('',(0.,0.,1.));
#1380=DIRECTION('',(-1.,0.,0.));
#1381=DIRECTION('',(0.,0.,1.));
#1382=DIRECTION('',(1.,0.,0.));
#1383=DIRECTION('',(0.,0.,1.));
#1384=DIRECTION('',(1.,0.,0.));
#1385=DIRECTION('',(-0.866025403784439,0.5,0.));
#1386=DIRECTION('',(0.5,0.866025403784439,0.));
#1387=DIRECTION('',(0.,0.,1.));
#1388=DIRECTION('',(0.5,0.866025403784439,0.));
#1389=DIRECTION('',(0.,0.,1.));
#1390=DIRECTION('',(0.5,0.866025403784439,0.));
#1391=DIRECTION('',(-0.866025403784439,-0.5,0.));
#1392=DIRECTION('',(-0.5,0.866025403784439,0.));
#1393=DIRECTION('',(0.,0.,1.));
#1394=DIRECTION('',(-0.5,0.866025403784439,0.));
#1395=DIRECTION('',(0.,0.,1.));
#1396=DIRECTION('',(-0.5,0.866025403784439,0.));
#1397=DIRECTION('',(0.,0.,-1.));
#1398=DIRECTION('',(-1.,0.,0.));
#1399=DIRECTION('',(0.,0.,1.));
#1400=DIRECTION('',(1.,0.,0.));
#1401=DIRECTION('',(0.,0.,1.));
#1402=DIRECTION('',(1.,0.,0.));
#1403=DIRECTION('',(0.,0.,-1.));
#1404=DIRECTION('',(-1.,0.,0.));
#1405=DIRECTION('',(0.,0.,1.));
#1406=DIRECTION('',(1.,0.,0.));
#1407=DIRECTION('',(0.,0.,1.));
#1408=DIRECTION('',(1.,0.,0.));
#1409=DIRECTION('',(0.,0.,-1.));
#1410=DIRECTION('',(-1.,0.,0.));
#1411=DIRECTION('',(0.,0.,1.));
#1412=DIRECTION('',(1.,0.,0.));
#1413=DIRECTION('',(0.,0.,1.));
#1414=DIRECTION('',(1.,0.,0.));
#1415=DIRECTION('',(0.,0.,-1.));
#1416=DIRECTION('',(-1.,0.,0.));
#1417=DIRECTION('',(0.,0.,1.));
#1418=DIRECTION('',(1.,0.,0.));
#1419=DIRECTION('',(0.,0.,1.));
#1420=DIRECTION('',(1.,0.,0.));
#1421=DIRECTION('',(0.,0.,-1.));
#1422=DIRECTION('',(-1.,0.,0.));
#1423=DIRECTION('',(0.,0.,1.));
#1424=DIRECTION('',(1.,0.,0.));
#1425=DIRECTION('',(0.,0.,1.));
#1426=DIRECTION('',(1.,0.,0.));
#1427=DIRECTION('',(0.,1.,0.));
#1428=DIRECTION('',(0.,0.,1.));
#1429=DIRECTION('',(0.,-1.,0.));
#1430=DIRECTION('',(0.,0.,-1.));
#1431=DIRECTION('',(0.,1.,0.));
#1432=DIRECTION('',(0.,0.,1.));
#1433=DIRECTION('',(0.,0.,1.));
#1434=DIRECTION('',(1.,0.,0.));
#1435=DIRECTION('',(0.,-1.,0.));
#1436=DIRECTION('',(0.,0.,-1.));
#1437=DIRECTION('',(0.,0.,1.));
#1438=DIRECTION('',(1.,0.,0.));
#1439=DIRECTION('',(0.5,-0.866025403784439,0.));
#1440=DIRECTION('',(0.866025403784439,0.5,0.));
#1441=DIRECTION('',(0.,-1.,0.));
#1442=DIRECTION('',(0.,0.,-1.));
#1443=DIRECTION('',(0.,-1.,0.));
#1444=DIRECTION('',(0.,0.,-1.));
#1445=DIRECTION('',(0.5,-0.866025403784439,0.));
#1446=DIRECTION('',(0.866025403784439,0.5,0.));
#1447=DIRECTION('',(0.5,-0.866025403784438,-8.67361737988404E-16));
#1448=DIRECTION('',(0.866025403784438,0.5,0.));
#1449=DIRECTION('',(0.,0.,1.));
#1450=DIRECTION('',(1.,0.,0.));
#1451=DIRECTION('',(-0.5,-0.866025403784438,0.));
#1452=DIRECTION('',(0.866025403784438,-0.5,0.));
#1453=DIRECTION('',(0.,0.,1.));
#1454=DIRECTION('',(1.,0.,0.));
#1455=DIRECTION('',(0.,-1.,0.));
#1456=DIRECTION('',(0.,0.,-1.));
#1457=DIRECTION('',(0.5,0.866025403784439,0.));
#1458=DIRECTION('',(-0.866025403784439,0.5,0.));
#1459=DIRECTION('',(-0.5,-0.866025403784438,0.));
#1460=DIRECTION('',(0.866025403784438,-0.5,0.));
#1461=DIRECTION('',(5.9744095153646E-17,1.,0.));
#1462=DIRECTION('',(-1.,5.9744095153646E-17,0.));
#1463=DIRECTION('',(0.,-1.,0.));
#1464=DIRECTION('',(0.,0.,-1.));
#1465=DIRECTION('',(0.,0.,1.));
#1466=DIRECTION('',(1.,0.,0.));
#1467=DIRECTION('',(0.,-1.,0.));
#1468=DIRECTION('',(0.,0.,-1.));
#1469=DIRECTION('',(0.,0.,1.));
#1470=DIRECTION('',(1.,0.,0.));
#1471=DIRECTION('',(-0.5,-0.866025403784439,-4.33680868994203E-16));
#1472=DIRECTION('',(0.866025403784439,-0.5,0.));
#1473=DIRECTION('',(0.,-1.,0.));
#1474=DIRECTION('',(0.,0.,-1.));
#1475=DIRECTION('',(0.,-1.,0.));
#1476=DIRECTION('',(0.,0.,-1.));
#1477=DIRECTION('',(0.5,0.866025403784439,0.));
#1478=DIRECTION('',(-0.866025403784439,0.5,0.));
#1479=DIRECTION('',(-0.5,-0.866025403784439,-4.33680868994203E-16));
#1480=DIRECTION('',(0.866025403784439,-0.5,0.));
#1481=DIRECTION('',(0.,0.,1.));
#1482=DIRECTION('',(1.,0.,0.));
#1483=DIRECTION('',(0.5,-0.866025403784438,0.));
#1484=DIRECTION('',(0.866025403784438,0.5,0.));
#1485=DIRECTION('',(0.,0.,1.));
#1486=DIRECTION('',(1.,0.,0.));
#1487=DIRECTION('',(0.,-1.,0.));
#1488=DIRECTION('',(0.,0.,-1.));
#1489=DIRECTION('',(0.5,-0.866025403784439,0.));
#1490=DIRECTION('',(0.866025403784439,0.5,0.));
#1491=DIRECTION('',(0.5,-0.866025403784438,0.));
#1492=DIRECTION('',(0.866025403784438,0.5,0.));
#1493=DIRECTION('',(0.,-1.,0.));
#1494=DIRECTION('',(0.,0.,-1.));
#1495=DIRECTION('',(0.,-1.,0.));
#1496=DIRECTION('',(0.,0.,-1.));
#1497=DIRECTION('',(0.,0.,1.));
#1498=DIRECTION('',(1.,0.,0.));
#1499=DIRECTION('',(0.,-1.,0.));
#1500=DIRECTION('',(0.,0.,-1.));
#1501=DIRECTION('',(0.,0.,1.));
#1502=DIRECTION('',(1.,0.,0.));
#1503=DIRECTION('',(0.,1.,0.));
#1504=DIRECTION('',(0.,0.,1.));
#1505=DIRECTION('',(0.,1.,0.));
#1506=DIRECTION('',(0.,0.,1.));
#1507=DIRECTION('',(0.,1.,0.));
#1508=DIRECTION('',(0.,0.,1.));
#1509=DIRECTION('',(0.,-1.,0.));
#1510=DIRECTION('',(0.,0.,-1.));
#1511=DIRECTION('',(0.,1.,0.));
#1512=DIRECTION('',(0.,0.,1.));
#1513=DIRECTION('',(0.,0.,1.));
#1514=DIRECTION('',(1.,0.,0.));
#1515=DIRECTION('',(0.,-1.,0.));
#1516=DIRECTION('',(0.,0.,-1.));
#1517=DIRECTION('',(0.,0.,1.));
#1518=DIRECTION('',(1.,0.,0.));
#1519=DIRECTION('',(-0.5,-0.866025403784438,0.));
#1520=DIRECTION('',(0.866025403784438,-0.5,0.));
#1521=DIRECTION('',(0.,-1.,0.));
#1522=DIRECTION('',(0.,0.,-1.));
#1523=DIRECTION('',(0.,-1.,0.));
#1524=DIRECTION('',(0.,0.,-1.));
#1525=DIRECTION('',(-0.5,-0.866025403784439,0.));
#1526=DIRECTION('',(0.866025403784439,-0.5,0.));
#1527=DIRECTION('',(-0.5,-0.866025403784438,1.73472347597681E-15));
#1528=DIRECTION('',(0.866025403784438,-0.5,0.));
#1529=DIRECTION('',(0.,0.,1.));
#1530=DIRECTION('',(1.,0.,0.));
#1531=DIRECTION('',(0.5,-0.866025403784438,0.));
#1532=DIRECTION('',(0.866025403784438,0.5,0.));
#1533=DIRECTION('',(0.,0.,1.));
#1534=DIRECTION('',(1.,0.,0.));
#1535=DIRECTION('',(0.,-1.,0.));
#1536=DIRECTION('',(0.,0.,-1.));
#1537=DIRECTION('',(-0.5,0.866025403784439,0.));
#1538=DIRECTION('',(-0.866025403784439,-0.5,0.));
#1539=DIRECTION('',(0.5,-0.866025403784438,0.));
#1540=DIRECTION('',(0.866025403784438,0.5,0.));
#1541=DIRECTION('',(0.,1.,0.));
#1542=DIRECTION('',(0.,0.,1.));
#1543=DIRECTION('',(0.,-1.,0.));
#1544=DIRECTION('',(0.,0.,-1.));
#1545=DIRECTION('',(0.,0.,1.));
#1546=DIRECTION('',(1.,0.,0.));
#1547=DIRECTION('',(0.,-1.,0.));
#1548=DIRECTION('',(0.,0.,-1.));
#1549=DIRECTION('',(0.,0.,1.));
#1550=DIRECTION('',(1.,0.,0.));
#1551=DIRECTION('',(0.5,-0.866025403784439,0.));
#1552=DIRECTION('',(0.866025403784439,0.5,0.));
#1553=DIRECTION('',(-5.9744095153646E-17,-1.,0.));
#1554=DIRECTION('',(1.,-5.9744095153646E-17,0.));
#1555=DIRECTION('',(0.,-1.,0.));
#1556=DIRECTION('',(0.,0.,-1.));
#1557=DIRECTION('',(-0.5,0.866025403784439,0.));
#1558=DIRECTION('',(-0.866025403784439,-0.5,0.));
#1559=DIRECTION('',(0.5,-0.866025403784439,0.));
#1560=DIRECTION('',(0.866025403784439,0.5,0.));
#1561=DIRECTION('',(0.,0.,1.));
#1562=DIRECTION('',(1.,0.,0.));
#1563=DIRECTION('',(-0.5,-0.866025403784439,0.));
#1564=DIRECTION('',(0.866025403784439,-0.5,0.));
#1565=DIRECTION('',(0.,0.,1.));
#1566=DIRECTION('',(1.,0.,0.));
#1567=DIRECTION('',(0.,-1.,0.));
#1568=DIRECTION('',(0.,0.,-1.));
#1569=DIRECTION('',(-0.5,-0.866025403784439,0.));
#1570=DIRECTION('',(0.866025403784439,-0.5,0.));
#1571=DIRECTION('',(-0.5,-0.866025403784439,0.));
#1572=DIRECTION('',(0.866025403784439,-0.5,0.));
#1573=DIRECTION('',(0.,-1.,0.));
#1574=DIRECTION('',(0.,0.,-1.));
#1575=DIRECTION('',(0.,-1.,0.));
#1576=DIRECTION('',(0.,0.,-1.));
#1577=DIRECTION('',(0.,0.,1.));
#1578=DIRECTION('',(1.,0.,0.));
#1579=DIRECTION('',(0.,-1.,0.));
#1580=DIRECTION('',(0.,0.,-1.));
#1581=DIRECTION('',(0.,0.,1.));
#1582=DIRECTION('',(1.,0.,0.));
#1583=DIRECTION('',(0.,1.,0.));
#1584=DIRECTION('',(0.,0.,1.));
#1585=DIRECTION('',(0.,1.,0.));
#1586=DIRECTION('',(0.,0.,1.));
#1587=CARTESIAN_POINT('',(0.,0.,0.));
#1588=CARTESIAN_POINT('',(0.0045,0.,0.00125));
#1589=CARTESIAN_POINT('',(0.0045,0.,0.00125));
#1590=CARTESIAN_POINT('',(0.0045,0.,0.00075));
#1591=CARTESIAN_POINT('',(0.0045,0.,-0.00075));
#1592=CARTESIAN_POINT('',(0.0045,0.00319615242270663,-0.00075));
#1593=CARTESIAN_POINT('',(0.0045,0.00319615242270663,-0.00075));
#1594=CARTESIAN_POINT('',(0.0045,0.00319615242270663,0.00125));
#1595=CARTESIAN_POINT('',(0.0045,0.00319615242270663,0.00075));
#1596=CARTESIAN_POINT('',(0.0045,0.,0.00075));
#1597=CARTESIAN_POINT('',(-0.0045,0.,0.00125));
#1598=CARTESIAN_POINT('',(-0.0045,0.00319615242270662,-0.00125));
#1599=CARTESIAN_POINT('',(-0.0045,0.00319615242270662,0.00075));
#1600=CARTESIAN_POINT('',(-0.0045,0.00319615242270662,-0.00075));
#1601=CARTESIAN_POINT('',(-0.0045,0.,-0.00075));
#1602=CARTESIAN_POINT('',(-0.0045,0.,-0.00075));
#1603=CARTESIAN_POINT('',(-0.0045,0.,0.00125));
#1604=CARTESIAN_POINT('',(-0.0045,0.,0.00075));
#1605=CARTESIAN_POINT('',(-0.0045,0.00319615242270662,0.00075));
#1606=CARTESIAN_POINT('',(0.,0.,0.00125));
#1607=CARTESIAN_POINT('',(-0.0015,0.00319615242270662,0.00125));
#1608=CARTESIAN_POINT('',(-0.00366506350946109,0.00444615242270663,0.00125));
#1609=CARTESIAN_POINT('',(-0.004,0.00319615242270662,0.00125));
#1610=CARTESIAN_POINT('',(-0.004,0.,0.00125));
#1611=CARTESIAN_POINT('',(-0.004,0.,0.00125));
#1612=CARTESIAN_POINT('',(0.,0.,0.00125));
#1613=CARTESIAN_POINT('',(0.004,0.,0.00125));
#1614=CARTESIAN_POINT('',(0.004,0.,0.00125));
#1615=CARTESIAN_POINT('',(0.004,0.00319615242270663,0.00125));
#1616=CARTESIAN_POINT('',(0.0015,0.00319615242270663,0.00125));
#1617=CARTESIAN_POINT('',(0.00366506350946109,0.00444615242270664,0.00125));
#1618=CARTESIAN_POINT('',(0.00246891108675447,0.00651794919243112,0.00125));
#1619=CARTESIAN_POINT('',(0.00246891108675447,0.00651794919243112,0.00125));
#1620=CARTESIAN_POINT('',(0.0055,0.00826794919243113,0.00125));
#1621=CARTESIAN_POINT('',(0.002,0.00826794919243113,0.00125));
#1622=CARTESIAN_POINT('',(0.002,0.0647320508075689,0.00125));
#1623=CARTESIAN_POINT('',(0.002,0.0647320508075689,0.00125));
#1624=CARTESIAN_POINT('',(0.0055,0.0647320508075689,0.00125));
#1625=CARTESIAN_POINT('',(0.00246891108675447,0.0664820508075689,0.00125));
#1626=CARTESIAN_POINT('',(0.0036650635094611,0.0685538475772934,0.00125));
#1627=CARTESIAN_POINT('',(0.0036650635094611,0.0685538475772934,0.00125));
#1628=CARTESIAN_POINT('',(0.0015,0.0698038475772934,0.00125));
#1629=CARTESIAN_POINT('',(0.004,0.0698038475772934,0.00125));
#1630=CARTESIAN_POINT('',(0.004,0.,0.00125));
#1631=CARTESIAN_POINT('',(0.004,0.073,0.00125));
#1632=CARTESIAN_POINT('',(0.,0.073,0.00125));
#1633=CARTESIAN_POINT('',(-0.004,0.073,0.00125));
#1634=CARTESIAN_POINT('',(-0.004,0.0698038475772934,0.00125));
#1635=CARTESIAN_POINT('',(-0.004,0.0698038475772934,0.00125));
#1636=CARTESIAN_POINT('',(-0.0015,0.0698038475772934,0.00125));
#1637=CARTESIAN_POINT('',(-0.00366506350946109,0.0685538475772934,0.00125));
#1638=CARTESIAN_POINT('',(0.0269358891324553,0.015551442841485,0.00125));
#1639=CARTESIAN_POINT('',(-0.00246891108675446,0.0664820508075689,0.00125));
#1640=CARTESIAN_POINT('',(-0.0055,0.0647320508075689,0.00125));
#1641=CARTESIAN_POINT('',(-0.002,0.0647320508075689,0.00125));
#1642=CARTESIAN_POINT('',(-0.002,1.19488190307292E-19,0.00125));
#1643=CARTESIAN_POINT('',(-0.002,0.00826794919243112,0.00125));
#1644=CARTESIAN_POINT('',(-0.0055,0.00826794919243112,0.00125));
#1645=CARTESIAN_POINT('',(-0.00246891108675447,0.00651794919243112,0.00125));
#1646=CARTESIAN_POINT('',(-0.00467403810567666,0.00269855715851499,0.00125));
#1647=CARTESIAN_POINT('',(-5.21070293320147E-19,0.,0.00125));
#1648=CARTESIAN_POINT('',(0.0031863968679372,0.,0.00125));
#1649=CARTESIAN_POINT('',(-5.21070293320147E-19,0.073,0.00125));
#1650=CARTESIAN_POINT('',(0.0031863968679372,0.073,0.00125));
#1651=CARTESIAN_POINT('',(0.,0.,-0.00125));
#1652=CARTESIAN_POINT('',(0.0015,0.00319615242270663,-0.00125));
#1653=CARTESIAN_POINT('',(0.00366506350946109,0.00444615242270664,-0.00125));
#1654=CARTESIAN_POINT('',(0.004,0.00319615242270663,-0.00125));
#1655=CARTESIAN_POINT('',(0.004,0.,-0.00125));
#1656=CARTESIAN_POINT('',(0.004,0.,-0.00125));
#1657=CARTESIAN_POINT('',(0.,0.,-0.00125));
#1658=CARTESIAN_POINT('',(-0.004,0.,-0.00125));
#1659=CARTESIAN_POINT('',(-0.004,0.,-0.00125));
#1660=CARTESIAN_POINT('',(-0.004,0.00319615242270662,-0.00125));
#1661=CARTESIAN_POINT('',(-0.0015,0.00319615242270662,-0.00125));
#1662=CARTESIAN_POINT('',(-0.0036650635094611,0.00444615242270663,-0.00125));
#1663=CARTESIAN_POINT('',(-0.00246891108675447,0.00651794919243112,-0.00125));
#1664=CARTESIAN_POINT('',(-0.00246891108675447,0.00651794919243112,-0.00125));
#1665=CARTESIAN_POINT('',(-0.0055,0.00826794919243112,-0.00125));
#1666=CARTESIAN_POINT('',(-0.002,0.00826794919243112,-0.00125));
#1667=CARTESIAN_POINT('',(-0.002,0.0647320508075689,-0.00125));
#1668=CARTESIAN_POINT('',(-0.002,0.0647320508075689,-0.00125));
#1669=CARTESIAN_POINT('',(-0.0055,0.0647320508075689,-0.00125));
#1670=CARTESIAN_POINT('',(-0.00246891108675446,0.0664820508075689,-0.00125));
#1671=CARTESIAN_POINT('',(-0.00366506350946109,0.0685538475772934,-0.00125));
#1672=CARTESIAN_POINT('',(-0.00366506350946109,0.0685538475772934,-0.00125));
#1673=CARTESIAN_POINT('',(-0.0015,0.0698038475772934,-0.00125));
#1674=CARTESIAN_POINT('',(-0.004,0.0698038475772934,-0.00125));
#1675=CARTESIAN_POINT('',(-0.004,0.,-0.00125));
#1676=CARTESIAN_POINT('',(-0.004,0.073,-0.00125));
#1677=CARTESIAN_POINT('',(0.,0.073,-0.00125));
#1678=CARTESIAN_POINT('',(0.004,0.073,-0.00125));
#1679=CARTESIAN_POINT('',(0.004,0.0698038475772934,-0.00125));
#1680=CARTESIAN_POINT('',(0.004,0.0698038475772934,-0.00125));
#1681=CARTESIAN_POINT('',(0.0015,0.0698038475772934,-0.00125));
#1682=CARTESIAN_POINT('',(0.00366506350946109,0.0685538475772934,-0.00125));
#1683=CARTESIAN_POINT('',(-0.0269358891324553,0.0155514428414851,-0.00125));
#1684=CARTESIAN_POINT('',(0.00246891108675447,0.0664820508075689,-0.00125));
#1685=CARTESIAN_POINT('',(0.0055,0.0647320508075689,-0.00125));
#1686=CARTESIAN_POINT('',(0.002,0.0647320508075689,-0.00125));
#1687=CARTESIAN_POINT('',(0.002,0.,-0.00125));
#1688=CARTESIAN_POINT('',(0.002,0.00826794919243113,-0.00125));
#1689=CARTESIAN_POINT('',(0.0055,0.00826794919243113,-0.00125));
#1690=CARTESIAN_POINT('',(0.00246891108675447,0.00651794919243112,-0.00125));
#1691=CARTESIAN_POINT('',(0.00467403810567666,0.00269855715851499,-0.00125));
#1692=CARTESIAN_POINT('',(-5.21070293320147E-19,0.,-0.00125));
#1693=CARTESIAN_POINT('',(0.0031863968679372,0.,-0.00125));
#1694=CARTESIAN_POINT('',(-5.21070293320147E-19,0.073,-0.00125));
#1695=CARTESIAN_POINT('',(0.0031863968679372,0.073,-0.00125));
#1696=CARTESIAN_POINT('',(-5.21070293320147E-19,0.,0.));
#1697=CARTESIAN_POINT('',(-5.21070293320147E-19,0.,-0.000864285714285715));
#1698=CARTESIAN_POINT('',(0.00289890241368723,0.,-0.000864285714285715));
#1699=CARTESIAN_POINT('',(-5.21070293320147E-19,0.,0.000864285714285715));
#1700=CARTESIAN_POINT('',(-0.00289890241368723,0.,0.000864285714285715));
#1701=CARTESIAN_POINT('',(-5.21070293320147E-19,0.,-0.00095));
#1702=CARTESIAN_POINT('',(-5.21070293320147E-19,0.,0.00095));
#1703=CARTESIAN_POINT('',(0.0025,0.0219820508075689,-0.02375));
#1704=CARTESIAN_POINT('',(0.0025,0.00826794919243113,-0.00125));
#1705=CARTESIAN_POINT('',(0.0025,0.00826794919243113,0.00075));
#1706=CARTESIAN_POINT('',(0.0025,0.00826794919243113,-0.00075));
#1707=CARTESIAN_POINT('',(0.0025,0.0219820508075689,-0.00075));
#1708=CARTESIAN_POINT('',(0.0025,0.0647320508075689,-0.00075));
#1709=CARTESIAN_POINT('',(0.0025,0.0647320508075689,-0.00125));
#1710=CARTESIAN_POINT('',(0.0025,0.0647320508075689,0.00075));
#1711=CARTESIAN_POINT('',(0.0025,0.00826794919243113,0.00075));
#1712=CARTESIAN_POINT('',(0.0035,0.00573205080756888,-0.02375));
#1713=CARTESIAN_POINT('',(0.00409807621135332,0.00469615242270664,-0.00125));
#1714=CARTESIAN_POINT('',(0.00409807621135332,0.00469615242270664,0.00075));
#1715=CARTESIAN_POINT('',(0.00409807621135332,0.00469615242270664,-0.00075));
#1716=CARTESIAN_POINT('',(0.0035,0.00573205080756888,-0.00075));
#1717=CARTESIAN_POINT('',(0.00290192378864669,0.00676794919243112,-0.00075));
#1718=CARTESIAN_POINT('',(0.00290192378864669,0.00676794919243112,0.00125));
#1719=CARTESIAN_POINT('',(0.00290192378864669,0.00676794919243112,0.00075));
#1720=CARTESIAN_POINT('',(0.00409807621135332,0.00469615242270664,0.00075));
#1721=CARTESIAN_POINT('',(-0.0025,0.0219820508075689,-0.02375));
#1722=CARTESIAN_POINT('',(-0.0025,0.0647320508075689,0.00125));
#1723=CARTESIAN_POINT('',(-0.0025,0.0647320508075689,-0.00075));
#1724=CARTESIAN_POINT('',(-0.0025,0.0647320508075689,0.00075));
#1725=CARTESIAN_POINT('',(-0.0025,0.00826794919243112,-0.00075));
#1726=CARTESIAN_POINT('',(-0.0025,0.00826794919243112,-0.00075));
#1727=CARTESIAN_POINT('',(-0.0025,0.00826794919243112,0.00125));
#1728=CARTESIAN_POINT('',(-0.0025,0.00826794919243112,0.00075));
#1729=CARTESIAN_POINT('',(-0.0025,0.0219820508075689,0.00075));
#1730=CARTESIAN_POINT('',(-0.0035,0.00573205080756888,-0.02375));
#1731=CARTESIAN_POINT('',(-0.00290192378864669,0.00676794919243112,-0.00125));
#1732=CARTESIAN_POINT('',(-0.00290192378864669,0.00676794919243112,0.00075));
#1733=CARTESIAN_POINT('',(-0.00290192378864669,0.00676794919243112,-0.00075));
#1734=CARTESIAN_POINT('',(-0.00409807621135332,0.00469615242270663,-0.00075));
#1735=CARTESIAN_POINT('',(-0.00409807621135332,0.00469615242270663,-0.00075));
#1736=CARTESIAN_POINT('',(-0.00409807621135332,0.00469615242270663,0.00125));
#1737=CARTESIAN_POINT('',(-0.00409807621135332,0.00469615242270663,0.00075));
#1738=CARTESIAN_POINT('',(-0.0035,0.00573205080756888,0.00075));
#1739=CARTESIAN_POINT('',(0.,0.,0.00125));
#1740=CARTESIAN_POINT('',(0.,0.,-0.00075));
#1741=CARTESIAN_POINT('',(0.,0.,0.00075));
#1742=CARTESIAN_POINT('',(0.0015,0.00319615242270663,0.00125));
#1743=CARTESIAN_POINT('',(0.0015,0.00319615242270663,-0.00075));
#1744=CARTESIAN_POINT('',(0.0015,0.00319615242270663,0.00075));
#1745=CARTESIAN_POINT('',(0.0055,0.00826794919243113,-0.02375));
#1746=CARTESIAN_POINT('',(0.0055,0.00826794919243113,-0.00075));
#1747=CARTESIAN_POINT('',(0.0055,0.00826794919243113,0.00075));
#1748=CARTESIAN_POINT('',(-0.0015,0.00319615242270662,-0.02375));
#1749=CARTESIAN_POINT('',(-0.0015,0.00319615242270662,-0.00075));
#1750=CARTESIAN_POINT('',(-0.0015,0.00319615242270662,0.00075));
#1751=CARTESIAN_POINT('',(-0.0055,0.00826794919243112,-0.02375));
#1752=CARTESIAN_POINT('',(-0.0055,0.00826794919243112,-0.00075));
#1753=CARTESIAN_POINT('',(-0.0055,0.00826794919243112,0.00075));
#1754=CARTESIAN_POINT('',(0.0045,0.073,0.00125));
#1755=CARTESIAN_POINT('',(0.0045,0.0698038475772934,0.00125));
#1756=CARTESIAN_POINT('',(0.0045,0.0698038475772934,-0.00075));
#1757=CARTESIAN_POINT('',(0.0045,0.0698038475772934,0.00075));
#1758=CARTESIAN_POINT('',(0.0045,0.073,-0.00075));
#1759=CARTESIAN_POINT('',(0.0045,0.073,-0.00075));
#1760=CARTESIAN_POINT('',(0.0045,0.073,0.00125));
#1761=CARTESIAN_POINT('',(0.0045,0.073,0.00075));
#1762=CARTESIAN_POINT('',(0.0045,0.073,0.00075));
#1763=CARTESIAN_POINT('',(-0.0045,0.073,0.00125));
#1764=CARTESIAN_POINT('',(-0.0045,0.073,0.00125));
#1765=CARTESIAN_POINT('',(-0.0045,0.073,-0.00075));
#1766=CARTESIAN_POINT('',(-0.0045,0.073,0.00075));
#1767=CARTESIAN_POINT('',(-0.0045,0.073,-0.00075));
#1768=CARTESIAN_POINT('',(-0.0045,0.0698038475772934,-0.00075));
#1769=CARTESIAN_POINT('',(-0.0045,0.0698038475772934,-0.00125));
#1770=CARTESIAN_POINT('',(-0.0045,0.0698038475772934,0.00075));
#1771=CARTESIAN_POINT('',(-0.0045,0.073,0.00075));
#1772=CARTESIAN_POINT('',(-5.21070293320147E-19,0.073,0.));
#1773=CARTESIAN_POINT('',(-5.21070293320147E-19,0.073,-0.000864285714285715));
#1774=CARTESIAN_POINT('',(0.00289890241368723,0.073,-0.000864285714285715));
#1775=CARTESIAN_POINT('',(-5.21070293320147E-19,0.073,0.000864285714285715));
#1776=CARTESIAN_POINT('',(-0.00289890241368723,0.073,0.000864285714285715));
#1777=CARTESIAN_POINT('',(-5.21070293320147E-19,0.073,-0.00095));
#1778=CARTESIAN_POINT('',(-5.21070293320147E-19,0.073,0.00095));
#1779=CARTESIAN_POINT('',(0.0035,0.0672679491924311,-0.02375));
#1780=CARTESIAN_POINT('',(0.00290192378864669,0.0662320508075689,0.00125));
#1781=CARTESIAN_POINT('',(0.00290192378864669,0.0662320508075689,-0.00075));
#1782=CARTESIAN_POINT('',(0.00290192378864669,0.0662320508075689,0.00075));
#1783=CARTESIAN_POINT('',(0.0035,0.0672679491924311,-0.00075));
#1784=CARTESIAN_POINT('',(0.00409807621135332,0.0683038475772934,-0.00075));
#1785=CARTESIAN_POINT('',(0.00409807621135332,0.0683038475772934,-0.00125));
#1786=CARTESIAN_POINT('',(0.00409807621135332,0.0683038475772934,0.00075));
#1787=CARTESIAN_POINT('',(0.00290192378864669,0.0662320508075689,0.00075));
#1788=CARTESIAN_POINT('',(-0.0035,0.0672679491924311,-0.02375));
#1789=CARTESIAN_POINT('',(-0.00409807621135332,0.0683038475772934,0.00125));
#1790=CARTESIAN_POINT('',(-0.00409807621135332,0.0683038475772934,-0.00075));
#1791=CARTESIAN_POINT('',(-0.00409807621135332,0.0683038475772934,0.00075));
#1792=CARTESIAN_POINT('',(-0.00290192378864668,0.0662320508075689,-0.00075));
#1793=CARTESIAN_POINT('',(-0.00290192378864669,0.0662320508075689,-0.00075));
#1794=CARTESIAN_POINT('',(-0.00290192378864669,0.0662320508075689,-0.00125));
#1795=CARTESIAN_POINT('',(-0.00290192378864669,0.0662320508075689,0.00075));
#1796=CARTESIAN_POINT('',(-0.0035,0.0672679491924311,0.00075));
#1797=CARTESIAN_POINT('',(0.,0.073,0.00125));
#1798=CARTESIAN_POINT('',(0.,0.073,-0.00075));
#1799=CARTESIAN_POINT('',(0.,0.073,0.00075));
#1800=CARTESIAN_POINT('',(0.0015,0.0698038475772934,0.00125));
#1801=CARTESIAN_POINT('',(0.0015,0.0698038475772934,-0.00075));
#1802=CARTESIAN_POINT('',(0.0015,0.0698038475772934,0.00075));
#1803=CARTESIAN_POINT('',(0.0055,0.0647320508075689,-0.02375));
#1804=CARTESIAN_POINT('',(0.0055,0.0647320508075689,-0.00075));
#1805=CARTESIAN_POINT('',(0.0055,0.0647320508075689,0.00075));
#1806=CARTESIAN_POINT('',(-0.0015,0.0698038475772934,-0.02375));
#1807=CARTESIAN_POINT('',(-0.0015,0.0698038475772934,-0.00075));
#1808=CARTESIAN_POINT('',(-0.0015,0.0698038475772934,0.00075));
#1809=CARTESIAN_POINT('',(-0.0055,0.0647320508075689,-0.02375));
#1810=CARTESIAN_POINT('',(-0.0055,0.0647320508075689,-0.00075));
#1811=CARTESIAN_POINT('',(-0.0055,0.0647320508075689,0.00075));
#1812=CARTESIAN_POINT('',(-0.004,0.,-0.00075));
#1813=CARTESIAN_POINT('',(-0.004,0.0698038475772934,-0.00075));
#1814=CARTESIAN_POINT('',(-0.004,0.073,-0.00075));
#1815=CARTESIAN_POINT('',(0.,0.073,-0.00075));
#1816=CARTESIAN_POINT('',(0.004,0.073,-0.00075));
#1817=CARTESIAN_POINT('',(-0.0015,0.0698038475772934,-0.00075));
#1818=CARTESIAN_POINT('',(-0.00366506350946109,0.0685538475772934,-0.00075));
#1819=CARTESIAN_POINT('',(0.004,0.073,-0.00075));
#1820=CARTESIAN_POINT('',(0.004,0.0698038475772934,-0.00075));
#1821=CARTESIAN_POINT('',(0.0269358891324553,0.015551442841485,-0.00075));
#1822=CARTESIAN_POINT('',(-0.00246891108675447,0.0664820508075689,-0.00075));
#1823=CARTESIAN_POINT('',(0.0015,0.0698038475772934,-0.00075));
#1824=CARTESIAN_POINT('',(0.00366506350946109,0.0685538475772934,-0.00075));
#1825=CARTESIAN_POINT('',(-0.0055,0.0647320508075689,-0.00075));
#1826=CARTESIAN_POINT('',(-0.002,0.0647320508075689,-0.00075));
#1827=CARTESIAN_POINT('',(0.00306698729810778,0.0675179491924311,-0.00075));
#1828=CARTESIAN_POINT('',(0.00246891108675447,0.0664820508075689,-0.00075));
#1829=CARTESIAN_POINT('',(-0.002,0.0219820508075689,-0.00075));
#1830=CARTESIAN_POINT('',(-0.002,0.00826794919243112,-0.00075));
#1831=CARTESIAN_POINT('',(0.0055,0.0647320508075689,-0.00075));
#1832=CARTESIAN_POINT('',(0.002,0.0647320508075689,-0.00075));
#1833=CARTESIAN_POINT('',(-0.0055,0.00826794919243112,-0.00075));
#1834=CARTESIAN_POINT('',(-0.00246891108675447,0.00651794919243112,-0.00075));
#1835=CARTESIAN_POINT('',(0.002,0.,-0.00075));
#1836=CARTESIAN_POINT('',(0.002,0.00826794919243113,-0.00075));
#1837=CARTESIAN_POINT('',(-0.00306698729810778,0.00548205080756888,-0.00075));
#1838=CARTESIAN_POINT('',(-0.0036650635094611,0.00444615242270663,-0.00075));
#1839=CARTESIAN_POINT('',(0.0055,0.00826794919243113,-0.00075));
#1840=CARTESIAN_POINT('',(0.00246891108675447,0.00651794919243112,-0.00075));
#1841=CARTESIAN_POINT('',(-0.0015,0.00319615242270662,-0.00075));
#1842=CARTESIAN_POINT('',(-0.004,0.00319615242270662,-0.00075));
#1843=CARTESIAN_POINT('',(0.00467403810567666,0.00269855715851499,-0.00075));
#1844=CARTESIAN_POINT('',(0.00366506350946109,0.00444615242270664,-0.00075));
#1845=CARTESIAN_POINT('',(-0.004,0.,-0.00075));
#1846=CARTESIAN_POINT('',(-0.004,0.,-0.00075));
#1847=CARTESIAN_POINT('',(0.0015,0.00319615242270663,-0.00075));
#1848=CARTESIAN_POINT('',(0.004,0.00319615242270663,-0.00075));
#1849=CARTESIAN_POINT('',(0.,0.,-0.00075));
#1850=CARTESIAN_POINT('',(0.004,0.,-0.00075));
#1851=CARTESIAN_POINT('',(0.004,0.,-0.00075));
#1852=CARTESIAN_POINT('',(0.004,0.,0.00075));
#1853=CARTESIAN_POINT('',(0.004,0.0698038475772934,0.00075));
#1854=CARTESIAN_POINT('',(0.004,0.073,0.00075));
#1855=CARTESIAN_POINT('',(0.,0.073,0.00075));
#1856=CARTESIAN_POINT('',(-0.004,0.073,0.00075));
#1857=CARTESIAN_POINT('',(0.0015,0.0698038475772934,0.00075));
#1858=CARTESIAN_POINT('',(0.00366506350946109,0.0685538475772934,0.00075));
#1859=CARTESIAN_POINT('',(-0.004,0.073,0.00075));
#1860=CARTESIAN_POINT('',(-0.004,0.0698038475772934,0.00075));
#1861=CARTESIAN_POINT('',(-0.0269358891324553,0.0155514428414851,0.00075));
#1862=CARTESIAN_POINT('',(0.00246891108675447,0.0664820508075689,0.00075));
#1863=CARTESIAN_POINT('',(-0.0015,0.0698038475772934,0.00075));
#1864=CARTESIAN_POINT('',(-0.00366506350946109,0.0685538475772934,0.00075));
#1865=CARTESIAN_POINT('',(0.0055,0.0647320508075689,0.00075));
#1866=CARTESIAN_POINT('',(0.002,0.0647320508075689,0.00075));
#1867=CARTESIAN_POINT('',(-0.00306698729810778,0.0675179491924311,0.00075));
#1868=CARTESIAN_POINT('',(-0.00246891108675446,0.0664820508075689,0.00075));
#1869=CARTESIAN_POINT('',(0.002,0.0219820508075689,0.00075));
#1870=CARTESIAN_POINT('',(0.002,0.00826794919243113,0.00075));
#1871=CARTESIAN_POINT('',(-0.0055,0.0647320508075689,0.00075));
#1872=CARTESIAN_POINT('',(-0.002,0.0647320508075689,0.00075));
#1873=CARTESIAN_POINT('',(0.0055,0.00826794919243113,0.00075));
#1874=CARTESIAN_POINT('',(0.00246891108675447,0.00651794919243112,0.00075));
#1875=CARTESIAN_POINT('',(-0.002,1.19488190307292E-19,0.00075));
#1876=CARTESIAN_POINT('',(-0.002,0.00826794919243112,0.00075));
#1877=CARTESIAN_POINT('',(0.00306698729810778,0.00548205080756888,0.00075));
#1878=CARTESIAN_POINT('',(0.00366506350946109,0.00444615242270664,0.00075));
#1879=CARTESIAN_POINT('',(-0.0055,0.00826794919243112,0.00075));
#1880=CARTESIAN_POINT('',(-0.00246891108675447,0.00651794919243112,0.00075));
#1881=CARTESIAN_POINT('',(0.0015,0.00319615242270663,0.00075));
#1882=CARTESIAN_POINT('',(0.004,0.00319615242270663,0.00075));
#1883=CARTESIAN_POINT('',(-0.00467403810567666,0.00269855715851499,0.00075));
#1884=CARTESIAN_POINT('',(-0.00366506350946109,0.00444615242270663,0.00075));
#1885=CARTESIAN_POINT('',(0.004,0.,0.00075));
#1886=CARTESIAN_POINT('',(0.004,0.,0.00075));
#1887=CARTESIAN_POINT('',(-0.0015,0.00319615242270662,0.00075));
#1888=CARTESIAN_POINT('',(-0.004,0.00319615242270662,0.00075));
#1889=CARTESIAN_POINT('',(0.,0.,0.00075));
#1890=CARTESIAN_POINT('',(-0.004,0.,0.00075));
#1891=CARTESIAN_POINT('',(-0.004,0.,0.00075));
#1892=MECHANICAL_DESIGN_GEOMETRIC_PRESENTATION_REPRESENTATION('',(#1045),
#1893);
#1893=(
GEOMETRIC_REPRESENTATION_CONTEXT(3)
GLOBAL_UNCERTAINTY_ASSIGNED_CONTEXT((#1894))
GLOBAL_UNIT_ASSIGNED_CONTEXT((#1897,#1896,#1895))
REPRESENTATION_CONTEXT('Part 1','TOP_LEVEL_ASSEMBLY_PART')
);
#1894=UNCERTAINTY_MEASURE_WITH_UNIT(LENGTH_MEASURE(1.E-8),#1897,
'DISTANCE_ACCURACY_VALUE','Maximum Tolerance applied to model');
#1895=(
NAMED_UNIT(*)
SI_UNIT($,.STERADIAN.)
SOLID_ANGLE_UNIT()
);
#1896=(
NAMED_UNIT(*)
PLANE_ANGLE_UNIT()
SI_UNIT($,.RADIAN.)
);
#1897=(
LENGTH_UNIT()
NAMED_UNIT(*)
SI_UNIT($,.METRE.)
);
#1898=PRODUCT_DEFINITION_SHAPE('','',#1899);
#1899=PRODUCT_DEFINITION('','',#1901,#1900);
#1900=PRODUCT_DEFINITION_CONTEXT('',#1907,'design');
#1901=PRODUCT_DEFINITION_FORMATION_WITH_SPECIFIED_SOURCE('','',#1903,
 .NOT_KNOWN.);
#1902=PRODUCT_RELATED_PRODUCT_CATEGORY('','',(#1903));
#1903=PRODUCT('Part 1','Part 1','Part 1',(#1905));
#1904=PRODUCT_CATEGORY('','');
#1905=PRODUCT_CONTEXT('',#1907,'mechanical');
#1906=APPLICATION_PROTOCOL_DEFINITION('international standard',
'ap242_managed_model_based_3d_engineering',2020,#1907);
#1907=APPLICATION_CONTEXT('managed model based 3d engineering');
ENDSEC;
END-ISO-10303-21;
